<?xml version="1.0" encoding="utf-8"?>
<!-- Generator: Adobe Illustrator 25.3.0, SVG Export Plug-In . SVG Version: 6.00 Build 0)  -->
<svg version="1.1" id="Layer_1" xmlns="http://www.w3.org/2000/svg" xmlns:xlink="http://www.w3.org/1999/xlink" x="0px" y="0px"
	 viewBox="0 0 88.6 81.7" style="enable-background:new 0 0 88.6 81.7;" xml:space="preserve">
<style type="text/css">
	.st0{fill:none;stroke:#7A94AB;stroke-width:3;stroke-linecap:round;stroke-linejoin:round;stroke-miterlimit:10;}
</style>
<g id="Group_19008" transform="translate(1.25 1.25)">
	<g id="Group_15959" transform="translate(37.433 11.37)">
		<path id="Path_57829" class="st0" d="M18.2,15.7C8.6,14.1,5.6,10,5.6,10s-3.3,4-12.6,5.7c0,0-6,17.6,12.6,25.1
			C24.2,33.2,18.2,15.7,18.2,15.7z"/>
		<g id="Group_15958" transform="translate(9.163 13.66)">
			<line id="Line_3490" class="st0" x1="-9.9" y1="11.8" x2="-6" y2="15.8"/>
			<line id="Line_3491" class="st0" x1="-6" y1="15.8" x2="2.6" y2="6.9"/>
		</g>
	</g>
	<path id="Path_57830" class="st0" d="M77.7,66.6H8.4c-4.3,0-7.7-3.4-7.7-7.7h84.7C85.4,63.2,82,66.6,77.7,66.6z"/>
	<path id="Rectangle_8224" class="st0" d="M11.7,12.6h62.5c0.9,0,1.5,0.7,1.5,1.5v44.8l0,0H10.2l0,0V14.1
		C10.2,13.3,10.8,12.6,11.7,12.6z"/>
</g>
</svg>
