<?xml version="1.0" encoding="utf-8"?>
<!-- Generator: Adobe Illustrator 25.3.0, SVG Export Plug-In . SVG Version: 6.00 Build 0)  -->
<svg version="1.1" id="Layer_1" xmlns="http://www.w3.org/2000/svg" xmlns:xlink="http://www.w3.org/1999/xlink" x="0px" y="0px"
	 viewBox="0 0 88.6 81.7" style="enable-background:new 0 0 88.6 81.7;" xml:space="preserve">
<style type="text/css">
	.st0{fill:none;stroke:#7A94AB;stroke-width:3;stroke-linecap:round;stroke-linejoin:round;stroke-miterlimit:10;}
</style>
<g id="Group_19013" transform="translate(0.884 0.884)">
	<path id="Path_58687" class="st0" d="M8.6,42.6c0-17.2,12.6-31.8,29.6-34.4"/>
	<path id="Path_58688" class="st0" d="M78.2,42.6c0,19.2-15.6,34.8-34.8,34.8C26.2,77.4,11.6,64.8,9,47.8"/>
	<path id="Path_58689" class="st0" d="M43.4,7.8c17.9,0,32.8,13.5,34.6,31.3"/>
	<path id="Path_58690" class="st0" d="M26,72.4v-8.9c0-3.8,3.1-7,7-7h20.9c3.8,0,7,3.1,7,7v8.9"/>
	<ellipse id="Ellipse_3168" class="st0" cx="42.8" cy="37" rx="10.8" ry="10.3"/>
	<path id="Path_58691" class="st0" d="M73,47.8l5.2-5.2l5.2,5.2"/>
	<path id="Path_58692" class="st0" d="M46.9,13l-5.2-5.2l5.2-5.2"/>
	<path id="Path_58693" class="st0" d="M13.8,39.1l-5.2,5.2l-5.2-5.2"/>
</g>
</svg>
