<?xml version="1.0" encoding="utf-8"?>
<!-- Generator: Adobe Illustrator 25.3.0, SVG Export Plug-In . SVG Version: 6.00 Build 0)  -->
<svg version="1.1" id="Layer_1" xmlns="http://www.w3.org/2000/svg" xmlns:xlink="http://www.w3.org/1999/xlink" x="0px" y="0px"
	 viewBox="0 0 88.6 81.7" style="enable-background:new 0 0 88.6 81.7;" xml:space="preserve">
<style type="text/css">
	.st0{fill:none;stroke:#7A94AB;stroke-width:3;stroke-linecap:round;stroke-linejoin:round;stroke-miterlimit:10;}
</style>
<g id="Group_19012" transform="translate(1.25 1.25)">
	<rect id="Rectangle_7780" x="13.8" y="1.3" class="st0" width="58.6" height="76.6"/>
	<ellipse id="Ellipse_2473" class="st0" cx="54.3" cy="50.9" rx="9" ry="9"/>
	<path id="Path_56360" class="st0" d="M49.2,58.2v10.9l5.4-3.6l5.4,3.6V58.2"/>
	<line id="Line_1641" class="st0" x1="30.7" y1="13.7" x2="57.7" y2="13.7"/>
	<line id="Line_1642" class="st0" x1="22.8" y1="22.7" x2="64.5" y2="22.7"/>
	<line id="Line_1643" class="st0" x1="22.8" y1="31.7" x2="64.5" y2="31.7"/>
	<line id="Line_1644" class="st0" x1="22.8" y1="48.6" x2="36.3" y2="48.6"/>
	<line id="Line_1645" class="st0" x1="22.8" y1="55.4" x2="36.3" y2="55.4"/>
	<line id="Line_1646" class="st0" x1="22.8" y1="55.4" x2="36.3" y2="55.4"/>
	<line id="Line_1647" class="st0" x1="22.8" y1="55.4" x2="36.3" y2="55.4"/>
	<line id="Line_1648" class="st0" x1="22.8" y1="55.4" x2="36.3" y2="55.4"/>
	<line id="Line_1649" class="st0" x1="22.8" y1="63.3" x2="36.3" y2="63.3"/>
	<line id="Line_1650" class="st0" x1="22.8" y1="63.3" x2="36.3" y2="63.3"/>
	<line id="Line_1651" class="st0" x1="22.8" y1="63.3" x2="36.3" y2="63.3"/>
	<line id="Line_1652" class="st0" x1="22.8" y1="63.3" x2="36.3" y2="63.3"/>
</g>
</svg>
