<?xml version="1.0" encoding="utf-8"?>
<!-- Generator: Adobe Illustrator 25.3.0, SVG Export Plug-In . SVG Version: 6.00 Build 0)  -->
<svg version="1.1" id="Layer_1" xmlns="http://www.w3.org/2000/svg" xmlns:xlink="http://www.w3.org/1999/xlink" x="0px" y="0px"
	 viewBox="0 0 88.6 81.7" style="enable-background:new 0 0 88.6 81.7;" xml:space="preserve">
<style type="text/css">
	.st0{fill:none;stroke:#7A94AB;stroke-width:3;stroke-linecap:round;stroke-linejoin:round;stroke-miterlimit:10;}
	.st1{fill:#7A94AB;}
	.st2{fill:#93BAE2;}
	.st3{opacity:0.3;}
</style>
<g id="Group_19010" transform="translate(1.25 1.25)">
	<g id="Group_16575" transform="translate(38.22 50.29)">
		<path id="Path_58611" class="st0" d="M-0.4,8.7V6.7C-0.4,2.5,3.1-1,7.3-1l0,0C11.6-1,15,2.5,15,6.7l0,0c0,2.5-1,4.8-2.7,6.6
			L-0.4,26H17"/>
		<path id="Path_58612" class="st0" d="M32.4,27.9V-1L18.9,18.3h19.3"/>
	</g>
	<path id="Path_58613" class="st0" d="M27.7,76.3C7.5,69.6-3.5,47.9,3.1,27.6S31.6-3.6,51.8,3.1c15.8,5.2,26.5,20,26.5,36.6l5.8-5.8
		"/>
	<line id="Line_4208" class="st0" x1="78.1" y1="39.6" x2="72.1" y2="33.6"/>
	<line id="Line_4209" class="st0" x1="39.8" y1="1.3" x2="39.8" y2="8.5"/>
	<line id="Line_4210" class="st0" x1="1.4" y1="37.2" x2="8.6" y2="37.2"/>
	<g id="Ellipse_3115">
		<path class="st1" d="M39.8,35.5c1.6,0,3,1.1,3,2.4s-1.4,2.4-3,2.4s-3-1.1-3-2.4S38.1,35.5,39.8,35.5 M39.8,32.5
			c-3.3,0-6,2.4-6,5.4c0,3,2.7,5.4,6,5.4s6-2.4,6-5.4C45.8,34.9,43.1,32.5,39.8,32.5L39.8,32.5z"/>
	</g>
	<line id="Line_4211" class="st0" x1="39.8" y1="32.5" x2="39.8" y2="13.3"/>
	<line id="Line_4212" class="st0" x1="23" y1="37.2" x2="33.8" y2="37.2"/>
</g>
<g id="freepik--Question_Mark--inject-94">
	<g>
		<g>
			<path class="st2" d="M190.7,163.6c-7.2,0-13.5-2.4-18.9-7.3c-5.4-4.9-8.1-11.7-8.1-20.5c0-7.8,2.6-14.3,7.8-19.6
				c5.2-5.3,11.6-8,19.2-8c7.5,0,13.7,2.7,18.8,8c5.1,5.3,7.6,11.9,7.6,19.6c0,8.6-2.7,15.4-8,20.4S197.7,163.6,190.7,163.6
				L190.7,163.6z"/>
			<path class="st2" d="M107.5-32.3c0-11.4,3.5-23,10.6-34.7c7-11.7,17.3-21.4,30.8-29.1c13.5-7.7,29.2-11.5,47.2-11.5
				c16.7,0,31.5,3.2,44.3,9.7c12.8,6.4,22.7,15.2,29.7,26.3c7,11.1,10.5,23.1,10.5,36.1c0,10.2-2,19.2-6,26.9
				c-4,7.7-8.7,14.3-14.2,19.9c-5.5,5.6-15.3,15-29.5,28.2c-3.9,3.7-7.1,7-9.4,9.8c-2.4,2.8-4.1,5.4-5.3,7.8s-2,4.7-2.7,7
				c-0.6,2.3-1.6,6.5-2.9,12.4c-2.2,12.5-9.1,18.8-20.6,18.8c-6,0-11-2-15.1-6.1c-4.1-4.1-6.1-10.2-6.1-18.2
				c0-10.1,1.5-18.9,4.5-26.3c3-7.4,7-13.9,11.9-19.5c5-5.6,11.6-12.2,20.1-19.9c7.4-6.7,12.7-11.8,16-15.2s6.1-7.2,8.3-11.5
				c2.2-4.2,3.4-8.8,3.4-13.7c0-9.6-3.4-17.7-10.3-24.4c-6.9-6.6-15.7-9.9-26.6-9.9c-12.7,0-22,3.3-28,10
				c-6,6.7-11.1,16.5-15.2,29.5c-3.9,13.6-11.4,20.4-22.3,20.4c-6.5,0-11.9-2.4-16.3-7.1C109.7-21.6,107.5-26.8,107.5-32.3
				L107.5-32.3z"/>
		</g>
		<g class="st3">
			<path d="M190.7,163.6c-7.2,0-13.5-2.4-18.9-7.3c-5.4-4.9-8.1-11.7-8.1-20.5c0-7.8,2.6-14.3,7.8-19.6c5.2-5.3,11.6-8,19.2-8
				c7.5,0,13.7,2.7,18.8,8c5.1,5.3,7.6,11.9,7.6,19.6c0,8.6-2.7,15.4-8,20.4S197.7,163.6,190.7,163.6L190.7,163.6z"/>
			<path d="M107.5-32.3c0-11.4,3.5-23,10.6-34.7c7-11.7,17.3-21.4,30.8-29.1c13.5-7.7,29.2-11.5,47.2-11.5c16.7,0,31.5,3.2,44.3,9.7
				c12.8,6.4,22.7,15.2,29.7,26.3c7,11.1,10.5,23.1,10.5,36.1c0,10.2-2,19.2-6,26.9c-4,7.7-8.7,14.3-14.2,19.9
				c-5.5,5.6-15.3,15-29.5,28.2c-3.9,3.7-7.1,7-9.4,9.8c-2.4,2.8-4.1,5.4-5.3,7.8s-2,4.7-2.7,7c-0.6,2.3-1.6,6.5-2.9,12.4
				c-2.2,12.5-9.1,18.8-20.6,18.8c-6,0-11-2-15.1-6.1c-4.1-4.1-6.1-10.2-6.1-18.2c0-10.1,1.5-18.9,4.5-26.3c3-7.4,7-13.9,11.9-19.5
				c5-5.6,11.6-12.2,20.1-19.9c7.4-6.7,12.7-11.8,16-15.2s6.1-7.2,8.3-11.5c2.2-4.2,3.4-8.8,3.4-13.7c0-9.6-3.4-17.7-10.3-24.4
				c-6.9-6.6-15.7-9.9-26.6-9.9c-12.7,0-22,3.3-28,10c-6,6.7-11.1,16.5-15.2,29.5c-3.9,13.6-11.4,20.4-22.3,20.4
				c-6.5,0-11.9-2.4-16.3-7.1C109.7-21.6,107.5-26.8,107.5-32.3L107.5-32.3z"/>
		</g>
		<g>
			<path class="st1" d="M190.7,156.3c-7.2,0-13.5-2.4-18.9-7.3c-5.4-4.9-8.1-11.7-8.1-20.5c0-7.8,2.6-14.3,7.8-19.6
				c5.2-5.3,11.6-8,19.2-8c7.5,0,13.7,2.7,18.8,8c5.1,5.3,7.6,11.9,7.6,19.6c0,8.6-2.7,15.4-8,20.4S197.7,156.3,190.7,156.3
				L190.7,156.3z"/>
			<path class="st1" d="M107.5-39.6c0-11.4,3.5-23,10.6-34.7c7-11.7,17.3-21.4,30.8-29.1c13.5-7.7,29.2-11.5,47.2-11.5
				c16.7,0,31.5,3.2,44.3,9.7c12.8,6.4,22.7,15.2,29.7,26.3C277-68,280.5-56,280.5-43c0,10.2-2,19.2-6,26.9
				c-4,7.7-8.7,14.3-14.2,19.9c-5.5,5.6-15.3,15-29.5,28.2c-3.9,3.7-7.1,7-9.4,9.8c-2.4,2.8-4.1,5.4-5.3,7.8s-2,4.7-2.7,7
				c-0.6,2.3-1.6,6.5-2.9,12.4c-2.2,12.5-9.1,18.8-20.6,18.8c-6,0-11-2-15.1-6.1c-4.1-4.1-6.1-10.2-6.1-18.2
				c0-10.1,1.5-18.9,4.5-26.3c3-7.4,7-13.9,11.9-19.5c5-5.6,11.6-12.2,20.1-19.9c7.4-6.7,12.7-11.8,16-15.2
				c3.3-3.4,6.1-7.2,8.3-11.5c2.2-4.2,3.4-8.8,3.4-13.7c0-9.6-3.4-17.7-10.3-24.4c-6.9-6.6-15.7-9.9-26.6-9.9c-12.7,0-22,3.3-28,10
				c-6,6.7-11.1,16.5-15.2,29.5C148.9-23.8,141.5-17,130.5-17c-6.5,0-11.9-2.4-16.3-7.1C109.7-28.9,107.5-34.1,107.5-39.6
				L107.5-39.6z"/>
		</g>
	</g>
</g>
</svg>
