<?xml version="1.0" encoding="utf-8"?>
<!-- Generator: Adobe Illustrator 25.3.0, SVG Export Plug-In . SVG Version: 6.00 Build 0)  -->
<svg version="1.1" id="Layer_1" xmlns="http://www.w3.org/2000/svg" xmlns:xlink="http://www.w3.org/1999/xlink" x="0px" y="0px"
	 viewBox="0 0 1381.6 1427.9" style="enable-background:new 0 0 1381.6 1427.9;" xml:space="preserve">
<style type="text/css">
	.st0{fill:#7A96AE;}
	.st1{fill:#FFFFFF;}
</style>
<g>
	<g>
		<g>
			<path class="st0" d="M48.2,1330c-17.5,0-31.7-14.2-31.7-31.7V900.2c0-107.1,87.1-194.3,194.3-194.3h193.9
				C432,609.2,520.4,542,621.5,542H760c100.9,0,189.3,67.1,216.7,163.9h194.1c107.1,0,194.3,87.1,194.3,194.3v398.3
				c0,17.4-14.2,31.5-31.7,31.5s-31.7-14.2-31.7-31.7V900c0-72.2-58.7-130.9-130.9-130.9H985.2v325.8c0,67-54.5,121.5-121.5,121.5
				s-121.5-54.5-121.5-121.5V900c0-48.7,18.2-95.4,51.3-131.4c30.9-33.6,72.2-55.2,117-61.2c-24.3-61.5-83.8-102.3-150.5-102.3
				H621.5c-66.7,0-126.2,40.8-150.5,102.3c44.8,6,86.1,27.5,117.1,61.2c33,36,51.2,82.6,51.2,131.4v194.9
				c0,67-54.5,121.5-121.5,121.5s-121.5-54.5-121.5-121.5V769H211c-72.2,0-131,58.8-131,131v398.3C79.9,1315.8,65.7,1330,48.2,1330z
				 M922.1,769.8C856.2,777.1,805.6,833,805.6,900v194.9c0,32.1,26.1,58.2,58.2,58.2c32.1,0,58.2-26.1,58.2-58.2V769.8z
				 M459.7,1094.9c0,32.1,26.1,58.2,58.2,58.2c32.1,0,58.2-26.1,58.2-58.2V900c0-66.9-50.6-122.8-116.5-130.2V1094.9z"/>
			<path class="st1" d="M760,548.5c101.6,0,187.3,69.7,211.8,163.9h199c103.5,0,187.8,84.2,187.8,187.8v398.3
				c0,13.8-11.3,25-25.2,25c-13.9,0-25.2-11.3-25.2-25.2V900c0-75.7-61.7-137.4-137.4-137.4H978.7c0,1.5,0,2.9,0,4.5v327.8
				c0,63.4-51.6,115-115,115c-63.4,0-115-51.6-115-115V900c0-97.8,75.3-178.4,170.8-187C896.9,646.5,834,598.6,760,598.6H621.5
				c-74,0-136.9,47.9-159.5,114.4c95.6,8.5,170.8,89.2,170.8,187v194.9c0,63.4-51.6,115-115,115c-63.4,0-115-51.6-115-115V767
				c0-1.5,0-2.9,0-4.5H211c-75.9,0-137.5,61.7-137.5,137.5v398.3c0,13.9-11.3,25.2-25.2,25.2c-13.9,0-25.2-11.3-25.2-25.2V900.2
				c0-103.5,84.2-187.8,187.8-187.8h198.9c24.3-94.2,110-163.9,211.8-163.9H760 M863.8,1159.7c35.7,0,64.7-29,64.7-64.7V767
				c-0.1-1.3-0.1-2.8-0.1-4.2C856.4,767,799.1,826.9,799.1,900v194.9C799.1,1130.7,828.1,1159.7,863.8,1159.7 M517.9,1159.7
				c35.7,0,64.7-29,64.7-64.7V900c0-73.1-57.4-133-129.5-137.2c0,1.5,0,2.8,0,4.2v327.9C453.2,1130.7,482.2,1159.7,517.9,1159.7
				 M760,535.5H621.5c-26.4,0-52.3,4.4-76.9,13.1c-23.8,8.4-46.1,20.6-66,36.3c-19.8,15.5-36.8,34-50.6,55
				c-12.2,18.5-21.6,38.5-28,59.5h-189c-110.7,0-200.8,90.1-200.8,200.8v398.2c0,21.1,17.1,38.2,38.2,38.2s38.2-17.1,38.2-38.2V900
				c0-68.7,55.9-124.5,124.5-124.5h178.9v319.4c0,70.6,57.4,128,128,128s128-57.4,128-128V900c0-50.4-18.8-98.6-52.9-135.8
				c-30-32.7-69.5-54.3-112.6-61.9c25.1-54.8,80-90.7,141.3-90.7H760c61.2,0,116.2,35.9,141.3,90.7c-43.1,7.7-82.5,29.3-112.6,61.9
				c-34.2,37.2-53,85.4-53,135.8v194.9c0,70.6,57.4,128,128,128s128-57.4,128-128V775.6h179.1c68.6,0,124.4,55.8,124.4,124.4v398.3
				c0,21.1,17.1,38.2,38.2,38.2c21.1,0,38.2-17.1,38.2-38V900.2c0-110.7-90.1-200.8-200.8-200.8H981.6c-6.5-21-15.9-41-28.1-59.5
				c-13.8-21-30.9-39.5-50.6-55c-20-15.7-42.2-27.9-66-36.3C812.2,539.9,786.3,535.5,760,535.5L760,535.5z M863.8,1146.7
				c-28.5,0-51.7-23.2-51.7-51.7V900c0-61.2,44.5-112.7,103.5-122.7v317.6C915.6,1123.5,892.4,1146.7,863.8,1146.7L863.8,1146.7z
				 M517.9,1146.7c-28.5,0-51.7-23.2-51.7-51.7V777.3c59,10.1,103.5,61.5,103.5,122.7v194.9C569.7,1123.5,546.4,1146.7,517.9,1146.7
				L517.9,1146.7z"/>
		</g>
	</g>
	<g>
		<g>
			<path class="st0" d="M1067.4,647.6c-99.2,0-179.9-80.7-179.9-179.9s80.7-179.9,179.9-179.9c99.3,0,180,80.7,180,179.9
				S1166.7,647.6,1067.4,647.6z M1067.4,350.9c-64.3,0-116.7,52.3-116.7,116.7c0,64.3,52.3,116.7,116.7,116.7
				s116.7-52.3,116.7-116.7C1184.1,403.2,1131.7,350.9,1067.4,350.9z"/>
			<path class="st1" d="M1067.4,294.3c95.6,0,173.5,77.8,173.5,173.4s-77.9,173.4-173.5,173.4S894,563.3,894,467.7
				S971.8,294.3,1067.4,294.3 M1067.4,590.7c68,0,123.2-55.2,123.2-123.2s-55.2-123.2-123.2-123.2s-123.2,55.2-123.2,123.2
				S999.5,590.7,1067.4,590.7 M1067.4,281.3c-102.8,0-186.4,83.6-186.4,186.4s83.6,186.4,186.4,186.4
				c102.9,0,186.5-83.6,186.5-186.4S1170.3,281.3,1067.4,281.3L1067.4,281.3z M1067.4,577.7c-60.7,0-110.2-49.4-110.2-110.2
				s49.4-110.2,110.2-110.2c60.7,0,110.2,49.4,110.2,110.2S1128.2,577.7,1067.4,577.7L1067.4,577.7z"/>
		</g>
	</g>
	<g>
		<g>
			<path class="st0" d="M316.3,647.6c-99.2,0-179.9-80.7-179.9-179.9s80.7-179.9,179.9-179.9s179.9,80.7,179.9,179.9
				S415.5,647.6,316.3,647.6z M316.3,350.9c-64.3,0-116.7,52.3-116.7,116.7c0,64.3,52.3,116.7,116.7,116.7
				c64.3,0,116.7-52.3,116.7-116.7C432.9,403.2,380.6,350.9,316.3,350.9z"/>
			<path class="st1" d="M316.3,294.3c95.6,0,173.4,77.8,173.4,173.4s-77.8,173.4-173.4,173.4s-173.4-77.8-173.4-173.4
				S220.6,294.3,316.3,294.3 M316.3,590.7c68,0,123.2-55.2,123.2-123.2s-55.2-123.2-123.2-123.2s-123.2,55.2-123.2,123.2
				S248.3,590.7,316.3,590.7 M316.3,281.3c-102.8,0-186.4,83.6-186.4,186.4s83.6,186.4,186.4,186.4s186.4-83.6,186.4-186.4
				S419,281.3,316.3,281.3L316.3,281.3z M316.3,577.7c-60.7,0-110.2-49.4-110.2-110.2s49.4-110.2,110.2-110.2
				s110.2,49.4,110.2,110.2S377,577.7,316.3,577.7L316.3,577.7z"/>
		</g>
	</g>
	<g>
		<g>
			<path class="st0" d="M693.8,499.2c-99.2,0-179.9-80.7-179.9-179.9c-0.1-48,18.6-93.2,52.6-127.2c34-34.1,79.2-52.8,127.3-52.8
				c99.2,0,179.9,80.7,179.9,179.9C873.7,418.5,793,499.2,693.8,499.2z M693.8,202.5c-64.3,0-116.7,52.3-116.7,116.7
				s52.3,116.7,116.7,116.7s116.7-52.3,116.7-116.7S758.1,202.5,693.8,202.5z"/>
			<path class="st1" d="M693.8,145.8c95.6,0,173.4,77.8,173.4,173.4c0,95.8-77.8,173.5-173.4,173.5S520.4,415,520.4,319.3
				C520.3,223.5,598,145.8,693.8,145.8 M693.8,442.3c68,0,123.2-55.2,123.2-123.2c0-68-55.4-123.2-123.2-123.2
				c-68,0-123.2,55.2-123.2,123.2S625.9,442.3,693.8,442.3 M693.8,132.8c-25.2,0-49.6,4.9-72.6,14.7c-22.2,9.4-42.2,22.9-59.3,40
				c-17.1,17.1-30.5,37.1-39.9,59.3c-9.7,23-14.6,47.4-14.6,72.6c0,102.8,83.6,186.4,186.4,186.4S880.2,422,880.2,319.2
				C880.2,216.4,796.6,132.8,693.8,132.8L693.8,132.8z M693.8,429.3c-60.7,0-110.2-49.4-110.2-110.2c0-60.7,49.4-110.2,110.2-110.2
				c60.7,0,110.2,49.4,110.2,110.2C804,379.9,754.6,429.3,693.8,429.3L693.8,429.3z"/>
		</g>
	</g>
</g>
</svg>
