<?xml version="1.0" encoding="utf-8"?>
<!-- Generator: Adobe Illustrator 25.3.0, SVG Export Plug-In . SVG Version: 6.00 Build 0)  -->
<svg version="1.1" id="Layer_1" xmlns="http://www.w3.org/2000/svg" xmlns:xlink="http://www.w3.org/1999/xlink" x="0px" y="0px"
	 viewBox="0 0 2600.9 866" style="enable-background:new 0 0 2600.9 866;" xml:space="preserve">
<style type="text/css">
	.st0{fill:#55BEFF;}
	.st1{clip-path:url(#SVGID_2_);}
	.st2{fill:#43B1E8;}
	.st3{fill:#39A6D1;}
	.st4{fill:#7A96AE;}
</style>
<path class="st0" d="M-641-779.7c-33.2,0-63.3-6.3-90.4-19c-27-12.7-50.2-29.4-69.5-50.1c-19.3-20.7-34.5-44.7-44.9-71
	c-10.6-26.2-16-54.1-16-82.4c0-28.5,5.6-56.7,16.6-83c10.8-26.2,26.6-50.1,46.4-70.4c20.2-20.5,44.2-37,70.7-48.6
	c27.3-12.1,57.1-18.1,89.4-18.1c33.2,0,63.3,6.4,90.4,19.1c27,12.7,50.2,29.5,69.5,50.4c19.2,20.8,34.3,45,44.6,71.3
	c10.3,26,15.7,53.8,15.7,81.8c0.1,28.4-5.6,56.5-16.6,82.7c-10.8,26.1-26.5,49.8-46.1,70.1c-19.7,20.3-43.1,36.6-70.4,48.9
	C-578.8-785.8-608.6-779.7-641-779.7z M-740-1001c0,14.5,2,28.9,6.2,42.7c3.8,13.2,10.1,25.6,18.4,36.6c8.3,10.8,18.9,19.6,31,25.8
	c12.5,6.6,27.4,9.8,44.6,9.8c17.2,0,32.2-3.4,44.9-10.1c12.2-6.3,22.8-15.4,31-26.4c8.2-11.2,14.2-23.8,17.8-37.2
	c3.9-13.8,5.8-28.1,5.8-42.4c0-14.5-2-28.9-6.2-42.7c-3.8-13.2-10.2-25.5-18.8-36.3c-8.5-10.5-19.2-19.1-31.3-25.2
	c-12.5-6.3-27.2-9.5-43.9-9.5c-17.2,0-32.1,3.3-44.6,9.8c-12.2,6.3-22.7,15.2-31,26.1c-8.3,11.1-14.4,23.6-18.1,36.9
	C-738-1029.4-740-1015.2-740-1001L-740-1001z"/>
<path class="st0" d="M-344.1-1377.9h154.4v423.4c0,32.5,13.3,48.8,39.8,48.8c7.2-0.1,14.3-1.2,21.1-3.2c7.4-2.1,14.5-5.1,21.1-8.9
	l19.5,113.8c-18.4,8.7-39.1,15.4-62.2,20.3c-21.5,4.7-43.4,7.2-65.4,7.3c-41.2,0-72.9-10.6-95.1-31.7
	c-22.2-21.1-33.3-51.7-33.3-91.8V-1377.9z"/>
<path class="st0" d="M158.2-776.5c-37.4,0-70.7-5.8-100-17.5c-29.3-11.6-53.8-27.5-73.6-47.5c-19.6-19.7-34.9-43.2-45.1-69.1
	c-10.3-26.1-15.6-54-15.4-82.1c-0.2-29.9,4.9-59.6,15-87.8c9.6-27,24.9-51.7,44.7-72.3c19.8-20.6,44.2-37,73.2-49.2
	c29-12.2,62.7-18.3,101.2-18.3c37.9,0,71.5,6.1,100.8,18.3c29.3,12.2,53.8,28.4,73.6,48.8c19.7,20.2,34.9,44.3,44.7,70.7
	c10,26.9,15.1,55.4,15,84.1c0,8.1-0.4,16.4-1.2,24.8c-0.8,8.4-1.8,15.8-2.9,22.3H88.3c1.6,22.8,10,39.2,25.2,49.2
	c14.6,9.9,31.9,15.1,49.6,15c16.5,0.1,32.8-3.8,47.5-11.4c14.9-7.6,24.8-18.1,29.7-31.7l130.9,37.4c-17.3,34.1-44,62-80.1,83.7
	S210.7-776.5,158.2-776.5z M226.4-1043.9c-2.7-20.6-10.3-36.8-22.8-48.8s-28.4-17.9-48-17.9c-19.5,0-35.5,6-48,17.9
	s-20.1,28.2-22.7,48.8H226.4z"/>
<path class="st0" d="M732.7-1080.4c-29.8,0-56.9,3.2-81.3,9.8s-42.5,17.3-54.5,32.5v253.6H442.6v-427.5H584v81.3
	c15.2-28.7,34-50.8,56.5-66.2s46.7-23.2,72.7-23.2c10.3,0,16.8,0.3,19.5,0.8L732.7-1080.4z"/>
<g>
	<defs>
		<polygon id="SVGID_1_" points="-1334.2,-1538.2 -1185.1,-1039.3 -1038.1,-1538.2 -818.1,-1538.2 -1098.1,-776.5 -1272,-776.5 
			-1555.2,-1538.2 		"/>
	</defs>
	<clipPath id="SVGID_2_">
		<use xlink:href="#SVGID_1_"  style="overflow:visible;"/>
	</clipPath>
	<g class="st1">
		<path class="st0" d="M-1334.2-1538.2l149.1,498.9l147-498.9h220l-280,761.8H-1272l-283.2-761.8H-1334.2z"/>
		<polygon class="st2" points="-1185,-856.2 -1301.6,-856.2 -1272,-776.5 -1185,-776.5 		"/>
		<polygon class="st2" points="-1068.8,-856.2 -1185,-856.2 -1185,-776.5 -1098.1,-776.5 		"/>
		<rect x="-1221.3" y="-967.6" class="st3" width="69.3" height="111.4"/>
		<rect x="-1231.6" y="-1057.5" class="st2" width="89.9" height="89.9"/>
	</g>
</g>
<rect x="-1190.7" y="-863.6" class="st3" width="8.1" height="87.1"/>
<g>
	<g>
		<path class="st4" d="M918.7,818.1c-9.5,0-17.2-7.7-17.2-17.2v-272c0-51.7-42.1-93.8-93.8-93.8H676.5c0,1,0,2,0,3.1V662
			c0,43.3-35.2,78.5-78.5,78.5c-43.3,0-78.5-35.2-78.5-78.5V528.9c0-66.8,51.4-121.8,116.6-127.7c-15.4-45.4-58.4-78.1-108.9-78.1
			h-94.6c-50.5,0-93.5,32.7-108.9,78.1c65.3,5.8,116.6,60.9,116.6,127.7V662c0,43.3-35.2,78.5-78.5,78.5
			c-43.3,0-78.5-35.2-78.5-78.5V438.1c0-1,0-2,0-3.1H152.3c-51.8,0-93.9,42.1-93.9,93.9v272c0,9.5-7.7,17.2-17.2,17.2
			c-9.5,0-17.2-7.7-17.2-17.2V529c0-70.7,57.5-128.2,128.2-128.2h135.8c16.6-64.3,75.1-111.9,144.6-111.9h94.6
			c69.4,0,127.9,47.6,144.6,111.9h135.9c70.7,0,128.2,57.5,128.2,128.2v272C935.9,810.4,928.2,818.1,918.7,818.1z M642.2,435.2
			c-49.2,2.9-88.3,43.8-88.3,93.7V662c0,24.4,19.8,44.2,44.2,44.2c24.4,0,44.2-19.8,44.2-44.2V438.1
			C642.2,437.2,642.2,436.2,642.2,435.2z M317.7,435.2c0,1,0,1.9,0,2.9V662c0,24.4,19.8,44.2,44.2,44.2c24.4,0,44.2-19.8,44.2-44.2
			V528.9C406.1,479,366.9,438.1,317.7,435.2z"/>
	</g>
	<g>
		<path class="st4" d="M737.1,352.1c-65.3,0-118.4-53.1-118.4-118.4c0-65.3,53.1-118.4,118.4-118.4c65.3,0,118.5,53.1,118.5,118.4
			C855.6,299,802.4,352.1,737.1,352.1z M737.1,149.5c-46.4,0-84.1,37.7-84.1,84.1s37.7,84.1,84.1,84.1c46.4,0,84.1-37.7,84.1-84.1
			S783.5,149.5,737.1,149.5z"/>
	</g>
	<g>
		<path class="st4" d="M224.2,352.1c-65.3,0-118.4-53.1-118.4-118.4c0-65.3,53.1-118.4,118.4-118.4c65.3,0,118.4,53.1,118.4,118.4
			C342.6,299,289.5,352.1,224.2,352.1z M224.2,149.5c-46.4,0-84.1,37.7-84.1,84.1s37.7,84.1,84.1,84.1s84.1-37.7,84.1-84.1
			S270.6,149.5,224.2,149.5z"/>
	</g>
	<g>
		<path class="st4" d="M482,250.8c-65.3,0-118.4-53.1-118.4-118.4C363.5,67,416.6,13.9,482,13.9c65.3,0,118.4,53.1,118.4,118.4
			C600.4,197.7,547.3,250.8,482,250.8z M482,48.2c-46.4,0-84.1,37.7-84.1,84.1s37.7,84.1,84.1,84.1s84.1-37.7,84.1-84.1
			S528.3,48.2,482,48.2z"/>
	</g>
</g>
<g>
	<path class="st4" d="M1051.3,548.6l15.5-30.4h65.8c9.9,0,16.8-2.5,20.9-7.5c4.1-5,6.1-13.6,6.1-25.9c0-33.5-14.9-58.8-44.8-76.1
		l15.5-26.6c40.7,23.5,61,57.8,61,103c0,42.2-17.8,63.3-53.3,63.3H1051.3z"/>
	<path class="st4" d="M1315.1,548.6c-21.5,0-38-7-49.6-21c-9.9-12-14.8-27.2-14.8-45.7V324.2l31.8-17.2v173.9
		c0,25,12.1,37.5,36.3,37.5h24.4v30.4H1315.1z"/>
	<path class="st4" d="M1321,548.6v-30.4h65.1v30.4H1321z"/>
	<path class="st4" d="M1363.9,548.6v-30.4h65.1v30.4H1363.9z"/>
	<path class="st4" d="M1406.8,548.6v-30.4h65.1v30.4H1406.8z"/>
	<path class="st4" d="M1449.7,548.6v-30.4h65.1v30.4H1449.7z"/>
	<path class="st4" d="M1492.6,548.6v-30.4h65.1v30.4H1492.6z"/>
	<path class="st4" d="M1535.6,548.6v-30.4h65.1v30.4H1535.6z"/>
	<path class="st4" d="M1578.5,548.6v-30.4h65.1v30.4H1578.5z"/>
	<path class="st4" d="M1621.4,548.6v-30.4h65.1v30.4H1621.4z"/>
	<path class="st4" d="M1664.3,548.6v-30.4h65.1v30.4H1664.3z"/>
	<path class="st4" d="M1707.2,548.6v-30.4h65.1v30.4H1707.2z"/>
	<path class="st4" d="M1750.1,548.6v-30.4h65.1v30.4H1750.1z"/>
	<path class="st4" d="M1793,548.6v-30.4h65.1v30.4H1793z"/>
	<path class="st4" d="M1835.9,548.6v-30.4h65.1v30.4H1835.9z"/>
	<path class="st4" d="M1878.9,548.6v-30.4h65.1v30.4H1878.9z"/>
	<path class="st4" d="M1921.8,548.6v-30.4h65.1v30.4H1921.8z"/>
	<path class="st4" d="M1964.7,548.6v-30.4h33.3c23.9,0,35.9-12.5,35.9-37.5v-52.5l31.8-17.2v69.7c0,25,12.1,37.5,36.3,37.5h17
		c24.2,0,36.3-12.5,36.3-37.5v-65.2l31.8-16.9v82.1c0,25,12,37.5,35.9,37.5h17.4c24.2,0,36.3-12.5,36.3-37.5v-77.6l31.8-17.2v95.9
		c0,21.2-6.3,37.8-18.9,49.8c-11.1,11-25.9,16.6-44.4,16.9h-25.5c-21.7,0-37.9-7.4-48.5-22.1c-10.6,14.5-26.4,21.9-47.4,22.1h-25.5
		c-21.2,0-37.4-7.4-48.5-22.1c-10.6,14.7-26.8,22.1-48.5,22.1H1964.7z M2144.8,350.8c-12.1,0-18.1-6.2-18.1-18.7
		c0-12.2,6-18.4,18.1-18.4c11.8,0,17.8,6.1,17.8,18.4C2162.6,344.5,2156.7,350.8,2144.8,350.8z M2168.2,306.2
		c-10.9,0-16.3-5.6-16.3-16.9c0-11,5.4-16.5,16.3-16.5c10.8,0,16.3,5.5,16.3,16.5C2184.4,300.6,2179,306.2,2168.2,306.2z
		 M2191.8,350.8c-12.1,0-18.1-6.2-18.1-18.7c0-12.2,6-18.4,18.1-18.4c11.8,0,17.8,6.1,17.8,18.4
		C2209.6,344.5,2203.7,350.8,2191.8,350.8z"/>
	<path class="st4" d="M2429.7,528.8c0,28-7.3,50.5-21.8,67.4c-13.8,16.2-32.2,24.4-55.1,24.4c-14.8,0-29.2-3.7-43.3-11.2v-28.1
		c12.6,7,25.2,10.5,37.7,10.5c15.8,0,28.1-5.4,37-16.1c8.9-10.7,13.3-25.6,13.3-44.6V403.2l32.2-17.2V528.8z"/>
	<path class="st4" d="M2476.7,641.9l8.5-16.1h10c-2.5-4.5-3.7-9.2-3.7-14.2c0-7.2,2.7-13.6,8.1-18.9c5.4-5.4,11.8-8.1,19.2-8.1
		c6.2,0,12.1,2,17.8,6v16.5c-5.4-4.3-10.6-6.4-15.5-6.4c-9.1,0-13.7,4.1-13.7,12.4c0,4.2,1.7,8.5,5.2,12.7h33.7l-8.5,16.1H2476.7z
		 M2496.3,548.6V324.2l31.8-17.2v241.7H2496.3z"/>
</g>
<g>
	<path class="st4" d="M1109.8,738.2h7.7v10.5h-8.7c-5.3,0-9.4-1.8-12.3-5.4c-2.5,1.9-5.5,2.9-9,2.9c-5.3,0-9.5-2-12.6-6
		c-2.6-3.3-3.9-7.3-3.9-11.9c0-5.7,1.8-10.4,5.5-14c3.1-3,6.7-4.5,10.7-4.5c2.1,0,4.1,0.4,5.8,1.2v-2.3l10.7-5.7V732
		c0,2.3,0.5,3.9,1.4,4.8C1106.1,737.8,1107.7,738.2,1109.8,738.2z M1093,722c-1.5-1.3-3.2-1.9-5.1-1.9c-1.9,0-3.4,0.8-4.6,2.3
		c-1.2,1.6-1.8,3.6-1.8,6.2c0,2.5,0.6,4.6,1.7,6.1c1.1,1.5,2.7,2.3,4.7,2.3c2.2,0,3.9-0.8,5.1-2.3c-0.1-0.5-0.1-1.2-0.1-2.2V722z"/>
	<path class="st4" d="M1142.9,738.2h7.7v10.5h-8.7c-4.2,0-7.6-1.1-10.4-3.4c-2.7,2.3-6.2,3.4-10.4,3.4h-8.7v-10.5h7.7
		c2.2,0,3.7-0.5,4.6-1.4c0.9-1,1.4-2.6,1.4-4.8v-16.1l10.8-5.7V732c0,2.3,0.5,3.9,1.4,4.8C1139.2,737.8,1140.7,738.2,1142.9,738.2z
		 M1120.7,756.6c1.7,0,3.1,0.5,4.1,1.5c1,1,1.5,2.4,1.5,4.1c0,3.9-1.9,5.8-5.6,5.8c-1.7,0-3.1-0.5-4.1-1.6c-1-1-1.5-2.5-1.5-4.3
		C1115.1,758.5,1116.9,756.6,1120.7,756.6z M1133.9,756.6c1.7,0,3.1,0.5,4.1,1.5c1,1,1.5,2.4,1.5,4.1c0,3.9-1.9,5.8-5.6,5.8
		c-1.7,0-3.1-0.5-4.1-1.6s-1.5-2.5-1.5-4.3C1128.3,758.5,1130.1,756.6,1133.9,756.6z"/>
	<path class="st4" d="M1145.5,748.7v-10.5h15.1v10.5H1145.5z"/>
	<path class="st4" d="M1145.5,748.7v-10.5h15.1v10.5H1145.5z"/>
	<path class="st4" d="M1155.4,748.7v-10.5h9.1c2.2,0,3.7-0.5,4.7-1.4c0.9-1,1.4-2.6,1.4-4.8v-11.5l10.8-5.7V732
		c0,2.3,0.5,3.9,1.4,4.8c0.9,1,2.5,1.4,4.6,1.4h5.8c2.2,0,3.7-0.5,4.6-1.4c0.9-1,1.4-2.6,1.4-4.8v-13.7l10.8-5.8V732
		c0,2.3,0.5,3.9,1.4,4.8c0.9,1,2.5,1.4,4.7,1.4h5.8c2.2,0,3.7-0.5,4.6-1.4c0.9-1,1.4-2.6,1.4-4.8v-16.1l10.8-5.7v20.4
		c0,2.8,0.6,4.7,1.7,5.9c1.1,1.2,3,1.7,5.6,1.7h7.9v10.5h-8.5c-4.8,0-8.7-1.4-11.6-4.2c-2.6,2.7-6,4.1-10.4,4.2h-8.5
		c-4.2,0-7.7-1.3-10.4-3.8c-2.5,2.5-5.7,3.8-9.8,3.8h-8.5c-4.2,0-7.7-1.3-10.4-3.8c-2.7,2.5-6.1,3.8-10.4,3.8H1155.4z"/>
	<path class="st4" d="M1289.7,738.2h13.5v10.5h-20.3c-2.9,0-5.2-0.2-6.9-0.6c-1.8,0.4-4.1,0.6-6.9,0.6h-20.4v-10.5h13.5
		c-2.2-3.5-3.3-7.1-3.3-10.8c0-5.8,1.7-10.4,5.1-14c3-3.2,7-4.8,11.9-4.8c5.6,0,9.9,2.1,13,6.2c2.6,3.4,3.9,7.6,3.9,12.6
		C1292.9,731.1,1291.8,734.7,1289.7,738.2z M1276,737.3c1.9-0.9,3.5-2.4,4.8-4.3c1.2-1.9,1.8-4,1.8-6.1c0-2.5-0.6-4.4-1.8-5.9
		c-1.2-1.4-2.8-2.1-4.8-2.1c-4.3,0-6.5,2.6-6.5,7.9c0,2.3,0.6,4.4,1.8,6.3S1274.1,736.4,1276,737.3z M1276,702.6
		c-1.7,0-3.1-0.5-4.1-1.6c-1-1-1.5-2.5-1.5-4.3c0-1.7,0.5-3,1.5-4.1c1-1,2.4-1.6,4.1-1.6s3.1,0.5,4.1,1.5c1,1,1.5,2.4,1.5,4.1
		C1281.5,700.6,1279.7,702.6,1276,702.6z"/>
	<path class="st4" d="M1328.6,738.2h7.7v10.5h-8.7c-4.2,0-7.6-1.1-10.4-3.4c-2.7,2.3-6.2,3.4-10.4,3.4h-8.7v-10.5h7.7
		c2.2,0,3.7-0.5,4.6-1.4c0.9-1,1.4-2.6,1.4-4.8v-16.1l10.8-5.7V732c0,2.3,0.5,3.9,1.4,4.8C1324.9,737.8,1326.4,738.2,1328.6,738.2z
		 M1314.9,701.4c-1.7,0-3.1-0.5-4.1-1.6c-1-1-1.5-2.5-1.5-4.3c0-1.7,0.5-3,1.5-4.1c1-1,2.4-1.6,4.1-1.6s3.1,0.5,4.1,1.5
		s1.5,2.4,1.5,4.1C1320.4,699.5,1318.6,701.4,1314.9,701.4z"/>
	<path class="st4" d="M1331.2,748.7v-10.5h5.4c2.6,0,4.5-0.6,5.6-1.7c1.1-1.2,1.7-3.1,1.7-5.9v-32l10.7-5.8v37.9
		c0,5.6-1.7,10.1-5.1,13.5c-3.1,3.1-7.2,4.6-12.3,4.6H1331.2z"/>
	<path class="st4" d="M1372.4,748.7v-50.2l10.8-5.8v56H1372.4z"/>
	<path class="st4" d="M1455.6,738.2h7.7v10.5h-8.7c-5.3,0-9.4-1.8-12.3-5.4c-2.5,1.9-5.5,2.9-9,2.9c-5.3,0-9.5-2-12.6-6
		c-2.6-3.3-3.9-7.3-3.9-11.9c0-5.7,1.8-10.4,5.5-14c3.1-3,6.7-4.5,10.7-4.5c2.1,0,4.1,0.4,5.8,1.2v-2.3l10.7-5.7V732
		c0,2.3,0.5,3.9,1.4,4.8C1451.9,737.8,1453.4,738.2,1455.6,738.2z M1427.9,699.7c-1.7,0-3.1-0.5-4.1-1.6s-1.5-2.5-1.5-4.3
		c0-3.8,1.9-5.6,5.7-5.6c1.7,0,3.1,0.5,4.1,1.5c1,1,1.5,2.4,1.5,4.1C1433.5,697.8,1431.6,699.7,1427.9,699.7z M1438.8,722
		c-1.5-1.3-3.2-1.9-5.1-1.9s-3.4,0.8-4.6,2.3c-1.2,1.6-1.8,3.6-1.8,6.2c0,2.5,0.6,4.6,1.7,6.1c1.1,1.5,2.7,2.3,4.7,2.3
		c2.2,0,3.9-0.8,5.1-2.3c-0.1-0.5-0.1-1.2-0.1-2.2V722z M1441.1,699.7c-1.7,0-3.1-0.5-4.1-1.6c-1-1-1.5-2.5-1.5-4.3
		c0-3.8,1.9-5.6,5.7-5.6c1.7,0,3.1,0.5,4.1,1.5s1.5,2.4,1.5,4.1C1446.7,697.8,1444.8,699.7,1441.1,699.7z"/>
	<path class="st4" d="M1458.2,748.7v-10.5h15.1v10.5H1458.2z"/>
	<path class="st4" d="M1458.2,748.7v-10.5h15.1v10.5H1458.2z"/>
	<path class="st4" d="M1524,738.2h7.2v10.5h-7.3c-4.5,0-8.1-0.5-10.8-1.5c-2.7-1-5.2-2.8-7.6-5.3c-7.1,4.6-15.4,6.9-24.7,6.9h-12.7
		v-10.5h12.8c10.1,0,18.1-3,24-9.1c-3.9-6.9-8.6-10.3-14.1-10.3c-4.6,0-9.6,2.5-15,7.6v-9.6c4.8-5.3,10.2-8,16.3-8
		c4.5,0,8.8,1.7,13,4.9c4.2,3.3,8,8,11.2,14.1v4.3c-0.9,1.2-2.1,2.6-3.6,4.1C1515,737.5,1518.8,738.2,1524,738.2z"/>
	<path class="st4" d="M1614.4,738.2h7.7v10.5h-8.7c-4.2,0-7.6-1.1-10.4-3.4c-2.7,2.3-6.2,3.4-10.4,3.4h-37c-4.2,0-7.6-1.1-10.4-3.4
		c-2.7,2.3-6.2,3.4-10.4,3.4h-8.7v-10.5h7.7c2.2,0,3.7-0.5,4.6-1.4c0.9-1,1.4-2.6,1.4-4.8v-11.5l10.8-5.7V732c0,3.7,1.5,5.8,4.4,6.2
		c2.7-8.5,6.7-15.3,12-20.6c5.8-5.9,12.5-8.9,20.1-8.9c6.7,0,12.1,2.4,16.2,7.1c3.4,4,5.1,8.9,5.1,14.8v1.8
		C1608.4,736.3,1610.4,738.2,1614.4,738.2z M1592.2,738.2c2.1,0,3.5-0.4,4.2-1.3c0.8-0.9,1.2-2.6,1.2-5v-1.2c0-3.5-1-6.3-2.9-8.5
		c-1.9-2.2-4.5-3.3-7.5-3.3c-4.5,0-8.6,1.7-12.5,5.2s-6.9,8.2-9.1,14.2H1592.2z"/>
	<path class="st4" d="M1616.9,748.7v-10.5h5.4c2.6,0,4.5-0.6,5.6-1.7c1.1-1.2,1.7-3.1,1.7-5.9v-32l10.7-5.8v37.9
		c0,5.6-1.7,10.1-5.1,13.5c-3.1,3.1-7.2,4.6-12.3,4.6H1616.9z"/>
	<path class="st4" d="M1658.2,748.7v-50.2l10.8-5.8v56H1658.2z"/>
	<path class="st4" d="M1706.2,746.2c-1.8,0.3-3.6,0.5-5.5,0.5c-5.3,0-9.5-2-12.6-6c-2.6-3.4-3.9-7.4-3.9-12.2c0-6.4,1.7-11.4,5.1-15
		c3-3.2,7-4.9,12-4.9c5.1,0,9.1,1.7,11.9,4.9c2.5,2.8,3.7,6.5,3.7,11.1v18.6c0,6.8-1.8,12.2-5.3,16.1c-3.3,3.7-7.8,5.6-13.5,5.6
		c-3.6,0-7.1-1-10.5-3v-9.5c3.1,1.8,6.2,2.7,9.3,2.7C1702.4,755.3,1705.5,752.3,1706.2,746.2z M1706.3,724.6c0-3.8-1.6-5.7-4.9-5.7
		c-2.1,0-3.7,0.8-4.8,2.5c-1.2,1.7-1.8,4-1.8,6.9c0,6.1,2.2,9.2,6.5,9.2c2.3,0,3.9-0.6,5-1.7V724.6z"/>
	<path class="st4" d="M1788.6,738.2h7.7v10.5h-8.7c-5.3,0-9.4-1.8-12.3-5.4c-2.5,1.9-5.5,2.9-9,2.9c-5.3,0-9.5-2-12.6-6
		c-2.6-3.3-3.9-7.3-3.9-11.9c0-5.7,1.8-10.4,5.5-14c3.1-3,6.7-4.5,10.7-4.5c2.1,0,4.1,0.4,5.8,1.2v-2.3l10.7-5.7V732
		c0,2.3,0.5,3.9,1.4,4.8C1784.8,737.8,1786.4,738.2,1788.6,738.2z M1760.9,699.7c-1.7,0-3.1-0.5-4.1-1.6s-1.5-2.5-1.5-4.3
		c0-3.8,1.9-5.6,5.7-5.6c1.7,0,3.1,0.5,4.1,1.5c1,1,1.5,2.4,1.5,4.1C1766.4,697.8,1764.6,699.7,1760.9,699.7z M1771.8,722
		c-1.5-1.3-3.2-1.9-5.1-1.9s-3.4,0.8-4.6,2.3c-1.2,1.6-1.8,3.6-1.8,6.2c0,2.5,0.6,4.6,1.7,6.1c1.1,1.5,2.7,2.3,4.7,2.3
		c2.2,0,3.9-0.8,5.1-2.3c-0.1-0.5-0.1-1.2-0.1-2.2V722z M1774.1,699.7c-1.7,0-3.1-0.5-4.1-1.6c-1-1-1.5-2.5-1.5-4.3
		c0-3.8,1.9-5.6,5.7-5.6c1.7,0,3.1,0.5,4.1,1.5s1.5,2.4,1.5,4.1C1779.6,697.8,1777.8,699.7,1774.1,699.7z"/>
	<path class="st4" d="M1795.8,768.1c-1.7,0-3.1-0.5-4.1-1.6c-1-1-1.5-2.5-1.5-4.3c0-3.8,1.9-5.6,5.7-5.6c1.7,0,3.1,0.5,4.1,1.5
		c1,1,1.5,2.4,1.5,4.1C1801.3,766.2,1799.5,768.1,1795.8,768.1z M1791.1,748.7v-10.5h7.7c2.2,0,3.7-0.5,4.6-1.4
		c0.9-1,1.4-2.6,1.4-4.8v-16.1l10.8-5.7v22.3c0,5.3-1.6,9.4-4.8,12.3c-2.8,2.6-6.5,3.9-11,3.9H1791.1z M1809,768.1
		c-1.7,0-3.1-0.5-4.1-1.6s-1.5-2.5-1.5-4.3c0-3.8,1.9-5.6,5.7-5.6c1.7,0,3.1,0.5,4.1,1.5c1,1,1.5,2.4,1.5,4.1
		C1814.5,766.2,1812.7,768.1,1809,768.1z"/>
	<path class="st4" d="M1855,738.2h7.7v10.5h-8.7c-1.9,0-3.7-0.3-5.4-0.8c-0.7,5.6-2.9,10-6.6,13.2c-3.3,2.9-7.3,4.3-11.9,4.3
		c-3.6,0-7.1-0.9-10.5-2.8v-9.6c3,1.7,5.9,2.5,8.7,2.5c3.1,0,5.6-1,7.3-3.1c1.7-2.1,2.6-4.9,2.6-8.6v-28.1l7-3.7l3.7-2v0.1l0.1-0.1
		V732c0,2.3,0.5,3.9,1.4,4.8C1851.3,737.8,1852.8,738.2,1855,738.2z"/>
	<path class="st4" d="M1857.6,748.7v-10.5h15.1v10.5H1857.6z"/>
	<path class="st4" d="M1857.6,748.7v-10.5h15.1v10.5H1857.6z"/>
	<path class="st4" d="M1867.5,748.7v-10.5h9.1c2.2,0,3.7-0.5,4.7-1.4c0.9-1,1.4-2.6,1.4-4.8v-11.5l10.8-5.7V732
		c0,2.3,0.5,3.9,1.4,4.8c0.9,1,2.5,1.4,4.6,1.4h5.8c2.2,0,3.7-0.5,4.6-1.4c0.9-1,1.4-2.6,1.4-4.8v-13.7l10.8-5.8V732
		c0,2.3,0.5,3.9,1.4,4.8c0.9,1,2.5,1.4,4.7,1.4h5.8c2.2,0,3.7-0.5,4.6-1.4c0.9-1,1.4-2.6,1.4-4.8v-16.1l10.8-5.7v22.3
		c0,5.2-1.5,9.2-4.6,12.2c-2.7,2.6-6.2,4-10.6,4.1h-8.5c-4.2,0-7.7-1.3-10.4-3.8c-2.5,2.5-5.7,3.8-9.8,3.8h-8.5
		c-4.2,0-7.7-1.3-10.4-3.8c-2.7,2.5-6.1,3.8-10.4,3.8H1867.5z"/>
	<path class="st4" d="M2001.6,698.6l10.8-5.8v37.9c0,5.6-1.7,10.1-5.1,13.5c-3.1,3.1-7.3,4.6-12.4,4.6h-32.3l5.4-10.5h11.3v-28.4
		l10.8-5.8v34.2h4.2c2.6,0,4.5-0.6,5.6-1.7c1.1-1.2,1.7-3.1,1.7-5.9V698.6z M1994.3,693.5l-2.7,5h-15.9l2.7-5h2.6
		c-0.6-1.2-0.9-2.3-0.9-3.6c0-1.9,0.7-3.4,2-4.8c1.3-1.3,3-2,4.8-2c1.7,0,3.3,0.6,4.8,1.8v5c-1.4-1.2-2.7-1.8-4.1-1.8
		c-1.9,0-2.8,0.9-2.8,2.6c0,0.9,0.4,1.8,1.1,2.7H1994.3z"/>
	<path class="st4" d="M2030.2,748.7v-50.2l10.8-5.8v56H2030.2z"/>
	<path class="st4" d="M2094.8,748.7c-4.9,0-8.7-1.6-11.4-4.9c-2.5-2.9-3.7-6.6-3.7-11.2v-8.9l10.7-5.7v13.9c0,2.3,0.5,4,1.4,4.9
		c0.9,1,2.5,1.4,4.7,1.4h27.9c2.2,0,3.7-0.5,4.6-1.5c0.9-1,1.4-2.6,1.4-4.9v-16l10.8-5.7v22.4c0,5.3-1.6,9.4-4.9,12.3
		c-2.9,2.5-6.5,3.8-11,3.8H2094.8z M2103.1,708.4c-1.7,0-3.1-0.5-4.1-1.6c-1-1.1-1.5-2.5-1.5-4.2c0-1.7,0.5-3,1.5-4.1
		c1-1,2.4-1.6,4.1-1.6c1.7,0,3.1,0.5,4.1,1.5c1,1,1.5,2.4,1.5,4.1C2108.6,706.4,2106.8,708.4,2103.1,708.4z M2116.3,708.4
		c-1.7,0-3.1-0.5-4.1-1.6c-1-1-1.5-2.5-1.5-4.3c0-3.8,1.9-5.6,5.7-5.6c1.7,0,3.1,0.5,4.1,1.5c1,1,1.5,2.4,1.5,4.1
		C2121.8,706.4,2120,708.4,2116.3,708.4z"/>
	<path class="st4" d="M2159.1,748.7v-50.2l10.8-5.8v56H2159.1z"/>
	<path class="st4" d="M2203.2,743.4c0,6.7-1.8,12.2-5.5,16.3c-3.4,3.9-7.8,5.8-13.4,5.8c-3.6,0-7.1-0.9-10.5-2.8v-9.6
		c3,1.7,5.9,2.5,8.7,2.5c3.1,0,5.6-1,7.3-3.1c1.7-2.1,2.6-4.9,2.6-8.6v-28l10.7-5.8V743.4z"/>
	<path class="st4" d="M2236.8,748.7c-5.2,0-9.2-1.7-12.1-5c-2.5-2.9-3.7-6.6-3.7-11.2v-34l10.8-5.7V732c0,2.3,0.5,3.9,1.4,4.8
		c0.9,1,2.5,1.4,4.6,1.4h7.7v10.5H2236.8z"/>
	<path class="st4" d="M2240.4,748.7v-10.5h15.1v10.5H2240.4z"/>
	<path class="st4" d="M2240.4,748.7v-10.5h15.1v10.5H2240.4z"/>
	<path class="st4" d="M2250.3,748.7v-10.5h9.1c2.2,0,3.7-0.5,4.7-1.4c0.9-1,1.4-2.6,1.4-4.8v-11.5l10.8-5.7V732
		c0,2.3,0.5,3.9,1.4,4.8c0.9,1,2.5,1.4,4.6,1.4h5.8c2.2,0,3.7-0.5,4.6-1.4c0.9-1,1.4-2.6,1.4-4.8v-13.7l10.8-5.8V732
		c0,2.3,0.5,3.9,1.4,4.8c0.9,1,2.5,1.4,4.7,1.4h5.8c2.2,0,3.7-0.5,4.6-1.4c0.9-1,1.4-2.6,1.4-4.8v-16.1l10.8-5.7v20.4
		c0,2.8,0.6,4.7,1.7,5.9c1.1,1.2,3,1.7,5.6,1.7h7.9v10.5h-8.5c-4.8,0-8.7-1.4-11.6-4.2c-2.6,2.7-6,4.1-10.4,4.2h-8.5
		c-4.2,0-7.7-1.3-10.4-3.8c-2.5,2.5-5.7,3.8-9.8,3.8h-8.5c-4.2,0-7.7-1.3-10.4-3.8c-2.7,2.5-6.1,3.8-10.4,3.8H2250.3z M2292.5,702.6
		c-1.7,0-3.1-0.5-4.1-1.6c-1-1-1.5-2.5-1.5-4.3c0-1.7,0.5-3,1.5-4.1c1-1,2.4-1.6,4.1-1.6s3.1,0.5,4.1,1.5c1,1,1.5,2.4,1.5,4.1
		C2298.1,700.6,2296.2,702.6,2292.5,702.6z M2299,689.8c-3.4,0-5.1-1.8-5.1-5.3c0-3.4,1.7-5.1,5.1-5.1c3.4,0,5.1,1.7,5.1,5.1
		C2304.1,688,2302.4,689.8,2299,689.8z M2305.7,702.6c-1.7,0-3.1-0.5-4.1-1.6c-1-1-1.5-2.5-1.5-4.3c0-1.7,0.5-3,1.5-4.1
		c1-1,2.4-1.6,4.1-1.6c1.7,0,3.1,0.5,4.1,1.5c1,1,1.5,2.4,1.5,4.1C2311.3,700.6,2309.4,702.6,2305.7,702.6z"/>
	<path class="st4" d="M2374.2,738.2h7.7v10.5h-8.7c-4.2,0-7.6-1.1-10.4-3.4c-2.7,2.3-6.2,3.4-10.4,3.4h-8.7v-10.5h7.7
		c2.2,0,3.7-0.5,4.6-1.4c0.9-1,1.4-2.6,1.4-4.8v-16.1l10.8-5.7V732c0,2.3,0.5,3.9,1.4,4.8C2370.5,737.8,2372,738.2,2374.2,738.2z
		 M2351.8,702.6c-1.7,0-3.1-0.5-4.1-1.6c-1-1-1.5-2.5-1.5-4.3c0-1.7,0.5-3,1.5-4.1c1-1,2.4-1.6,4.1-1.6c1.7,0,3.1,0.5,4.1,1.5
		c1,1,1.5,2.4,1.5,4.1C2357.4,700.6,2355.5,702.6,2351.8,702.6z M2364.9,702.6c-1.7,0-3.1-0.5-4.1-1.6c-1-1.1-1.5-2.5-1.5-4.2
		c0-1.7,0.5-3,1.6-4.1c1.1-1,2.4-1.6,4.1-1.6c1.7,0,3.1,0.5,4.1,1.5c1,1,1.5,2.4,1.5,4.1C2370.5,700.6,2368.6,702.6,2364.9,702.6z"
		/>
	<path class="st4" d="M2376.8,748.7v-10.5h9.1c2.2,0,3.7-0.5,4.7-1.4c0.9-1,1.4-2.6,1.4-4.8v-11.5l10.8-5.7V732
		c0,2.3,0.5,3.9,1.4,4.8c0.9,1,2.5,1.4,4.6,1.4h5.8c2.2,0,3.7-0.5,4.6-1.4c0.9-1,1.4-2.6,1.4-4.8v-13.7l10.8-5.8V732
		c0,2.3,0.5,3.9,1.4,4.8c0.9,1,2.5,1.4,4.7,1.4h5.8c2.2,0,3.7-0.5,4.6-1.4c0.9-1,1.4-2.6,1.4-4.8v-16.1l10.8-5.7v22.3
		c0,5.2-1.5,9.2-4.6,12.2c-2.7,2.6-6.2,4-10.6,4.1h-8.5c-4.2,0-7.7-1.3-10.4-3.8c-2.5,2.5-5.7,3.8-9.8,3.8h-8.5
		c-4.2,0-7.7-1.3-10.4-3.8c-2.7,2.5-6.1,3.8-10.4,3.8H2376.8z"/>
	<path class="st4" d="M2527.7,738.2h7.7v10.5h-8.7c-4.5,0-8.1-1.3-10.9-3.8c-3.1,2.5-7,3.8-11.6,3.8h-32.3l5.4-10.5h11.3v-28.4
		l10.8-5.8v34.2h4.2c2.6,0,4.5-0.6,5.6-1.7c1.1-1.2,1.7-3.1,1.7-5.9v-32l10.8-5.8V732c0,2.3,0.5,3.9,1.4,4.8
		C2524,737.8,2525.5,738.2,2527.7,738.2z M2500.3,760.3c-1.4-1.2-2.7-1.8-4.1-1.8c-1.9,0-2.8,0.9-2.8,2.6c0,0.9,0.4,1.8,1.1,2.7h8.5
		l-2.7,5h-15.9l2.7-5h2.6c-0.6-1.2-0.9-2.3-0.9-3.6c0-1.9,0.7-3.4,2-4.8c1.3-1.3,3-2,4.8-2c1.7,0,3.3,0.6,4.8,1.8V760.3z"/>
	<path class="st4" d="M2530.3,748.7v-10.5h5.4c2.6,0,4.5-0.6,5.6-1.7c1.1-1.2,1.7-3.1,1.7-5.9v-32l10.7-5.8v37.9
		c0,5.6-1.7,10.1-5.1,13.5c-3.1,3.1-7.2,4.6-12.3,4.6H2530.3z"/>
</g>
</svg>
