<?xml version="1.0" encoding="utf-8"?>
<!-- Generator: Adobe Illustrator 25.3.0, SVG Export Plug-In . SVG Version: 6.00 Build 0)  -->
<svg version="1.1" id="Layer_1" xmlns="http://www.w3.org/2000/svg" xmlns:xlink="http://www.w3.org/1999/xlink" x="0px" y="0px"
	 viewBox="0 0 2600.9 866" style="enable-background:new 0 0 2600.9 866;" xml:space="preserve">
<style type="text/css">
	.st0{fill:#1E2D46;}
	.st1{fill:#527DC9;}
</style>
<path class="st0" d="M1198.8,541.1c0-5.5,4.5-10,10-10h5.5c11.1-0.4,22.3-0.2,33.4,0h51.8c12.5-0.7,24.9-2.1,37.1-4.9
	c33.5-7.8,64.3-26.3,86.9-52.2c22.6-25.9,36.9-58.9,40.1-93.1c0.5-4.9,0.8-10.1,3.4-14.3c2.6-4.2,8.3-7,12.6-4.6
	c2.5,7.8-0.2,16.2-0.4,24.4c-0.2,8.2,4.2,18.1,12.4,18.2c8.2,0.1,12.9-9.8,12.8-18c-0.2-8.2-3-16.6-0.7-24.5c4.7,0,9.4,0.1,14.1,0.1
	c2.3,7.8-0.5,16.2-0.7,24.3c-0.2,8.2,4.3,18,12.4,18.1c8.2,0.1,12.9-9.8,12.8-18c-0.1-8.2-2.9-16.6-0.6-24.5c4.7,0,9.3,0,14,0
	c2.4,7.8-0.4,16.2-0.6,24.4c-0.2,8.2,4.3,18,12.5,18.1c8.2,0.1,12.9-9.8,12.7-18c-0.1-8.2-2.9-16.6-0.5-24.4c3.3-1,7.2-0.7,10.2,0.9
	c3.4,1.8,2.8,5.1,3.1,8.7c3.4,39.3-5.3,79.3-22.3,114.7c-18.1,37.6-45.4,70.3-77.2,97.3c-33.9,28.8-73.5,51.4-116.3,63.4
	c-50.1,14.1-103,13.3-155.1,11.2h-13.2c-1.4,0-2.7-0.3-3.9-0.8c-1.5-0.2-3-0.6-4.1-1.7c-1.3-1.3-1.6-3.2-1.7-5
	c-0.2-0.8-0.3-1.6-0.3-2.5V541.1z"/>
<path class="st1" d="M2255.1,776.1c-3.3-4.3-5.2-9.1-5.2-14.9c0-8.2,7.2-13.4,18.2-13.4c7.7,0,18.2,2.4,30.2,7.2v-36.5
	c-10.6-4.8-26.9-9.6-43.2-9.6c-26.9,0-47,18.7-47,43.6c0,8.6,1.4,16.3,5.3,23.5h-20.6v40.3h114.1l9.1-40.3H2255.1z"/>
<path class="st1" d="M529.8,245.8h-8c-24.2,42.1-48.4,84.3-72.6,126.4c17.4,0,34.7,0,52.1,0c50.6,0,85.3,28.5,86.2,70.3v25.3
	c0,36.4-21.3,60.8-65.6,60.8H359.8c-25,43.6-49.9,87.2-74.9,130.7c78.5-0.1,157-0.2,235.4-0.4c127.2,0,189.6-56.9,191.2-165.9v-61.6
	C711.5,310.5,637.2,245.8,529.8,245.8"/>
<path class="st1" d="M1977,261l0.8,361.9c0,67.9-46.6,93.2-110.6,93.2l8.7,100.4c150.9,0,224.4-51.4,224.4-188.1V246L1977,261z"/>
<polygon class="st1" points="2192.8,84.4 2192.8,659 2316,659 2316,69.8 "/>
<path class="st1" d="M1139.7,530.9H986.5c-0.1,0-0.3,0-0.4,0c-0.1,0-0.3,0-0.4,0c-45,0-65.6-24.8-65.6-80l-0.8-349.5V69.8L796,84.4
	v21.8l0.8,388.2c0,88.1,40.4,141,122.5,158.3c19.9,4.2,42.3,6.3,67.1,6.3h153.3c4.7,0,7.9-3.9,7.9-8.6V538.6
	C1147.6,534,1144.5,530.9,1139.7,530.9"/>
<path class="st1" d="M1860.8,541.1c0-5.5-4.5-10-10-10h-5.5c-11.1-0.4-22.3-0.2-33.4,0H1760c-12.5-0.7-24.9-2.1-37.1-4.9
	c-33.5-7.8-64.3-26.3-86.9-52.2c-22.6-25.9-36.9-58.9-40.1-93.1c-0.5-4.9-0.8-10.1-3.4-14.3c-2.6-4.2-8.3-7-12.6-4.6
	c-2.5,7.8,0.2,16.2,0.4,24.4c0.2,8.2-4.2,18.1-12.4,18.2c-8.2,0.1-12.9-9.8-12.8-18c0.2-8.2,3-16.6,0.7-24.5
	c-4.7,0-9.4,0.1-14.1,0.1c-2.3,7.8,0.5,16.2,0.7,24.3c0.2,8.2-4.3,18-12.4,18.1c-8.2,0.1-12.9-9.8-12.8-18
	c0.1-8.2,2.9-16.6,0.6-24.5c-4.7,0-9.3,0-14,0c-2.4,7.8,0.4,16.2,0.6,24.4c0.2,8.2-4.3,18-12.5,18.1c-8.2,0.1-12.9-9.8-12.7-18
	c0.1-8.2,2.9-16.6,0.5-24.4c-3.3-1-7.2-0.7-10.2,0.9c-3.4,1.8-2.8,5.1-3.1,8.7c-3.4,39.3,5.3,79.3,22.3,114.7
	c18.1,37.6,45.4,70.3,77.2,97.3c33.9,28.8,73.5,51.4,116.3,63.4c50.1,14.1,103,13.3,155.1,11.2h13.2c1.4,0,2.7-0.3,3.9-0.8
	c1.5-0.2,3-0.6,4.1-1.7c1.3-1.3,1.6-3.2,1.7-5c0.2-0.8,0.3-1.6,0.3-2.5V541.1z"/>
<path class="st1" d="M1762.7,459.6c-54.3,0.2-98-42.8-98.2-96.6c-0.2-53.9,43.2-97.9,97-98.2c54.3-0.3,98.6,42.6,99.1,96.1
	C1861.1,415.6,1817.7,459.4,1762.7,459.6"/>
<path class="st1" d="M1297,459.6c-55.2-0.5-97.7-44.2-97-99.5c0.7-52.5,45-95.8,98-95.4c56,0.4,97.8,43.6,97.4,100.7
	C1394.9,418.4,1351.3,460.1,1297,459.6"/>
<path class="st0" d="M343.4,785.9v9.3H341c-6,0-11-1.8-15-5.4c-4,3.6-9.1,5.4-15.2,5.4c-6.9,0-12.4-2.3-16.6-6.8
	c-4-4.3-5.9-9.8-5.9-16.5c0-6.7,2-12.2,5.9-16.6c4.1-4.6,9.7-6.9,16.6-6.9h22.6v23.4c0,9.3,2.6,14,7.8,14H343.4z M302.7,743
	c-2.2,0-4-0.7-5.5-2.2c-1.5-1.5-2.2-3.4-2.2-5.7c0-2.2,0.8-4,2.4-5.6c1.6-1.5,3.4-2.3,5.5-2.3c2.1,0,3.9,0.8,5.4,2.3
	c1.5,1.5,2.2,3.4,2.2,5.6c0,2.3-0.8,4.2-2.4,5.7C306.5,742.3,304.7,743,302.7,743L302.7,743z M318.6,757.8h-7.8
	c-2.6,0-4.5,1.4-5.9,4.1c-1.2,2.5-1.9,5.8-1.9,9.9c0,4.1,0.6,7.4,1.9,9.9c1.4,2.7,3.3,4.1,5.8,4.1c2.6,0,4.5-1.4,5.9-4.1
	c1.3-2.5,1.9-5.8,1.9-9.9V757.8z M321.7,743c-2.1,0-3.9-0.7-5.4-2.2c-1.5-1.5-2.2-3.4-2.2-5.7c0-2.2,0.8-4,2.3-5.6
	c1.6-1.5,3.4-2.3,5.5-2.3c2.1,0,3.9,0.8,5.4,2.3c1.5,1.5,2.2,3.4,2.2,5.6c0,2.3-0.8,4.2-2.3,5.7C325.6,742.3,323.8,743,321.7,743
	L321.7,743z M384.4,785.9v9.3h-6.2c-6,0-11.1-1.8-15.1-5.4c-4,3.6-9.1,5.4-15.1,5.4h-6.3v-9.3h6.3c5.2,0,7.8-4.7,7.8-14V756
	c0-5,2.5-7.5,7.6-7.5c2.9,0,5.9,0.5,8.9,1.4c-1.2,4.1-1.8,9.1-1.8,15.1v7c0,9.3,2.6,14,7.8,14H384.4z M353.6,818.4
	c-2.2,0-4-0.7-5.5-2.2c-1.5-1.5-2.2-3.4-2.2-5.7c0-2.2,0.8-4,2.4-5.6c1.6-1.5,3.4-2.3,5.5-2.3c2.1,0,3.9,0.8,5.4,2.3
	c1.5,1.5,2.2,3.4,2.2,5.6c0,2.3-0.8,4.2-2.4,5.7C357.4,817.7,355.6,818.4,353.6,818.4L353.6,818.4z M372.7,818.4
	c-2.2,0-4-0.7-5.5-2.2c-1.5-1.5-2.2-3.4-2.2-5.7c0-2.2,0.8-4,2.3-5.6c1.6-1.5,3.4-2.3,5.5-2.3c2.1,0,3.9,0.8,5.4,2.3
	c1.5,1.5,2.2,3.4,2.2,5.6c0,2.3-0.8,4.2-2.4,5.7C376.5,817.7,374.7,818.4,372.7,818.4L372.7,818.4z M485.4,785.9v9.3H483
	c-6.1,0-11.1-1.8-15.1-5.4c-4,3.6-9.1,5.4-15.1,5.4h-3.6c-6,0-11.1-1.8-15.1-5.4c-4,3.6-9.1,5.4-15.1,5.4h-3.7
	c-6.1,0-11.1-1.8-15.1-5.4c-4,3.6-9.1,5.4-15.1,5.4h-2.4v-9.3h2.3c5.1,0,7.7-4.7,7.8-14v-9c0-5,2.5-7.5,7.6-7.5c3,0,6,0.5,9,1.4
	c-1.2,4.1-1.7,9-1.8,14.8v0.4c0,9.3,2.6,14,7.8,14h3.6c5.2,0,7.8-4.7,7.8-14v-9c0-5,2.5-7.5,7.6-7.5c3,0,5.9,0.5,8.9,1.4
	c-1.2,4.1-1.7,9-1.7,14.8v0.4c0,9.3,2.6,14,7.8,14h3.5c5.2,0,7.8-4.7,7.8-14V756c0-5,2.5-7.5,7.6-7.5c3,0,5.9,0.5,8.9,1.4
	c-1.2,4.1-1.7,9.1-1.7,15.1v7c0,9.3,2.6,14,7.8,14H485.4z M550.1,785.9v9.3h-66.4v-9.3h10.5v-14.1c0-6.7,2-12.2,5.9-16.5
	c4.1-4.5,9.7-6.8,16.6-6.8c6.9,0,12.5,2.3,16.6,6.8c4,4.3,5.9,9.8,5.9,16.5c0,5.3-1.4,10-4.1,14.1H550.1z M516.7,785.9
	c5.2,0,7.8-4.7,7.8-14c0-4.1-0.7-7.4-2-9.9c-1.4-2.7-3.3-4.1-5.8-4.1c-2.5,0-4.5,1.4-5.9,4.1c-1.2,2.5-1.9,5.8-1.9,9.9v14H516.7z
	 M522.3,740.8c-1.6,1.5-3.4,2.3-5.4,2.3c-2.2,0-4-0.7-5.5-2.2c-1.5-1.5-2.2-3.4-2.2-5.7c0-2.2,0.8-4,2.3-5.6
	c1.6-1.5,3.4-2.3,5.5-2.3c2.1,0,3.9,0.8,5.4,2.3c1.5,1.5,2.2,3.4,2.2,5.6C524.6,737.3,523.9,739.2,522.3,740.8L522.3,740.8z
	 M583.4,785.9v9.3H581c-6,0-11.1-1.8-15.1-5.4c-4,3.6-9,5.4-15.1,5.4h-2.4v-9.3h2.3c5.1,0,7.7-4.7,7.8-14V756c0-5,2.5-7.5,7.6-7.5
	c3,0,6,0.5,9,1.4c-1.2,4.1-1.8,9.2-1.8,15.1v7.1c0,9.3,2.6,13.9,7.8,13.9H583.4z M566.3,743c-2.1,0-3.9-0.7-5.4-2.2
	c-1.5-1.5-2.2-3.4-2.2-5.7c0-2.2,0.8-4,2.3-5.6c1.6-1.5,3.4-2.3,5.5-2.3c2.1,0,3.9,0.8,5.4,2.3c1.5,1.5,2.2,3.4,2.2,5.6
	c0,2.3-0.8,4.2-2.4,5.7C570.2,742.3,568.4,743,566.3,743L566.3,743z M599.4,730.9c3,0,6,0.5,9,1.4c-1.2,4.1-1.8,9.2-1.8,15.1v24.5
	c0,6.7-2,12.2-5.9,16.5c-4.1,4.5-9.7,6.8-16.5,6.8h-2.4v-9.3h2.3c5.1,0,7.7-4.7,7.8-14v-33.4C591.8,733.4,594.3,730.9,599.4,730.9
	L599.4,730.9z M619.2,738.5c0-5,2.5-7.5,7.6-7.5c3,0,5.9,0.5,8.9,1.4c-1.2,4.1-1.7,9.1-1.7,15v40.3c0,5-2.5,7.5-7.6,7.5
	c-3,0-5.9-0.5-8.9-1.4c1.2-4.1,1.7-9.1,1.7-15.1V738.5L619.2,738.5z M636,795.2L636,795.2z M718.3,785.9v9.3h-2.4
	c-6,0-11-1.8-15-5.4c-4,3.6-9.1,5.4-15.2,5.4c-6.9,0-12.4-2.3-16.6-6.8c-4-4.3-5.9-9.8-5.9-16.5c0-6.7,2-12.2,5.9-16.6
	c4.1-4.6,9.7-6.9,16.6-6.9h22.6v23.4c0,9.3,2.6,14,7.8,14H718.3z M677.5,743c-2.2,0-4-0.7-5.5-2.2c-1.5-1.5-2.2-3.4-2.2-5.7
	c0-2.2,0.8-4,2.4-5.6c1.6-1.5,3.4-2.3,5.5-2.3c2.1,0,3.9,0.8,5.4,2.3c1.5,1.5,2.2,3.4,2.2,5.6c0,2.3-0.8,4.2-2.4,5.7
	C681.4,742.3,679.6,743,677.5,743L677.5,743z M693.4,757.8h-7.8c-2.6,0-4.5,1.4-5.9,4.1c-1.2,2.5-1.9,5.8-1.9,9.9
	c0,4.1,0.6,7.4,1.9,9.9c1.4,2.7,3.3,4.1,5.8,4.1c2.6,0,4.5-1.4,5.9-4.1c1.3-2.5,1.9-5.8,1.9-9.9V757.8z M696.6,743
	c-2.1,0-3.9-0.7-5.4-2.2c-1.5-1.5-2.2-3.4-2.2-5.7c0-2.2,0.8-4,2.3-5.6c1.6-1.5,3.4-2.3,5.5-2.3c2.1,0,3.9,0.8,5.4,2.3
	c1.5,1.5,2.2,3.4,2.2,5.6c0,2.3-0.8,4.2-2.3,5.7C700.5,742.3,698.7,743,696.6,743L696.6,743z M763.9,778.5c0,2.8,0.1,5.3,0.3,7.4
	h12.6v9.3h-60.1v-9.3h33.7c-0.8-3.3-1.3-6.9-1.3-10.8V768c0-3.6-0.5-6.4-1.5-8.2c-0.9-1.6-2.6-2.3-5.2-2.3c-3.4,0-5.5,0.3-6.5,1
	c-1.4,1.1-2.3,3.2-2.7,6.5c-5.6-0.2-8.5-2.6-8.5-7.2c0-3,1.4-5.1,4.3-6.5c3.7-1.8,7.8-2.7,12.4-2.7c8.6,0,14.6,1.3,17.8,3.8
	c3.1,2.5,4.6,6.7,4.6,12.8V778.5L763.9,778.5z M861.1,785.9v9.3h-4.3c-5.6,0-10.3-1.5-14.2-4.6c-3.9,3.1-8.7,4.6-14.3,4.6h-54.4
	v-9.3h12.2V756c0-5,2.5-7.5,7.6-7.5c3,0,5.9,0.5,8.9,1.4c-1.1,3.7-1.6,8.1-1.7,13.3c1.5-1.6,3.1-3.1,4.6-4.5
	c3.6-3.1,7.3-5.5,11.1-7.3c3.9-1.8,7.8-2.8,11.6-2.9c6.9,0,12.5,2.3,16.6,6.8c3.9,4.3,5.9,9.8,5.9,16.5c0,5.4-1.3,10.1-4,14.1H861.1
	z M828.3,785.9c5.2,0,7.8-4.7,7.8-14c0-4.1-0.6-7.4-1.9-9.9c-1.4-2.7-3.3-4.1-5.9-4.1c-2.3,0-5.1,0.8-8.3,2.4
	c-6.7,3.3-13,9.2-19,17.9v7.8H828.3z M876.3,730.9c3,0,6,0.5,9,1.4c-1.2,4.1-1.8,9.2-1.8,15.1v24.5c0,6.7-2,12.2-5.9,16.5
	c-4.1,4.5-9.7,6.8-16.5,6.8h-2.4v-9.3h2.3c5.1,0,7.7-4.7,7.8-14v-33.4C868.8,733.4,871.3,730.9,876.3,730.9L876.3,730.9z
	 M896.1,738.5c0-5,2.5-7.5,7.6-7.5c3,0,5.9,0.5,8.9,1.4c-1.2,4.1-1.7,9.1-1.7,15v40.3c0,5-2.5,7.5-7.6,7.5c-3,0-5.9-0.5-8.9-1.4
	c1.2-4.1,1.7-9.1,1.7-15.1V738.5L896.1,738.5z M965,795.1c0,6.6-2,12.1-5.9,16.5c-4.1,4.6-9.7,6.9-16.5,6.9h-6.1
	c-5,0-8.2-1.5-9.5-4.4c-0.2-0.5-0.3-1.1-0.3-1.7c0-1.9,1.2-4,3.5-6.4c2.1,2.1,4.9,3.1,8.5,3.1h3.8c5.2,0,7.8-4.6,7.8-13.9h-7.9
	c-6.9,0-12.4-2.3-16.6-6.9c-3.9-4.3-5.9-9.8-5.9-16.5c0-6.7,2-12.2,5.9-16.5c4.2-4.5,9.7-6.8,16.6-6.8c7,0,12.5,2.3,16.7,6.8
	c3.9,4.3,5.9,9.8,5.9,16.5V795.1z M950.3,771.8c0-4.1-0.6-7.4-1.9-10c-1.4-2.7-3.3-4.1-5.9-4.1c-2.5,0-4.4,1.4-5.8,4.1
	c-1.3,2.6-1.9,5.9-1.9,10c0,9.3,2.6,14,7.8,14h7.8V771.8z M968.3,795.2L968.3,795.2z M1050.6,785.9v9.3h-2.4c-6,0-11-1.8-15-5.4
	c-4,3.6-9.1,5.4-15.2,5.4c-6.9,0-12.4-2.3-16.6-6.8c-4-4.3-5.9-9.8-5.9-16.5c0-6.7,2-12.2,5.9-16.6c4.1-4.6,9.7-6.9,16.6-6.9h22.6
	v23.4c0,9.3,2.6,14,7.8,14H1050.6z M1009.9,743c-2.2,0-4-0.7-5.5-2.2c-1.5-1.5-2.2-3.4-2.2-5.7c0-2.2,0.8-4,2.4-5.6
	c1.6-1.5,3.4-2.3,5.5-2.3c2.1,0,3.9,0.8,5.4,2.3c1.5,1.5,2.2,3.4,2.2,5.6c0,2.3-0.8,4.2-2.4,5.7C1013.7,742.3,1011.9,743,1009.9,743
	L1009.9,743z M1025.8,757.8h-7.8c-2.6,0-4.5,1.4-5.9,4.1c-1.2,2.5-1.9,5.8-1.9,9.9c0,4.1,0.6,7.4,1.9,9.9c1.4,2.7,3.3,4.1,5.8,4.1
	c2.6,0,4.5-1.4,5.9-4.1c1.3-2.5,1.9-5.8,1.9-9.9V757.8z M1029,743c-2.1,0-3.9-0.7-5.4-2.2c-1.5-1.5-2.2-3.4-2.2-5.7
	c0-2.2,0.8-4,2.3-5.6c1.6-1.5,3.4-2.3,5.5-2.3c2.1,0,3.9,0.8,5.4,2.3c1.5,1.5,2.2,3.4,2.2,5.6c0,2.3-0.8,4.2-2.3,5.7
	C1032.8,742.3,1031,743,1029,743L1029,743z M1079.1,748.5c3,0,5.9,0.5,8.9,1.4c-1.2,4.1-1.7,9.1-1.7,15.1v7c0,6.6-2,12.1-5.9,16.5
	c-4.1,4.6-9.7,6.9-16.5,6.9H1049v-9.3h14.7c5.2,0,7.8-4.7,7.8-14V756C1071.5,751,1074,748.5,1079.1,748.5L1079.1,748.5z
	 M1060.2,818.4c-2.2,0-4-0.7-5.5-2.2c-1.5-1.5-2.2-3.4-2.2-5.7c0-2.2,0.8-4,2.4-5.6c1.6-1.5,3.4-2.3,5.5-2.3c2.1,0,3.9,0.8,5.4,2.3
	c1.5,1.5,2.2,3.4,2.2,5.6c0,2.3-0.8,4.2-2.4,5.7C1064,817.7,1062.2,818.4,1060.2,818.4L1060.2,818.4z M1079.3,818.4
	c-2.2,0-4-0.7-5.5-2.2c-1.5-1.5-2.2-3.4-2.2-5.7c0-2.2,0.8-4,2.4-5.6c1.6-1.5,3.4-2.3,5.5-2.3c2.1,0,3.9,0.8,5.4,2.3
	c1.5,1.5,2.2,3.4,2.2,5.6c0,2.3-0.8,4.2-2.3,5.7C1083.1,817.7,1081.3,818.4,1079.3,818.4L1079.3,818.4z M1133.9,795.2h-10.3
	c0,6.6-2,12.1-6,16.4c-4.1,4.5-9.6,6.8-16.5,6.8h-2.4c-5,0-8.2-1.5-9.4-4.4c-0.2-0.5-0.3-1.1-0.3-1.7c0-1.9,1.2-4,3.5-6.4
	c2,2.1,4.8,3.1,8.5,3.1h0.1c5.2,0,7.8-4.7,7.8-14V756c0-5,2.5-7.5,7.6-7.5c3,0,6,0.5,9,1.4c-1.2,4.1-1.8,9.1-1.8,15.1v21h10.3V795.2
	z M1209.9,756c0-5,2.5-7.5,7.6-7.5c3,0,5.9,0.5,8.9,1.4c-1.2,4.1-1.7,9.2-1.7,15.1v7c0,6.7-2,12.2-5.9,16.5
	c-4.1,4.5-9.7,6.8-16.5,6.8h-3.6c-6,0-11.1-1.8-15.1-5.4c-4,3.6-9,5.4-15.1,5.4h-3.7c-6.1,0-11.1-1.8-15.1-5.4
	c-4,3.6-9.1,5.4-15.1,5.4h-2.4v-9.3h2.3c5.1,0,7.7-4.7,7.8-14v-9c0-5,2.5-7.5,7.6-7.5c3,0,5.9,0.5,8.9,1.4c-1.1,4.1-1.7,9-1.7,14.8
	v0.4c0,9.3,2.6,14,7.8,14h3.6c5.2,0,7.8-4.7,7.8-14v-9c0-5,2.5-7.5,7.6-7.5c3,0,5.9,0.5,8.9,1.4c-1.2,4.1-1.7,9-1.7,14.8v0.4
	c0,9.3,2.6,14,7.8,14h3.5c5.2,0,7.8-4.7,7.8-14V756L1209.9,756z M1268.9,738.5c0-5,2.5-7.5,7.6-7.5c3,0,5.9,0.5,8.9,1.4
	c-1.2,4.1-1.7,9.1-1.7,15.1v24.5c0,6.7-2,12.2-5.9,16.5c-4.1,4.5-9.7,6.8-16.5,6.8h-20.3c-5,0-8.2-1.5-9.5-4.4
	c-0.2-0.5-0.3-1.1-0.3-1.7c0-1.9,1.2-4,3.5-6.4c2,2.1,4.8,3.1,8.5,3.1h18.1c5.2,0,7.8-4.7,7.8-14V738.5L1268.9,738.5z M1258.2,772.1
	c0,5-2.5,7.5-7.6,7.5c-3,0-6-0.5-9-1.4c1.2-4.1,1.8-9.1,1.8-15v-24.8c0-5,2.5-7.5,7.6-7.5c3,0,6,0.5,9,1.4
	c-1.2,4.1-1.8,9.1-1.8,15.1V772.1z M1296.3,738.5c0-5,2.5-7.5,7.6-7.5c3,0,5.9,0.5,8.9,1.4c-1.2,4.1-1.7,9.1-1.7,15v40.3
	c0,5-2.5,7.5-7.6,7.5c-3,0-5.9-0.5-8.9-1.4c1.2-4.1,1.7-9.1,1.7-15.1V738.5L1296.3,738.5z M1313,795.2L1313,795.2z M1403.3,756
	c0-5,2.5-7.5,7.6-7.5c3,0,5.9,0.5,8.9,1.4c-1.2,4.1-1.7,9.1-1.7,15.1v7c0,6.7-2,12.2-6,16.5c-4.1,4.5-9.6,6.8-16.5,6.8h-33
	c-6.9,0-12.4-2.3-16.5-6.8c-3.9-4.3-5.9-9.8-5.9-16.5v-9c0-5,2.5-7.5,7.6-7.5c2.9,0,5.9,0.5,8.9,1.4c-1.2,4.1-1.8,9.2-1.8,15.1v0.1
	c0,9.3,2.6,14,7.8,14h32.9c5.2,0,7.8-4.7,7.8-14V756L1403.3,756z M1371,743c-2.2,0-4-0.7-5.5-2.2c-1.5-1.5-2.2-3.4-2.2-5.7
	c0-2.2,0.8-4,2.4-5.6c1.6-1.5,3.4-2.3,5.5-2.3c2.1,0,3.9,0.8,5.4,2.3c1.5,1.5,2.2,3.4,2.2,5.6c0,2.3-0.8,4.2-2.4,5.7
	C1374.8,742.3,1373,743,1371,743L1371,743z M1390.1,743c-2.2,0-4-0.7-5.5-2.2c-1.5-1.5-2.2-3.4-2.2-5.7c0-2.2,0.8-4,2.4-5.6
	c1.6-1.5,3.4-2.3,5.5-2.3c2.1,0,3.9,0.8,5.4,2.3c1.5,1.5,2.2,3.4,2.2,5.6c0,2.3-0.8,4.2-2.4,5.7C1393.9,742.3,1392.1,743,1390.1,743
	L1390.1,743z M1430.8,738.5c0-5,2.5-7.5,7.6-7.5c3,0,5.9,0.5,8.9,1.4c-1.2,4.1-1.7,9.1-1.7,15v40.3c0,5-2.5,7.5-7.6,7.5
	c-3,0-5.9-0.5-8.9-1.4c1.2-4.1,1.7-9.1,1.7-15.1V738.5L1430.8,738.5z M1464.2,756c0-5,2.5-7.5,7.6-7.5c2.9,0,5.9,0.5,8.9,1.4
	c-1.2,4.1-1.8,9.1-1.8,15.1v30.2c0,6.6-2,12.1-5.9,16.5c-4.1,4.6-9.7,6.9-16.5,6.9h-2.4c-5,0-8.2-1.5-9.5-4.4
	c-0.2-0.5-0.3-1.1-0.3-1.7c0-1.9,1.2-4,3.5-6.4c2,2.1,4.8,3.1,8.5,3.1h0.2c5.2,0,7.8-4.7,7.8-14V756L1464.2,756z M1516,785.9v9.3
	h-2.4c-6.9,0-12.4-2.3-16.5-6.8c-4-4.3-5.9-9.8-5.9-16.5v-33.4c0-5,2.5-7.6,7.6-7.6c3,0,6,0.5,9,1.4c-1.2,4.1-1.8,9.1-1.8,15v24.5
	c0,9.3,2.6,14,7.8,14H1516z M1617.1,785.9v9.3h-2.4c-6.1,0-11.1-1.8-15.1-5.4c-4,3.6-9.1,5.4-15.1,5.4h-3.6c-6,0-11.1-1.8-15.1-5.4
	c-4,3.6-9,5.4-15.1,5.4h-3.7c-6.1,0-11.1-1.8-15.1-5.4c-4,3.6-9.1,5.4-15.1,5.4h-2.4v-9.3h2.3c5.2,0,7.8-4.7,7.8-14v-9
	c0-5,2.5-7.5,7.6-7.5c3,0,5.9,0.5,8.9,1.4c-1.1,4.1-1.7,9-1.7,14.8v0.4c0,9.3,2.6,14,7.8,14h3.6c5.2,0,7.8-4.7,7.8-14v-9
	c0-5,2.5-7.5,7.6-7.5c3,0,5.9,0.5,8.9,1.4c-1.2,4.1-1.7,9-1.7,14.8v0.4c0,9.3,2.6,14,7.8,14h3.5c2.6,0,4.5-1.4,5.9-4.1
	c1.3-2.5,1.9-5.8,1.9-9.9V756c0-5,2.5-7.5,7.6-7.5c3,0,5.9,0.5,8.9,1.4c-1.2,4.1-1.7,9.1-1.7,15.1v7c0,9.3,2.6,14,7.8,14H1617.1z
	 M1556.4,743c-2.2,0-4-0.7-5.5-2.2c-1.5-1.5-2.2-3.4-2.2-5.7c0-2.2,0.8-4,2.4-5.6c1.6-1.5,3.4-2.3,5.5-2.3c2.1,0,3.9,0.8,5.4,2.3
	c1.5,1.5,2.2,3.4,2.2,5.6c0,2.3-0.8,4.2-2.4,5.7C1560.3,742.3,1558.5,743,1556.4,743L1556.4,743z M1566,726.9
	c-2.1,0-3.9-0.7-5.5-2.2c-1.5-1.5-2.2-3.4-2.2-5.7c0-2.2,0.8-4.1,2.4-5.6c1.6-1.5,3.4-2.3,5.5-2.3c2.1,0,3.9,0.8,5.4,2.3
	c1.5,1.5,2.2,3.4,2.2,5.6c0,2.2-0.8,4.1-2.4,5.7C1569.8,726.1,1568,726.9,1566,726.9L1566,726.9z M1575.6,743c-2.2,0-4-0.7-5.5-2.2
	c-1.5-1.5-2.2-3.4-2.2-5.7c0-2.2,0.8-4,2.4-5.6c1.6-1.5,3.4-2.3,5.5-2.3c2.1,0,3.9,0.8,5.4,2.3c1.5,1.5,2.2,3.4,2.2,5.6
	c0,2.3-0.8,4.2-2.3,5.7C1579.4,742.3,1577.6,743,1575.6,743L1575.6,743z M1653.9,785.9v9.3h-4c-6,0-11.1-1.8-15.1-5.4
	c-4,3.6-9.1,5.4-15.1,5.4h-4v-9.3h4c5.2,0,7.8-4.7,7.8-14V756c0-5,2.5-7.5,7.6-7.5c3,0,5.9,0.5,8.9,1.4c-1.2,4.1-1.8,9.1-1.8,15.1v7
	c0,9.3,2.6,14,7.8,14H1653.9z M1625.2,743c-2.2,0-4-0.7-5.5-2.2c-1.5-1.5-2.2-3.4-2.2-5.7c0-2.2,0.8-4,2.4-5.6
	c1.6-1.5,3.4-2.3,5.5-2.3c2.1,0,3.9,0.8,5.4,2.3c1.5,1.5,2.3,3.4,2.3,5.6c0,2.3-0.8,4.2-2.4,5.7C1629,742.3,1627.2,743,1625.2,743
	L1625.2,743z M1644.2,743c-2.2,0-4-0.7-5.4-2.2c-1.5-1.5-2.2-3.4-2.2-5.7c0-2.2,0.8-4,2.3-5.6c1.6-1.5,3.4-2.3,5.5-2.3
	c2.1,0,3.9,0.8,5.4,2.3c1.5,1.5,2.2,3.4,2.2,5.6c0,2.3-0.8,4.2-2.4,5.7C1648.1,742.3,1646.3,743,1644.2,743L1644.2,743z M1730.2,756
	c0-5,2.5-7.5,7.6-7.5c3,0,5.9,0.5,8.9,1.4c-1.2,4.1-1.7,9.2-1.7,15.1v7c0,6.7-2,12.2-5.9,16.5c-4.1,4.5-9.7,6.8-16.5,6.8h-3.6
	c-6,0-11.1-1.8-15.1-5.4c-4,3.6-9,5.4-15.1,5.4h-3.7c-6.1,0-11.1-1.8-15.1-5.4c-4,3.6-9.1,5.4-15.1,5.4h-2.4v-9.3h2.3
	c5.1,0,7.7-4.7,7.8-14v-9c0-5,2.5-7.5,7.6-7.5c3,0,5.9,0.5,8.9,1.4c-1.1,4.1-1.7,9-1.7,14.8v0.4c0,9.3,2.6,14,7.8,14h3.6
	c5.2,0,7.8-4.7,7.8-14v-9c0-5,2.5-7.5,7.6-7.5c3,0,5.9,0.5,8.9,1.4c-1.2,4.1-1.7,9-1.7,14.8v0.4c0,9.3,2.6,14,7.8,14h3.5
	c5.2,0,7.8-4.7,7.8-14V756L1730.2,756z M1814.2,785.9v9.3h-2.4c-6,0-11.1-1.8-15.1-5.4c-4,3.6-9,5.4-15.1,5.4h-20.3
	c-5,0-8.2-1.5-9.5-4.4c-0.2-0.5-0.3-1.1-0.3-1.7c0-1.9,1.2-4,3.5-6.4c2,2.1,4.8,3.1,8.5,3.1h18.1c5.2,0,7.8-4.7,7.8-14v-33.4
	c0-5,2.5-7.5,7.6-7.5c3,0,5.9,0.5,8.9,1.4c-1.2,4.1-1.7,9.1-1.7,15v24.6c0,9.3,2.6,14,7.8,14H1814.2z M1777.7,811.3
	c0.5,0.5,0.9,1,1.1,1.5c0.2,0.3,0.2,0.7,0.2,1c0,0.3-0.1,0.7-0.2,1c-0.6,1.3-1.8,2-3.7,2h-9.3c-0.6,0-0.9,0.1-1.1,0.2
	c-0.4,0.2-0.7,0.7-0.8,1.3l-0.2,0.9l-0.1,0.6l-0.6-0.1l-1-0.2c-0.9-0.2-1.5-0.5-2-1c-0.5-0.5-0.7-1.2-0.7-2.1c0-1.7,0.9-3,2.6-3.9
	c0.5-0.3,1.1-0.5,1.6-0.7c-0.4-1.1-0.7-2.3-0.7-3.6c0-2.4,0.7-4.4,2.2-6c1.5-1.7,3.5-2.6,6-2.6h0c1.6,0,3,0.4,4.2,1
	c1.8,0.9,2.7,2.3,2.7,4c0,0.8-0.2,1.5-0.7,2.1c-0.5,0.5-1.2,0.8-2.1,1l-0.9,0.2l-0.6,0.1l-0.1-0.6l-0.2-0.9
	c-0.1-0.6-0.4-1.1-0.9-1.3c-0.2-0.1-0.6-0.2-1.2-0.2h-0.2c-1.2,0-1.7,1.1-1.7,3.3c0,2.2,0.6,3.2,1.7,3.2h3.6c0.4,0,0.7-0.1,0.9-0.2
	l0.7-0.7l0.4-0.4l0.4,0.4L1777.7,811.3L1777.7,811.3z M1778.6,772.1c0,5-2.5,7.5-7.6,7.5c-2.9,0-5.9-0.5-8.9-1.4
	c1.2-4.1,1.8-9.1,1.8-15v-24.8c0-5,2.5-7.5,7.6-7.5c3,0,6,0.5,9,1.4c-1.2,4.1-1.8,9.1-1.8,15.1V772.1z M1829.9,730.9
	c3,0,6,0.5,9,1.4c-1.2,4.1-1.8,9.2-1.8,15.1v24.5c0,6.7-2,12.2-5.9,16.5c-4.1,4.5-9.7,6.8-16.5,6.8h-2.4v-9.3h2.3
	c5.1,0,7.7-4.7,7.8-14v-33.4C1822.4,733.4,1824.9,730.9,1829.9,730.9L1829.9,730.9z"/>
<g>
	<path class="st0" d="M1535,166.3c-19.3,8-36.4,34.3-22.5,54c5.4,7.7,14.8,11.8,23.5,6.7c8.3-4.9,11.8-15.4,9.8-24.6
		c-1.9-8.5-8.9-16-15.3-21.5c-6.8-5.9-15.9-11.9-25.3-11.4c-8.6,0.4-15.6,7.8-16.6,16.2c-1.1,9.6,5.1,19,11.7,25.4
		c14.7,14.2,39.1,16,56.7,5.9c9.3-5.3,15.9-15,15.5-25.9c-0.4-11.9-8.2-22.2-17.2-29.3c-8.9-7-20.4-12.2-31.9-10.9
		c-10.3,1.1-18.6,7.6-24,16.2c-5.9,9.4-9.1,21.4-10.6,32.3c-1.4,10.3-0.9,21.9,6.3,30.1c14.5,16.6,44.7,6.3,59.8-4.2
		c19.9-13.9,24.4-41.1,14.3-62.3c-10.4-21.9-36.4-38.9-61.1-33.7c-21.8,4.6-35.7,25.5-42.2,45.5c-5.4,16.7-7.5,36.5-0.4,53.1
		c7.7,18,25.3,24.4,43.8,23.6c44.5-2,97.5-36.9,92.7-86.8c-4.6-48.3-65-66-105.3-54.2c-22.8,6.7-42.8,22.2-54.4,43.1
		c-8.6,15.5-13.7,35.2-10.4,52.9c5.1,27.3,32.4,36.9,57.2,37.3c31.5,0.5,64-9.5,91.3-24.7c27.3-15.2,58.5-44.1,44.8-78.9
		c-8.3-21.1-30.5-33.9-51.7-38.8c-22.6-5.2-45.8-1.5-64.1,13.3c-18,14.5-29,36.5-35.2,58.5c-5.8,20.8-6.1,43.7,3.5,63.4
		c21.9,44.6,81.1,36.1,114.4,10c18.6-14.7,30.8-36.4,31-60.4c0.2-26.2-13.1-51.3-30.6-70.1c-16-17.2-39.8-34.3-64.3-33.9
		c-22.5,0.4-40.8,15.8-53.4,33.1c-12.4,17.1-20.9,37.6-24,58.6c-2.6,17.6-2.3,37.6,6.6,53.6c10,17.8,29.1,22.6,48.2,20
		c27.4-3.7,56.4-17.3,74.1-38.9c8.1-9.9,14.3-21.1,20.8-32.1c7.1-12,15-23.7,27.4-30.6c2.9-1.6,0.3-6-2.6-4.4
		c-20.7,11.5-29.4,34.6-41.9,53.4c-6.7,10-14.5,19.3-24.5,26.2c-11.1,7.7-24.1,13.6-37,17.6c-17.8,5.5-40.9,8.7-55-6.4
		c-10.9-11.7-13-29.6-12.4-44.9c0.7-17.4,5.4-34.5,13-50.1c8.8-17.9,21.8-35.7,40.1-44.7c20.4-10.1,41.7-3,59.7,9
		c19.9,13.3,36.5,33,45,55.4c8.1,21.4,7.5,45-4.6,64.8c-11.1,18.1-29.7,30.8-49.7,37.1c-19.3,6.1-42,7.5-59.3-4.7
		c-15.1-10.6-22.4-29.1-23.5-46.9c-1.3-20.5,4.9-41.5,14.4-59.5c9.3-17.7,23.5-33.6,42.9-40.1c35.4-11.9,99.3,11.5,89.7,57.5
		c-5.6,26.8-31.2,43.7-54.2,54.8c-24.4,11.7-52.2,19.5-79.4,18.9c-20.9-0.4-44.9-7.3-51-29.9c-4-14.6-0.5-31.4,5.3-45
		c8.4-19.4,24.1-35.1,43.3-44c19.9-9.2,42.8-10.3,63.7-4.1c18.7,5.6,36.9,17.7,44,36.6c7.6,20.2,0.8,43.1-12.6,59.2
		c-13.7,16.5-33.7,27.5-54.5,32.3c-16.6,3.8-38.2,5.5-50.7-8.4c-10.6-11.7-11.3-29.7-8.9-44.5c2.9-17.6,10.4-35.7,24.2-47.5
		c19.4-16.6,46.5-9.9,63.1,7.4c16.2,16.8,21.1,45,5,63.7c-6.6,7.6-16.2,12.3-25.6,15.4c-9.3,3-21,5.2-30,0.3
		c-10-5.4-11.3-17.8-10.2-27.9c1-10.1,4-21.2,8.9-30.2c4.7-8.7,12.5-15.6,22.8-16.1c11.1-0.6,22.2,5.3,30.1,12.7
		c9,8.4,15.8,21.2,9.7,33.3c-4.5,9-14.3,13.6-23.8,15.4c-18.6,3.5-39.6-3.9-46.5-23c-3-8.4,1.1-19.6,11.3-19.6c8.6,0,17,6.4,23,12
		c5.8,5.5,12.1,12.7,12.1,21.1c0,9.3-8.9,20.8-18.9,15.1c-9.9-5.6-11.3-18.6-7.8-28.3c3.6-10.1,11.9-19.1,21.9-23.2
		C1539.4,170,1538.1,165,1535,166.3"/>
	<path class="st0" d="M1537.5,184.1c7-16.8,1.3-43.6-19.4-47.2c-8.1-1.4-16.5,1.8-18.7,10.4c-2.1,8.2,2.2,16.8,9.1,21.2
		c6.4,4.1,15.4,4.4,22.7,3.9c7.8-0.6,17.2-2.5,22.7-8.5c5-5.6,4.8-14.5,0.2-20.2c-5.3-6.6-14.8-8.6-22.9-8.4
		c-17.9,0.3-34,14.2-38.7,31.4c-2.4,9-0.6,19,6.4,25.5c7.6,7.1,18.8,8.6,28.7,7.5c9.8-1.2,20.1-5.1,26.4-12.9
		c5.7-7,6.8-16.2,4.8-24.8c-2.2-9.5-7.6-18.8-13.4-26.5c-5.5-7.2-13-14.1-22.4-14.7c-19.2-1.3-31.5,23.7-34.3,39.5
		c-3.7,20.9,10.3,40.4,29.6,47.3c19.9,7.1,46.5,1.5,58.5-16.9c10.6-16.3,6.3-37.8-2-54.1c-6.9-13.7-17.9-27.2-32.5-33
		c-15.8-6.4-30.7,0.5-41.6,12.5c-26.2,28.7-37.4,83-3.6,110.8c32.7,27,80.9,0.6,98.4-31.5c9.9-18.2,12.7-40.1,7-60.2
		c-4.2-14.9-13.3-30.2-26.2-39.1c-20-13.7-42.8-2.7-58.3,12.3c-19.7,19.1-33.6,45.3-41.1,71.6c-7.5,26.2-8.9,63.3,21.1,76.3
		c18.2,7.9,39.8,2.1,55.9-8c17.2-10.7,29.2-27.4,31.4-47.8c2.2-20.1-4.6-40.5-14.4-57.8c-9.2-16.4-23.2-30.8-41.3-36.9
		c-41.1-14-72.3,27.8-76.7,64.4c-2.5,20.5,3.5,41.5,18.2,56.4c16.1,16.3,39.7,23.6,62.1,24.4c20.5,0.7,45.7-3.3,60.6-18.7
		c13.6-14.1,15.5-34.9,12.5-53.4c-2.9-18.2-10.3-36.1-21.4-50.9c-9.3-12.5-21.8-24.6-37.2-29c-17.2-4.8-31.9,4-42.1,17.4
		c-14.6,19.2-24.1,45.5-21.7,69.8c1.1,11.1,4.2,21.9,7,32.6c3,11.8,5.4,23.9,1.9,35.8c-0.8,2.8,3.5,3.9,4.3,1.1
		c5.7-19.9-3.2-39.5-7.1-58.8c-2.1-10.3-2.9-20.9-1.1-31.3c2.1-11.7,6.5-23.2,12-33.7c7.6-14.4,19.8-30.6,37.9-30
		c14,0.5,26.3,10.2,35.4,20c10.3,11.2,18,24.6,22.9,39c5.6,16.5,8.6,35.5,2.9,52.3c-6.4,18.9-23.9,27.6-42.4,31.3
		c-20.4,4.1-42.9,2.2-61.9-6.5c-18.2-8.2-32.4-23.1-37.2-42.9c-4.3-18-0.7-37.3,7.7-53.5c8.2-15.7,21.3-30.5,39.5-33.7
		c15.8-2.8,31.7,4.1,43.5,14.5c13.5,11.8,22.6,28.6,27.8,45.6c5.2,16.6,6.2,35.3-1.7,51.2c-14.5,29.2-68.4,54.1-90.9,19.9
		c-13.1-20-7.7-46.2-0.3-67.3c7.8-22.3,20.2-44.2,37.3-60.7c13.1-12.6,32.2-23.2,49.9-13.1c11.4,6.5,19.7,19.1,24.5,31
		c6.8,17.2,6.8,36.5,0.4,53.8c-6.6,17.9-20,32.8-36.8,41.8c-14.9,8.1-33.7,11.9-49.8,4.6c-17.2-7.8-27.1-26.1-28.8-44.4
		c-1.7-18.7,3.8-37.8,13.7-53.6c7.9-12.6,20.2-26.9,36.5-26.1c13.8,0.7,25.3,11.4,33,22c9.1,12.6,15.6,28.5,14.4,44.2
		c-1.8,22.2-22.6,34.8-43.5,34.4c-20.4-0.4-40.8-14.8-42.4-36.2c-0.6-8.7,2.4-17.6,6.3-25.3c3.9-7.6,9.8-16.2,18.3-18.7
		c9.5-2.9,17.9,4,23.5,10.9c5.6,6.9,10.6,15.6,13.1,24.1c2.4,8.3,1.9,17.3-4.1,24c-6.5,7.2-17,10.4-26.4,10.7
		c-10.7,0.4-22.9-3.3-26.6-14.6c-2.8-8.4,0.4-17.2,5.2-24.2c9.4-13.6,26.8-22,42.9-14.5c7.1,3.3,11.4,12.8,5.1,19.1
		c-5.3,5.3-14.4,6.6-21.6,6.8c-7,0.2-15.3-0.4-20.5-5.6c-5.8-5.7-7.3-18.3,2.3-21c9.5-2.7,18.5,4.5,22.3,12.6
		c4,8.5,4.5,19.2,0.9,27.8C1532.5,184.5,1536.4,186.7,1537.5,184.1"/>
</g>
</svg>
