<?xml version="1.0" encoding="utf-8"?>
<!-- Generator: Adobe Illustrator 25.3.0, SVG Export Plug-In . SVG Version: 6.00 Build 0)  -->
<svg version="1.1" id="Layer_1" xmlns="http://www.w3.org/2000/svg" xmlns:xlink="http://www.w3.org/1999/xlink" x="0px" y="0px"
	 viewBox="0 0 90 15.6" style="enable-background:new 0 0 90 15.6;" xml:space="preserve">
<style type="text/css">
	.st0{fill:#FFFFFF;stroke:#FFFFFF;stroke-width:0.5;stroke-miterlimit:10;}
</style>
<g>
	<g>
		<path class="st0" d="M89.6,6.3C89.5,6.3,89.5,6.3,89.6,6.3C89.5,6.2,89.5,6.2,89.6,6.3c-1.1-0.2-1.8-0.9-2.5-1.5
			c-0.9-0.8-1.8-1.7-2.8-2.5c-1.5-1.2-3-1.2-4.6-0.2c-1,0.6-1.9,1.2-2.8,1.9c-1.5,1.1-3.1,1.3-4.8,0.7c-1-0.3-1.9-0.8-2.9-1.1
			c-0.7-0.2-1.5-0.4-2.3-0.5c-1.3-0.2-2.1,0.5-2.9,1.3c-1.1,1.4-2.2,2.8-3.3,4.2c-1.3,1.5-2.1,1.8-4.2,0.6c-1-0.6-1.8-1.2-2.8-1.9
			c-0.9-0.6-1.8-1.1-2.9-1.1c-0.9-0.1-1.7-0.5-2.4-1.1c-0.8-0.7-1.6-1.5-2.4-2.3c-0.8-0.7-1.7-1.4-2.8-1.4s-1.9,0.4-2.7,0.9
			s-1.6,1-2.3,1.6c-1.6,1.3-3.4,1.3-5.3,0.6c-1.2-0.5-2.5-0.9-3.8-1.3C27.7,2.8,26.3,3,25,3.7c-0.8,0.5-1.6,0.9-2.4,1.4
			c-0.9,0.6-1.9,0.8-2.9,1c-0.8,0.1-1.6,0.4-2.3,0.8c-1,0.5-1.8,1.2-2.8,1.8c-2.3,1.6-3.8,1.5-5.6-0.3C7.7,7.2,6.6,5.8,5.4,4.5
			c-1-1.2-2-2.4-3.5-3.1C1.5,1.2,1.1,1.1,0.7,1H0.6l0,0C0.4,1.1,0.4,1.3,0.5,1.4l0.1,0.1l0,0c1,0.2,1.9,0.7,2.6,1.4
			c1.2,1.2,2.3,2.6,3.5,3.8c0.8,0.9,1.6,1.8,2.5,2.5c1.8,1.6,3.4,1.6,5.4,0.2C15.3,8.9,16,8.5,16.7,8c1-0.7,2.1-1.2,3.4-1.3
			c0.9-0.1,1.7-0.5,2.5-0.8c0.7-0.3,1.4-0.8,2.1-1.2c1.5-1.2,3.3-1.3,5.2-0.6c1.2,0.5,2.4,0.9,3.7,1.3c1.7,0.5,3.2,0.2,4.6-0.8
			c1-0.7,2-1.4,3-2C42.8,1.7,44,1.8,45.4,3c0.9,0.8,1.7,1.6,2.6,2.3c0.9,0.8,1.8,1.5,3.1,1.5c0.9,0,1.7,0.5,2.5,1
			c0.9,0.6,1.8,1.3,2.8,1.9c0.6,0.4,1.3,0.6,2,0.7c1.4,0.2,2.3-0.7,3.1-1.6c0.7-1.1,1.5-2.3,2.4-3.4c1.4-1.8,2.4-2.1,4.6-1.4
			c1.4,0.4,2.7,1,4,1.4c1.5,0.5,3,0.2,4.3-0.7c0.9-0.6,1.9-1.3,2.8-1.9c1.8-1.2,3.2-1,4.8,0.4c1.2,1.1,2.4,2.1,3.6,3.1
			c0.3,0.3,0.8,0.3,1.2,0.5h0.1l0,0C89.6,6.6,89.7,6.4,89.6,6.3z"/>
	</g>
</g>
</svg>
