<?xml version="1.0" encoding="utf-8"?>
<!-- Generator: Adobe Illustrator 25.3.0, SVG Export Plug-In . SVG Version: 6.00 Build 0)  -->
<svg version="1.1" id="Layer_1" xmlns="http://www.w3.org/2000/svg" xmlns:xlink="http://www.w3.org/1999/xlink" x="0px" y="0px"
	 viewBox="0 0 90 15.6" style="enable-background:new 0 0 90 15.6;" xml:space="preserve">
<style type="text/css">
	.st0{fill:#FFFFFF;stroke:#FFFFFF;stroke-width:0.5;stroke-miterlimit:10;}
</style>
<g>
	<g>
		<path class="st0" d="M0.5,5.1C0.6,5.1,0.6,5.1,0.5,5.1C0.6,5.2,0.6,5.2,0.5,5.1C1.6,5.3,2.3,6,3,6.6c0.9,0.8,1.8,1.7,2.8,2.5
			c1.5,1.2,3,1.2,4.6,0.2c1-0.6,1.9-1.2,2.8-1.9c1.5-1.1,3.1-1.3,4.8-0.7c1,0.3,1.9,0.8,2.9,1.1c0.7,0.2,1.5,0.4,2.3,0.5
			c1.3,0.2,2.1-0.5,2.9-1.3c1.1-1.4,2.2-2.8,3.3-4.2c1.3-1.5,2.1-1.8,4.2-0.6c1,0.6,1.8,1.2,2.8,1.9c0.9,0.6,1.8,1.1,2.9,1.1
			c0.9,0.1,1.7,0.5,2.4,1.1c0.8,0.7,1.6,1.5,2.4,2.3c0.8,0.7,1.7,1.4,2.8,1.4s1.9-0.4,2.7-0.9s1.6-1,2.3-1.6
			c1.6-1.3,3.4-1.3,5.3-0.6c1.2,0.5,2.5,0.9,3.8,1.3c1.4,0.4,2.8,0.2,4.1-0.5c0.8-0.5,1.6-0.9,2.4-1.4c0.9-0.6,1.9-0.8,2.9-1
			c0.8-0.1,1.6-0.4,2.3-0.8c1-0.5,1.8-1.2,2.8-1.8c2.3-1.6,3.8-1.5,5.6,0.3c1.3,1.2,2.4,2.6,3.6,3.9c1,1.2,2,2.4,3.5,3.1
			c0.4,0.2,0.8,0.3,1.2,0.4h0.1l0,0c0.2-0.1,0.2-0.3,0.1-0.4l-0.1-0.1l0,0c-1-0.2-1.9-0.7-2.6-1.4c-1.2-1.2-2.3-2.6-3.5-3.8
			c-0.8-0.9-1.6-1.8-2.5-2.5c-1.8-1.6-3.4-1.6-5.4-0.2c-0.7,0.5-1.4,0.9-2.1,1.4c-1,0.7-2.1,1.2-3.4,1.3c-0.9,0.1-1.7,0.5-2.5,0.8
			c-0.7,0.3-1.4,0.8-2.1,1.2c-1.5,1.2-3.3,1.3-5.2,0.6C59,6.8,57.8,6.4,56.5,6c-1.7-0.5-3.2-0.2-4.6,0.8c-1,0.7-2,1.4-3,2
			c-1.6,0.9-2.8,0.8-4.2-0.4c-0.9-0.8-1.7-1.6-2.6-2.3c-0.9-0.8-1.8-1.5-3.1-1.5c-0.9,0-1.7-0.5-2.5-1c-0.9-0.6-1.8-1.3-2.8-1.9
			c-0.6-0.4-1.3-0.6-2-0.7c-1.4-0.2-2.3,0.7-3.1,1.6c-0.7,1.1-1.5,2.3-2.4,3.4c-1.4,1.8-2.4,2.1-4.6,1.4c-1.4-0.4-2.7-1-4-1.4
			c-1.5-0.5-3-0.2-4.3,0.7c-0.9,0.6-1.9,1.3-2.8,1.9c-1.8,1.2-3.2,1-4.8-0.4C4.5,7.1,3.3,6.1,2.1,5.1C1.8,4.8,1.3,4.8,0.9,4.6H0.8
			l0,0C0.5,4.8,0.4,5,0.5,5.1z"/>
	</g>
</g>
</svg>
