<?xml version="1.0" encoding="utf-8"?>
<!-- Generator: Adobe Illustrator 25.3.0, SVG Export Plug-In . SVG Version: 6.00 Build 0)  -->
<svg version="1.1" id="Layer_1" xmlns="http://www.w3.org/2000/svg" xmlns:xlink="http://www.w3.org/1999/xlink" x="0px" y="0px"
	 viewBox="0 0 1381.6 1427.9" style="enable-background:new 0 0 1381.6 1427.9;" xml:space="preserve">
<style type="text/css">
	.st0{fill:#1E2D46;}
	.st1{fill:#527DC9;}
</style>
<g>
	<path class="st0" d="M56.4,1040.7c0-10.6,8.6-19.2,19.2-19.2h10.5c21.3-0.7,42.7-0.4,64.1,0h99.3c23.9-1.3,47.7-4,71.2-9.5
		c64.1-15,123.3-50.5,166.6-100c43.3-49.6,70.6-112.9,76.9-178.5c0.9-9.4,1.5-19.3,6.4-27.4c4.9-8.1,15.8-13.4,24.1-8.8
		c4.8,14.9-0.4,31-0.8,46.7c-0.4,15.7,8.1,34.6,23.8,34.9c15.8,0.2,24.8-18.7,24.5-34.5c-0.3-15.8-5.7-31.9-1.3-47
		c9,0.1,18,0.1,26.9,0.1c4.5,15-0.9,31-1.3,46.7c-0.4,15.7,8.2,34.6,23.8,34.7c15.8,0.2,24.7-18.7,24.5-34.5
		c-0.3-15.8-5.6-31.8-1.2-46.9c8.9,0,17.9,0,26.8,0c4.5,15-0.8,31-1.2,46.7c-0.4,15.7,8.2,34.6,23.9,34.7
		c15.7,0.1,24.6-18.7,24.4-34.5c-0.3-15.7-5.5-31.8-1-46.8c6.4-1.9,13.7-1.3,19.6,1.8c6.5,3.4,5.3,9.9,5.9,16.6
		c6.5,75.4-10.1,151.9-42.8,219.9c-34.6,72-86.9,134.8-147.9,186.5c-65,55.2-140.8,98.5-222.9,121.5c-96.1,27-197.3,25.6-297.3,21.5
		H75.7c-2.7,0-5.2-0.6-7.5-1.5c-3-0.4-5.8-1.2-7.8-3.3c-2.4-2.5-3.1-6.1-3.2-9.6c-0.4-1.5-0.7-3.1-0.7-4.7V1040.7z"/>
	<path class="st1" d="M1325.2,1040.7c0-10.6-8.6-19.2-19.2-19.2h-10.5c-21.3-0.7-42.7-0.4-64.1,0h-99.3c-23.9-1.3-47.7-4-71.2-9.5
		c-64.1-15-123.3-50.5-166.6-100c-43.3-49.6-70.6-112.9-76.9-178.5c-0.9-9.4-1.5-19.3-6.4-27.4c-4.9-8.1-15.8-13.4-24.1-8.8
		c-4.8,14.9,0.4,31,0.8,46.7c0.4,15.7-8.1,34.6-23.8,34.9c-15.8,0.2-24.8-18.7-24.5-34.5c0.3-15.8,5.7-31.9,1.3-47
		c-9,0.1-18,0.1-26.9,0.1c-4.5,15,0.9,31,1.3,46.7c0.4,15.7-8.2,34.6-23.8,34.7c-15.8,0.2-24.7-18.7-24.5-34.5
		c0.3-15.8,5.6-31.8,1.2-46.9c-8.9,0-17.9,0-26.8,0c-4.5,15,0.8,31,1.2,46.7c0.4,15.7-8.2,34.6-23.9,34.7
		c-15.7,0.1-24.6-18.7-24.4-34.5c0.3-15.7,5.5-31.8,1-46.8c-6.4-1.9-13.7-1.3-19.6,1.8c-6.5,3.4-5.3,9.9-5.9,16.6
		c-6.5,75.4,10.1,151.9,42.8,219.9c34.6,72,86.9,134.8,147.9,186.5c65,55.2,140.8,98.5,222.9,121.5c96.1,27,197.3,25.6,297.3,21.5
		h25.4c2.7,0,5.2-0.6,7.5-1.5c3-0.4,5.8-1.2,7.8-3.3c2.4-2.5,3.1-6.1,3.2-9.6c0.4-1.5,0.7-3.1,0.7-4.7V1040.7z"/>
	<path class="st1" d="M1137.2,884.6c-104.1,0.4-187.8-82-188.3-185.1c-0.5-103.4,82.7-187.6,185.8-188.2
		c104.1-0.6,188.9,81.6,190,184.2C1325.8,800.3,1242.6,884.2,1137.2,884.6"/>
	<path class="st1" d="M244.7,884.6C139,883.6,57.3,800,58.7,694C60,593.3,145,510.5,246.5,511.1c107.3,0.7,187.4,83.6,186.6,193.1
		C432.4,805.5,348.7,885.6,244.7,884.6"/>
	<g>
		<path class="st0" d="M700.8,322.4c-36.9,15.3-69.7,65.7-43.2,103.4c10.4,14.8,28.4,22.7,45.1,12.9c16-9.4,22.7-29.6,18.8-47.1
			c-3.7-16.3-17-30.7-29.3-41.3c-13-11.3-30.4-22.8-48.5-21.9c-16.5,0.8-29.9,15-31.7,31.1c-2.1,18.5,9.8,36.3,22.4,48.6
			c28.2,27.3,74.9,30.7,108.7,11.3c17.8-10.2,30.4-28.7,29.7-49.7c-0.8-22.7-15.8-42.6-33-56.2c-17-13.4-39-23.3-61.1-21
			c-19.7,2.1-35.7,14.5-46,31c-11.3,18.1-17.5,41-20.4,62c-2.7,19.7-1.8,42,12,57.7c27.9,31.8,85.7,12.1,114.6-8.1
			c38.2-26.7,46.8-78.7,27.4-119.5c-19.9-42-69.8-74.6-117.1-64.6c-41.8,8.8-68.5,48.9-81,87.1c-10.4,32-14.4,70-0.8,101.7
			c14.7,34.5,48.5,46.8,84,45.2c85.3-3.9,186.9-70.7,177.7-166.4C820.3,226,704.6,192,627.4,214.7c-43.7,12.9-82,42.6-104.2,82.6
			c-16.5,29.7-26.3,67.5-20,101.5c9.7,52.4,62.2,70.6,109.7,71.4c60.3,1,122.6-18.1,175-47.3c52.3-29.1,112.2-84.5,85.8-151.2
			c-16-40.4-58.5-65-99.2-74.4c-43.4-10-87.8-2.9-122.9,25.4c-34.5,27.9-55.6,70-67.4,112c-11.2,39.8-11.8,83.7,6.8,121.5
			c42,85.5,155.4,69.2,219.2,19.1c35.7-28.1,59-69.8,59.3-115.7c0.3-50.3-25-98.2-58.6-134.3c-30.7-32.9-76.2-65.8-123.2-65
			c-43.1,0.7-78.2,30.2-102.3,63.5c-23.8,32.8-40,72.1-45.9,112.2c-4.9,33.8-4.4,72.1,12.7,102.7c19.2,34.1,55.7,43.3,92.5,38.3
			c52.4-7.1,108.2-33.2,142-74.6c15.6-19,27.4-40.4,39.8-61.5c13.5-23,28.7-45.5,52.6-58.7c5.5-3.1,0.6-11.5-5-8.5
			c-39.7,22-56.4,66.3-80.3,102.4c-12.8,19.2-27.9,37-46.9,50.2c-21.4,14.8-46.1,26.1-70.9,33.7c-34.2,10.5-78.3,16.8-105.4-12.3
			c-21-22.5-25-56.7-23.8-86c1.3-33.4,10.3-66.1,25-96c16.9-34.3,41.7-68.4,76.8-85.7c39.2-19.4,80-5.7,114.3,17.3
			c38.1,25.4,69.9,63.2,86.1,106.2c15.5,41.1,14.4,86.3-8.8,124.3c-21.2,34.6-56.9,59-95.2,71.1c-37,11.7-80.4,14.4-113.6-9
			c-28.9-20.3-42.9-55.7-45.1-89.9c-2.5-39.2,9.4-79.5,27.6-114c17.8-33.9,45.1-64.4,82.3-76.8c67.8-22.8,190.3,22.1,172,110.3
			c-10.7,51.4-59.7,83.7-103.9,104.9c-46.7,22.5-100,37.4-152.2,36.3c-40-0.8-86-14-97.8-57.3c-7.6-27.9-1-60.2,10.2-86.2
			c16-37.3,46.2-67.3,82.9-84.2c38.1-17.6,82-19.8,122-7.9c35.8,10.6,70.8,34,84.4,70.1c14.6,38.7,1.5,82.7-24.2,113.6
			c-26.3,31.6-64.6,52.7-104.5,62c-31.8,7.4-73.2,10.5-97.2-16.1c-20.3-22.5-21.7-57-17-85.4c5.5-33.6,19.9-68.5,46.3-91
			c37.3-31.8,89.1-19,120.9,14.1c31,32.2,40.5,86.3,9.6,122.1c-12.6,14.6-31,23.7-49,29.4c-17.8,5.7-40.2,9.9-57.6,0.6
			c-19.2-10.3-21.6-34-19.6-53.5c2-19.4,7.7-40.7,17.1-57.9c9.1-16.6,24-29.8,43.6-30.9c21.3-1.1,42.5,10.2,57.7,24.4
			c17.3,16.1,30.3,40.7,18.6,63.9c-8.7,17.3-27.3,26.1-45.5,29.5c-35.7,6.6-75.9-7.5-89.1-44.1c-5.8-16.2,2.1-37.6,21.7-37.5
			c16.5,0,32.6,12.2,44.1,23c11.2,10.6,23.1,24.3,23.2,40.5c0.1,17.8-17,39.8-36.3,29c-18.9-10.7-21.7-35.7-15-54.2
			c7-19.3,22.8-36.7,41.9-44.6C709.2,329.5,706.7,320,700.8,322.4"/>
		<path class="st0" d="M705.5,356.5c13.4-32.2,2.5-83.6-37.2-90.5c-15.6-2.7-31.5,3.5-35.8,19.9c-4.1,15.6,4.2,32.2,17.5,40.7
			c12.3,7.8,29.5,8.4,43.5,7.4c15-1.1,32.9-4.7,43.5-16.4c9.7-10.7,9.2-27.7,0.4-38.8c-10.1-12.7-28.5-16.4-43.9-16.2
			c-34.2,0.6-65.2,27.3-74.1,60.1c-4.7,17.3-1.1,36.5,12.3,49c14.5,13.5,36,16.5,55.1,14.3c18.8-2.2,38.5-9.7,50.7-24.8
			c10.9-13.5,13.1-31,9.3-47.5c-4.2-18.2-14.5-36.1-25.7-50.8c-10.5-13.8-24.8-27-43-28.2c-36.8-2.4-60.3,45.4-65.7,75.7
			c-7.1,40,19.7,77.4,56.8,90.7c38.2,13.6,89.1,2.9,112.2-32.4c20.4-31.3,12.1-72.5-3.8-103.7c-13.3-26.2-34.3-52.1-62.2-63.3
			c-30.4-12.2-58.8,1-79.7,24c-50.2,55.1-71.7,159-7,212.4c62.7,51.7,155,1.2,188.6-60.4c19.1-34.9,24.3-76.9,13.4-115.3
			c-8.1-28.5-25.4-57.9-50.3-75c-38.3-26.4-82-5.2-111.8,23.6c-37.8,36.6-64.5,86.9-78.8,137.2c-14.3,50.2-17.1,121.4,40.4,146.3
			c34.8,15.1,76.3,4,107.1-15.3c33-20.6,56-52.4,60.2-91.5c4.1-38.5-8.9-77.5-27.5-110.7c-17.7-31.5-44.4-58.9-79.2-70.8
			c-78.7-26.8-138.6,53.2-147.1,123.5c-4.7,39.4,6.6,79.5,34.8,108c30.8,31.2,76.1,45.2,119.1,46.7c39.2,1.4,87.7-6.4,116.2-35.9
			c26.1-27,29.6-66.9,24-102.4c-5.6-35-19.8-69.2-40.9-97.6c-17.8-23.9-41.8-47.2-71.2-55.5c-32.9-9.3-61.1,7.7-80.7,33.4
			c-28,36.7-46.3,87.3-41.6,133.7c2.1,21.3,8,41.9,13.4,62.6c5.8,22.5,10.3,45.8,3.7,68.7c-1.5,5.3,6.8,7.5,8.3,2.2
			c11-38.1-6.2-75.7-13.6-112.7c-4-19.7-5.6-40-2-59.9c4-22.3,12.4-44.5,23-64.5c14.7-27.6,38-58.7,72.6-57.5
			c26.8,0.9,50.4,19.6,67.8,38.4c19.8,21.4,34.5,47.1,43.9,74.7c10.8,31.6,16.5,68,5.5,100.3c-12.2,36.1-45.9,52.9-81.2,59.9
			c-39.2,7.8-82.2,4.2-118.7-12.4c-34.9-15.8-62.2-44.4-71.3-82.1c-8.3-34.4-1.3-71.5,14.9-102.6c15.6-30.1,40.8-58.5,75.7-64.6
			c30.3-5.3,60.8,7.9,83.3,27.7c25.8,22.7,43.3,54.9,53.3,87.4c9.9,31.9,11.9,67.6-3.3,98.2c-27.8,55.9-131.1,103.8-174.2,38.1
			c-25.2-38.3-14.8-88.5-0.6-128.9c15-42.7,38.7-84.8,71.5-116.3c25.2-24.2,61.8-44.4,95.7-25c21.9,12.5,37.7,36.6,46.9,59.5
			c13.1,32.9,13.1,70,0.8,103.1c-12.7,34.4-38.4,62.8-70.5,80.2c-28.6,15.5-64.6,22.7-95.4,8.8c-32.9-14.9-52-50.1-55.2-85
			c-3.3-35.8,7.3-72.4,26.2-102.7c15.1-24.2,38.7-51.6,69.9-50c26.4,1.4,48.6,21.8,63.2,42.2c17.4,24.1,30,54.6,27.6,84.8
			c-3.4,42.6-43.3,66.7-83.4,65.9c-39-0.8-78.2-28.3-81.3-69.4c-1.2-16.7,4.5-33.7,12.1-48.4c7.4-14.5,18.7-31,35.1-35.9
			c18.2-5.5,34.4,7.7,45.1,20.9c10.7,13.2,20.4,29.9,25.2,46.2c4.6,15.9,3.6,33.2-7.9,46c-12.4,13.8-32.5,19.9-50.6,20.5
			c-20.6,0.7-43.8-6.4-50.9-27.9c-5.3-16,0.8-32.9,9.9-46.3c17.9-26.1,51.4-42.2,82.2-27.7c13.6,6.4,21.9,24.5,9.8,36.5
			c-10.2,10.2-27.7,12.6-41.4,13c-13.4,0.4-29.3-0.7-39.3-10.7c-11-10.9-14.1-35.1,4.5-40.3c18.3-5.1,35.4,8.6,42.8,24.2
			c7.6,16.2,8.5,36.7,1.6,53.4C696,357.3,703.4,361.6,705.5,356.5"/>
	</g>
</g>
</svg>
