<?xml version="1.0" encoding="utf-8"?>
<!-- Generator: Adobe Illustrator 25.3.0, SVG Export Plug-In . SVG Version: 6.00 Build 0)  -->
<svg version="1.1" xmlns="http://www.w3.org/2000/svg" xmlns:xlink="http://www.w3.org/1999/xlink" x="0px" y="0px"
	 viewBox="0 0 600 500" style="enable-background:new 0 0 600 500;" xml:space="preserve">
<style type="text/css">
	.st0{fill:#FFFFFF;}
	.st1{opacity:0.44;fill:#ACCBE1;}
	.st2{fill:#779986;}
	.st3{fill:#FEFEFE;}
	.st4{fill:#21261F;}
	.st5{fill:#AB4991;}
	.st6{fill:#81376D;}
	.st7{fill:#90D8D8;}
	.st8{fill:#DB633C;}
	.st9{fill:#C94E2B;}
	.st10{fill:#191D17;}
	.st11{fill:#D35934;}
	.st12{fill:#7D98B3;}
	.st13{fill:#ACCBE1;}
	.st14{fill:#455A64;}
	.st15{fill:#37474F;}
	.st16{fill:#D88500;}
	.st17{fill:#F58678;}
	.st18{fill:#AF4324;}
	.st19{font-family:'Gluten-Medium';}
	.st20{font-size:79.6204px;}
	.st21{fill:#7C2213;}
	.st22{fill:#FEBE86;}
	.st23{fill:#D79D70;}
	.st24{fill:#F2B37E;}
	.st25{fill:#C9C5BA;}
	.st26{fill:#A6A6A6;}
	.st27{fill:#E34854;}
	.st28{fill:#313A30;}
	.st29{fill:#2A3229;}
	.st30{fill:#6D1D11;}
	.st31{fill:#B98660;}
	.st32{fill:#263238;}
	.st33{fill:#C53E49;}
	.st34{fill:#FDA50C;}
	.st35{fill:#6A2C5A;}
</style>
<g id="BACKGROUND">
	<rect class="st0" width="600" height="500"/>
</g>
<g id="OBJECTS">
	<path class="st1" d="M300,38C149,38,26.1,158.7,26.1,307.1c0,45,11.6,89.6,33.4,128.9l72.6,0h264h144.4
		c21.9-39.3,33.5-83.9,33.5-128.9C573.9,158.7,451,38,300,38"/>
	<path class="st2" d="M300,417.8c-150.1,0-272.2,9.9-272.2,22.1c0,12.2,122.1,22.1,272.2,22.1c150.1,0,272.2-9.9,272.2-22.1
		C572.2,427.7,450.1,417.8,300,417.8"/>
	<g>
		<path class="st3" d="M379.8,78.3c-46.7,0-84.7,24-84.7,53.4c0,27,31.9,49.8,74.3,53c0.2,1.3,0.5,2.6,1,3.9c0.7,2,1.9,4,3.3,5.8
			c1.3,1.7,3,3.3,4.9,4.6c1.8,1.3,3.8,2.4,6,3.2c2.9,1.1,5.9,1.7,8.9,1.7c0.2,0,0.3,0,0.4-0.1c0.2-0.1,0.3-0.2,0.4-0.4
			c0.1-0.2,0.1-0.4,0-0.6c-0.1-0.2-0.2-0.3-0.4-0.4c-0.7-0.2-1.3-0.5-2-0.9c-0.9-0.5-1.8-1.2-2.6-1.9c-0.8-0.8-1.5-1.8-2.1-2.8
			c-0.7-1.2-1.2-2.6-1.6-4l0,0.2c-0.4-1.6-0.6-3.2-0.6-4.8c0-1.1,0.1-2.2,0.3-3.2c44.4-1.7,79.3-25.2,79.3-53.3
			C464.4,102.3,426.4,78.3,379.8,78.3"/>
		<path class="st4" d="M380.3,96.3c-4.5,0-8.6,1.2-11.9,3.4c-1.7,1.1-3.2,2.5-4.4,4.2c-0.7,1-1.3,2.2-1.8,3.5l-0.2,0
			c-2,0-4.1,0.2-6.1,0.7c-3.1,0.7-6.2,2-8.9,3.8c-0.1-0.3-0.3-0.6-0.5-0.9c-0.4-0.7-1-1.3-1.5-1.7c-0.6-0.5-1.3-0.9-2-1.2
			c-0.9-0.4-2-0.6-3.1-0.6c-0.4,0-0.7,0-1.1,0.1c-1.5,0.2-3.1,0.6-4.7,1.4c-1.4,0.7-2.9,1.6-4.3,2.8c-1.3,1.1-2.5,2.4-3.5,3.9
			c-1,1.4-1.8,3-2.2,4.6c-0.2,0.7-0.4,1.6-0.5,2.5c-0.1,0.8,0,1.6,0.1,2.5c0.2,1.6,0.9,3.3,2,4.7c0.6,0.9,1.4,1.7,2.3,2.4l-0.8,0.1
			c-0.4,0.1-0.9,0.1-1.3,0.2c-1.4,0.2-2.8,0.3-4,0.3c-1,0-1.9-0.1-2.8-0.2l-0.1,0c-0.2,0-0.3,0-0.5,0.1c-0.2,0.1-0.4,0.3-0.5,0.6
			c-0.1,0.3,0,0.5,0.1,0.8c0.1,0.2,0.4,0.4,0.6,0.5c1,0.1,2.1,0.2,3.2,0.2c0.8,0,1.6,0,2.5-0.1c1.9-0.2,3.8-0.5,5.8-0.9
			c0.2,0.1,0.3,0.2,0.5,0.3c1,0.6,2.2,1.2,3.7,1.8c1.1,0.5,2.3,0.8,3.5,1.1c0.6,2.2,1.4,4.4,2.6,6.8c1.3,2.6,2.9,5.1,4.9,7.7
			c1,1.3,2,2.4,3.1,3.4c1,1,2.2,1.9,3.5,2.8c1.4,0.9,2.9,1.7,4.4,2.3c0.5,1.4,1.3,2.7,2.2,3.9c0.9,1.3,2.1,2.5,3.4,3.7
			c2.7,2.4,5.6,4,8.6,5c1.3,0.4,2.7,0.7,4.2,0.8c0.3,0,0.6,0,0.9,0c1,0,2-0.1,3.1-0.3c2.4-0.4,4.9-1.5,7.2-3.1
			c1.7-1.2,3.2-2.7,4.6-4.4c0.7,0.2,1.4,0.4,2.2,0.6c2.7,0.6,5.7,1,8.7,1c1.7,0,3.4-0.1,5.1-0.3c4.7-0.5,9.3-1.8,13.7-3.7
			c4.3-1.9,8.1-4.5,11.2-7.6c3.2-3.2,5.5-7,6.8-11c0.7-2.2,1-4.5,1-6.8c0-2.8-0.5-5.5-1.6-8.1c-1-2.3-2.4-4.4-4.3-6.4
			c-1.7-1.8-3.8-3.4-6.3-4.9c-2.2-1.3-4.8-2.4-7.5-3.3c-2.4-0.8-5.2-1.4-8.1-1.7c-0.7-0.1-1.5-0.1-2.2-0.2c-1.2-0.2-2.4-0.3-3.7-0.3
			c0-0.1-0.1-0.3-0.2-0.5c-1.2-2.9-2.9-5.5-5.1-7.8c1.2-0.8,2.6-1.5,4.1-2.2l0.2-0.1c2.5-1,5.2-1.8,7.9-2.1c1.2-0.1,2.3-0.2,3.5-0.2
			c1,0,1.9,0.1,2.9,0.2c1.6,0.2,3.1,0.6,4.4,1.2c1,0.5,2,1,2.9,1.7c0.6,0.5,1.2,1,1.7,1.6c0.2,0.2,0.4,0.3,0.7,0.3
			c0.3,0,0.5-0.1,0.7-0.3c0.4-0.4,0.4-1,0-1.4c-0.9-1-1.9-1.8-3.1-2.6c-1-0.7-2.2-1.2-3.6-1.7c-1.2-0.4-2.4-0.7-4-0.8
			c-0.8-0.1-1.7-0.1-2.6-0.1c-0.5,0-1,0-1.5,0c-2.7,0.1-5.6,0.7-8.4,1.7c-2.7,0.9-5.1,2.1-7.3,3.6c-1.5-1.4-3.3-2.6-5.3-3.6
			c-2.6-1.3-5.4-2.2-8.3-2.7C383.4,96.5,381.8,96.3,380.3,96.3 M364.3,107.5C364.3,107.5,364.4,107.4,364.3,107.5L364.3,107.5
			c0.5-1.1,1.1-2,1.7-2.8c0.8-1,1.7-1.9,2.7-2.7c1.1-0.8,2.3-1.5,3.6-2.1c1.6-0.6,3.2-1.1,5-1.3c1-0.1,2-0.2,3-0.2
			c1.1,0,2.2,0.1,3.3,0.2c2.4,0.3,4.8,1,7.1,1.9l0.1,0c2.1,0.9,3.9,2,5.5,3.2c0.2,0.2,0.5,0.4,0.7,0.6c-0.4,0.3-0.9,0.7-1.4,1.1
			c-1.2,1.1-2.4,2.5-3.5,4c-0.9,1.3-1.7,2.7-2.3,4.3c-0.2,0.5-0.4,1.1-0.5,1.6c-0.5,0.2-1,0.4-1.5,0.7c-1.6,0.5-3.1,1-4.6,1.6
			c-0.1-0.2-0.3-0.5-0.5-0.7c-2-2.6-4.6-4.7-7.8-6.4c-2.9-1.5-6-2.5-9.4-3C365.1,107.6,364.7,107.5,364.3,107.5 M391.7,114.6
			c0-0.1,0.1-0.2,0.1-0.2l0.1-0.3c0.6-1.4,1.5-2.8,2.5-4.2c1.3-1.6,2.6-3,4.1-4.1c0.6,0.6,1.3,1.3,1.9,2.1l0.1,0.1l0,0.1
			c1.1,1.5,2.1,3.2,2.8,4.9c-0.1,0-0.1,0-0.2,0c-2.1,0-4.3,0.2-6.5,0.5C395,113.7,393.3,114.1,391.7,114.6 M326.4,119.4L326.4,119.4
			c0.5-1.2,1.2-2.3,2-3.4c0.9-1.2,2.1-2.3,3.3-3.3c1.2-0.9,2.5-1.7,3.8-2.3l0.1-0.1c1.1-0.4,2-0.7,3-0.8c0.4,0,0.7-0.1,1.1-0.1
			c0.3,0,0.6,0,0.9,0.1c0.5,0.1,1,0.2,1.6,0.4c0.4,0.2,0.8,0.4,1.2,0.7c0.4,0.3,0.7,0.6,1,1.1c0.3,0.4,0.6,0.9,0.8,1.4
			c-2.1,1.6-3.9,3.5-5.3,5.7c-1.5,2.3-2.6,5.1-3,8.1c-0.1,0.9-0.2,1.8-0.2,2.6l-0.4,0.2c-0.3,0.1-0.6,0.3-0.9,0.4
			c-1.7,0.7-3.4,1.3-5.2,1.7l-0.3-0.2l-0.4-0.3c-0.9-0.7-1.6-1.4-2.3-2.2c-0.5-0.7-0.9-1.4-1.2-2.1c-0.3-0.7-0.5-1.4-0.6-2.2
			c-0.1-0.8-0.1-1.6,0-2.5C325.8,121.3,326,120.3,326.4,119.4L326.4,119.4z M358.4,109.6C358.4,109.6,358.4,109.6,358.4,109.6
			c1-0.1,2.1-0.2,3.3-0.2l-0.1,0.1l0,0.2c-0.4,2.3-0.5,4.6-0.5,6.8c0,1.7,0,3.6-0.3,5.4c-0.2,1.5-0.6,2.9-1.1,4.1
			c-0.5,1-1.1,2-1.7,3c-0.8,1-1.7,1.9-2.7,2.7c-1.2,0.9-2.6,1.7-4.1,2.3c-1.7,0.7-3.6,1.2-5.4,1.4c-1,0.1-2,0.2-3,0.2
			c-1,0-2-0.1-2.9-0.2c-0.2,0-0.3,0-0.5-0.1c-0.1-0.7-0.2-1.4-0.3-2c-0.1-0.9-0.2-1.8-0.2-2.7c1.6-0.8,3.1-1.8,4.5-2.9
			c1.7-1.4,3-3,3.9-4.7c1-1.9,1.4-3.9,1.2-6c-0.1-1.1-0.3-2.2-0.7-3.3c1.3-0.9,2.8-1.6,4.2-2.3l0.1,0
			C354.2,110.5,356.3,110,358.4,109.6C358.4,109.6,358.4,109.6,358.4,109.6C358.4,109.6,358.4,109.6,358.4,109.6 M342.7,137.6
			c1.3,0,2.6-0.1,4-0.3c2.8-0.4,5.6-1.4,7.9-2.8c2.5-1.4,4.5-3.4,6-5.8c0.7-1.2,1.3-2.5,1.7-4c0.5-1.6,0.6-3.3,0.7-4.6
			c0.1-1.2,0.1-2.5,0.1-3.6l0-0.1c0-1.8,0-3.6,0.3-5.4c0.1-0.6,0.2-1.1,0.3-1.6l0.1,0l0.1,0c0.5,0,0.9,0.1,1.4,0.1
			c2.2,0.3,4.4,0.9,6.5,1.8l0.1,0c2,0.9,3.8,2,5.4,3.2c1.4,1.1,2.6,2.3,3.6,3.6l0.3,0.4c-2,0.8-4.1,1.8-6.1,3
			c-2.8,1.6-5.4,3.5-7.8,5.6c-2.4,2.1-4.5,4.4-6.3,7c-1.8,2.5-3.2,5.2-4.4,8.2c-1.1,2.9-1.7,5.9-1.9,8.9c-0.1,2.1,0.1,4.3,0.7,6.3
			c-1.4-0.8-2.6-1.6-3.8-2.5c-1-0.8-1.9-1.6-2.7-2.5c-0.8-0.8-1.6-1.7-2.5-2.9c-2.2-2.9-4-5.9-5.3-9.1l0,0.1
			c-0.4-1.3-0.8-2.4-1.1-3.3C340.8,137.5,341.7,137.6,342.7,137.6 M338.9,128.3l0-0.4l0.1-0.7c0.2-1.6,0.7-3.2,1.3-4.7
			c0.6-1.4,1.4-2.8,2.4-4.1c1-1.3,2.2-2.4,3.5-3.5c0.1,0.6,0.2,1.2,0.3,1.6c0.1,0.8,0.1,1.7,0,2.5c-0.1,0.8-0.3,1.6-0.6,2.4
			c-0.4,0.8-0.9,1.6-1.4,2.4c-0.8,1-1.7,1.9-2.9,2.8C340.7,127.2,339.8,127.8,338.9,128.3 M407.2,153.5c-0.9,0-1.8-0.1-2.7-0.2
			c-1.6-0.2-3.2-0.7-4.7-1.3c-1.2-0.5-2.4-1.2-3.5-2c0-0.7,0.1-1.4,0-2.1c2.7-2.8,5-5.9,6.7-9.3c3-5.7,4.4-11.8,4.2-17.6
			c-0.1-2-0.4-4.1-1-6l0.3,0c0.9,0,1.7,0,2.5,0.1c2.7,0.4,5.3,1.1,7.7,2.1c1.8,0.8,3.5,1.7,4.9,2.8c1.2,0.9,2.3,2,3.2,3.1
			c0.8,1.1,1.5,2.3,2.1,3.5c0.6,1.3,0.9,2.8,1.2,4.3c0.2,1.8,0.2,3.6,0,5.3c-0.2,1.6-0.7,3.2-1.3,4.8c-0.6,1.4-1.4,2.8-2.4,4.1
			c-1,1.3-2.3,2.5-3.6,3.6c-1.5,1.2-3.3,2.2-5.2,3c-1.8,0.7-3.7,1.2-5.7,1.5C409.1,153.5,408.2,153.5,407.2,153.5 M396.2,145.2
			c-0.3-2.6-1-5.1-1.7-7.3c-0.3-1.1-0.6-2.2-1-3.3l-0.1-0.3l-0.1-0.3l0-0.2c-0.5-1.6-1-3.3-1.5-5c-0.5-1.8-0.8-3.3-1-4.8
			c-0.3-2-0.3-3.9-0.1-5.6c0.1-0.4,0.1-0.7,0.2-1.1c2.7-0.7,5.4-1.2,8.1-1.6c1.8-0.2,3.5-0.4,5.2-0.5c0.4,1.3,0.6,2.5,0.8,3.8
			c0.3,2.4,0.3,4.8,0,7.3c-0.4,2.9-1.2,5.8-2.4,8.7c-1.3,3-2.9,5.7-4.9,8.3l0.2-0.1l-0.4,0.5C397,144.2,396.6,144.7,396.2,145.2
			 M393.2,147L393.2,147c-1-1.4-1.8-2.7-2.5-4.3c-1.3-3.1-2-6.2-2.5-9c-0.1-0.7-0.3-1.4-0.4-2.1c-0.4-2.2-0.8-4.4-1.4-6.6
			c-0.5-1.7-1.1-3.3-1.8-4.8c1.1-0.8,2.4-1.6,3.7-2.2c0.1,0,0.3-0.1,0.4-0.1c-0.1,0.1-0.1,0.2-0.1,0.3c-0.3,2.6-0.1,5.4,0.6,8.8
			c0.6,2.7,1.5,5.6,2.1,7.7l0.4,1.3c0.4,1.2,0.9,2.9,1.3,4.7c0.4,1.4,0.8,3,1,4.7c0.1,0.6,0.1,1.2,0.2,1.8l-0.3,0.2l-0.3,0.3
			c-0.1-0.1-0.2-0.3-0.3-0.4L393.2,147L393.2,147z M407.3,155.6c4,0,8.1-1.1,11.7-3.1c3.8-2.1,6.9-5.2,8.8-8.8c1-1.9,1.8-4,2.1-6.2
			c0.4-2.4,0.4-4.8,0-7.3c-0.4-2.2-1.2-4.4-2.4-6.4c-1.1-1.8-2.5-3.4-4.3-4.9c-0.2-0.2-0.4-0.3-0.6-0.5c2.5,1.2,4.6,2.5,6.4,3.9
			c1.6,1.2,2.9,2.6,4.1,4.1c1,1.3,1.8,2.7,2.4,4.1c0.6,1.5,1,3.1,1.3,4.7c0.2,1.8,0.2,3.6,0,5.5c0.1,0,0.1-0.1,0.1-0.1
			c-0.3,1.9-0.9,3.8-1.6,5.5l0,0.1c-0.8,1.8-1.9,3.6-3.1,5.2l-0.1,0.1c-1.4,1.8-3.2,3.6-5.2,5.2l-0.1,0.1l-0.1,0.1l0.2,0
			c-2.6,1.9-5.5,3.6-8.6,4.9c-3.5,1.5-7.3,2.5-11.2,3c-1.9,0.2-3.8,0.4-5.7,0.4c-1.8,0-3.5-0.1-5.1-0.3c-1.5-0.2-3.1-0.5-4.6-0.9
			c1.5-2.2,2.7-4.8,3.5-7.6c0.4-1.2,0.6-2.6,0.8-3.9c3,2.1,6.8,3.2,10.9,3.2C407.1,155.6,407.2,155.6,407.3,155.6 M366.5,159.9
			c-1.2,0-2.4-0.1-3.5-0.2c-1.7-0.2-3.4-0.7-5-1.2c-0.4-1.2-0.7-2.5-0.9-3.7c-0.2-1.8-0.2-3.7,0-5.6c0.3-2.4,1-4.8,2.1-7.3
			c1.2-2.7,2.7-5.3,4.5-7.7c2.1-2.6,4.5-5.1,7.4-7.3c3-2.3,6.5-4.4,10.2-6.1c-0.9,0.8-1.9,1.9-2.8,3.1c-1.6,2.1-3,4.6-4,7.4
			c-2.1,5.3-2.6,11.2-1.5,16.5c0.6,2.7,1.7,5.3,3.2,7.6c0.6,0.9,1.2,1.7,1.9,2.5c-2.6,0.9-5.2,1.5-7.6,1.8
			C369.1,159.9,367.7,159.9,366.5,159.9 M379.9,157c-0.5-0.6-1-1.1-1.4-1.6c-1-1.3-1.8-2.7-2.5-4.2c-0.7-1.8-1.3-3.7-1.5-5.7
			c-0.3-2.2-0.3-4.6,0-6.9c0.4-2.5,1-5,2-7.4c1-2.3,2.2-4.4,3.7-6.3c0.9-1.1,1.9-2.2,2.9-3.2c0.1,0.2,0.2,0.5,0.3,0.7l0.1,0.2l0-0.1
			c1.1,2.8,1.6,5.8,2.1,8.3l0.2,1.2l0,0.1c0.4,2.4,0.9,5.2,1.7,7.7c0.8,3,1.9,5.4,3.3,7.4c0.5,0.7,1,1.4,1.5,2
			c-1.1,0.9-1.9,1.5-2.6,2.1C386.7,153.6,383.4,155.5,379.9,157 M337.3,134.9L337.3,134.9c-0.9-0.3-1.8-0.6-2.9-1
			c-0.6-0.3-1.1-0.5-1.6-0.8c1.3-0.3,2.7-0.8,4.2-1.5C337,132.6,337.1,133.7,337.3,134.9 M382.5,159.4L382.5,159.4
			c-0.4-0.3-0.7-0.6-1-0.9c3.5-1.5,7-3.6,10.3-6.3c0.7-0.5,1.3-1.1,2-1.7c0.1,0.2,0.3,0.3,0.5,0.5l0,0.1l0,0.1
			c0,0.3-0.1,0.5-0.1,0.8c-0.3,2.3-0.9,4.5-1.8,6.7c-0.7,1.6-1.5,3.1-2.5,4.5l-0.4-0.2c-0.4-0.2-0.8-0.3-1.2-0.5
			C386.1,161.7,384.2,160.6,382.5,159.4C382.5,159.4,382.5,159.4,382.5,159.4L382.5,159.4L382.5,159.4
			C382.5,159.4,382.5,159.4,382.5,159.4 M366.4,162c3.2,0,6.5-0.5,9.9-1.5c1-0.3,2.1-0.7,3.2-1.1c0.4,0.4,0.9,0.8,1.4,1.2
			c2.2,1.8,4.8,3.2,7.7,4.3c-1,1.1-2.1,2.1-3.2,3c-1.3,0.9-2.6,1.7-4,2.3c-1.2,0.5-2.5,0.8-3.7,1c-0.6,0.1-1.3,0.1-2,0.1
			c-0.7,0-1.4,0-2-0.1c-1.4-0.2-2.9-0.6-4.3-1.2c-1.7-0.7-3.4-1.7-5-3c-1.5-1.2-2.7-2.4-3.8-3.7c-0.6-0.8-1.1-1.6-1.6-2.5
			c0.2,0.1,0.4,0.2,0.6,0.2C361.8,161.7,364.1,162,366.4,162"/>
	</g>
	<g>
		<path class="st4" d="M89.8,440.5h4.9c10.2-37.4,20.4-74.9,30.5-112.3c-6.4-1.3-12.9-2.6-19.3-3.9C100.5,363,95.1,401.8,89.8,440.5
			"/>
		<path class="st4" d="M122.4,431.5h4.9c10.2-37.4,20.4-74.9,30.5-112.3c-6.4-1.3-12.9-2.6-19.3-3.9
			C133.1,354,127.8,392.8,122.4,431.5"/>
		<path class="st4" d="M223.6,438.8h-4.9c-10.2-34.8-20.4-69.7-30.5-104.5c6.4-1.2,12.9-2.4,19.3-3.7
			C212.9,366.7,218.3,402.7,223.6,438.8"/>
		<path class="st4" d="M191,429.8h-4.9c-10.2-37.4-20.4-74.9-30.5-112.3c6.4-1.3,12.9-2.6,19.3-3.9C180.3,352.2,185.6,391,191,429.8
			"/>
		<path class="st5" d="M146.8,198h-44.4H85.5c-1.4,0.4-2.8,0.8-4.2,1.2c-2.3,0.8-4.5,1.6-6.8,2.5c-4.4,1.7-8.7,3.6-12.8,5.7
			c-1.3,0.7-2.6,1.3-3.8,2.1c2.2,17.3,4.6,35.5,7.3,55.5c2.4,17.6,4.9,35.9,7.5,54.4l1.1,7.9c0.6,4,1.1,8.1,1.7,12.1l0.2,1.4
			c0.3,2.1,0.6,4.3,0.9,6.4c0,0.2,0.1,0.4,0.1,0.6c0.3,1.6,0.5,3.3,0.7,4.9c0,0.1,0,0.2,0,0.3c0,0,0,0,0,0.1c0,0,0,0,0,0
			c0.1,0.4,0.1,0.8,0.2,1.2c0.1,0.1,0.2,0.1,0.4,0.1c3,0,6,0,9,0.1c1.7,0,3.3,0,5,0c4.7,0,9.3,0.1,14,0.1c9.8,0,19.7,0,29.5,0
			c19.8,0,39.5,0,59.3,0h46.5h1.8c0.2,0,0.4-0.1,0.5-0.2c0.1,0,0.1-0.1,0.2-0.1c0.8-0.9,1.4-1.9,1.9-2.9c0.4-0.9,0.8-1.9,1.2-3
			c0.6-2.1,0.9-4.4,1-6.8c0-2.4-0.3-4.7-0.9-6.9c-0.6-2.2-1.6-4.1-2.8-5.7l-0.2-0.2c-0.1-0.1-0.2-0.2-0.3-0.2
			c-0.1,0-0.2-0.1-0.3-0.1h-32.6h-10.4l-1.8-12.6l-1.8-12.6l-3-21.4l-3-21.4c-1.5-10.5-3-21-4.5-31.5l-2.1-14.6l-1.1-7.8l-1.1-7.7
			c0.2-0.1,0.3-0.3,0.3-0.5c0-0.3-0.2-0.5-0.5-0.5H146.8z M158.8,199l22.1,0l0,0L158.8,199z"/>
		<path class="st6" d="M146.8,198h-44.4H85.6c0,0-0.1,0-0.1,0c0.8,7.5,1.6,15,2.4,22.5c2.1,19,4.1,38,6.2,57.1c2,18.3,4,36.7,6,55
			h52.1h75.4h18.6c-0.6-1.3-1.3-2.5-2.1-3.6l-0.2-0.2c-0.1-0.1-0.2-0.2-0.4-0.2c-0.1-0.1-0.2-0.1-0.3-0.1h-32.6h-10.4l-1.8-12.6
			l-1.8-12.6l-3-21.4l-3-21.4l-3-21l-1.5-10.5l-2.1-14.6l-1.1-7.8l-1.1-7.7c0.2,0,0.3-0.3,0.3-0.5c0-0.3-0.2-0.5-0.5-0.5H146.8z"/>
	</g>
	<g>
		<g>
			<path class="st7" d="M73.5,259.5c-0.5,0.2-1.1,0.6-1.7,1c-0.7,0.5-1.4,1.1-1.8,1.5c-0.5,0.5-1.1,1.1-1.8,1.8
				c0.2-0.7,0.3-1.4,0.3-2c0-0.3,0-0.6-0.1-0.9c-0.1-0.3-0.2-0.5-0.5-0.8c-0.2-0.2-0.4-0.3-0.7-0.3c-0.1,0-0.2,0-0.3,0
				c-0.3,0-0.6,0.1-0.8,0.1c-0.4,0.1-0.8,0.3-1.2,0.6c-0.4,0.3-0.8,0.6-1.2,1c0,0-0.1,0.1-0.2,0.1c3.2,8.5,6.4,17.1,9.6,25.6
				c0.3-0.3,0.6-0.6,0.9-0.9c0.8-0.9,1.6-1.8,2.4-3.1c0.7-1,1.3-2.1,2-3.4c1.2-2.3,2.2-4.7,3.2-6.9l0.1-0.2c0.2-0.5,0.5-1,0.7-1.5
				c0.2-0.4,0.4-0.9,0.6-1.3c0.3-0.6,0.5-1.1,0.6-1.7c0.1-0.4,0.3-1,0.2-1.6c0-0.2,0-0.3-0.1-0.5c0-0.1-0.1-0.2-0.2-0.4
				c-0.1-0.2-0.2-0.3-0.3-0.4c-0.1-0.1-0.2-0.2-0.3-0.3c-0.1-0.1-0.2-0.1-0.4-0.1c-0.1,0-0.2,0-0.3,0H82c-0.1,0-0.2,0-0.3,0
				c-0.3,0.1-0.5,0.2-0.7,0.3c0.1-0.2,0.1-0.3,0.2-0.5c0.3-0.8,0.4-1.5,0.4-2.1c0-0.3,0-0.6-0.1-0.8c-0.1-0.3-0.3-0.5-0.5-0.7
				c-0.2-0.2-0.5-0.3-0.8-0.4c-0.1,0-0.3-0.1-0.5-0.1c-0.1,0-0.2,0-0.2,0c-0.1,0-0.2,0-0.3,0c-0.5,0-1,0.2-1.7,0.6
				c-0.3,0.1-0.6,0.3-1,0.6c0.2-0.4,0.3-0.8,0.3-1.2c0-0.5-0.1-0.9-0.3-1.2c-0.1-0.1-0.2-0.2-0.3-0.2c-0.1-0.1-0.2-0.1-0.3-0.1
				c-0.2-0.1-0.5-0.1-0.7-0.2c0,0-0.1,0-0.1,0C74.5,259.2,74,259.3,73.5,259.5"/>
			<path class="st8" d="M73.5,259.5c-0.5,0.2-1.1,0.6-1.7,1c-0.7,0.5-1.4,1.1-1.8,1.5c-0.4,0.4-0.9,0.9-1.5,1.5
				c-0.1,0.1-0.2,0.3-0.4,0.4c0,0,0,0,0,0c0,0,0,0,0,0c0.2-0.7,0.3-1.4,0.3-2c0-0.3,0-0.6-0.1-0.9c-0.1-0.3-0.2-0.5-0.5-0.8
				c-0.2-0.2-0.4-0.3-0.7-0.3c-0.1,0-0.2,0-0.3,0c-0.3,0-0.6,0.1-0.8,0.1c-0.4,0.1-0.8,0.3-1.2,0.6c-0.4,0.3-0.8,0.6-1.2,1
				c0,0-0.1,0.1-0.1,0.1c-0.5,0.6-1,1.3-1.6,2.2c-0.5,0.8-0.9,1.8-1.3,3c-0.3,1-0.6,2-0.9,3.1c-0.2,1-0.4,2-0.5,2.9
				c-0.1,0.8-0.1,1.6-0.1,2.3c0.1,1.5,0.4,3.2,0.9,5c0.5,1.8,1.2,3.4,2.1,4.9c0.4,0.7,0.9,1.4,1.4,2c0.6,0.6,1.1,1.1,1.7,1.5
				c0.6,0.4,1.3,0.7,2,0.9c0.3,0.1,0.7,0.1,1.1,0.1c0.3,0,0.7,0,1-0.1c1.5-0.3,2.8-1.2,3.8-2.1l0,0c0.3-0.3,0.6-0.6,0.9-0.9
				c0.8-0.9,1.6-1.8,2.4-3.1c0.7-1,1.3-2.1,2-3.4c1.2-2.3,2.2-4.7,3.2-6.9l0.1-0.2c0.2-0.5,0.5-1,0.7-1.5c0.2-0.4,0.4-0.9,0.6-1.3
				c0.3-0.6,0.5-1.1,0.6-1.7c0.1-0.4,0.3-1,0.2-1.6c0-0.2,0-0.3-0.1-0.5c0-0.1-0.1-0.2-0.2-0.4c-0.1-0.2-0.2-0.3-0.3-0.4
				c-0.1-0.1-0.2-0.2-0.3-0.3c-0.1-0.1-0.2-0.1-0.4-0.1c-0.1,0-0.2,0-0.3,0H82c-0.1,0-0.2,0-0.3,0c-0.2,0.1-0.4,0.1-0.6,0.2
				c0,0-0.1,0-0.1,0.1c0,0,0,0,0,0c0,0,0,0,0,0c0.1-0.2,0.1-0.3,0.2-0.5c0.3-0.8,0.4-1.5,0.4-2.1c0-0.3,0-0.6-0.1-0.8
				c-0.1-0.3-0.3-0.5-0.5-0.7c-0.2-0.2-0.5-0.3-0.8-0.4c-0.1,0-0.3-0.1-0.5-0.1c-0.1,0-0.2,0-0.2,0c-0.1,0-0.2,0-0.3,0
				c-0.5,0-1,0.2-1.7,0.6c-0.2,0.1-0.5,0.3-0.8,0.5c-0.1,0-0.1,0.1-0.2,0.1c0,0,0,0,0,0c0,0,0,0,0,0c0.2-0.4,0.3-0.8,0.3-1.2
				c0-0.5-0.1-0.9-0.3-1.2c-0.1-0.1-0.2-0.2-0.3-0.2c-0.1-0.1-0.2-0.1-0.3-0.1c-0.2-0.1-0.5-0.1-0.7-0.2c0,0-0.1,0-0.1,0
				C74.5,259.2,74,259.3,73.5,259.5"/>
			<path class="st9" d="M80.3,265.9c-1.4,1.8-2.8,3.5-4,5.4c-1.2,1.9-2.3,3.8-3.1,5.9c-0.1,0.2,0,0.4,0.2,0.5c0.2,0.1,0.4,0,0.5-0.2
				c0.4-1.1,0.9-2.2,1.5-3.3c0.5-1.1,1.1-2.1,1.8-3.1c0,0,0,0,0,0c1.1-1.7,2.3-3.3,3.5-4.9c0.1-0.1,0.1-0.3,0-0.3
				c0,0-0.1-0.1-0.2-0.1C80.4,265.8,80.3,265.8,80.3,265.9 M77.1,271.1C77.1,271.1,77.1,271.1,77.1,271.1
				C77.1,271.1,77.1,271.1,77.1,271.1 M77.1,271.1C77.2,271.1,77.2,271.1,77.1,271.1C77.2,271.1,77.2,271.1,77.1,271.1"/>
			<path class="st9" d="M75.9,262.4c-1.4,1.6-2.7,3.3-3.9,5.1c-0.6,0.8-1.1,1.7-1.6,2.6c-0.5,1-1,1.9-1.3,3c0,0.1,0,0.2,0,0.3
				c0,0.1,0.1,0.2,0.2,0.2c0.2,0.1,0.4,0,0.5-0.2c0.4-1.1,0.9-2.1,1.4-3.1c0.5-1,1.1-2.1,1.7-3c0,0,0,0,0,0c1-1.6,2.1-3.1,3.4-4.5
				c0.1-0.1,0.1-0.3,0-0.3c0,0-0.1-0.1-0.2-0.1C76,262.4,76,262.4,75.9,262.4 M72.9,267.3C72.9,267.3,72.9,267.3,72.9,267.3
				C72.9,267.3,72.9,267.3,72.9,267.3"/>
			<path class="st9" d="M67.8,264.2c-0.4,0.4-0.7,0.9-1,1.3c-0.3,0.4-0.6,0.9-0.9,1.3c-0.6,1-1,2-1.5,3c-0.1,0.1,0,0.3,0.1,0.3
				c0.1,0.1,0.3,0,0.3-0.1c0.4-1.2,1-2.4,1.7-3.5c0,0,0,0,0,0c0.5-0.7,1-1.4,1.6-2.1c0.1-0.1,0.1-0.3,0-0.3c0,0-0.1-0.1-0.2-0.1
				C67.9,264.1,67.8,264.2,67.8,264.2"/>
		</g>
		<g>
			<path class="st4" d="M154.6,67.6c-2.7,0.3-5.5,0.8-8.4,1.4c-3.7,0.8-6.9,1.8-9.7,3c-1.8,0.7-3.5,1.5-4.9,2.4c-1.7,1-3.1,2-4.2,3
				c-1.7,1.6-2.9,3.3-3.5,5.2c-0.3,0.8-0.4,1.7-0.5,2.6c-0.9,0.1-1.8,0.3-2.7,0.6c-1.8,0.7-3.5,2-4.9,3.8c-1.3,1.6-2.3,3.5-3.2,5.8
				c-0.7,2-1.2,4.2-1.4,6.4c0,0.5-0.1,1-0.1,1.5l0,0.2c0,0.8-0.1,1.6-0.1,2.4c-0.1,1.5-0.2,2.9-0.3,4.3c-0.2,1.7-0.4,3.2-0.8,4.6
				c-0.3,1.5-0.8,3.1-1.4,4.6l0.1-0.1c-0.4,1.1-0.9,2.1-1.5,3.1c-0.6,1.1-1.3,2.1-2.1,3.1c-0.9,1.2-1.9,2.3-3,3.4
				c-1,1.1-2.1,2.2-3.2,3.3l-0.3,0.3c-2,2-4,4.1-5.8,6.2c-2.1,2.5-3.8,4.9-5.1,7.4c-0.6,1.2-1.2,2.5-1.8,4c-0.5,1.2-0.9,2.5-1.3,3.9
				c-0.7,2.6-1.1,5.3-1.3,8.1c-0.1,2.6,0,5.4,0.5,8.1c0.4,2.7,1.2,5.2,2.3,7.7c0.5,1.2,1.2,2.4,1.9,3.6c0.7,1.1,1.4,2.2,2.3,3.3
				c2.5,3.1,5.6,5.8,9.5,8c1.8,1.1,3.8,2,5.9,2.8c1.4,0.5,2.8,0.9,4.2,1.2l9.7-3.6c0,0,0,0,0,0l0,0l1.8,4.9c2.2,0,4.3,0.1,6.5,0.1
				c0.6,0,1.3,0,1.9,0c6.9-0.1,12.5-0.5,17.8-1.3c3-0.5,6.1-1.1,9.1-1.9c1.6-0.4,3.3-0.9,4.9-1.4c4.1-1.2,7.7-2.5,11.2-3.9
				c4.3-1.7,8-3.6,11.3-5.6c3.8-2.3,6.8-4.8,9-7.5c1.2-1.4,2.2-3,2.9-4.5c0.8-1.8,1.3-3.7,1.5-5.6c0.1-0.9,0.1-1.9,0-3
				c-0.1-0.9-0.3-1.8-0.6-2.8c-0.6-2-1.5-3.9-2.2-5.3c-0.6-1.1-1.2-2.2-1.8-3.3c-1.5-2.8-3.1-5.6-4-8.8c-0.4-1.5-0.6-3-0.6-4.4
				c0-1.4,0.2-2.8,0.6-4.3l-0.1,0.1c0.6-2,1.4-4,2.2-5.6c0.6-1.3,1.3-2.6,1.9-3.9c0.3-0.7,0.7-1.4,1-2c0.9-1.8,1.8-3.9,2.6-6.1
				c0.8-2.2,1.3-4.2,1.4-6c0.2-1.7,0-3.3-0.4-4.7c-0.2-0.6-0.4-1.2-0.6-1.7c0.8-0.8,1.4-1.5,2-2.3c0.6-0.8,1.1-1.7,1.6-2.7
				c0.4-0.8,0.7-1.7,1-2.7c0.4-1.7,0.5-3.6,0.3-5.5c-0.2-1.7-0.8-3.5-1.7-5.3c-1.6-3.3-4.2-6.5-7.7-9.4c-1.6-1.3-3.4-2.5-5.3-3.6
				c-1.8-1-3.7-1.9-5.7-2.6c-1.4-0.5-2.7-0.8-4-1.2c-1.5-0.4-3-0.7-4.6-1c-3-0.5-6.1-0.9-9.2-1c-0.7,0-1.5,0-2.2,0
				C159.3,67.2,156.9,67.4,154.6,67.6"/>
			<path class="st10" d="M162.2,85.9c-2.5,0-4.9,0.2-7.4,0.4c-0.6,0.1-1.2,0.1-1.8,0.2c-0.4,0-0.8,0.1-1.3,0.1
				c-0.8,0.1-1.5,0.1-2.3,0.2c-1.7,0.1-3.5,0.3-5.2,0.5c0,0,0,0,0.1,0c-2.6,0.3-5.1,0.8-7.5,1.8l0.1,0c-0.5,0.2-1.1,0.5-1.6,0.8
				c-0.4,0.3-0.9,0.5-1.3,0.8h0l0,0c0,0,0,0,0,0c0,0,0,0,0,0h0c0,0,0,0,0,0v0v0c0,0,0,0,0,0c0,0,0,0,0,0c-0.3,0.3-0.6,0.5-0.9,0.8
				c-0.3,0.3-0.5,0.5-0.7,0.8c-0.2,0.3-0.4,0.6-0.6,0.9c-0.2,0.3-0.3,0.6-0.5,0.9l0-0.1c-0.2,0.4-0.3,0.8-0.4,1.3
				c-0.1,0.6-0.2,1.1-0.3,1.7c0,0,0,0,0,0c0,0,0,0,0,0v0c-0.1,1-0.2,1.9-0.2,2.9c0,1,0.1,1.9,0.2,2.9v0c0.6,4.4,2.1,8.7,3.4,12.9
				c0.6,2.1,1.2,4.3,1.5,6.5c0.3,2.1,0.4,4.2,0.2,6.2c-0.1,0.4-0.1,0.9-0.2,1.3c-0.1,0.4-0.2,0.9-0.3,1.3c-0.2,0.8-0.4,1.7-0.7,2.5
				c-0.5,1.6-1.1,3.2-1.9,4.7c-0.7,1.5-1.6,3-2.5,4.4c-0.9,1.4-1.8,2.7-2.8,4c-2.1,2.7-4.4,5.2-6.6,7.7c-2.3,2.6-4.6,5.2-6.8,7.9
				c-0.4,0.6-0.9,1.2-1.3,1.8c-0.4,0.6-0.8,1.1-1.1,1.7c-0.4,0.6-0.7,1.3-1.1,2c-0.3,0.6-0.6,1.2-0.8,1.8l0-0.1
				c-0.5,1.2-0.9,2.3-1.2,3.5c-0.1,0.6-0.3,1.1-0.4,1.7c-0.1,0.6-0.2,1.1-0.3,1.7v0c-0.1,1.1-0.2,2.1-0.2,3.2c0,0.6,0,1.2,0.1,1.7
				c0,0.5,0.1,1,0.1,1.5v0c0,0,0,0,0,0c0,0,0,0,0,0c0.1,1.1,0.4,2.1,0.6,3.2c0.1,0.5,0.3,1,0.5,1.5c0.2,0.5,0.4,1,0.6,1.5
				c0,0,0,0,0,0c0.5,1.1,1,2.2,1.7,3.2c0.6,0.9,1.2,1.8,1.9,2.7c0.1,0.2,0.3,0.4,0.4,0.6l6.4-2.4c0,0,0,0,0,0l0,0l1.8,4.9l0.3,0
				l0.7,0c1.8,0,3.6,0,5.4,0c0.6,0,1.3,0,1.9,0c6.9-0.1,12.5-0.5,17.9-1.3c3.1-0.5,6.1-1.1,9.1-1.9c1.7-0.5,3.4-0.9,4.9-1.4
				c4.1-1.2,7.7-2.5,11.2-3.9c4.3-1.7,8-3.6,11.3-5.6c3.8-2.3,6.7-4.8,9-7.5c0.4-0.5,0.8-1,1.2-1.6c-0.3-1.2-0.6-2.5-0.9-3.7
				c-0.4-1.4-0.8-2.8-1.3-4.2c-0.5-1.3-1-2.6-1.5-3.9c0,0,0,0,0,0.1c-0.8-1.9-1.7-3.9-2.7-5.7c-0.9-1.8-1.9-3.5-2.9-5.2
				c-0.5-0.9-1.1-1.8-1.6-2.7c-0.5-0.8-0.9-1.6-1.3-2.5c-0.4-0.9-0.7-1.7-1-2.6c-0.1-0.4-0.3-0.9-0.4-1.3c-0.1-0.4-0.2-0.9-0.2-1.4
				c-0.1-0.5-0.1-1-0.1-1.5c0-0.5,0-1,0-1.4c0-0.8,0.1-1.5,0.3-2.3c0.2-0.8,0.4-1.7,0.6-2.5c0.2-0.7,0.5-1.4,0.8-2.1
				c0.6-1.5,1.4-3,2.2-4.4c1.6-2.9,3.3-5.7,4.6-8.7c0,0,0,0,0,0.1c0.4-0.9,0.7-1.8,1-2.7c0.1-0.4,0.2-0.9,0.3-1.3
				c0.1-0.4,0.2-0.9,0.2-1.4v0c0.1-0.8,0.1-1.6,0.1-2.4c0-0.7-0.1-1.4-0.2-2.2v0c-0.4-2.7-1.2-5.3-2.2-7.7l0,0.1
				c-1.2-2.7-2.6-5.3-4.4-7.7c-0.6-0.8-1.2-1.5-1.9-2.2c-0.6-0.6-1.3-1.2-2-1.8h0c0,0,0,0,0,0c0,0,0,0,0,0c0,0,0,0,0,0c0,0,0,0,0,0
				c0,0,0,0,0,0c-0.5-0.3-0.9-0.7-1.4-1c-0.5-0.3-1-0.5-1.5-0.8c0,0,0,0,0,0c-1.1-0.5-2.3-0.8-3.4-1.1c-1.2-0.3-2.4-0.5-3.6-0.7h0
				c-2.3-0.3-4.7-0.4-7-0.4C162.8,85.9,162.5,85.9,162.2,85.9 M133.9,90.8C133.9,90.8,133.9,90.8,133.9,90.8
				C133.9,90.8,133.9,90.8,133.9,90.8"/>
			<path class="st10" d="M133.9,90.8C133.9,90.8,133.9,90.8,133.9,90.8C133.9,90.8,133.9,90.8,133.9,90.8
				C133.9,90.8,133.9,90.8,133.9,90.8"/>
			<polyline class="st10" points="133.9,90.8 133.9,90.8 133.9,90.8 133.9,90.8 			"/>
			<path class="st10" d="M122,140.8c-0.1,0.2-0.2,0.3-0.3,0.5c0,0,0,0,0,0c0,0,0,0,0,0c0,0,0,0,0,0c0,0,0,0,0,0
				c-1.5,2.1-3.3,3.8-5.2,5.5c-1.9,1.7-4,3.3-5.9,5c-0.9,0.9-1.8,1.8-2.7,2.8c-0.9,1-1.6,2.1-2.4,3.2c-1.5,2.3-2.8,4.7-3.8,7.3
				c-0.6,1.5-1,3-1.3,4.5c-0.3,1.5-0.5,3.1-0.5,4.6c0,1.6,0.1,3.1,0.5,4.7c0.3,1.6,0.9,3.1,1.6,4.6c0.1,0.1,0.1,0.2,0.3,0.2
				c0.2,0.1,0.3,0.1,0.5,0c0.2,0,0.3-0.2,0.4-0.3c0.1-0.1,0.1-0.4,0-0.5c-0.4-0.9-0.7-1.8-1-2.7c-0.3-0.9-0.5-1.7-0.6-2.6
				c0,0,0,0,0,0.1c0,0,0-0.1,0-0.1c0,0,0,0,0-0.1l0,0c-0.3-1.8-0.3-3.6-0.2-5.4c0.2-2.4,0.8-4.8,1.7-7.1c0,0,0,0.1-0.1,0.1
				c1.2-3.1,2.8-6.1,4.8-8.9c0,0,0,0,0,0c0.5-0.7,1.1-1.4,1.6-2.1c0.6-0.7,1.2-1.3,1.8-1.9c1.3-1.3,2.6-2.5,4-3.6
				c1.3-1.2,2.7-2.4,4-3.7c0.6-0.6,1.2-1.3,1.7-1.9c0.6-0.7,1.1-1.4,1.6-2.1c0.1-0.1,0-0.3-0.1-0.3c0,0-0.1,0-0.1,0
				C122.2,140.7,122.1,140.7,122,140.8 M107.8,156.3C107.8,156.3,107.8,156.3,107.8,156.3C107.8,156.3,107.8,156.3,107.8,156.3
				 M101.5,177.6C101.5,177.7,101.5,177.7,101.5,177.6C101.5,177.7,101.5,177.6,101.5,177.6C101.5,177.6,101.5,177.6,101.5,177.6
				 M121.7,141.3L121.7,141.3C121.7,141.3,121.7,141.3,121.7,141.3C121.7,141.3,121.7,141.3,121.7,141.3"/>
			<path class="st10" d="M102,148c-0.5,0.5-1,1-1.4,1.5c-0.5,0.5-1,1.1-1.4,1.7c-0.8,1.1-1.6,2.4-2.2,3.6c-0.6,1.2-1.1,2.5-1.5,3.9
				c-0.4,1.4-0.7,2.8-0.9,4.3c0,0.1,0,0.2,0.1,0.3c0.1,0.1,0.2,0.2,0.3,0.2c0.1,0,0.2,0,0.3-0.1c0.1-0.1,0.2-0.2,0.2-0.3
				c0.1-1.1,0.3-2.2,0.5-3.3c0.2-1.1,0.6-2.1,0.9-3.1c0,0,0,0.1,0,0.1c0.4-1,0.8-1.9,1.3-2.8c0.5-0.9,1-1.8,1.6-2.6c0,0,0,0,0,0
				c0.8-1.1,1.7-2.1,2.7-3.1c0.1-0.1,0.1-0.3,0-0.3c0,0-0.1-0.1-0.2-0.1C102.1,147.9,102.1,147.9,102,148 M99.7,151.4
				C99.7,151.3,99.7,151.3,99.7,151.4C99.7,151.3,99.7,151.3,99.7,151.4"/>
			<path class="st8" d="M164.5,81c-2.1,0-4.4,0.1-7,0.3c-1.4,0.1-2.8,0.3-4.1,0.4c-1,0.1-1.9,0.2-2.9,0.4c-1.9,0.3-3.7,0.7-5.5,1.1
				c-2,0.5-3.8,1.1-5.6,1.9c-4,1.7-7,3.9-8.8,6.6c-0.9,1.4-1.6,2.9-1.9,4.5c-0.2,1.1-0.3,2.2-0.3,3c0,1.3,0.1,2.6,0.3,4.1
				c0.4,2.4,1,4.9,2.1,7.8c0.8,2.3,1.8,4.4,2.7,6.3c-1.4-0.7-2.7-1.1-4.1-1.1h-0.2c-1,0-1.9,0.2-2.8,0.6c-0.8,0.4-1.6,0.9-2.3,1.7
				c-0.6,0.7-1.1,1.6-1.4,2.6c-0.3,1-0.5,2.1-0.4,3.2c0,1,0.2,2,0.6,3c0.3,0.9,0.7,1.7,1.3,2.7c0.7,1.1,1.8,2.2,3,3.1
				c1.1,0.9,2.4,1.6,3.9,2.2c1.4,0.5,2.8,0.9,4.3,1c0.4,0,0.7,0,1.1,0c1.1,0,2.1-0.1,3.1-0.4c0.8,1,1.6,2.2,2.3,3.5
				c1.3,2.4,2.3,5.1,3,7.9c0,0,0,0.1,0,0.1s0,0,0,0c0.7,3,0.9,6,0.8,8.9h0c-0.1,2.5-0.5,4.9-1.2,7.1c-0.1,0.2-0.2,0.4,0,0.6
				c0.6,0.7,1.3,1.3,2,1.9c0.7,0.5,1.4,1.1,2.3,1.6c1.6,0.9,3.3,1.7,5.4,2.3c1.9,0.5,4,0.9,6.1,1.1c0.8,0.1,1.6,0.1,2.4,0.1
				c1.3,0,2.6-0.1,4-0.2c2.5-0.3,4.8-0.9,7-1.8c2.1-0.8,3.9-1.9,5.5-3.3c0.1,0,0.2-0.1,0.3-0.3l0.1-0.1c0.1-0.1,0.2-0.2,0.2-0.3
				c0-0.1,0-0.3-0.1-0.4c-0.1-0.1-0.2-0.2-0.3-0.2c0,0,0,0,0,0c-0.2,0-0.3,0-0.3,0.1l-0.1,0.1c-0.3-0.2-0.7-0.4-1-0.6
				c-0.8-0.5-1.5-1.1-2.2-1.8c-0.6-0.7-1.2-1.5-1.7-2.4l0,0.1c-0.6-1.1-1-2.3-1.3-3.5c-0.3-1.5-0.5-3.1-0.5-4.8
				c3.6-0.7,7-2.2,10-4.3c2.1-1.4,3.9-3.1,5.5-5.1c0.8-1,1.5-2,2.1-3c0.5-1,1-2.1,1.4-3.3c0.7-2.1,1-4.5,1.1-7.1
				c0-2.3-0.2-4.7-0.8-7.3c-0.3-1.4-0.7-2.9-1.1-4.4c-0.2-0.7-0.5-1.4-0.7-2.2c-0.2-0.6-0.4-1.1-0.6-1.7l-0.3-0.7
				c-0.5-1.3-1.2-3.1-1.8-5c-0.5-1.8-0.9-3.5-1.2-5.2h0c-0.1-0.9-0.2-1.7-0.2-2.6c0-0.7,0-1.4,0-2.1c0-1.7-0.1-3.3-0.2-4.9
				c-0.2-1.8-0.5-3.3-0.9-4.5c-0.3-0.7-0.6-1.3-0.9-1.9c-0.2-0.3-0.4-0.6-0.7-0.8c-0.3-0.3-0.6-0.5-0.8-0.7c0,0-0.1-0.1-0.2-0.1
				c-0.5-0.3-0.9-0.5-1.4-0.7l-0.3-0.1c-0.6-0.3-1.3-0.6-2-0.8c-1.2-0.5-2.5-0.8-3.9-1.2c-2.4-0.6-5.1-0.9-8.3-1
				C165.5,81,165,81,164.5,81"/>
			<path class="st9" d="M153.6,149.6L153.6,149.6c0.7,0.8,1.5,1.5,2.3,2.2c0.8,0.7,1.6,1.3,2.5,1.8l-0.1,0c0.9,0.6,1.8,1.1,2.7,1.5
				c0.9,0.4,1.7,0.8,2.7,1.1c0,0,0,0,0,0c0,0,0,0,0,0c0,0,0,0,0,0c0,0,0,0,0,0c0.9,0.3,1.8,0.5,2.7,0.7c0.9,0.1,1.7,0.2,2.6,0.3
				c0,0,0,0,0,0c0,0,0,0,0,0c0,0,0,0,0,0c0.8,0,1.5,0,2.3-0.1c0.6-0.1,1.1-0.1,1.7-0.2c0-0.2-0.1-0.3-0.1-0.5
				c-0.3-1.5-0.5-3.1-0.5-4.8c0,0,0,0,0,0c-0.4,0-0.8,0.1-1.1,0.1c-1.2,0.1-2.5,0.1-3.7,0.1c-2.3-0.1-4.6-0.4-6.8-1
				c-2.2-0.6-4.4-1.4-6.4-2.4c-0.9-0.5-1.8-0.9-2.7-1.5C152.2,147.9,152.9,148.8,153.6,149.6"/>
			<path class="st9" d="M163.6,156.2"/>
			<path class="st9" d="M163.7,156.2L163.7,156.2C163.6,156.2,163.6,156.2,163.7,156.2C163.6,156.2,163.6,156.2,163.7,156.2"/>
			<path class="st9" d="M132.5,121.2c-0.1,0-0.2,0.1-0.3,0.2c-0.1,0.2-0.2,0.5-0.2,0.7c-0.1,0.2-0.1,0.5-0.1,0.7
				c-0.1,0.5-0.1,1,0,1.5c0,0.5,0.1,1,0.2,1.6c0.1,0.6,0.3,1.1,0.6,1.7c0.4,1,1,1.9,1.7,2.7c0.3,0.4,0.7,0.7,1.1,1.1
				c0.4,0.3,0.8,0.6,1.3,0.9c0.1,0.1,0.3,0,0.3-0.1c0.1-0.1,0-0.3-0.1-0.3c-0.1-0.1-0.2-0.1-0.3-0.2c0,0,0,0,0.1,0
				c-0.6-0.4-1-0.8-1.5-1.3c-0.6-0.7-1-1.4-1.4-2.2c-0.4-0.8-0.7-1.7-0.9-2.6c-0.1-0.7-0.2-1.3-0.1-2c0-0.6,0.2-1.1,0.3-1.7
				c0,0,0-0.1,0.1-0.1c0-0.1,0.1-0.2,0-0.4c0-0.1-0.1-0.2-0.2-0.3c-0.1,0-0.1-0.1-0.2-0.1C132.6,121.2,132.5,121.2,132.5,121.2
				 M133,122.1C133,122.1,133,122.1,133,122.1C133,122.1,133,122.1,133,122.1 M133.7,128.3C133.7,128.3,133.7,128.3,133.7,128.3
				C133.7,128.3,133.7,128.3,133.7,128.3"/>
			<path class="st9" d="M128.8,119.4c-0.4,0-0.9,0.1-1.3,0.2c-0.4,0.1-0.8,0.2-1.2,0.4c-0.7,0.3-1.4,0.8-1.8,1.4
				c-0.1,0.1-0.1,0.3,0,0.3c0.1,0.1,0.3,0.1,0.3,0c0.1-0.1,0.2-0.2,0.3-0.3c0.2-0.2,0.4-0.3,0.6-0.5c0.2-0.1,0.3-0.2,0.5-0.2
				c0.2-0.1,0.4-0.2,0.6-0.2c0,0,0,0-0.1,0c0.2,0,0.4-0.1,0.6-0.1c0.2,0,0.4,0,0.6,0h0c0.6,0,1.1,0,1.6,0.2c0.5,0.1,1.1,0.3,1.5,0.6
				c0.4,0.3,0.9,0.6,1.2,0.9c0.1,0,0.1,0.1,0.2,0.1c0.1,0,0.2,0,0.3-0.1c0.1,0,0.1-0.1,0.1-0.2c0-0.1,0-0.2,0-0.3
				c-0.1-0.2-0.2-0.3-0.3-0.5c-0.1-0.2-0.3-0.3-0.4-0.4c-0.3-0.3-0.7-0.5-1.1-0.7c-0.4-0.2-0.8-0.3-1.2-0.4
				c-0.4-0.1-0.7-0.1-1.1-0.1C128.9,119.4,128.8,119.4,128.8,119.4 M129.6,120.5L129.6,120.5C129.7,120.5,129.6,120.5,129.6,120.5"
				/>
			<path class="st11" d="M157.5,81.3c-1.4,0.1-2.8,0.3-4.1,0.4c-1,0.1-1.9,0.2-2.9,0.4c-1.9,0.3-3.7,0.7-5.5,1.1
				c-2,0.5-3.8,1.1-5.6,1.9c-4,1.7-7,3.9-8.8,6.6c-0.3,0.4-0.5,0.8-0.7,1.1c0.3,0.2,0.6,0.5,0.9,0.7c0.7,0.5,1.3,0.9,2,1.3
				c0,0,0,0,0,0c1,0.5,2,1,3,1.4c1,0.4,2.1,0.7,3.2,1c4.2,1.1,8.6,1.3,12.9,1.2h-0.1c0.7,0,1.3,0,2-0.1c0.8,0,1.5-0.1,2.3-0.1
				c1.9-0.1,3.8-0.1,5.8,0c3.2,0.1,6.3,0.5,9.4,1.2c1.3,0.3,2.6,0.6,3.8,1.1c1.1,0.4,2.3,1,3.3,1.6c1.1,0.6,2.1,1.3,3.1,2
				c1,0.7,2,1.5,2.9,2.3c1.1,0.9,2.1,1.8,3.1,2.7c-0.2-0.5-0.4-1.1-0.5-1.6c-0.5-1.8-0.9-3.5-1.2-5.2c-0.1-0.9-0.2-1.8-0.2-2.6
				c0-0.7,0-1.4,0-2.1c0-1.7-0.1-3.3-0.2-4.9c-0.2-1.8-0.5-3.3-0.9-4.5c-0.3-0.7-0.6-1.3-0.9-1.9c-0.2-0.3-0.4-0.6-0.7-0.9
				c-0.3-0.3-0.6-0.5-0.8-0.7c0,0-0.1-0.1-0.2-0.1c-0.4-0.2-0.8-0.4-1.3-0.6l-0.1-0.1l-0.3-0.1c-0.6-0.3-1.3-0.6-2-0.8
				c-1.2-0.5-2.5-0.8-3.9-1.2c-2.4-0.6-5.2-0.9-8.3-1c-0.5,0-1,0-1.5,0C162.4,81,160.2,81.1,157.5,81.3"/>
			<path class="st12" d="M164.1,269.8c-2.2,0.1-4.2,0.4-6,0.7c-2.8,0.6-5.6,1.6-8.4,3.1l6.6,17.6c-8.8,3.3-17.7,6.6-26.5,10
				c0,0.2,0,0.3,0.1,0.5c0.3,2.1,0.9,4.2,1.7,6.2c0.7,1.8,1.7,3.6,2.9,5.3c1.1,1.5,2.4,3,4,4.5c2.8,2.6,6.1,4.8,10.3,6.8
				c3.5,1.7,7.5,3.2,12.2,4.4c3.8,1,7.8,1.9,12.5,2.7c3.2,0.5,6.4,1,9.2,1.3c3.3,0.5,6.9,0.9,10.6,1.3c7.3,0.8,14.5,1.5,21.3,1.9
				c3.5,0.2,7,0.4,10.7,0.4c1.7,0,3.5,0.1,5.2,0.1c0.7,0,1.5,0,2.2,0c1,0,2.1,0,3.1,0c0.1,0,0.2,0,0.3,0
				c-4.7,9.1-9.2,19.1-13.3,29.9c-2.1,5.5-4.2,11.4-6.2,17.6c0,0,0,0.1,0,0.1c-2.1,6.4-4,12.9-6,19.9l-0.2,0.6l-0.2,0.6
				c0.7,0.8,1.5,1.5,2.2,2.1c0.8,0.7,1.8,1.3,2.7,1.9c2.3,1.5,5,2.7,7.8,3.5c2.8,0.9,5.7,1.4,8.5,1.5c0.3,0,0.6,0,0.9,0
				c0.4,0,0.7,0,1.1,0c8.4-12.8,16.1-25.1,23.6-37.6c1.3-2.2,2.6-4.4,3.9-6.7c0.4-0.7,0.9-1.5,1.3-2.2l0.3-0.5l0.4-0.7l0.3-0.6
				l1.1-1.9c0.9-1.5,1.7-2.9,2.6-4.3l0.2-0.3c0.9-1.5,1.8-3,2.7-4.6c2.3-4,4.1-7.3,5.6-10.4c1.8-3.9,3.1-7.5,4-10.8
				c1-3.8,1.2-7.4,0.9-10.6c-0.2-1.7-0.6-3.4-1.2-5c-0.6-1.6-1.4-3.1-2.5-4.8c-0.9-1.4-2.1-2.8-3.4-4.3c-1.2-1.3-2.6-2.5-4.2-3.8
				c-2.7-2.1-5.8-4.1-9.7-6.1c-3.4-1.8-7.1-3.5-10.1-4.9c-2.2-1-4.3-2-6.4-3l-1.2-0.5c-1.9-0.9-3.8-1.8-5.7-2.6
				c-5.3-2.4-9.6-4.2-13.7-5.8c-1.1-0.4-2.3-0.8-3.4-1.2c-1.1-0.4-2.2-0.7-3.3-1.1c-1.9-0.6-3.9-1.2-5.8-1.8
				c-8.1-2.5-16.9-5.1-25.9-6.8c-4.6-0.9-8.9-1.4-13-1.6c-1,0-2-0.1-3-0.1C166.4,269.7,165.3,269.7,164.1,269.8"/>
			<path class="st9" d="M210.4,404.3C210.4,404.3,210.3,404.3,210.4,404.3c-0.7,2.6-1.4,5.2-2.1,7.8c-0.8,3-1.5,5.7-2.1,8.3
				c-1,3.9-1.7,7.5-2.4,11c3.1,0.7,6.1,1.4,9.1,1.8c1.8,0.3,3.5,0.5,5.2,0.7c0.9,0.1,1.8,0.2,2.6,0.3c0.7,0.1,1.4,0.1,2.1,0.1l0.2,0
				l0.3,0c0.7,0,1.2-0.1,1.7-0.2c0.3-0.1,0.7-0.2,0.9-0.3c0.3-0.1,0.5-0.3,0.8-0.6c0.4-0.4,0.8-0.9,1-1.2c0.3-0.4,0.6-0.9,0.9-1.3
				l0.3-0.4c0.2-0.4,0.5-0.7,0.8-1.1c0.2-0.3,0.5-0.7,0.8-1l0.1-0.1l0.1-0.1c-0.3-0.2-0.7-0.3-1-0.4c-1.4-0.5-2.9-1-4.4-1.4
				c3.1-4.6,6-9,8.9-13.4l-0.6,0l-0.6,0c-0.9,0-1.8,0-2.7-0.1c-2.6-0.3-5.2-0.9-7.8-1.8C218.4,409.3,214.3,407.1,210.4,404.3
				L210.4,404.3z"/>
			<path class="st10" d="M229.3,427.3C229.3,427.3,229.3,427.3,229.3,427.3c-0.6,0.5-1,1-1.5,1.5c-0.2,0.3-0.5,0.6-0.7,1
				c-0.2,0.3-0.4,0.6-0.5,0.9c-0.1,0.2-0.2,0.4-0.3,0.7c-0.1,0.2-0.1,0.5-0.2,0.7c0,0,0,0.1-0.1,0.1c0,0.1-0.1,0.2-0.2,0.2
				c-4-0.2-7.7-0.5-11.3-0.9c-3.6-0.4-7.1-0.9-10.6-1.5c-0.5,2.3-0.9,4.7-1.2,7c0,0.2,0.1,0.4,0.3,0.6c0.1,0.1,0.2,0.2,0.4,0.2
				l1,0.1c1.1,0.1,2.1,0.2,3.2,0.4c3,0.3,5.5,0.6,8,0.8c3.4,0.3,6.6,0.5,9.8,0.8c4,0.2,7.1,0.3,9.7,0.4l0.5,0c1.1,0,2.3,0,3.7-0.1
				c1.3-0.1,2.4-0.2,3.4-0.3c1.1-0.2,1.8-0.4,2.5-0.6c0.3-0.1,0.6-0.3,0.9-0.5c0.2-0.2,0.4-0.4,0.6-0.7c0.1-0.2,0.2-0.5,0.1-0.8
				c0-0.2-0.1-0.3-0.1-0.4c0-0.1-0.1-0.2-0.2-0.3c-0.1-0.2-0.3-0.5-0.6-0.8c-0.5-0.5-1.2-1-2-1.5c-0.9-0.6-1.8-1.1-2.4-1.4
				c-0.8-0.4-1.6-0.8-2.4-1.2l-0.6-0.3l-0.2-0.1l-0.4-0.2l-0.4-0.2c-0.2-0.1-0.4-0.2-0.6-0.3l-0.2-0.1l-0.5-0.3
				c-0.7-0.4-1.4-0.7-2.1-1c-1.3-0.6-2.7-1.1-4.2-1.7C229.6,427.5,229.5,427.4,229.3,427.3L229.3,427.3z"/>
			<path class="st13" d="M156.3,291.2c-14.8,5.6-29.6,11.1-44.4,16.7c0.2,0.8,0.5,1.6,0.8,2.4c0.7,1.8,1.7,3.6,2.9,5.3
				c1.1,1.5,2.4,3,4,4.5c2.8,2.6,6.1,4.8,10.3,6.8c3.5,1.7,7.5,3.2,12.2,4.4c3.8,1,7.9,1.9,12.5,2.7c3,0.5,5.9,0.9,9.2,1.3
				c3.5,0.5,7,0.9,10.6,1.3c7.3,0.8,14.5,1.5,21.3,1.9c3.5,0.2,7.1,0.4,10.7,0.4c1.7,0,3.5,0.1,5.2,0.1c0.7,0,1.5,0,2.2,0
				c1,0,2.1,0,3.1,0c0.1,0,0.2,0,0.3,0c-4.7,9.2-9.2,19.2-13.2,29.9c-2.1,5.6-4.2,11.5-6.2,17.6c0,0,0,0.1,0,0.1
				c-2,6.3-4,12.8-6,19.9c-0.1,0.4-0.2,0.8-0.3,1.2c0.7,0.7,1.4,1.4,2.2,2.1c0.9,0.7,1.8,1.3,2.7,1.9c0,0,0,0,0,0
				c2.4,1.5,5.1,2.7,7.8,3.6h0c2.8,0.8,5.6,1.4,8.5,1.5h0c0.7,0,1.3,0,2,0c8.4-12.8,16.2-25.2,23.5-37.6c1.3-2.2,2.6-4.4,3.9-6.7
				c0.5-0.9,1-1.8,1.6-2.7c0.6-1.1,1.2-2.1,1.9-3.2c0.9-1.5,1.7-2.9,2.6-4.3c1-1.6,2-3.2,2.9-4.9c2.3-4,4.1-7.3,5.6-10.4
				c1.8-3.9,3.1-7.5,4-10.8c1-3.8,1.2-7.4,0.9-10.6c-0.2-1.7-0.6-3.4-1.2-5c-0.6-1.6-1.4-3.1-2.5-4.8c-0.9-1.4-2.1-2.8-3.4-4.3
				c-1.2-1.3-2.6-2.5-4.2-3.8c-2.7-2.1-5.7-4-9.7-6.1c-3.4-1.8-7-3.5-10.1-4.9c-2.1-1-4.3-2-6.4-3c-2.3-1.1-4.6-2.1-6.9-3.2
				c-5.3-2.4-9.6-4.2-13.7-5.7c-1.1-0.4-2.3-0.8-3.4-1.2c-1.1-0.4-2.2-0.7-3.3-1.1c-1.9-0.6-3.9-1.2-5.8-1.8
				c-8.1-2.5-16.8-5.1-25.9-6.7c-4.6-0.9-8.9-1.4-13-1.6c-0.8,0-1.6-0.1-2.4-0.1L156.3,291.2z M204,415.2
				C204,415.2,204.1,415.2,204,415.2C204.1,415.2,204,415.2,204,415.2"/>
			<path class="st12" d="M156.3,291.2c-14.8,5.6-29.6,11.1-44.4,16.7c0.2,0.8,0.5,1.6,0.9,2.4c0.7,1.8,1.7,3.6,2.9,5.3
				c1.1,1.5,2.4,3,4,4.5c2.8,2.6,6.1,4.8,10.3,6.8c3.5,1.7,7.5,3.2,12.2,4.4c3.8,1,7.8,1.9,12.5,2.7c3.2,0.5,6.4,1,9.2,1.3
				c3.3,0.5,6.9,0.9,10.6,1.3c7.3,0.8,14.5,1.5,21.3,1.9c3.5,0.2,7,0.3,10.7,0.4c1.7,0,3.5,0.1,5.2,0.1c0.7,0,1.5,0,2.2,0
				c1,0,2.1,0,3.1,0c0.1,0,0.2,0,0.3,0c-4.7,9-9.2,19.1-13.3,29.9c-2.1,5.5-4.2,11.4-6.2,17.6c0,0,0,0.1,0,0.1
				c-2.1,6.4-4,12.9-6,19.9l-0.2,0.6l-0.2,0.6c0.5,0.5,1,1.1,1.6,1.5c0.9-4,2-7.9,3.2-11.8c2.8-9.3,6.1-18.3,9.9-27.2c0,0,0,0,0,0
				c0.8-1.9,1.6-3.8,2.4-5.7c4.7-10.8,9.9-21.4,15.1-32c-5.4,0.4-10.7,0.4-16.1,0.1c-5.5-0.4-11-1.1-16.5-2.1
				c-2.6-0.5-5.3-1-7.9-1.6c-1.5-0.3-3.1-0.7-4.6-1.1c-3.4-0.9-6.8-1.9-10.1-3.1c-1.7-0.6-3.4-1.3-5-2c-1.6-0.7-3.1-1.5-4.6-2.4
				c-1.4-0.8-2.8-1.7-4-2.8c-1.1-1-2.2-2-3.1-3.2c-0.4-0.6-0.8-1.1-1.1-1.7c-0.3-0.6-0.6-1.2-0.8-1.9c-0.4-1.3-0.6-2.7-0.6-4.1
				c0.2-3.4,1.8-6.6,3.8-9.3c0,0,0,0,0,0c0-0.1,0.1-0.1,0.2-0.2c0,0,0-0.1,0.1-0.1c0-0.1,0.1-0.1,0.2-0.1c0,0,0.1,0,0.1,0
				c0.1,0,0.1,0.1,0.1,0.2c2.2,0.4,4.5,0.7,6.7,0.8c0,0,0,0-0.1,0c1.8,0.1,3.6,0.2,5.4,0.2c1.8,0,3.7-0.1,5.5-0.2
				c3.8-0.3,7.6-0.8,11.4-1.5c0,0,0,0-0.1,0c5.8-1.2,11.6-2.9,16.9-5.5c0,0,0,0,0,0c0,0,0,0,0,0c0,0,0,0,0,0h0
				c2.7-1.3,5.3-2.9,7.7-4.8c-1.3-0.5-2.6-1-3.9-1.5c-1.1-0.4-2.3-0.8-3.4-1.2c-1.1-0.4-2.2-0.7-3.3-1.1c-1.9-0.6-3.9-1.2-5.8-1.8
				c-8.1-2.5-16.9-5.1-25.9-6.8c-4.6-0.9-8.9-1.4-13-1.6c-0.8,0-1.6-0.1-2.4-0.1L156.3,291.2z"/>
			<path class="st8" d="M189.4,414.5c-0.8,2.9-1.5,5.6-2.1,8.3c-1,4-1.7,7.6-2.4,11c3,0.7,6,1.3,9,1.8c1.7,0.3,3.5,0.5,5.2,0.7
				c0.9,0.1,1.8,0.2,2.6,0.3c0.7,0.1,1.4,0.1,2.1,0.1c0,0,0,0,0,0c0.8,0,1.5,0,2.2-0.1l-0.1,0c0.3-0.1,0.7-0.2,1-0.4
				c0.3-0.2,0.6-0.4,0.8-0.6c0.4-0.4,0.7-0.8,1-1.2c0.4-0.6,0.8-1.2,1.2-1.8c0.2-0.4,0.5-0.7,0.8-1.1c0.3-0.3,0.5-0.7,0.8-1
				c0.1-0.1,0.2-0.2,0.2-0.2c-0.3-0.1-0.7-0.2-1-0.4c-1.4-0.5-2.9-1-4.4-1.4c3-4.5,6-9,8.9-13.4c-1.3,0.1-2.6,0-3.8-0.1
				c-2.7-0.3-5.3-0.9-7.8-1.8c-4.4-1.6-8.5-3.8-12.2-6.5C190.8,409.3,190.1,411.9,189.4,414.5"/>
			<path class="st4" d="M209,431.3C209,431.3,209,431.3,209,431.3L209,431.3C209,431.2,209,431.3,209,431.3
				C209,431.3,209,431.3,209,431.3L209,431.3C209,431.3,209,431.3,209,431.3C209,431.3,209,431.3,209,431.3
				C209,431.3,209,431.3,209,431.3C209,431.3,209,431.3,209,431.3C209,431.3,209,431.3,209,431.3c-0.3,0.3-0.5,0.6-0.7,1
				c-0.2,0.3-0.4,0.6-0.5,0.9c-0.1,0.2-0.2,0.4-0.3,0.7c-0.1,0.2-0.1,0.5-0.2,0.7c0,0,0,0.1-0.1,0.1c0,0.1-0.1,0.2-0.2,0.2
				c-3.8-0.2-7.5-0.5-11.2-0.9c-3.5-0.4-7.1-0.9-10.6-1.5c-0.5,2.4-0.8,4.7-1.2,7c0,0.2,0.1,0.4,0.3,0.5c0.1,0.1,0.2,0.2,0.4,0.2
				l1,0.1c1.1,0.1,2.1,0.2,3.2,0.4c3,0.3,5.5,0.6,8,0.8c3.5,0.3,6.7,0.6,9.8,0.8c3.9,0.2,7,0.3,9.7,0.4l0.5,0c1.1,0,2.3,0,3.7-0.1
				c1.3-0.1,2.4-0.2,3.4-0.3c1.1-0.2,1.8-0.4,2.5-0.6c0.3-0.1,0.6-0.3,0.9-0.5c0.2-0.2,0.4-0.4,0.6-0.7c0.1-0.2,0.2-0.5,0.1-0.8
				c0-0.2-0.1-0.3-0.1-0.4c0-0.1-0.1-0.2-0.2-0.3c-0.1-0.3-0.3-0.5-0.6-0.8c-0.5-0.5-1.1-1-1.9-1.5c-0.8-0.5-1.7-1-2.4-1.4
				c-0.8-0.4-1.6-0.8-2.4-1.2l-0.6-0.3l-0.2-0.1l-0.4-0.2l-0.4-0.2c-0.2-0.1-0.4-0.2-0.6-0.3l-0.2-0.1l-0.5-0.3
				c-0.7-0.4-1.4-0.7-2.1-1c-1.3-0.6-2.7-1.2-4.2-1.7c-0.2-0.1-0.3-0.1-0.5-0.2C210,430.3,209.5,430.7,209,431.3"/>
			<polygon class="st4" points="209,431.3 209,431.3 209,431.3 			"/>
			<polyline class="st4" points="209,431.3 209,431.3 209,431.3 			"/>
			<path class="st8" d="M198.4,130.8L198.4,130.8h-0.3c-0.8,0-1.5,0-2.1,0.1c-0.3,0-0.6,0.1-0.9,0.2c-0.2,0.1-0.5,0.2-0.6,0.4
				c-0.2,0.2-0.3,0.5-0.4,0.7c-0.1,0.3-0.1,0.6-0.1,0.8c0.1,0.6,0.4,1,0.7,1.3c0.5,0.5,1.2,0.8,1.6,1.1c0.6,0.3,1.3,0.6,2.2,0.8
				c1.3,0.4,2.6,0.8,4.4,1.1l0.2,0l0.2,0c0.4,1.3,1.1,2.3,1.9,3.1c0.5,0.5,1.1,0.8,1.7,1c0,0.6,0.1,1.2,0.3,1.8
				c0.3,0.8,0.7,1.4,1.2,1.9c0.2,0.2,0.5,0.4,0.8,0.6c0.3,0.1,0.6,0.2,1,0.2l0.1,0c0.3,0,0.6-0.1,0.9-0.2c0.5,0.7,1.2,1.2,2.4,1.7
				c0.6,0.2,1.2,0.4,2.1,0.6c0.8,0.1,1.6,0.2,2.5,0.3c0.6,0,1.1,0.1,1.7,0.1c1.2,0,2.4-0.1,3.7-0.2c1.8-0.2,3.4-0.6,4.8-1.1
				c0.7-0.3,1.3-0.5,1.8-0.9c0.5-0.3,1-0.7,1.3-1.2c0.1-0.1,0.1-0.2,0.2-0.3c0.2-0.3,0.3-0.6,0.4-1c0.2-0.6,0.2-1.2,0.1-1.8
				c-0.1-1.1-0.5-2.1-1.2-2.9c0,0,0.1,0,0.1-0.1c0.1-0.1,0.1-0.3,0.1-0.4c0-0.1-0.1-0.2-0.2-0.3c-1.9-1.5-4.1-2.8-6.7-3.8
				c-2.2-0.9-4.7-1.6-7.6-2.1c-2.3-0.4-4.9-0.7-7.8-0.9c-0.3,0-0.7,0-1-0.1c-0.5,0-1.1-0.1-1.6-0.1c-0.5,0-0.9-0.1-1.4-0.1l-0.7-0.1
				C202.2,131,200.3,130.8,198.4,130.8"/>
			<path class="st9" d="M208.4,134.1c-0.7,0-1.3,0.2-2,0.4c-0.6,0.2-1.2,0.4-1.7,0.8c-0.5,0.3-0.9,0.8-1.2,1.3
				c-0.1,0.1,0,0.3,0.1,0.3c0.1,0.1,0.3,0,0.3-0.1c0.1-0.1,0.2-0.3,0.3-0.4c0.1-0.1,0.2-0.2,0.3-0.3c0.1-0.1,0.2-0.2,0.3-0.3
				c0.2-0.1,0.3-0.2,0.5-0.3c0.2-0.1,0.4-0.2,0.7-0.3c0.3-0.1,0.6-0.2,0.9-0.3c0.3-0.1,0.7-0.1,1-0.2c0.6-0.1,1.3-0.1,1.9,0
				c0,0,0,0-0.1,0c0.1,0,0.1,0,0.2,0c0.1,0,0.1,0,0.2,0c0.1,0,0.1-0.1,0.1-0.1c0-0.1,0-0.3-0.2-0.3c-0.2,0-0.5-0.1-0.7-0.1
				c-0.2,0-0.3,0-0.5,0C208.8,134.1,208.6,134.1,208.4,134.1 M208,134.6C208,134.6,208,134.6,208,134.6
				C208,134.6,208,134.6,208,134.6 M204.2,136.4C204.2,136.4,204.2,136.4,204.2,136.4C204.2,136.4,204.2,136.4,204.2,136.4"/>
			<path class="st9" d="M210,138.6c-0.1,0-0.3,0-0.4,0.1c-0.2,0-0.3,0.1-0.5,0.2c-0.3,0.1-0.6,0.3-0.9,0.5c-0.5,0.4-0.9,0.9-1.2,1.4
				c-0.1,0.1,0,0.3,0.1,0.3c0.1,0.1,0.3,0,0.3-0.1c0.1-0.2,0.3-0.5,0.4-0.7c0.1-0.1,0.2-0.2,0.2-0.3c0.1-0.1,0.2-0.2,0.4-0.3
				c0,0,0,0,0,0c0,0,0,0,0,0c0,0,0,0,0,0c0,0,0,0,0,0c0.1-0.1,0.2-0.1,0.3-0.2c0.1-0.1,0.3-0.2,0.5-0.2c0.1,0,0.2-0.1,0.3-0.1
				c0.2-0.1,0.4-0.1,0.5-0.1c0.1,0,0.1-0.1,0.1-0.1c0-0.1,0-0.1,0-0.2c0-0.1-0.1-0.1-0.1-0.1C210.1,138.6,210.1,138.5,210,138.6
				C210,138.5,210,138.5,210,138.6 M208.5,139.7C208.5,139.7,208.5,139.7,208.5,139.7C208.5,139.7,208.5,139.7,208.5,139.7
				C208.5,139.7,208.5,139.7,208.5,139.7"/>
			<path class="st9" d="M213.8,143.4c-0.2,0.1-0.5,0.2-0.7,0.3c-0.3,0.1-0.5,0.3-0.7,0.4c-0.2,0.2-0.4,0.3-0.5,0.5
				c-0.2,0.2-0.3,0.4-0.4,0.7c0,0.1,0,0.1,0,0.2c0,0.1,0.1,0.1,0.1,0.1c0.1,0,0.1,0,0.2,0c0.1,0,0.1-0.1,0.1-0.1
				c0-0.1,0.1-0.2,0.1-0.3c0.1-0.1,0.1-0.2,0.2-0.3c0,0,0,0,0,0c0,0,0,0,0,0c0,0,0,0,0,0c0,0,0,0,0,0c0-0.1,0.1-0.1,0.2-0.2
				c0.1-0.1,0.2-0.2,0.3-0.3c0,0,0,0,0,0c0.1-0.1,0.2-0.2,0.3-0.2c0.2-0.1,0.3-0.2,0.5-0.2c0.2-0.1,0.3-0.1,0.5-0.2
				c0.1,0,0.2-0.2,0.2-0.3C214.1,143.4,214,143.3,213.8,143.4C213.9,143.3,213.8,143.3,213.8,143.4 M212.2,144.9L212.2,144.9
				C212.2,144.9,212.2,144.9,212.2,144.9C212.2,144.9,212.2,144.9,212.2,144.9"/>
			<path class="st14" d="M229.3,136.9L229.3,136.9L229.3,136.9c-0.6,1.1-1.2,2.1-1.8,3c-0.4,0.7-0.9,1.3-1.4,2
				c-0.5,0.6-1,1.2-1.4,1.7c-0.9,1.1-1.9,2.2-2.9,3.2c-0.5,0.5-1.1,1-1.7,1.5c-0.2,0.1-0.3,0.3-0.5,0.4c4.8,6,9,12.6,13.1,18.9
				l0.1,0.2c1.7,2.6,3.5,5.5,5.4,8.2l-0.7-0.2l-0.6-0.1c-6.4-1.2-12.7-3.1-18.7-5c-5.1-1.6-10.3-3.2-15.6-4.4
				c-1.6-0.4-3.1-0.6-4.5-0.8c-1.7-0.2-3.4-0.4-4.9-0.5l-1.9-0.2l-0.2,0c-1-0.1-1.9-0.2-2.8-0.3c-1.3-0.1-3-0.3-4.6-0.6
				c-1.5-0.3-2.7-0.7-3.8-1.2c-1-0.5-1.9-1.1-2.8-1.9c-1-0.9-1.9-1.9-2.9-3c-0.1-0.1-0.2-0.2-0.3-0.2c-0.1,0-0.1-0.1-0.2-0.1
				c-0.1,0-0.2,0-0.3,0.1c-0.8,0.5-1.6,1-2.5,1.5c-1.5,0.7-3.3,1.2-5.1,1.6c-1.5,0.3-3.1,0.4-4.7,0.4c-0.9,0-1.8,0-2.6-0.1
				c-2.7-0.2-5.3-0.8-7.8-1.7c-1.7-0.6-3.2-1.4-4.6-2.2c-0.1,0-0.2-0.1-0.2-0.1c-0.1,0-0.2,0-0.3,0.1c-0.1,0-0.2,0.1-0.2,0.1
				c-0.1,0.1-0.1,0.2-0.1,0.4c-0.1,1.4-0.4,2.7-0.8,3.9c-0.4,1.2-1,2.3-1.7,3.4c-0.8,1.2-1.9,2.3-3.1,3.4c-2,1.7-4.4,3.1-7.8,4.7
				c0,0-0.1,0.1-0.1,0.1c-1.8,0.8-3.6,1.5-5.2,2.2l-0.2,0.1l-0.3,0.1c-2.2,0.9-4.4,1.9-6.4,3c-4,2.1-7.5,4.7-10.6,7.6
				c-2.7,2.5-5.2,5.5-7.4,8.8c-1.3,2-2.6,4.2-3.8,6.6l6.9-2.6l15.4-5.8c0,0,0,0,0,0l0,0l18.4,49l18.3,48.8c-0.3,0.1-0.5,0.2-0.8,0.3
				c4.1,0.7,8.3,1.1,12.6,1.1c2,0,4.1-0.1,6.2-0.3c4.4-0.4,8.7-1.2,12.9-2.3c4.2-1.2,8.2-2.8,11.8-4.7c3.8-2,7.3-4.5,10.3-7.3
				c0.1-0.1,0.2-0.3,0.2-0.5c0.1-0.1,0.1-0.4,0.1-0.5c-1-2.2-2.1-4.3-3.1-6.4c-1.8-3.6-3.7-7.3-5.1-11.2c-1.3-3.7-2.1-7.2-2.4-10.5
				c-0.1-1.3-0.1-2.7,0-4.1c0.1-1.2,0.2-2.5,0.5-3.9c0.8-4.2,2.3-8.2,3.8-12.1c0.3-0.8,0.6-1.6,0.9-2.4c0.8-2,1.8-4.8,2.5-7.6
				c0.6-2.4,1-4.9,1.1-7.5c0.1-1.1,0.1-2.3,0-3.4c2.6,0.4,5.2,0.7,7.9,1c3.6,0.3,7,0.5,10.3,0.5c2.8,0,5.5-0.1,8.1-0.4
				c3-0.3,6-0.7,8.9-1.3c2.8-0.6,5.6-1.3,8.3-2.3c2.7-0.9,5.4-2,8.1-3.3c1.4-0.7,2.4-1.2,3.4-1.8c1-0.6,2-1.3,3-2
				c2-1.5,3.7-3.3,5.1-5.2c0.7-1,1.3-2,1.8-3.1c0.5-1,0.9-2.2,1.2-3.4c0.5-2.2,0.5-4.8-0.1-7.3c-0.5-2.2-1.4-4.4-2.8-6.7
				c-1.1-1.9-2.6-3.9-4.5-6.1c-1.4-1.6-2.9-3.2-4.2-4.4c0,0,0-0.1-0.1-0.1l-0.3-0.4l-0.5-0.5c-1-1-2-2-3-2.9c-1-0.9-2.1-1.9-3.3-3
				c-2.2-1.9-4.4-3.7-6.9-5.6c-6.3-4.8-12.9-9.1-18.6-12.8C229.5,137,229.4,136.9,229.3,136.9L229.3,136.9z"/>
			<path class="st15" d="M274.1,185c-1,1.4-2.1,2.7-3.2,3.9c-2.2,2.3-4.7,4.2-7.5,5.8c-3.3,1.8-7,3.1-10.7,3.8
				c-3.9,0.8-7.8,1-11.8,0.9c-4.1-0.1-8.2-0.6-12.3-1.4c-4.1-0.8-8.2-1.8-12.2-3c-7.2-2.2-14.2-5-20.9-8.3c1.6,1.6,3.1,3.4,4.4,5.2
				c1.6,2.1,3,4.4,4.3,6.7c1.2,2.3,2.3,4.7,3.1,7.2c0.2,0.7,0.4,1.4,0.6,2.2v0c2.5,0.4,5.1,0.7,7.9,1c3.5,0.3,7,0.5,10.3,0.5
				c2.8,0,5.5-0.1,8.1-0.4c3-0.3,5.9-0.7,8.9-1.3c2.8-0.6,5.6-1.4,8.3-2.3c2.7-0.9,5.4-2,8.1-3.3c1.4-0.7,2.5-1.2,3.4-1.8
				c1-0.6,2-1.3,3-2c2-1.5,3.7-3.3,5.1-5.2c0.7-1,1.3-2,1.8-3.1c0.5-1,0.9-2.2,1.2-3.4c0.2-0.6,0.3-1.3,0.3-1.9
				C274.2,184.9,274.2,185,274.1,185"/>
			<path class="st15" d="M126.7,175.2l-0.2,0.1l-0.3,0.1l-0.2,0.1l-0.3,0.1c-2.2,0.9-4.4,1.9-6.4,3c-3.9,2.1-7.5,4.7-10.6,7.6
				c-2.7,2.5-5.2,5.5-7.4,8.8c-1.4,2-2.6,4.2-3.8,6.6l6.9-2.6l15.4-5.8c0,0,0,0,0,0l0,0l18.4,49l1,2.7c-1.8-6.5-3.7-13-5.6-19.5
				c-1.2-4.2-2.4-8.5-3.5-12.7c-0.6-2.1-1.1-4.3-1.6-6.4c-0.4-1.9-0.9-3.8-1.3-5.7c-0.7-3.2-1.4-6.5-1.7-9.8
				c-0.2-1.7-0.3-3.4-0.2-5.2c0.1-1.6,0.2-3.2,0.6-4.8c0.2-0.8,0.4-1.6,0.8-2.4c0.3-0.7,0.6-1.3,0.9-2c0.4-0.7,0.8-1.3,1.3-1.9
				c0.2-0.2,0.4-0.4,0.5-0.6C128.5,174.5,127.6,174.8,126.7,175.2"/>
			<path class="st15" d="M195.4,186.7c-0.1,0.1-0.1,0.1-0.1,0.2c0,0.1,0,0.2,0,0.3c0.4,0.5,0.8,0.9,1.2,1.4c0.4,0.5,0.8,0.9,1.3,1.4
				c0,0,0,0-0.1-0.1c0.6,0.7,1.2,1.4,1.8,2.1c0.6,0.8,1.2,1.5,1.8,2.3c1.1,1.5,2.1,3.1,3,4.8c0,0,0,0,0-0.1c1.2,2.4,2.1,4.9,2.6,7.5
				c0,0,0,0,0,0h0c0,0,0,0,0,0c0.2,1.1,0.3,2.2,0.4,3.4c0.1,1.1,0.1,2.3,0,3.4c0,0,0,0,0-0.1c0,0.3,0,0.6-0.1,0.8
				c0,0.5-0.1,1.1-0.1,1.6c-0.1,0.6-0.1,1.3-0.3,1.9c-0.1,0.3-0.1,0.6-0.2,0.8c0,0.2-0.1,0.4-0.1,0.6c0,0.2-0.1,0.4-0.1,0.6
				c0.2-0.6,0.4-1.2,0.6-1.8c0.2-0.8,0.4-1.7,0.6-2.5c0.2-1.1,0.3-2.3,0.3-3.4c0.1-2.8-0.3-5.7-1.2-8.4c-0.4-1.5-1-2.9-1.6-4.2
				c-0.6-1.3-1.3-2.5-2.1-3.7c-1.5-2.4-3.3-4.7-5.2-6.8c-0.6-0.7-1.3-1.5-2-2.1c-0.1-0.1-0.1-0.1-0.2-0.1
				C195.6,186.6,195.5,186.6,195.4,186.7"/>
			<path class="st16" d="M206.9,206.6L206.9,206.6C206.9,206.6,206.9,206.6,206.9,206.6C206.9,206.6,206.9,206.6,206.9,206.6"/>
			<path class="st15" d="M131,204.9c-0.4,0.8-0.8,1.6-1.1,2.4c-0.4,0.8-0.7,1.6-1.1,2.5c-0.5,1.3-1,2.5-1.5,3.8l0.7,1.9
				c0.2-0.8,0.4-1.6,0.6-2.3c0.4-1.4,0.9-2.8,1.3-4.1c0,0,0,0.1,0,0.1c0.5-1.4,1-2.7,1.6-4c0.1-0.1,0-0.3-0.1-0.3c0,0-0.1,0-0.1,0
				C131.1,204.7,131.1,204.8,131,204.9"/>
			<path class="st15" d="M219.6,148.5c-0.1,0.1-0.1,0.2-0.1,0.3c0,0.1,0,0.2,0.1,0.3c0.3,0.4,0.6,0.7,0.9,1c0.3,0.4,0.6,0.8,1,1.2
				c0.6,0.8,1.2,1.6,1.8,2.4c0,0,0,0,0,0c0,0,0.1,0.1,0.1,0.1c0,0,0,0,0,0c0,0,0,0,0,0c3.4,4.6,6.3,9.6,9.3,14.5
				c1.4,2.3,2.8,4.6,4.2,6.9c0.7,1.1,1.5,2.3,2.3,3.4c0.8,1.1,1.6,2.2,2.4,3.2c2.1,2.6,4.3,5.1,6.9,7.2c0.1,0.1,0.2,0.1,0.3,0
				c0.1-0.1,0.1-0.3,0-0.3c-1.2-1-2.4-2.1-3.5-3.3c-1.1-1.2-2.2-2.5-3.2-3.8c-1.6-2.2-3-4.4-4.4-6.7c-1.4-2.3-2.7-4.7-4-7
				c-2.9-5-5.8-10-9.3-14.6c-0.6-0.8-1.3-1.6-2-2.4c-0.3-0.4-0.7-0.8-1-1.1c-0.2-0.2-0.3-0.3-0.5-0.5c-0.2-0.2-0.4-0.4-0.6-0.6
				c-0.1-0.1-0.2-0.1-0.3-0.1h0C219.8,148.4,219.7,148.4,219.6,148.5 M223.4,153.8C223.4,153.8,223.4,153.8,223.4,153.8
				C223.3,153.8,223.3,153.8,223.4,153.8C223.3,153.8,223.3,153.8,223.4,153.8"/>
			<path class="st12" d="M144.9,156.7c-0.2,0.2-0.1,0.5,0.1,0.7c1.8,1.4,3.8,2.3,5.9,3c2.3,0.7,4.6,1.2,7,1.3c2.3,0.2,4.7,0.1,7-0.3
				c1.1-0.2,2.2-0.4,3.2-0.7c1.3-0.4,2.5-0.9,3.6-1.5c0.8-0.4,1.5-0.8,2.2-1.3c0.2-0.1,0.3-0.5,0.1-0.7c-0.2-0.2-0.5-0.3-0.7-0.1
				c-0.7,0.4-1.3,0.8-2,1.2c-0.9,0.5-1.8,0.9-2.8,1.2c-0.8,0.3-1.6,0.5-2.4,0.7c0,0,0.1,0,0.1,0c-2.5,0.6-5.2,0.7-7.8,0.6
				c0,0,0,0,0,0c-2.4-0.1-4.9-0.5-7.2-1.3c0,0,0,0,0,0c-1.7-0.5-3.3-1.3-4.8-2.2c0,0,0.1,0,0.1,0.1c-0.4-0.3-0.8-0.5-1.1-0.8
				c-0.1-0.1-0.2-0.1-0.3-0.1C145.1,156.5,145,156.6,144.9,156.7 M151.3,159.6C151.3,159.6,151.3,159.6,151.3,159.6
				C151.3,159.6,151.3,159.6,151.3,159.6 M158.6,160.9C158.7,160.9,158.7,160.9,158.6,160.9C158.7,160.9,158.7,160.9,158.6,160.9"/>
			<path class="st4" d="M159.7,78.1c-1.7,0-3.5,0.1-5.2,0.2c-4.3,0.4-8.3,1.1-11.9,2.4c-1.9,0.6-3.7,1.4-5.3,2.4
				c-1.7,0.9-3.2,2-4.6,3.3c-1.4,1.2-2.6,2.7-3.6,4.3c-1.3,2-2.1,4.4-2.6,6.9c-0.2,1.3-0.3,2.8-0.3,4.3c0.1,1.3,0.2,2.7,0.6,4.3
				c0.4,1.8,1,3.7,2,5.7c0.7,1.6,1.4,3,2.2,4.3c0.5,0.8,1,1.6,1.4,2.2c0.5,0.7,1,1.3,1.5,1.7c0.5,0.5,1,0.7,1.5,0.8
				c0.1,0,0.2,0,0.2,0c0.5,0,1-0.2,1.2-0.6c0.4-0.5,0.4-1.2,0.4-1.8c0-0.8-0.2-1.6-0.4-2.4c-0.3-1.2-0.7-2.4-1.2-3.8
				c-0.2-0.5-0.3-1-0.5-1.4c-0.2-0.7-0.4-1.4-0.6-2.1c-0.6-3-0.9-6-0.8-8.9l0,0c0.1-2,0.4-3.9,0.9-5.8c1.5,0.5,3.1,0.9,4.8,1.1
				c1.1,0.1,2.2,0.2,3.4,0.2c1.2,0,2.5-0.1,4.1-0.2c1.8-0.2,3.7-0.4,5.5-0.6c0.7-0.1,1.3-0.2,2-0.2c1-0.1,2.3-0.3,3.6-0.4
				c0.9-0.1,1.8-0.1,2.8-0.1c0.5,0,1,0,1.5,0l0,0c1.6,0.1,3.2,0.2,4.8,0.5c1.6,0.3,3.3,0.7,5,1.2c1.8,0.6,3.6,1.3,5.5,2.2
				c1.7,0.8,3.3,1.7,4.9,2.7l0,0c2.7,1.7,5,3.7,6.9,5.7c0.2,0.2,0.4,0.4,0.5,0.6c0.1,0.1,0.2,0.2,0.3,0.2c0,0,0,0,0,0
				c0.2,0,0.2,0,0.3-0.1c0.1-0.1,0.2-0.2,0.2-0.3c0-0.1,0-0.3-0.1-0.4l-0.1-0.1l-0.1-0.1c0.1-0.1,0.2-0.2,0.2-0.4
				c0-3.2-0.3-6-0.7-8.5c-0.3-1.4-0.6-2.8-1-4.1c-0.4-1.2-0.9-2.5-1.6-3.7c-1.1-2-2.4-3.8-4.1-5.2c-1.5-1.2-3.2-2.3-5.3-3.1
				c-1.8-0.7-3.8-1.3-6.3-1.8c-1.9-0.4-3.8-0.7-5.7-0.8C164.1,78.2,161.9,78.1,159.7,78.1"/>
			<path class="st10" d="M160.7,88.1c-1.3,0.1-2.7,0.3-4,0.6c-2.7,0.5-5.3,1.1-8,1.5l0.1,0c-2.8,0.5-5.6,0.8-8.4,0.5c0,0,0,0,0.1,0
				c-0.9-0.1-1.8-0.2-2.7-0.4c-0.3-0.1-0.4,0.4-0.1,0.5c1.3,0.3,2.7,0.5,4.1,0.6c1.4,0.1,2.8,0,4.2-0.1c2.8-0.3,5.6-0.8,8.4-1.3
				c0,0-0.1,0-0.1,0c0.3,0,0.5-0.1,0.8-0.1c0,0-0.1,0-0.1,0c1.6-0.3,3.3-0.5,4.9-0.6c0.8,0,1.6-0.1,2.4-0.1c0.8,0,1.7,0,2.5,0.1
				c0,0-0.1,0-0.1,0c3.4,0.4,6.7,1.2,9.9,2.4c-0.1,0-0.1,0-0.2-0.1c0.9,0.3,1.8,0.7,2.6,1.1c0.9,0.4,1.8,0.9,2.7,1.3
				c1.8,0.9,3.4,2,5,3.1c-0.1,0-0.1-0.1-0.2-0.1c1.1,0.8,2.1,1.6,3.1,2.5c0.5,0.4,1,0.9,1.4,1.4c0.5,0.6,1.1,1.1,1.6,1.7
				c0.1,0.1,0.3,0.2,0.4,0.2c0.2,0.1,0.5,0,0.7-0.1c0.2-0.1,0.4-0.3,0.4-0.6c0.1-0.2,0-0.5-0.1-0.7c-0.8-1.1-1.8-2.1-2.8-3
				c-0.9-0.9-1.9-1.7-3-2.4c-2.1-1.6-4.4-2.9-6.8-4.1c-1.2-0.6-2.5-1.1-3.7-1.5c-1.2-0.4-2.5-0.8-3.7-1.1c-2.5-0.6-5-1.1-7.6-1.2
				c-0.4,0-0.7,0-1.1,0C162.5,87.9,161.6,88,160.7,88.1 M164.7,89.2C164.6,89.2,164.6,89.1,164.7,89.2
				C164.6,89.1,164.6,89.2,164.7,89.2"/>
			<path class="st10" d="M174,85c0,0.1,0,0.3,0.2,0.3c1.3,0.2,2.5,0.6,3.8,1.1c0,0-0.1,0-0.1,0c1.1,0.4,2.1,0.9,3.1,1.5
				c1,0.6,2.1,1.2,3,1.9c1,0.7,1.9,1.5,2.8,2.3c0.9,0.8,1.7,1.6,2.4,2.6c0.1,0.1,0.2,0.3,0.3,0.4c0.1,0.2,0.3,0.3,0.5,0.4
				c0.2,0,0.4,0,0.6-0.1c0.5-0.3,0.5-0.9,0.1-1.3c-0.6-0.5-1.1-1.1-1.7-1.6c-0.6-0.5-1.2-1.1-1.8-1.6c-0.6-0.5-1.3-1-1.9-1.4
				c-0.7-0.5-1.4-0.9-2.2-1.4c-1.4-0.8-2.8-1.4-4.3-2c-0.7-0.3-1.5-0.5-2.2-0.7c-0.8-0.2-1.6-0.4-2.5-0.5c0,0,0,0-0.1,0
				C174.2,84.8,174.1,84.9,174,85 M184.1,89.8C184.1,89.8,184.1,89.8,184.1,89.8C184.1,89.8,184.1,89.8,184.1,89.8"/>
			<path class="st4" d="M159.6,132c-0.1,0.9-0.1,1.9,0.1,2.9c0.1,0.8,0.4,1.6,0.8,2.5c0.7,1.4,1.8,2.7,3.2,3.5
				c1.3,0.8,2.9,1.3,4.4,1.3c1.6,0,3.1-0.5,4.4-1.5c2.3-1.7,3.7-4.7,3.9-8.1c-1.2,0.2-2.4,0.4-3.6,0.5c-1.6,0.1-3.3,0.2-5,0.1
				C165.1,133,162.3,132.6,159.6,132C159.6,132,159.6,132,159.6,132"/>
			<path class="st3" d="M170.7,139.2"/>
			<path class="st3" d="M162.3,132.9L162.3,132.9c0.5,0.2,0.9,0.5,1.4,0.6c0.5,0.2,0.9,0.3,1.4,0.4c0,0,0,0,0,0
				c0.7,0.2,1.5,0.3,2.2,0.3c0.7,0,1.4,0.1,2.1,0h0c0,0,0,0,0,0c0,0,0,0,0,0c0,0,0,0,0,0c1.6-0.1,3.2-0.4,4.8-0.9c0,0,0,0,0,0
				c0.4-0.1,0.9-0.3,1.3-0.5c0.2-0.1,0.4-0.2,0.5-0.3c-1.1,0.2-2.1,0.3-3.1,0.4c-1,0.1-2,0.1-3.1,0.1c-0.6,0-1.3,0-1.9,0
				c-2.3-0.1-4.5-0.4-6.6-0.8C161.6,132.6,161.9,132.8,162.3,132.9"/>
			<path class="st17" d="M162.8,137.3c-0.2,0-0.3,0-0.5,0c-0.6,0-1.2,0.1-1.7,0.2c0.7,1.4,1.8,2.6,3.1,3.4c1.3,0.8,2.9,1.3,4.4,1.3
				c1.6,0,3.1-0.5,4.4-1.5l0.2-0.1c-0.5-0.5-1.2-0.9-2-1.4c-1.2-0.6-2.6-1.1-4-1.4C165.4,137.5,164.1,137.3,162.8,137.3"/>
			<path class="st4" d="M154.6,124.3c0.9-0.2,1.2-2,0.8-4c-0.4-2-1.5-3.6-2.3-3.4c-0.9,0.2-1.2,2-0.8,4
				C152.7,123,153.7,124.5,154.6,124.3"/>
			<path class="st4" d="M180.7,118.1c0.8-0.2,1.1-1.8,0.7-3.7c-0.4-1.9-1.4-3.3-2.2-3.2c-0.8,0.2-1.1,1.8-0.7,3.7
				C178.9,116.8,179.9,118.2,180.7,118.1"/>
			<path class="st4" d="M144.5,106.9c0.6,0.9,3.5,0,6.5-1.9c3-1.9,5-4.2,4.4-5.1c-0.6-0.9-3.5,0-6.5,1.9
				C145.9,103.8,143.9,106,144.5,106.9"/>
			<path class="st4" d="M135.2,92.3c-0.2,0-0.5,0-0.8,0.1c-0.3,0.1-0.5,0.2-0.7,0.3c-0.4,0.2-0.8,0.5-1.2,0.8
				c-0.4,0.3-0.7,0.7-1,1.3c-0.6,1-1.1,2.2-1.5,3.6c-0.4,1.3-0.7,2.7-0.9,4.5c-0.4,3.1-0.3,6.3,0.3,9.5c0.3,1.5,0.6,2.8,1.1,4
				c0.2,0.5,0.5,1.2,0.9,1.8c0.3,0.5,0.7,1,1.1,1.4c0.4,0.4,0.8,0.7,1.3,1c0.2,0.1,0.5,0.2,0.8,0.3c0.3,0.1,0.6,0.1,0.9,0.2
				c0.2,0,0.3,0,0.5,0c0.1,0,0.1,0,0.2,0c0.2,0,0.5,0,0.7-0.1c0.2-0.1,0.5-0.2,0.7-0.3c0.4-0.2,0.7-0.5,0.9-0.7
				c0.3-0.3,0.5-0.6,0.7-1.1c0.3-0.8,0.4-1.8,0.5-2.4c0.1-0.9,0-1.8-0.1-2.5c0-0.5-0.1-1-0.2-1.6l-0.1-0.5l0-0.3
				c-0.1-0.5-0.1-1-0.2-1.5c-0.1-0.6-0.2-1.2-0.3-1.8l-0.1-0.5l-0.1-0.8c-0.2-1.2-0.4-2.3-0.5-3.5c-0.2-1.5-0.3-2.8-0.4-4.1
				c-0.1-1.4,0-2.8,0.2-4.2c0-0.4,0.1-0.8,0.2-1.2c0-0.1,0-0.3-0.2-0.3c0,0,0,0,0,0c-0.1,0-0.2,0-0.2,0.1c0-0.1-0.1-0.3-0.2-0.4
				c-0.1-0.2-0.3-0.4-0.5-0.5c-0.2-0.1-0.4-0.3-0.6-0.4c-0.2-0.1-0.5-0.2-0.8-0.2C135.3,92.3,135.3,92.3,135.2,92.3"/>
			<path class="st18" d="M169.2,109.3L169.2,109.3L169.2,109.3L169.2,109.3c-0.2,0-0.3,0.2-0.2,0.3c0.2,0.8,0.5,1.6,0.8,2.2
				c0.4,0.9,0.9,1.8,1.4,2.7l0.4,0.7c0.9,1.6,1.8,3.3,2.6,5c0.5,1.2,0.8,2.2,1,3.1c0.1,0.5,0.1,1,0,1.4c0,0.3-0.1,0.6-0.2,0.8
				c-0.1,0.2-0.2,0.4-0.4,0.6c-0.2,0.2-0.3,0.3-0.5,0.5c-0.3,0.2-0.6,0.4-1,0.5c-0.4,0.2-0.9,0.3-1.3,0.4c-0.3,0-0.5,0-0.8,0
				c-0.4,0-0.8,0.4-0.8,0.8c0,0.2,0.1,0.4,0.2,0.6c0.1,0.1,0.3,0.2,0.5,0.2c1.3-0.2,3.7-0.7,4.8-2.7c0.6-1,0.6-2.4,0.2-4.1
				c-0.2-0.8-0.6-1.6-0.9-2.3c-0.4-0.9-0.8-1.7-1.2-2.4c-0.4-0.6-0.7-1.3-1.1-1.9l-0.2-0.4c-0.5-0.8-1-1.6-1.4-2.5
				c-0.5-0.9-0.8-1.6-1.1-2.2c-0.2-0.5-0.4-0.9-0.5-1.3C169.4,109.4,169.3,109.3,169.2,109.3"/>
		</g>
		<path class="st3" d="M119.6,193.4C119.6,193.4,119.6,193.4,119.6,193.4l-15.4,5.8l-56.4,21.2l15.5,41.4c0.1,0,0.1-0.1,0.2-0.1
			c0.4-0.4,0.8-0.7,1.2-1c0.5-0.3,0.9-0.5,1.2-0.6c0.3-0.1,0.5-0.1,0.8-0.1c0.1,0,0.2,0,0.3,0c0.3,0,0.6,0.2,0.7,0.3
			c0.2,0.2,0.4,0.5,0.5,0.8c0.1,0.3,0.1,0.6,0.1,0.9c0,0.7-0.1,1.3-0.3,2c0.7-0.8,1.3-1.3,1.8-1.8c0.4-0.4,1.1-1,1.8-1.5
			c0.6-0.5,1.2-0.8,1.7-1c0.5-0.2,1-0.3,1.5-0.3h0c0,0,0.1,0,0.1,0c0.3,0,0.5,0.1,0.7,0.2c0.1,0,0.2,0.1,0.3,0.1
			c0.1,0.1,0.2,0.1,0.3,0.2c0.2,0.2,0.3,0.6,0.3,1.2c0,0.4-0.1,0.8-0.3,1.2c0.4-0.3,0.7-0.5,1-0.6c0.7-0.3,1.2-0.5,1.7-0.6
			c0.1,0,0.2,0,0.3,0c0.1,0,0.1,0,0.2,0c0.2,0,0.3,0,0.5,0.1c0.3,0.1,0.5,0.2,0.8,0.4c0.2,0.2,0.4,0.4,0.5,0.7
			c0.1,0.3,0.1,0.5,0.1,0.8c0,0.6-0.1,1.3-0.4,2.1c-0.1,0.2-0.1,0.3-0.2,0.5c0.2-0.1,0.4-0.2,0.7-0.3c0.1,0,0.2,0,0.3-0.1h0.1
			c0.1,0,0.2,0,0.3,0c0.1,0,0.2,0.1,0.4,0.1c0.1,0.1,0.2,0.1,0.3,0.3c0.1,0.1,0.2,0.3,0.3,0.4c0.1,0.2,0.2,0.3,0.2,0.4
			c0.1,0.2,0.1,0.4,0.1,0.5c0,0.6-0.1,1.2-0.3,1.6c-0.2,0.5-0.4,1.1-0.6,1.7c-0.2,0.4-0.4,0.9-0.6,1.3c-0.2,0.5-0.5,1-0.7,1.5
			l-0.1,0.2c-1,2.3-2,4.7-3.2,6.9c-0.7,1.3-1.3,2.4-2,3.4c-0.8,1.2-1.6,2.2-2.4,3.1c-0.3,0.3-0.5,0.6-0.9,0.9l11.5,30.7
			c24-9,47.9-17.9,71.8-26.9L138,242.4L119.6,193.4L119.6,193.4z"/>
		<text transform="matrix(0.9422 -0.335 0.335 0.9422 90.0926 279.343)" class="st5 st19 st20">E</text>
	</g>
	<g>
		<path class="st21" d="M459.7,179.1c-1.4,0-2.8,0.1-4.2,0.4c-1,0.2-2,0.4-2.8,0.7c-0.8,0.3-1.6,0.6-2.4,1.1c-1.5,0.8-3,1.9-4.3,3.2
			c-1.3,1.2-2.4,2.6-3.4,4.2c-0.9,1.5-1.6,3.1-2.1,4.8c-0.9,3.1-0.8,6.2,0.2,8.8c0.5,1.4,1.3,2.8,2.4,4c0.6,0.7,1.3,1.3,2.1,1.9
			c-0.1,0.1-0.2,0.2-0.3,0.3c-0.5,0.8-1,1.7-1.4,2.7c-0.3,0.9-0.6,1.9-0.8,3c-0.2,1-0.3,2.1-0.3,3.2c-0.1,2,0.2,4.2,0.6,6.5
			c0.4,2,1,4,1.8,5.9c0.8,1.9,1.9,3.8,3.2,5.7c1.2,1.7,2.7,3.3,4.3,4.7c1.5,1.3,3.2,2.5,5,3.6c1.7,1,3.5,1.9,5.6,2.7
			c3.5,1.4,7.5,2.4,12.4,3.3c4.4,0.8,8.9,1.2,12.7,1.5l0.9,0.1c0.6,0,1.2,0.1,1.8,0.1c0.8,0.1,1.6,0.1,2.4,0.1l0.2,0l0.4,0
			c2.2,0.1,4.4,0.2,6.5,0.5c1.5,0.3,2.6,0.6,3.6,1.1l0.2,0.1l0.1,0.1c0,0,0,0.1,0,0.2c0.1,0.2,0.3,0.3,0.5,0.3c0.1,0,0.2,0,0.2-0.1
			c1.3-0.8,2.7-1.6,3.9-2.5c1.2-0.8,2.3-1.5,3.2-2.3c2-1.6,4-3.4,5.8-5.3c3.9-4.3,6.7-8.8,8.1-13.5c0.7-2.3,1.1-4.6,1.1-6.8
			c0-1.9-0.2-3.8-0.6-5.8c-0.4-2-1.1-3.9-2-5.7c-0.4-0.8-1-1.7-1.6-2.5c-0.6-0.7-1.2-1.4-2-2.1c-0.5-0.4-1-0.7-1.5-1
			c0.9-0.5,1.8-1.1,2.6-1.8c0.3-0.3,0.7-0.7,1-1.1c0.3-0.4,0.5-0.8,0.8-1.3c0.2-0.4,0.3-0.8,0.4-1.4c0.1-0.5,0.1-1,0-1.6
			c-0.1-0.4-0.2-0.9-0.4-1.4c-0.2-0.4-0.4-0.7-0.7-1.1c-0.5-0.5-1.1-0.9-1.9-1c-0.3-0.1-0.6-0.1-0.9-0.1c-0.5,0-0.9,0.1-1.5,0.2
			c-0.7,0.2-1.5,0.5-2.4,0.9c-0.7,0.4-1.4,0.8-2.2,1.4c-0.1,0.1-0.2,0.2-0.4,0.3c0.4-1.3,0.6-2.4,0.7-3.5c0.1-1,0-1.9-0.1-2.8
			c-0.2-0.9-0.6-1.7-1.1-2.3c-0.5-0.6-1.3-1.1-2.3-1.4c-0.4-0.1-0.9-0.2-1.3-0.2c-0.3,0-0.6,0-1,0.1c-0.6,0.1-1.3,0.5-1.9,1
			c-0.5,0.4-1,1-1.5,1.8c-0.4,0.6-0.7,1.3-1.1,2.2c-0.3,0.8-0.5,1.6-0.7,2.5l-0.1,0.3c-0.5-1.5-1.2-2.9-2.1-4.2
			c-1.3-2.1-3-3.9-4.9-5.2c-0.9-0.7-2-1.3-3.1-1.7c-0.7-0.3-1.6-0.5-2.6-0.7c-0.7-0.1-1.4-0.2-2-0.2c-1.2,0-2.3,0.2-3.4,0.5
			c-2.1,0.6-3.8,1.6-5,3c-0.4,0.5-0.8,1.1-1.1,1.7c-0.3-0.5-0.7-0.9-1.1-1.3c-0.8-0.9-1.7-1.8-2.7-2.6c-1.9-1.6-3.9-2.9-5.9-3.8
			c-1-0.5-2.1-0.9-3.3-1.2c-1.1-0.3-2.2-0.6-3.4-0.7C461.8,179.2,460.7,179.1,459.7,179.1"/>
		<path class="st22" d="M489.5,257.3c-0.1,0-0.1,0-0.1,0c-0.1,0-0.2,0.1-0.3,0.2c-0.3,0.8-0.6,1.5-0.8,2.3c-0.1,0.4-0.2,0.8-0.3,1.2
			c-0.1-0.4-0.4-0.8-0.6-1.2c-0.5-0.6-1.1-1.1-1.8-1.5c-0.7-0.3-1.4-0.6-2.3-0.7c-0.4-0.1-0.8-0.1-1.3-0.1c-0.4,0-0.8,0-1.2,0.1
			c-1.7,0.2-3.4,0.7-4.8,1.6c-0.7,0.4-1.4,1-1.9,1.6c-0.7,0.8-1.3,1.8-1.9,3.1c-0.2,0.5-0.4,0.9-0.6,1.4l0-0.1l0-0.1
			c-0.1-0.2-0.3-0.4-0.5-0.4c0,0-0.1,0-0.1,0c-0.1,0-0.2,0.1-0.3,0.3c-0.1,0.1-0.1,0.2,0,0.4c0.2,0.6,0.3,1.2,0.4,1.8
			c0,0.1,0,0.3,0,0.4c0.1,0.9,0.1,1.9-0.1,2.9c-0.2,1.2-0.5,2.4-1,3.6c-0.6,1.3-1.3,2.6-2.2,3.7c-0.1,0.1-0.1,0.3-0.1,0.4
			c0,0.1,0,0.1,0.1,0.2c0,0,0,0.1,0,0.1c0.7,1.2,1.7,2.2,2.9,3.2c1.2,0.9,2.6,1.7,4.1,2.3c1.5,0.6,3,1.1,4.6,1.3
			c1,0.2,1.9,0.2,2.8,0.2c0.6,0,1.3,0,1.9-0.1c1.2-0.1,2.3-0.4,3.3-0.8c1-0.4,1.9-1,2.7-1.7c0.8-0.7,1.4-1.6,1.9-2.7
			c0.5-1.1,0.8-2.3,0.9-3.7c0-0.1,0-0.2-0.1-0.3c-0.1-0.1-0.2-0.2-0.4-0.2c-0.2-0.1-0.3-0.3-0.4-0.4c-0.7-1-1.4-2-1.9-3.2
			c-0.6-1.4-1-2.8-1.2-4.4c-0.2-1.7-0.2-3.5,0-5.2l0,0c0.2-1.6,0.6-3.1,1.2-4.4l0.1-0.1c0.1-0.2,0.1-0.3,0.1-0.4
			c0-0.1-0.1-0.2-0.2-0.3C489.7,257.3,489.6,257.3,489.5,257.3"/>
		<path class="st23" d="M480.7,257.6c-1.7,0.2-3.4,0.7-4.8,1.6c-0.7,0.4-1.4,1-1.9,1.6c-0.7,0.8-1.3,1.8-1.9,3.1
			c-0.2,0.5-0.4,0.9-0.6,1.4l0-0.1l0-0.1c-0.1-0.2-0.3-0.4-0.5-0.4c0,0-0.1,0-0.1,0c-0.1,0-0.2,0.1-0.3,0.3c-0.1,0.1-0.1,0.3,0,0.4
			c0.2,0.6,0.3,1.2,0.4,1.8c0,0.1,0,0.3,0.1,0.4c0.1,0.9,0.1,1.9-0.1,2.8c-0.1,0.5-0.2,1.1-0.3,1.6c1.5-0.2,3-0.4,4.5-0.8
			c0,0,0,0,0,0c0,0,0,0,0,0c0,0,0,0,0,0c1-0.3,1.9-0.6,2.9-0.9c0.9-0.4,1.7-0.8,2.6-1.2c0,0,0,0,0,0c0.6-0.3,1.2-0.7,1.7-1.1
			c0.5-0.4,1.1-0.9,1.6-1.4c0,0,0,0,0,0c0.4-0.4,0.8-0.8,1.1-1.3c0.3-0.4,0.6-0.9,0.9-1.4c0,0,0,0,0,0c0,0,0,0,0,0c0,0,0,0,0,0
			c0.7-1.3,1.3-2.6,1.7-4c0-0.1-0.1-0.1-0.1-0.2c-0.5-0.6-1.1-1.1-1.8-1.5c-0.7-0.3-1.4-0.6-2.3-0.7c-0.4-0.1-0.9-0.1-1.3-0.1
			C481.5,257.6,481.1,257.6,480.7,257.6 M485.7,264C485.7,264,485.7,264,485.7,264C485.7,264,485.7,264,485.7,264
			C485.7,264,485.7,264,485.7,264C485.7,264,485.7,264,485.7,264 M475,271.3C475,271.3,475,271.3,475,271.3
			C475,271.3,475,271.3,475,271.3"/>
		<path class="st24" d="M446.9,221.4c-0.4,0-0.8,0.1-1.2,0.2c-0.5,0.2-1,0.4-1.5,0.8c-0.9,0.7-1.8,1.7-2.5,3
			c-0.7,1.2-1.2,2.6-1.5,4.1c-0.2,0.8-0.2,1.5-0.3,2.3c0,0.7,0,1.5,0.1,2.3c0.2,1.4,0.7,2.8,1.5,3.9c0.8,1.2,2,2.2,3.4,2.9
			c0.1,0,0.2,0.1,0.3,0.1c0.2,0.1,0.3,0.2,0.4,0.2c0.1,0,0.3-0.1,0.4-0.1c1.5-1.6,2.8-3.4,3.9-5.2c0.6-1,1.1-2.1,1.5-3.2
			c0.4-1.1,0.7-2.2,0.8-3.3c0.1-1.1,0-2.2-0.2-3.2c-0.3-1-0.8-2-1.6-2.9c-0.5-0.5-1-1-1.5-1.3c-0.2-0.1-0.5-0.2-0.8-0.4
			c-0.3-0.1-0.5-0.1-0.9-0.2C447.1,221.4,447,221.4,446.9,221.4 M445.5,240C445.5,240,445.4,239.9,445.5,240
			c0.1-0.2,0.3-0.4,0.5-0.5C445.8,239.6,445.6,239.8,445.5,240"/>
		<path class="st23" d="M444.4,224.8c0,0.2,0.1,0.3,0.3,0.3c0.1,0,0.2,0,0.3,0c0,0,0,0,0,0c0.3,0,0.6,0.1,0.9,0.3
			c0.3,0.1,0.5,0.3,0.8,0.5c0.3,0.2,0.5,0.5,0.7,0.7c0.3,0.4,0.5,0.8,0.7,1.2c0.3,0.8,0.5,1.7,0.7,2.6c0,0,0-0.1,0-0.1
			c0.1,0.4,0.1,0.9,0.1,1.3c0,0.3,0.2,0.5,0.5,0.5c0.3,0,0.5-0.2,0.5-0.5c0-1.6-0.4-3.3-1.3-4.7c-0.4-0.6-1-1.2-1.6-1.6
			c-0.3-0.2-0.7-0.4-1-0.5c-0.4-0.1-0.9-0.2-1.3-0.2c0,0,0,0,0,0C444.5,224.5,444.4,224.6,444.4,224.8 M445.9,225.4
			C445.9,225.4,445.9,225.4,445.9,225.4C445.9,225.4,445.9,225.4,445.9,225.4 M448.1,227.8c0,0,0,0.1,0,0.1
			C448.1,227.8,448.1,227.8,448.1,227.8"/>
		<path class="st22" d="M476.3,201c-1.2,0-2.5,0.1-3.7,0.2c-2,0.2-4,0.6-5.9,0.9c-1.1,0.2-2.3,0.4-3.4,0.6c-1.2,0.2-2.2,0.3-3.1,0.3
			c-0.5,0-1,0-1.5,0c-0.7,0-1.3,0-2-0.1h0c-0.1,0-0.3,0.1-0.3,0.2c-0.1,0.1-0.2,0.1-0.2,0.2c-0.8,0.8-1.6,1.8-2.3,2.7
			c-0.6,0.9-1.1,1.8-1.7,3c-0.8,1.8-1.4,3.8-2,6.6c-0.3,1.5-0.6,3-0.8,4.5c-0.5,3-1,6.2-2,9.1c-0.3,0.8-0.6,1.5-0.9,2.2
			c-0.2,0.5-0.5,0.9-0.7,1.4c-0.3,0.6-0.6,1.2-0.9,1.8c-0.5,1.1-1,2.2-1.3,3.4c-0.7,2.2-1,4.5-1,6.8c0,2.2,0.4,4.4,1.1,6.5
			c0.3,1,0.8,2.1,1.3,3.1c0.5,0.9,1.1,1.9,1.8,2.9c1.3,1.8,3,3.5,5.1,5.1c1.7,1.3,3.7,2.5,5.9,3.4c2,0.9,4.3,1.5,6.6,2
			c2.2,0.4,4.4,0.6,6.7,0.6l0.4,0c4.5,0,9-1,12.8-2.8c2-0.9,3.8-2.1,5.5-3.5c1.3-1.2,2.6-2.6,3.9-4.5c1.5,0.8,3.3,1.3,5.1,1.5
			c0.5,0,0.9,0.1,1.4,0.1l0.3,0c0.5,0,1.1-0.1,1.8-0.2c1.1-0.2,2.2-0.5,3.3-1.1c0.9-0.5,1.9-1.2,2.7-2.1c0.8-0.8,1.4-1.8,1.9-2.8
			c0.5-1,0.7-2.1,0.6-3.2c0-1.1-0.4-2.1-1-3c-0.6-0.8-1.4-1.5-2-1.9c-0.8-0.5-1.7-1-2.7-1.4c-1-0.3-2.1-0.5-3.2-0.5
			c-0.7,0-1.4,0.1-2.1,0.2c0.8-1,1.6-2,2.2-3l0.8-1.1l0.5-0.7l0.5-0.7c0.2-0.4,0.5-0.7,0.7-1.1c1.3-1.9,3-4.4,4-7.3
			c0.5-1.4,0.9-2.7,1-4c0.1-0.6,0.1-1.3,0.1-1.9c0-0.6-0.1-1.3-0.2-2c-0.3-1.9-1.2-3.9-2.5-5.9c-1.2-1.7-2.7-3.3-4.7-4.9
			c-1.6-1.3-3.5-2.6-5.7-3.8c-2-1.2-4.1-2.2-6.1-3c-2.7-1.1-5.5-1.8-8.5-2.3C480.2,201.2,478.2,201,476.3,201"/>
		<path class="st24" d="M472.6,201.2c-2,0.2-4,0.6-5.8,0.9c-1.3,0.2-2.4,0.5-3.5,0.6c-1.1,0.2-2.1,0.3-3.1,0.3c-0.5,0-1,0-1.5,0
			c-0.7,0-1.3,0-2-0.1c-0.2,0-0.3,0.1-0.4,0.2l-0.1,0.1c0,0-0.1,0.1-0.1,0.1c-0.8,0.8-1.6,1.8-2.3,2.7c-0.6,0.9-1.1,1.8-1.7,3
			c-0.4,0.9-0.8,1.9-1.1,3c0.2,0.1,0.4,0.3,0.6,0.4c0.8,0.5,1.6,0.9,2.4,1.3c0.8,0.4,1.7,0.7,2.6,1h0c1,0.3,2.1,0.6,3.1,0.8
			c1,0.2,2.1,0.3,3.2,0.4h0c1,0,2.1,0,3.1-0.1c1-0.1,1.9-0.2,2.9-0.4c0,0,0,0,0,0c1.2-0.3,2.4-0.7,3.5-1.1c0.1,0,0.2,0,0.3,0.1
			c0,0,0,0,0.1,0c0.1,0,0.2,0,0.2,0.1c0.6,0.9,1.2,1.7,1.8,2.4c0,0,0,0,0,0l0,0l0,0c0.5,0.5,1,1,1.5,1.5c0.5,0.4,1.1,0.9,1.6,1.2
			c0.5,0.3,1,0.6,1.6,0.9c0.5,0.2,1,0.4,1.6,0.6v0c0.5,0.2,1.1,0.3,1.6,0.4c0.5,0.1,1,0.1,1.5,0.2h0c0,0,0,0,0,0c0,0,0,0,0,0
			c0.6,0,1.1,0,1.7,0c0.6-0.1,1.2-0.2,1.8-0.3c0,0,0,0-0.1,0c0.9-0.2,1.8-0.5,2.6-0.8c0.1,0,0.1,0,0.2,0c0.1,0,0.3,0,0.3,0.1
			c0.2,0.6,0.4,1.1,0.7,1.6c0,0,0,0,0-0.1c0.3,0.6,0.7,1.2,1.1,1.8c0.4,0.6,0.8,1.1,1.3,1.6l0,0c0.6,0.7,1.2,1.3,1.9,1.9
			c0.6,0.5,1.3,1,2,1.5c0.8,0.5,1.7,1,2.5,1.4c0.7,0.3,1.4,0.6,2.2,0.9c0,0,0,0,0,0c0,0,0,0,0,0c0,0,0,0,0,0c1.5,0.5,3,0.8,4.6,0.9
			c0.5-1,1-2,1.4-3.1c0.5-1.4,0.9-2.7,1.1-4c0.1-0.6,0.1-1.3,0.1-1.9c0-0.6-0.1-1.3-0.2-2c-0.3-2-1.2-3.9-2.5-5.9
			c-1.2-1.7-2.7-3.3-4.7-4.9c-1.6-1.3-3.5-2.6-5.7-3.8c-2-1.2-4.1-2.2-6.1-3c-2.7-1.1-5.5-1.8-8.5-2.3c-1.9-0.3-3.8-0.4-5.7-0.4
			C475.1,201,473.9,201,472.6,201.2 M456.8,214.9C456.8,214.9,456.8,214.9,456.8,214.9C456.8,214.9,456.8,214.9,456.8,214.9
			 M469,215.5C469,215.5,469,215.5,469,215.5C469,215.5,469,215.5,469,215.5 M481.1,221.2L481.1,221.2L481.1,221.2z M484.2,221.8
			L484.2,221.8L484.2,221.8L484.2,221.8z M493.9,225.8C493.9,225.8,493.9,225.8,493.9,225.8C493.9,225.8,493.9,225.8,493.9,225.8
			 M502.5,231.4C502.6,231.4,502.6,231.4,502.5,231.4C502.6,231.4,502.6,231.4,502.5,231.4"/>
		<path class="st24" d="M484.2,221.8L484.2,221.8L484.2,221.8z"/>
		<path class="st24" d="M472.1,212.8c-0.2,0.1-0.3,0.3-0.2,0.5c1,1.8,2.1,3.4,3.5,4.9c0.3,0.3,0.7,0.7,1,1c0.4,0.3,0.8,0.6,1.2,0.9
			c0.8,0.6,1.6,1.1,2.5,1.5c0.9,0.4,1.8,0.7,2.8,0.9c0.9,0.2,1.9,0.3,2.8,0.2c1,0,2-0.2,3-0.4c0.5-0.1,1-0.3,1.5-0.5
			c0.5-0.2,1.1-0.5,1.5-0.9c0.3-0.3,0.4-0.7,0.3-1.1c-0.2-0.4-0.6-0.6-1-0.5c-0.4,0.1-0.8,0.2-1.3,0.4c-0.4,0.1-0.7,0.3-1.1,0.4
			c-1.1,0.3-2.2,0.5-3.3,0.6c-1,0-2.1-0.1-3.1-0.3c-0.6-0.1-1.3-0.3-1.9-0.6c-0.6-0.2-1.2-0.5-1.8-0.8c-1.1-0.6-2.1-1.3-3.1-2.2
			c-0.5-0.5-0.9-0.9-1.4-1.4c-0.5-0.6-0.9-1.2-1.3-1.8c0,0,0,0.1,0.1,0.1c-0.2-0.3-0.3-0.5-0.4-0.8c-0.1-0.1-0.2-0.2-0.3-0.2
			C472.2,212.7,472.1,212.7,472.1,212.8 M475.5,216.7C475.5,216.8,475.5,216.8,475.5,216.7C475.5,216.8,475.5,216.8,475.5,216.7
			 M488.7,220C488.6,220.1,488.6,220.1,488.7,220C488.6,220.1,488.6,220.1,488.7,220 M482.1,220.3
			C482.2,220.3,482.2,220.3,482.1,220.3C482.2,220.3,482.2,220.3,482.1,220.3"/>
		<path class="st23" d="M501.2,246.1c0,0.4,0,0.7-0.1,1.1c0,0,0-0.1,0-0.1c0,0,0,0.1,0,0.1c0,0,0,0,0,0c0,0,0,0,0,0
			c-0.1,0.8-0.3,1.5-0.6,2.2c-0.3,0.8-0.8,1.5-1.3,2.2c-0.5,0.6-1,1.1-1.5,1.5c0,0,0,0,0,0c-0.5,0.4-1.1,0.8-1.7,1c0,0,0,0,0,0
			c0,0,0,0,0,0c0,0,0,0,0,0c0,0,0,0,0,0c-0.2,0.1-0.3,0.1-0.5,0.2c-0.1,0-0.2,0.2-0.2,0.3c0,0.1,0.2,0.2,0.3,0.2
			c0.9-0.3,1.7-0.8,2.5-1.3c0.8-0.5,1.5-1.2,2.1-1.9c0.3-0.4,0.5-0.7,0.8-1.1c0.3-0.4,0.5-0.9,0.7-1.4c0.4-0.9,0.6-2,0.6-3
			c0-0.3-0.2-0.5-0.5-0.5C501.4,245.6,501.2,245.8,501.2,246.1 M496,254.2C496,254.2,496,254.2,496,254.2
			C496,254.2,496,254.2,496,254.2C496,254.2,496,254.2,496,254.2 M497.7,253.2C497.7,253.1,497.7,253.1,497.7,253.2
			C497.7,253.1,497.7,253.1,497.7,253.2 M501.1,247.2C501.1,247.2,501.1,247.2,501.1,247.2C501.1,247.2,501.1,247.2,501.1,247.2
			C501.1,247.2,501.1,247.2,501.1,247.2"/>
		<path class="st23" d="M502.2,245.4c-0.1,0-0.3,0.1-0.4,0.1c-0.1,0-0.2,0.1-0.3,0.2c-0.1,0.1-0.2,0.3-0.2,0.4c0,0.1,0,0.1,0.1,0.2
			c0.1,0.1,0.1,0.1,0.2,0.1c0.3,0.1,0.7,0.2,1,0.2c0.4,0,0.8,0.1,1.1,0.2c0.7,0.2,1.4,0.4,2,0.7c0.5,0.3,1,0.6,1.4,1c0,0,0,0,0,0
			c0,0,0,0,0,0c0,0,0,0,0.1,0c0,0,0,0,0,0c0.1,0.1,0.3,0.3,0.4,0.4c0.2,0.2,0.3,0.4,0.5,0.6c0,0,0,0,0-0.1c0.2,0.4,0.4,0.7,0.6,1.2
			c0,0.2,0.1,0.3,0.1,0.5c0,0.1,0.2,0.2,0.3,0.2c0.1,0,0.2-0.2,0.2-0.3c-0.1-0.4-0.2-0.8-0.3-1.2c-0.2-0.4-0.4-0.8-0.6-1.2
			c-0.1-0.2-0.2-0.4-0.3-0.5c-0.1-0.2-0.3-0.4-0.4-0.5c-0.3-0.3-0.6-0.6-1-0.9c-0.7-0.6-1.5-1-2.4-1.3c-0.2-0.1-0.5-0.1-0.7-0.2
			c-0.2,0-0.4-0.1-0.7-0.1c0,0-0.1,0-0.1,0C502.6,245.3,502.4,245.4,502.2,245.4 M503.6,246.9C503.6,246.9,503.6,246.9,503.6,246.9
			C503.6,246.9,503.6,246.9,503.6,246.9 M508.7,250.7C508.7,250.8,508.7,250.8,508.7,250.7C508.7,250.8,508.7,250.8,508.7,250.7
			 M507.2,248.6C507.2,248.6,507.2,248.6,507.2,248.6L507.2,248.6C507.2,248.6,507.2,248.6,507.2,248.6"/>
		<path class="st22" d="M536.7,220.8c-0.1-1.7-0.3-3.4-0.6-5c-0.1-0.6-0.2-1.2-0.3-1.9c0,0,0-0.1,0-0.1c-0.1-0.6-0.2-1.2-0.3-1.8
			c-0.5-2.5-1.2-4.7-2.2-6.6c-0.5-1-1.1-1.9-1.7-2.6c-0.3-0.4-0.7-0.7-1-1c-0.3-0.3-0.7-0.5-1-0.6c-0.2-0.1-0.5-0.1-0.6-0.1
			c-0.1,0-0.1,0-0.2,0c-0.3,0-0.6,0.2-0.8,0.4c-0.4,0.4-0.6,1-0.7,1.5c-0.1,0.4-0.1,0.8-0.1,1.3c-0.4-0.9-0.7-1.6-1.1-2.3
			c-0.3-0.5-0.7-1.2-1.3-1.7c-0.1-0.1-0.2-0.2-0.4-0.3c-0.1-0.1-0.3-0.1-0.4-0.2c-0.1,0-0.2-0.1-0.4-0.1c-0.1,0-0.3,0-0.5,0.1
			c-0.1,0-0.3,0.1-0.4,0.2c-0.1,0.1-0.2,0.2-0.3,0.3c-0.2,0.2-0.3,0.4-0.4,0.8c-0.1,0.3-0.1,0.6-0.1,0.9c0,0.4,0.1,0.8,0.2,1.1
			c0.2,0.8,0.5,1.5,0.7,2.1c-0.6-0.7-1.2-1.1-1.8-1.5c-0.3-0.2-0.6-0.3-0.9-0.3c-0.1,0-0.1,0-0.2,0c-0.3,0-0.5,0.1-0.8,0.2
			c-0.3,0.1-0.5,0.3-0.7,0.5c-0.2,0.2-0.3,0.5-0.4,0.8c-0.1,0.5,0,1.1,0.3,1.8c0.3,0.6,0.6,1.2,1.2,2c0.5,0.7,1.1,1.4,1.6,2l0.4,0.4
			c-0.4-0.1-0.8-0.2-1.2-0.2c-0.7,0-1.4,0.3-1.8,0.8c-0.2,0.3-0.4,0.6-0.5,1.1c-0.1,0.4-0.1,0.8,0,1.3c0.3,1.8,1.9,2.9,3.2,3.7
			c0.8,0.5,1.6,0.9,2.5,1.3l0.4,0.2l0.4,0.2c1.4,1.1,2.9,1.9,4.5,2.4c0.7,0.2,1.4,0.3,2.1,0.3c0.1,0,0.2,0,0.3,0
			c0.8,0,1.5-0.2,2.1-0.5c0.7-0.3,1.2-0.8,1.6-1.3c0,0.3,0.1,0.7,0.1,1c0,0.1,0.1,0.2,0.2,0.3c0.1,0.1,0.2,0.1,0.2,0.1
			c0,0.1,0.1,0.1,0.1,0.1c0.1,0.2,0.3,0.3,0.5,0.3c0.3,0,0.5-0.2,0.5-0.5c0-0.2,0-0.4,0-0.7C536.7,221.1,536.7,221,536.7,220.8z"/>
		<path class="st22" d="M423.3,225.2c-0.2-0.4-0.4-0.8-0.7-1c-0.3-0.3-0.7-0.5-1-0.6c-0.6-0.2-1.4-0.1-2,0.3
			c-0.3,0.2-0.6,0.5-0.9,0.8l0.1-0.6c0.1-0.7,0.2-1.6,0.3-2.5c0-0.9,0-1.6-0.1-2.3c-0.1-0.8-0.4-1.3-0.7-1.6
			c-0.2-0.2-0.5-0.4-0.7-0.5c-0.3-0.1-0.6-0.1-0.9,0c-0.3,0-0.5,0.1-0.7,0.3c-0.1,0-0.1,0.1-0.2,0.1c-0.2,0.2-0.4,0.5-0.6,0.8
			c-0.3,0.6-0.6,1.3-0.7,2.2c-0.1-0.6-0.3-1.4-0.6-2.1c-0.1-0.3-0.3-0.7-0.5-1c-0.2-0.2-0.3-0.5-0.6-0.7c-0.3-0.2-0.6-0.4-0.8-0.4
			c-0.1,0-0.3-0.1-0.4,0c-0.1,0-0.3,0-0.5,0.1c-0.2,0.1-0.3,0.1-0.4,0.2c-0.1,0.1-0.2,0.2-0.3,0.3c-0.1,0.1-0.2,0.2-0.2,0.3
			c-0.1,0.1-0.1,0.3-0.2,0.4c-0.2,0.8-0.2,1.6-0.2,2.1c0.1,0.8,0.2,1.5,0.4,2.5c-0.3-0.4-0.5-0.7-0.8-1c-0.4-0.4-0.8-0.8-1.4-0.9
			c-0.3-0.1-0.6,0-0.9,0.1c-0.1,0-0.1,0.1-0.2,0.1c-0.2,0.1-0.3,0.3-0.5,0.5c-0.2,0.3-0.4,0.6-0.5,1c-0.1,0.4-0.3,0.9-0.3,1.4
			c-0.1,0.9-0.1,2,0,3.1c0.3,2.1,0.8,4.3,1.8,6.7c0.2,0.6,0.5,1.2,0.7,1.7c0,0,0,0.1,0,0.1c0.2,0.6,0.5,1.2,0.8,1.7
			c0.6,1.6,1.3,3.1,2.2,4.6c0.1,0.1,0.2,0.2,0.3,0.2c0.1,0.2,0.2,0.4,0.3,0.6c0.1,0.2,0.4,0.3,0.7,0.2c0.2-0.1,0.3-0.3,0.2-0.5
			c0-0.1,0-0.1,0-0.2c0.1-0.1,0.1-0.1,0.1-0.2c0-0.1,0-0.3,0-0.4c-0.1-0.3-0.3-0.6-0.4-0.9c0.7,0.2,1.4,0.3,2.1,0.2
			c0.7-0.1,1.4-0.3,2.1-0.7c0.1-0.1,0.2-0.1,0.3-0.2c0.6-0.4,1.1-0.9,1.6-1.4c1.1-1.2,1.9-2.7,2.5-4.4l0.2-0.4l0.2-0.4
			c0.5-0.8,1-1.6,1.4-2.4C423.3,228.7,424,226.8,423.3,225.2z"/>
		<path class="st23" d="M412.8,226.6c-0.1,0-0.1,0.1-0.1,0.1c-0.2,0.4-0.3,0.8-0.4,1.3c-0.1,0.4-0.2,0.8-0.2,1.3
			c0,0.4,0,0.8,0.1,1.3c0.1,0.5,0.3,0.9,0.5,1.3c0.1,0.2,0.4,0.2,0.5,0.1c0.1-0.1,0.2-0.1,0.2-0.2c0-0.1,0-0.1,0-0.2
			c0-0.1,0-0.1-0.1-0.2c0,0,0,0,0,0c-0.1-0.2-0.3-0.4-0.4-0.6c0-0.1-0.1-0.2-0.1-0.4c-0.1-0.2-0.1-0.3-0.1-0.5c0-0.2,0-0.4,0-0.6
			c0-0.3,0-0.5,0-0.8c0,0,0,0,0,0.1c0-0.3,0.1-0.6,0.2-0.9c0.1-0.3,0.2-0.6,0.3-0.8c0-0.1-0.1-0.3-0.2-0.3c0,0,0,0-0.1,0
			C412.8,226.5,412.8,226.6,412.8,226.6"/>
		<path class="st23" d="M527.3,210.5c-0.1,0.1-0.1,0.3,0,0.4c0.2,0.2,0.3,0.3,0.5,0.5c0.2,0.3,0.4,0.6,0.5,0.9c0,0,0,0,0,0
			c0.2,0.5,0.4,1.1,0.4,1.7c0.1,0.5,0.1,1,0.1,1.4c0,0.3,0.2,0.5,0.5,0.5c0.1,0,0.3-0.1,0.4-0.1c0.1-0.1,0.2-0.2,0.1-0.4
			c-0.1-0.9-0.2-1.8-0.6-2.7c-0.4-0.8-0.9-1.6-1.6-2.2c-0.1,0-0.1-0.1-0.2-0.1C527.4,210.4,527.3,210.5,527.3,210.5 M528.7,213.9
			C528.7,213.9,528.7,213.9,528.7,213.9C528.7,213.9,528.7,213.9,528.7,213.9"/>
		<path class="st25" d="M420.7,232.3C420.8,232.3,420.8,232.3,420.7,232.3c-2.1,0.2-4.3,0.6-6.4,1.4c-1.7,0.6-3.3,1.4-4.8,2.4
			c0,0,0,0,0,0c-0.4,0.3-0.8,0.6-1.2,0.9c-0.6,3.1-0.5,6.3-0.4,8.7c0.1,1.3,0.2,2.5,0.3,3.7c0.1,1.1,0.3,2.3,0.5,3.4
			c0.8,4.4,2.4,8.7,4.5,13c2,4,4.6,7.9,7.8,11.5c3,3.5,6.4,6.7,10.3,9.5c3.8,2.8,7.8,5.1,12.1,7c2.4,1,4.9,1.9,7.3,2.6
			c0,0,0.1,0,0.1,0c2.5,0.8,5.5,1.6,8.6,1.9c0.7,0.1,1.3,0.1,1.9,0.1c1.8,0,3.3-0.2,4.8-0.7c1-0.3,1.9-0.8,2.7-1.3
			c0.8-0.6,1.5-1.3,2.1-2.1c0.6-0.8,1-1.8,1.2-2.8c0.1-0.5,0.1-1,0.2-1.4c0-0.5,0.1-1,0.1-1.5c0-1.1,0-2.2-0.1-3.4
			c-0.1-1.3-0.3-2.5-0.6-3.7c-0.3-1.2-0.7-2.4-1.2-3.4c-0.5-0.9-1.1-1.7-1.7-2.4c0.1,0,0.2-0.1,0.3-0.2c0.1-0.1,0.1-0.3,0.1-0.4
			c0-0.1-0.1-0.2-0.2-0.3c-0.1,0-0.1-0.1-0.2-0.1c0,0-0.1,0-0.1,0c-0.4,0.1-0.9,0.2-1.3,0.2h0c-1.2,0.2-2.5,0.2-3.8,0.2
			c-1.2,0-2.4-0.1-3.6-0.2c-2.8-0.4-5.7-1.1-8.5-2.2l0,0c-3.4-1.4-6.6-3.2-9.8-5.5v0c-3.5-2.6-6.7-5.7-9.4-9.2
			c-1.3-1.7-2.5-3.5-3.6-5.4c-1.1-2-2.2-4.1-3.2-6.5c-1.8-4.2-2.9-8.2-3.4-12.1v0c-0.1-0.6-0.2-1.3-0.2-1.9
			C421.5,232.3,421.1,232.3,420.7,232.3"/>
		<path class="st5" d="M468.7,274.9c-0.3,0.1-0.6,0.1-0.9,0.2c-0.3,0.1-0.4,0.3-0.4,0.6c0,0.3,0.3,0.4,0.6,0.4
			c0.3-0.1,0.6-0.1,0.9-0.2c0.3,0,0.4-0.3,0.4-0.6C469.3,275.1,469.1,274.9,468.7,274.9C468.8,274.9,468.8,274.9,468.7,274.9"/>
		<path class="st5" d="M468.8,274.7c-0.3,0.1-0.7,0.2-1.1,0.3c-0.3,0-0.4,0.3-0.4,0.6c0,0.3,0.3,0.4,0.6,0.4
			c0.4-0.1,0.7-0.1,1.1-0.3c0.1,0,0.2-0.1,0.3-0.2c0.1-0.1,0.1-0.2,0.1-0.4c0-0.1-0.1-0.2-0.2-0.3
			C469.1,274.7,469,274.7,468.8,274.7C468.9,274.7,468.8,274.7,468.8,274.7"/>
		<path class="st5" d="M468.6,274.9c-0.3,0-0.5,0.1-0.8,0.1c-0.3,0-0.4,0.3-0.4,0.6c0,0.3,0.3,0.4,0.6,0.4c0.3,0,0.5-0.1,0.8-0.1
			c0.3,0,0.4-0.3,0.4-0.6C469.1,275.1,468.9,274.9,468.6,274.9C468.6,274.9,468.6,274.9,468.6,274.9"/>
		<path class="st5" d="M468.6,274.8c-0.3,0.1-0.6,0.1-0.8,0.2c-0.3,0.1-0.4,0.3-0.4,0.6c0,0.3,0.3,0.5,0.6,0.4
			c0.3-0.1,0.6-0.1,0.8-0.2c0.1,0,0.2-0.1,0.3-0.2c0.1-0.1,0.1-0.2,0.1-0.4C469.2,274.9,469,274.7,468.6,274.8
			C468.7,274.7,468.7,274.7,468.6,274.8"/>
		<path class="st26" d="M468.7,274.7c-0.4,0.1-0.8,0.2-1.2,0.3c-0.3,0.1-0.4,0.3-0.4,0.6c0,0.3,0.3,0.5,0.6,0.4
			c0.4-0.1,0.8-0.2,1.2-0.3c0.3-0.1,0.4-0.3,0.4-0.6C469.2,274.9,469,274.7,468.7,274.7C468.7,274.7,468.7,274.7,468.7,274.7"/>
		<path class="st26" d="M468.5,274.7c-0.4,0.1-0.8,0.2-1.1,0.3c-0.3,0.1-0.4,0.3-0.4,0.6c0,0.3,0.3,0.5,0.6,0.4
			c0.4-0.1,0.8-0.2,1.1-0.3c0.1,0,0.2-0.1,0.3-0.2c0.1-0.1,0.1-0.2,0.1-0.4C469,274.9,468.8,274.7,468.5,274.7
			C468.5,274.7,468.5,274.7,468.5,274.7"/>
		<path class="st25" d="M523.8,218.5C523.8,218.5,523.8,218.5,523.8,218.5c2.1-0.5,4.3-0.7,6.5-0.6c1.8,0.1,3.5,0.3,5.2,0.8
			c0,0,0,0-0.1,0c0.5,0.1,0.9,0.3,1.4,0.5c1.5,2.8,2.4,5.9,3,8.2c0.3,1.3,0.6,2.5,0.8,3.6c0.2,1.1,0.4,2.3,0.5,3.4
			c0.5,4.4,0.3,9-0.4,13.8c-0.7,4.4-2.1,8.9-4,13.3c-1.8,4.2-4.2,8.3-7,12.2c-2.8,3.8-5.9,7.2-9.5,10.3c-2,1.7-4.1,3.3-6.2,4.7
			c0,0,0,0-0.1,0.1c-2.2,1.5-4.7,3.2-7.7,4.4c-0.6,0.3-1.2,0.5-1.8,0.7c-1.7,0.5-3.3,0.8-4.8,0.7c-1.1,0-2.1-0.2-3-0.5
			c-1-0.3-1.8-0.7-2.6-1.3c-0.8-0.6-1.5-1.4-2-2.3c-0.2-0.5-0.4-0.9-0.6-1.3c-0.2-0.5-0.4-0.9-0.5-1.4c-0.4-1-0.7-2.2-0.9-3.3
			c-0.3-1.3-0.5-2.5-0.5-3.7c-0.1-1.3,0-2.5,0.2-3.6c0.2-1,0.5-2,1-2.8c-0.1,0-0.2,0-0.3-0.1c-0.1-0.1-0.2-0.2-0.2-0.4
			c0-0.1,0-0.3,0.1-0.4c0.1-0.1,0.1-0.1,0.2-0.1c0,0,0.1,0,0.1,0c0.4-0.1,0.9-0.1,1.3-0.2l0,0c1.2-0.2,2.5-0.5,3.7-0.9
			c1.1-0.4,2.3-0.8,3.4-1.3c2.6-1.2,5.1-2.7,7.5-4.7l0,0c2.8-2.3,5.4-5,7.7-8.2l0,0c2.6-3.6,4.7-7.5,6.2-11.6
			c0.8-2.1,1.4-4.1,1.8-6.2c0.5-2.2,0.8-4.5,1.1-7.1c0.4-4.6,0.3-8.7-0.3-12.6l0,0c-0.1-0.6-0.2-1.3-0.4-1.9
			C523.1,218.7,523.4,218.6,523.8,218.5"/>
		<path class="st5" d="M490.6,273.5c0.3,0,0.6-0.1,0.9-0.1c0.3,0,0.5,0.1,0.5,0.4c0,0.3-0.2,0.5-0.4,0.5c-0.3,0-0.6,0.1-0.9,0.1
			c-0.3,0-0.5-0.2-0.5-0.4C490.2,273.8,490.3,273.6,490.6,273.5C490.6,273.5,490.6,273.5,490.6,273.5"/>
		<path class="st5" d="M490.5,273.3c0.4,0,0.7,0,1.1-0.1c0.3,0,0.5,0.2,0.5,0.4c0,0.3-0.2,0.5-0.4,0.5c-0.4,0-0.7,0.1-1.1,0.1
			c-0.1,0-0.2,0-0.4-0.1c-0.1-0.1-0.2-0.2-0.2-0.3c0-0.1,0-0.3,0.1-0.4C490.2,273.4,490.3,273.3,490.5,273.3
			C490.5,273.3,490.5,273.3,490.5,273.3"/>
		<path class="st5" d="M490.8,273.4c0.3,0,0.5-0.1,0.8-0.1c0.3,0,0.5,0.2,0.5,0.4c0,0.3-0.2,0.5-0.4,0.5c-0.3,0-0.5,0.1-0.8,0.1
			c-0.3,0-0.5-0.2-0.5-0.4C490.3,273.7,490.5,273.5,490.8,273.4C490.7,273.4,490.8,273.4,490.8,273.4"/>
		<path class="st5" d="M490.7,273.3c0.3,0,0.6,0,0.9,0c0.3,0,0.5,0.1,0.5,0.4c0,0.3-0.2,0.5-0.4,0.5c-0.3,0-0.6,0-0.9,0
			c-0.1,0-0.3,0-0.4-0.1c-0.1-0.1-0.2-0.2-0.2-0.3C490.3,273.6,490.4,273.4,490.7,273.3C490.6,273.3,490.7,273.3,490.7,273.3"/>
		<path class="st5" d="M490.6,273.3c0.4,0,0.8-0.1,1.2-0.1c0.3,0,0.5,0.1,0.5,0.4c0,0.3-0.2,0.5-0.4,0.5c-0.4,0-0.8,0.1-1.2,0.1
			c-0.3,0-0.5-0.2-0.5-0.4C490.2,273.6,490.3,273.3,490.6,273.3C490.6,273.3,490.6,273.3,490.6,273.3"/>
		<path class="st26" d="M490.8,273.2c0.4,0,0.8,0,1.2-0.1c0.3,0,0.5,0.2,0.5,0.4c0,0.3-0.2,0.5-0.4,0.5c-0.4,0-0.8,0.1-1.2,0.1
			c-0.1,0-0.3,0-0.4-0.1c-0.1-0.1-0.2-0.2-0.2-0.3C490.4,273.6,490.5,273.3,490.8,273.2C490.8,273.3,490.8,273.2,490.8,273.2"/>
		<path class="st25" d="M490.4,273.3c-0.1,0-0.1,0.1-0.2,0.1c-0.1,0-0.1,0.1-0.2,0.2c-0.5,0.9-1.2,1.8-1.9,2.6
			c-0.6,0.7-1.4,1.3-2.2,1.8c-1,0.6-2.2,1.2-3.3,1.5l0,0c-1.2,0.4-2.5,0.6-3.7,0.6l-0.3,0c-1,0-1.9-0.1-2.9-0.3v0
			c-0.9-0.2-1.8-0.6-2.6-1c-0.7-0.4-1.3-0.8-1.9-1.4c-0.5-0.5-1-1.1-1.4-1.7c-0.2-0.3-0.3-0.6-0.5-0.9c-0.1-0.2-0.3-0.3-0.5-0.3h0
			c0,0-0.1,0-0.1,0c0,0,0,0-0.1,0c0,0-0.1,0-0.1,0.1c-4.1,2.2-7.7,5.1-10.7,8.6c-2.9,3.3-5.3,7.2-7.2,11.5c-0.9,2.1-1.6,4.2-2.2,6.5
			c-0.6,2.1-1,4.4-1.3,6.7c-0.3,2.2-0.4,4.5-0.3,6.8c0,2.2,0.3,4.5,0.7,6.9c1.5,8.7,4.3,16.6,8.5,23.3c-0.1,0.2,0,0.4,0.1,0.5
			c2.2,2.4,5.7,3.7,10.5,3.7l0.3,0c1.8,0,3.8-0.2,6-0.6c1.9-0.3,3.8-0.8,5.8-1.3c1.9-0.6,3.8-1.2,5.4-1.9c2.2-0.9,4.4-1.8,6.4-2.7
			c4.9-2.2,8.9-4.6,12.4-7.3c4.1-3.1,7.2-6.6,9.3-10.3c0.7-1.2,1.2-2.4,1.6-3.7c0.4-1.2,0.6-2.5,0.8-4.1c0.2-2.4,0-5.1-0.6-8.3
			c-0.2-1.2-0.5-2.5-1-4.1c-0.3-1-0.6-2-0.9-3.2c-0.6-2.1-1.5-4.2-2.4-6.4c-2-4.6-4.4-8.7-7.2-12.3c-3.6-4.6-7.6-7.9-11.9-9.9
			c-0.1,0-0.2-0.1-0.3-0.1C490.4,273.3,490.4,273.3,490.4,273.3"/>
		<path class="st26" d="M534.6,218.5C534.6,218.5,534.6,218.5,534.6,218.5c0.1,0.3,0.3,0.6,0.4,0.8c1,1.9,1.7,4,2.2,6.2
			c0.5,2.2,0.7,4.5,0.8,6.8c0.1,2.3,0,4.7-0.3,7.1c-0.3,2.4-0.7,4.7-1.3,7.1c-0.6,2.3-1.3,4.5-2.1,6.7c-0.8,2.2-1.7,4.1-2.6,5.9
			c-0.5,0.9-1,1.8-1.8,3.1c-0.7,1.2-1.4,2.3-2.1,3.2c-1.5,2.2-3,4.2-4.5,6.1c-3.3,4-7,7.5-10.9,10.5c-2.1,1.6-4.2,3-6.3,4.2
			c-1.1,0.7-2.3,1.3-3.4,1.8c-0.9,0.4-1.8,0.9-2.7,1.3l-0.3,0.2l-0.5,0.2c2.3,4,3.9,8.8,4.7,14.3c0.4,2.5,0.6,5.1,0.7,7.7
			c0.1,2.7,0.1,5.4-0.1,7.9c-0.2,2.9-0.6,5.9-1.2,8.8c-0.6,2.9-1.3,5.8-2.2,8.7c0.6-0.4,1.2-0.8,1.9-1.4c4.1-3.1,7.2-6.6,9.3-10.3
			c0.7-1.2,1.2-2.4,1.6-3.7c0.4-1.2,0.6-2.5,0.8-4.1c0.2-2.4,0-5.1-0.6-8.4c-0.3-1.3-0.6-2.6-1-4.1c-0.3-1.1-0.6-2.1-0.9-3.2
			c-0.6-2.1-1.5-4.2-2.4-6.4c-0.5-1.1-1-2.2-1.6-3.3c2.2-1,4.1-2.3,5.7-3.4c0,0,0.1-0.1,0.1-0.1c2.1-1.4,4.2-2.9,6.2-4.7
			c3.5-3,6.7-6.5,9.5-10.3c2.8-3.9,5.2-8,7-12.2c1.9-4.4,3.3-8.9,4-13.3c0.8-4.7,0.9-9.3,0.4-13.8c-0.1-1.2-0.3-2.4-0.5-3.4
			c-0.2-1.2-0.5-2.4-0.8-3.6c-0.6-2.3-1.5-5.4-3-8.2c-0.4-0.2-0.9-0.4-1.4-0.5C535.2,218.6,534.9,218.5,534.6,218.5
			C534.6,218.5,534.6,218.5,534.6,218.5"/>
		<path class="st26" d="M489.7,273c-0.3,0.5-0.6,1-0.9,1.4c-0.6,0.9-1.4,1.6-2.2,2.3c-0.4,0.4-0.9,0.7-1.4,1
			c-0.4,0.3-0.9,0.5-1.4,0.7c-1,0.4-2,0.8-3.1,0.9c0,0,0.1,0,0.1,0c-1.1,0.2-2.2,0.2-3.4,0.1c-1-0.1-2-0.4-2.9-0.7
			c-0.8-0.3-1.6-0.8-2.4-1.3c-0.8-0.6-1.5-1.2-2.1-2c-0.3-0.4-0.5-0.7-0.8-1.1c-0.1-0.2-0.4-0.3-0.7-0.2c-0.2,0.1-0.3,0.4-0.2,0.7
			c0.6,0.9,1.3,1.8,2.1,2.5c0.8,0.7,1.6,1.3,2.6,1.8c1.9,0.9,3.9,1.4,6,1.3c2.1,0,4.2-0.6,6-1.7c1.1-0.6,2-1.3,2.9-2.2
			c0.9-0.9,1.7-2,2.4-3.1c0,0,0.1-0.1,0.1-0.1c0.1-0.2,0-0.5-0.2-0.7c-0.1,0-0.2-0.1-0.2-0.1C490,272.7,489.8,272.8,489.7,273
			 M488.8,274.4C488.8,274.4,488.8,274.4,488.8,274.4C488.8,274.4,488.8,274.4,488.8,274.4 M470.2,275.5
			C470.2,275.6,470.2,275.6,470.2,275.5C470.2,275.6,470.2,275.6,470.2,275.5 M486.6,276.7C486.6,276.7,486.6,276.8,486.6,276.7
			C486.6,276.8,486.6,276.7,486.6,276.7 M472.1,277.4C472.2,277.4,472.2,277.4,472.1,277.4C472.2,277.4,472.2,277.4,472.1,277.4
			 M483.9,278.5C483.8,278.5,483.8,278.5,483.9,278.5C483.8,278.5,483.8,278.5,483.9,278.5 M474.5,278.7
			C474.6,278.7,474.6,278.7,474.5,278.7C474.6,278.7,474.6,278.7,474.5,278.7"/>
		<path class="st4" d="M434.8,314.3c-0.6,0-1.2,0.1-1.8,0.2c-0.4,0.1-0.8,0.2-1.1,0.3c-0.4,0.1-0.8,0.3-1.2,0.5
			c-0.7,0.4-1.5,0.9-2.2,1.6c-0.7,0.6-1.3,1.4-2,2.3c-1.1,1.5-1.9,3.2-2.3,5c-0.4,1.6-0.5,3.4-0.4,5.3c0.1,1.7,0.6,3.5,1.3,5.3
			c0.6,1.7,1.5,3.4,2.6,5.2c1,1.6,2.2,3.2,3.6,4.9c1.3,1.5,2.7,3,4.3,4.5c1.1,1.1,2.3,2.1,3.5,3.1c-0.1,0.1-0.1,0.2-0.2,0.3
			c0,0.1,0,0.3,0.1,0.4c0.3,0.4,0.6,0.7,0.9,0.9c0.3,0.3,0.7,0.6,1.2,0.9c0.8,0.5,1.7,1,2.7,1.4c0.8,0.3,1.7,0.7,2.7,0.9
			c0.7,0.4,1.5,0.7,2.2,1c0.1,0,0.1,0,0.2,0c0.2,0,0.4-0.1,0.4-0.3c0.3,0,0.5,0.1,0.8,0.1c1.8,0.3,3.7,0.6,5.9,0.8
			c1.6,0.2,3.1,0.2,4.6,0.2c1.7,0,3.4-0.1,5-0.3c1.8-0.2,3.4-0.5,4.9-0.9c1.6-0.4,3-0.9,4.2-1.6c1.3-0.7,2.2-1.5,2.9-2.4
			c0.3-0.5,0.6-1,0.8-1.6c0.2-0.5,0.2-1.1,0.2-1.8c0-0.6-0.2-1.3-0.5-2c-0.3-0.7-0.6-1.4-1.2-2.3c-0.6-1-1.4-1.8-2-2.5
			c-1-1.1-2.1-2.2-2.9-2.9c-2.2-2-4.5-3.9-6.6-5.6c-0.7-0.5-1.4-1.1-2.1-1.6c-1.6-1.2-3.2-2.5-4.7-3.8c-0.8-0.6-1.5-1.3-2.3-2
			c-0.6-0.6-1.2-1.1-1.8-1.7l-0.3-0.3c-2.7-2.5-5.5-5.2-8.6-7.4c-1.8-1.3-3.4-2.3-5-3c-1.8-0.8-3.5-1.3-5.1-1.4
			C435.2,314.3,435,314.3,434.8,314.3"/>
		<path class="st27" d="M462.1,349.7c-0.1,0-0.2,0-0.3,0c-0.5,0-0.9,0-1.4,0.1l-0.5,0c-0.8,0.1-1.6,0.1-2.5,0.2l-0.1,0
			c0,0-0.1,0-0.1,0c0,0,0,0,0,0c-3.3,0.2-5.9,0.3-8.4,0.3l-0.9,0c-0.6,0-1.2,0-1.8,0l-0.9,0c-0.4,0-0.7,0-1.1,0c-0.6,0-1.1,0-1.7,0
			c-2.2,0.1-3.8,0.7-5,1.7c-1.3,1.1-1.8,3.1-1.4,4.9c0.3,1.5,1.3,2.8,3,4.2c0.7,0.5,1.4,1,2.4,1.6c0.8,0.4,1.6,0.8,2.6,1.2
			c1.8,0.7,3.7,1.3,5.7,1.7c1.8,0.3,3.7,0.5,5.7,0.5c0.9,0,1.8,0,2.7-0.1c3-0.2,6-0.8,9.1-1.7c0,0.1,0,0.3,0.1,0.4
			c0.1,0.1,0.2,0.2,0.3,0.2h0c0.2,0,0.3-0.1,0.4-0.1c0.4-0.3,0.7-0.6,1-1c0.6-0.2,1.3-0.4,1.9-0.7c0.1,0,0.2-0.1,0.2-0.2
			c0.1-0.1,0.1-0.3,0-0.4c-0.1-0.1-0.2-0.2-0.3-0.2c-0.1,0-0.1,0-0.2,0c-0.1,0-0.1,0-0.2,0c-0.3,0.1-0.6,0.2-0.8,0.3
			c0.1-0.3,0.2-0.7,0.3-1.1c0.1-0.5,0.2-1,0.2-1.6c0.1-0.9,0.1-2-0.1-3c-0.1-0.9-0.3-1.8-0.7-2.6c-0.2-0.5-0.5-0.9-0.8-1.4
			c-0.3-0.4-0.6-0.8-1.1-1.2c-0.7-0.6-1.6-1.1-2.6-1.4C464.1,349.8,463.2,349.7,462.1,349.7"/>
		<path class="st3" d="M437.4,351.9c-1.3,1.2-1.8,3.1-1.4,4.9c0.3,1.5,1.3,2.8,3,4.2c0.7,0.5,1.5,1,2.4,1.6c0.3,0.2,0.7,0.4,1,0.5
			c0.3-0.9,0.5-1.9,0.6-2.8c0,0,0,0,0,0l0,0c0,0,0,0,0,0c0.2-1.4,0.2-2.9,0-4.3c0,0,0,0,0,0.1c-0.1-0.5-0.2-1-0.3-1.5
			c-0.1-0.5-0.3-1-0.5-1.4c0,0,0,0,0,0c0,0,0,0,0,0v0v0c0,0,0,0,0,0c0,0,0,0,0,0c0,0,0,0,0,0c-0.2-0.3-0.3-0.7-0.5-1
			c-0.2-0.3-0.4-0.6-0.6-0.9c0,0,0,0,0,0c0,0,0,0,0,0c0,0,0,0,0,0l0,0c0,0,0,0,0,0c0,0,0,0,0,0c0,0,0,0,0,0c0,0,0,0,0,0c0,0,0,0,0,0
			c-0.2-0.2-0.4-0.4-0.5-0.6C439.2,350.7,438.2,351.2,437.4,351.9 M443,360.2L443,360.2L443,360.2z"/>
		<path class="st3" d="M441.1,351L441.1,351C441.2,351,441.1,351,441.1,351C441.1,351,441.1,351,441.1,351"/>
		<path class="st3" d="M447,352.7c-0.2,0.1-0.3,0.4-0.2,0.7c0.1,0.2,0.2,0.4,0.3,0.7c0.2,0.5,0.3,1,0.4,1.6c0,0,0-0.1,0-0.1
			c0.1,0.8,0.1,1.7,0.1,2.5c0,0.3,0.2,0.5,0.5,0.5c0.3,0,0.5-0.2,0.5-0.5c0-0.9,0-1.8-0.1-2.7c-0.1-0.4-0.2-0.9-0.3-1.3
			c-0.1-0.4-0.3-0.8-0.6-1.2c-0.1-0.2-0.3-0.2-0.4-0.2C447.1,352.7,447,352.7,447,352.7"/>
		<path class="st3" d="M451.5,352.7c-0.2,0.1-0.3,0.4-0.2,0.7c0.1,0.2,0.2,0.3,0.3,0.5c0.2,0.5,0.4,1.1,0.5,1.7
			c0.1,0.8,0.1,1.7,0.1,2.5c0,0.3,0.2,0.5,0.5,0.5c0.3,0,0.5-0.2,0.5-0.5c0-0.9,0-1.8-0.1-2.7c-0.1-0.4-0.2-0.8-0.3-1.3
			c-0.1-0.4-0.3-0.9-0.6-1.3c-0.1-0.2-0.3-0.2-0.4-0.2C451.7,352.6,451.6,352.6,451.5,352.7 M452.1,355.6
			C452.1,355.6,452.1,355.6,452.1,355.6C452.1,355.6,452.1,355.6,452.1,355.6"/>
		<path class="st3" d="M455.7,352.1c-0.2,0.1-0.3,0.4-0.2,0.7c0.1,0.2,0.2,0.4,0.3,0.6c0.2,0.6,0.4,1.2,0.5,1.8c0,0,0-0.1,0-0.1
			c0.1,0.7,0.1,1.4,0.1,2.1c0,0.3,0.2,0.5,0.5,0.5c0.3,0,0.5-0.2,0.5-0.5c0-0.8,0-1.7-0.2-2.5c-0.1-0.8-0.4-1.6-0.8-2.4
			c-0.1-0.2-0.3-0.2-0.4-0.2C455.8,352,455.7,352,455.7,352.1 M455.8,353.4C455.8,353.4,455.8,353.4,455.8,353.4
			C455.8,353.4,455.8,353.4,455.8,353.4"/>
		<path class="st28" d="M515.7,319.1c-2,0.1-4.1,0.4-6.7,1c-0.9,0.2-1.9,0.5-3.2,0.9c-1.3,0.4-2.5,0.8-3.5,1.2
			c-2.5,0.9-5,2.1-7.6,3.5c-5.2,2.8-10,6.2-14,9.1c-1.9,1.4-3.7,2.8-5.6,4.2l-1.8,1.4c-1.3,1-2.6,2-4,3c-1.4,1-2.8,2-4.2,2.9
			c-1.7,1.1-3.4,2.2-5.1,3.2c2.6,5.3,5.2,10.6,8.1,15.8c0,0,0.1,0,0.1,0c0.1,0,0.1,0.1,0.2,0.1c3.8,0,7.7-0.3,11.7-0.8
			c4.3-0.5,8.6-1.3,12.7-2.4c4.4-1.1,8.7-2.5,12.5-4.2c4.1-1.8,7.9-3.9,11.1-6.2c3.4-2.5,6.3-5.3,8.5-8.5c0.6-0.9,1.1-1.7,1.6-2.6
			c0.5-0.9,1-2,1.3-3.1c0.4-1,0.6-2.2,0.8-3.4c0.2-1.1,0.2-2.3,0.2-3.5c-0.1-2.4-0.8-4.7-1.9-6.5c-0.3-0.5-0.6-0.9-1-1.3
			c-0.3-0.4-0.7-0.8-1.3-1.3c-0.8-0.7-1.7-1.2-2.8-1.7c-0.9-0.4-1.9-0.7-3.1-0.9c-0.8-0.1-1.7-0.2-2.7-0.2
			C516.1,319.1,515.9,319.1,515.7,319.1"/>
		<path class="st29" d="M526.3,323.4C526.3,323.4,526.3,323.4,526.3,323.4c0,0.7,0,1.3,0,1.9c-0.1,2.2-0.6,4.5-1.4,6.6
			c-0.8,2.1-1.9,4.2-3.3,6.2c-1.3,1.9-2.9,3.8-4.6,5.5c-1.7,1.7-3.6,3.3-5.5,4.8c-1,0.7-2,1.4-2.9,2c-1,0.6-2,1.2-3.2,2
			c-5,2.8-10.1,5.2-15.3,7c-5.5,1.9-11,3.2-16.3,3.8c-2.3,0.3-4.5,0.4-6.5,0.4c0.3,0.6,0.6,1.2,0.9,1.8c0.2,0.1,0.3,0.1,0.3,0.1
			c3.8,0,7.7-0.3,11.7-0.8c4.3-0.5,8.6-1.3,12.7-2.4c4.4-1.1,8.6-2.5,12.5-4.2c4.1-1.8,7.9-3.9,11.1-6.2c3.4-2.5,6.3-5.4,8.5-8.5
			c0.6-0.9,1.1-1.7,1.6-2.6c0.5-0.9,1-2,1.3-3.1c0.4-1,0.6-2.2,0.8-3.4c0.2-1.2,0.2-2.3,0.2-3.5c-0.1-2.4-0.8-4.7-1.9-6.5
			C526.8,324.1,526.6,323.7,526.3,323.4L526.3,323.4z"/>
		<path class="st21" d="M462.4,196.1c-0.4,0-0.8,0-1.3,0c-4.8,0.1-9.1,0.5-13.2,1.4c-0.1,0-0.2,0.2-0.3,0.3c0,0,0,0.1,0,0.1
			c-0.2,0.1-0.2,0.3-0.2,0.5c0.2,1.8,0.8,3.5,1.6,5c0.8,1.5,1.8,2.8,3.1,4c2.4,2.2,5.5,3.8,9.1,4.6c1.6,0.3,3.2,0.5,4.8,0.5
			c3.8,0,7.3-0.9,10.2-2.7c0,0.7,0,1.4,0.2,2.2c0.4,1.5,1.1,2.8,2.2,3.9c1.9,1.9,4.8,3,7.9,3c0.2,0,0.4,0,0.6,0c2.5-0.1,5-0.9,7-2.3
			c-0.2,0.4-0.3,1-0.3,1.6c-0.1,1.6,0.5,3.2,1.6,4.6c0.5,0.6,1.1,1.2,1.8,1.6c0.7,0.5,1.5,0.8,2.4,1c0.5,0.1,1,0.2,1.6,0.2h0.1
			l-0.2,0.1c-0.8,0.9-1.6,1.9-2.3,3.1c-1.4,2.2-2.4,4.6-2.9,7.1c-0.3,1.3-0.4,2.5-0.3,3.6c0,0.5,0.1,0.9,0.2,1.4
			c0.1,0.5,0.2,0.9,0.4,1.3c0.1,0.3,0.3,0.6,0.6,0.9c0.2,0.3,0.5,0.5,0.8,0.7c0.3,0.2,0.6,0.3,0.9,0.3c0.2,0,0.3,0,0.5,0
			c0.2,0,0.4,0,0.6-0.1c0.8-0.1,1.6-0.5,2.5-1.1c0.5-0.3,0.9-0.7,1.3-1.1c0.5-0.4,0.9-0.9,1.3-1.4c1.8-1.9,3.3-4,4.6-6.3
			c1.2-2.2,2.2-4.6,2.8-7.1c0.6-2.5,0.8-5,0.6-7.6c-0.1-1.2-0.3-2.5-0.7-3.8c-0.2-0.9-0.6-1.8-1-2.7c-0.4-0.8-0.9-1.6-1.4-2.4
			c-0.5-0.7-1.1-1.4-1.8-2.1c-1.2-1.2-2.6-2.4-4.4-3.5c-1.5-1-3.2-1.8-5.3-2.7c-3.3-1.4-7.1-2.5-11.7-3.4c-1.8-0.4-3.6-0.7-5.6-1
			c-2.3-0.4-4.4-0.7-6.4-0.9C470.1,196.3,466.1,196.1,462.4,196.1"/>
		<path class="st30" d="M447.2,200.7c-0.1,0-0.2,0.2-0.1,0.3c0.5,1,1.1,2,1.8,2.9c0.6,0.9,1.4,1.8,2.1,2.6c1.5,1.6,3.3,2.9,5.2,4
			c1.9,1.1,4,1.8,6.2,2.2c1.1,0.2,2.2,0.3,3.3,0.3c1.1,0,2.2,0,3.4-0.2c1.2-0.2,2.4-0.4,3.5-0.8c0.6-0.2,1.2-0.4,1.8-0.7
			c0.7-0.3,1.5-0.6,2.2-1c0.3-0.2,0.4-0.6,0.3-0.9c-0.1-0.2-0.2-0.3-0.4-0.4c-0.2-0.1-0.4-0.1-0.6,0c-0.6,0.3-1.1,0.5-1.6,0.8
			c-0.5,0.2-1,0.4-1.5,0.6c-0.9,0.3-1.8,0.6-2.7,0.8c0.1,0,0.1,0,0.2,0c-0.9,0.2-1.8,0.4-2.7,0.5c-0.9,0.1-1.8,0.1-2.7,0.1
			c0,0,0,0,0,0c0,0,0,0-0.1,0c0,0-0.1,0-0.1,0c0,0,0,0,0.1,0c-0.9,0-1.8-0.1-2.7-0.3c-0.9-0.2-1.8-0.4-2.7-0.6l0.1,0
			c-0.8-0.3-1.7-0.6-2.5-0.9c-0.8-0.4-1.6-0.8-2.4-1.3c-1.5-0.9-2.8-2.1-4-3.4c-1.2-1.3-2.2-2.7-3-4.2c0,0,0,0,0,0
			c-0.1-0.1-0.1-0.2-0.2-0.4C447.5,200.7,447.4,200.7,447.2,200.7C447.3,200.7,447.3,200.7,447.2,200.7 M450.7,205.4
			C450.7,205.4,450.7,205.4,450.7,205.4C450.7,205.4,450.7,205.4,450.7,205.4 M464.9,211.9L464.9,211.9
			C464.9,211.9,464.9,211.9,464.9,211.9C464.9,211.9,464.9,211.9,464.9,211.9 M447.7,201.2L447.7,201.2L447.7,201.2z"/>
		<path class="st30" d="M456.8,202.6c-0.1,0.1-0.1,0.2,0,0.3c0.5,0.6,1.1,1.2,1.7,1.7c0.6,0.5,1.3,0.9,2,1.3
			c0.7,0.4,1.5,0.6,2.2,0.8c0.8,0.2,1.7,0.4,2.5,0.5c0.8,0.1,1.6,0.1,2.5,0.1c0.8,0,1.7-0.2,2.5-0.4c0.8-0.2,1.6-0.5,2.4-0.8
			c0.4-0.2,0.8-0.4,1.1-0.6c0.4-0.2,0.8-0.5,1.1-0.7c0.1-0.1,0.2-0.2,0.2-0.4c0.1-0.2,0.1-0.5,0-0.7c-0.2-0.4-0.8-0.6-1.2-0.4
			c-1.1,0.6-2.2,1.2-3.3,1.6c-1.6,0.5-3.2,0.9-4.9,1c-0.5,0-1.1,0-1.6,0c-0.5,0-1.1-0.1-1.6-0.2c-0.9-0.2-1.7-0.5-2.5-0.8
			c0,0,0,0,0,0c0,0,0,0,0,0l0,0l0,0c-0.7-0.4-1.4-0.8-2-1.3c-0.3-0.3-0.6-0.6-0.9-0.9c0-0.1-0.1-0.1-0.2-0.1
			C456.9,202.5,456.8,202.5,456.8,202.6 M458,203.5C458,203.5,458,203.5,458,203.5C458,203.5,458,203.5,458,203.5 M460.1,204.9
			C460.1,204.9,460.1,204.9,460.1,204.9C460.1,204.9,460.1,204.9,460.1,204.9L460.1,204.9z"/>
		<path class="st30" d="M498.3,213c-0.1,0.9-0.1,1.8,0.1,2.7c0.2,0.8,0.6,1.6,1,2.2c0.5,0.7,1.1,1.3,1.8,1.8
			c0.7,0.6,1.5,1.1,2.3,1.6c0.3,0.2,0.7,0.1,0.9-0.2c0.2-0.3,0.1-0.8-0.2-0.9c-0.6-0.3-1.2-0.6-1.8-1c-0.5-0.3-1-0.6-1.5-1
			c0,0,0,0,0,0c0,0,0,0-0.1,0c0,0,0,0,0,0c0,0,0,0,0,0c-0.4-0.3-0.8-0.7-1.1-1.1c-0.3-0.4-0.5-0.8-0.7-1.3c-0.2-0.4-0.3-0.8-0.3-1.3
			c0,0,0,0,0,0.1c-0.1-0.5,0-1,0-1.6c0-0.1-0.1-0.2-0.2-0.2C498.4,212.8,498.3,212.9,498.3,213 M500.9,218.2
			C500.9,218.2,500.9,218.2,500.9,218.2C500.9,218.2,500.9,218.2,500.9,218.2C500.9,218.2,500.9,218.2,500.9,218.2"/>
		<path class="st30" d="M521,224.3c-0.2,0.9-0.4,1.8-0.6,2.6c-0.2,0.9-0.5,1.7-0.9,2.5c-0.2,0.5-0.4,1-0.7,1.4
			c-0.3,0.5-0.6,1-0.8,1.5c-0.5,0.9-1.1,1.8-1.8,2.7c0,0,0,0,0,0l-0.1,0.1c0,0,0,0.1-0.1,0.1c0,0,0,0,0-0.1
			c-0.6,0.7-1.2,1.4-1.8,2.1c-0.6,0.6-1.3,1.2-2,1.7c0,0,0,0,0,0c-0.6,0.4-1.2,0.8-1.8,1.2c-0.4,0.2-0.5,0.7-0.3,1.2
			c0.2,0.4,0.8,0.5,1.2,0.3c1.5-0.8,2.8-1.9,4-3.2c0.6-0.6,1.2-1.3,1.7-2.1c0.5-0.7,1-1.5,1.4-2.2c0.4-0.7,0.8-1.5,1.1-2.3
			c0.3-0.8,0.6-1.6,0.9-2.5c0.3-0.8,0.5-1.7,0.7-2.5c0.2-0.8,0.3-1.7,0.5-2.5c0-0.1,0-0.3-0.2-0.3c0,0,0,0-0.1,0
			C521.1,224.2,521,224.2,521,224.3 M516.1,235.2C516.1,235.2,516.1,235.2,516.1,235.2C516.1,235.2,516.1,235.2,516.1,235.2
			C516.1,235.2,516.1,235.2,516.1,235.2"/>
		<path class="st30" d="M517.1,222.2c0,0.2,0,0.4-0.1,0.6c0,0.3-0.1,0.6-0.2,0.9c-0.1,0.4-0.2,0.7-0.4,1c0,0,0-0.1,0-0.1
			c-0.5,1.1-1.1,2.1-1.9,3c0,0,0,0,0,0c0,0,0,0-0.1,0.1c0,0,0,0,0,0c0,0,0,0,0,0c-0.3,0.3-0.6,0.7-0.9,1c-0.1,0.1-0.2,0.2-0.2,0.4
			c0,0.1,0.1,0.3,0.2,0.4c0.1,0.1,0.3,0.2,0.4,0.2c0.2,0,0.4-0.1,0.5-0.3c0.4-0.5,0.7-1.1,1.1-1.6c0.4-0.6,0.7-1.2,1-1.8
			c0.6-1.2,0.9-2.5,1-3.9c0-0.2-0.2-0.3-0.3-0.3C517.3,221.9,517.1,222,517.1,222.2 M514.7,227.7
			C514.7,227.7,514.7,227.7,514.7,227.7C514.7,227.7,514.7,227.7,514.7,227.7C514.7,227.7,514.7,227.7,514.7,227.7"/>
		<path class="st4" d="M471.9,245.1c0,0.9-0.2,1.9-0.5,2.9c-0.2,0.8-0.6,1.6-1.1,2.4c-0.8,1.3-2,2.5-3.4,3.2
			c-1.3,0.7-2.8,0.9-4.2,0.7c-1.4-0.2-2.8-0.9-3.8-2c-1.9-2-2.8-5.2-2.5-8.7c1.1,0.4,2.1,0.7,3.2,0.9c1.5,0.3,3,0.6,4.6,0.7
			C466.7,245.4,469.3,245.4,471.9,245.1C471.9,245,471.9,245.1,471.9,245.1"/>
		<path class="st3" d="M460.7,251"/>
		<path class="st3" d="M469.3,245.7L469.3,245.7c-0.5,0.2-0.9,0.3-1.4,0.4c-0.4,0.1-0.9,0.2-1.3,0.2c0,0,0,0,0,0
			c-0.7,0.1-1.4,0.1-2.1,0.1c-0.6,0-1.3-0.1-1.9-0.2c0,0,0,0,0,0c0,0,0,0,0,0c0,0,0,0,0,0c0,0,0,0,0,0c-1.5-0.3-2.9-0.8-4.3-1.4
			c0,0,0,0,0,0c-0.4-0.2-0.7-0.4-1.1-0.7c-0.2-0.1-0.3-0.2-0.5-0.4c1,0.3,1.9,0.6,2.8,0.8c0.9,0.2,1.8,0.4,2.8,0.5
			c0.6,0.1,1.2,0.1,1.7,0.2c2.1,0.2,4.2,0.2,6.1,0C470,245.3,469.7,245.5,469.3,245.7"/>
		<path class="st17" d="M468.2,250c0.2,0,0.3,0,0.5,0.1c0.6,0.1,1.1,0.2,1.5,0.4c-0.8,1.3-2,2.4-3.3,3.1c-1.3,0.7-2.8,0.9-4.2,0.7
			c-1.4-0.2-2.8-0.9-3.9-2l-0.1-0.2c0.6-0.4,1.2-0.8,2-1.1c1.2-0.5,2.5-0.8,3.9-1C465.8,249.9,467.1,249.9,468.2,250"/>
		<path class="st4" d="M477.1,242.2c-0.8-0.2-1.1-1.8-0.7-3.6s1.3-3.2,2.1-3c0.8,0.2,1.1,1.8,0.7,3.6
			C478.8,241,477.9,242.4,477.1,242.2"/>
		<path class="st4" d="M453.5,236.6c-0.7-0.1-1-1.7-0.7-3.4c0.4-1.7,1.2-3,1.9-2.8c0.7,0.1,1,1.7,0.7,3.4
			C455.1,235.4,454.3,236.7,453.5,236.6"/>
		<path class="st21" d="M458.7,217c-0.7,0-1.5,0.1-2.4,0.3c-1.1,0.2-2,0.6-2.7,0.9c-0.7,0.4-1.1,0.8-1,1.1c0.1,0.4,0.7,0.6,1.8,0.6
			c0.7,0,1.5-0.1,2.4-0.3c2.2-0.5,3.8-1.4,3.7-2C460.4,217.2,459.7,217,458.7,217"/>
		<path class="st21" d="M479.2,220.4c-0.4,0-0.7,0.1-0.8,0.3c-0.2,0.3,0.1,0.8,0.7,1.4c0.6,0.6,1.5,1.2,2.5,1.8
			c1.4,0.8,2.8,1.2,3.7,1.2c0.4,0,0.7-0.1,0.8-0.3c0.2-0.3-0.1-0.8-0.7-1.4c-0.6-0.6-1.5-1.2-2.5-1.8
			C481.4,220.8,480,220.4,479.2,220.4"/>
		<path class="st31" d="M462.3,236.4c-0.2,0-0.3,0-0.5,0c-0.3,0-0.7,0.1-1,0.3c-0.3,0.1-0.6,0.3-0.9,0.6c-0.3,0.3-0.5,0.6-0.7,1
			c0,0.1-0.1,0.2,0,0.3c0,0.1,0.1,0.2,0.2,0.3c0,0,0.1,0,0.2,0c0.1,0,0.1,0,0.2,0c0.1,0,0.2-0.1,0.2-0.2l0.1-0.1
			c0.1-0.2,0.3-0.4,0.5-0.6c0.2-0.2,0.4-0.3,0.6-0.4c0.2-0.1,0.3-0.2,0.5-0.2c0.3-0.1,0.6-0.1,0.9-0.1c0.3,0,0.6,0.1,1,0.1
			c0.3,0.1,0.6,0.2,0.9,0.4c0.2,0.1,0.4,0.3,0.7,0.6c0.2,0.2,0.3,0.4,0.5,0.6l0.1,0.1l0,0c0.1,0.2,0.2,0.3,0.3,0.3
			c0.2,0,0.2-0.1,0.2-0.2c0-0.1,0-0.1,0-0.2c-0.2-0.3-0.4-0.6-0.6-0.9c-0.2-0.2-0.5-0.5-0.8-0.7c-0.5-0.4-1.2-0.6-1.9-0.8
			C462.7,236.4,462.5,236.4,462.3,236.4"/>
	</g>
	<g>
		<path class="st4" d="M515.6,370.9c-3.4,0-6.7,0-10.1,0c6.4,23.7,12.9,47.4,19.3,71.1h4c-3.3-23.7-6.5-47.4-9.8-71.1
			C517.9,370.9,516.8,370.9,515.6,370.9"/>
		<path class="st4" d="M491.2,370.9c-3.5,0-7.1,0-10.6,0c5.8,21.2,11.5,42.4,17.3,63.6h4c-2.9-21.2-5.9-42.4-8.8-63.6
			C492.5,370.9,491.8,370.9,491.2,370.9"/>
		<path class="st4" d="M427.7,370.9c-3.2,23.2-6.4,46.4-9.6,69.6h4c6.3-23.2,12.6-46.4,18.9-69.6H427.7z"/>
		<path class="st4" d="M453.7,370.9c-2.9,20.7-5.7,41.4-8.6,62.2h4c5.6-20.7,11.3-41.4,16.9-62.2H453.7z"/>
		<path class="st32" d="M430.5,358.1h-6.9c-6.6,0-12.2,4.9-12.2,10.8c0,5.9,5.5,10.8,12.2,10.8h95.3h1c6.6,0,12.2-4.9,12.2-10.8
			c0-5.9-5.5-10.8-12.2-10.8H430.5z"/>
		<path class="st4" d="M512.7,358.1c0,0.4,0.1,0.8,0,1.2c0,0.5-0.1,0.9-0.2,1.4c-0.2,1-0.6,1.9-1,2.9c-0.5,1-1.1,1.9-1.7,2.8
			c-0.6,0.9-1.3,1.7-2.1,2.4c-0.7,0.7-1.5,1.4-2.3,2.1c-0.9,0.7-1.8,1.4-2.7,2c-2,1.3-4.1,2.5-6.2,3.5c-2.2,1.1-4.5,2-6.8,2.8
			c-0.8,0.3-1.5,0.5-2.3,0.7h31.5h1c6.6,0,12.2-5,12.2-10.9c0-5.9-5.6-10.9-12.2-10.9H512.7z"/>
	</g>
	<g>
		<path class="st4" d="M304.6,288.4V305c0,1.2,1,2.2,2.2,2.2c1.2,0,2.2-1,2.2-2.2v-16.5c0-1.2-1-2.2-2.2-2.2
			C305.6,286.2,304.6,287.2,304.6,288.4"/>
		<path class="st4" d="M314.4,302.1h-10.2h-5c-3.2,0-5.9,2.7-5.9,5.9c0,3.2,2.7,5.9,5.9,5.9h15.2c3.2,0,5.9-2.7,5.9-5.9
			C320.2,304.8,317.6,302.1,314.4,302.1"/>
		<path class="st27" d="M322.1,237.5c-1,0-2.1,0.1-3.1,0.3c-1.8,0.4-3.7,1.1-5.5,2.2c-1.7,1-3.2,2.4-4.5,3.9
			c-0.6,0.8-1.2,1.6-1.7,2.5c-0.7-0.7-1.4-1.4-2.1-2.1c-0.9-0.8-2-1.6-3.3-2.4c-2.2-1.4-4.5-2.3-6.7-2.9c-1.3-0.3-2.6-0.5-3.9-0.5
			c-0.7,0-1.3,0-2,0.1c-1.7,0.2-3.5,0.8-5.2,1.6c-3.1,1.5-5.6,3.7-7.9,5.8c-1.2,1.1-2.4,2.3-3.6,3.4c-1.3,1.2-2.6,2.5-3.9,3.7
			c-1.4,1.3-2.7,2.3-3.9,3.2c-0.1,0-0.1,0.1-0.2,0.2c-0.2,0.1-0.4,0.4-0.4,0.6c0.1,1.4,0.3,2.8,0.5,4.1c0.6,2.8,1.6,5.4,3,8
			c1.4,2.5,3.1,4.9,5.3,7.1c3.9,4,8.8,7.2,14.6,9.5c5.3,2.1,11.2,3.3,17.4,3.6c0.6,0,1.2,0,1.8,0c5.3,0,10.4-0.8,15.4-2.3
			c10.6-3.2,19.2-9.8,23.7-18.2c0.5-0.9,0.9-1.8,1.3-2.8c0.3-0.8,0.6-1.6,0.9-2.4c0.1-0.2,0.1-0.3,0.1-0.4c0.2-0.7,0.4-1.5,0.6-2.2
			l0-0.1l0.1-0.3c0,0,0-0.1,0-0.1l0-0.1l0,0l0-0.1l0-0.2c0,0,0-0.1,0-0.1c0.1-0.6,0.2-1.2,0.2-1.7l0-0.3l0-0.2l0-0.1l0-0.3l0-0.1
			l0,0l0-0.1l0,0c0,0,0-0.1,0-0.1l0-0.1l0-0.2l0-0.1c0-0.1,0-0.2,0-0.3l0-0.2v-0.1l0-0.1c0-0.4-0.2-0.6-0.5-0.7
			c0-0.1-0.1-0.1-0.2-0.2c-1.2-0.6-2.3-1.4-3.5-2.4c-2-1.6-3.8-3.6-5.5-5.4c-1.1-1.2-2.2-2.4-3.4-3.5c-1.7-1.7-3.4-3-5.1-4
			c-2-1.2-4.2-2.1-6.4-2.5C323.9,237.5,323,237.5,322.1,237.5"/>
		<path class="st33" d="M289.2,238.6c-1.7,0.2-3.5,0.8-5.2,1.6c-3,1.5-5.6,3.7-7.9,5.8c-1.2,1.1-2.4,2.3-3.6,3.4l-0.1,0.1
			c-1.2,1.2-2.5,2.4-3.7,3.6c-1.4,1.3-2.6,2.3-3.9,3.2c-0.1,0-0.1,0.1-0.2,0.2c-0.2,0.1-0.4,0.4-0.4,0.6c0.1,1.4,0.3,2.8,0.5,4.1
			c0.6,2.7,1.6,5.4,3,8c1.4,2.5,3.1,4.9,5.3,7.1c3.9,4,8.8,7.2,14.6,9.5c5.3,2.2,11.2,3.4,17.4,3.6c0.6,0,1.2,0,1.8,0
			c5.3,0,10.4-0.8,15.4-2.3c1.7-0.5,3.3-1.1,4.8-1.8c-2.7,0.5-5.4,0.8-8.1,1c-3.7,0.2-7.5,0.2-11.2-0.2c-3.7-0.4-7.3-1-10.8-2.1
			c-3.3-1.1-6.6-2.5-9.5-4.4c-1.4-0.9-2.7-2-3.9-3.2c-1.2-1.2-2.3-2.5-3.2-3.9c-1-1.4-1.8-3-2.4-4.6c-0.4-0.9-0.7-1.8-0.9-2.8
			c-0.3-1.1-0.5-2.2-0.5-3.3c-0.1-2.2,0.1-4.3,0.7-6.4c0.6-2.1,1.5-4,2.7-5.8c1.2-1.8,2.7-3.4,4.3-4.8c1.6-1.4,3.5-2.6,5.4-3.5
			c1-0.4,2-0.8,3-1.1c1-0.3,2.1-0.5,3.1-0.6c0.6-0.1,1.2-0.1,1.7-0.1c-0.7-0.3-1.5-0.5-2.2-0.7c-1.3-0.3-2.6-0.5-3.9-0.5
			C290.5,238.5,289.9,238.6,289.2,238.6"/>
		<path class="st4" d="M342.7,258.7c-0.6,0.4-1.2,0.8-1.8,1.2c-1.5,0.8-3.2,1.5-4.8,2c-2.8,0.9-5.8,1.6-8.7,2.1
			c-3,0.5-5.9,0.9-8.9,1.2c-3.1,0.3-6.2,0.5-9.3,0.5c-3.1,0.1-6.2,0.1-9.3-0.1c-3-0.1-6.1-0.3-9.1-0.7c-2.9-0.3-5.9-0.7-8.8-1.3
			c-1.5-0.3-2.9-0.6-4.4-1c-1.4-0.4-2.8-0.8-4.1-1.3c-0.7-0.3-1.3-0.5-1.9-0.8c-0.4-0.2-0.8-0.4-1.2-0.6c0.3,1,0.7,1.9,1.1,2.9
			c2.2,4.5,6.2,8.6,11.5,11.6c2.3,1.3,4.8,2.4,7.7,3.4c2.7,0.9,5.5,1.5,8.5,2c2.4,0.3,4.8,0.5,7.2,0.5c3.3,0,6.7-0.3,10-0.9
			c2.7-0.5,5.5-1.3,8.1-2.3c2.7-1.1,5.2-2.3,7.4-3.8c2.9-1.9,5.3-4.1,7.2-6.7l0.1-0.1c0.5-0.6,0.8-1.2,1.2-1.7l0-0.1l0.1-0.1
			l0.2-0.2c0.3-0.5,0.5-0.9,0.7-1.3l0-0.1l0.1-0.2l0-0.1c0.3-0.6,0.5-1.1,0.7-1.7l0-0.1l0-0.1l0-0.1l0-0.1l0-0.1l0-0.1l0-0.1l0-0.1
			c0.1-0.3,0.2-0.6,0.2-0.9C342.8,259,342.8,258.8,342.7,258.7C342.7,258.7,342.7,258.7,342.7,258.7"/>
		<path class="st3" d="M341.6,258.1l-0.1,0l-0.2,0l-0.1,0l-0.1,0l-0.2,0l-0.4,0l-0.4,0.1c-0.9,0.2-1.7,0.3-2.6,0.5
			c-1.6,0.3-3.3,0.5-5.3,0.8c-2.6,0.3-5.2,0.6-7.8,0.9c-5.3,0.5-10.9,0.7-16.7,0.8c-0.7,0-1.4,0-2.1,0c-5.3,0-10.6-0.2-15.8-0.6
			c-3.5-0.3-7-0.6-10.4-1.1c-1.3-0.2-2.4-0.3-3.6-0.5l-0.2,0c-1-0.2-2.1-0.4-3.1-0.5l-0.2,0l-0.8-0.1c-0.1,0-0.1,0-0.2,0
			c-0.2-0.1-0.4-0.2-0.6-0.2c-0.1,0-0.1,0-0.2,0c-0.4,0.1-0.7,0.5-0.5,1c0.2,0.7,0.4,1.3,0.6,2c0.7,0.4,1.5,0.8,2.3,1.1
			c0,0,0,0-0.1,0c1.3,0.5,2.6,1,3.9,1.4c1.3,0.4,2.6,0.7,3.9,1c2.6,0.6,5.1,1,7.7,1.4c0,0,0,0,0,0c0,0,0,0,0,0c0,0,0,0,0,0
			c2.9,0.4,5.8,0.7,8.7,0.8c3,0.2,5.9,0.3,8.9,0.3c5.9,0,11.8-0.3,17.6-1.1h0c2.7-0.4,5.3-0.8,8-1.4c2.5-0.6,5-1.3,7.4-2.3
			c0,0,0,0-0.1,0c1.3-0.5,2.5-1.1,3.6-1.9l0-0.1l0-0.1l0-0.1c0.1-0.3,0.2-0.6,0.2-0.9c0.1-0.4-0.1-0.8-0.5-0.9
			c-0.1-0.1-0.3-0.1-0.4-0.1C341.7,258,341.7,258.1,341.6,258.1"/>
	</g>
	<polyline class="st34" points="340.4,293.1 340.4,293.1 340.4,293.1 	"/>
	<g>
		<g>
			<path class="st34" d="M351,290.4h-8.2c-0.2,0-0.5,0-0.7,0c-0.2,0.2-0.3,0.5-0.5,0.7c-0.4,0.7-0.8,1.3-1.2,2c0,0,0,0,0,0
				c-0.5,0.9-0.9,1.9-1.2,2.9c-0.3,1-0.5,1.9-0.7,2.9c0,0,0,0,0,0c0,0,0,0,0,0v0c-0.2,1.1-0.3,2.1-0.2,3.2c0,1.1,0.1,2.1,0.3,3.2v0
				c0.2,1.2,0.5,2.4,0.9,3.6c0.4,1.1,0.9,2.2,1.4,3.3c0,0,0,0,0-0.1c0.5,0.9,1,1.8,1.6,2.7c0.1,0,0.3,0,0.4,0h61h2.5
				c0.5,0,0.9,0,1.4-0.1c0.6-1.2,1.1-2.4,1.5-3.7c0.5-1.6,1-3.2,1.2-4.8v0c0.2-0.9,0.3-1.8,0.3-2.8c0-0.8,0.1-1.6,0-2.4
				c0-1.5-0.1-2.9-0.4-4.4v0c-0.3-1.7-0.8-3.4-1.6-5c0,0,0,0,0,0.1c-0.2-0.4-0.5-0.8-0.7-1.2c0,0,0,0,0,0c-0.6-0.1-1.2-0.1-1.9-0.1
				H351z M340.5,293.1L340.5,293.1L340.5,293.1z"/>
			<rect x="359.9" y="290.4" class="st16" width="4.1" height="24.4"/>
			<polygon class="st16" points="351,290.4 347.6,290.4 347.6,314.8 355.8,314.8 355.8,290.4 			"/>
		</g>
		<g>
			<path class="st27" d="M380.6,277h-26.7c-0.5,0-0.9,0-1.4,0.1c0,0,0,0,0,0c-0.3,0.4-0.5,0.9-0.7,1.4l0-0.1
				c-0.2,0.6-0.4,1.1-0.6,1.7c-0.2,0.6-0.3,1.2-0.4,1.8c0,0,0,0,0-0.1c-0.1,0.6-0.1,1.2-0.1,1.8c0,0.6,0,1.2,0.1,1.8c0,0,0,0,0-0.1
				c0.1,0.6,0.2,1.1,0.3,1.6c0.1,0.5,0.3,0.9,0.5,1.4c0,0,0,0,0,0c0,0,0,0,0,0.1c0.2,0.4,0.4,0.8,0.6,1.2c0.1,0.2,0.3,0.5,0.4,0.7
				c0.4,0,0.8,0.1,1.2,0.1h48.4h6.7c0.2,0,0.5,0,0.7,0c0.3-0.5,0.5-1,0.8-1.5c0,0,0,0,0,0c0.3-0.6,0.5-1.2,0.6-1.9
				c0.2-0.7,0.3-1.3,0.4-2c0,0,0,0,0,0.1c0.1-0.7,0.1-1.3,0.1-2c0-0.6,0-1.2-0.1-1.8v0c-0.1-0.5-0.2-1-0.3-1.5
				c-0.1-0.4-0.3-0.9-0.4-1.3c-0.2-0.4-0.3-0.8-0.6-1.1c-0.1-0.1-0.2-0.3-0.2-0.4c-0.3,0-0.6,0-1,0H380.6z"/>
			<rect x="355.2" y="281" class="st3" width="26.8" height="5.9"/>
		</g>
	</g>
	<g>
		<path class="st4" d="M334.3,323.9v112.3c0,2.1,1.8,3.9,3.9,3.9c2.1,0,3.9-1.8,3.9-3.9V323.9c0-2.1-1.8-3.9-3.9-3.9
			C336,320,334.3,321.7,334.3,323.9"/>
		<path class="st35" d="M374,425.9h-39.3h-35.4c-4,0-7.3,3.4-7.3,7.3c0,4,3.4,7.3,7.3,7.3h72.1h2.6c4,0,7.3-3.4,7.3-7.3
			C381.4,429.3,378,425.9,374,425.9"/>
		<path class="st5" d="M410,310.5L410,310.5h-78.7h-70c-5.2,0-9.5,4.3-9.5,9.5c0,5.2,4.3,9.5,9.5,9.5h129.8H410
			c5.2,0,9.5-4.3,9.5-9.5C419.5,314.8,415.2,310.5,410,310.5"/>
		<path class="st6" d="M413.7,323.7h-85.3h-75.8c1.5,3.4,4.9,5.9,8.8,5.9h129.8H410c3.9,0,7.3-2.5,8.8-5.9H413.7z"/>
	</g>
</g>
</svg>
