<?xml version="1.0" encoding="utf-8"?>
<!-- Generator: Adobe Illustrator 25.3.0, SVG Export Plug-In . SVG Version: 6.00 Build 0)  -->
<svg version="1.1" id="Layer_1" xmlns="http://www.w3.org/2000/svg" xmlns:xlink="http://www.w3.org/1999/xlink" x="0px" y="0px"
	 viewBox="0 0 1649 532" style="enable-background:new 0 0 1649 532;" xml:space="preserve">
<style type="text/css">
	.st0{fill:#1E2D46;}
	.st1{fill:#527DC9;}
</style>
<g>
	<path class="st0" d="M765.3,322c0-3.2,2.6-5.8,5.8-5.8h3.2c6.5-0.2,13-0.1,19.5,0H824c7.3-0.4,14.5-1.2,21.6-2.9
		c19.5-4.5,37.4-15.3,50.6-30.4c13.2-15.1,21.5-34.3,23.4-54.2c0.3-2.9,0.5-5.9,2-8.3c1.5-2.5,4.8-4.1,7.3-2.7
		c1.5,4.5-0.1,9.4-0.3,14.2c-0.1,4.8,2.5,10.5,7.2,10.6c4.8,0.1,7.5-5.7,7.4-10.5c-0.1-4.8-1.7-9.7-0.4-14.3c2.7,0,5.5,0,8.2,0
		c1.4,4.6-0.3,9.4-0.4,14.2c-0.1,4.8,2.5,10.5,7.2,10.5c4.8,0.1,7.5-5.7,7.4-10.5c-0.1-4.8-1.7-9.7-0.4-14.3c2.7,0,5.4,0,8.1,0
		c1.4,4.6-0.2,9.4-0.4,14.2c-0.1,4.8,2.5,10.5,7.3,10.5c4.8,0,7.5-5.7,7.4-10.5c-0.1-4.8-1.7-9.6-0.3-14.2c1.9-0.6,4.2-0.4,6,0.5
		c2,1,1.6,3,1.8,5c2,22.9-3.1,46.1-13,66.8c-10.5,21.9-26.4,40.9-44.9,56.6c-19.8,16.8-42.8,29.9-67.7,36.9
		c-29.2,8.2-59.9,7.8-90.3,6.5h-7.7c-0.8,0-1.6-0.2-2.3-0.5c-0.9-0.1-1.8-0.4-2.4-1c-0.7-0.8-0.9-1.8-1-2.9
		c-0.1-0.5-0.2-0.9-0.2-1.4V322z"/>
	<path class="st1" d="M1380.1,458.8c-1.9-2.5-3-5.3-3-8.7c0-4.8,4.2-7.8,10.6-7.8c4.5,0,10.6,1.4,17.6,4.2v-21.2
		c-6.1-2.8-15.6-5.6-25.1-5.6c-15.6,0-27.3,10.9-27.3,25.4c0,5,0.8,9.5,3.1,13.7h-12v23.4h66.4l5.3-23.4H1380.1z"/>
	<path class="st1" d="M376,150.1h-4.7c-14.1,24.5-28.2,49-42.2,73.6c10.1,0,20.2,0,30.3,0c29.4,0,49.7,16.6,50.1,40.9v14.7
		c0,21.2-12.4,35.4-38.2,35.4H277c-14.5,25.4-29.1,50.7-43.6,76.1c45.7-0.1,91.4-0.1,137-0.2c74,0,110.4-33.1,111.3-96.6v-35.9
		C481.7,187.8,438.5,150.1,376,150.1"/>
	<path class="st1" d="M1218.3,159l0.5,210.6c0,39.5-27.1,54.3-64.4,54.3l5.1,58.4c87.8,0,130.6-29.9,130.6-109.5V150.3L1218.3,159z"
		/>
	<polygon class="st1" points="1343.9,56.2 1343.9,390.6 1415.6,390.6 1415.6,47.7 	"/>
	<path class="st1" d="M731,316.1h-89.2c-0.1,0-0.2,0-0.2,0c-0.1,0-0.2,0-0.2,0c-26.2,0-38.2-14.5-38.2-46.6l-0.5-203.4V47.7
		l-71.7,8.5v12.7l0.5,225.9c0,51.3,23.5,82.1,71.3,92.1c11.6,2.4,24.6,3.7,39.1,3.7H731c2.8,0,4.6-2.3,4.6-5v-65.1
		C735.6,317.9,733.7,316.1,731,316.1"/>
	<path class="st1" d="M1150.6,322c0-3.2-2.6-5.8-5.8-5.8h-3.2c-6.5-0.2-13-0.1-19.5,0H1092c-7.3-0.4-14.5-1.2-21.6-2.9
		c-19.5-4.5-37.4-15.3-50.6-30.4c-13.2-15.1-21.5-34.3-23.4-54.2c-0.3-2.9-0.5-5.9-2-8.3c-1.5-2.5-4.8-4.1-7.3-2.7
		c-1.5,4.5,0.1,9.4,0.3,14.2c0.1,4.8-2.5,10.5-7.2,10.6c-4.8,0.1-7.5-5.7-7.4-10.5c0.1-4.8,1.7-9.7,0.4-14.3c-2.7,0-5.5,0-8.2,0
		c-1.4,4.6,0.3,9.4,0.4,14.2c0.1,4.8-2.5,10.5-7.2,10.5c-4.8,0.1-7.5-5.7-7.4-10.5c0.1-4.8,1.7-9.7,0.4-14.3c-2.7,0-5.4,0-8.1,0
		c-1.4,4.6,0.2,9.4,0.4,14.2c0.1,4.8-2.5,10.5-7.3,10.5c-4.8,0-7.5-5.7-7.4-10.5c0.1-4.8,1.7-9.6,0.3-14.2c-1.9-0.6-4.2-0.4-6,0.5
		c-2,1-1.6,3-1.8,5c-2,22.9,3.1,46.1,13,66.8c10.5,21.9,26.4,40.9,44.9,56.6c19.8,16.8,42.8,29.9,67.7,36.9
		c29.2,8.2,59.9,7.8,90.3,6.5h7.7c0.8,0,1.6-0.2,2.3-0.5c0.9-0.1,1.8-0.4,2.4-1c0.7-0.8,0.9-1.8,1-2.9c0.1-0.5,0.2-0.9,0.2-1.4V322z
		"/>
	<path class="st1" d="M1093.5,274.6c-31.6,0.1-57-24.9-57.2-56.2c-0.1-31.4,25.1-57,56.4-57.2c31.6-0.2,57.4,24.8,57.7,55.9
		C1150.8,249,1125.5,274.5,1093.5,274.6"/>
	<path class="st1" d="M822.5,274.6c-32.1-0.3-56.9-25.7-56.5-57.9c0.4-30.6,26.2-55.7,57-55.5c32.6,0.2,56.9,25.4,56.7,58.6
		C879.5,250.6,854.1,274.9,822.5,274.6"/>
	<path class="st0" d="M267.5,464.5v5.4h-1.4c-3.5,0-6.4-1-8.7-3.1c-2.3,2.1-5.3,3.1-8.9,3.1c-4,0-7.2-1.3-9.7-4
		c-2.3-2.5-3.5-5.7-3.5-9.6c0-3.9,1.1-7.1,3.4-9.7c2.4-2.7,5.6-4,9.7-4h13.2v13.6c0,5.4,1.5,8.1,4.5,8.1H267.5z M243.8,439.6
		c-1.3,0-2.3-0.4-3.2-1.3c-0.9-0.9-1.3-2-1.3-3.3c0-1.3,0.5-2.3,1.4-3.2c0.9-0.9,2-1.3,3.2-1.3c1.2,0,2.3,0.4,3.1,1.3
		c0.9,0.9,1.3,2,1.3,3.2c0,1.3-0.5,2.4-1.4,3.3C246,439.1,244.9,439.6,243.8,439.6L243.8,439.6z M253,448.2h-4.5
		c-1.5,0-2.6,0.8-3.4,2.4c-0.7,1.5-1.1,3.4-1.1,5.8c0,2.4,0.4,4.3,1.1,5.8c0.8,1.6,1.9,2.4,3.4,2.4c1.5,0,2.6-0.8,3.4-2.4
		c0.7-1.5,1.1-3.4,1.1-5.8V448.2z M254.9,439.6c-1.2,0-2.3-0.4-3.2-1.3c-0.9-0.9-1.3-2-1.3-3.3c0-1.3,0.5-2.3,1.4-3.2
		c0.9-0.9,2-1.3,3.2-1.3c1.2,0,2.3,0.4,3.1,1.3c0.9,0.9,1.3,2,1.3,3.2c0,1.3-0.5,2.4-1.4,3.3C257.1,439.1,256.1,439.6,254.9,439.6
		L254.9,439.6z M291.3,464.5v5.4h-3.6c-3.5,0-6.4-1.1-8.8-3.2c-2.3,2.1-5.3,3.2-8.8,3.2h-3.7v-5.4h3.6c3,0,4.5-2.7,4.5-8.1v-9.2
		c0-2.9,1.5-4.4,4.4-4.4c1.7,0,3.4,0.3,5.2,0.8c-0.7,2.4-1,5.3-1,8.8v4.1c0,5.4,1.5,8.1,4.5,8.1H291.3z M273.4,483.4
		c-1.3,0-2.3-0.4-3.2-1.3c-0.9-0.9-1.3-2-1.3-3.3c0-1.3,0.5-2.3,1.4-3.2c0.9-0.9,2-1.3,3.2-1.3c1.2,0,2.3,0.4,3.1,1.3
		c0.9,0.9,1.3,2,1.3,3.2c0,1.3-0.5,2.4-1.4,3.3C275.6,483,274.6,483.4,273.4,483.4L273.4,483.4z M284.5,483.4
		c-1.3,0-2.3-0.4-3.2-1.3c-0.9-0.9-1.3-2-1.3-3.3c0-1.3,0.5-2.3,1.4-3.2c0.9-0.9,2-1.3,3.2-1.3c1.2,0,2.3,0.4,3.1,1.3
		c0.9,0.9,1.3,2,1.3,3.2c0,1.3-0.5,2.4-1.4,3.3C286.7,483,285.7,483.4,284.5,483.4L284.5,483.4z M350.1,464.5v5.4h-1.4
		c-3.5,0-6.5-1-8.8-3.1c-2.3,2.1-5.3,3.1-8.8,3.1H329c-3.5,0-6.4-1-8.8-3.1c-2.3,2.1-5.3,3.1-8.8,3.1h-2.2c-3.5,0-6.5-1-8.8-3.1
		c-2.3,2.1-5.3,3.1-8.8,3.1h-1.4v-5.4h1.4c3,0,4.5-2.7,4.5-8.1v-5.3c0-2.9,1.5-4.4,4.4-4.4c1.7,0,3.5,0.3,5.2,0.8
		c-0.7,2.4-1,5.2-1,8.6v0.2c0,5.4,1.5,8.1,4.5,8.1h2.1c3,0,4.5-2.7,4.5-8.1v-5.3c0-2.9,1.5-4.4,4.4-4.4c1.7,0,3.5,0.3,5.2,0.8
		c-0.7,2.4-1,5.2-1,8.6v0.2c0,5.4,1.5,8.1,4.5,8.1h2c3,0,4.5-2.7,4.5-8.1v-9.2c0-2.9,1.5-4.4,4.4-4.4c1.7,0,3.5,0.3,5.2,0.8
		c-0.7,2.4-1,5.3-1,8.8v4.1c0,5.4,1.5,8.1,4.5,8.1H350.1z M387.8,464.5v5.4h-38.7v-5.4h6.1v-8.2c0-3.9,1.1-7.1,3.4-9.6
		c2.4-2.6,5.6-4,9.7-4c4,0,7.3,1.3,9.7,4c2.3,2.5,3.5,5.7,3.5,9.6c0,3.1-0.8,5.8-2.4,8.2H387.8z M368.4,464.5c3,0,4.5-2.7,4.5-8.2
		c0-2.4-0.4-4.3-1.1-5.8c-0.8-1.6-1.9-2.4-3.4-2.4c-1.5,0-2.6,0.8-3.4,2.4c-0.7,1.5-1.1,3.4-1.1,5.8v8.2H368.4z M371.6,438.2
		c-0.9,0.9-2,1.3-3.2,1.3c-1.3,0-2.3-0.4-3.2-1.3c-0.9-0.9-1.3-2-1.3-3.3c0-1.3,0.5-2.3,1.4-3.2c0.9-0.9,2-1.3,3.2-1.3
		c1.2,0,2.3,0.4,3.1,1.3c0.9,0.9,1.3,2,1.3,3.2C373,436.2,372.5,437.3,371.6,438.2L371.6,438.2z M407.1,464.5v5.4h-1.4
		c-3.5,0-6.4-1-8.8-3.1c-2.3,2.1-5.3,3.1-8.8,3.1h-1.4v-5.4h1.4c3,0,4.5-2.7,4.5-8.1v-9.2c0-2.9,1.5-4.4,4.4-4.4
		c1.7,0,3.5,0.3,5.2,0.8c-0.7,2.4-1,5.3-1,8.8v4.1c0,5.4,1.5,8.1,4.5,8.1H407.1z M397.2,439.6c-1.2,0-2.3-0.4-3.2-1.3
		c-0.9-0.9-1.3-2-1.3-3.3c0-1.3,0.5-2.3,1.4-3.2c0.9-0.9,2-1.3,3.2-1.3c1.2,0,2.3,0.4,3.1,1.3c0.9,0.9,1.3,2,1.3,3.2
		c0,1.3-0.5,2.4-1.4,3.3C399.5,439.1,398.4,439.6,397.2,439.6L397.2,439.6z M416.5,432.5c1.7,0,3.5,0.3,5.2,0.8
		c-0.7,2.4-1,5.3-1,8.8v14.3c0,3.9-1.2,7.1-3.5,9.6c-2.4,2.6-5.6,4-9.6,4h-1.4v-5.4h1.4c3,0,4.5-2.7,4.5-8.1v-19.5
		C412.1,434,413.5,432.5,416.5,432.5L416.5,432.5z M428,436.9c0-2.9,1.5-4.4,4.4-4.4c1.7,0,3.5,0.3,5.2,0.8c-0.7,2.4-1,5.3-1,8.7
		v23.5c0,2.9-1.5,4.4-4.4,4.4c-1.7,0-3.5-0.3-5.2-0.8c0.7-2.4,1-5.3,1-8.8V436.9L428,436.9z M437.8,469.9L437.8,469.9z M485.7,464.5
		v5.4h-1.4c-3.5,0-6.4-1-8.7-3.1c-2.3,2.1-5.3,3.1-8.9,3.1c-4,0-7.2-1.3-9.7-4c-2.3-2.5-3.5-5.7-3.5-9.6c0-3.9,1.1-7.1,3.4-9.7
		c2.4-2.7,5.6-4,9.7-4h13.2v13.6c0,5.4,1.5,8.1,4.5,8.1H485.7z M461.9,439.6c-1.3,0-2.3-0.4-3.2-1.3c-0.9-0.9-1.3-2-1.3-3.3
		c0-1.3,0.5-2.3,1.4-3.2c0.9-0.9,2-1.3,3.2-1.3c1.2,0,2.3,0.4,3.1,1.3c0.9,0.9,1.3,2,1.3,3.2c0,1.3-0.5,2.4-1.4,3.3
		C464.2,439.1,463.1,439.6,461.9,439.6L461.9,439.6z M471.2,448.2h-4.5c-1.5,0-2.6,0.8-3.4,2.4c-0.7,1.5-1.1,3.4-1.1,5.8
		c0,2.4,0.4,4.3,1.1,5.8c0.8,1.6,1.9,2.4,3.4,2.4c1.5,0,2.6-0.8,3.4-2.4c0.7-1.5,1.1-3.4,1.1-5.8V448.2z M473,439.6
		c-1.2,0-2.3-0.4-3.2-1.3c-0.9-0.9-1.3-2-1.3-3.3c0-1.3,0.5-2.3,1.4-3.2c0.9-0.9,2-1.3,3.2-1.3c1.2,0,2.3,0.4,3.1,1.3
		c0.9,0.9,1.3,2,1.3,3.2c0,1.3-0.5,2.4-1.4,3.3C475.3,439.1,474.2,439.6,473,439.6L473,439.6z M512.2,460.2c0,1.6,0.1,3.1,0.2,4.3
		h7.3v5.4h-35v-5.4h19.6c-0.5-1.9-0.7-4-0.7-6.3v-4.1c0-2.1-0.3-3.7-0.9-4.8c-0.5-0.9-1.5-1.4-3-1.4c-2,0-3.2,0.2-3.8,0.6
		c-0.8,0.6-1.4,1.9-1.6,3.8c-3.3-0.1-4.9-1.5-4.9-4.2c0-1.7,0.8-3,2.5-3.8c2.2-1,4.6-1.6,7.2-1.6c5,0,8.5,0.7,10.3,2.2
		c1.8,1.4,2.7,3.9,2.7,7.4V460.2L512.2,460.2z M568.8,464.5v5.4h-2.5c-3.2,0-6-0.9-8.2-2.7c-2.3,1.8-5,2.7-8.3,2.7H518v-5.4h7.1
		v-17.4c0-2.9,1.5-4.4,4.4-4.4c1.7,0,3.5,0.3,5.2,0.8c-0.6,2.2-1,4.7-1,7.8c0.9-0.9,1.8-1.8,2.7-2.6c2.1-1.8,4.3-3.2,6.4-4.2
		c2.3-1.1,4.5-1.6,6.8-1.7c4,0,7.3,1.3,9.7,4c2.3,2.5,3.4,5.7,3.4,9.6c0,3.1-0.8,5.9-2.3,8.2H568.8z M549.7,464.5
		c3,0,4.5-2.7,4.5-8.2c0-2.4-0.4-4.3-1.1-5.8c-0.8-1.6-1.9-2.4-3.4-2.4c-1.4,0-3,0.5-4.8,1.4c-3.9,1.9-7.6,5.4-11.1,10.4v4.5H549.7z
		 M577.7,432.5c1.7,0,3.5,0.3,5.2,0.8c-0.7,2.4-1,5.3-1,8.8v14.3c0,3.9-1.2,7.1-3.5,9.6c-2.4,2.6-5.6,4-9.6,4h-1.4v-5.4h1.4
		c3,0,4.5-2.7,4.5-8.1v-19.5C573.2,434,574.7,432.5,577.7,432.5L577.7,432.5z M589.2,436.9c0-2.9,1.5-4.4,4.4-4.4
		c1.7,0,3.5,0.3,5.2,0.8c-0.7,2.4-1,5.3-1,8.7v23.5c0,2.9-1.5,4.4-4.4,4.4c-1.7,0-3.5-0.3-5.2-0.8c0.7-2.4,1-5.3,1-8.8V436.9
		L589.2,436.9z M629.3,469.9c0,3.9-1.2,7.1-3.5,9.6c-2.4,2.7-5.6,4-9.6,4h-3.5c-2.9,0-4.8-0.9-5.5-2.6c-0.1-0.3-0.2-0.6-0.2-1
		c0-1.1,0.7-2.3,2-3.7c1.2,1.2,2.8,1.8,4.9,1.8h2.2c3,0,4.5-2.7,4.5-8.1h-4.6c-4,0-7.2-1.3-9.7-4c-2.3-2.5-3.4-5.7-3.4-9.6
		c0-3.9,1.2-7.1,3.5-9.6c2.4-2.6,5.6-4,9.7-4c4.1,0,7.3,1.3,9.7,4c2.3,2.5,3.4,5.7,3.4,9.6V469.9z M620.7,456.3
		c0-2.4-0.4-4.3-1.1-5.8c-0.8-1.6-1.9-2.4-3.4-2.4c-1.5,0-2.6,0.8-3.4,2.4c-0.7,1.5-1.1,3.4-1.1,5.8c0,5.4,1.5,8.2,4.5,8.2h4.5
		V456.3z M631.2,469.9L631.2,469.9z M679.1,464.5v5.4h-1.4c-3.5,0-6.4-1-8.7-3.1c-2.3,2.1-5.3,3.1-8.9,3.1c-4,0-7.2-1.3-9.7-4
		c-2.3-2.5-3.5-5.7-3.5-9.6c0-3.9,1.1-7.1,3.4-9.7c2.4-2.7,5.6-4,9.7-4h13.2v13.6c0,5.4,1.5,8.1,4.5,8.1H679.1z M655.4,439.6
		c-1.3,0-2.3-0.4-3.2-1.3c-0.9-0.9-1.3-2-1.3-3.3c0-1.3,0.5-2.3,1.4-3.2c0.9-0.9,2-1.3,3.2-1.3c1.2,0,2.3,0.4,3.1,1.3
		c0.9,0.9,1.3,2,1.3,3.2c0,1.3-0.5,2.4-1.4,3.3C657.6,439.1,656.6,439.6,655.4,439.6L655.4,439.6z M664.6,448.2h-4.5
		c-1.5,0-2.6,0.8-3.4,2.4c-0.7,1.5-1.1,3.4-1.1,5.8c0,2.4,0.4,4.3,1.1,5.8c0.8,1.6,1.9,2.4,3.4,2.4c1.5,0,2.6-0.8,3.4-2.4
		c0.7-1.5,1.1-3.4,1.1-5.8V448.2z M666.5,439.6c-1.2,0-2.3-0.4-3.2-1.3c-0.9-0.9-1.3-2-1.3-3.3c0-1.3,0.5-2.3,1.4-3.2
		c0.9-0.9,2-1.3,3.2-1.3c1.2,0,2.3,0.4,3.1,1.3c0.9,0.9,1.3,2,1.3,3.2c0,1.3-0.5,2.4-1.4,3.3C668.7,439.1,667.7,439.6,666.5,439.6
		L666.5,439.6z M695.6,442.7c1.7,0,3.5,0.3,5.2,0.8c-0.7,2.4-1,5.3-1,8.8v4.1c0,3.9-1.2,7.1-3.5,9.6c-2.4,2.7-5.6,4-9.6,4h-8.6v-5.4
		h8.6c3,0,4.5-2.7,4.5-8.1v-9.2C691.2,444.2,692.7,442.7,695.6,442.7L695.6,442.7z M684.7,483.4c-1.3,0-2.3-0.4-3.2-1.3
		c-0.9-0.9-1.3-2-1.3-3.3c0-1.3,0.5-2.3,1.4-3.2c0.9-0.9,2-1.3,3.2-1.3c1.2,0,2.3,0.4,3.1,1.3c0.9,0.9,1.3,2,1.3,3.2
		c0,1.3-0.5,2.4-1.4,3.3C686.9,483,685.8,483.4,684.7,483.4L684.7,483.4z M695.8,483.4c-1.3,0-2.3-0.4-3.2-1.3
		c-0.9-0.9-1.3-2-1.3-3.3c0-1.3,0.5-2.3,1.4-3.2c0.9-0.9,2-1.3,3.2-1.3c1.2,0,2.3,0.4,3.1,1.3c0.9,0.9,1.3,2,1.3,3.2
		c0,1.3-0.5,2.4-1.4,3.3C698,483,697,483.4,695.8,483.4L695.8,483.4z M727.6,469.9h-6c0,3.9-1.2,7-3.5,9.5c-2.4,2.6-5.6,4-9.6,4
		h-1.4c-2.9,0-4.8-0.9-5.5-2.6c-0.1-0.3-0.2-0.6-0.2-1c0-1.1,0.7-2.3,2-3.7c1.2,1.2,2.8,1.8,4.9,1.8h0.1c3,0,4.5-2.7,4.5-8.1v-22.8
		c0-2.9,1.5-4.4,4.4-4.4c1.7,0,3.5,0.3,5.2,0.8c-0.7,2.4-1,5.3-1,8.8v12.2h6V469.9z M771.8,447.1c0-2.9,1.5-4.4,4.4-4.4
		c1.7,0,3.5,0.3,5.2,0.8c-0.7,2.4-1,5.3-1,8.8v4.1c0,3.9-1.2,7.1-3.5,9.6c-2.4,2.6-5.6,4-9.6,4h-2.1c-3.5,0-6.4-1-8.8-3.1
		c-2.3,2.1-5.2,3.1-8.8,3.1h-2.2c-3.5,0-6.5-1-8.8-3.1c-2.3,2.1-5.3,3.1-8.8,3.1h-1.4v-5.4h1.4c3,0,4.5-2.7,4.5-8.1v-5.3
		c0-2.9,1.5-4.4,4.4-4.4c1.7,0,3.5,0.3,5.2,0.8c-0.7,2.4-1,5.2-1,8.6v0.2c0,5.4,1.5,8.1,4.5,8.1h2.1c3,0,4.5-2.7,4.5-8.1v-5.3
		c0-2.9,1.5-4.4,4.4-4.4c1.7,0,3.5,0.3,5.2,0.8c-0.7,2.4-1,5.2-1,8.6v0.2c0,5.4,1.5,8.1,4.5,8.1h2c3,0,4.5-2.7,4.5-8.1V447.1
		L771.8,447.1z M806.1,436.9c0-2.9,1.5-4.4,4.4-4.4c1.7,0,3.5,0.3,5.2,0.8c-0.7,2.4-1,5.3-1,8.8v14.3c0,3.9-1.2,7.1-3.5,9.6
		c-2.4,2.6-5.6,4-9.6,4h-11.8c-2.9,0-4.8-0.9-5.5-2.6c-0.1-0.3-0.2-0.6-0.2-1c0-1.1,0.7-2.3,2-3.7c1.2,1.2,2.8,1.8,4.9,1.8h10.5
		c3,0,4.5-2.7,4.5-8.2V436.9L806.1,436.9z M799.9,456.5c0,2.9-1.5,4.4-4.4,4.4c-1.7,0-3.5-0.3-5.2-0.8c0.7-2.4,1-5.3,1-8.7v-14.4
		c0-2.9,1.5-4.4,4.4-4.4c1.7,0,3.5,0.3,5.2,0.8c-0.7,2.4-1,5.3-1,8.8V456.5z M822.1,436.9c0-2.9,1.5-4.4,4.4-4.4
		c1.7,0,3.5,0.3,5.2,0.8c-0.7,2.4-1,5.3-1,8.7v23.5c0,2.9-1.5,4.4-4.4,4.4c-1.7,0-3.5-0.3-5.2-0.8c0.7-2.4,1-5.3,1-8.8V436.9
		L822.1,436.9z M831.8,469.9L831.8,469.9z M884.4,447.1c0-2.9,1.5-4.4,4.4-4.4c1.7,0,3.5,0.3,5.2,0.8c-0.7,2.4-1,5.3-1,8.8v4.1
		c0,3.9-1.2,7.1-3.5,9.6c-2.4,2.6-5.6,4-9.6,4h-19.2c-4,0-7.2-1.3-9.6-4c-2.3-2.5-3.4-5.7-3.5-9.6v-5.3c0-2.9,1.5-4.4,4.4-4.4
		c1.7,0,3.4,0.3,5.2,0.8c-0.7,2.4-1,5.3-1,8.8v0.1c0,5.4,1.5,8.1,4.5,8.1h19.2c3,0,4.5-2.7,4.5-8.1V447.1L884.4,447.1z M865.6,439.6
		c-1.3,0-2.3-0.4-3.2-1.3c-0.9-0.9-1.3-2-1.3-3.3c0-1.3,0.5-2.3,1.4-3.2c0.9-0.9,2-1.3,3.2-1.3c1.2,0,2.3,0.4,3.1,1.3
		c0.9,0.9,1.3,2,1.3,3.2c0,1.3-0.5,2.4-1.4,3.3C867.8,439.1,866.7,439.6,865.6,439.6L865.6,439.6z M876.7,439.6
		c-1.3,0-2.3-0.4-3.2-1.3c-0.9-0.9-1.3-2-1.3-3.3c0-1.3,0.5-2.3,1.4-3.2c0.9-0.9,2-1.3,3.2-1.3c1.2,0,2.3,0.4,3.1,1.3
		c0.9,0.9,1.3,2,1.3,3.2c0,1.3-0.5,2.4-1.4,3.3C878.9,439.1,877.8,439.6,876.7,439.6L876.7,439.6z M900.3,436.9
		c0-2.9,1.5-4.4,4.4-4.4c1.7,0,3.5,0.3,5.2,0.8c-0.7,2.4-1,5.3-1,8.7v23.5c0,2.9-1.5,4.4-4.4,4.4c-1.7,0-3.5-0.3-5.2-0.8
		c0.7-2.4,1-5.3,1-8.8V436.9L900.3,436.9z M919.8,447.1c0-2.9,1.5-4.4,4.4-4.4c1.7,0,3.4,0.3,5.2,0.8c-0.7,2.4-1,5.3-1,8.8v17.6
		c0,3.9-1.2,7.1-3.5,9.6c-2.4,2.7-5.6,4-9.6,4h-1.4c-2.9,0-4.8-0.9-5.5-2.6c-0.1-0.3-0.2-0.6-0.2-1c0-1.1,0.7-2.3,2-3.7
		c1.2,1.2,2.8,1.8,4.9,1.8h0.1c3,0,4.5-2.7,4.5-8.1V447.1L919.8,447.1z M949.9,464.5v5.4h-1.4c-4,0-7.2-1.3-9.6-4
		c-2.3-2.5-3.5-5.7-3.5-9.6v-19.4c0-2.9,1.5-4.4,4.4-4.4c1.7,0,3.5,0.3,5.2,0.8c-0.7,2.4-1,5.3-1,8.7v14.3c0,5.4,1.5,8.1,4.5,8.1
		H949.9z M1008.8,464.5v5.4h-1.4c-3.5,0-6.5-1-8.8-3.1c-2.3,2.1-5.3,3.1-8.8,3.1h-2.1c-3.5,0-6.4-1-8.8-3.1
		c-2.3,2.1-5.2,3.1-8.8,3.1H968c-3.5,0-6.5-1-8.8-3.1c-2.3,2.1-5.3,3.1-8.8,3.1h-1.4v-5.4h1.3c3,0,4.5-2.7,4.5-8.1v-5.3
		c0-2.9,1.5-4.4,4.4-4.4c1.7,0,3.5,0.3,5.2,0.8c-0.7,2.4-1,5.2-1,8.6v0.2c0,5.4,1.5,8.1,4.5,8.1h2.1c3,0,4.5-2.7,4.5-8.1v-5.3
		c0-2.9,1.5-4.4,4.4-4.4c1.7,0,3.5,0.3,5.2,0.8c-0.7,2.4-1,5.2-1,8.6v0.2c0,5.4,1.5,8.1,4.5,8.1h2c1.5,0,2.6-0.8,3.4-2.4
		c0.7-1.5,1.1-3.4,1.1-5.8v-9.2c0-2.9,1.5-4.4,4.4-4.4c1.7,0,3.5,0.3,5.2,0.8c-0.7,2.4-1,5.3-1,8.8v4.1c0,5.4,1.5,8.1,4.5,8.1
		H1008.8z M973.5,439.6c-1.3,0-2.3-0.4-3.2-1.3c-0.9-0.9-1.3-2-1.3-3.3c0-1.3,0.5-2.3,1.4-3.2c0.9-0.9,2-1.3,3.2-1.3
		c1.2,0,2.3,0.4,3.1,1.3c0.9,0.9,1.3,2,1.3,3.2c0,1.3-0.5,2.4-1.4,3.3C975.7,439.1,974.7,439.6,973.5,439.6L973.5,439.6z M979,430.1
		c-1.2,0-2.3-0.4-3.2-1.3c-0.9-0.9-1.3-2-1.3-3.3c0-1.3,0.5-2.4,1.4-3.3c0.9-0.9,2-1.3,3.2-1.3c1.2,0,2.3,0.4,3.1,1.3
		c0.9,0.9,1.3,2,1.3,3.3c0,1.3-0.5,2.4-1.4,3.3C981.3,429.7,980.2,430.1,979,430.1L979,430.1z M984.6,439.6c-1.3,0-2.3-0.4-3.2-1.3
		c-0.9-0.9-1.3-2-1.3-3.3c0-1.3,0.5-2.3,1.4-3.2c0.9-0.9,2-1.3,3.2-1.3c1.2,0,2.3,0.4,3.1,1.3c0.9,0.9,1.3,2,1.3,3.2
		c0,1.3-0.5,2.4-1.4,3.3C986.8,439.1,985.8,439.6,984.6,439.6L984.6,439.6z M1030.2,464.5v5.4h-2.3c-3.5,0-6.4-1.1-8.8-3.2
		c-2.3,2.1-5.3,3.2-8.8,3.2h-2.3v-5.4h2.3c3,0,4.5-2.7,4.5-8.1v-9.2c0-2.9,1.5-4.4,4.4-4.4c1.7,0,3.5,0.3,5.2,0.8
		c-0.7,2.4-1,5.3-1,8.8v4.1c0,5.4,1.5,8.1,4.5,8.1H1030.2z M1013.5,439.6c-1.3,0-2.3-0.4-3.2-1.3c-0.9-0.9-1.3-2-1.3-3.3
		c0-1.3,0.5-2.3,1.4-3.2c0.9-0.9,2-1.3,3.2-1.3c1.2,0,2.3,0.4,3.1,1.3c0.9,0.9,1.3,2,1.3,3.2c0,1.3-0.5,2.4-1.4,3.3
		C1015.7,439.1,1014.7,439.6,1013.5,439.6L1013.5,439.6z M1024.6,439.6c-1.3,0-2.3-0.4-3.2-1.3c-0.9-0.9-1.3-2-1.3-3.3
		c0-1.3,0.5-2.3,1.4-3.2c0.9-0.9,2-1.3,3.2-1.3c1.2,0,2.3,0.4,3.1,1.3c0.9,0.9,1.3,2,1.3,3.2c0,1.3-0.5,2.4-1.4,3.3
		C1026.8,439.1,1025.8,439.6,1024.6,439.6L1024.6,439.6z M1074.6,447.1c0-2.9,1.5-4.4,4.4-4.4c1.7,0,3.5,0.3,5.2,0.8
		c-0.7,2.4-1,5.3-1,8.8v4.1c0,3.9-1.2,7.1-3.5,9.6c-2.4,2.6-5.6,4-9.6,4h-2.1c-3.5,0-6.4-1-8.8-3.1c-2.3,2.1-5.2,3.1-8.8,3.1h-2.2
		c-3.5,0-6.5-1-8.8-3.1c-2.3,2.1-5.3,3.1-8.8,3.1h-1.4v-5.4h1.4c3,0,4.5-2.7,4.5-8.1v-5.3c0-2.9,1.5-4.4,4.4-4.4
		c1.7,0,3.5,0.3,5.2,0.8c-0.7,2.4-1,5.2-1,8.6v0.2c0,5.4,1.5,8.1,4.5,8.1h2.1c3,0,4.5-2.7,4.5-8.1v-5.3c0-2.9,1.5-4.4,4.4-4.4
		c1.7,0,3.5,0.3,5.2,0.8c-0.7,2.4-1,5.2-1,8.6v0.2c0,5.4,1.5,8.1,4.5,8.1h2c3,0,4.5-2.7,4.5-8.1V447.1L1074.6,447.1z M1123.5,464.5
		v5.4h-1.4c-3.5,0-6.4-1-8.8-3.1c-2.3,2.1-5.2,3.1-8.8,3.1h-11.8c-2.9,0-4.8-0.9-5.5-2.6c-0.1-0.3-0.2-0.6-0.2-1
		c0-1.1,0.7-2.3,2-3.7c1.2,1.2,2.8,1.8,4.9,1.8h10.5c3,0,4.5-2.7,4.5-8.2v-19.4c0-2.9,1.5-4.4,4.4-4.4c1.7,0,3.5,0.3,5.2,0.8
		c-0.7,2.4-1,5.3-1,8.7v14.3c0,5.4,1.5,8.1,4.5,8.1H1123.5z M1102.3,479.3c0.3,0.3,0.5,0.6,0.6,0.9c0.1,0.2,0.1,0.4,0.1,0.6
		c0,0.2,0,0.4-0.1,0.6c-0.3,0.8-1.1,1.2-2.1,1.2h-5.4c-0.3,0-0.5,0-0.7,0.1c-0.3,0.1-0.4,0.4-0.5,0.8l-0.1,0.5l-0.1,0.3l-0.3-0.1
		l-0.6-0.1c-0.5-0.1-0.9-0.3-1.2-0.6c-0.3-0.3-0.4-0.7-0.4-1.2c0-1,0.5-1.7,1.5-2.3c0.3-0.2,0.6-0.3,1-0.4c-0.3-0.7-0.4-1.4-0.4-2.1
		c0-1.4,0.4-2.6,1.3-3.5c0.9-1,2-1.5,3.5-1.5h0c0.9,0,1.7,0.2,2.4,0.6c1,0.5,1.6,1.3,1.6,2.3c0,0.5-0.1,0.9-0.4,1.2
		c-0.3,0.3-0.7,0.5-1.2,0.6l-0.5,0.1l-0.3,0.1l-0.1-0.3l-0.1-0.5c-0.1-0.4-0.2-0.6-0.5-0.8c-0.1-0.1-0.3-0.1-0.7-0.1h-0.1
		c-0.7,0-1,0.6-1,1.9c0,1.3,0.3,1.9,1,1.9h2.1c0.3,0,0.4,0,0.5-0.1l0.4-0.4l0.2-0.2l0.2,0.2L1102.3,479.3L1102.3,479.3z
		 M1102.8,456.5c0,2.9-1.5,4.4-4.4,4.4c-1.7,0-3.4-0.3-5.2-0.8c0.7-2.4,1-5.3,1-8.7v-14.4c0-2.9,1.5-4.4,4.4-4.4
		c1.7,0,3.5,0.3,5.2,0.8c-0.7,2.4-1,5.3-1,8.8V456.5z M1132.7,432.5c1.7,0,3.5,0.3,5.2,0.8c-0.7,2.4-1,5.3-1,8.8v14.3
		c0,3.9-1.2,7.1-3.5,9.6c-2.4,2.6-5.6,4-9.6,4h-1.4v-5.4h1.4c3,0,4.5-2.7,4.5-8.1v-19.5C1128.3,434,1129.7,432.5,1132.7,432.5
		L1132.7,432.5z"/>
	<g>
		<path class="st0" d="M961,103.9c-11.2,4.6-21.2,20-13.1,31.4c3.2,4.5,8.6,6.9,13.7,3.9c4.8-2.9,6.9-9,5.7-14.3
			c-1.1-5-5.2-9.3-8.9-12.5c-4-3.4-9.2-6.9-14.7-6.7c-5,0.2-9.1,4.6-9.6,9.4c-0.6,5.6,3,11,6.8,14.8c8.6,8.3,22.8,9.3,33,3.4
			c5.4-3.1,9.2-8.7,9-15.1c-0.2-6.9-4.8-12.9-10-17.1c-5.2-4.1-11.9-7.1-18.6-6.4c-6,0.6-10.8,4.4-14,9.4
			c-3.4,5.5-5.3,12.5-6.2,18.8c-0.8,6-0.5,12.8,3.6,17.5c8.5,9.7,26,3.7,34.8-2.5c11.6-8.1,14.2-23.9,8.3-36.3
			c-6-12.8-21.2-22.7-35.6-19.6c-12.7,2.7-20.8,14.9-24.6,26.5c-3.2,9.7-4.4,21.3-0.3,30.9c4.5,10.5,14.7,14.2,25.5,13.7
			c25.9-1.2,56.8-21.5,54-50.5c-2.7-28.1-37.8-38.4-61.3-31.5c-13.3,3.9-24.9,12.9-31.7,25.1c-5,9-8,20.5-6.1,30.8
			c2.9,15.9,18.9,21.5,33.3,21.7c18.3,0.3,37.2-5.5,53.1-14.4c15.9-8.8,34.1-25.7,26.1-45.9c-4.9-12.3-17.8-19.8-30.1-22.6
			c-13.2-3.1-26.7-0.9-37.3,7.7c-10.5,8.5-16.9,21.3-20.5,34c-3.4,12.1-3.6,25.4,2.1,36.9c12.8,26,47.2,21,66.6,5.8
			c10.8-8.5,17.9-21.2,18-35.1c0.1-15.3-7.6-29.8-17.8-40.8c-9.3-10-23.1-20-37.4-19.7c-13.1,0.2-23.7,9.2-31.1,19.3
			c-7.2,10-12.2,21.9-13.9,34.1c-1.5,10.3-1.3,21.9,3.9,31.2c5.8,10.4,16.9,13.1,28.1,11.6c15.9-2.1,32.9-10.1,43.1-22.6
			c4.7-5.8,8.3-12.3,12.1-18.7c4.1-7,8.7-13.8,16-17.8c1.7-0.9,0.2-3.5-1.5-2.6c-12.1,6.7-17.1,20.1-24.4,31.1
			c-3.9,5.8-8.5,11.2-14.2,15.2c-6.5,4.5-14,7.9-21.5,10.2c-10.4,3.2-23.8,5.1-32-3.7c-6.4-6.8-7.6-17.2-7.2-26.1
			c0.4-10.1,3.1-20.1,7.6-29.2c5.1-10.4,12.7-20.8,23.3-26c11.9-5.9,24.3-1.7,34.7,5.2c11.6,7.7,21.2,19.2,26.2,32.2
			c4.7,12.5,4.4,26.2-2.7,37.7c-6.4,10.5-17.3,17.9-28.9,21.6c-11.3,3.6-24.4,4.4-34.5-2.7c-8.8-6.2-13-16.9-13.7-27.3
			c-0.8-11.9,2.9-24.1,8.4-34.6c5.4-10.3,13.7-19.5,25-23.3c20.6-6.9,57.8,6.7,52.2,33.5c-3.2,15.6-18.1,25.4-31.6,31.9
			c-14.2,6.8-30.4,11.3-46.2,11c-12.1-0.2-26.1-4.3-29.7-17.4c-2.3-8.5-0.3-18.3,3.1-26.2c4.9-11.3,14-20.4,25.2-25.6
			c11.6-5.3,24.9-6,37.1-2.4c10.9,3.2,21.5,10.3,25.6,21.3c4.4,11.8,0.5,25.1-7.3,34.5c-8,9.6-19.6,16-31.7,18.8
			c-9.6,2.2-22.2,3.2-29.5-4.9c-6.2-6.8-6.6-17.3-5.2-25.9c1.7-10.2,6.1-20.8,14.1-27.6c11.3-9.6,27.1-5.8,36.7,4.3
			c9.4,9.8,12.3,26.2,2.9,37.1c-3.8,4.4-9.4,7.2-14.9,8.9c-5.4,1.7-12.2,3-17.5,0.2c-5.8-3.1-6.6-10.3-6-16.2
			c0.6-5.9,2.3-12.4,5.2-17.6c2.8-5,7.3-9.1,13.3-9.4c6.5-0.3,12.9,3.1,17.5,7.4c5.2,4.9,9.2,12.4,5.7,19.4
			c-2.6,5.2-8.3,7.9-13.8,8.9c-10.8,2-23.1-2.3-27.1-13.4c-1.8-4.9,0.6-11.4,6.6-11.4c5,0,9.9,3.7,13.4,7c3.4,3.2,7,7.4,7.1,12.3
			c0,5.4-5.2,12.1-11,8.8c-5.8-3.2-6.6-10.8-4.6-16.5c2.1-5.9,6.9-11.1,12.7-13.5C963.6,106,962.8,103.1,961,103.9"/>
		<path class="st0" d="M962.5,114.2c4.1-9.8,0.8-25.4-11.3-27.5c-4.7-0.8-9.6,1.1-10.9,6c-1.2,4.7,1.3,9.8,5.3,12.4
			c3.7,2.4,8.9,2.6,13.2,2.2c4.6-0.3,10-1.4,13.2-5c2.9-3.2,2.8-8.4,0.1-11.8c-3.1-3.9-8.6-5-13.3-4.9C948.4,85.9,939,94,936.3,104
			c-1.4,5.2-0.3,11.1,3.7,14.9c4.4,4.1,10.9,5,16.7,4.3c5.7-0.7,11.7-2.9,15.4-7.5c3.3-4.1,4-9.4,2.8-14.4c-1.3-5.5-4.4-11-7.8-15.4
			c-3.2-4.2-7.5-8.2-13.1-8.6c-11.2-0.7-18.3,13.8-20,23c-2.2,12.2,6,23.5,17.3,27.5c11.6,4.1,27.1,0.9,34.1-9.8
			c6.2-9.5,3.7-22-1.2-31.5c-4-7.9-10.4-15.8-18.9-19.2c-9.2-3.7-17.9,0.3-24.2,7.3c-15.3,16.7-21.8,48.3-2.1,64.5
			c19,15.7,47.1,0.4,57.3-18.3c5.8-10.6,7.4-23.4,4.1-35c-2.5-8.7-7.7-17.6-15.3-22.8c-11.6-8-24.9-1.6-33.9,7.2
			c-11.5,11.1-19.6,26.4-23.9,41.7c-4.3,15.2-5.2,36.9,12.3,44.4c10.6,4.6,23.2,1.2,32.5-4.6c10-6.3,17-15.9,18.3-27.8
			c1.3-11.7-2.7-23.5-8.4-33.6c-5.4-9.6-13.5-17.9-24.1-21.5c-23.9-8.1-42.1,16.2-44.7,37.5c-1.4,12,2,24.1,10.6,32.8
			c9.4,9.5,23.1,13.7,36.2,14.2c11.9,0.4,26.6-1.9,35.3-10.9c7.9-8.2,9-20.3,7.3-31.1c-1.7-10.6-6-21-12.4-29.6
			c-5.4-7.3-12.7-14.3-21.6-16.9c-10-2.8-18.6,2.3-24.5,10.1c-8.5,11.2-14,26.5-12.6,40.6c0.6,6.5,2.4,12.7,4.1,19
			c1.8,6.8,3.1,13.9,1.1,20.9c-0.5,1.6,2.1,2.3,2.5,0.7c3.3-11.6-1.9-23-4.1-34.2c-1.2-6-1.7-12.2-0.6-18.2c1.2-6.8,3.8-13.5,7-19.6
			c4.4-8.4,11.5-17.8,22.1-17.4c8.1,0.3,15.3,5.9,20.6,11.7c6,6.5,10.5,14.3,13.3,22.7c3.3,9.6,5,20.6,1.7,30.5
			c-3.7,11-13.9,16.1-24.7,18.2c-11.9,2.4-25,1.3-36.1-3.8c-10.6-4.8-18.9-13.5-21.6-24.9c-2.5-10.5-0.4-21.7,4.5-31.2
			c4.7-9.1,12.4-17.8,23-19.6c9.2-1.6,18.5,2.4,25.3,8.4c7.8,6.9,13.1,16.7,16.2,26.5c3,9.7,3.6,20.5-1,29.8
			c-8.4,17-39.8,31.5-52.9,11.6c-7.6-11.6-4.5-26.9-0.2-39.1c4.5-13,11.7-25.7,21.7-35.3c7.6-7.3,18.8-13.5,29.1-7.6
			c6.7,3.8,11.5,11.1,14.2,18.1c4,10,4,21.3,0.3,31.3c-3.8,10.4-11.7,19.1-21.4,24.3c-8.7,4.7-19.6,6.9-29,2.7
			c-10-4.5-15.8-15.2-16.7-25.8c-1-10.9,2.2-22,8-31.2c4.6-7.3,11.7-15.7,21.2-15.2c8,0.4,14.7,6.6,19.2,12.8
			c5.3,7.3,9.1,16.6,8.4,25.7c-1,12.9-13.1,20.3-25.3,20c-11.8-0.2-23.8-8.6-24.7-21.1c-0.4-5.1,1.4-10.2,3.7-14.7
			c2.3-4.4,5.7-9.4,10.7-10.9c5.5-1.7,10.4,2.3,13.7,6.3c3.3,4,6.2,9.1,7.6,14c1.4,4.8,1.1,10.1-2.4,14c-3.8,4.2-9.9,6-15.4,6.2
			c-6.3,0.2-13.3-1.9-15.5-8.5c-1.6-4.9,0.2-10,3-14.1c5.4-7.9,15.6-12.8,25-8.4c4.1,1.9,6.6,7.4,3,11.1c-3.1,3.1-8.4,3.8-12.6,3.9
			c-4.1,0.1-8.9-0.2-11.9-3.2c-3.3-3.3-4.3-10.6,1.4-12.2c5.5-1.6,10.8,2.6,13,7.4c2.3,4.9,2.6,11.1,0.5,16.2
			C959.6,114.5,961.8,115.8,962.5,114.2"/>
	</g>
</g>
</svg>
