<?xml version="1.0" encoding="utf-8"?>
<!-- Generator: Adobe Illustrator 25.3.0, SVG Export Plug-In . SVG Version: 6.00 Build 0)  -->
<svg version="1.1" id="Layer_1" xmlns="http://www.w3.org/2000/svg" xmlns:xlink="http://www.w3.org/1999/xlink" x="0px" y="0px"
	 viewBox="0 0 1276.2 1110.5" style="enable-background:new 0 0 1276.2 1110.5;" xml:space="preserve">
<style type="text/css">
	.st0{fill:#7A96AE;}
	.st1{fill:none;stroke:#7A96AE;stroke-width:27;stroke-linecap:round;stroke-miterlimit:10;}
</style>
<g>
	<path class="st0" d="M981.2,676.9c-7.5,0-13.5-6-13.5-13.5V449.5c0-40.7-33.1-73.8-73.8-73.8H790.8c0,0.8,0,1.6,0,2.4v176.1
		c0,34.1-27.7,61.8-61.8,61.8c-34.1,0-61.8-27.7-61.8-61.8V449.5c0-52.5,40.4-95.8,91.7-100.4c-12.1-35.7-45.9-61.4-85.7-61.4H599
		c-39.7,0-73.5,25.7-85.7,61.4c51.4,4.6,91.7,47.9,91.7,100.4v104.7c0,34.1-27.7,61.8-61.8,61.8c-34.1,0-61.8-27.7-61.8-61.8V378.1
		c0-0.8,0-1.6,0-2.4H378.4c-40.7,0-73.8,33.1-73.8,73.8v213.9c0,7.5-6,13.5-13.5,13.5c-7.5,0-13.5-6-13.5-13.5V449.5
		c0-55.6,45.2-100.8,100.8-100.8h106.8c13.1-50.6,59.1-88,113.7-88h74.4c54.6,0,100.6,37.5,113.7,88h106.9
		c55.6,0,100.8,45.2,100.8,100.8v213.9C994.7,670.9,988.7,676.9,981.2,676.9z M763.8,375.8c-38.7,2.2-69.5,34.4-69.5,73.7v104.7
		c0,19.2,15.6,34.8,34.8,34.8s34.8-15.6,34.8-34.8V378.1C763.8,377.4,763.8,376.6,763.8,375.8z M508.6,375.8c0,0.8,0,1.5,0,2.3
		v176.1c0,19.2,15.6,34.8,34.8,34.8s34.8-15.6,34.8-34.8V449.5C578,410.3,547.3,378.1,508.6,375.8z"/>
</g>
<g>
	<path class="st0" d="M838.4,310.4c-51.4,0-93.2-41.8-93.2-93.2c0-51.4,41.8-93.2,93.2-93.2c51.4,0,93.2,41.8,93.2,93.2
		C931.6,268.6,889.8,310.4,838.4,310.4z M838.4,151.1c-36.5,0-66.2,29.7-66.2,66.2s29.7,66.2,66.2,66.2s66.2-29.7,66.2-66.2
		S874.9,151.1,838.4,151.1z"/>
</g>
<g>
	<path class="st0" d="M435,310.4c-51.4,0-93.2-41.8-93.2-93.2c0-51.4,41.8-93.2,93.2-93.2c51.4,0,93.2,41.8,93.2,93.2
		C528.2,268.6,486.4,310.4,435,310.4z M435,151.1c-36.5,0-66.2,29.7-66.2,66.2s29.7,66.2,66.2,66.2s66.2-29.7,66.2-66.2
		S471.5,151.1,435,151.1z"/>
</g>
<g>
	<path class="st0" d="M637.7,230.8c-51.4,0-93.2-41.8-93.2-93.2c0-51.4,41.8-93.2,93.2-93.2c51.4,0,93.2,41.8,93.2,93.2
		C730.9,189,689.1,230.8,637.7,230.8z M637.7,71.5c-36.5,0-66.2,29.7-66.2,66.2s29.7,66.2,66.2,66.2s66.2-29.7,66.2-66.2
		S674.2,71.5,637.7,71.5z"/>
</g>
<path class="st1" d="M-1351.6,663.4V449.5c0-48.2,39.1-87.3,87.3-87.3h125.8c48.2,0,87.3,39.1,87.3,87.3v104.7
	c0,26.7-21.6,48.3-48.3,48.3l0,0c-26.7,0-48.3-21.6-48.3-48.3V378.1c0-57.4,46.5-103.9,103.9-103.9h74.4
	c57.4,0,103.9,46.5,103.9,103.9v176.1c0,26.7-21.6,48.3-48.3,48.3h0c-26.7,0-48.3-21.6-48.3-48.3V449.5c0-48.2,39.1-87.3,87.3-87.3
	h125.8c48.2,0,87.3,39.1,87.3,87.3v213.9"/>
<circle class="st1" cx="-804.3" cy="217.3" r="79.7"/>
<circle class="st1" cx="-1207.7" cy="217.3" r="79.7"/>
<circle class="st1" cx="-1005" cy="137.6" r="79.7"/>
<g>
	<path class="st0" d="M33.2,893.8l12.4-24.2H98c7.9,0,13.4-2,16.7-6c3.2-4,4.9-10.8,4.9-20.6c0-26.7-11.9-46.9-35.7-60.6l12.4-21.2
		c32.4,18.7,48.6,46.1,48.6,82.1c0,33.6-14.1,50.5-42.4,50.5H33.2z"/>
	<path class="st0" d="M243.4,893.8c-17.1,0-30.3-5.6-39.5-16.7c-7.9-9.6-11.8-21.7-11.8-36.4V714.9l25.3-13.7v138.5
		c0,19.9,9.6,29.9,28.9,29.9h19.5v24.2H243.4z"/>
	<path class="st0" d="M248.1,893.8v-24.2h51.9v24.2H248.1z"/>
	<path class="st0" d="M282.3,893.8v-24.2h51.9v24.2H282.3z"/>
	<path class="st0" d="M316.5,893.8v-24.2h51.9v24.2H316.5z"/>
	<path class="st0" d="M350.6,893.8v-24.2h51.9v24.2H350.6z"/>
	<path class="st0" d="M384.8,893.8v-24.2h51.9v24.2H384.8z"/>
	<path class="st0" d="M419,893.8v-24.2h51.9v24.2H419z"/>
	<path class="st0" d="M453.2,893.8v-24.2h51.9v24.2H453.2z"/>
	<path class="st0" d="M487.4,893.8v-24.2h51.9v24.2H487.4z"/>
	<path class="st0" d="M521.6,893.8v-24.2h51.9v24.2H521.6z"/>
	<path class="st0" d="M555.8,893.8v-24.2h51.9v24.2H555.8z"/>
	<path class="st0" d="M590,893.8v-24.2h51.9v24.2H590z"/>
	<path class="st0" d="M624.2,893.8v-24.2h51.9v24.2H624.2z"/>
	<path class="st0" d="M658.4,893.8v-24.2h51.9v24.2H658.4z"/>
	<path class="st0" d="M692.6,893.8v-24.2h51.9v24.2H692.6z"/>
	<path class="st0" d="M726.7,893.8v-24.2h51.9v24.2H726.7z"/>
	<path class="st0" d="M760.9,893.8v-24.2h26.5c19.1,0,28.6-10,28.6-29.9v-41.8l25.3-13.7v55.5c0,19.9,9.6,29.9,28.9,29.9h13.6
		c19.3,0,28.9-10,28.9-29.9v-51.9l25.3-13.4v65.4c0,19.9,9.5,29.9,28.6,29.9h13.9c19.3,0,28.9-10,28.9-29.9v-61.8l25.3-13.7v76.4
		c0,16.9-5,30.2-15,39.7c-8.8,8.8-20.6,13.2-35.4,13.4H964c-17.3,0-30.2-5.9-38.6-17.6c-8.5,11.5-21,17.4-37.7,17.6h-20.3
		c-16.9,0-29.8-5.9-38.6-17.6c-8.5,11.7-21.3,17.6-38.6,17.6H760.9z M904.5,736.1c-9.6,0-14.4-5-14.4-14.9c0-9.7,4.8-14.6,14.4-14.6
		c9.4,0,14.1,4.9,14.1,14.6C918.6,731.2,913.9,736.1,904.5,736.1z M923.1,700.6c-8.6,0-13-4.5-13-13.4c0-8.8,4.3-13.1,13-13.1
		c8.6,0,13,4.4,13,13.1C936,696.1,931.7,700.6,923.1,700.6z M941.9,736.1c-9.6,0-14.4-5-14.4-14.9c0-9.7,4.8-14.6,14.4-14.6
		c9.4,0,14.1,4.9,14.1,14.6C956.1,731.2,951.4,736.1,941.9,736.1z"/>
	<path class="st0" d="M1131.4,877.9c0,22.3-5.8,40.2-17.4,53.7c-11,12.9-25.6,19.4-43.9,19.4c-11.8,0-23.3-3-34.5-9v-22.4
		c10,5.6,20,8.4,30.1,8.4c12.6,0,22.4-4.3,29.5-12.8c7.1-8.6,10.6-20.4,10.6-35.5V777.9l25.6-13.7V877.9z"/>
	<path class="st0" d="M1168.9,968.1l6.8-12.8h8c-2-3.6-2.9-7.4-2.9-11.3c0-5.8,2.2-10.8,6.5-15.1c4.3-4.3,9.4-6.4,15.3-6.4
		c4.9,0,9.6,1.6,14.1,4.8v13.1c-4.3-3.4-8.5-5.1-12.4-5.1c-7.3,0-10.9,3.3-10.9,9.9c0,3.4,1.4,6.8,4.1,10.2h26.8l-6.8,12.8H1168.9z
		 M1184.5,893.8V714.9l25.3-13.7v192.6H1184.5z"/>
</g>
<g>
	<path class="st0" d="M79.8,1044.8H86v8.4h-7c-4.2,0-7.5-1.4-9.8-4.3c-2,1.5-4.3,2.3-7.2,2.3c-4.2,0-7.5-1.6-10-4.8
		c-2-2.6-3.1-5.8-3.1-9.5c0-4.6,1.5-8.3,4.4-11.1c2.5-2.4,5.3-3.6,8.5-3.6c1.7,0,3.2,0.3,4.6,1v-1.8l8.5-4.6v23
		c0,1.8,0.4,3.1,1.1,3.8C76.8,1044.5,78.1,1044.8,79.8,1044.8z M66.4,1031.9c-1.2-1-2.5-1.5-4-1.5s-2.7,0.6-3.7,1.9
		c-0.9,1.2-1.4,2.9-1.4,4.9s0.5,3.6,1.4,4.8c0.9,1.2,2.2,1.8,3.8,1.8c1.7,0,3.1-0.6,4-1.8c0-0.4-0.1-0.9-0.1-1.7V1031.9z"/>
	<path class="st0" d="M106.2,1044.8h6.1v8.4h-7c-3.3,0-6.1-0.9-8.3-2.7c-2.2,1.8-4.9,2.7-8.3,2.7h-7v-8.4H88c1.7,0,3-0.4,3.7-1.1
		c0.7-0.8,1.1-2,1.1-3.8v-12.8l8.6-4.6v17.4c0,1.8,0.4,3.1,1.1,3.8C103.2,1044.5,104.4,1044.8,106.2,1044.8z M88.5,1059.5
		c1.4,0,2.4,0.4,3.2,1.2c0.8,0.8,1.2,1.9,1.2,3.3c0,3.1-1.5,4.6-4.4,4.6c-1.4,0-2.5-0.4-3.3-1.2c-0.8-0.8-1.2-2-1.2-3.4
		C84,1061,85.5,1059.5,88.5,1059.5z M99,1059.5c1.4,0,2.4,0.4,3.2,1.2c0.8,0.8,1.2,1.9,1.2,3.3c0,3.1-1.5,4.6-4.4,4.6
		c-1.4,0-2.5-0.4-3.3-1.2c-0.8-0.8-1.2-2-1.2-3.4C94.5,1061,96,1059.5,99,1059.5z"/>
	<path class="st0" d="M108.2,1053.2v-8.4h12v8.4H108.2z"/>
	<path class="st0" d="M108.2,1053.2v-8.4h12v8.4H108.2z"/>
	<path class="st0" d="M116.1,1053.2v-8.4h7.2c1.7,0,3-0.4,3.7-1.1s1.1-2,1.1-3.8v-9.1l8.6-4.6v13.7c0,1.8,0.4,3.1,1.1,3.8
		c0.7,0.8,2,1.1,3.7,1.1h4.6c1.7,0,3-0.4,3.7-1.1c0.7-0.8,1.1-2,1.1-3.8v-10.9l8.6-4.6v15.6c0,1.8,0.4,3.1,1.1,3.8s2,1.1,3.7,1.1
		h4.6c1.7,0,3-0.4,3.7-1.1c0.7-0.8,1.1-2,1.1-3.8v-12.8l8.6-4.6v16.3c0,2.2,0.4,3.8,1.3,4.7c0.9,0.9,2.4,1.4,4.5,1.4h6.3v8.4h-6.8
		c-3.8,0-6.9-1.1-9.2-3.3c-2,2.2-4.8,3.3-8.3,3.3h-6.8c-3.4,0-6.1-1-8.3-3c-2,2-4.6,3-7.8,3h-6.8c-3.4,0-6.1-1-8.3-3
		c-2.1,2-4.9,3-8.3,3H116.1z"/>
	<path class="st0" d="M223.1,1044.8h10.8v8.4h-16.2c-2.3,0-4.1-0.2-5.5-0.5c-1.4,0.3-3.2,0.5-5.5,0.5h-16.3v-8.4h10.8
		c-1.7-2.8-2.6-5.7-2.6-8.6c0-4.6,1.3-8.3,4-11.1c2.4-2.5,5.6-3.8,9.5-3.8c4.5,0,7.9,1.6,10.4,4.9c2,2.7,3.1,6,3.1,10
		C225.7,1039.2,224.8,1042,223.1,1044.8z M212.2,1044.1c1.5-0.7,2.8-1.9,3.8-3.4c1-1.5,1.5-3.2,1.5-4.9c0-2-0.5-3.5-1.4-4.7
		c-0.9-1.1-2.2-1.7-3.8-1.7c-3.5,0-5.2,2.1-5.2,6.3c0,1.8,0.5,3.5,1.4,5C209.4,1042.3,210.7,1043.4,212.2,1044.1z M212.2,1016.4
		c-1.4,0-2.5-0.4-3.3-1.2c-0.8-0.8-1.2-2-1.2-3.4c0-1.3,0.4-2.4,1.2-3.3c0.8-0.8,1.9-1.2,3.3-1.2c1.4,0,2.4,0.4,3.2,1.2
		c0.8,0.8,1.2,1.9,1.2,3.3C216.6,1014.9,215.1,1016.4,212.2,1016.4z"/>
	<path class="st0" d="M254.1,1044.8h6.1v8.4h-7c-3.3,0-6.1-0.9-8.3-2.7c-2.2,1.8-4.9,2.7-8.3,2.7h-7v-8.4h6.1c1.7,0,3-0.4,3.7-1.1
		c0.7-0.8,1.1-2,1.1-3.8v-12.8l8.6-4.6v17.4c0,1.8,0.4,3.1,1.1,3.8C251.2,1044.5,252.4,1044.8,254.1,1044.8z M243.2,1015.5
		c-1.4,0-2.5-0.4-3.3-1.2c-0.8-0.8-1.2-2-1.2-3.4c0-1.3,0.4-2.4,1.2-3.3c0.8-0.8,1.9-1.2,3.3-1.2c1.4,0,2.4,0.4,3.2,1.2
		c0.8,0.8,1.2,1.9,1.2,3.3C247.6,1014,246.1,1015.5,243.2,1015.5z"/>
	<path class="st0" d="M256.2,1053.2v-8.4h4.3c2.1,0,3.6-0.5,4.5-1.4c0.9-0.9,1.3-2.5,1.3-4.7v-25.5l8.5-4.6v30.2c0,4.5-1.3,8-4,10.7
		c-2.5,2.4-5.7,3.7-9.8,3.7H256.2z"/>
	<path class="st0" d="M289,1053.2v-40l8.6-4.6v44.6H289z"/>
	<path class="st0" d="M355.3,1044.8h6.1v8.4h-7c-4.2,0-7.5-1.4-9.8-4.3c-2,1.5-4.3,2.3-7.2,2.3c-4.2,0-7.5-1.6-10-4.8
		c-2-2.6-3.1-5.8-3.1-9.5c0-4.6,1.5-8.3,4.4-11.1c2.5-2.4,5.3-3.6,8.5-3.6c1.7,0,3.2,0.3,4.6,1v-1.8l8.5-4.6v23
		c0,1.8,0.4,3.1,1.1,3.8C352.4,1044.5,353.6,1044.8,355.3,1044.8z M333.3,1014.1c-1.4,0-2.5-0.4-3.3-1.2c-0.8-0.8-1.2-2-1.2-3.4
		c0-3,1.5-4.5,4.5-4.5c1.4,0,2.4,0.4,3.2,1.2c0.8,0.8,1.2,1.9,1.2,3.3C337.7,1012.6,336.2,1014.1,333.3,1014.1z M341.9,1031.9
		c-1.2-1-2.5-1.5-4-1.5s-2.7,0.6-3.7,1.9c-0.9,1.2-1.4,2.9-1.4,4.9s0.5,3.6,1.4,4.8c0.9,1.2,2.2,1.8,3.8,1.8c1.7,0,3.1-0.6,4-1.8
		c0-0.4-0.1-0.9-0.1-1.7V1031.9z M343.8,1014.1c-1.4,0-2.5-0.4-3.3-1.2c-0.8-0.8-1.2-2-1.2-3.4c0-3,1.5-4.5,4.5-4.5
		c1.4,0,2.4,0.4,3.2,1.2c0.8,0.8,1.2,1.9,1.2,3.3C348.2,1012.6,346.7,1014.1,343.8,1014.1z"/>
	<path class="st0" d="M357.4,1053.2v-8.4h12v8.4H357.4z"/>
	<path class="st0" d="M357.4,1053.2v-8.4h12v8.4H357.4z"/>
	<path class="st0" d="M409.8,1044.8h5.7v8.4h-5.8c-3.6,0-6.5-0.4-8.6-1.2c-2.2-0.8-4.2-2.2-6-4.3c-5.7,3.6-12.2,5.5-19.7,5.5h-10.1
		v-8.4h10.2c8,0,14.4-2.4,19.1-7.3c-3.1-5.5-6.9-8.2-11.3-8.2c-3.6,0-7.6,2-12,6v-7.7c3.8-4.2,8.1-6.4,13-6.4c3.6,0,7,1.3,10.4,3.9
		c3.4,2.6,6.4,6.4,8.9,11.2v3.5c-0.7,1-1.7,2.1-2.9,3.3C402.6,1044.3,405.6,1044.8,409.8,1044.8z"/>
	<path class="st0" d="M481.8,1044.8h6.1v8.4h-7c-3.3,0-6.1-0.9-8.3-2.7c-2.2,1.8-4.9,2.7-8.3,2.7H435c-3.3,0-6.1-0.9-8.3-2.7
		c-2.2,1.8-4.9,2.7-8.3,2.7h-7v-8.4h6.1c1.7,0,3-0.4,3.7-1.1c0.7-0.8,1.1-2,1.1-3.8v-9.1l8.6-4.6v13.7c0,3,1.2,4.6,3.5,4.9
		c2.2-6.7,5.4-12.2,9.6-16.4c4.6-4.7,10-7.1,16-7.1c5.4,0,9.7,1.9,12.9,5.7c2.7,3.2,4.1,7.1,4.1,11.8v1.5
		C477,1043.3,478.6,1044.8,481.8,1044.8z M464.1,1044.8c1.6,0,2.8-0.4,3.4-1.1c0.6-0.7,0.9-2,0.9-4v-1c0-2.8-0.8-5-2.3-6.8
		c-1.5-1.8-3.6-2.6-6-2.6c-3.6,0-6.9,1.4-9.9,4.2c-3.1,2.8-5.5,6.5-7.3,11.3H464.1z"/>
	<path class="st0" d="M483.9,1053.2v-8.4h4.3c2.1,0,3.6-0.5,4.5-1.4c0.9-0.9,1.3-2.5,1.3-4.7v-25.5l8.5-4.6v30.2c0,4.5-1.3,8-4,10.7
		c-2.5,2.4-5.7,3.7-9.8,3.7H483.9z"/>
	<path class="st0" d="M516.7,1053.2v-40l8.6-4.6v44.6H516.7z"/>
	<path class="st0" d="M555,1051.2c-1.4,0.3-2.9,0.4-4.4,0.4c-4.2,0-7.5-1.6-10-4.8c-2-2.7-3.1-5.9-3.1-9.7c0-5.1,1.4-9.1,4.1-12
		c2.4-2.6,5.6-3.9,9.6-3.9c4.1,0,7.2,1.3,9.5,3.9c2,2.3,2.9,5.2,2.9,8.9v14.8c0,5.4-1.4,9.7-4.2,12.9c-2.6,3-6.2,4.4-10.8,4.4
		c-2.9,0-5.7-0.8-8.4-2.4v-7.5c2.5,1.4,4.9,2.1,7.4,2.1C551.9,1058.5,554.4,1056,555,1051.2z M555,1034c0-3-1.3-4.6-3.9-4.6
		c-1.6,0-2.9,0.7-3.9,2c-0.9,1.3-1.4,3.2-1.4,5.5c0,4.9,1.7,7.3,5.2,7.3c1.8,0,3.1-0.5,4-1.4V1034z"/>
	<path class="st0" d="M620.6,1044.8h6.1v8.4h-7c-4.2,0-7.5-1.4-9.8-4.3c-2,1.5-4.3,2.3-7.2,2.3c-4.2,0-7.5-1.6-10-4.8
		c-2-2.6-3.1-5.8-3.1-9.5c0-4.6,1.5-8.3,4.4-11.1c2.5-2.4,5.3-3.6,8.5-3.6c1.7,0,3.2,0.3,4.6,1v-1.8l8.5-4.6v23
		c0,1.8,0.4,3.1,1.1,3.8C617.6,1044.5,618.9,1044.8,620.6,1044.8z M598.5,1014.1c-1.4,0-2.5-0.4-3.3-1.2c-0.8-0.8-1.2-2-1.2-3.4
		c0-3,1.5-4.5,4.5-4.5c1.4,0,2.4,0.4,3.2,1.2c0.8,0.8,1.2,1.9,1.2,3.3C603,1012.6,601.5,1014.1,598.5,1014.1z M607.2,1031.9
		c-1.2-1-2.5-1.5-4-1.5s-2.7,0.6-3.7,1.9c-0.9,1.2-1.4,2.9-1.4,4.9s0.5,3.6,1.4,4.8c0.9,1.2,2.2,1.8,3.8,1.8c1.7,0,3.1-0.6,4-1.8
		c0-0.4-0.1-0.9-0.1-1.7V1031.9z M609.1,1014.1c-1.4,0-2.5-0.4-3.3-1.2c-0.8-0.8-1.2-2-1.2-3.4c0-3,1.5-4.5,4.5-4.5
		c1.4,0,2.4,0.4,3.2,1.2c0.8,0.8,1.2,1.9,1.2,3.3C613.5,1012.6,612,1014.1,609.1,1014.1z"/>
	<path class="st0" d="M626.3,1068.6c-1.4,0-2.5-0.4-3.3-1.2c-0.8-0.8-1.2-2-1.2-3.4c0-3,1.5-4.5,4.5-4.5c1.4,0,2.4,0.4,3.2,1.2
		c0.8,0.8,1.2,1.9,1.2,3.3C630.8,1067.1,629.3,1068.6,626.3,1068.6z M622.6,1053.2v-8.4h6.1c1.7,0,3-0.4,3.7-1.1
		c0.7-0.8,1.1-2,1.1-3.8v-12.8l8.6-4.6v17.8c0,4.2-1.3,7.5-3.8,9.8c-2.2,2.1-5.1,3.1-8.7,3.1H622.6z M636.9,1068.6
		c-1.4,0-2.5-0.4-3.3-1.2c-0.8-0.8-1.2-2-1.2-3.4c0-3,1.5-4.5,4.5-4.5c1.4,0,2.4,0.4,3.2,1.2c0.8,0.8,1.2,1.9,1.2,3.3
		C641.3,1067.1,639.8,1068.6,636.9,1068.6z"/>
	<path class="st0" d="M673.5,1044.8h6.1v8.4h-7c-1.5,0-3-0.2-4.3-0.6c-0.6,4.4-2.3,7.9-5.3,10.5c-2.6,2.3-5.8,3.5-9.5,3.5
		c-2.9,0-5.7-0.7-8.4-2.2v-7.6c2.4,1.3,4.7,2,7,2c2.5,0,4.5-0.8,5.8-2.5c1.4-1.6,2.1-3.9,2.1-6.8v-22.4l5.6-3l2.9-1.6v0.1l0.1-0.1
		v17.4c0,1.8,0.4,3.1,1.1,3.8S671.8,1044.8,673.5,1044.8z"/>
	<path class="st0" d="M675.6,1053.2v-8.4h12v8.4H675.6z"/>
	<path class="st0" d="M675.6,1053.2v-8.4h12v8.4H675.6z"/>
	<path class="st0" d="M683.5,1053.2v-8.4h7.2c1.7,0,3-0.4,3.7-1.1s1.1-2,1.1-3.8v-9.1l8.6-4.6v13.7c0,1.8,0.4,3.1,1.1,3.8
		c0.7,0.8,2,1.1,3.7,1.1h4.6c1.7,0,3-0.4,3.7-1.1s1.1-2,1.1-3.8v-10.9l8.6-4.6v15.6c0,1.8,0.4,3.1,1.1,3.8c0.8,0.8,2,1.1,3.7,1.1
		h4.6c1.7,0,3-0.4,3.7-1.1c0.7-0.8,1.1-2,1.1-3.8v-12.8l8.6-4.6v17.8c0,4.1-1.2,7.3-3.7,9.7c-2.1,2.1-5,3.2-8.5,3.3H731
		c-3.4,0-6.1-1-8.3-3c-2,2-4.6,3-7.8,3h-6.8c-3.4,0-6.1-1-8.3-3c-2.1,2-4.9,3-8.3,3H683.5z"/>
	<path class="st0" d="M790.4,1013.2l8.6-4.6v30.2c0,4.5-1.3,8-4,10.7c-2.5,2.4-5.8,3.7-9.9,3.7h-25.7l4.3-8.4h9v-22.6l8.6-4.6v27.3
		h3.3c2.1,0,3.6-0.5,4.5-1.4c0.9-0.9,1.3-2.5,1.3-4.7V1013.2z M784.5,1009.2l-2.2,4h-12.7l2.2-4h2c-0.5-0.9-0.8-1.9-0.8-2.8
		c0-1.5,0.5-2.7,1.6-3.8c1.1-1.1,2.4-1.6,3.9-1.6c1.4,0,2.6,0.5,3.8,1.5v4c-1.1-1-2.2-1.5-3.3-1.5c-1.5,0-2.3,0.7-2.3,2.1
		c0,0.7,0.3,1.4,0.9,2.1H784.5z"/>
	<path class="st0" d="M813.1,1053.2v-40l8.6-4.6v44.6H813.1z"/>
	<path class="st0" d="M864.6,1053.2c-3.9,0-6.9-1.3-9.1-3.9c-2-2.3-2.9-5.3-2.9-8.9v-7.1l8.5-4.6v11.1c0,1.8,0.4,3.1,1.1,3.9
		c0.8,0.8,2,1.1,3.7,1.1h22.3c1.7,0,3-0.4,3.7-1.2c0.7-0.8,1.1-2.1,1.1-3.9v-12.7l8.6-4.6v17.8c0,4.2-1.3,7.5-3.9,9.8
		c-2.3,2-5.2,3-8.7,3H864.6z M871.2,1021c-1.4,0-2.5-0.4-3.3-1.3c-0.8-0.9-1.2-2-1.2-3.4c0-1.3,0.4-2.4,1.2-3.3
		c0.8-0.8,1.9-1.2,3.3-1.2c1.4,0,2.4,0.4,3.2,1.2c0.8,0.8,1.2,1.9,1.2,3.3C875.6,1019.5,874.1,1021,871.2,1021z M881.7,1021
		c-1.4,0-2.5-0.4-3.3-1.2c-0.8-0.8-1.2-2-1.2-3.4c0-3,1.5-4.5,4.5-4.5c1.4,0,2.4,0.4,3.2,1.2c0.8,0.8,1.2,1.9,1.2,3.3
		C886.1,1019.5,884.7,1021,881.7,1021z"/>
	<path class="st0" d="M915.9,1053.2v-40l8.6-4.6v44.6H915.9z"/>
	<path class="st0" d="M951,1048.9c0,5.3-1.5,9.7-4.4,13c-2.7,3.1-6.2,4.6-10.7,4.6c-2.9,0-5.7-0.7-8.4-2.2v-7.6c2.4,1.3,4.7,2,7,2
		c2.5,0,4.5-0.8,5.8-2.5c1.4-1.6,2.1-3.9,2.1-6.8v-22.3l8.5-4.6V1048.9z"/>
	<path class="st0" d="M977.7,1053.2c-4.1,0-7.4-1.3-9.6-4c-2-2.3-2.9-5.3-2.9-8.9v-27.1l8.6-4.6v31.3c0,1.8,0.4,3.1,1.1,3.8
		c0.7,0.8,2,1.1,3.7,1.1h6.1v8.4H977.7z"/>
	<path class="st0" d="M980.6,1053.2v-8.4h12v8.4H980.6z"/>
	<path class="st0" d="M980.6,1053.2v-8.4h12v8.4H980.6z"/>
	<path class="st0" d="M988.5,1053.2v-8.4h7.2c1.7,0,3-0.4,3.7-1.1s1.1-2,1.1-3.8v-9.1l8.6-4.6v13.7c0,1.8,0.4,3.1,1.1,3.8
		c0.7,0.8,2,1.1,3.7,1.1h4.6c1.7,0,3-0.4,3.7-1.1s1.1-2,1.1-3.8v-10.9l8.6-4.6v15.6c0,1.8,0.4,3.1,1.1,3.8c0.8,0.8,2,1.1,3.7,1.1
		h4.6c1.7,0,3-0.4,3.7-1.1c0.7-0.8,1.1-2,1.1-3.8v-12.8l8.6-4.6v16.3c0,2.2,0.4,3.8,1.3,4.7c0.9,0.9,2.4,1.4,4.5,1.4h6.3v8.4h-6.8
		c-3.8,0-6.9-1.1-9.2-3.3c-2,2.2-4.8,3.3-8.3,3.3h-6.8c-3.4,0-6.1-1-8.3-3c-2,2-4.6,3-7.8,3h-6.8c-3.4,0-6.1-1-8.3-3
		c-2.1,2-4.9,3-8.3,3H988.5z M1022.1,1016.4c-1.4,0-2.5-0.4-3.3-1.2c-0.8-0.8-1.2-2-1.2-3.4c0-1.3,0.4-2.4,1.2-3.3
		c0.8-0.8,1.9-1.2,3.3-1.2c1.4,0,2.4,0.4,3.2,1.2c0.8,0.8,1.2,1.9,1.2,3.3C1026.6,1014.9,1025.1,1016.4,1022.1,1016.4z
		 M1027.3,1006.2c-2.7,0-4.1-1.4-4.1-4.2c0-2.7,1.4-4.1,4.1-4.1c2.7,0,4,1.4,4,4.1C1031.3,1004.8,1030,1006.2,1027.3,1006.2z
		 M1032.6,1016.4c-1.4,0-2.5-0.4-3.3-1.2s-1.2-2-1.2-3.4c0-1.3,0.4-2.4,1.2-3.3s1.9-1.2,3.3-1.2s2.4,0.4,3.2,1.2
		c0.8,0.8,1.2,1.9,1.2,3.3C1037.1,1014.9,1035.6,1016.4,1032.6,1016.4z"/>
	<path class="st0" d="M1087.2,1044.8h6.1v8.4h-7c-3.3,0-6.1-0.9-8.3-2.7c-2.2,1.8-4.9,2.7-8.3,2.7h-7v-8.4h6.1c1.7,0,3-0.4,3.7-1.1
		c0.7-0.8,1.1-2,1.1-3.8v-12.8l8.6-4.6v17.4c0,1.8,0.4,3.1,1.1,3.8S1085.5,1044.8,1087.2,1044.8z M1069.4,1016.4
		c-1.4,0-2.5-0.4-3.3-1.2s-1.2-2-1.2-3.4c0-1.3,0.4-2.4,1.2-3.3s1.9-1.2,3.3-1.2s2.4,0.4,3.2,1.2c0.8,0.8,1.2,1.9,1.2,3.3
		C1073.8,1014.9,1072.3,1016.4,1069.4,1016.4z M1079.8,1016.4c-1.4,0-2.5-0.4-3.3-1.3c-0.8-0.9-1.2-2-1.2-3.4c0-1.3,0.4-2.4,1.3-3.3
		s1.9-1.2,3.2-1.2c1.4,0,2.4,0.4,3.2,1.2c0.8,0.8,1.2,1.9,1.2,3.3C1084.3,1014.9,1082.8,1016.4,1079.8,1016.4z"/>
	<path class="st0" d="M1089.3,1053.2v-8.4h7.2c1.7,0,3-0.4,3.7-1.1s1.1-2,1.1-3.8v-9.1l8.6-4.6v13.7c0,1.8,0.4,3.1,1.1,3.8
		c0.7,0.8,2,1.1,3.7,1.1h4.6c1.7,0,3-0.4,3.7-1.1s1.1-2,1.1-3.8v-10.9l8.6-4.6v15.6c0,1.8,0.4,3.1,1.1,3.8c0.8,0.8,2,1.1,3.7,1.1
		h4.6c1.7,0,3-0.4,3.7-1.1c0.7-0.8,1.1-2,1.1-3.8v-12.8l8.6-4.6v17.8c0,4.1-1.2,7.3-3.7,9.7c-2.1,2.1-5,3.2-8.5,3.3h-6.8
		c-3.4,0-6.1-1-8.3-3c-2,2-4.6,3-7.8,3h-6.8c-3.4,0-6.1-1-8.3-3c-2.1,2-4.9,3-8.3,3H1089.3z"/>
	<path class="st0" d="M1209.5,1044.8h6.1v8.4h-7c-3.6,0-6.4-1-8.7-3c-2.5,2-5.6,3-9.2,3h-25.7l4.3-8.4h9v-22.6l8.6-4.6v27.3h3.3
		c2.1,0,3.6-0.5,4.5-1.4c0.9-0.9,1.3-2.5,1.3-4.7v-25.5l8.6-4.6v31.3c0,1.8,0.4,3.1,1.1,3.8
		C1206.6,1044.5,1207.8,1044.8,1209.5,1044.8z M1187.7,1062.4c-1.1-1-2.2-1.5-3.3-1.5c-1.5,0-2.3,0.7-2.3,2.1c0,0.7,0.3,1.4,0.9,2.1
		h6.8l-2.2,4h-12.7l2.2-4h2c-0.5-0.9-0.8-1.9-0.8-2.8c0-1.5,0.5-2.7,1.6-3.8c1.1-1.1,2.4-1.6,3.9-1.6c1.4,0,2.6,0.5,3.8,1.5V1062.4z
		"/>
	<path class="st0" d="M1211.6,1053.2v-8.4h4.3c2.1,0,3.6-0.5,4.5-1.4c0.9-0.9,1.3-2.5,1.3-4.7v-25.5l8.5-4.6v30.2
		c0,4.5-1.3,8-4,10.7c-2.5,2.4-5.7,3.7-9.8,3.7H1211.6z"/>
</g>
</svg>
