<?xml version="1.0" encoding="utf-8"?>
<!-- Generator: Adobe Illustrator 25.3.0, SVG Export Plug-In . SVG Version: 6.00 Build 0)  -->
<svg version="1.1" id="Layer_1" xmlns="http://www.w3.org/2000/svg" xmlns:xlink="http://www.w3.org/1999/xlink" x="0px" y="0px"
	 viewBox="0 0 500 500" style="enable-background:new 0 0 500 500;" xml:space="preserve">
<style type="text/css">
	.st0{fill:#EBEBEB;}
	.st1{fill:#E0E0E0;}
	.st2{fill:#FFFFFF;}
	.st3{fill:#263238;}
	.st4{fill:#7A94AB;}
	.st5{fill:#ACDAE5;}
	.st6{fill:#89E4B3;}
	.st7{fill:#455A64;}
</style>
<g id="freepik--background-complete--inject-20">
	<rect x="389.9" y="241" transform="matrix(0.366 -0.9306 0.9306 0.366 8.5964 551.5854)" class="st0" width="38.4" height="56.9"/>
	<path class="st1" d="M442.6,262.5c-0.2,0.1-0.4,0.2-0.7,0.3l-2,0.7l-7.3,2.5l-24.3,8.2l-0.2,0.1l-0.1-0.2l-0.2-0.4l-12.9-22.6
		l-3.9-6.8l-1-1.9c-0.1-0.2-0.2-0.4-0.3-0.7c0.2,0.2,0.3,0.4,0.4,0.6l1.1,1.8l4,6.8l13,22.5l0.3,0.4l-0.3-0.1l24.4-8l7.4-2.4l2-0.6
		C442.1,262.6,442.4,262.5,442.6,262.5z"/>
	<path class="st1" d="M375.6,277.4c-0.1-0.1,5.9-3.5,13.2-7.4s13.4-7.1,13.5-7s-5.8,3.5-13.2,7.4S375.7,277.5,375.6,277.4z"/>
	<path class="st1" d="M420,269.4c0.1,0,2.2,6.4,4.5,14.3s4.2,14.4,4,14.5s-2.2-6.4-4.5-14.3S419.9,269.5,420,269.4z"/>
	
		<rect x="169.2" y="402.1" transform="matrix(0.8947 -0.4467 0.4467 0.8947 -167.3777 132.6487)" class="st0" width="56.9" height="38.4"/>
	<path class="st1" d="M214.9,391.8c-0.1,0.2-0.2,0.5-0.2,0.7l-0.8,2c-0.7,1.7-1.8,4.2-3,7.1l-10.2,23.5l-0.1,0.2h-0.2l-0.5-0.1
		l-25.4-5.5l-7.7-1.7l-2.1-0.5c-0.2-0.1-0.5-0.1-0.7-0.2c0.2,0,0.5,0,0.7,0.1l2.1,0.4l7.7,1.6l25.4,5.3l0.5,0.1l-0.3,0.1
		c4-9.2,7.7-17.4,10.3-23.5c1.3-3,2.4-5.4,3.2-7.1c0.4-0.8,0.7-1.4,0.9-1.9C214.7,392.2,214.8,392,214.9,391.8z"/>
	<path class="st1" d="M181.1,451.5c-0.1,0,1.3-6.6,3.3-14.8s3.7-14.7,3.8-14.7s-1.3,6.6-3.3,14.8S181.2,451.6,181.1,451.5z"/>
	<path class="st1" d="M204.9,413.2c0.1-0.1,6.2,2.6,13.7,6.2s13.5,6.6,13.4,6.7s-6.2-2.6-13.7-6.2S204.9,413.3,204.9,413.2z"/>
	<path class="st0" d="M130.9,262.6c19.4-12.9,24.1-37.4,23.7-59.4c-0.1-3.7,0.4-7.6-1.3-10.8s-5.8-5.5-9.2-4c-2.8,1.2-4,4.4-5.6,7
		c-2.1,3.5-5.2,6.3-8.9,8.1c-2.4,1.2-5.3,1.9-7.7,0.6c-3.2-1.8-3.5-6.2-3.4-9.9l0.4-20.4c0.1-3.6,0.2-7.4-1-10.9s-3.6-6.8-7.1-7.8
		s-7.9,0.9-8.7,4.5c-0.3,1.5,0,3-0.2,4.6s-0.9,3.2-2.3,3.6s-2.9-0.6-4-1.7c-3.8-3.8-6.3-8.6-8.6-13.3s-4.6-9.6-8-13.7
		s-8.2-7.3-13.5-7.7s-11,2.8-12.4,7.9s1.5,10.4,4.8,14.6c4.8,6.3,10.6,11.8,17,16.5c1.2,0.8,2.4,1.7,2.8,3.1
		c0.8,2.4-1.6,4.8-4.1,5.6c-2.8,0.9-5.8,0.5-8.7,0.8s-6,1.5-7.2,4.2c-1.6,3.7,1.5,7.7,4.6,10.3c6.2,5.2,13.2,9.4,20.7,12.2
		c2.7,1,5.6,1.9,7.7,3.9s3.4,5.2,2.1,7.8s-4.8,3.3-7.6,2.8s-5.4-2.1-8.1-3.2c-5.1-2-11.7-1.7-15,2.6c-2.2,2.8-2.4,6.8-1.4,10.2
		c1.2,3.4,3.1,6.5,5.5,9.1c8,9.7,18.3,17.1,30.1,21.6C108.1,265.4,119,266.6,130.9,262.6"/>
	<path class="st1" d="M125.3,248.7c-3.5-12.1-7.7-23.9-12.6-35.5c-1.3-3.1-2.5-6.1-3.8-9.1c-1.3-3-2.5-6-3.9-8.8
		c-2.7-5.4-5.7-10.7-9-15.8c-3.1-4.9-6.2-9.4-9.2-13.6s-5.8-8.1-8.5-11.5c-4.3-5.4-9-10.5-14.1-15.2c-1.8-1.7-3.2-2.9-4.2-3.7
		l-1.1-0.9l-0.4-0.3c0,0,0.1,0.1,0.4,0.4l1.1,1c1,0.9,2.4,2.1,4.2,3.8c5,4.7,9.7,9.8,14,15.3c2.7,3.4,5.5,7.3,8.5,11.5
		s6,8.8,9.1,13.7c3.3,5.1,6.2,10.4,8.9,15.8c1.4,2.8,2.6,5.8,3.9,8.8s2.5,6,3.8,9.1c4.9,11.6,9.1,23.4,12.7,35.4"/>
	<path class="st1" d="M104.8,195.2c0.2-0.5,0.3-1,0.4-1.6c0.2-1,0.4-2.5,0.7-4.3c0.6-3.6,1.2-8.7,1.9-14.2s1.4-10.6,2-14.2
		c0.3-1.8,0.6-3.3,0.8-4.3c0.1-0.5,0.2-1,0.3-1.6c-0.2,0.5-0.4,1-0.5,1.5c-0.3,1-0.6,2.4-1,4.2c-0.8,3.6-1.5,8.6-2.2,14.2
		s-1.2,10.5-1.7,14.3c-0.2,1.7-0.4,3.2-0.6,4.3C104.8,194.2,104.8,194.7,104.8,195.2z"/>
	<path class="st1" d="M57.3,185.7c0.2,0,0.3,0.1,0.5,0.1l1.4,0.1c1.2,0.1,3,0.3,5.2,0.6c4.3,0.5,10.3,1.5,16.9,2.8s12.4,2.8,16.7,4
		c2.1,0.6,3.8,1.1,5,1.4l1.4,0.4c0.2,0.1,0.3,0.1,0.5,0.1c-0.1-0.1-0.3-0.2-0.4-0.2l-1.3-0.5c-1.2-0.4-2.8-1-5-1.6
		c-4.2-1.3-10.1-2.8-16.7-4.1s-12.6-2.2-17-2.6c-2.2-0.2-4-0.3-5.2-0.4h-1.4C57.6,185.7,57.4,185.7,57.3,185.7z"/>
	<path class="st1" d="M124.8,247.8c0.1-0.2,0.2-0.4,0.3-0.6c0.2-0.4,0.5-1,0.8-1.7c0.7-1.5,1.7-3.6,2.9-6.3
		c2.4-5.4,5.4-12.9,8.7-21.2s6.2-15.8,8.5-21.2l2.7-6.4l0.7-1.7c0.1-0.2,0.2-0.4,0.2-0.6c-0.1,0.2-0.2,0.4-0.3,0.6l-0.8,1.7
		c-0.7,1.5-1.7,3.6-2.9,6.3c-2.4,5.4-5.4,12.9-8.7,21.2s-6.2,15.8-8.5,21.2l-2.7,6.4l-0.7,1.7C124.9,247.4,124.8,247.6,124.8,247.8z
		"/>
	<path class="st1" d="M61.8,226.7c0.2,0.1,0.4,0.2,0.6,0.2l1.8,0.6l6.8,2.3c5.7,1.9,13.5,4.6,22.2,7.7s16.5,5.7,22.3,7.5
		c2.9,0.9,5.2,1.6,6.8,2.1l1.9,0.5c0.2,0.1,0.4,0.1,0.7,0.1c-0.2-0.1-0.4-0.2-0.6-0.2l-1.8-0.6l-6.8-2.2c-5.7-1.9-13.5-4.6-22.2-7.7
		s-16.5-5.7-22.2-7.5c-2.9-0.9-5.2-1.6-6.8-2.1l-1.9-0.5C62.2,226.8,62,226.7,61.8,226.7z"/>
	<path class="st1" d="M75.4,44.6h56.4c3.9,0,7,3.2,7,7v27.9c0,3.9-3.2,7-7,7H75.4c-3.9,0-7-3.2-7-7V51.6
		C68.4,47.8,71.5,44.6,75.4,44.6z"/>
	<polyline class="st1" points="111.2,85.2 127.9,100 129.3,85.5 	"/>
	<path class="st2" d="M94.4,66.2c0,2.3-1.8,4.1-4.1,4.1s-4.1-1.8-4.1-4.1c0-2.3,1.8-4.1,4.1-4.1S94.4,63.9,94.4,66.2L94.4,66.2z"/>
	<path class="st2" d="M108.6,66.2c0,2.3-1.8,4.1-4.1,4.1s-4.1-1.8-4.1-4.1s1.8-4.1,4.1-4.1c0,0,0,0,0,0
		C106.7,62.1,108.6,63.9,108.6,66.2C108.6,66.2,108.6,66.2,108.6,66.2z"/>
	<path class="st2" d="M122.7,66.2c0,2.3-1.8,4.1-4.1,4.1s-4.1-1.8-4.1-4.1s1.8-4.1,4.1-4.1c0,0,0,0,0,0
		C120.9,62.1,122.7,63.9,122.7,66.2z"/>
	
		<rect x="336.3" y="89.4" transform="matrix(0.366 -0.9306 0.9306 0.366 115.6831 405.5552)" class="st0" width="38.4" height="56.9"/>
	<path class="st1" d="M389,110.9c-0.2,0.1-0.4,0.2-0.7,0.3l-2,0.7l-7.3,2.5l-24.3,8.2l-0.2,0.1l-0.1-0.2l-0.2-0.4l-12.9-22.6
		c-1.6-2.9-2.9-5.2-3.9-6.9l-1-1.9c-0.1-0.2-0.2-0.4-0.3-0.7c0.2,0.2,0.3,0.4,0.4,0.6l1.1,1.8c1,1.7,2.3,4,4,6.8l13,22.5l0.2,0.4
		l-0.3-0.1l24.4-8l7.4-2.4l2-0.6C388.5,111,388.7,111,389,110.9z"/>
	<path class="st1" d="M322,125.8c-0.1-0.1,5.8-3.4,13.2-7.4s13.4-7.1,13.5-7s-5.8,3.4-13.2,7.4S322,125.9,322,125.8z"/>
	<path class="st1" d="M366.4,117.8c0.1,0,2.2,6.4,4.5,14.3s4.2,14.4,4,14.5s-2.2-6.4-4.5-14.3S366.2,117.9,366.4,117.8z"/>
</g>
<g id="freepik--Floor--inject-20">
	<path class="st3" d="M468.1,466.4c0,0.1-97.6,0.3-218.1,0.3s-218.1-0.1-218.1-0.3s97.6-0.3,218.1-0.3S468.1,466.3,468.1,466.4z"/>
</g>
<g id="freepik--speech-bubbles--inject-20">
	<circle class="st4" cx="257.9" cy="246" r="12.9"/>
	<circle class="st4" cx="302.3" cy="246" r="12.9"/>
	<path class="st4" d="M388.2,179.3c0.2-0.1,0.5-0.1,0.8-0.1c0.8,0,1.5,0.1,2.2,0.2c1.2,0.3,2.4,0.7,3.5,1.3c1.5,0.8,2.8,2,3.9,3.4
		c1.4,1.7,2.2,3.8,2.5,6c0.1,0.6,0.1,1.2,0.2,1.9c0,0.6,0,1.2,0,1.9c0,1.3,0,2.6,0,4c0,5.6,0.1,11.9,0.1,19.1
		c0.1,14.3,0.1,31.7,0.2,51.7c0,5,0,10.2,0.1,15.5c0,2.7,0,5.4,0,8.1c0,1.4,0,2.8,0,4.1c0,0.7,0,1.4,0,2.1c0,0.8-0.1,1.5-0.2,2.3
		c-1.1,6.4-6.5,11.2-13,11.4l-18.2,0.1l1.1-1c-1.2,12.8-2.4,26.3-3.7,40.4l-0.2,2.2l-1.7-1.4l-48.9-40.3l0.8,0.3l-100.2,0h-23.5
		c-0.8,0-1.5,0-2.4,0c-4.4-0.1-8.4-2.3-10.9-5.8c-1-1.4-1.7-3-2.1-4.6c-0.4-1.6-0.5-3.3-0.4-4.9c0-3.1,0-6.1,0-9.2
		c0-6.1,0-12.1,0-18.1c0-24,0.1-47.1,0.1-69.1c0-2.8,0-5.5,0-8.2c0-1.5,0.1-2.9,0.6-4.4c0.4-1.4,1-2.8,1.9-4
		c1.7-2.4,4.1-4.2,6.8-5.2c1.4-0.5,2.8-0.7,4.2-0.8c1.4,0,2.6,0,3.9,0l30.4,0.1l54.5,0.2l78.9,0.4l21.5,0.2l5.6,0.1
		C386.9,179.1,387.5,179.2,388.2,179.3c-0.7,0.1-1.3,0.2-1.9,0.1l-5.6,0.1l-21.5,0.2l-78.9,0.4l-54.5,0.2l-30.4,0.1
		c-1.3,0-2.6,0-3.9,0c-1.2,0-2.4,0.2-3.5,0.6c-2.3,0.8-4.3,2.3-5.6,4.3c-1.4,2.1-2.1,4.5-2,7c0,2.7,0,5.4,0,8.2
		c0,22,0.1,45.1,0.1,69.1c0,6,0,12,0,18.1v9.2c-0.1,1.4,0.1,2.9,0.4,4.3c1.1,4.1,4.4,7.3,8.6,8.2c0.7,0.1,1.4,0.2,2.1,0.2
		c0.7,0,1.5,0,2.3,0h23.7l100.2,0h0.5l0.4,0.3l48.8,40.4l-1.9,0.8c1.4-14,2.6-27.6,3.9-40.4l0.1-1h1h18.2c5.5-0.2,10.2-4.2,11.1-9.6
		c0.1-0.6,0.2-1.3,0.2-1.9c0-0.7,0-1.4,0-2.1c0-1.4,0-2.8,0-4.1c0-2.7,0-5.4,0-8.1c0-5.3,0-10.5,0.1-15.5c0.1-20,0.2-37.4,0.2-51.7
		c0.1-7.1,0.1-13.5,0.1-19.1c0-1.4,0-2.7,0-4c0-0.6,0-1.3,0-1.9c0-0.6,0-1.2-0.1-1.7c-0.3-2.1-1-4-2.3-5.7c-1-1.3-2.2-2.5-3.6-3.3
		c-1-0.6-2.1-1.1-3.3-1.4C389.2,179.3,388.2,179.4,388.2,179.3z"/>
	<path class="st5" d="M110.7,243.5h194.8c7.4,0,13.4,6,13.4,13.4v105.1c0,7.4-6,13.4-13.4,13.4H110.7c-7.4,0-13.4-6-13.4-13.4l0,0
		V256.9C97.3,249.5,103.2,243.5,110.7,243.5C110.6,243.5,110.6,243.5,110.7,243.5z"/>
	<polyline class="st5" points="232,371.1 284.4,417.6 288.7,371.9 	"/>
	<circle class="st2" cx="166.3" cy="311.3" r="12.9"/>
	<circle class="st2" cx="210.7" cy="311.3" r="12.9"/>
	<circle class="st2" cx="255.1" cy="311.3" r="12.9"/>
	<circle class="st4" cx="346.7" cy="246" r="12.9"/>
</g>
<g id="freepik--Plants--inject-20">
	<path class="st3" d="M440.7,401.7c0.9-3.1,2.8-6,5.7-7.3s6.6-0.6,9.7,0.6s6.2,2.6,9.5,2.9s7.1-1.4,8-4.5c0.9-3-0.9-6.2-3.1-8.3
		c-7.8-7.5-20.3-7.3-27.8,0.6c-2,2-3.5,4.5-4.4,7.2"/>
	<path class="st6" d="M414.5,415c-4.9-4.6-4.6-12.7-2.2-18.9s7.7-11,13.6-14.2c11.7-6.1,25.6-6.6,37.6-1.2
		c-5.9,0.3-11.3,3.4-14.4,8.5c-2.7,4.4-3.3,9.8-5.5,14.5C438.5,414.5,425.7,419.6,414.5,415"/>
	<path class="st6" d="M412.1,387.3c-5.4-6.4-6.1-16.5-5.3-24.8s2.7-16.6,1.4-24.9c-0.8-4.9-2.7-9.5-3.3-14.4s0.3-10.4,4.1-13.6
		c4.4-3.6,11.2-2.8,15.8,0.6s7.2,8.8,9.1,14.1c4.2,11.7,5.8,24.7,2.3,36.7s-11.6,22.7-23.5,26.3"/>
	<path class="st3" d="M409.5,439.4c0-0.2,0-0.5,0-0.7c0-0.5,0-1.2,0-2.1c0.1-1.8,0.2-4.5,0.6-7.7c0.5-3.8,1.2-7.6,2.1-11.3
		c1.1-4.6,2.8-9,5.1-13.1c2.3-4.1,5.1-7.9,8.4-11.2c2.7-2.8,5.6-5.2,8.8-7.3c1.3-0.9,2.6-1.6,3.8-2.3s2.1-1.1,3-1.5l1.9-0.8
		c0.2-0.1,0.5-0.2,0.7-0.2c-0.2,0.1-0.4,0.2-0.6,0.3l-1.9,0.9c-0.8,0.4-1.8,0.9-2.9,1.6s-2.4,1.4-3.7,2.3c-3.1,2.1-6.1,4.6-8.7,7.4
		c-3.2,3.4-6,7.1-8.3,11.2c-5,8.7-6.3,17.8-7.3,24.1c-0.5,3.2-0.7,5.9-0.8,7.7c-0.1,0.9-0.1,1.6-0.1,2.1
		C409.6,438.9,409.6,439.2,409.5,439.4z"/>
	<path class="st3" d="M363.1,362.2c-10,6-9.9,11.5-8.3,16.6s7.8,8.8,12.8,6.8c2.9-1.1,4.9-3.6,6.7-6.1s3.4-5.2,5.9-7
		s6.1-2.5,8.6-0.7"/>
	<path class="st6" d="M355.6,368.8c2.6-3.6,9-4.6,13.1-2.8s7,5.4,9.7,8.9s5.3,7.3,9,9.8s8.8,3.4,12.5,0.9c2.4-1.8,3.9-4.4,4.2-7.4
		c0.3-2.9,0.1-5.8-0.6-8.7c-0.9-4.2-2.3-8.5-5.7-11.2c-3.7-3-8.9-3.1-13.6-2.9c-5.5,0.2-11,0.6-16.1,2.5S357.8,363.8,355.6,368.8"/>
	<path class="st3" d="M401.3,431.4c0-0.3-0.1-0.6-0.1-0.9l-0.1-2.5c-0.1-2.2-0.2-5.3-0.3-9.1s-0.3-8.4-0.6-13.5s-0.7-10.6-1.4-16.4
		c-0.3-2.8-0.9-5.6-1.6-8.3c-0.8-2.5-1.8-5-3-7.3c-2.1-4-4.8-7.6-8-10.7c-2.2-2.1-4.7-3.8-7.4-5.1c-0.7-0.4-1.5-0.7-2.3-1
		c-0.3-0.1-0.5-0.2-0.8-0.4c0.3,0.1,0.6,0.1,0.8,0.2c0.8,0.2,1.6,0.5,2.3,0.9c2.8,1.3,5.3,3,7.6,5c3.3,3.1,6.1,6.7,8.2,10.7
		c1.3,2.4,2.3,4.8,3.1,7.4c0.8,2.8,1.4,5.6,1.7,8.4c0.8,5.8,1.1,11.4,1.4,16.5s0.4,9.6,0.5,13.5s0.1,7,0.1,9.1v2.5
		C401.3,430.8,401.3,431.1,401.3,431.4z"/>
	<path class="st3" d="M404.9,435.9c-0.5-1.4-0.9-2.8-1.1-4.3c-0.7-4-0.9-8-0.5-12c0.6-5.9,1.9-11.8,3.8-17.4
		c2-6.4,4.8-13.3,7.2-20.6c1.2-3.6,2.1-7.2,2.9-10.9c0.7-3.4,1.1-6.9,1.4-10.4c0.5-5.9,0.6-11.9,0.3-17.8c-0.2-5.1-0.4-9.2-0.6-12
		c-0.1-1.4-0.1-2.5-0.2-3.3c0-0.4,0-0.6,0-0.9c0-0.1,0-0.2,0-0.3c0,0.1,0,0.2,0,0.3c0,0.2,0,0.5,0.1,0.9c0.1,0.8,0.2,1.9,0.3,3.3
		c0.2,2.8,0.5,6.9,0.8,12c0.3,6,0.2,11.9-0.2,17.9c-0.3,3.5-0.7,7-1.4,10.5c-0.7,3.7-1.7,7.4-2.9,11c-2.4,7.4-5.2,14.2-7.2,20.6
		c-1.9,5.6-3.2,11.4-3.9,17.3c-0.4,4-0.3,8,0.3,12c0.2,1.4,0.5,2.5,0.7,3.2c0.1,0.3,0.1,0.6,0.2,0.8
		C404.8,435.8,404.8,435.9,404.9,435.9z"/>
	<polygon class="st3" points="429.5,440.4 382.8,440.4 381.7,431.4 429.5,431.4 	"/>
	<polygon class="st3" points="387.8,439.4 393.6,466.4 419,466.4 424.5,439.4 	"/>
	<path class="st7" d="M429.5,440.4c0,0.1-10.3,0.2-23,0.2s-23-0.2-23-0.3s10.3-0.2,23-0.2S429.5,440.3,429.5,440.4z"/>
	<path class="st7" d="M421.5,453.8c-1.3-0.9-2.7-1.7-4.1-2.3c-1.6-0.6-3.3-1-5-1c-2.1,0-4.2,0.4-6.1,1.1c-2.1,0.7-4.1,1.6-6.1,2
		c-1.7,0.4-3.5,0.4-5.2,0.1c-1.2-0.2-2.3-0.5-3.4-1.1c-0.3-0.2-0.6-0.3-0.8-0.5c-0.2-0.1-0.3-0.2-0.2-0.2c1.4,0.8,2.9,1.3,4.5,1.5
		c1.7,0.2,3.4,0.1,5.1-0.2c1.9-0.5,3.9-1.3,6-2c2-0.7,4.2-1.1,6.3-1.1c1.8,0.1,3.5,0.4,5.1,1.1c1.1,0.5,2.1,1.1,3,1.8
		c0.3,0.2,0.5,0.4,0.7,0.6C421.5,453.7,421.5,453.7,421.5,453.8z"/>
	<path class="st2" d="M421.2,455.6c-1.2-0.9-2.6-1.7-4-2.3c-1.5-0.6-3.2-1-4.8-1c-2,0-4,0.4-5.9,1.1c-2.1,0.7-4,1.5-5.9,2
		c-1.6,0.5-3.3,0.7-5,0.6c-1.2-0.1-2.3-0.4-3.3-0.9c-0.3-0.1-0.5-0.3-0.8-0.5c-0.2-0.1-0.2-0.2-0.2-0.2s0.4,0.2,1.1,0.5
		c1,0.4,2.1,0.7,3.2,0.7c1.7,0.1,3.3-0.2,4.9-0.6c1.8-0.5,3.7-1.3,5.8-2c2-0.7,4-1.1,6.1-1.1c2.9,0.1,5.6,1.1,7.9,2.9
		c0.3,0.3,0.5,0.5,0.7,0.6S421.2,455.5,421.2,455.6z"/>
	<path class="st2" d="M422,452c-1.3-1-2.7-1.8-4.2-2.5c-1.6-0.7-3.4-1.1-5.1-1.2c-2.2,0-4.3,0.3-6.3,1.1c-2.1,0.8-4.1,1.5-6.3,2
		c-1.8,0.3-3.6,0.3-5.4,0c-1.2-0.2-2.4-0.6-3.5-1.1c-0.3-0.2-0.6-0.3-0.8-0.5c-0.2-0.1-0.3-0.2-0.3-0.2s0.4,0.2,1.2,0.6
		c1.1,0.5,2.3,0.8,3.5,0.9c1.8,0.2,3.5,0.2,5.3-0.1c1.9-0.4,4-1.3,6.2-2.1c2.1-0.8,4.3-1.2,6.5-1.1c1.8,0.1,3.6,0.6,5.2,1.4
		c1.1,0.5,2.2,1.1,3.1,1.9c0.3,0.2,0.5,0.4,0.8,0.6C421.9,451.9,422,452,422,452z"/>
	<path class="st4" d="M95,423.2c-2,2.9-5.9,1.9-7.8,0.2s-2.6-4.3-3.3-6.7c-1.6-5.5-3.2-11.4-2-17c0.3-1.7,1-3.3,2.2-4.7
		c1.2-1.3,3-1.9,4.7-1.6c2,0.5,3.2,2.5,4.1,4.3c2.6,5.4,4,11.4,4,17.4C96.9,418,96.6,420.9,95,423.2"/>
	<g>
		<path class="st6" d="M95,423.2c-2,2.9-5.9,1.9-7.8,0.2s-2.6-4.3-3.3-6.7c-1.6-5.5-3.2-11.4-2-17c0.3-1.7,1-3.3,2.2-4.7
			c1.2-1.3,3-1.9,4.7-1.6c2,0.5,3.2,2.5,4.1,4.3c2.6,5.4,4,11.4,4,17.4C96.9,418,96.6,420.9,95,423.2"/>
	</g>
	<path class="st6" d="M87.5,437.8c-3.4-1.6-7.2-2-10.8-1.3c-2,0.2-3.9,1-5.4,2.4c-1.3,1.5-1.6,4.1,0,5.4c1,0.7,2.2,1,3.4,0.9
		c2.9,0,6.1-0.5,8.3,1.2c1.3,1,2.2,2.6,3.7,3.1c1.6,0.4,3.3-0.4,4.1-1.8c0.7-1.4,0.9-3.1,0.5-4.7C90.9,440.7,89.5,438.8,87.5,437.8z
		"/>
	<path class="st6" d="M100.6,427.4c-2.1-2.7-2.7-6.4-1.6-9.6c1.1-3.2,3.1-6.1,5.7-8.3c3-2.6,6.5-4.7,10.2-6c1.5-0.6,3-0.9,4.6-0.8
		c1.6,0.1,3,1,3.9,2.3c1.1,2,0,4.5-1.1,6.6c-2,3.6-4.2,7-6.7,10.2c-2,2.6-4.3,5.2-7.4,6.3s-6.3,1-7.9-1.1"/>
	<path class="st3" d="M95.2,466.7c-0.1-0.4-0.2-0.9-0.2-1.3c-0.1-1-0.2-2.1-0.3-3.6s-0.4-3.3-0.8-5.2c-0.5-2.1-1.1-4.2-1.9-6.2
		c-0.8-2-1.8-3.9-3.2-5.6c-1.1-1.4-2.4-2.5-4-3.3c-1.1-0.5-2.2-0.8-3.4-1c-0.4,0-0.9-0.1-1.3-0.2c0.4-0.1,0.9-0.1,1.3,0
		c1.2,0.1,2.4,0.4,3.5,0.9c1.6,0.8,3.1,1.9,4.2,3.4c1.4,1.7,2.5,3.6,3.3,5.7c0.8,2,1.4,4.1,1.9,6.3c0.3,1.8,0.6,3.5,0.7,5.3
		c0.1,1.5,0.2,2.7,0.2,3.6C95.2,465.8,95.2,466.3,95.2,466.7z"/>
	<path class="st3" d="M94.9,463.9c0-0.2,0-0.4,0-0.6v-1.7c0-1.5,0-3.7-0.1-6.4c-0.1-5.4-0.6-12.8-1.5-21s-2.1-15.5-3.2-20.8
		c-0.2-1.3-0.5-2.5-0.8-3.5s-0.4-2-0.6-2.7s-0.3-1.2-0.4-1.7c-0.1-0.2-0.1-0.4-0.1-0.6c0.1,0.2,0.2,0.4,0.2,0.6l0.5,1.7
		c0.2,0.7,0.5,1.6,0.7,2.7s0.6,2.2,0.8,3.5c1.5,6.9,2.6,13.8,3.3,20.8c0.9,8.2,1.3,15.6,1.3,21c0,2.7,0,4.9-0.1,6.4
		c0,0.7-0.1,1.3-0.1,1.7C95,463.5,95,463.7,94.9,463.9z"/>
	<path class="st3" d="M94.9,449.5c0-0.6,0-1.2,0-1.8c0.1-1.2,0.2-2.9,0.6-4.9c0.9-5.4,2.4-10.6,4.6-15.6c2.1-5.1,5.1-9.7,8.8-13.7
		c0.6-0.7,1.3-1.3,2.1-1.9c0.3-0.3,0.6-0.5,0.9-0.8l0.8-0.5c0.5-0.4,1-0.7,1.5-1c-1.8,1.4-3.4,2.9-5,4.5c-3.6,4-6.5,8.6-8.6,13.6
		c-1.2,2.7-2.2,5.5-3,8.4c-0.8,2.6-1.3,5-1.7,7.1s-0.6,3.7-0.7,4.9C95.1,448.3,95,448.9,94.9,449.5z"/>
</g>
</svg>
