<?xml version="1.0" encoding="utf-8"?>
<!-- Generator: Adobe Illustrator 25.3.0, SVG Export Plug-In . SVG Version: 6.00 Build 0)  -->
<svg version="1.1" id="Layer_1" xmlns="http://www.w3.org/2000/svg" xmlns:xlink="http://www.w3.org/1999/xlink" x="0px" y="0px"
	 viewBox="0 0 736.6 500" style="enable-background:new 0 0 736.6 500;" xml:space="preserve">
<style type="text/css">
	.st0{fill:#E0E0E0;}
	.st1{fill:#E6E6E6;}
	.st2{fill:#F0F0F0;}
	.st3{fill:#FFFFFF;}
	.st4{fill:#EBEBEB;}
	.st5{fill:#F5F5F5;}
	.st6{fill:#93BAE2;}
	.st7{opacity:0.3;}
	.st8{fill:#EBBAB9;}
	.st9{fill:#ACDAE5;}
	.st10{fill:#263238;}
	.st11{fill:#89E4B3;}
	.st12{opacity:0.3;enable-background:new    ;}
	.st13{opacity:0.3;fill:#FFFFFF;enable-background:new    ;}
	.st14{opacity:0.52;enable-background:new    ;}
	.st15{fill:#FFCAD0;}
	.st16{opacity:0.61;}
	.st17{fill:#EE84AA;}
	.st18{opacity:0.74;fill:#EE84AA;enable-background:new    ;}
	.st19{opacity:0.7;fill:#FFFFFF;enable-background:new    ;}
	.st20{fill:#B97964;}
	.st21{opacity:0.2;enable-background:new    ;}
	.st22{fill:#7A94AB;}
	.st23{fill:#A24E3F;}
	.st24{opacity:0.7;}
</style>
<g id="freepik--background-complete--inject-94">
	<g>
		<g>
			<g>
				<path class="st0" d="M482.6,319.3H301.8c-3.2,0-5.9-2.6-5.9-5.9V50.1c0-3.2,2.6-5.9,5.9-5.9h180.7c3.2,0,5.9,2.6,5.9,5.9v263.3
					C488.5,316.6,485.8,319.3,482.6,319.3L482.6,319.3z M301.8,44.5c-3.1,0-5.6,2.5-5.6,5.6v263.3c0,3.1,2.5,5.6,5.6,5.6h180.7
					c3.1,0,5.6-2.5,5.6-5.6V50.1c0-3.1-2.5-5.6-5.6-5.6H301.8z"/>
				<path class="st0" d="M274.2,319.3H93.4c-3.2,0-5.9-2.6-5.9-5.9V50.1c0-3.2,2.6-5.9,5.9-5.9h180.7c3.2,0,5.9,2.6,5.9,5.9v263.3
					C280,316.6,277.4,319.3,274.2,319.3L274.2,319.3z M93.4,44.5c-3.1,0-5.6,2.5-5.6,5.6v263.3c0,3.1,2.5,5.6,5.6,5.6h180.7
					c3.1,0,5.6-2.5,5.6-5.6V50.1c0-3.1-2.5-5.6-5.6-5.6H93.4z"/>
			</g>
			<rect x="38.7" y="380.3" class="st0" width="500" height="0.2"/>
		</g>
		<rect x="90.3" y="394.6" class="st0" width="16.1" height="0.2"/>
		<rect x="209" y="391.9" class="st0" width="53.5" height="0.2"/>
		<rect x="107.4" y="403.9" class="st0" width="36.2" height="0.2"/>
		<rect x="417" y="391.8" class="st0" width="43.2" height="0.2"/>
		<rect x="469.1" y="391.8" class="st0" width="6.3" height="0.2"/>
		<rect x="354.9" y="398" class="st0" width="53.9" height="0.2"/>
	</g>
	<g>
		<g>
			<rect x="116" y="57.9" class="st1" width="64.8" height="122.1"/>
			<rect x="101.5" y="57.9" class="st2" width="76.1" height="122.1"/>
			<rect x="113.1" y="68.7" class="st3" width="52.9" height="100.4"/>
		</g>
		<path class="st2" d="M137.1,92c-2.7,3.4-4.8,7.1-6.2,11.2s-2.3,8.7-1.6,13.1c0.6,3.7,2.8,7.3,6.3,8.8c3.8,1.6,7.8,0.1,10.9-2.4
			c2.8-2.3,6.5-6.2,5.6-10.2c-1-4.1-5.9-4.9-9.3-3.6c-7.8,3.2-11.5,12.2-12.1,20c-0.6,8.3,0.7,22,11,23.9c1.9,0.3,2.7-2.6,0.8-2.9
			c-7.3-1.3-8.6-10.3-8.8-16.3c-0.3-6.8,1.1-14,6.1-18.9c1.9-1.9,5.5-4.6,8.3-2.9c3.3,1.9-0.5,6-2.2,7.6c-2.1,2.1-5.2,4-8.3,3.2
			c-2.9-0.8-4.6-3.8-5.2-6.6c-0.7-3.9,0.3-8.1,1.5-11.7s3.1-7.1,5.5-10.1C140.4,92.6,138.3,90.5,137.1,92L137.1,92L137.1,92z"/>
	</g>
	<g>
		<rect x="539" y="68.8" class="st1" width="55.3" height="70.9"/>
		<rect x="526.6" y="68.8" class="st2" width="64.9" height="70.9"/>
		<rect x="532.6" y="75.1" class="st3" width="52.7" height="58.3"/>
		<rect x="549.9" y="93.7" class="st2" width="19" height="21.1"/>
	</g>
	<g>
		<rect x="539" y="167.7" class="st1" width="55.3" height="70.9"/>
		<rect x="526.6" y="167.7" class="st2" width="64.9" height="70.9"/>
		<rect x="532.6" y="174" class="st3" width="52.7" height="58.3"/>
		<rect x="428.1" y="192.6" class="st2" width="19" height="21.1"/>
	</g>
	<g>
		<rect x="87.6" y="305.5" class="st4" width="132.3" height="62.1"/>
		<polygon class="st4" points="98.4,364.7 87.6,464.1 94.5,464.1 115.3,364.9 		"/>
		<polygon class="st4" points="212.1,364.7 222.9,464.1 216,464.1 195.1,364.9 		"/>
		<g>
			<polygon class="st0" points="121,288.2 126.8,305.5 116,305.5 			"/>
			<polygon class="st1" points="100.7,305.5 121,305.5 126.8,277.3 106.5,277.3 			"/>
		</g>
		<g>
			<path class="st0" d="M157.8,287c-2.1-5.2-1.9-11,0.5-16.1c4.2-7.9,5.5-9.9,2.6-11.5c-2.8-1.6-3.9,6.4-3.9,6.4
				c-1.3-3.6-1.5-7.6-0.4-11.3c1.9-5.8,3.1-15.2,0.5-16.2s-0.5,11.7-2.6,16.1c-1.1-3.1-1.9-6.2-2.2-9.5c-0.3-4.6,0.2-12-1.8-13.9
				s-3.3-0.6-1.3,9.6c1.2,6.1,1.9,12.3,2,18.4c0,0-4.4-13.4-7.4-13.8c-3-0.4-3,4-0.4,7.7c2.5,3.8,7.4,10.5,8.2,14
				c0,0-4.8-10.1-9.2-7c-4.3,3.1,3.8,9.2,7.4,11.4c3.6,2.2,6.1,16,6.1,16L157.8,287z"/>
			<path class="st4" d="M154.9,290.2c2.1-5.2,1.8-11-0.7-16c-4.3-7.9-5.6-9.8-2.9-11.4c2.7-1.7,4,6.3,4,6.3
				c1.3-3.6,1.4-7.6,0.3-11.3c-1.9-5.7-3.2-15.1-0.7-16.2c2.6-1,0.6,11.7,2.9,16c1.1-3.1,1.8-6.3,2.1-9.5c0.2-4.6-0.3-12,1.7-13.9
				s3.3-0.7,1.4,9.6c-1.1,6.1-1.7,12.3-1.8,18.4c0,0,4.2-13.5,7.2-13.9s3,3.9,0.5,7.7c-2.5,3.8-7.3,10.5-7.9,14.1
				c0,0,4.7-10.2,9.1-7.1c4.4,3-3.7,9.2-7.2,11.5c-3.6,2.2-6,16.1-6,16.1L154.9,290.2z"/>
			<polygon class="st0" points="171.5,284.4 141.7,284.4 144.1,305.7 169.1,305.7 			"/>
		</g>
		<path class="st0" d="M210.1,300.9v4.1h0.7v0.7h-30.9c-1.5,0-2.7-1.2-2.7-2.7s1.2-2.7,2.7-2.7h30.9v0.7L210.1,300.9L210.1,300.9z"
			/>
		<path class="st0" d="M213.5,295.5v4.1h0.7v0.7h-30.9c-1.5,0-2.7-1.2-2.7-2.7s1.2-2.7,2.7-2.7h30.9v0.7h-0.7V295.5z"/>
		<path class="st3" d="M213.5,295.5v4.1h-15c-1.1,0-2.1-0.9-2.1-2.1c0-1.1,0.9-2.1,2-2.1l0,0h15.1V295.5z"/>
		<path class="st0" d="M209.3,290v4.1h0.7v0.7h-31c-1.5,0-2.7-1.2-2.7-2.7s1.2-2.7,2.7-2.7h30.9v0.7h-0.6L209.3,290L209.3,290z"/>
		<path class="st1" d="M209.3,290v4.1h0.7v0.7h-15.6c-1.5,0-2.7-1.2-2.7-2.7s1.2-2.7,2.7-2.7H210v0.7h-0.7V290z"/>
		<path class="st3" d="M209.3,290v4.1h-14.9c-1.1,0-2.1-0.9-2.1-2l0,0c0-1.1,0.9-2.1,2-2.1h0.1H209.3L209.3,290z"/>
		<path class="st0" d="M213.2,346H94.8v-32.8h118.4L213.2,346L213.2,346z M95.8,345h116.4v-30.8H95.8V345L95.8,345z"/>
		<path class="st0" d="M160,329.6c0,1.9-1.5,3.4-3.4,3.4s-3.4-1.5-3.4-3.4s1.5-3.4,3.4-3.4C158.5,326.1,160,327.7,160,329.6z"/>
	</g>
</g>
<g id="freepik--Shadow--inject-94">
	<path class="st5" d="M575.6,464.1c0,3.4-92.8,6.1-207.3,6.1S161,467.5,161,464.1s92.8-6.1,207.3-6.1S575.6,460.8,575.6,464.1z"/>
</g>
<g id="freepik--Question_Mark--inject-94">
	<g>
		<g>
			<path class="st6" d="M257.4,420.1c-7.2,0-13.5-2.4-18.9-7.3s-8.1-11.7-8.1-20.5c0-7.8,2.6-14.3,7.8-19.6c5.2-5.3,11.6-8,19.2-8
				c7.5,0,13.7,2.7,18.8,8c5.1,5.3,7.6,11.9,7.6,19.6c0,8.6-2.7,15.4-8,20.4C270.5,417.6,264.3,420.1,257.4,420.1L257.4,420.1z"/>
			<path class="st6" d="M174.2,224.2c0-11.4,3.5-23,10.6-34.7c7-11.7,17.3-21.4,30.8-29.1c13.5-7.7,29.2-11.5,47.2-11.5
				c16.7,0,31.5,3.2,44.3,9.7c12.8,6.4,22.7,15.2,29.7,26.3s10.5,23.1,10.5,36.1c0,10.2-2,19.2-6,26.9s-8.7,14.3-14.2,19.9
				s-15.3,15-29.5,28.2c-3.9,3.7-7.1,7-9.4,9.8c-2.4,2.8-4.1,5.4-5.3,7.8c-1.2,2.3-2,4.7-2.7,7c-0.6,2.3-1.6,6.5-2.9,12.4
				c-2.2,12.5-9.1,18.8-20.6,18.8c-6,0-11-2-15.1-6.1s-6.1-10.2-6.1-18.2c0-10.1,1.5-18.9,4.5-26.3s7-13.9,11.9-19.5
				c5-5.6,11.6-12.2,20.1-19.9c7.4-6.7,12.7-11.8,16-15.2s6.1-7.2,8.3-11.5c2.2-4.2,3.4-8.8,3.4-13.7c0-9.6-3.4-17.7-10.3-24.4
				c-6.9-6.6-15.7-9.9-26.6-9.9c-12.7,0-22,3.3-28,10s-11.1,16.5-15.2,29.5c-3.9,13.6-11.4,20.4-22.3,20.4c-6.5,0-11.9-2.4-16.3-7.1
				C176.4,234.9,174.2,229.7,174.2,224.2L174.2,224.2z"/>
		</g>
		<g class="st7">
			<path d="M257.4,420.1c-7.2,0-13.5-2.4-18.9-7.3s-8.1-11.7-8.1-20.5c0-7.8,2.6-14.3,7.8-19.6c5.2-5.3,11.6-8,19.2-8
				c7.5,0,13.7,2.7,18.8,8c5.1,5.3,7.6,11.9,7.6,19.6c0,8.6-2.7,15.4-8,20.4C270.5,417.6,264.3,420.1,257.4,420.1L257.4,420.1z"/>
			<path d="M174.2,224.2c0-11.4,3.5-23,10.6-34.7c7-11.7,17.3-21.4,30.8-29.1c13.5-7.7,29.2-11.5,47.2-11.5
				c16.7,0,31.5,3.2,44.3,9.7c12.8,6.4,22.7,15.2,29.7,26.3s10.5,23.1,10.5,36.1c0,10.2-2,19.2-6,26.9s-8.7,14.3-14.2,19.9
				s-15.3,15-29.5,28.2c-3.9,3.7-7.1,7-9.4,9.8c-2.4,2.8-4.1,5.4-5.3,7.8c-1.2,2.3-2,4.7-2.7,7c-0.6,2.3-1.6,6.5-2.9,12.4
				c-2.2,12.5-9.1,18.8-20.6,18.8c-6,0-11-2-15.1-6.1s-6.1-10.2-6.1-18.2c0-10.1,1.5-18.9,4.5-26.3s7-13.9,11.9-19.5
				c5-5.6,11.6-12.2,20.1-19.9c7.4-6.7,12.7-11.8,16-15.2s6.1-7.2,8.3-11.5c2.2-4.2,3.4-8.8,3.4-13.7c0-9.6-3.4-17.7-10.3-24.4
				c-6.9-6.6-15.7-9.9-26.6-9.9c-12.7,0-22,3.3-28,10s-11.1,16.5-15.2,29.5c-3.9,13.6-11.4,20.4-22.3,20.4c-6.5,0-11.9-2.4-16.3-7.1
				C176.4,234.9,174.2,229.7,174.2,224.2L174.2,224.2z"/>
		</g>
		<g>
			<path class="st8" d="M257.4,412.8c-7.2,0-13.5-2.4-18.9-7.3s-8.1-11.7-8.1-20.5c0-7.8,2.6-14.3,7.8-19.6c5.2-5.3,11.6-8,19.2-8
				c7.5,0,13.7,2.7,18.8,8c5.1,5.3,7.6,11.9,7.6,19.6c0,8.6-2.7,15.4-8,20.4C270.5,410.3,264.3,412.8,257.4,412.8L257.4,412.8z"/>
			<path class="st8" d="M174.2,216.9c0-11.4,3.5-23,10.6-34.7c7-11.7,17.3-21.4,30.8-29.1c13.5-7.7,29.2-11.5,47.2-11.5
				c16.7,0,31.5,3.2,44.3,9.7c12.8,6.4,22.7,15.2,29.7,26.3s10.5,23.1,10.5,36.1c0,10.2-2,19.2-6,26.9s-8.7,14.3-14.2,19.9
				s-15.3,15-29.5,28.2c-3.9,3.7-7.1,7-9.4,9.8c-2.4,2.8-4.1,5.4-5.3,7.8c-1.2,2.3-2,4.7-2.7,7c-0.6,2.3-1.6,6.5-2.9,12.4
				c-2.2,12.5-9.1,18.8-20.6,18.8c-6,0-11-2-15.1-6.1s-6.1-10.2-6.1-18.2c0-10.1,1.5-18.9,4.5-26.3s7-13.9,11.9-19.5
				c5-5.6,11.6-12.2,20.1-19.9c7.4-6.7,12.7-11.8,16-15.2s6.1-7.2,8.3-11.5c2.2-4.2,3.4-8.8,3.4-13.7c0-9.6-3.4-17.7-10.3-24.4
				c-6.9-6.6-15.7-9.9-26.6-9.9c-12.7,0-22,3.3-28,10s-11.1,16.5-15.2,29.5c-3.9,13.6-11.4,20.4-22.3,20.4c-6.5,0-11.9-2.4-16.3-7.1
				C176.4,227.6,174.2,222.4,174.2,216.9L174.2,216.9z"/>
		</g>
	</g>
</g>
<g id="freepik--Speech_Bubble_2--inject-94">
	<g>
		<g>
			<path class="st6" d="M501.4,85.8c-10.9-8-26.2-5.7-34.2,5.2c-6.2,8.4-6.2,19.4-0.9,27.7l-2,7.1l7.7-0.8c0.1,0.1,0.2,0.2,0.3,0.3
				c10.9,8,26.2,5.7,34.2-5.2C514.6,109.1,512.2,93.8,501.4,85.8z"/>
			<path class="st9" d="M501.4,85.8c-10.9-8-26.2-5.7-34.2,5.2c-6.2,8.4-6.2,19.4-0.9,27.7l-2,7.1l7.7-0.8c0.1,0.1,0.2,0.2,0.3,0.3
				c10.9,8,26.2,5.7,34.2-5.2C514.6,109.1,512.2,93.8,501.4,85.8z"/>
			<path class="st6" d="M514.4,104.8L514.4,104.8c-0.1,0-0.3-0.1-0.2-0.3c0.2-7.8-3.8-15.8-10.3-20.2c-0.1-0.1-0.1-0.2-0.1-0.3
				c0.1-0.1,0.2-0.1,0.3-0.1c6.6,4.5,10.7,12.6,10.5,20.6C514.6,104.7,514.5,104.8,514.4,104.8z"/>
			<path class="st6" d="M513.6,112C513.5,112,513.5,112,513.6,112c-0.2-0.1-0.3-0.2-0.2-0.3c0.4-1.1,0.6-2.3,0.6-3.5
				c0-0.1,0.1-0.3,0.2-0.3c0.1,0,0.3,0.1,0.3,0.2c0.1,1.2-0.2,2.5-0.6,3.7C513.8,112,513.7,112,513.6,112z"/>
		</g>
		<path class="st10" d="M485.3,106.7c0.4-0.7,1-1.5,1.8-2.3c0.6-0.6,1-1.1,1.3-1.6c0.3-0.4,0.4-0.9,0.4-1.4c0-0.8-0.3-1.4-0.8-1.8
			s-1.2-0.7-2.1-0.7c-0.8,0-1.6,0.2-2.2,0.6s-1.2,1-1.6,1.7l-3.2-2.2c0.7-1.3,1.7-2.3,3-3.1c1.3-0.7,2.7-1.1,4.5-1.1
			c2,0,3.6,0.5,4.9,1.5c1.2,1,1.8,2.4,1.8,4.2c0,0.8-0.1,1.6-0.4,2.2c-0.2,0.6-0.5,1.2-0.9,1.6c-0.3,0.4-0.8,1-1.3,1.5
			c-0.6,0.7-1.1,1.3-1.4,1.7c-0.3,0.5-0.4,1-0.4,1.7h-4C484.6,108.3,484.8,107.4,485.3,106.7L485.3,106.7z M484.8,116
			c-0.5-0.5-0.7-1.1-0.7-1.8c0-0.7,0.2-1.3,0.7-1.8s1.1-0.7,1.8-0.7c0.7,0,1.3,0.2,1.8,0.7s0.7,1.1,0.7,1.8c0,0.7-0.2,1.3-0.7,1.8
			s-1.1,0.7-1.8,0.7C485.9,116.8,485.3,116.5,484.8,116L484.8,116z"/>
	</g>
</g>
<g id="freepik--Speech_Bubble_1--inject-94">
	<g>
		<g>
			<path class="st6" d="M271.3,81.5c-7.1,11.5-3.6,26.6,7.8,33.7c8.9,5.5,19.9,4.7,27.7-1.3l7.2,1.4l-1.4-7.6
				c0.1-0.1,0.2-0.2,0.2-0.3c7.1-11.5,3.6-26.6-7.8-33.7C293.6,66.6,278.5,70.1,271.3,81.5L271.3,81.5z"/>
			<path class="st9" d="M271.3,81.5c-7.1,11.5-3.6,26.6,7.8,33.7c8.9,5.5,19.9,4.7,27.7-1.3l7.2,1.4l-1.4-7.6
				c0.1-0.1,0.2-0.2,0.2-0.3c7.1-11.5,3.6-26.6-7.8-33.7C293.6,66.6,278.5,70.1,271.3,81.5L271.3,81.5z"/>
			<path class="st6" d="M269.5,79.3h-0.1c-0.1-0.1-0.2-0.2-0.1-0.3c4-7,11.7-11.7,19.7-12.1c0.1,0,0.3,0.1,0.3,0.2s-0.1,0.3-0.2,0.3
				c-7.8,0.4-15.4,5-19.3,11.8C269.7,79.3,269.6,79.3,269.5,79.3z"/>
			<path class="st6" d="M296.3,67.6L296.3,67.6c-1.2-0.3-2.4-0.4-3.6-0.3c-0.1,0-0.3-0.1-0.3-0.2s0.1-0.3,0.2-0.3
				c1.2-0.2,2.5,0,3.7,0.3c0.1,0,0.2,0.2,0.2,0.3C296.5,67.5,296.4,67.6,296.3,67.6L296.3,67.6z"/>
		</g>
		<path class="st10" d="M291.4,95.3c0.4-0.7,1-1.5,1.8-2.3c0.6-0.6,1-1.1,1.3-1.6c0.3-0.4,0.4-0.9,0.4-1.4c0-0.8-0.3-1.4-0.8-1.8
			s-1.2-0.7-2.1-0.7c-0.8,0-1.6,0.2-2.2,0.6s-1.2,1-1.6,1.7l-3.2-2.2c0.7-1.3,1.7-2.3,3-3.1c1.3-0.7,2.7-1.1,4.5-1.1
			c2,0,3.6,0.5,4.9,1.5c1.2,1,1.8,2.4,1.8,4.2c0,0.8-0.1,1.6-0.4,2.2c-0.2,0.6-0.5,1.2-0.9,1.6c-0.3,0.4-0.8,1-1.3,1.5
			c-0.6,0.7-1.1,1.3-1.4,1.7c-0.3,0.5-0.4,1-0.4,1.7h-4C290.8,96.9,291,96,291.4,95.3L291.4,95.3z M291,104.7
			c-0.5-0.5-0.7-1.1-0.7-1.8c0-0.7,0.2-1.3,0.7-1.8s1.1-0.7,1.8-0.7c0.7,0,1.3,0.2,1.8,0.7s0.7,1.1,0.7,1.8c0,0.7-0.2,1.3-0.7,1.8
			s-1.1,0.7-1.8,0.7C292.1,105.4,291.5,105.2,291,104.7L291,104.7z"/>
	</g>
</g>
<g id="freepik--Plant--inject-94">
	<g>
		<g>
			<g>
				<path class="st10" d="M607.1,423.7c0-0.6-1.9-55.8-10.9-64.6c-8.7-8.5-18.8-0.3-19.2,0l-0.9-1.1c0.1-0.1,11.4-9.3,21.1,0
					c9.4,9.1,11.2,63.2,11.3,65.5L607.1,423.7z"/>
				<path class="st10" d="M607.9,434.6c-0.1-0.7-6.1-66.4,17.8-93.9l1.1,0.9c-23.6,27.1-17.6,92.2-17.5,92.8L607.9,434.6z"/>
				<path class="st10" d="M607,427.7l-1.4-0.1c0-0.7,4.7-74.7-12.9-90.9l1-1C611.7,352.3,607.2,424.6,607,427.7L607,427.7z"/>
				<path class="st10" d="M609.3,427.6h-1.4c0-2,0.6-50,14.2-57.8c3-1.7,6-2,8.8-0.9c8.2,3.4,12.3,18.1,12.5,18.7L642,388
					c0-0.1-4.1-14.6-11.7-17.7c-2.4-1-4.9-0.7-7.6,0.8C609.9,378.5,609.3,427.1,609.3,427.6z"/>
				<path class="st10" d="M604,427.6l-1.4-0.1c0-0.4,2.1-37.9-8.1-51.1c-2.5-3.2-5.1-4.7-7.9-4.5c-6.6,0.5-12.2,10.2-12.2,10.3
					l-1.2-0.7c0.2-0.4,6-10.5,13.4-11c3.3-0.2,6.4,1.5,9.1,5.1C606.1,389.3,604.1,426.1,604,427.6z"/>
				<path class="st10" d="M606.2,432.7c-0.3-3.6-6.6-89.2,4.5-104.3l1.1,0.8c-10.8,14.7-4.3,102.5-4.3,103.4L606.2,432.7
					L606.2,432.7z"/>
			</g>
			<path class="st11" d="M635.9,373.7c0,0-7.1,2.6-4.7,8.3c6.8,15.9,23,17.6,23,17.6s7.6-12.1,1.4-21.4
				C647,365.3,636.1,369.5,635.9,373.7L635.9,373.7z"/>
			<path class="st11" d="M604.8,366.6c0,0,7.1-0.3,7.5,5.8c0.4,6.1-15.4,23.1-15.4,23.1s-11.3-4.1-8.9-19.4
				C590.5,360.8,603.1,362.8,604.8,366.6z"/>
			<path class="st11" d="M608.3,330.8c0,0-3-0.4-4.1-3.1c-3.4-8,8.2-16.7,23.6-12.1c0,0,0.4,13.6-7.9,18.9
				C611.6,339.9,608.3,330.8,608.3,330.8z"/>
			<path class="st11" d="M581.9,372.9c0,0,2.5-3.4-1.3-3.7c-3.8-0.3-20,6.9-15.7,23.6c0,0,20.9-6.8,21.6-13.8
				C587.2,372,581.9,372.9,581.9,372.9z"/>
			<path class="st11" d="M626.4,336.8c0,0,0.9-3.1,4.5-4.4c3.5-1.3,16.7-0.5,16.9,16.7c0,0-20.2,3.4-22.7-3.2
				C622.5,339.4,626.4,336.8,626.4,336.8z"/>
			<path class="st11" d="M615.5,351c0,0,1.4-2.4,4-1.1s10.3,9.1,3,18.7c0,0-13.6-8.2-12.5-13.9C610.9,349.4,615.5,351,615.5,351z"/>
			<path class="st11" d="M582.2,355.2c0,0,2-2.6-0.9-2.9s-15.7,3.1-12.7,16c0,0,15.7-1.2,16.3-6.5
				C585.6,356.4,582.2,355.2,582.2,355.2z"/>
			<polygon class="st10" points="627,462 588.7,462 584.6,422.3 631.2,422.3 			"/>
			<rect x="578.2" y="416.9" class="st10" width="59.4" height="10.9"/>
		</g>
		<path class="st12" d="M595.5,390.1c-0.1,0-0.2-0.1-0.2-0.2c-1.1-8,2.7-17.4,9.4-23.5c0.1-0.1,0.3-0.1,0.4,0c0.1,0.1,0.1,0.3,0,0.4
			c-6.6,6-10.3,15.3-9.2,23.1C595.8,390,595.7,390.1,595.5,390.1C595.6,390.1,595.5,390.1,595.5,390.1z"/>
		<path class="st12" d="M621.9,363.7c-0.1,0-0.2-0.1-0.2-0.2c-0.9-4.4-3.1-8.6-6.3-11.8c-0.1-0.1-0.1-0.3,0-0.4s0.3-0.1,0.4,0
			c3.3,3.2,5.6,7.5,6.5,12C622.1,363.5,622,363.6,621.9,363.7L621.9,363.7z"/>
		<path class="st12" d="M651.6,389.3c-0.1,0-0.2-0.1-0.2-0.1c-3.1-6.4-9.2-12.4-15.5-15.2c-0.1-0.1-0.2-0.2-0.1-0.3s0.2-0.2,0.3-0.1
			c6.4,2.8,12.6,8.9,15.8,15.4c0.1,0.1,0,0.3-0.1,0.3C651.6,389.3,651.6,389.3,651.6,389.3z"/>
		<path class="st12" d="M643.9,344.8c-0.1,0-0.2,0-0.2-0.1c-1.8-2.9-4.6-5.2-7.8-6.4c-3.4-1.3-6.3-2.2-9.5-1.3c-0.1,0-0.3,0-0.3-0.2
			c0-0.1,0-0.3,0.2-0.3c3.4-1,6.3,0,9.8,1.3c3.3,1.3,6.2,3.6,8.1,6.6c0.1,0.1,0,0.3-0.1,0.3C644,344.8,644,344.8,643.9,344.8z"/>
		<path class="st11" d="M598,339.7c0,0,4.7,0.6,5-2.3s-15.7-14.2-28.8-4.9c0,0,4,13,13.6,15.3C597.5,350.1,598,339.7,598,339.7z"/>
		<path class="st12" d="M597.9,340.1c-0.1,0-0.2,0-0.2-0.1c-4.8-6.4-16.9-8.8-21.1-7.3c-0.1,0-0.3,0-0.3-0.2c0-0.1,0-0.3,0.2-0.3
			c4.2-1.5,16.6,0.6,21.7,7.5c0.1,0.1,0.1,0.3-0.1,0.3C598,340.1,597.9,340.1,597.9,340.1z"/>
		<path class="st12" d="M571.7,363.5L571.7,363.5c-0.2-0.1-0.3-0.2-0.2-0.3c2.7-4.4,7.9-6.9,10.8-7.9c0.1,0,0.3,0,0.3,0.1
			s0,0.3-0.1,0.3c-2.8,1-7.9,3.4-10.6,7.7C571.9,363.5,571.8,363.5,571.7,363.5z"/>
		<path class="st12" d="M567.1,386.7L567.1,386.7c-0.2-0.1-0.3-0.2-0.2-0.3c3.2-6.2,8.6-11.1,15-13.9c0.1,0,0.3,0,0.3,0.1
			c0.1,0.1,0,0.3-0.1,0.3c-6.2,2.7-11.6,7.6-14.7,13.6C567.3,386.6,567.2,386.7,567.1,386.7z"/>
		<path class="st12" d="M608.9,330.7L608.9,330.7c-0.2-0.1-0.3-0.2-0.2-0.3c2.6-5.5,7.5-9.8,13.3-11.6c0.1,0,0.3,0,0.3,0.2
			c0,0.1,0,0.3-0.2,0.3c-5.6,1.8-10.5,6-13,11.4C609.1,330.7,609,330.7,608.9,330.7z"/>
		<polygon class="st12" points="585.2,427.8 585.9,434.9 629.9,434.9 630.6,427.7 		"/>
	</g>
</g>
<g id="freepik--Character_1--inject-94">
	<g>
		<g>
			<polygon class="st10" points="369.7,424.4 373.6,453 382.9,453.5 385.9,425.9 			"/>
			<path class="st10" d="M390.8,466.3H370c0,0-0.5-0.9,0.1-3.2c0.1-0.4,0.2-0.8,0.3-1.2c0,0,0,0,0-0.1c0.2-0.6,0.4-1.4,0.7-2.3
				c1-3.5,2.1-8.1,2.1-8.1s3.5-7.4,7.5-5.6c3.6,1.6,2.7,6.3,2.7,6.3s0.3,2.7,3,5.1c1.7,1.5,3.3,2.6,4.1,4.5c0.1,0.3,0.3,0.7,0.4,1.1
				v0.1C391.1,464,391.1,465.1,390.8,466.3L390.8,466.3z"/>
			<path class="st13" d="M370.1,463.1c-0.5,2.3-0.1,3.2-0.1,3.2h20.9c0.2-1.3,0.3-2.3,0.1-3.2H370.1z"/>
			<path class="st6" d="M382.5,453.4c-1.2-0.9-2.7-0.8-3.8,0.2c-0.3,0.3-0.7-0.2-0.4-0.4c1.3-1.3,3.2-1.4,4.6-0.2
				C383.3,453.2,382.8,453.6,382.5,453.4L382.5,453.4L382.5,453.4z"/>
			<path class="st6" d="M383.1,455.3c-1.2-0.9-2.7-0.8-3.8,0.2c-0.3,0.3-0.7-0.2-0.4-0.4c1.3-1.3,3.2-1.4,4.6-0.2
				C383.9,455.1,383.4,455.6,383.1,455.3L383.1,455.3L383.1,455.3z"/>
			<path class="st6" d="M383.7,457.1c-1.2-0.9-2.7-0.8-3.8,0.2c-0.3,0.3-0.7-0.2-0.4-0.4c1.3-1.3,3.2-1.4,4.6-0.2
				C384.5,456.9,384,457.4,383.7,457.1L383.7,457.1z"/>
		</g>
		<g>
			<polygon class="st10" points="330.5,422.7 326.6,451.3 317.3,451.7 314.3,424.2 			"/>
			<path class="st10" d="M309.4,464.5h20.9c0,0,0.5-0.9-0.1-3.2c-0.1-0.4-0.2-0.8-0.3-1.2c0,0,0,0,0-0.1c-0.2-0.6-0.4-1.4-0.7-2.3
				c-1-3.5-2.1-8.1-2.1-8.1s-3.5-7.4-7.5-5.6c-3.6,1.6-2.7,6.3-2.7,6.3s-0.3,2.7-3,5.1c-1.7,1.5-3.3,2.6-4.1,4.5
				c-0.1,0.3-0.3,0.7-0.4,1.1v0.1C309.1,462.2,309.2,463.3,309.4,464.5L309.4,464.5z"/>
			<path class="st13" d="M330.2,461.3c0.5,2.3,0.1,3.2,0.1,3.2h-20.9c-0.2-1.3-0.3-2.3-0.1-3.2H330.2z"/>
			<path class="st6" d="M317.7,451.6c1.2-0.9,2.7-0.8,3.8,0.2c0.3,0.3,0.7-0.2,0.4-0.4c-1.3-1.3-3.2-1.4-4.6-0.2
				C317,451.4,317.4,451.8,317.7,451.6L317.7,451.6L317.7,451.6z"/>
			<path class="st6" d="M317.1,453.5c1.2-0.9,2.7-0.8,3.8,0.2c0.3,0.3,0.7-0.2,0.4-0.4c-1.3-1.3-3.2-1.4-4.6-0.2
				C316.4,453.4,316.8,453.8,317.1,453.5L317.1,453.5z"/>
			<path class="st6" d="M316.5,455.3c1.2-0.9,2.7-0.8,3.8,0.2c0.3,0.3,0.7-0.2,0.4-0.4c-1.3-1.3-3.2-1.4-4.6-0.2
				C315.8,455.1,316.2,455.6,316.5,455.3L316.5,455.3L316.5,455.3z"/>
		</g>
		<g>
			<path class="st10" d="M390.1,236.7l-43.4,2.6l-26.5-4.6c0,0-1.8,30.3-4.1,102.3c-0.5,15.7-4.6,109-4.6,109l23.3,2.4
				c0,0,11.6-96.8,13.4-105.2c1.1-5.1,5-43.3,8.2-61.5c1.5,15.2,2.8,51.9,4,61.8c0,0,5.8,79.4,6.6,102l21.7-1.1
				c2.7-30.9,3.6-143.6,3.6-143.6l0,0C393.8,277.1,390.1,236.7,390.1,236.7L390.1,236.7z"/>
			<path class="st10" d="M390.1,236.7l-43.4,2.6l-26.5-4.6c0,0-1.8,30.3-4.1,102.3c-0.5,15.7-4.6,109-4.6,109l23.3,2.4
				c0,0,11.6-96.8,13.4-105.2c1.1-5.1,5-43.3,8.2-61.5c1.5,15.2,2.8,51.9,4,61.8c0,0,5.8,79.4,6.6,102l21.7-1.1
				c2.7-30.9,3.6-143.6,3.6-143.6l0,0C393.8,277.1,390.1,236.7,390.1,236.7L390.1,236.7z"/>
		</g>
		<g>
			<g>
				<path class="st6" d="M337.6,134.7c4-0.3,14.4-2.4,29.3-0.8c7.7,0.8,14.1,0.6,22,4.3l3.9,95.4c0.1,7.9-1.2,9-1.2,9
					s0.2,4.5,0.2,4.6c-26.1,10.1-56.3,9.4-72.9-0.9c0.4,0.1,0-3.2,0-3.2s-2.5-2.5-1.7-10.6c2.9-27,9.2-70.6,13.6-94.9
					C331,136.9,337,134.8,337.6,134.7L337.6,134.7z"/>
				<path class="st14" d="M337.6,134.7c4-0.3,14.4-2.4,29.3-0.8c7.7,0.8,14.1,0.6,22,4.3l3.9,95.4c0.1,7.9-1.2,9-1.2,9
					s0.2,4.5,0.2,4.6c-26.1,10.1-56.3,9.4-72.9-0.9c0.4,0.1,0-3.2,0-3.2s-2.5-2.5-1.7-10.6c2.9-27,9.2-70.6,13.6-94.9
					C331,136.9,337,134.8,337.6,134.7L337.6,134.7z"/>
			</g>
			<path class="st12" d="M386,143.5c-1,0-5.2,9.7-7.9,21.5c-2.7,11.8-9.6,34-9.6,34l-41.2,6.5l-2.4,19.6c0,0,55,5,61.4-1.9
				s4.7-8.2,7-20.5c2.1-10.9,3.2-38.3,2.8-45.6C395.6,146.9,387.4,143.5,386,143.5L386,143.5z"/>
		</g>
		<g>
			<path class="st15" d="M308.8,205.5c0,0-5.3,8-1.8,10s16.7,5.6,16.7,5.6v-15L308.8,205.5L308.8,205.5z"/>
			<g>
				<path class="st6" d="M388.5,138.1c-1,0-6.7,10.6-9.4,22.4s-8.3,40-8.3,40l-47,5.7v16.9c0,0,56.7,3.9,63.1-3s6.6-10.4,8.9-22.6
					c2.1-10.9,3.2-38.3,2.8-45.6C398.1,141.5,389.9,138.1,388.5,138.1L388.5,138.1z"/>
				<path class="st14" d="M388.5,138.1c-1,0-6.7,10.6-9.4,22.4s-8.3,40-8.3,40l-47,5.7v16.9c0,0,56.7,3.9,63.1-3s6.6-10.4,8.9-22.6
					c2.1-10.9,3.2-38.3,2.8-45.6C398.1,141.5,389.9,138.1,388.5,138.1L388.5,138.1z"/>
			</g>
			<path class="st12" d="M379.3,151.2c1.6-5.6,6.7-9.8,12.5-10.3c0.5,0,0.5-0.8,0-0.8c-6.1,0.5-11.6,4.9-13.2,10.8
				C378.4,151.5,379.1,151.7,379.3,151.2L379.3,151.2z"/>
		</g>
		<g>
			<path class="st15" d="M340.7,131.9c0,0,0.7,2.3,0.2,3s-1.2,0.9-1.2,0.9s1.2,1.7,0.7,2.8c0,0,1.7,1.9,0.7,3.3
				c-1,1.3-2.2,0.6-2.5,0c-0.4-0.6-1.9,3.5-3.9,2.6s-0.1-3.2,0.5-4.1l-1.9,0.3c0,0-2.8,6.3-4.9,6.6s-7.8-0.3-8.3-2.8
				c0,0,9-16.4,9.6-16.7c0.5-0.3,5.8-1.4,8.5-2c1-0.2,2.1,0.2,2.6,1.1c0.9,1.4,1.9,3.5,1.2,4.1L340.7,131.9"/>
			<path class="st12" d="M319.4,145.9c-0.5,0.7-15.1,45.9-12.7,54.2s6.1,11.3,12.1,10.2c6.1-1.2,9.2-3,10-10.7
				c0.7-7.6,5.9-50.1,2.3-52.3C329.5,146.3,319.4,145.9,319.4,145.9L319.4,145.9z"/>
			<g>
				<path class="st6" d="M317.1,144.1c-0.5,0.7-15.1,45.9-12.7,54.2s6.1,11.3,12.1,10.2c6.1-1.2,9.2-3,10-10.7
					c0.7-7.6,6.9-50.2,5.1-50.9C329.7,146.2,317.1,144.1,317.1,144.1L317.1,144.1z"/>
				<path class="st14" d="M317.1,144.1c-0.5,0.7-15.1,45.9-12.7,54.2s6.1,11.3,12.1,10.2c6.1-1.2,9.2-3,10-10.7
					c0.7-7.6,6.9-50.2,5.1-50.9C329.7,146.2,317.1,144.1,317.1,144.1L317.1,144.1z"/>
			</g>
		</g>
		<g>
			<path class="st15" d="M367.3,137.2c0,0-6.8,5.8-8.6,6.2c-2.4,0.6-9.8-7.4-9.8-7.4c2.9-3.8,1.5-6.7,0.9-11.1l18.7-18
				c0,0-1.9,0-2,0c-0.5,1.6-0.6,11.1-0.2,23.1L367.3,137.2L367.3,137.2z"/>
			<g>
				<g class="st16">
					<path class="st17" d="M359.3,124.1c-1.6,3.1-5,5.4-8.5,6.4c0-0.3-0.2-0.8-0.2-1.1c-0.1-0.5-0.3-1.2-0.4-1.8
						c-0.1-0.6-0.3-1.3-0.5-2c-0.1-0.3-0.2-0.2-0.3-0.4l-0.2-0.5l9.7-6.2C360,118.8,360.5,121.6,359.3,124.1z"/>
				</g>
				<path class="st15" d="M367.1,94.5c-0.3-12-12.8-20-23.9-14.3c-11.3,5.8-11.4,23.6-7.9,34.2c3.9,11.7,19.1,15.9,27.4,5.9
					C368.2,113.5,367.4,106.5,367.1,94.5L367.1,94.5L367.1,94.5z"/>
			</g>
			<path class="st10" d="M350.4,101.8c0.2,1.2-0.3,2.3-1.1,2.4c-0.8,0.1-1.6-0.8-1.8-2c-0.2-1.2,0.3-2.3,1.1-2.4
				C349.4,99.7,350.2,100.6,350.4,101.8z"/>
			<path class="st10" d="M338.1,103.1c0.2,1.2-0.3,2.3-1.1,2.4c-0.8,0.1-1.6-0.8-1.8-2c-0.2-1.2,0.3-2.3,1.1-2.4
				C337.1,101,337.9,101.8,338.1,103.1z"/>
			<path class="st18" d="M342.7,100.9c0,0-2.9,6.6-3.7,9.3c1.9,1.3,4.7,0.1,4.7,0.1L342.7,100.9L342.7,100.9z"/>
			<path class="st10" d="M351.7,95.4c-0.2,0.1-0.4,0.2-0.6,0.1c-2.3-0.9-4,0.1-4.2,0.2c-0.3,0.2-0.6,0.1-0.8-0.1
				c-0.2-0.3-0.1-0.6,0.1-0.8c0.1-0.1,2.3-1.5,5.3-0.4c0.3,0.1,0.4,0.5,0.3,0.7C351.8,95.3,351.7,95.4,351.7,95.4z"/>
			<path class="st10" d="M334.4,100.2c-0.1,0-0.2-0.1-0.2-0.2c-0.2-0.3-0.1-0.6,0.2-0.8c2.7-1.6,5.1-0.4,5.2-0.3
				c0.3,0.1,0.4,0.5,0.3,0.8s-0.5,0.4-0.8,0.3c-0.1-0.1-1.9-1-4.1,0.3C334.8,100.3,334.6,100.3,334.4,100.2L334.4,100.2z"/>
			<path class="st10" d="M363.6,101.7c0,0-1.8-20.3-8.2-21.1s-7.3,5.1-11.5,5.3c-4.2,0.2-4.1-2.9-4.1-2.9c-2.4,1.7-4.1,6.7-5.7,10.5
				c0,0,0.9-11.2,5.3-14.6c8.6-6.6,20.7-5.4,26.1-0.4s5.4,15.7,5.4,15.7c-0.5,8.3-1.2,12.9-4.4,18.2L363.6,101.7L363.6,101.7z"/>
			<g>
				<path class="st15" d="M372.4,102c-0.5,3.3-2.5,6.1-4.7,7.7c-3.4,2.4-5.4-1.4-5.6-5.3c-0.2-3.5,0.1-7.9,4.1-8.8
					C370,94.7,372.9,98.2,372.4,102z"/>
				<path class="st17" d="M364,103.8c-0.1,0-0.2-0.1-0.2-0.2c0-1.1,0.2-2.2,0.7-3.2c0.3-0.7,1-1.6,2-2s2.1-0.2,2.8,0.5
					c0.1,0.1,0.1,0.3,0,0.4s-0.3,0.1-0.4,0c-0.5-0.5-1.4-0.7-2.2-0.4c-0.9,0.4-1.4,1.2-1.7,1.8c-0.5,0.9-0.7,2-0.7,3
					C364.3,103.7,364.2,103.8,364,103.8L364,103.8L364,103.8z"/>
			</g>
			<path class="st10" d="M360.6,85c-0.9-2.8-2.7-5.4-5.4-6.5c-1.3-0.5-2.6-0.8-4-0.9c-3.6-0.3-1.2-1.5-4.9-1.2l-3.4,0.9
				c-2.6,1-7.4,3.8-9.6,5.5c-3.5,2.7-7.5,4.8-11.8,6c-0.7,0.2-1.6,0.5-1.7,1.3c-0.1,0.7,0.6,1.4,1.3,1.7c4.3,2.4,9.8,2.2,13.9-0.5
				c-0.9,2.7-6.2,4-4.3,4.2c6,1.3,12.6-1,16.6-5.7c0,0.8,0,1.6,0.3,2.3c0.3,0.7,1,1.3,1.8,1.3c0.6,0,1.2-0.5,1.6-1
				c1.4-1.7,2-4,2.4-6.2c2.6,2.7,6.4,12.9,9.3,15.1C367.8,94.6,361.5,87.8,360.6,85z"/>
			<path class="st10" d="M345.8,114.4c1.3-0.7,2.8-0.8,4.2-0.2c0.2,0.1,0.4,0.1,0.5-0.1s0.1-0.4-0.1-0.5c-1.6-0.7-3.4-0.7-4.9,0.2
				C345,113.9,345.4,114.6,345.8,114.4L345.8,114.4z"/>
			<path class="st10" d="M360.7,75.7c-0.3-1.2-0.8-2.5-1.5-3.5c-0.3-0.5-1-0.7-1.5-0.4c-0.5,0.3-0.7,1-0.4,1.5
				c0.3,0.5,0.6,1,0.8,1.5l-0.1-0.3c0.2,0.6,0.4,1.2,0.6,1.8c0.1,0.6,0.8,1,1.4,0.8C360.5,76.9,360.8,76.3,360.7,75.7L360.7,75.7z"
				/>
			<path class="st10" d="M361.8,78.3c0-0.1,0-0.2,0-0.3c0-0.1,0-0.3,0-0.3s0,0.2,0,0.1s0-0.1,0-0.2s0-0.2,0.1-0.3
				c0.1-0.2,0.1-0.4,0.2-0.7c0,0,0-0.1,0.1-0.1c0.1-0.2,0.1-0.1,0,0c0.1-0.1,0.1-0.2,0.1-0.3c0.1-0.2,0.2-0.4,0.3-0.6
				c0.1-0.1,0.1-0.2,0.2-0.3c0,0,0.1-0.2,0,0c-0.1,0.1,0,0,0.1-0.1c0.1-0.2,0.3-0.3,0.4-0.5c0.1-0.1,0.2-0.2,0.3-0.2l0.1-0.1
				c0.1-0.1-0.2,0.2,0,0s0.4-0.4,0.5-0.7c0.1-0.3,0-0.6-0.1-0.9c-0.3-0.5-1-0.8-1.5-0.4c-1.9,1.4-3.1,3.6-3.1,6
				c0,0.6,0.5,1.2,1.1,1.1C361.3,79.4,361.8,78.9,361.8,78.3L361.8,78.3L361.8,78.3z"/>
		</g>
	</g>
</g>
<g id="freepik--Character_2--inject-94">
	<g>
		<g>
			<path class="st10" d="M449.5,158.5c0,0,6.2,0.5,10.3,7.6c4.1,7.1,8.1,12.9,8.1,12.9l-13.3,8.8L449.5,158.5L449.5,158.5z"/>
			<path class="st19" d="M449.5,158.5c0,0,6.2,0.5,10.3,7.6c4.1,7.1,8.1,12.9,8.1,12.9l-13.3,8.8L449.5,158.5L449.5,158.5z"/>
		</g>
		<path class="st10" d="M457.2,219.5c-1.5-1-3.4-1.1-5.1-1.1c-13.3-0.1-26.6,1.1-39.7,3.7l-2.3,1.1c-1.8-1.1-4.2-0.3-5.7,1.1
			c-1.5,1.4-2.4,3.4-3.1,5.4c-6.8,16.8-13.2,33.7-17.8,51.2c-1.1,4-2,8.6,0,12.2c2.3,4.3,7.7,5.8,12.5,6.7c15.7,2.8,31.7,3,47.7,3
			c3.9,0,8-0.1,11.2-2.3c4.5-3.1,5.5-9.1,6.1-14.5c1.9-19.7,1.7-39.7-0.6-59.4C460,224,459.4,221,457.2,219.5L457.2,219.5z"/>
		<g>
			<polygon class="st20" points="442.2,454.1 453.2,455.2 461.3,427.2 444.6,425.4 			"/>
			<g>
				<path class="st10" d="M454.8,450.3h-3.9c-0.9,0-1.7,0.5-2.2,1.2c-2.3,3.1-4,1.9-6.4-1c-1.6-0.2-2,1.6-2.1,2.1l-2.9,10.7
					c-0.3,0.9,0.3,1.8,1.2,2.1c0.2,0,0.3,0.1,0.5,0.1h31.2c5,0,6-5,3.9-5.5c-9.2-2-15.7-4.7-18.5-7.4
					C454.8,452.1,455.4,451.7,454.8,450.3z"/>
				<path class="st6" d="M463.3,453.3c0.4-0.3,0.7-0.8,0.7-1.3c0-0.3-0.1-0.5-0.3-0.7c-1.2-0.9-6.2,1.4-6.7,1.7
					c-0.1,0-0.1,0.1-0.1,0.1c0,0.1,0,0.2,0.1,0.3c1.2,0.3,2.4,0.4,3.7,0.5C461.6,454,462.5,453.8,463.3,453.3L463.3,453.3z
					 M463.4,451.7c0.1,0.1,0.2,0.2,0.1,0.3c0,0.4-0.2,0.7-0.5,0.9c-1.1,0.8-3.8,0.5-5.3,0.2C459.8,452.3,462.7,451.3,463.4,451.7z"
					/>
				<path class="st6" d="M457.1,453.5c1.5-0.6,4.6-3,4.4-4.3c0-0.3-0.2-0.6-0.9-0.7c-2.7-0.3-3.9,4.5-3.9,4.7c0,0.1,0,0.2,0.1,0.2
					S456.9,453.4,457.1,453.5L457.1,453.5L457.1,453.5z M460.6,448.9c0.5,0.1,0.5,0.2,0.5,0.3c0.1,0.8-2.1,2.8-3.7,3.7
					c0.3-1.1,1.3-4,3-4H460.6L460.6,448.9z"/>
				<path class="st6" d="M454.2,455.7h-0.1c-0.1-0.1-0.2-0.2-0.1-0.3c0.8-1.2,2.1-2.1,3.5-2.3c0.1,0,0.3,0.1,0.3,0.2
					s-0.1,0.3-0.2,0.3c-1.3,0.2-2.5,0.9-3.2,2C454.3,455.7,454.3,455.7,454.2,455.7z"/>
				<path class="st6" d="M456.6,457.6h-0.1c-0.1-0.1-0.2-0.2-0.1-0.3c0.8-1.2,2.1-2.1,3.5-2.3c0.1,0,0.3,0.1,0.3,0.2
					s-0.1,0.3-0.2,0.3c-1.3,0.2-2.5,0.9-3.2,2C456.8,457.5,456.7,457.6,456.6,457.6z"/>
				<path class="st6" d="M459.7,459.1h-0.1c-0.1-0.1-0.2-0.2-0.1-0.3c0.8-1.2,2.1-2.1,3.5-2.3c0.1,0,0.3,0.1,0.3,0.2
					s-0.1,0.3-0.2,0.3c-1.3,0.2-2.5,0.9-3.2,2C459.8,459.1,459.8,459.1,459.7,459.1z"/>
			</g>
			<polygon class="st12" points="457,442 456,445.4 443,443.4 443.3,440.6 			"/>
		</g>
		<g>
			<polygon class="st20" points="403.9,455 415,456.1 423.1,428.1 406.3,426.3 			"/>
			<g>
				<path class="st10" d="M416.6,451.2h-3.9c-0.9,0-1.7,0.5-2.2,1.2c-2.3,3.1-4,1.9-6.4-1c-1.6-0.2-2,1.6-2.1,2.1l-2.9,10.7
					c-0.3,0.9,0.3,1.8,1.2,2.1c0.2,0,0.3,0.1,0.5,0.1H432c5,0,6-5,3.9-5.5c-9.2-2-15.7-4.7-18.5-7.4
					C416.6,453,417.1,452.6,416.6,451.2L416.6,451.2z"/>
				<path class="st6" d="M425.1,454.2c0.4-0.3,0.7-0.8,0.7-1.3c0-0.3-0.1-0.5-0.3-0.7c-1.2-0.9-6.2,1.4-6.7,1.7
					c-0.1,0-0.1,0.1-0.1,0.1c0,0.1,0,0.2,0.1,0.3c1.2,0.3,2.4,0.4,3.7,0.5C423.4,454.9,424.3,454.7,425.1,454.2L425.1,454.2z
					 M425.1,452.6c0.1,0.1,0.2,0.2,0.1,0.3c0,0.4-0.2,0.7-0.5,0.9c-1.1,0.8-3.8,0.5-5.3,0.2C421.6,453.2,424.5,452.1,425.1,452.6
					L425.1,452.6z"/>
				<path class="st6" d="M418.9,454.4c1.5-0.6,4.6-3,4.4-4.3c0-0.3-0.2-0.6-0.9-0.7c-2.7-0.3-3.9,4.5-3.9,4.7c0,0.1,0,0.2,0.1,0.2
					S418.7,454.3,418.9,454.4L418.9,454.4L418.9,454.4z M422.3,449.8c0.5,0.1,0.5,0.2,0.5,0.3c0.1,0.8-2.1,2.8-3.7,3.7
					c0.3-1.1,1.3-4,3-4H422.3z"/>
				<path class="st6" d="M415.9,456.6h-0.1c-0.1-0.1-0.2-0.2-0.1-0.3c0.8-1.2,2.1-2.1,3.5-2.3c0.1,0,0.3,0.1,0.3,0.2
					s-0.1,0.3-0.2,0.3c-1.3,0.2-2.5,0.9-3.2,2C416.1,456.6,416,456.6,415.9,456.6z"/>
				<path class="st6" d="M418.4,458.5h-0.1c-0.1-0.1-0.2-0.2-0.1-0.3c0.8-1.2,2.1-2.1,3.5-2.3c0.1,0,0.3,0.1,0.3,0.2
					s-0.1,0.3-0.2,0.3c-1.3,0.2-2.5,0.9-3.2,2C418.6,458.4,418.5,458.5,418.4,458.5z"/>
				<path class="st6" d="M421.4,460h-0.1c-0.1-0.1-0.2-0.2-0.1-0.3c0.8-1.2,2.1-2.1,3.5-2.3c0.1,0,0.3,0.1,0.3,0.2s-0.1,0.3-0.2,0.3
					c-1.3,0.2-2.5,0.9-3.2,2C421.6,460,421.5,460,421.4,460z"/>
			</g>
			<polyline class="st12" points="404.8,444.3 405.1,441.5 418.8,442.9 417.8,446.3 			"/>
		</g>
		<path class="st21" d="M463.2,242.1c0,0-8.1,8.6-24,8.7c-15.9,0.1-33.7-9.1-33.7-9.1l2-3.4l45.7,5l8.8-5L463.2,242.1z"/>
		<g>
			<g>
				<path class="st22" d="M464.6,247c0,0,9.7,39.5,14,74.7c1.3,10.7,1.6,25.1-0.8,35.6l-17.6,87.6l-22.2-2.2
					c3.5-37.8,8.3-84.4,9.7-104.2l-25.5-79.3L464.6,247L464.6,247z"/>
				<path class="st21" d="M435.9,301.8c-0.1,0.4,11-44.8,11-44.8s3,36.9-8.1,54.5L435.9,301.8L435.9,301.8z"/>
				<path class="st22" d="M403.6,349.5c0.2-2.2,0.4-6.7,0.6-12.7h-0.1c-0.3-7.8-3.7-43.5-4.3-66.6c-0.1-14.7,2.3-25,5.4-30.3
					c0.2-0.3,0.3-0.5,0.4-0.7c0.5-0.9,0.8-1.3,0.8-1.3c0.7,0.1,1.5,0.2,2.2,0.2c0.3,0,0.5,0,0.8,0.1c27,2,46.8-8.7,46.8-8.7
					c3.2,5.7,4.8,4.5,8.3,17.5c-2.3,3.4-9.6,23.2-23,27.7l-1.6,18.4c-0.6,11.3-1.8,22.6-2.8,32.6l-0.9,11c-0.1,0.7-0.1,1.4-0.1,2.1
					c-0.4,6.3-15.8,109.3-15.8,109.3l-20.6-0.3C399.8,447.8,400.7,379.7,403.6,349.5L403.6,349.5z"/>
			</g>
			<polygon class="st21" points="461.3,439.2 460.2,444.9 438,442.7 438.6,436.5 			"/>
			<polygon class="st21" points="420.3,448.1 421.2,442.2 399.8,442 399.8,447.8 			"/>
		</g>
		<g>
			<path class="st10" d="M401.1,187.9l-6.9-23.5c4.4-6.5,26-11.5,26-11.5l14.2,0.8c0,0,5.5,1.2,10.1,2.7c6.2,2,9.6,3.7,11.1,7.1
				c0,0,2.6,7.7,1,23.5c-0.4,4.4-1.4,27.3-0.2,34.8l8.8,17.3c-26,20.2-59.3,0-59.3,0c1.2-3.6,3.7-11.5,4.3-15
				c-0.4-4.5-1.6-7.4-3.5-15.2C406.4,207.4,401.7,189.3,401.1,187.9L401.1,187.9z"/>
			<path class="st19" d="M401.1,187.9l-6.9-23.5c4.4-6.5,26-11.5,26-11.5l14.2,0.8c0,0,5.5,1.2,10.1,2.7c6.2,2,9.6,3.7,11.1,7.1
				c0,0,2.6,7.7,1,23.5c-0.4,4.4-1.4,27.3-0.2,34.8l8.8,17.3c-26,20.2-59.3,0-59.3,0c1.2-3.6,3.7-11.5,4.3-15
				c-0.4-4.5-1.6-7.4-3.5-15.2C406.4,207.4,401.7,189.3,401.1,187.9L401.1,187.9z"/>
			<polygon class="st21" points="403.8,196.3 405,196.3 408.8,185 407.2,210.6 403.6,197.2 			"/>
		</g>
		<g>
			<path class="st10" d="M431,228.4c-6.4-4.4-14.4-6.5-22.2-5.8l-3.8,10c10.6,9.6,23.7,10.9,38,10.4
				C445,235.7,437.5,232.8,431,228.4z"/>
			<path class="st10" d="M461,222c-1.1-2-3.2-3.5-5.4-3.2c-1.6,0.3-2.9,1.5-4.1,2.7c-4.5,4.8-8,10.6-10.1,16.8l0.8,4.8
				c1.5-0.6,3-1.2,4.4-1.8c4.2-1.7,8.5-3.5,11.7-6.8S463.1,226,461,222z"/>
			<path class="st10" d="M449.3,239.1c0,3.3-2.7,6-6,6s-6-2.7-6-6s2.7-6,6-6S449.3,235.8,449.3,239.1z"/>
			<path class="st10" d="M445.9,262.7c-0.5-7.1-1-14.3-1.5-21.4l-2.8,1.8c-8.8,12.8-12.6,28.9-10.6,44.2c3.7,0.6,7.5,0.9,11.3,0.7
				c-1.1-2.3-2.1-4.5-3.2-6.8c3.3-1.3,5.5-4.6,6.3-8C446.4,269.9,446.2,266.3,445.9,262.7L445.9,262.7z"/>
			<path class="st10" d="M458.1,270.3c1.6-2.2,1.9-5.1,1.7-7.7c-0.5-8.6-5.5-16.7-12.8-21.2l-1.2-0.9c4.3,12.9,3.4,26.8,2.6,40.4
				c2.9-0.6,5.7-1.2,8.6-1.7c-0.9-1.8-1.8-3.8-1.1-5.7C456.3,272.2,457.3,271.3,458.1,270.3L458.1,270.3z"/>
		</g>
		<g>
			<g>
				<path class="st10" d="M435.5,111.7c0,0,2.4,26.1,3.7,33.6c4.1,4.9,20.3,1.4,14-15.9c-3.4-9.1-3.6-20.6-10-25.3
					C434.3,97.5,435.5,111.7,435.5,111.7L435.5,111.7z"/>
				<g>
					<g>
						<path class="st20" d="M433.3,154.9c-1.5-1.5-2.2-3-1.9-5.2c0.2-1.7,0.7-3.4,1.4-5.1l-2.2-2.4l-11.5-10.8
							c0.6,7.5,1.9,19.5-3.8,23.8l18.1,14.6L433.3,154.9L433.3,154.9z"/>
						<path class="st21" d="M431.4,150.2c-3.1-1.7-6.6-4.7-6.3-8.4c0.1-1.5,0.4-3,0.7-3.9l6.5,8.1
							C431.9,147.3,431.7,148.2,431.4,150.2z"/>
						<path class="st20" d="M416,119.4c1.5,11.4,1.8,16.3,8,22c9.2,8.7,22.8,5.2,24.7-6.3c1.7-10.3-0.9-27.2-12.3-31.6
							C425.1,99.3,414.6,108,416,119.4z"/>
						<path class="st21" d="M441.1,145.2c-9-4.1-12.6-3-11.9-0.7c0.3,1,4.4,1.7,4.4,1.7s0.9,0.1,1.3,0.1s0.6,0.2,0.6,0.3
							C435.2,146.9,440.8,145.6,441.1,145.2L441.1,145.2z"/>
						<path class="st12" d="M446.7,140.5c0,0-0.4-0.6-1.2-0.3s-2.5,1.6-2.5,4c0,0,0.9-0.6,2-1.6C445.7,142,446.7,140.5,446.7,140.5z
							"/>
						<path class="st10" d="M431.6,123.5c0,1.1,0.6,2,1.4,2c0.8,0.1,1.4-0.8,1.3-1.9s-0.6-2-1.4-2
							C432.2,121.6,431.6,122.4,431.6,123.5L431.6,123.5z"/>
						<path class="st10" d="M443.2,122.5c-0.1,1,0.5,2,1.3,2.1c0.7,0.1,1.4-0.7,1.4-1.7c0.1-1-0.5-2-1.3-2.1
							C443.9,120.6,443.3,121.4,443.2,122.5z"/>
						<path class="st10" d="M429.9,121.7c0.1,0,0.3,0,0.4-0.1c1.7-1.7,3.7-1.2,3.7-1.2c0.3,0.1,0.6-0.1,0.6-0.4
							c0.1-0.3-0.1-0.6-0.5-0.7c-0.1,0-2.6-0.6-4.7,1.5c-0.2,0.2-0.2,0.6,0,0.8C429.6,121.6,429.7,121.7,429.9,121.7L429.9,121.7z"
							/>
						<path class="st10" d="M447.9,116.1c0.1,0,0.2-0.1,0.3-0.3c0.1-0.3,0-0.6-0.3-0.7c-2.9-1.4-5.1-0.2-5.2-0.1
							c-0.3,0.1-0.3,0.5-0.2,0.7c0.2,0.3,0.5,0.4,0.8,0.2c0.1,0,1.8-1,4.1,0.1C447.6,116.2,447.7,116.2,447.9,116.1L447.9,116.1z"/>
						<path class="st10" d="M425.1,100.8c-3.9,0.6-6.4,1.2-9.5,3.1s-6.4,6.7-8.2,10.3c-2.6,5.1-2.8,11.4-2.9,17.4
							c-0.1,3.9-0.1,8.2,1.9,11.3c1.3,2.1,3.4,3.3,5.6,3.9c2.1,0.6,4.4,0.5,6.6,0.5c1.8-0.1,4-0.4,4.7-2.5c1.1-3.2-2.9-6.1-2.4-9.5"
							/>
						<path class="st20" d="M412.9,128.9c1.4,2.3,3.7,3.7,5.7,4.1c3.1,0.6,4.4-4.3,3.3-7.3c-1-2.7-4.1-4.4-7-3.7
							C412.1,122.7,411.3,126.3,412.9,128.9z"/>
						<path class="st23" d="M439.2,121.7c0,0,1.9,4.2,4.1,6.8c0.4,0.5,0.2,1.1-0.4,1.4c-1.4,0.6-3.1,0.2-3.1,0.2L439.2,121.7
							L439.2,121.7z"/>
					</g>
					<path class="st10" d="M432.7,121.6l2.7-0.5C435.3,121.1,433.8,123,432.7,121.6z"/>
					<path class="st10" d="M444.4,120.7l2.7-0.3C447.1,120.4,445.4,122.2,444.4,120.7z"/>
				</g>
				<path class="st10" d="M413,113.2c-1.6,2.2,1.5,8.8,1.5,8.8s5.5-1.6,5.8,6.6c2,0.3,4.3-7.4,4-15.1
					C423.8,109,415.7,109.2,413,113.2z"/>
				<path class="st21" d="M418,130.1C417.9,130.1,417.9,130.1,418,130.1c-1.9-0.4-2.7-1.4-3.1-2.1c-0.4-0.9-0.4-1.7-0.2-2.1
					c0.4-0.9,1.5-1.6,2.6-1.2c0.1,0,0.2,0.2,0.1,0.3s-0.2,0.2-0.3,0.1c-0.8-0.3-1.7,0.2-2,0.9c-0.1,0.3-0.2,1,0.2,1.7
					c0.3,0.6,1.1,1.5,2.7,1.9c0.1,0,0.2,0.2,0.2,0.3C418.2,130.1,418.1,130.1,418,130.1L418,130.1z"/>
			</g>
			<path class="st10" d="M445.3,106.8c-2.4-5-12.3-9.7-23.6-4.8c-10.2,4.4-14.6,19.4-7.2,20s19.3-8.4,19.3-8.4L445.3,106.8z"/>
		</g>
		<g>
			<path class="st20" d="M460.2,196.3l11.5,0.3l2.6,5.9l-5.9,7.5c0,0-1.4-0.1-1-2.1c0.4-1.5,1.2-2.7,1.2-2.7l-7.9,2.4
				c-1.5,0.4-3-0.6-3.1-2.2l-0.4-9.1L460.2,196.3L460.2,196.3z"/>
			<path class="st20" d="M392.7,175.3c0,0-0.4,5.7,1.9,12.8c2.3,7.2,8.1,26.2,15,31.5s24.2-2.6,34.6-7.1c10.3-4.5,15.8-6.7,16-6.7
				l-2.9-9.5l-37.8,5.5l-16.2-34.6C403.2,167.2,391.5,167.1,392.7,175.3L392.7,175.3z"/>
			<path class="st21" d="M453.5,195.6c0,0,2.7,7,6.1,8.2s12,1.5,12.8-6.6L453.5,195.6z"/>
		</g>
		<g>
			<path class="st10" d="M394.2,164.3c-7.1,6.9,0.8,33.4,0.8,33.4l22.7-6c0,0-5.4-20-10.8-25.1C402.3,162.5,398.1,160.5,394.2,164.3
				L394.2,164.3z"/>
			<g class="st24">
				<path class="st3" d="M394.2,164.3c-7.1,6.9,0.8,33.4,0.8,33.4l22.7-6c0,0-5.4-20-10.8-25.1C402.3,162.5,398.1,160.5,394.2,164.3
					L394.2,164.3z"/>
			</g>
		</g>
		<path class="st10" d="M437.9,133.9c0.9,0,1.8,0,2.6,0.1c0.4,0,0.9,0.1,1.3,0.2c0.3,0,0.8,0,0.9,0.3c0.3,0.4,0.9,0,0.6-0.4
			c-0.2-0.3-0.5-0.5-0.9-0.6c-0.5-0.1-1-0.2-1.5-0.3c-1-0.1-2-0.2-3-0.1C437.5,133.1,437.5,133.9,437.9,133.9L437.9,133.9
			L437.9,133.9z"/>
		<g>
			<path class="st21" d="M431.4,150.8c0,0-1.2,0.4-0.9,1.7c0.3,1.3,0.7,1.5,0.7,1.5s-1.3,1.4,0.2,3c0,0,0.8,0.9,2.4,0.6
				c0,0,3.5,5.8,6.3,6.1l0.9,0.2l8.1,17l-8.6-30.5L431.4,150.8L431.4,150.8z"/>
			<path class="st20" d="M448.8,156c0,0-0.2-8.3-0.8-9.6c-0.6-1.4-1.4-1.8-1.4-3.3s0.3-2.7-0.6-2.5s-1.7,1.8-1.9,3
				c-0.2,1.2,0.3,4.3,0.3,4.3s-6.5-3.9-9.1-4.5c-2.2-0.5-4.7-0.9-5.6,0.1c-0.4,0.4-0.2,1.1,0.3,1.4c0.4,0.2,1,0.5,2.1,0.7
				c3.6,0.9,4.8,1.6,4.8,1.6s-3.5-0.2-4.4,0.5c-0.9,0.6-0.9,1.1-0.6,1.8c0.2,0.7,0.8,1.2,0.8,1.2s-1.1-0.4-1.6,1.1
				c-0.4,1.5,0.7,2,0.7,2s-1.1,1-0.5,2.4c0.6,1.3,2.5,0.9,2.5,0.9s4.9,5.9,6.8,6.1c1.9,0.1,4.3-1.2,4.1-1.2c-0.2,0,4.3-5.2,4.3-5.2
				L448.8,156L448.8,156z"/>
			<path class="st20" d="M441.3,162.6c0,0,9.1,27.7,12.6,33.7s9.3,7.9,14.9,5.4c1.3-0.6,2.4-2.1,3.3-3.9c2.5-5.5,0.8-9-2.1-14.4
				l-2.3-4.3l-4.7,3.1l-14.3-26.7L441.3,162.6L441.3,162.6z"/>
		</g>
	</g>
</g>
</svg>
