<?xml version="1.0" encoding="utf-8"?>
<!-- Generator: Adobe Illustrator 25.3.0, SVG Export Plug-In . SVG Version: 6.00 Build 0)  -->
<svg version="1.1" xmlns="http://www.w3.org/2000/svg" xmlns:xlink="http://www.w3.org/1999/xlink" x="0px" y="0px"
	 viewBox="0 0 500 500" style="enable-background:new 0 0 500 500;" xml:space="preserve">
<style type="text/css">
	.st0{fill:#FFFFFF;}
	.st1{fill:#FF8383;}
	.st2{fill:#FFC24D;}
	.st3{fill:#C9C5BA;}
	.st4{clip-path:url(#SVGID_2_);fill:#A6A6A6;}
	.st5{fill:#3B325A;}
	.st6{fill:#FFAFAF;}
	.st7{fill:#263238;}
	.st8{fill:#FF7979;}
	.st9{fill:#7D98B3;}
	.st10{fill:#ACCBE1;}
	.st11{opacity:0.31;clip-path:url(#SVGID_4_);fill:#263238;}
</style>
<g id="BACKGROUND">
	<rect class="st0" width="500" height="500"/>
</g>
<g id="OBJECTS">
	<g>
		<path class="st1" d="M213.9,170.7l21.7,16.9l-9.9,28c-58.2-32.3-80.4-61.7-88.7-81.4c-0.4-1-0.7-1.9-1.1-2.8
			c-0.2-0.6-0.5-1.3-0.7-1.9c0-0.2-0.1-0.3-0.1-0.4c-1.4-4.6-2.2-9.4-2.3-14.5c0-2,0.1-3.9,0.3-5.8c2.5-25.1,23.6-44.8,49.4-45.2
			c17.1-0.2,32.3,8.2,41.6,21.1l-17.6,33.2l25.4,22.3L213.9,170.7z"/>
		<polygon class="st2" points="241.3,0 292.8,0 254.8,78.9 278.6,78.9 247.4,150.1 263,150.1 241.3,228.2 247.4,166 227.2,166 
			243.5,99.1 227.2,99.1 		"/>
		<path class="st1" d="M374.7,132.4c-0.1,0.4-0.2,0.7-0.3,1l0,0.2c-0.3,1.3-0.7,2.5-1.1,3.7c-0.3,0.8-0.5,1.6-0.9,2.4
			c-19.7,50-110.5,70.8-110.5,70.8l16.4-24.7L261.4,164l24.8-25L267,111.1l25.2-27.9c11.9-10.6,28.6-15.4,45.2-11.4
			c25.1,6,41.3,29.9,38.2,54.9c0,0,0,0,0,0c-0.1,1-0.3,1.9-0.4,2.8C375.1,130.5,374.9,131.4,374.7,132.4z"/>
	</g>
	<g>
		<g>
			<path class="st3" d="M419.1,335.8c-2.2,8.7-6.7,20.6-16,23.1c-0.3,0.1-0.6,0.2-0.9,0.2l0.2,0.8c0.2-0.2,0.5-0.3,0.7-0.5l0.4,54.4
				c4.6,3.9,0.9,7.8,0.9,7.8c-0.8,0.1-1.5,0.3-2.2,0.4c-56.5,9.9-107.1-3.7-120.6-7.8c-2.3-0.7-3.5-1.1-3.5-1.1
				c-2.1-7.2,4.2-6.1,4.2-6.1l17.9-63.6c-2.8-3.2,2.2-9.9,2.2-9.9c-2.2-5,3.1-7.7,3.1-7.7s-3.6-32.9-3.1-86.4
				c0.6-53.5,33.7-76.5,33.7-76.5l10.8-15.2c1.2,0.9,2.5,2.2,3.7,3.8c9.1,11.6,18.4,38.7,18.7,39.7c0,0,0,0,0,0l4.5-4.7
				c0,0,14.6,16.1,16.2,27.7c1.6,11.4,0.6,37.6,0.5,38.3c0,0,0,0,0,0c3.4,11.7,7,23.2,10.6,32.3c2.4,6.1,4.9,11.1,7.3,14.3l0.3-19
				C421.9,289.4,421.8,324.8,419.1,335.8z"/>
			<g>
				<defs>
					<path id="SVGID_1_" d="M419.1,335.8c-2.2,8.7-6.7,20.6-16,23.1c-0.3,0.1-0.6,0.2-0.9,0.2l0.2,0.8c0.2-0.2,0.5-0.3,0.7-0.5
						l0.4,54.4c4.6,3.9,0.9,7.8,0.9,7.8c-0.8,0.1-1.5,0.3-2.2,0.4c-56.5,9.9-107.1-3.7-120.6-7.8c-2.3-0.7-3.5-1.1-3.5-1.1
						c-2.1-7.2,4.2-6.1,4.2-6.1l17.9-63.6c-2.8-3.2,2.2-9.9,2.2-9.9c-2.2-5,3.1-7.7,3.1-7.7s-3.6-32.9-3.1-86.4
						c0.6-53.5,33.7-76.5,33.7-76.5l10.8-15.2c1.2,0.9,2.5,2.2,3.7,3.8c9.1,11.6,18.4,38.7,18.7,39.7c0,0,0,0,0,0l4.5-4.7
						c0,0,14.6,16.1,16.2,27.7c1.6,11.4,0.6,37.6,0.5,38.3c0,0,0,0,0,0c3.4,11.7,7,23.2,10.6,32.3c2.4,6.1,4.9,11.1,7.3,14.3l0.3-19
						C421.9,289.4,421.8,324.8,419.1,335.8z"/>
				</defs>
				<clipPath id="SVGID_2_">
					<use xlink:href="#SVGID_1_"  style="overflow:visible;"/>
				</clipPath>
				<path class="st4" d="M397.6,198.4c-26.8-1.3-53.7-1.9-80.5-1.7c-7.6,0.1-15.2,0.2-22.8,0.4c-2.6,0.1-2.3,4.2,0.4,4.1
					c26.5-0.6,53.1-0.5,79.7,0.4c7.5,0.2,15.1,0.6,22.6,0.9c1.1,0.1,2.2-0.5,2.4-1.6C399.5,199.9,398.7,198.5,397.6,198.4z"/>
				<path class="st4" d="M403.5,217.4c-28.8,4.9-57.5,10.3-86.1,16.3c-8.1,1.7-16.1,3.4-24.2,5.2c-1.1,0.2-2,1-1.9,2.2
					c0.1,1,1.1,2.1,2.2,1.9c28.5-6.3,57.2-12.1,85.9-17.3c8.1-1.5,16.2-2.9,24.3-4.3C406.4,221.1,406.1,217,403.5,217.4z"/>
				<path class="st4" d="M414.6,255.8c-33.2,0.7-66.4,1.3-99.6,2c-9.3,0.2-18.6,0.4-28,0.6c-2.6,0.1-2.3,4.1,0.4,4.1
					c33.2-0.7,66.4-1.3,99.6-2c9.3-0.2,18.6-0.4,28-0.6C417.6,259.8,417.2,255.7,414.6,255.8z"/>
				<path class="st4" d="M431.7,266.6c-37.2,4-74.3,9.4-111.1,16.3c-10.4,1.9-20.7,4-31,6.2c-2.6,0.5-2.2,4.6,0.4,4.1
					c36.6-7.7,73.6-14,110.7-18.8c10.4-1.3,20.9-2.6,31.4-3.7C434.7,270.4,434.4,266.3,431.7,266.6z"/>
				<path class="st4" d="M439.1,302.1c-37.7-2-75.4-2.4-113.1-1.1c-10.7,0.4-21.4,0.8-32,1.5c-2.6,0.2-2.3,4.2,0.4,4.1
					c37.4-2.2,74.8-2.7,112.2-1.7c10.6,0.3,21.2,0.7,31.8,1.3C441,306.3,441.8,302.3,439.1,302.1z"/>
				<path class="st4" d="M438.7,326.5c-41.3,5.7-82.9,9.6-124.5,11.8c-11.7,0.6-23.4,1.1-35.1,1.4c-2.6,0.1-2.3,4.2,0.4,4.1
					c41.7-1.2,83.3-4.2,124.8-8.9c11.6-1.3,23.3-2.8,34.9-4.4C441.7,330.3,441.3,326.2,438.7,326.5z"/>
				<path class="st4" d="M440.3,371.6c-43.2-3.2-86.3-7.3-129.3-12.3c-12.2-1.4-24.3-2.9-36.4-4.4c-2.6-0.3-3.4,3.7-0.7,4
					c42.9,5.4,86,10,129.1,13.7c12.2,1.1,24.4,2,36.6,3C442.1,375.9,442.9,371.8,440.3,371.6z"/>
				<path class="st4" d="M412.2,400.5c-36.8-4-73.6-7.8-110.5-11.2c-10.4-1-20.8-1.9-31.2-2.9c-2.6-0.2-3.4,3.8-0.7,4
					c36.9,3.3,73.7,6.9,110.6,10.7c10.4,1.1,20.8,2.2,31.2,3.4C414.1,404.9,414.8,400.8,412.2,400.5z"/>
			</g>
			<path class="st5" d="M408.6,280.3l-0.3,19c-2.4-3.2-4.8-8.2-7.3-14.3c0,0,1.8-2.8,3-6.6C405.8,278.7,407.3,279.3,408.6,280.3z"/>
			<path class="st6" d="M404.1,278.4c-1.2,3.8-3,6.6-3,6.6c-3.6-9.1-7.2-20.6-10.6-32.3c0,0,0,0,0,0c3.1,2.6,8.7,7.7,12.6,12.9
				C405.9,269.4,405.3,274.4,404.1,278.4z"/>
			<path class="st5" d="M403.1,358.9v0.5c-34.3,24.8-63.4-74.9-74.6-120.5c12.6,40.3,45.5,109.4,60.9,117.6
				C394.8,359.5,399.3,360,403.1,358.9z"/>
			<path class="st5" d="M389.7,247c-4.1-12.7-5.6-26.4-12.7-37.9c-3-4.8-6.8-9.1-11.7-12.1c-5.5-3.3-12.1-4.5-18.4-3.3
				c-6.6,1.3-12.6,5.2-16.4,10.8c-0.5,0.7,0.5,1.6,1,0.9c3.3-4.8,8.1-8.3,13.7-9.9c6.1-1.7,12.8-0.9,18.4,2.2
				c10.3,5.6,15.6,17,18.8,27.8c2.2,7.3,3.6,14.7,6,22C388.7,248.3,390,247.8,389.7,247z"/>
			<path class="st5" d="M359,177.9c-2.7-5.8-5.6-11.4-8.7-17c-0.4-0.8-1.5,0-1.1,0.8c3,5.5,5.8,11,8.5,16.7
				C358.1,179.2,359.4,178.7,359,177.9z"/>
			<path class="st5" d="M354.6,175.7c-3-3.6-6.2-7.1-9.6-10.2c-0.6-0.6-1.5,0.5-0.9,1c3.4,3.1,6.5,6.4,9.4,10
				C354,177.1,355.2,176.4,354.6,175.7z"/>
			<path class="st5" d="M406.2,303.5c-0.2,4.1-0.5,8.2-0.7,12.4c-0.1,0.9,1.3,1.1,1.3,0.2l0.7-12.4
				C407.6,302.8,406.3,302.6,406.2,303.5z"/>
			<path class="st5" d="M410.8,305c-0.2-0.9-1.5-0.7-1.4,0.1c0.7,3.6,1.2,7.2,1.4,10.9c0,0.9,1.4,0.8,1.4-0.1
				C412,312.2,411.5,308.6,410.8,305z"/>
			<path class="st5" d="M316.5,335.7c-2.7-1.7-5.4-3.3-8.1-5c-0.3-0.2-0.8,0-0.9,0.3c-0.2,0.4,0,0.7,0.3,0.9c2.7,1.7,5.4,3.3,8.1,5
				c0.3,0.2,0.8,0,0.9-0.3C317,336.2,316.8,335.9,316.5,335.7z"/>
			<path class="st5" d="M314,339.3c-2.4-1.1-4.8-2.2-7.2-3.2c-0.8-0.4-1.4,0.9-0.6,1.2c2.4,1.1,4.8,2.2,7.2,3.2
				C314.2,340.9,314.8,339.7,314,339.3z"/>
			<path class="st5" d="M397.2,414.8c-14.5,1.2-29.1,1.6-43.7,1.1c-14.7-0.5-29.3-1.8-43.8-4c-8.1-1.2-16.2-2.7-24.3-4.5
				c-0.9-0.2-1.1,1.2-0.2,1.3c14.3,3.1,28.9,5.5,43.5,6.9c14.6,1.4,29.2,2.1,43.8,1.8c8.3-0.1,16.6-0.5,24.8-1.2
				C398.2,416,398.1,414.7,397.2,414.8z"/>
			<path class="st0" d="M477,130.2c-0.3-0.8-1.6-0.3-1.3,0.5c0.9,2.3,0.2,5.1-1.7,6.6c-0.7,0.5,0.1,1.7,0.8,1.1
				C477.2,136.5,478.2,133,477,130.2z"/>
		</g>
		<g>
			<path class="st7" d="M405.5,136.2c1.6-2.3,3-4.8,3.5-7.5c0.6-3.4-0.6-7.4-3.7-8.9c-2.5-1.2-5.4-0.5-7.8,0.8
				c-4.4,2.5-7.3,7.2-7.5,12.2c-10.6,0.7-19.9,3.4-26.3,11.8c1.2-4.6-5.6-5.4-5.6-10.2c0-4.7,5.4-7.4,7.5-11.6
				c2.4-4.5,0.7-10-0.2-15.1c-1.3-8.3,0.3-17.4,6-23.6c5.7-6.2,15.8-8.5,22.8-3.9c1.7-6.6,9.9-9.6,16.5-7.8
				c6.6,1.7,11.6,6.8,16.2,11.8c4.5,5,9.1,10.4,15.3,13.1c5.4,2.4,12.1,2.8,15.7,7.4c3,3.7,3.1,9.1,6.1,12.8c3.2,4,8.8,5,12.7,8.2
				c2.6,2.1,4.4,5.3,4.5,8.6c0.1,3.3-1.8,6.8-4.9,8.1c-3.8,1.6-8.2-0.2-12.4,0.4c-5,0.6-9.3,4.6-14.3,4.5c-0.7,0-1.3-0.1-1.9-0.2
				c-6.7-1.5-10.9-9.9-17.7-12.1c-3.7-1.2-7.8-0.4-11.1,1.5c-3.3,1.9-5.9,5-7.9,8.3c-2.2,3.8-3.7,8.4-2.1,12.5
				c1.7,4.3,6.2,6.7,10,9.3c3.3,2.2,6.6,5.5,6.9,9.3c-3,5.2-6.7,10-11.4,13.6c-5.1,3.8-11.5,6-17.8,5.1c-6.3-0.9-12.1-5.2-14-11.3
				c-0.5-1.6-0.7-3.2-0.6-4.8c0-0.2,0-0.4,0-0.5c0.2-4.4,1.9-8.8,3.8-12.8C390.9,154.5,397.5,144.7,405.5,136.2z"/>
			<path class="st6" d="M447.7,147.1l-8.8,11.5l-12.5,16.3c-0.2,0.3-0.4,0.6-0.5,0.9c-0.3-3.8-3.6-7.1-6.9-9.3
				c-3.8-2.6-8.3-4.9-10-9.3c-1.6-4.1-0.1-8.8,2.1-12.5c2-3.3,4.5-6.3,7.9-8.3c3.3-1.9,7.4-2.7,11.1-1.5
				C436.9,137.2,441,145.5,447.7,147.1z"/>
			<path class="st8" d="M426.4,174.9l12.5-16.3c0,0-1.1,12.6-4.3,20L426.4,174.9z"/>
			<path class="st6" d="M390,132.8c0.3-5,3.2-9.8,7.5-12.2c2.4-1.3,5.3-2,7.8-0.8c3.1,1.5,4.4,5.5,3.7,8.9c-0.5,2.8-1.9,5.2-3.5,7.5
				c-8,8.6-14.7,18.3-19.7,28.9c-1.9,4-3.6,8.4-3.8,12.8l-0.2,0.3c-5.3-6.4-6.6-12.1-6.6-12.1c-3.3,10.2-1.4,20.6-1.4,20.6l-4.5,4.7
				c0,0,0,0,0,0c-0.3-1-9.6-28.1-18.7-39.7l13.1-6.8C370.1,136.2,379.4,133.5,390,132.8z"/>
			<path class="st5" d="M381.8,178.2l-8,8.4c0,0-1.9-10.3,1.4-20.6C375.2,166,376.5,171.8,381.8,178.2z"/>
			<path class="st5" d="M404.7,172.6c-0.3-0.3-0.5-0.6-0.8-1c-0.1-0.1-0.3-0.2-0.4-0.3c-0.1,0-0.2,0-0.3,0c-0.1,0-0.2,0-0.2,0.1
				c-0.1,0.1-0.3,0.3-0.3,0.4c0,0.2,0,0.4,0.1,0.5c0.3,0.3,0.5,0.6,0.8,1c0.1,0.1,0.3,0.2,0.4,0.3c0.1,0,0.2,0,0.3,0
				c0.1,0,0.2,0,0.2-0.1c0.1-0.1,0.3-0.3,0.3-0.4C404.8,173,404.8,172.8,404.7,172.6z"/>
			<path class="st0" d="M369.1,125.2c-1.4,1.8-2.8,3.6-4.2,5.4c-1.1,1.5-2.7,3.3-1.6,5.3c0.4,0.8,1.5,0,1.1-0.8
				c-0.4-0.7,0.1-1.5,0.4-2.1c0.5-0.8,1.1-1.5,1.7-2.3c1.2-1.6,2.4-3.1,3.6-4.7C370.6,125.4,369.6,124.5,369.1,125.2z"/>
			<path class="st0" d="M371.7,117.1c-0.2-0.3-0.5-0.5-0.9-0.4c-0.3,0.1-0.6,0.5-0.4,0.9c0.6,1.4,0.7,3.1,0.1,4.5
				c-0.1,0.3,0,0.7,0.3,0.9c0.3,0.2,0.8,0,0.9-0.3C372.5,120.9,372.5,118.8,371.7,117.1z"/>
			<path class="st0" d="M374.3,120.9c-0.4,0-0.6,0.4-0.6,0.7c0,0.7,0,1.4-0.2,2.2c-0.1,0.3-0.2,0.6-0.3,1c-0.1,0.3-0.3,0.7-0.5,1
				c-0.2,0.3-0.2,0.7,0.1,1c0.3,0.2,0.8,0.2,1-0.1c1-1.5,1.5-3.3,1.4-5.1C375.1,121.2,374.7,120.9,374.3,120.9z"/>
			<path class="st0" d="M417.6,81.4c-2.8-3.3-7.2-5-11.5-4.4c-0.9,0.1-0.8,1.5,0.1,1.4c3.8-0.5,7.8,0.9,10.3,3.8
				C417,82.9,418.1,82.1,417.6,81.4z"/>
			<path class="st0" d="M423.5,88.5c-1-1.5-2-3-3.1-4.6c-0.2-0.3-0.7-0.4-1-0.2c-0.3,0.2-0.4,0.6-0.2,1c1,1.5,2,3,3.1,4.6
				c0.2,0.3,0.7,0.4,1,0.2C423.6,89.2,423.7,88.8,423.5,88.5z"/>
			<path class="st0" d="M417.7,88.7c-1.1-1.4-2.2-2.7-3.2-4.1c-0.2-0.3-0.7-0.4-1-0.2c-0.3,0.2-0.4,0.7-0.2,1
				c1.1,1.4,2.2,2.7,3.2,4.1c0.2,0.3,0.7,0.4,1,0.2C417.8,89.4,417.9,89,417.7,88.7z"/>
			<path class="st0" d="M388,172.1c-1.7,3.3-2,7.2-0.8,10.7c0.3,0.8,1.6,0.4,1.3-0.5c-1.1-3.2-0.8-6.7,0.8-9.6
				C389.7,171.9,388.4,171.3,388,172.1z"/>
			<path class="st0" d="M395.9,188.9c-2.4-0.1-4.7-1.4-6-3.5c-0.5-0.7-1.6,0-1.1,0.8c1.5,2.3,4.1,3.9,6.9,4c0.4,0,0.7-0.2,0.8-0.5
				C396.5,189.4,396.2,189,395.9,188.9z"/>
			<path class="st0" d="M395.8,184.9c-0.8-0.3-1.4-0.8-1.9-1.5c-0.1-0.2-0.3-0.4-0.4-0.5c0,0-0.1-0.1-0.1-0.1c0,0,0,0,0,0
				c0,0,0,0,0,0c0-0.1-0.1-0.2-0.1-0.3c-0.1-0.2-0.2-0.4-0.2-0.6c0-0.1,0-0.1,0-0.2c0,0,0,0,0,0c0,0,0,0,0,0c0-0.1,0-0.2-0.1-0.4
				c0-0.4-0.4-0.7-0.7-0.6c-0.4,0-0.7,0.4-0.6,0.7c0.3,2.1,1.7,4,3.6,4.8c0.3,0.1,0.8,0,0.9-0.3
				C396.3,185.5,396.1,185.1,395.8,184.9z"/>
			<path class="st0" d="M471,138.8c-1.5,1.1-3.5,1.6-5.3,1.1c-0.9-0.2-1.1,1.2-0.2,1.3c2.2,0.5,4.6,0,6.4-1.4
				C472.5,139.4,471.7,138.3,471,138.8z"/>
			<path class="st0" d="M472.3,133.2c-0.3-0.2-0.7-0.2-1,0.1c-0.6,0.7-1.2,1.2-1.9,1.7c-0.3,0.2-0.7,0.4-1.1,0.5
				c-0.4,0.2-0.8,0.3-1.2,0.3c-0.4,0.1-0.7,0.3-0.6,0.7c0,0.3,0.4,0.7,0.7,0.6c2-0.4,3.9-1.4,5.2-3
				C472.6,133.9,472.5,133.5,472.3,133.2z"/>
			<path class="st0" d="M419.9,181c-1.7-2.8-4.5-4.9-7.7-5.7c-0.4-0.1-0.7,0.2-0.8,0.5c-0.1,0.4,0.2,0.7,0.5,0.8
				c2.9,0.7,5.3,2.6,6.9,5.1C419.3,182.5,420.4,181.7,419.9,181z"/>
			<path class="st8" d="M402,122.5c-3.2-0.7-5.3,2.3-6.6,4.7c-0.4,0.8,0.8,1.4,1.2,0.6c0.8-1.5,1.8-3.4,3.6-3.9
				c0.7-0.2,1.7-0.2,2.3,0.3c0.7,0.6,0.8,1.5,0.8,2.3c-0.1,1.9-0.8,3.8-1.7,5.5c-0.5,0.9-1.1,1.7-1.7,2.5c-0.5,0.5-1.4,1.6-2.2,1.3
				c-0.8-0.3-0.5-1.7-0.3-2.3c0.2-0.5,0.4-1,0.8-1.5c0.2-0.2,0.3-0.4,0.5-0.6c0.1-0.1,0.4-0.2,0.4-0.4c0.2,0.9,1.5,0.7,1.4-0.1
				c-0.1-0.6-0.4-1-1-1.1c-0.7-0.2-1.3,0.2-1.7,0.7c-0.9,0.9-1.6,2.2-1.8,3.5c-0.2,1.1,0,2.4,1.1,2.9c1.2,0.7,2.6-0.1,3.5-1
				c2-2,3.4-4.6,4-7.3C405,126.3,404.9,123.2,402,122.5z"/>
			<path class="st5" d="M436.8,153.9c-0.6-0.5-1.4-0.4-1.9,0.2c-0.1,0.1-0.2,0.2-0.3,0.3c0,0-0.1,0.1-0.1,0.1c0,0,0,0,0,0
				c-0.2,0.2-0.4,0.3-0.6,0.5c-0.2,0.2-0.4,0.3-0.6,0.4c-0.1,0.1-0.2,0.1-0.3,0.2c0,0,0,0-0.1,0c0,0,0,0-0.1,0
				c-0.2,0.1-0.5,0.2-0.7,0.3c0,0,0,0,0,0c0,0-0.1,0-0.1,0c-0.1,0-0.2,0-0.3,0c-0.1,0-0.4,0-0.1,0c-0.1,0-0.2,0-0.3,0
				c-0.1,0-0.1,0-0.2,0c-0.1,0-0.2-0.1-0.3-0.1c0,0,0,0,0,0c0,0,0,0-0.1,0c0,0-0.2-0.2-0.2-0.2c-0.1-0.1-0.2-0.2-0.2-0.4
				c0,0,0-0.1,0-0.1c0-0.1-0.1-0.2-0.1-0.3c0-0.1,0-0.1-0.1-0.2c0-0.1,0-0.2,0-0.2c0-0.1,0-0.2,0-0.3c0-0.1,0-0.1,0-0.2
				c0,0,0,0,0-0.1c0-0.3,0.1-0.5,0.1-0.8c0.1-0.6,0.3-1.2,0.5-1.7c0.2-0.7-0.4-1.5-1.1-1.6c-0.8-0.1-1.4,0.4-1.6,1.1
				c-0.4,1.3-0.8,2.7-0.6,4.1c0.2,1.4,0.9,2.7,2.2,3.4c1.2,0.6,2.8,0.6,4,0c1.3-0.6,2.3-1.5,3.3-2.5
				C437.5,155.3,437.4,154.3,436.8,153.9z"/>
			<path class="st5" d="M441.8,145.3c-3.1-1.2-6.2-2.3-9.4-3c-1.4-0.3-3,0.8-3.2,2.2c-0.2,1.5,0.7,2.8,2.2,3.2
				c1.3,0.3,2.7,0.7,4,1.1c1.4,0.5,2.7,0.9,4.1,1.5c1.3,0.5,3,0.1,3.6-1.3C443.7,147.6,443.3,145.8,441.8,145.3z"/>
		</g>
		<g>
			<polygon class="st9" points="410.9,500 354,500 346.9,469 403.4,433.3 403.4,433.3 			"/>
			<path class="st9" d="M403.4,433.3L403.4,433.3l-52.8,15.2l-5.1,14.5l-1.7,4.9L332.4,500h-71.2l20.3-85.8
				c13.5,4.2,64.1,17.7,120.6,7.8L403.4,433.3z"/>
			<polygon class="st5" points="403.4,433.3 346.9,469 345.5,463 350.6,448.5 			"/>
			<path class="st5" d="M291.4,417.7c-5.8,20.8-11.7,41.6-17.5,62.4c-1.7,5.9-3.3,11.8-5,17.7c-0.2,0.8,1.1,1.1,1.3,0.2
				c5.8-20.8,11.7-41.6,17.5-62.4c1.7-5.9,3.3-11.8,5-17.7C293,417.1,291.6,416.9,291.4,417.7z"/>
		</g>
	</g>
	<g>
		<path class="st7" d="M231.4,500h-69.7l-17-27.2l0.1-0.8l-1.2-1l-14.8-23.8l-42.3-6.7l2.4-20.2c2.2,1.5,5.3,2.2,5.3,2.2
			c59.6,14.7,99.9-6.3,106.1-9.3C200.3,413.3,219.6,440.3,231.4,500z"/>
		<polygon class="st7" points="143.6,471 144.7,472.8 141.2,500 79.4,500 86.4,440.9 126.1,456.6 		"/>
		<polygon points="128.8,447.2 143.6,471 126.1,456.6 86.4,440.9 86.5,440.5 		"/>
		<path d="M222.6,498.5c-7.4-21.1-15.3-41.9-23.8-62.5c-2.4-5.8-4.8-11.5-7.3-17.2c-0.4-0.8-1.7-0.3-1.3,0.5
			c8.8,20.5,17.1,41.2,24.8,62.1c2.1,5.8,4.2,11.7,6.3,17.6C221.6,499.9,222.9,499.4,222.6,498.5z"/>
		<g>
			<path class="st10" d="M200.3,413.3c-6.2,3-46.5,24-106.1,9.3c0,0-3.1-0.7-5.3-2.2c-2-1.4-3.3-3.4-1.2-6.3l14.5-91.7l-6.4-9.6
				l-4.9-7.4c-1.3-1.9-2.2-4-2.7-6.2c-0.8-3.5-0.7-7.1,0.5-10.6c0-0.1,0-0.1,0.1-0.2c2-5.8,5.8-13,13.1-18.1
				c14.3-10.2,35.4-40.5,35.4-40.5s3.5,6.7,13.6-1.9l0,0c2.4-2.1,4.8-3.9,7.3-5.3c8.8-5,15.7-5.3,21.2-3.2c7.6,3,12.5,10.7,16,17.5
				c5.9,11.6,6.8,53-20.1,121.3c0,0,5.6,4.5,0,8.5c0,0,5.9,1.8,4.3,5.7c0,0,18.2,27.4,20.8,34.8
				C200.3,407.1,206.5,410.3,200.3,413.3z"/>
			<g>
				<defs>
					<path id="SVGID_3_" d="M200.3,413.3c-6.2,3-46.5,24-106.1,9.3c0,0-3.1-0.7-5.3-2.2c-2-1.4-3.3-3.4-1.2-6.3l14.5-91.7l-6.4-9.6
						l-4.9-7.4c-1.3-1.9-2.2-4-2.7-6.2c-0.8-3.5-0.7-7.1,0.5-10.6c0-0.1,0-0.1,0.1-0.2c2-5.8,5.8-13,13.1-18.1
						c14.3-10.2,35.4-40.5,35.4-40.5s3.5,6.7,13.6-1.9l0,0c2.4-2.1,4.8-3.9,7.3-5.3c8.8-5,15.7-5.3,21.2-3.2
						c7.6,3,12.5,10.7,16,17.5c5.9,11.6,6.8,53-20.1,121.3c0,0,5.6,4.5,0,8.5c0,0,5.9,1.8,4.3,5.7c0,0,18.2,27.4,20.8,34.8
						C200.3,407.1,206.5,410.3,200.3,413.3z"/>
				</defs>
				<clipPath id="SVGID_4_">
					<use xlink:href="#SVGID_3_"  style="overflow:visible;"/>
				</clipPath>
				<path class="st11" d="M154.2,246c-4.6-8.3-10.9-17.5-8.2-27.5c0.2-0.9-1.1-1.1-1.4-0.3c-2.3,8.3,1.5,16.5,5.5,23.5
					c4.2,7.3,9.4,15.3,8.2,24.1c-0.9,6.8-7.2,13.6-14.5,11.2c-7.5-2.4-10.4-10.9-15.2-16.3c-2.7-3.1-6-5.2-10-6.1
					c-3.9-0.9-8.1-0.4-11.7,1.3c-0.8,0.4-0.3,1.7,0.5,1.3c3.4-1.7,7.3-2.1,11-1.3c3.8,0.8,7,3,9.4,6c4.7,5.6,7.7,13.7,15.2,16.3
					c6.7,2.3,13.5-2.3,15.8-8.6C161.9,261.6,158.2,253,154.2,246z"/>
				<path class="st11" d="M199.3,283.9c-5.3,4.7-11.3,9.9-18.8,9.7c-3.2-0.1-6.5-1.3-8.6-3.8c-2.2-2.7-2.7-6.2-2.4-9.6
					c0.7-7.5,5.1-14.2,9.6-20.1c4.6-6,9.7-11.8,12.9-18.8c3.2-7.1,4.1-15.8-0.2-22.7c-0.5-0.8-1.6,0-1.1,0.8
					c4.1,6.5,3,14.9-0.1,21.6c-3.4,7.3-8.9,13.2-13.6,19.6c-4.3,5.9-8.5,12.7-8.9,20.3c-0.1,3.3,0.5,6.8,2.6,9.4
					c2,2.5,4.9,4,8.1,4.5c8.5,1.2,15.5-4.5,21.5-9.8C200.8,284.5,200,283.3,199.3,283.9z"/>
				<path class="st11" d="M207.2,305c-11.9-1-24.3-0.3-34.8,5.9c-4.5,2.6-8.4,6.2-11.2,10.6c-2.5,3.9-4.2,8.2-5.8,12.6
					c-3.1,8.4-5.8,18.1-13.6,23.4c-9.8,6.8-22.6,4.3-33.8,5.7c-5.5,0.7-11,2.2-15.2,5.9c-3.7,3.1-6.4,7.6-6.5,12.5
					c0,1.2,0.1,2.4,0.4,3.5c0.2,0.9,1.5,0.4,1.3-0.5c-1.2-4.9,1-9.8,4.4-13.3c3.9-4,9.3-5.8,14.7-6.6c11-1.6,22.9,0.7,33.1-4.6
					c8.3-4.3,12-13,15.1-21.3c1.6-4.3,3-8.7,5.1-12.8c2.2-4.4,5.2-8.3,9.1-11.3c9.3-7.2,21.3-9.1,32.8-8.6c1.6,0.1,3.2,0.2,4.8,0.3
					C207.8,306.4,208.1,305,207.2,305z"/>
				<path class="st11" d="M163.8,387.6c-2.6-2.7-6.5-3.9-10.2-4.2c-5-0.4-10,0.9-14.9,1.3c-10,0.7-19.1-4.1-28.9-4.6
					c-7.6-0.4-16.8,2-20.1,9.6c-0.4,0.8,0.9,1.4,1.3,0.6c2.9-6.5,10.4-8.8,17.1-8.9c9,0,17.5,4.2,26.4,4.7c4.9,0.3,9.6-0.8,14.4-1.2
					c3.9-0.4,8-0.1,11.6,1.9c3.6,2.1,5.4,5.9,4.9,10c-0.5,4.4-3.2,8-6.3,11.1c-3.8,3.8-8,7.2-12,10.7l-12.9,11.4
					c-0.7,0.6,0.1,1.7,0.8,1.1c4.1-3.6,8.1-7.1,12.2-10.7c3.9-3.4,7.8-6.7,11.6-10.2c3.3-3.1,6.4-6.5,7.6-11
					C167.4,395.2,166.8,390.7,163.8,387.6z"/>
				<path class="st11" d="M210,388.6c-2.4,6.9-7.5,13.1-14.1,16.3c-1.7,0.8-3.7,1.5-5.6,1.3c-1.9-0.2-3.3-1.4-4-3.1
					c-1.6-3.6-0.3-7.7-1.3-11.5c-1.7-7.1-9.6-9-15.1-12.3c-2.8-1.7-5.8-4.3-6.4-7.7c-0.6-3.9,2.2-7,4.8-9.4
					c7.7-7.2,15.6-14.1,23.4-21.1c0.7-0.6-0.1-1.7-0.8-1.1c-7.5,6.7-14.9,13.5-22.4,20.2c-2.7,2.5-5.8,5.3-6.4,9.2
					c-0.5,3.6,1.4,6.8,4.1,9.1c2.8,2.4,6.1,3.8,9.4,5.4c3.2,1.7,6.6,3.8,7.8,7.4c1.3,3.9-0.1,8.2,1.4,12.1c0.6,1.6,1.8,3,3.4,3.7
					c1.7,0.8,3.7,0.7,5.5,0.2c4.1-1.1,7.9-4,10.8-7.1c3-3.1,5.3-6.9,6.7-11C211.6,388.4,210.3,387.8,210,388.6z"/>
				<path class="st11" d="M109.8,290.1c-1.2-5.9-4.6-11.1-9.4-14.7c-2.7-2-5.7-3.4-8.9-4.1c-0.9-0.2-1.1,1.2-0.3,1.4
					c5.3,1.3,10.1,4.5,13.3,9c3.4,4.7,4.8,10.6,4,16.3c-0.5,3.3-1.6,6.6-3.4,9.4c-0.5,0.7,0.6,1.6,1.1,0.9
					C109.7,302.9,111,296.3,109.8,290.1z"/>
			</g>
			<path class="st5" d="M171.6,283.4L147,313.6l-2.1-3.4c3.7-4.7,6.1-7.7,6.1-7.7L171.6,283.4z"/>
			<path class="st6" d="M98.3,360.5c-4.8-0.3-9.1-5-14.2-13.1c-3.3-5.3-4.6-9.9-4.8-13.7c-0.5-6.9,2.5-10.9,2.5-10.9l9.6-3.8
				l11.4-15.8l19.1-26.6l29.1,25.9c0,0-2.4,3-6.1,7.7c-8.2,10.4-22.9,28.8-31.6,39.8C107.2,357.5,102.5,360.8,98.3,360.5z"/>
			<path class="st6" d="M102.7,303.2l-6.8,9.5l-4.6,6.3l-9.6,3.8c0,0-3,3.9-2.5,10.9c-18-0.1-16.8-22.2-11.4-30.5
				c3.3-5.1,10.4-9.5,15.5-12.2l-3.9,9.6c2.4-1,4.8-1.5,7.2-1.6c0.6,0,1.1,0,1.7,0c7.5,0.3,14.1,3.9,14.1,3.9L102.7,303.2z"/>
			<path class="st5" d="M88.8,288.5c-1.2,3.5-1.3,7.1-0.5,10.6c-0.6,0-1.1,0-1.7,0c-2.4,0.1-4.9,0.5-7.2,1.6l3.9-9.6
				c3.2-1.7,5.6-2.7,5.6-2.7C88.9,288.4,88.8,288.5,88.8,288.5z"/>
			<path class="st5" d="M102,303.2c-4.9,4.6-9.5,9.5-13.9,14.5c-4,4.6-8,9.5-10.1,15.3c-0.3,0.8,1,1.4,1.3,0.6
				c2-5.8,6.1-10.6,10.1-15.2c4.3-5,8.9-9.7,13.7-14.3C103.7,303.5,102.6,302.6,102,303.2z"/>
			<path class="st5" d="M188.1,231.7c-1.6-4.1-4.1-7.8-7.6-10.5c-0.7-0.6-1.6,0.5-0.9,1.1c6.1,4.8,8.9,12.5,9.1,20.1
				c0.2,8.7-3.1,17-7.5,24.5c-2.7,4.6-5.8,8.9-8.8,13.2c-0.5,0.7,0.5,1.6,1.1,0.9c5.6-7.9,11.4-15.9,14.5-25.2
				C190.6,248,191.1,239.4,188.1,231.7z"/>
			<path class="st5" d="M142.9,236.2c-7.2,11.1-14.4,22.2-21.6,33.4c-0.5,0.7,0.6,1.6,1.1,0.9c7.2-11.1,14.4-22.2,21.6-33.4
				C144.5,236.4,143.4,235.4,142.9,236.2z"/>
			<path class="st5" d="M168.3,361.2c-2.7,2.2-5.4,4.4-8.1,6.6c-0.7,0.6,0.1,1.7,0.8,1.1c2.7-2.2,5.4-4.4,8.1-6.6
				C169.8,361.8,169,360.6,168.3,361.2z"/>
			<path class="st5" d="M174.1,368.5c-0.1-0.4-0.5-0.5-0.9-0.4l-9.7,2.3c-0.4,0.1-0.5,0.6-0.4,0.9c0.1,0.4,0.5,0.5,0.9,0.4l9.7-2.3
				C174,369.4,174.2,368.9,174.1,368.5z"/>
			<path class="st5" d="M198.1,407.3c-13.2,5.6-27.1,9.5-41.3,11.6c-14.2,2.1-28.6,2.4-42.9,0.8c-8-0.9-15.9-2.3-23.7-4.4
				c-0.9-0.2-1.1,1.1-0.3,1.4c14,3.6,28.4,5.4,42.8,5.4c14.4,0,28.8-1.9,42.8-5.6c7.9-2.1,15.6-4.7,23.1-7.9
				C199.4,408.2,198.9,406.9,198.1,407.3z"/>
		</g>
		<g>
			<path class="st6" d="M179.5,219l-0.1,0.3c-5.5-2.1-12.4-1.8-21.2,3.2c-2.5,1.4-4.9,3.2-7.3,5.3l0,0c-10.1,8.6-13.6,1.9-13.6,1.9
				l-0.5-4.8l-2-20.3c-5.7,4.8-13.3,7.9-22.9,4.8c-5.8-1.9-10.8-6.8-15-13c-11.7-14.3-15.3-37.6-16.9-44.9
				c5.1,2.6,11.7,1.4,17.2-0.8c5.9-2.4,11.6-5.9,18-6.6c7.5-0.7,15.2,3,19.3,9.4c0.1-1.1,0.8-11.1,10.3-7.6
				c10.1,3.7,3.5,18.8,3.5,18.8l16.2,28.3L179.5,219z"/>
			<path class="st7" d="M135.9,216l0.9,9c-1.5,3.6-5,6.6-8.7,8.4c-4.9,2.5-10.5,3.7-15,6.9c-5.7,4.1-8.9,10.6-12.9,16.3
				c-4,5.7-9.9,11.1-16.9,10.8c-7.4-0.4-13.2-7.2-20.5-8.3c-6.2-0.9-13.2,2.2-18.4-1.2c-4.2-2.8-5.1-8.6-4.7-13.7
				c0.4-5.1,1.5-10.3-0.3-15c-1.5-4.1-4.9-7.2-6.3-11.3c-2.1-6.4,1.4-13.3,5.7-18.6c4.2-5.3,9.5-10.1,11.5-16.5
				c4.1-12.7-5.4-27.5,0.3-39.6c3.2-6.9,10.5-10.8,17.6-13.5c7.1-2.8,14.6-5.1,20.1-10.3c3.5-3.4,6-7.8,9.8-10.8
				c4.8-3.7,11.4-4.7,17.3-3.7c5.6,0.9,10.7,3.4,15.6,6.2c3.7-3.4,9.5-4.2,14.2-2.3c5.3,2.2,9,7.3,10.3,12.8
				c1.2,5,0.7,10.4,3.1,14.9c2.5,4.6,7.5,7.2,10.4,11.6c3.2,4.9,3.2,11.2,1.8,16.9s-3.9,11-5.4,16.6c-1,3.6-1.6,7.5-1.1,11.2
				l-16.2-28.3c0,0,6.6-15.1-3.5-18.8c-9.5-3.5-10.2,6.5-10.3,7.6c-4.1-6.3-11.8-10.1-19.3-9.4c-6.4,0.6-12.1,4.1-18,6.6
				c-5.5,2.2-12,3.5-17.2,0.8c1.5,7.3,5.8,25,13.4,39.1c-0.2,0.2-0.4,0.4-0.6,0.6c-3.4,3.1-0.2,5.7,4.1,5.3c4.2,6.2,9.1,11.1,15,13
				c9.6,3.1,17.2,0,22.9-4.8L135.9,216z"/>
			<path class="st5" d="M147,187.8c0,0-2.2,17.2-11,28.2l-1.1-11.4C142.9,197.9,147,187.8,147,187.8z"/>
			<path class="st8" d="M132.1,166.8c4.4,0,7.9,3.6,7.9,7.9c0,4.4-3.5,7.9-7.9,7.9c-4.4,0-7.9-3.5-7.9-7.9
				C124.2,170.3,127.8,166.8,132.1,166.8z"/>
			<path class="st8" d="M103.9,193c-2.1,2.2-4.7,3.2-6.9,3.5c-4.3,0.4-7.5-2.1-4.1-5.3c0.2-0.2,0.4-0.4,0.6-0.6c4.7-5,6-14.9,6-14.9
				S110,186.6,103.9,193z"/>
			<path class="st0" d="M54,188.9c-4.5,6.9-13.1,11.4-14.3,20.2c-0.1,0.9,1.2,1.1,1.4,0.3c1.2-8.4,9.7-12.9,14-19.5
				C55.5,189,54.4,188.1,54,188.9z"/>
			<path class="st0" d="M42.6,221.8c-1.5-1.5-2.4-3.6-2.5-5.8c-0.1-0.9-1.4-0.8-1.4,0.1c0.2,2.5,1.3,4.9,3,6.7
				c0.3,0.3,0.8,0.2,1-0.1C42.9,222.4,42.8,222,42.6,221.8z"/>
			<path class="st0" d="M45.9,218c-1.6-2-2.2-4.9-1.3-7.3c0.1-0.4,0-0.8-0.3-0.9c-0.3-0.1-0.8,0-0.9,0.3c-1.1,2.9-0.6,6.3,1.4,8.7
				C45.3,219.5,46.4,218.7,45.9,218z"/>
			<path class="st0" d="M118.6,228.3c-3.7,1.4-7,3.6-9.8,6.4c-0.6,0.6,0.4,1.5,1.1,0.9c2.6-2.6,5.8-4.7,9.2-6
				C119.9,229.3,119.4,228,118.6,228.3z"/>
			<path class="st0" d="M105,240c-2.2,1.6-4,3.9-4.9,6.5c-0.1,0.4,0,0.8,0.3,0.9c0.3,0.1,0.8,0,0.9-0.3c0.8-2.4,2.3-4.5,4.4-5.9
				C106.5,240.6,105.7,239.5,105,240z"/>
			<path class="st0" d="M108,231.2c-0.2-0.3-0.6-0.4-1-0.2c-2.7,1.6-5,3.9-6.6,6.6c-0.2,0.3,0,0.8,0.3,0.9c0.4,0.2,0.7,0,0.9-0.3
				c1.5-2.5,3.7-4.5,6.2-6C108.2,232,108.2,231.5,108,231.2z"/>
			<path class="st0" d="M168.8,155.6c-0.1-0.9-1.5-0.8-1.4,0.1c0.4,3.7-0.1,7.5-1.5,11c-0.3,0.8,0.9,1.4,1.3,0.6
				C168.7,163.6,169.2,159.6,168.8,155.6z"/>
			<path class="st0" d="M162.6,160.4c-0.3-0.1-0.8,0.2-0.8,0.6c-0.2,2.8-0.9,5.5-2.1,8.1c-0.4,0.8,0.9,1.4,1.3,0.6
				c1.3-2.6,2-5.5,2.2-8.4C163.2,160.9,163,160.5,162.6,160.4z"/>
			<path class="st0" d="M128.3,112.5c-4.9-3.5-11.1-5-17-4.2c-0.9,0.1-0.8,1.5,0.1,1.4c5.6-0.7,11.4,0.6,16,3.9
				C128.1,114.1,129,113,128.3,112.5z"/>
			<path class="st0" d="M106.6,109.5c-0.1-0.4-0.5-0.5-0.9-0.4c-2.6,0.8-5,2.5-6.5,4.8c-0.2,0.3-0.2,0.7,0.1,1
				c0.3,0.2,0.8,0.2,1-0.1c1.4-2.1,3.5-3.7,5.9-4.4C106.5,110.3,106.7,109.9,106.6,109.5z"/>
			<path class="st0" d="M113.2,112.7c-2.6-0.8-5.6-0.4-7.9,1.2c-0.7,0.5,0.1,1.6,0.8,1.1c2-1.4,4.5-1.7,6.8-1
				c0.4,0.1,0.7-0.2,0.8-0.6C113.9,113.1,113.6,112.8,113.2,112.7z"/>
			<path class="st8" d="M144.7,154.4c-0.9,0-0.8,1.4,0.1,1.4c1,0,1.5,1.1,1,1.9c-0.7,0.9-2,0.3-2.7-0.2c-1.7-1.3-2.8-3.6-2.5-5.8
				c0.1-0.5,0.3-1.2,0.8-1.4c0.3-0.2,0.8-0.2,1.1,0.1c0.5,0.7,1.7-0.1,1.1-0.8c-0.4-0.6-1.2-0.9-1.9-0.8c-0.8,0.1-1.5,0.6-1.9,1.3
				c-0.8,1.4-0.6,3.4-0.1,4.8c0.5,1.6,1.6,3,3,3.9c1.4,0.9,3.5,1.1,4.5-0.6C148.1,156.5,146.7,154.4,144.7,154.4z"/>
			<path class="st5" d="M120.7,193.7c-4.3,0.3-8.4,1.5-12.1,3.7c-0.8,0.5,0,1.6,0.8,1.1c3.5-2,7.4-3.2,11.5-3.5
				C121.7,195.1,121.6,193.7,120.7,193.7z"/>
			<path class="st5" d="M96.1,172.2c-0.7-0.3-1.6-0.1-1.9,0.7c-0.1,0.2-0.1,0.3-0.2,0.4c0,0.1-0.1,0.1-0.1,0.2c0,0,0,0,0,0
				c-0.2,0.3-0.4,0.5-0.6,0.7c0,0,0,0,0,0c-0.1,0.1-0.1,0.1-0.2,0.2c-0.1,0.1-0.3,0.2-0.4,0.3c0,0,0,0,0,0c-0.1,0-0.1,0.1-0.2,0.1
				c-0.2,0.1-0.3,0.1-0.5,0.2c-0.1,0-0.1,0-0.2,0.1c-0.2,0-0.3,0.1-0.5,0.1c-0.1,0-0.2,0-0.3,0c0,0,0,0,0,0c-0.2,0-0.3,0-0.5-0.1
				c-0.2,0-0.3-0.1-0.5-0.1c0,0-0.1,0-0.1,0c-0.1,0-0.1-0.1-0.2-0.1c-0.2-0.1-0.3-0.2-0.5-0.2c0,0,0,0,0,0c-0.1-0.1-0.2-0.1-0.3-0.2
				c-0.6-0.4-1.5-0.4-2,0.2c-0.4,0.6-0.4,1.5,0.2,2c1.6,1.3,3.7,1.7,5.7,1.1c1.7-0.5,3.2-1.9,3.9-3.5
				C97.1,173.4,96.8,172.5,96.1,172.2z"/>
			<path class="st5" d="M116.3,162.7c-0.6-0.3-1.6-0.1-1.9,0.7c-0.1,0.4-0.3,0.7-0.5,1.1c-0.1,0.1-0.1,0.2-0.2,0.3c0,0,0,0,0,0
				c0,0,0,0,0,0c-0.1,0.2-0.2,0.3-0.4,0.5c-0.1,0.2-0.3,0.3-0.4,0.4c-0.1,0.1-0.1,0.1-0.2,0.2c0,0,0,0-0.1,0.1
				c-0.3,0.3-0.7,0.5-1,0.7c0,0-0.1,0.1-0.1,0.1c-0.1,0-0.2,0.1-0.2,0.1c-0.2,0.1-0.4,0.2-0.6,0.2c-0.2,0.1-0.4,0.1-0.6,0.2
				c0,0-0.1,0-0.1,0c-0.1,0-0.2,0-0.4,0.1c-0.2,0-0.4,0-0.7,0.1c-0.1,0-0.2,0-0.3,0c0,0-0.2,0-0.3,0c-0.1,0-0.2,0-0.2,0
				c-0.1,0-0.2,0-0.4,0c-0.2,0-0.5-0.1-0.7-0.2c-0.7-0.2-1.5,0.4-1.6,1.1c-0.1,0.8,0.4,1.4,1.1,1.6c4.2,1.1,8.8-1.3,10.2-5.4
				C117.2,163.8,117,163,116.3,162.7z"/>
			<path class="st5" d="M91.8,162.6c-0.4-0.3-1-0.6-1.5-0.5c-0.6,0.1-1,0.3-1.4,0.7c-0.1,0.1-0.3,0.3-0.4,0.4
				c-1.6,1.4-3.3,2.7-5.2,3.7c-0.4,0.2-0.8,0.9-0.8,1.3c-0.1,0.5,0,1.2,0.4,1.6c0.3,0.4,0.8,0.8,1.3,0.8c0.2,0,0.4,0,0.6,0
				c0.4,0,0.7-0.2,1-0.4c2.4-1.3,4.5-3,6.5-4.9c0.4-0.4,0.5-1,0.5-1.5C92.4,163.5,92.2,162.9,91.8,162.6z"/>
			<path class="st5" d="M115.3,155.5c-0.4-1.1-1.6-1.6-2.7-1.2c-0.7,0.3-1.5,0.5-2.2,0.7c-0.4,0.1-0.8,0.2-1.2,0.3
				c-0.1,0-0.1,0-0.2,0c-0.2,0-0.4,0.1-0.6,0.1c-1.6,0.3-3.1,0.4-4.7,0.5c-1.1,0-2,1.2-1.9,2.3c0.2,1.2,1.1,1.9,2.3,1.9
				c3.4-0.1,6.8-0.7,10-1.9C115.1,157.8,115.8,156.5,115.3,155.5z"/>
		</g>
	</g>
</g>
</svg>
