<?xml version="1.0" encoding="utf-8"?>
<!-- Generator: Adobe Illustrator 25.3.0, SVG Export Plug-In . SVG Version: 6.00 Build 0)  -->
<svg version="1.1" id="Layer_1" xmlns="http://www.w3.org/2000/svg" xmlns:xlink="http://www.w3.org/1999/xlink" x="0px" y="0px"
	 viewBox="0 0 736.6 500" style="enable-background:new 0 0 736.6 500;" xml:space="preserve">
<style type="text/css">
	.st0{opacity:0.18;fill:#93BAE2;enable-background:new    ;}
	.st1{opacity:0.24;}
	.st2{fill:none;stroke:#6CA7B5;stroke-width:0.78;stroke-miterlimit:10;}
	.st3{fill:#6CA7B5;}
	.st4{fill:#93BAE2;}
	.st5{opacity:0.43;}
	.st6{fill:none;stroke:#FFFFFF;stroke-width:0.7;stroke-linecap:round;stroke-linejoin:round;}
	.st7{fill:none;stroke:#FFFFFF;stroke-width:1.14;stroke-linecap:round;stroke-linejoin:round;}
	.st8{fill:none;stroke:#FFFFFF;stroke-width:0.82;stroke-linecap:round;stroke-linejoin:round;}
	.st9{fill:none;stroke:#FFFFFF;stroke-width:0.78;stroke-linecap:round;stroke-linejoin:round;}
	.st10{fill:none;stroke:#FFFFFF;stroke-width:0.98;stroke-linecap:round;stroke-linejoin:round;}
	.st11{fill:none;stroke:#FFFFFF;stroke-width:0.9;stroke-linecap:round;stroke-linejoin:round;}
	.st12{fill:none;stroke:#6CA7B5;stroke-width:2;stroke-linecap:round;stroke-linejoin:round;}
	.st13{opacity:0.56;}
	.st14{opacity:0.39;}
	.st15{fill:#FFFFFF;}
	.st16{fill:#A3D1DE;}
	.st17{fill:#E1F6FB;}
	.st18{opacity:0.65;fill:#93BAE2;enable-background:new    ;}
	.st19{fill:#ACDAE5;}
	.st20{clip-path:url(#SVGID_2_);}
	.st21{fill:#FEC9CF;}
	.st22{fill:#212A6B;}
	.st23{fill:#FFCAD0;}
	.st24{fill:#7A94AB;}
	.st25{fill:#EE84AA;}
	.st26{fill:#561E15;}
	.st27{fill:#0E1235;}
	.st28{fill:none;stroke:#561E15;stroke-width:1.03;stroke-linecap:round;stroke-linejoin:round;}
	.st29{fill:none;stroke:#EE84AA;stroke-width:0.77;stroke-linecap:round;stroke-linejoin:round;}
	.st30{fill:#172156;}
	.st31{opacity:0.41;enable-background:new    ;}
	.st32{fill:#1A4A4C;}
	.st33{fill:#21565C;}
	.st34{fill:#FEB161;}
	.st35{fill:#255C63;}
	.st36{fill:#194248;}
	.st37{fill:none;stroke:#194248;stroke-linecap:round;stroke-linejoin:round;}
	.st38{fill:#EBBAB9;}
	.st39{fill:none;stroke:#561E15;stroke-linecap:round;stroke-linejoin:round;}
	.st40{fill:none;stroke:#EE84AA;stroke-width:0.75;stroke-linecap:round;stroke-linejoin:round;}
	.st41{fill:#265F66;}
	.st42{fill:#2C7277;}
	.st43{opacity:0.37;fill:#F75959;}
	.st44{fill:#606060;}
	.st45{opacity:0.41;fill:none;stroke:#000000;stroke-miterlimit:10;enable-background:new    ;}
	.st46{fill:#23585E;}
	.st47{fill:none;stroke:#FFFFFF;stroke-width:2;stroke-linecap:round;stroke-linejoin:round;}
	.st48{fill:none;stroke:#FFFFFF;stroke-width:2.22;stroke-linecap:round;stroke-linejoin:round;}
	.st49{fill:none;stroke:#FFFFFF;stroke-width:2.0002;stroke-linecap:round;stroke-linejoin:round;stroke-miterlimit:4.0002;}
</style>
<g id="BACKGROUND">
	<path class="st0" d="M54.9,441.9c-7.3-5.3-13.7-11.8-19-19.1c-15.6-21.7-19.4-50.5-15.7-76.5c1.5-10.7,6.3-16.7,10.5-26.2
		c5.7-12.7,8.4-28.5,9.5-42.3c2.1-25.5-4.5-50.8-6.4-76.3c-1.6-21.8,0.6-47.7,15.2-65.2c15.6-18.6,43.8-23,66.7-23.1
		c34.5-0.1,67.5,4.1,101.6-3s65.1-25.1,95.2-42C353.3,45.3,399,23,444.9,31.8c20.6,4,39.4,13.9,59,21.3
		c39.1,14.6,81.5,0.8,120.4,15.4c21.6,8.1,41,26.6,43.1,49.6c1.8,18.9-7.9,36.6-15.5,54c-6.9,15.8-14.1,37.6-3.4,53.1
		c9.4,13.6,20.9,27.2,31.3,40.3c22.2,28.1,48.3,57.6,51.1,95c3.2,43.8-29.1,84.6-69.3,102.4s-86.3,16.4-129.6,9s-85.5-19.5-129-25
		c-46.4-5.9-88-5.5-134.3,2.6c-44.6,7.9-89.3,18.1-134.6,16.4C106.3,464.8,76.9,458,54.9,441.9z"/>
</g>
<g class="st1">
	<path class="st2" d="M379,420.1c1.4-7,5.4-13.3,11.3-17.4"/>
	<path class="st2" d="M378.8,422.1c0.2-5.8,2.5-19.8,7.8-28.6"/>
	<path class="st2" d="M378.9,421.4c1-10.7,0.7-21.5-0.8-32.1"/>
	<path class="st3" d="M390.6,399.7c1.2-2.2,2.9-4.5,5.4-4.9c2.1-0.4,4.1,0.5,6.2,0.9c1.7,0.3,3.5,0.3,5.3,0.5
		c1.8,0.1,3.5,0.7,4.9,1.7c1.4,1.1,2,3,1.4,4.7c-0.9,2-3.4,2.5-5.5,2.5c-3.7,0-7.3-1.2-11-1.7c-1.8-0.2-3.6-0.2-5.4,0
		c-1.4,0.2-3.4,1.5-4.6,1.3C388.6,403.2,389.7,401.5,390.6,399.7z"/>
	<path class="st4" d="M389.3,385.2c1.7-3.8,4.5-7.4,8.4-8.5c3.4-1,6.9,0.1,10.4,0.2c1.6-0.1,3.2,0,4.9,0.1c1.6,0.2,3.1,1,4.1,2.4
		c1.3,2.2,0,5.2-2.1,6.6s-4.9,1.4-7.4,1.1s-5-0.9-7.6-0.7c-3.2,0.4-6.3,1.7-8.8,3.8c-2,1.6-3.6,4.2-5.6,5.5
		C384.5,394.8,388.6,386.6,389.3,385.2z"/>
	<path class="st4" d="M381.2,379.2c-0.6-4-3.6-7.2-4.6-11c-0.7-2.9-0.3-6-1-8.9c-0.6-2.4-2.1-4.6-4.1-6.1c-1.4-1.1-3.1-1.7-4.9-1.5
		c-2.6,0.5-4.4,3.3-4.4,6s1.3,5.2,2.7,7.5s3.1,4.4,4,7c1.3,3.6,0.9,7.6,2.2,11.2c0.6,1.6,1.5,3,2.6,4.2c0.7,0.8,3.1,3.1,4.2,2.9
		s2.1-4,2.5-5C381.2,383.4,381.4,381.3,381.2,379.2z"/>
	<path class="st2" d="M378.8,420.4c-0.7-9.2-3-19.5-8.2-27.2"/>
	<path class="st4" d="M369.9,386.2c-0.9-2.8-2.5-5.3-4.7-7.3c-2.4-1.8-5.1-3.1-8-3.7c-2.9-0.9-6-1.3-9.1-1.1
		c-3.1,0.1-6.1,1.2-8.5,3.2c-1.1,0.9-1.9,2-2.3,3.4s0.1,2.8,1.2,3.7c0.9,0.5,1.9,0.8,2.9,0.8c4.5,0.2,9,0,13.5,0.6s9,2.4,11.9,5.9
		c0.6,0.9,1.3,1.7,2.1,2.5c0.4,0.4,1.8,1.4,2.4,0.9s0.1-1.8,0-2.4C371.1,390.4,370.6,388.3,369.9,386.2z"/>
	<path class="st2" d="M378.6,421.4c-0.4-8.1-4-15.7-9.8-21.3"/>
	<path class="st4" d="M366,395.4c-2.1-1-4.4-1.9-6.6-2.4c-2.2-0.6-4.5-1.2-6.7-0.8c-2.5,0.5-4.5,2.2-6.4,3.8
		c-1.5,1.2-2.9,2.6-4.1,4.1c-0.7,0.7-0.9,1.7-0.8,2.6c0.4,1.2,1.8,1.6,3,1.5c2.2-0.1,4.2-1.2,6.3-2c3.3-1.3,6.8-1.9,10.3-1.9
		c3.2,0,6.7-0.1,9.7,1.2c-0.6-0.2-1.5-2.7-1.9-3.3c-0.6-1-1.3-1.9-2.3-2.5L366,395.4z"/>
</g>
<g class="st5">
	<path class="st4" d="M603.8,411.9c1.1-3.2,3.3-5.9,6.2-7.7c2.7-1.5,5.9-1.9,8.1-4.1c1.8-1.8,2.4-4.3,3.2-6.6s2-4.9,4.2-5.9
		c2.6-1.2,5.5,0,7.8,1.5s4.7,3.3,7.5,3.2c2.2-0.1,4.4-1.4,6.6-1.5c3.1-0.2,5.8,1.8,8.1,3.7c1.7,1.4,3.5,2.9,4.1,5
		c0.7,2.6-0.6,5.6-2.8,7.4c-2.2,1.7-4.9,2.6-7.7,2.6c-2.5,0.1-5.3-0.2-7.1,1.7s-1.2,4.8-2.4,7c-1.3,2.2-3.8,3.6-6.4,3.5
		c-2.5-0.2-4.9-0.8-7.1-1.9c-2.2-1.1-4.7-1.6-7.1-1.7c-2.8,0.1-5.4,1.5-8,2.6c-2.3,0.9-6.5,2.7-8.3,0.3
		C601.1,418.9,602.9,414.2,603.8,411.9z"/>
	<path class="st6" d="M603.1,420.7c13-11.3,28.7-18.9,45.6-22.2"/>
	<path class="st4" d="M616.3,403.1c0.3-3.8-0.4-7.7,0.8-11.3c2.2-6.4,9.9-9.7,11.8-16.1c2.3-7.7-4.7-15.6-3.5-23.5
		c0.5-3.4,2.4-6.3,3.6-9.5s1.5-7.1-0.8-9.6s-6.9-2.3-9.8-0.2s-4.6,5.4-5.9,8.7s-2.5,6.7-4.8,9.5c-4.2,5-11.7,7.1-14,13.2
		s2.1,12.7,2.8,19.3c0.6,5-0.9,9.9-2.3,14.7s-2.5,9.9-1.3,14.8c1.6,6.5,7.5,10.6,13,6.4S615.7,410.2,616.3,403.1z"/>
	<path class="st7" d="M602.5,421c-2.2-23,2.8-48,14.7-67.9"/>
	<path class="st4" d="M587.8,412.3c-2.4-3.4-3.8-7.7-7.1-10.3c-3.8-3-9-3-13.8-3.4s-10.2-1.8-12.5-6c-1.2-2.4-1.2-5.1-2.1-7.6
		c-0.9-2.8-2.9-5-4.2-7.6s-2-5.8-0.5-8.3s5-3.2,7.9-2.4s5.2,2.8,7.3,4.8s4.2,4.2,6.8,5.5c4.3,2.2,9.5,1.8,14.3,1.6s10.2,0,13.9,3.1
		c3.1,2.5,4.5,6.6,5.8,10.4c1.8,5.4,3.7,10.9,5.5,16.3c1.1,3.4,3.2,8.5-0.3,11.2C602.5,424.2,591.4,417.3,587.8,412.3z"/>
	<path class="st8" d="M606.8,419.7c-7.7-17.9-24.1-33.2-43.6-39.9"/>
</g>
<g class="st5">
	<path class="st4" d="M138.7,413.9c2.2-3.3,3.5-7.5,6.4-9.9c3.4-2.8,8.1-2.4,12.4-2.4s9.2-1,11.2-5.2c1.1-2.3,1.1-5.1,1.9-7.6
		c0.9-2.7,2.6-4.9,3.8-7.4s1.9-5.8,0.5-8.3c-1.4-2.4-4.3-3.7-7-3c-2.6,0.6-4.6,2.4-6.6,4.3s-3.8,4-6.1,5.1
		c-3.9,1.9-8.5,1.1-12.9,0.5s-9.1-0.7-12.5,2.1c-2.8,2.4-4.1,6.3-5.2,10c-1.7,5.4-3.4,10.7-5,16.1c-1,3.3-2.9,8.4,0.2,11.3
		C125.4,424.8,135.5,418.7,138.7,413.9z"/>
	<path class="st9" d="M121.7,420c7.1-17.5,21.8-31.8,39.4-37.1"/>
	<path class="st4" d="M112,404.6c-0.2-3.5,0.3-7.1-0.7-10.4c-1.8-5.9-7.9-8.9-9.4-14.8c-1.8-7.1,3.8-14.3,2.8-21.6
		c-0.4-3.1-2-5.8-2.9-8.7s-1.2-6.6,0.7-8.8s5.5-2.1,7.8-0.2s3.7,5,4.8,8s2,6.2,3.9,8.7c3.3,4.6,9.4,6.6,11.2,12.2
		s-1.6,11.7-2.3,17.7c-0.5,4.6,0.7,9.1,1.8,13.5s2,9.1,1,13.6c-1.3,5.9-6,9.7-10.4,5.9S112.5,411.2,112,404.6z"/>
	<path class="st10" d="M123,421.1c1.8-21.2-2.3-44.1-11.8-62.4"/>
	<path class="st4" d="M122.7,409c-1.5-4.3-4.1-8.4-7.6-10.9c-3.2-2.2-7.2-3-9.8-6.1c-2.2-2.5-3-6-4-9.2s-2.5-6.7-5.2-8.3
		c-3.2-1.9-6.7-0.4-9.4,1.4s-5.5,4.1-8.9,3.7c-2.7-0.3-5.3-2.2-8-2.6c-3.8-0.5-6.9,2-9.7,4.4c-2,1.7-4.1,3.6-4.8,6.4
		c-0.8,3.5,0.9,7.7,3.5,10.3c2.6,2.4,5.9,3.9,9.4,4.1c3,0.3,6.4,0.1,8.6,2.8s1.6,6.6,3,9.7c1.5,3,4.5,5,7.8,5.2c3,0.2,5.8-0.9,8.5-2
		s5.5-2.1,8.6-1.8c3.4,0.4,6.6,2.4,9.8,4.1c2.8,1.5,7.9,4.1,10,1.1C126.2,418.6,123.9,412.1,122.7,409z"/>
	<path class="st11" d="M123.8,420.9c-16.3-16.5-35.2-27.9-55.5-33.5"/>
</g>
<line class="st12" x1="379.7" y1="76.2" x2="385.8" y2="82.2"/>
<line class="st12" x1="385.8" y1="76.2" x2="379.7" y2="82.2"/>
<line class="st12" x1="477.3" y1="379.8" x2="483.3" y2="385.9"/>
<line class="st12" x1="483.3" y1="379.8" x2="477.3" y2="385.9"/>
<line class="st12" x1="61.1" y1="325.1" x2="61.1" y2="333.7"/>
<line class="st12" x1="65.3" y1="329.4" x2="56.8" y2="329.4"/>
<path class="st12" d="M106.2,272.8c0,2.9-2.3,5.2-5.2,5.2c-2.9,0-5.2-2.3-5.2-5.2c0-2.9,2.3-5.2,5.2-5.2l0,0
	C103.9,267.6,106.2,269.9,106.2,272.8z"/>
<path class="st12" d="M312.9,358.7c0,2.9-2.3,5.2-5.2,5.2c-2.9,0-5.2-2.3-5.2-5.2c0-2.9,2.3-5.2,5.2-5.2l0,0
	C310.5,353.5,312.9,355.8,312.9,358.7z"/>
<path class="st12" d="M622.4,279.5c0,2.9-2.3,5.2-5.2,5.2s-5.2-2.3-5.2-5.2c0-2.9,2.3-5.2,5.2-5.2l0,0
	C620.1,274.3,622.4,276.6,622.4,279.5z"/>
<g class="st13">
	<g class="st14">
		<circle class="st3" cx="18.6" cy="157.6" r="1.9"/>
		<circle class="st3" cx="31.7" cy="157.6" r="1.9"/>
		<circle class="st3" cx="44.8" cy="157.6" r="1.9"/>
		<circle class="st3" cx="57.9" cy="157.6" r="1.9"/>
		<circle class="st3" cx="71.1" cy="157.6" r="1.9"/>
		<circle class="st3" cx="84.2" cy="157.6" r="1.9"/>
		<circle class="st3" cx="97.3" cy="157.6" r="1.9"/>
		<circle class="st3" cx="18.6" cy="170.7" r="1.9"/>
		<circle class="st3" cx="31.7" cy="170.7" r="1.9"/>
		<circle class="st3" cx="44.8" cy="170.7" r="1.9"/>
		<circle class="st3" cx="57.9" cy="170.7" r="1.9"/>
		<circle class="st3" cx="71.1" cy="170.7" r="1.9"/>
		<circle class="st3" cx="84.2" cy="170.7" r="1.9"/>
		<circle class="st3" cx="97.3" cy="170.7" r="1.9"/>
		<circle class="st3" cx="18.6" cy="183.9" r="1.9"/>
		<circle class="st3" cx="31.7" cy="183.9" r="1.9"/>
		<circle class="st3" cx="44.8" cy="183.9" r="1.9"/>
		<circle class="st3" cx="57.9" cy="183.9" r="1.9"/>
		<circle class="st3" cx="71.1" cy="183.9" r="1.9"/>
		<circle class="st3" cx="84.2" cy="183.9" r="1.9"/>
		<circle class="st3" cx="97.3" cy="183.9" r="1.9"/>
		<circle class="st3" cx="18.6" cy="197" r="1.9"/>
		<circle class="st3" cx="31.7" cy="197" r="1.9"/>
		<circle class="st3" cx="44.8" cy="197" r="1.9"/>
		<circle class="st3" cx="57.9" cy="197" r="1.9"/>
		<circle class="st3" cx="71.1" cy="197" r="1.9"/>
		<circle class="st3" cx="84.2" cy="197" r="1.9"/>
		<circle class="st3" cx="97.3" cy="197" r="1.9"/>
	</g>
	<g class="st14">
		<circle class="st3" cx="232" cy="381.7" r="1.9"/>
		<circle class="st3" cx="245.2" cy="381.7" r="1.9"/>
		<circle class="st3" cx="258.3" cy="381.7" r="1.9"/>
		<circle class="st3" cx="271.4" cy="381.7" r="1.9"/>
		<circle class="st3" cx="284.5" cy="381.7" r="1.9"/>
		<circle class="st3" cx="232" cy="394.8" r="1.9"/>
		<circle class="st3" cx="245.2" cy="394.8" r="1.9"/>
		<circle class="st3" cx="258.3" cy="394.8" r="1.9"/>
		<circle class="st3" cx="271.4" cy="394.8" r="1.9"/>
		<circle class="st3" cx="284.5" cy="394.8" r="1.9"/>
	</g>
	<g class="st14">
		<circle class="st3" cx="608.6" cy="98.5" r="1.9"/>
		<circle class="st3" cx="621.8" cy="98.5" r="1.9"/>
		<circle class="st3" cx="634.9" cy="98.5" r="1.9"/>
		<circle class="st3" cx="608.6" cy="111.6" r="1.9"/>
		<circle class="st3" cx="621.8" cy="111.6" r="1.9"/>
		<circle class="st3" cx="634.9" cy="111.6" r="1.9"/>
	</g>
	<g class="st14">
		<circle class="st3" cx="704.6" cy="262.7" r="1.9"/>
		<circle class="st3" cx="704.6" cy="275.8" r="1.9"/>
		<circle class="st3" cx="704.6" cy="289" r="1.9"/>
		<circle class="st3" cx="704.6" cy="302.1" r="1.9"/>
		<circle class="st3" cx="704.6" cy="315.2" r="1.9"/>
		<circle class="st3" cx="704.6" cy="328.3" r="1.9"/>
		<circle class="st3" cx="704.6" cy="341.5" r="1.9"/>
		<circle class="st3" cx="691.5" cy="262.7" r="1.9"/>
		<circle class="st3" cx="691.5" cy="275.8" r="1.9"/>
		<circle class="st3" cx="691.5" cy="289" r="1.9"/>
		<circle class="st3" cx="691.5" cy="302.1" r="1.9"/>
		<circle class="st3" cx="691.5" cy="315.2" r="1.9"/>
		<circle class="st3" cx="691.5" cy="328.3" r="1.9"/>
		<circle class="st3" cx="691.5" cy="341.5" r="1.9"/>
		<circle class="st3" cx="678.4" cy="262.7" r="1.9"/>
		<circle class="st3" cx="678.4" cy="275.8" r="1.9"/>
		<circle class="st3" cx="678.4" cy="289" r="1.9"/>
		<circle class="st3" cx="678.4" cy="302.1" r="1.9"/>
		<circle class="st3" cx="678.4" cy="315.2" r="1.9"/>
		<circle class="st3" cx="678.4" cy="328.3" r="1.9"/>
		<circle class="st3" cx="678.4" cy="341.5" r="1.9"/>
		<circle class="st3" cx="665.2" cy="262.7" r="1.9"/>
		<circle class="st3" cx="665.2" cy="275.8" r="1.9"/>
		<circle class="st3" cx="665.2" cy="289" r="1.9"/>
		<circle class="st3" cx="665.2" cy="302.1" r="1.9"/>
		<circle class="st3" cx="665.2" cy="315.2" r="1.9"/>
		<circle class="st3" cx="665.2" cy="328.3" r="1.9"/>
		<circle class="st3" cx="665.2" cy="341.5" r="1.9"/>
	</g>
</g>
<path class="st3" d="M192.4,107h340.8c6.5,0,11.7,5.2,11.7,11.7v208.1c0,6.5-5.2,11.7-11.7,11.7H192.4c-6.5,0-11.7-5.2-11.7-11.7
	V118.7C180.7,112.3,186,107,192.4,107z"/>
<path class="st15" d="M192.9,109.3h339.8c5.3,0,9.5,4.3,9.5,9.6v202c0,5.3-4.3,9.5-9.5,9.5H192.9c-5.3,0-9.6-4.3-9.6-9.5v-202
	C183.4,113.6,187.6,109.3,192.9,109.3z"/>
<path class="st16" d="M421,128.2v142.5c0,4.3-3.5,7.8-7.8,7.8H198.6c-4.3,0-7.8-3.5-7.8-7.8V128.2c0-4.3,3.5-7.8,7.8-7.8h214.6
	C417.5,120.5,421,123.9,421,128.2z"/>
<path class="st17" d="M193.6,288.2h114.5c1.6,0,2.8,1.3,2.8,2.8l0,0c0,1.6-1.3,2.8-2.8,2.8H193.6c-1.6,0-2.8-1.3-2.8-2.8l0,0
	C190.8,289.5,192.1,288.2,193.6,288.2z"/>
<path class="st17" d="M193.6,303.5h114.5c1.6,0,2.8,1.3,2.8,2.8v11.3c0,1.6-1.3,2.8-2.8,2.8H193.6c-1.6,0-2.8-1.3-2.8-2.8v-11.3
	C190.8,304.8,192.1,303.5,193.6,303.5z"/>
<path class="st17" d="M393,288.2h25.2c1.6,0,2.8,1.3,2.8,2.8l0,0c0,1.6-1.3,2.8-2.8,2.8H393c-1.6,0-2.8-1.3-2.8-2.8l0,0
	C390.2,289.5,391.4,288.2,393,288.2z"/>
<path class="st17" d="M350.2,288.2h25.2c1.6,0,2.8,1.3,2.8,2.8l0,0c0,1.6-1.3,2.8-2.8,2.8h-25.2c-1.6,0-2.8-1.3-2.8-2.8l0,0
	C347.4,289.5,348.7,288.2,350.2,288.2z"/>
<path class="st17" d="M368.2,303.5h50c1.6,0,2.8,1.3,2.8,2.8v11.3c0,1.6-1.3,2.8-2.8,2.8h-50c-1.6,0-2.8-1.3-2.8-2.8v-11.3
	C365.4,304.8,366.6,303.5,368.2,303.5z"/>
<path class="st18" d="M484.1,137.9h25.2c1.6,0,2.8,1.3,2.8,2.8l0,0c0,1.6-1.3,2.8-2.8,2.8h-25.2c-1.6,0-2.8-1.3-2.8-2.8l0,0
	C481.3,139.2,482.5,137.9,484.1,137.9z"/>
<path class="st18" d="M441.3,137.9h25.2c1.6,0,2.8,1.3,2.8,2.8l0,0c0,1.6-1.3,2.8-2.8,2.8h-25.2c-1.6,0-2.8-1.3-2.8-2.8l0,0
	C438.5,139.2,439.8,137.9,441.3,137.9z"/>
<path class="st18" d="M459.3,153.2h50c1.6,0,2.8,1.3,2.8,2.8v11.3c0,1.6-1.3,2.8-2.8,2.8h-50c-1.6,0-2.8-1.3-2.8-2.8V156
	C456.5,154.5,457.7,153.2,459.3,153.2z"/>
<path class="st18" d="M477.4,213h25.2c1.6,0,2.8,1.3,2.8,2.8l0,0c0,1.6-1.3,2.8-2.8,2.8h-25.2c-1.6,0-2.8-1.3-2.8-2.8l0,0
	C474.6,214.3,475.8,213,477.4,213z"/>
<path class="st18" d="M434.6,213h25.2c1.6,0,2.8,1.3,2.8,2.8l0,0c0,1.6-1.3,2.8-2.8,2.8h-25.2c-1.6,0-2.8-1.3-2.8-2.8l0,0
	C431.8,214.3,433.1,213,434.6,213z"/>
<path class="st18" d="M452.6,228.3h50c1.6,0,2.8,1.3,2.8,2.8v11.3c0,1.6-1.3,2.8-2.8,2.8h-50c-1.6,0-2.8-1.3-2.8-2.8v-11.3
	C449.8,229.6,451,228.3,452.6,228.3z"/>
<path class="st19" d="M418.3,122.3L193.5,276.7c-1.7-1.5-2.7-3.6-2.7-5.9V128.2c0-4.3,3.5-7.8,7.8-7.8h214.6
	C415.1,120.4,416.9,121.1,418.3,122.3z"/>
<g>
	<g>
		<g>
			<defs>
				<rect id="SVGID_1_" x="190.8" y="83" width="259.1" height="195.5"/>
			</defs>
			<clipPath id="SVGID_2_">
				<use xlink:href="#SVGID_1_"  style="overflow:visible;"/>
			</clipPath>
			<g class="st20">
				<polygon class="st21" points="343.9,519 347.3,560.6 329.6,560.6 320.4,519 				"/>
				<path class="st22" d="M327.7,551.9c0,0-7.7,12.4-1.9,14.7s43.8,2.4,53.2,1s-21-14.3-27.9-16.3S341.9,559.8,327.7,551.9z"/>
				<polygon class="st21" points="230.4,519 227,560.6 244.7,560.6 253.9,519 				"/>
				<path class="st23" d="M403.2,220.7c0,0,12.8-10.1,13.2-13c0.6-5.5,2.6-9.7,14.3-13.4c0.5,1.2,0.2,2.7-0.7,3.6
					c-0.9,1.1-2,2-3.2,2.8c0,0,3.1,1.2,7.7-2.4s6.6-6.7,8.5-6c0,0,2.3-2.1,3.4-1.8c0.5,0.1,0.7,0.6,0.6,1.1c1.8-0.3,1.5,4.9-1.8,9.2
					c-4.6,6.1-10.4,11.4-15.1,13.1c-3.6,1.3-18.2,16.2-18.2,16.2L403.2,220.7z"/>
				<path class="st24" d="M363.5,272.4c-5.6,1.9-36.7-45.9-36.7-45.9c-12-13.8-1.2-59.3,9.6-43.4c0,0,28.3,51.1,31.3,55.3
					C371.6,243.5,384.2,265.4,363.5,272.4z"/>
				<polygon class="st22" points="246.6,319.8 218.7,531.2 254.8,537.7 284.7,401.1 321.6,539.8 350.6,533.3 328.5,319.8 				"/>
				<path class="st24" d="M328.5,319.8h-81.9c0,0-6.3-2.8-0.8-14.9c2-4.5,1.2-16.1,0.8-32.1c-0.7-31.5-10.1-83.9,1.5-89.9
					c6.9-3.6,21.6-8.4,32.3-11.6c0.6-0.2,1.3-0.4,1.9-0.6c6.2-1.9,10.7-3.1,10.7-3.1c5.3,1,10.5,2.2,15.6,3.9l1.8,0.5
					c2.7,0.8,5.8,1.8,9.1,3c18.3,6.2,16.3,4,18.7,26.9C340.1,220.2,328.5,319.8,328.5,319.8z"/>
				<path class="st24" d="M310.4,172.1c-0.2,3.7-1.9,7.3-4.6,9.8c-6,5.7-15.5,5.5-21.2-0.5c-2.6-2.7-4-6.3-4.1-10
					c0.6-0.2,1.3-0.4,1.9-0.6c6.2-1.9,10.7-3.1,10.7-3.1c5.3,1,10.5,2.2,15.6,3.9L310.4,172.1z"/>
				<path class="st21" d="M308.6,139.3l-1.3,24.9l-0.4,7.1c-0.3,6.3-5.7,11.1-12,10.7c-6.1-0.3-10.9-5.5-10.7-11.6l0.3-12.7
					l0.5-21.1L308.6,139.3z"/>
				<path class="st25" d="M308.6,144.3l-1.3,23.5c-11,0.4-19.1-4-22.8-10l0.5-16.1L308.6,144.3z"/>
				<path class="st26" d="M277.7,114.9c0,0-10.6-1.3-9.4,11.9c0.9,10.3,14.9,24,14.9,24S292.1,119.9,277.7,114.9z"/>
				<path class="st27" d="M320.9,124.5c-0.8,1.6-1.7,3.1-2.7,4.6c-1,1.5-1.5,3.3-1.4,5.1c-0.2-2.9-2.1-5.3-3.7-7.7s-3.1-5.3-2.4-8
					s5.6-6.9,8.5-5.2C322.4,115.2,322.2,121.6,320.9,124.5z"/>
				<path class="st23" d="M317.3,125c0.5,5.7,0.4,11.4-0.3,17.1c-1.3,10.4-0.8,22.6-16.2,23.4c-16.3,0.9-21.8-17.4-21.8-17.4
					s-8.7-1.6-9.3-7.5s5.5-6.2,7.5-4.6c0,0,2.2-21.9,22.5-21.9C317.5,114.2,317.3,125,317.3,125z"/>
				<path class="st26" d="M298.1,141.7c0,0.9-0.7,1.6-1.6,1.6s-1.6-0.7-1.6-1.6c0-0.9,0.7-1.6,1.6-1.6l0,0
					C297.4,140.1,298.1,140.8,298.1,141.7L298.1,141.7z"/>
				<path class="st26" d="M312.8,141.7c0,0.9-0.7,1.6-1.6,1.6s-1.6-0.7-1.6-1.6c0-0.9,0.7-1.6,1.6-1.6l0,0
					C312,140.1,312.8,140.8,312.8,141.7L312.8,141.7z"/>
				<path class="st28" d="M290.6,136.1c1.7-2.4,4.7-3.5,7.5-2.5"/>
				<path class="st28" d="M306.9,133.5c0,0,3.7-3.4,7.3,0.3"/>
				<path class="st29" d="M303.7,137.5c0,0,1.8,4.5,3.2,7.2s-2.9,4-2.9,4"/>
				<path class="st29" d="M297.8,153.8c2.2,2,5.5,2.6,8.2,1.4"/>
				<path class="st29" d="M277,142.5c0,0,0-5-3.8-3.7"/>
				<path class="st26" d="M281.9,119.1c0,0,9.2,9.4,4.2,12.9c-3.3,2.3-5.6,5.7-6.5,9.6c0,0,0.1-2-2.4-5.6S269.3,119.5,281.9,119.1z"
					/>
				<path class="st24" d="M363.5,272.4c6.7,4.4,57.5-49.9,57.5-49.9l-9-11.8c0,0-38.6,24.2-44.2,27.7
					C359.8,243.3,341.1,257.7,363.5,272.4z"/>
				<path class="st22" d="M246.6,551.9c0,0,7.7,12.4,1.9,14.7s-43.8,2.4-53.2,1s21-14.3,27.9-16.3S232.4,559.8,246.6,551.9z"/>
				<polygon class="st30" points="284.7,401.1 294.6,356.3 290.4,422.6 				"/>
				<path class="st31" d="M336.5,240.8c0,0,2.3-24.8,1.9-32.7c2,13.2,3.1,26.6,3.3,40L336.5,240.8z"/>
				<path class="st24" d="M250.8,232.4c0,0,11.9-50.9-0.8-50.3c0,0-4.1,0.5-12.3,13.1c-5.7,8.8-11.9,24.1-23.2,48.9
					c-5.4,11.7-12.1,27.6,0.4,28.5c6.7,0.5,13.8-3.2,17.9-11C240.4,247.5,250.8,232.4,250.8,232.4z"/>
				<path class="st32" d="M261.4,295.7l64.7-15.2C326.1,280.5,305.7,295.7,261.4,295.7z"/>
				<path class="st31" d="M244,242.6c0,0,10.4-18.5,16-27.5l-13,70.7C247,285.8,245.7,256.9,244,242.6z"/>
				<polygon class="st31" points="285.6,266.7 246.9,284.8 248.9,266.2 				"/>
				<path class="st3" d="M309.3,268.7h-13.6c-2.4,0-4.4-2-4.4-4.4c0-0.3,0-0.5,0.1-0.8l6.4-34.9c0.4-2.1,2.2-3.6,4.3-3.6h13.6
					c2.4,0,4.4,2,4.4,4.4c0,0.3,0,0.5-0.1,0.8l-6.4,34.9C313.3,267.2,311.5,268.7,309.3,268.7z"/>
				<path class="st16" d="M311,270.2h-13.6c-2.4,0-4.4-2-4.4-4.4c0-0.3,0-0.5,0.1-0.8l6.4-34.9c0.4-2.1,2.2-3.6,4.4-3.6h13.6
					c2.4,0,4.4,2,4.4,4.4c0,0.3,0,0.5-0.1,0.8l-6.4,34.9C315,268.7,313.2,270.2,311,270.2z"/>
				<path class="st24" d="M303.7,239.7h-2.4c-0.5,0-0.8-0.4-0.8-0.8c0-0.1,0-0.1,0-0.2l1.6-8.5c0.1-0.4,0.4-0.7,0.8-0.7h2.4
					c0.5,0,0.8,0.4,0.8,0.8c0,0.1,0,0.1,0,0.2l-1.6,8.5C304.4,239.4,304.1,239.7,303.7,239.7z"/>
				<path class="st23" d="M272.9,251.3c3.9-0.2,7.9-0.8,11.7-1.8c2.2-0.7,6.5-1.4,7.9-3.5s1.3-6.6,2.8-6.8c1.1-0.1,3.3,3.4,2.8,5.8
					s-0.8,3.6-1.7,4.6c-0.3,0.4,9,1,15-0.3c4.1-0.9,2.9,3.1,0.1,4.4c0.5,1.2-0.1,2.6-1.4,3.1c-0.2,0.1-0.4,0.1-0.5,0.1
					c0,0,0,3.3-2.7,3.4c-0.4,1.5-1.7,2.7-3.2,3c-4.6,0.9-9.3,1.2-13.9,0.7c-2.7-0.2-15,1.9-15,1.9L272.9,251.3z"/>
				<path class="st24" d="M214.4,272.7c9.4,1.6,65.8-4.7,65.8-4.7l-1.4-19.7c0,0-45.9,2.1-52,1.6
					C206.5,248.1,202.6,270.7,214.4,272.7z"/>
				<path class="st26" d="M284.2,104.3c0.9-1.1,2.1-1.8,3.4-2.2c1.4-0.2,2.9,1.1,2.5,2.4c4.6-2,9.5-3.5,14.4-4.5
					c1.2-0.4,2.5-0.3,3.7,0.1c1.1,0.5,1.9,2.1,1.1,3.1c2.4,0.9,5.1,0.3,7.6,0s5.5-0.2,7.2,1.7s1.6,4.4,1.6,6.8
					c0,3.3-0.3,6.5-0.9,9.7c-1.1,4.7-3.6,9-7.2,12.3c1.1-3.7-0.9-7.7-3.9-10.1s-6.9-3.3-10.7-3.7c-4.6-0.5-9.2-0.4-13.7,0.3
					c-3.4,0.6-8.3,3-11.7,1.4C270.1,118.4,281.3,107.2,284.2,104.3z"/>
			</g>
		</g>
	</g>
</g>
<path class="st33" d="M353.2,102.6h47c3.6,0,6.5,2.9,6.5,6.5v19.7c0,3.6-2.9,6.5-6.5,6.5h-47c-3.6,0-6.5-2.9-6.5-6.5v-19.6
	C346.7,105.6,349.6,102.6,353.2,102.6z"/>
<polygon class="st33" points="356.8,133.3 356.8,142.3 366.4,132.6 "/>
<circle class="st16" cx="360.5" cy="119" r="3.8"/>
<circle class="st16" cx="376.8" cy="119" r="3.8"/>
<circle class="st16" cx="393" cy="119" r="3.8"/>
<polygon class="st21" points="529.6,391.3 527.5,417.2 538.5,417.2 544.3,391.3 "/>
<path class="st34" d="M539.7,411.8c0,0,4.8,7.8,1.2,9.1s-27.3,1.5-33.2,0.6s13-8.9,17.4-10.1S530.9,416.7,539.7,411.8z"/>
<polygon class="st21" points="587.7,391.3 589.8,417.2 578.8,417.2 573,391.3 "/>
<path class="st34" d="M577.6,411.8c0,0-4.8,7.8-1.2,9.1s27.3,1.5,33.2,0.6s-13.1-8.9-17.4-10.1S586.4,416.7,577.6,411.8z"/>
<path class="st35" d="M527.4,249.6l-5,155.3h23.3l5-103.5l20,106.4l25.4-4.2c0,0-22.9-116.1-26.8-154.1h-41.9V249.6z"/>
<polygon class="st36" points="550.7,301.5 547.7,279.5 549.5,317.8 "/>
<line class="st37" x1="561.8" y1="249.6" x2="588.8" y2="404.6"/>
<path class="st26" d="M556.2,135.1c5,0,10.3,2.6,12,7.3c1.3,3.6,0.3,7.9,2.1,11.2c1.3,2.5,4,4.1,5.2,6.7c2.5,5.3-2.4,11.6-0.8,17.3
	c1.4,5.2,7.9,8.2,8.5,13.6c0.3,3.4-2.1,6.8-5.2,8.3s-6.8,1.5-10.2,0.9c-8.4-1.4-16.3-6-24.8-5.6c-3.5,0.2-7.2,1.2-10.4-0.1
	c-2.3-1-4-3-5.5-5c-1.7-2.3-3.3-5-3.2-7.8c0.2-4.2,4-7.1,6.3-10.7c2.4-3.7,3.3-8.1,2.7-12.4c-3.1-20.2,8.3-19.6,9.7-19.6
	s5.8-2.8,7.5-3.2C552.1,135.5,554.1,135.2,556.2,135.1z"/>
<path class="st23" d="M502.8,219.9c-4.8-3.8-24.4-16.8-24.6-18.6c-0.4-3.4-1.5-6.1-8.8-8.4c-0.3,0.8-0.2,1.7,0.4,2.3
	c0.6,0.7,1.2,1.3,2,1.7c0,0-1.9,0.7-4.8-1.6s-4-4.2-5.3-3.8c0,0-1.4-1.3-2.1-1.1c-0.3,0.1-0.5,0.4-0.4,0.7c-1.1-0.2-0.9,3.1,1,5.7
	c2.8,3.8,7.9,6.7,10.8,7.9c2.2,0.8,16.6,22.2,26.3,24.5C500.1,229.8,505,221.7,502.8,219.9z"/>
<path class="st23" d="M517.9,200.9c0,0-21.6,15.1-23.7,18.8s-0.5,13.8,9.1,7.3s24.8-18.1,24.8-18.1L517.9,200.9z"/>
<path class="st38" d="M529,187.2c-3.8,1.1-7.2,3.3-9.9,6.2l-8.7,10.3l16.4,12.8C526.9,216.5,530.9,193.3,529,187.2z"/>
<path class="st38" d="M569.3,249.6h-41.9c-0.1-6.2-0.8-12.3-2.2-18.4c-2.3-11.2-1.2-17,1.2-22.8s-1.8-19.3,2.7-21.2
	c1.8-0.8,5-2,8.1-3.2l2.3-0.9c3.6-1.4,6.7-2.6,6.7-2.6h7.5c0,0,5.2,1.7,10.5,3.9l2.1,0.9l0,0c2.4,1,4.8,2.1,7,3.4
	C579,192.1,569.3,249.6,569.3,249.6z"/>
<path class="st23" d="M543.6,162l0.8,15.5l0.2,4.4c0.3,3.9,3.7,6.8,7.6,6.5c3.7-0.3,6.6-3.4,6.6-7.1l-0.2-7.9l-0.3-13.1L543.6,162z"
	/>
<path class="st25" d="M543.6,162l0.8,14.6c6.9,0.3,11.9-2.5,14.2-6.2l-0.3-10L543.6,162z"/>
<path class="st23" d="M538.2,149.9c-0.3,3.5-0.2,7.1,0.2,10.6c0.8,6.5,1.5,13.9,10.1,14.6c10.2,0.8,13.5-10.9,13.5-10.9
	s4.7-1.1,5.3-4.3c0.4-1.5-0.6-3.1-2.1-3.5c-0.7-0.2-1.4-0.1-2.1,0.3c0,0-1.4-13.6-14-13.6C538,143.2,538.2,149.9,538.2,149.9z"/>
<path class="st35" d="M566.4,185.2L566.4,185.2c-8.6,10.5-18.7,10-18.7,10c-8-1.8-10.5-11.2-10.5-11.2l2.3-0.9
	c3.6-1.4,6.7-2.6,6.7-2.6h7.5c0,0,5.2,1.7,10.5,3.9L566.4,185.2z"/>
<path class="st23" d="M564.3,184.4c-8.8,9.5-16.4,8.5-16.4,8.5c-8.2-3.1-8.4-9.8-8.4-9.8c3.6-1.4,6.7-2.6,6.7-2.6h7.5
	C553.8,180.5,558.9,182.2,564.3,184.4z"/>
<path class="st26" d="M542.5,140.3c0,0,1.2,9.9-5.2,13.1C537.4,153.4,534.2,141.4,542.5,140.3z"/>
<path class="st26" d="M540.6,141.2c0,0,2.2,8.6,7.8,9.1s4.6,5,9.5,5.5c2.9,0.3,4.2,3.4,4.2,3.4c0.3-1.8,1.5-3.3,3.1-4.1
	C568,154,559,131.3,540.6,141.2z"/>
<path class="st26" d="M550.1,161.9c0,0.6,0.4,1,1,1s1-0.4,1-1s-0.4-1-1-1S550.1,161.3,550.1,161.9z"/>
<path class="st26" d="M541.3,161.9c0,0.6,0.4,1,1,1s1-0.4,1-1s-0.4-1-1-1S541.3,161.3,541.3,161.9z"/>
<path class="st39" d="M554.6,158.5c-1-1.5-2.8-2.1-4.5-1.5"/>
<path class="st39" d="M544.8,156.9c-1.3-1.2-3.2-1.1-4.4,0.2"/>
<path class="st40" d="M546.8,159.3c0,0-1,2.7-1.9,4.4s1.7,2.4,1.7,2.4"/>
<path class="st40" d="M552.6,168c-1.1,1.5-2.9,2.2-4.7,1.8"/>
<path class="st40" d="M563.1,161.2c0,0,0-3,2.3-2.2"/>
<path class="st41" d="M528.2,239.7h-38.4c-0.8,0-1.4-0.6-1.4-1.4l0,0l0,0c0-0.8,0.6-1.4,1.4-1.4l0,0h38.4c0.8,0,1.4,0.6,1.4,1.4l0,0
	l0,0C529.6,239,529,239.7,528.2,239.7z"/>
<path class="st3" d="M531.1,236.9h-38.8l-7.4-29.7c-0.3-1.1,0.4-2.2,1.4-2.4c0.2,0,0.4-0.1,0.6-0.1h34.6c0.9,0,1.8,0.6,2,1.5
	L531.1,236.9z"/>
<path class="st24" d="M528.5,236.9h-38.8l-7.4-29.7c-0.3-1.1,0.4-2.2,1.4-2.4c0.2,0,0.4-0.1,0.6-0.1h34.6c0.9,0,1.8,0.6,2,1.5
	L528.5,236.9z"/>
<path class="st42" d="M528.9,236.9H558c0.7,0,1.3,0.6,1.3,1.3v0.2c0,0.7-0.6,1.3-1.3,1.3h-29.1c-0.7,0-1.3-0.6-1.3-1.3v-0.2
	C527.6,237.5,528.2,236.9,528.9,236.9z"/>
<path class="st3" d="M506.8,218.9c0.7,1.8,0.1,3.8-1.3,4.3s-3.2-0.5-3.9-2.3s-0.1-3.8,1.3-4.3S506.1,217.1,506.8,218.9z"/>
<polygon class="st43" points="571.4,236.9 568.9,204.3 573.7,218 "/>
<path class="st23" d="M571.7,207.6c0,0,6,32.1,7.5,37.4c1,3.4,7.9,5.7,10.1,1.2c0.5-1,0.4-2.6,0.3-4.3c-0.3-10.4-7.6-36.8-7.6-36.8
	L571.7,207.6z"/>
<path class="st38" d="M573.4,188.6c0,0,3.6,1.8,6.6,7s7.1,14.3,6.9,16.5c-1.6,4.2-13.9,8.6-13.9,8.6S564.7,193.7,573.4,188.6z"/>
<path class="st23" d="M580.3,238.8c0,0-19-0.4-22.6-2.6c-4.9-2.9-6-1.6-8.8-2.4c-4.5-1.1-4-0.2-4-0.2s0.2,2.6,3.7,3
	c1.8,0.2,4.4,0.9,3.9,1.4c0,0-14.1,1.5-16.9,1.7s-1.5,2.4,0.7,2.9c0.8,1,2.1,1.4,3.4,1.1c0,0-0.5,0.9,5,0.9s10.9-2.9,13.6-1.6
	s17.6,7,27,5.7c4.5-0.6,4.5-2.8,4.5-5.1C589.7,239.7,586.8,239.2,580.3,238.8z"/>
<polygon class="st21" points="186.3,391.3 180,417.2 169,417.2 171.7,391.3 "/>
<path class="st44" d="M167.8,411.8c0,0-4.8,7.8-1.2,9.1s27.3,1.5,33.1,0.6s-13.1-8.9-17.4-10.1S176.7,416.7,167.8,411.8z"/>
<polygon class="st21" points="151.5,391.3 147.7,417.2 136.7,417.2 136.9,391.3 "/>
<path class="st44" d="M135.5,411.8c0,0-4.8,7.8-1.2,9.1s27.3,1.5,33.1,0.6s-13.1-8.9-17.4-10.1S144.3,416.7,135.5,411.8z"/>
<path class="st24" d="M132.9,266l0.8,138.3h17.6l12.4-101.6l14.1,41.2l-10.6,60.4h19.1c0,0,16.8-52.2,16.1-62.4s-20-80.1-20-80.1
	L132.9,266z"/>
<polygon class="st31" points="163.7,302.7 165.5,283.8 167.7,314.3 "/>
<line class="st45" x1="142.8" y1="264.3" x2="141.8" y2="404.3"/>
<path class="st23" d="M196.5,202.7c0,0,11.3,21.4,11.6,28s-7,5.1-10.8-0.8s-9.8-22.8-9.8-22.8L196.5,202.7z"/>
<path class="st38" d="M198.7,204.5c-2.7,4.1-6.5,7.3-11,9.3c-1.6,0.7-3-1.2-4-3.5c-0.8-1.9-1.4-3.8-1.9-5.8c0,0-8.9-27.6-1.1-26.6
	c0,0,6.7,0.5,11.6,10.2c1.9,4.1,3.5,8.2,4.9,12.5C197.8,201.9,198.3,203.2,198.7,204.5z"/>
<path class="st46" d="M198.7,204.5c-2.7,4.1-6.5,7.3-11,9.3c-1.6,0.7-3-1.2-4-3.5c5.2-2.3,9.8-5.7,13.6-9.8
	C197.8,201.9,198.3,203.2,198.7,204.5z"/>
<path class="st38" d="M182.8,263.3c-4.9,5.6-37.5,4.8-49.8,2.7c-2.2-0.4-4.3-1.2-0.9-8.7c1.3-2.8,0.7-10,0.5-20
	c-0.4-19.6-6.3-52.2,0.9-56c4.3-2.2,13.5-5.2,20.1-7.2l1.2-0.4c3.9-1.2,6.6-1.9,6.6-1.9c3.3,0.6,6.5,1.4,9.7,2.4l1.1,0.3
	c1.7,0.5,3.6,1.1,5.7,1.8c4.1,1.4,7.1,2.2,7.8,3.6c1.9,3.6,1.2,9.9,1.3,19C187.3,210.4,187.2,258.3,182.8,263.3z"/>
<polygon class="st43" points="131,215.1 138.1,197.9 132.9,242 "/>
<path class="st46" d="M172.3,174.5c-0.2,2.3-1.2,4.5-2.9,6.1c-3.7,3.6-9.7,3.4-13.2-0.4c-1.6-1.7-2.5-3.9-2.6-6.2l1.2-0.4
	c3.9-1.2,6.6-1.9,6.6-1.9c3.3,0.6,6.5,1.4,9.7,2.4L172.3,174.5z"/>
<path class="st26" d="M151.9,138.9c0,0-4.2,0.4-5.8,7.4c-1.7,7.2,7.1,19.1,10.4,18.4C156.5,164.7,160.9,142,151.9,138.9z"/>
<path class="st26" d="M178.8,144.9c-0.5,1-1.1,1.9-1.7,2.9c-0.6,0.9-0.9,2-0.9,3.2c-0.1-1.8-1.3-3.3-2.3-4.8s-2-3.3-1.5-5
	s3.5-4.3,5.3-3.2C179.8,139.1,179.6,143.1,178.8,144.9z"/>
<path class="st21" d="M171.2,154.1l-0.9,15.5l-0.2,4.4c-0.2,3.8-3.3,6.7-7.1,6.7c-3.9,0-7.1-3.2-7.1-7.1c0-0.1,0-0.1,0-0.2l0.2-7.9
	l0.3-13.1L171.2,154.1z"/>
<path class="st25" d="M171.2,157.2l-0.9,14.6c-6.9,0.3-11.9-2.5-14.2-6.2l0.3-10L171.2,157.2z"/>
<path class="st23" d="M176.6,145.2c0.3,3.6,0.2,7.1-0.2,10.7c-0.8,6.5-0.5,14.1-10.1,14.6c-10.2,0.5-13.6-10.9-13.6-10.9
	s-5.4-1-5.8-4.7s3.4-3.9,4.6-2.8c0,0,1.4-13.6,14-13.6C176.7,138.5,176.6,145.2,176.6,145.2z"/>
<path class="st26" d="M165,155c0,0.6-0.4,1-1,1s-1-0.4-1-1s0.4-1,1-1S165,154.4,165,155z"/>
<path class="st26" d="M174.7,154.5c0,0.6-0.4,1-1,1s-1-0.4-1-1s0.4-1,1-1S174.7,153.9,174.7,154.5z"/>
<path class="st39" d="M160,152.1c1-1.5,2.9-2.2,4.7-1.6"/>
<path class="st39" d="M170.1,150.5c1.3-1.2,3.3-1.1,4.5,0.2l0,0"/>
<path class="st40" d="M168.1,153c0,0,1.1,2.8,2,4.5s-1.8,2.5-1.8,2.5"/>
<path class="st40" d="M164.5,163.1c1.4,1.3,3.4,1.6,5.1,0.9"/>
<path class="st40" d="M151.5,156.1c0,0,0-3.1-2.4-2.3"/>
<path class="st26" d="M154.6,141.6c0,0,5.7,5.8,2.6,8.1c-2,1.4-3.5,3.6-4,6c0,0,0.1-1.2-1.5-3.5S146.7,141.8,154.6,141.6z"/>
<path class="st26" d="M152.8,141.9c-1.9-3-0.5-8.6,5.5-9.5s10.1,0.4,12.4-3.7c2.3-4.1,9-6.6,11-0.7c2,5.9-2.6,14.9-8.4,14.6
	s-5.5-1-9.2,1.2S155.9,146.8,152.8,141.9z"/>
<path class="st23" d="M123.3,203.8c0,0-11.3,21.4-11.6,28s7,5.1,10.8-0.8c3.8-5.9,9.8-22.8,9.8-22.8L123.3,203.8z"/>
<path class="st23" d="M204.1,223.4l-17.9-13.2c-1.6-1.2-4-3-4.9-3.6c-1.4-0.9-9.3-2.3-10.4-2.1c-1.7,0.2-3.4,0.6-5.1,1
	c-0.9,0.3,0.2,1.5,1.1,2c2.5,1.4,5.2,2.5,8.1,3.2c1.7,0.4,3.3,1.1,4.7,2.2c1,0.7,18.8,18.9,19.5,19.4L204.1,223.4z"/>
<path class="st23" d="M183.1,208.1c0,0-6.4-5.9-7.3-5.9s-0.3,1.4,2.2,3.5c0.8,0.8,1.6,1.5,2.5,2.1
	C181.4,208.3,182.3,208.4,183.1,208.1z"/>
<path class="st3" d="M178.1,230.1l-23.2,2.8c-1.1,0.1-2-0.6-2.1-1.7c0-0.2,0-0.5,0.1-0.7l5.5-21.3c0.2-0.8,0.9-1.3,1.6-1.4l23.2-2.8
	c1.1-0.1,2,0.6,2.1,1.7c0,0.2,0,0.5,0,0.7l-5.6,21.3C179.5,229.4,178.9,230,178.1,230.1z"/>
<path class="st16" d="M179.1,230.8l-23.2,2.8c-1.1,0.1-2-0.6-2.1-1.7c0-0.2,0-0.5,0.1-0.7l5.5-21.3c0.2-0.8,0.8-1.3,1.6-1.4
	l23.2-2.8c1.1-0.1,2,0.6,2.1,1.7c0,0.2,0,0.5,0,0.7l-5.6,21.3C180.5,230.1,179.9,230.7,179.1,230.8z"/>
<path class="st24" d="M161.8,214.3l1.1-4.2c0.1-0.3-0.1-0.7-0.4-0.8c-0.1,0-0.1,0-0.2,0l-1.1,0.1c-0.2,0-0.5,0.2-0.5,0.4l-1.1,4.2
	c-0.1,0.3,0.1,0.7,0.4,0.8c0.1,0,0.1,0,0.2,0l1.1-0.1C161.5,214.7,161.7,214.5,161.8,214.3z"/>
<path class="st23" d="M116,225.5c7.1,0.3,29.2-0.2,32.1-1.2c1.3-0.4,4.4-1.1,5.1-2.3s1.5-3.1,2.3-3.3c0.6-0.1,0.5,2,0.3,2.7
	c-0.2,1-0.5,1.9-1.1,2.7c-0.1,0.2,5.3,1,8.7,0.1c2.4-0.6,1.9,1.3,0.3,2.1c0.4,0.8,0,1.8-0.8,2.1c-0.1,0-0.1,0-0.2,0.1
	c0,0,0.3,1.8-1.3,2c-0.4,0.8-1.1,1.4-2,1.6c-2,0.6-5.5,0.6-8.1,0.7c-1.6,0.1-31.7,4.8-37,3.4C112.1,235.6,113.7,225.4,116,225.5z"/>
<path class="st38" d="M136.3,206.7c0,0-0.5,2-1.3,4c-0.9,2.2-2,4.5-3.2,4.3c0,0-15.6-4.9-15.1-6.5c0.5-1.5,1.2-3,1.9-4.5
	c2.6-5.4,6.7-12.4,8.4-15.1c5.7-9.3,8-8.1,8-8.1C142.9,180.4,136.3,206.7,136.3,206.7z"/>
<path class="st46" d="M135,210.7c-0.9,2.2-2,4.5-3.2,4.3c0,0-15.6-4.9-15.1-6.5c0.5-1.5,1.2-3,1.9-4.5
	C123.9,206.6,129.4,208.8,135,210.7z"/>
<path class="st43" d="M140,254.5c0,0,26-4.2,40-12.5C169.1,251.8,154.5,256.3,140,254.5z"/>
<path class="st38" d="M396.6,308.9h67.7c3.3,0,6,2.7,6,6v32.7c0,3.3-2.7,6-6,6h-67.6c-3.3,0-6-2.7-6-6v-32.7
	C390.6,311.6,393.3,308.9,396.6,308.9z"/>
<path class="st47" d="M397.8,342c6.3,0,6.3-7.5,12.6-7.5s6.3-10,12.6-10s6.3,3.8,12.6,3.8s6.3-9.2,12.6-9.2s6.3,14.5,12.6,14.5"/>
<path class="st15" d="M399.6,342c0-1-0.8-1.8-1.8-1.8S396,341,396,342s0.8,1.8,1.8,1.8l0,0C398.8,343.9,399.6,343.1,399.6,342z"/>
<path class="st15" d="M462.6,333.6c0-1-0.8-1.8-1.8-1.8s-1.8,0.8-1.8,1.8s0.8,1.8,1.8,1.8l0,0C461.8,335.5,462.6,334.7,462.6,333.6z
	"/>
<path class="st38" d="M140.8,117.7H73.3c-4.5,0-8.2-3.7-8.2-8.2V88.9c0-4.5,3.7-8.2,8.2-8.2h67.5c4.5,0,8.2,3.7,8.2,8.2v20.6
	C149,114,145.3,117.7,140.8,117.7z"/>
<polygon class="st38" points="138.9,115.6 138.9,124.6 129.3,114.9 "/>
<line class="st48" x1="72.8" y1="89.8" x2="91.5" y2="89.8"/>
<line class="st48" x1="98.2" y1="89.8" x2="141.2" y2="89.8"/>
<line class="st48" x1="72.8" y1="99.2" x2="107.7" y2="99.2"/>
<line class="st48" x1="113.1" y1="99.2" x2="123.4" y2="99.2"/>
<line class="st48" x1="128.9" y1="99.2" x2="141.2" y2="99.2"/>
<line class="st48" x1="72.8" y1="108.6" x2="80.7" y2="108.6"/>
<line class="st48" x1="85.6" y1="108.6" x2="114.1" y2="108.6"/>
<path class="st38" d="M476.2,66.3h17.3c3.2,0,5.8,2.6,5.8,5.8v17.4c0,3.2-2.6,5.8-5.8,5.8h-17.3c-3.2,0-5.8-2.6-5.8-5.8V72.2
	C470.4,68.9,473,66.3,476.2,66.3z"/>
<ellipse transform="matrix(0.1602 -0.9871 0.9871 0.1602 333.7336 784.0556)" class="st33" cx="627.6" cy="195.9" rx="20" ry="20.1"/>
<ellipse transform="matrix(0.2297 -0.9733 0.9733 0.2297 292.9086 761.678)" class="st49" cx="627.6" cy="195.8" rx="11.3" ry="11.3"/>
<polyline class="st47" points="627.6,188.5 627.6,195.9 623.7,199.8 "/>
<line class="st47" x1="627.6" y1="184.6" x2="627.6" y2="185.7"/>
<line class="st47" x1="627.6" y1="206.1" x2="627.6" y2="207.1"/>
<line class="st47" x1="638.8" y1="195.9" x2="637.8" y2="195.9"/>
<line class="st47" x1="617.4" y1="195.9" x2="616.3" y2="195.9"/>
<line class="st12" x1="51.6" y1="422.1" x2="674.1" y2="422.1"/>
<path class="st47" d="M488.8,79.6c0,3.2-2.6,5.8-5.7,5.8s-5.8-2.6-5.8-5.7c0-3.2,2.6-5.8,5.7-5.8l0,0
	C486.2,73.9,488.8,76.4,488.8,79.6z"/>
<line class="st47" x1="487.2" y1="83.6" x2="491.3" y2="87.6"/>
</svg>
