<?xml version="1.0" encoding="utf-8"?>
<!-- Generator: Adobe Illustrator 25.3.0, SVG Export Plug-In . SVG Version: 6.00 Build 0)  -->
<svg version="1.1" id="Layer_1" xmlns="http://www.w3.org/2000/svg" xmlns:xlink="http://www.w3.org/1999/xlink" x="0px" y="0px"
	 viewBox="0 0 736.6 500" style="enable-background:new 0 0 736.6 500;" xml:space="preserve">
<style type="text/css">
	.st0{fill:none;stroke:#6CA7B5;stroke-width:2;stroke-linecap:round;stroke-linejoin:round;}
	.st1{opacity:0.86;}
	.st2{opacity:0.23;}
	.st3{opacity:0.47;}
	.st4{fill:#93BAE2;}
	.st5{opacity:0.41;}
	.st6{fill:#CAC7F7;}
	.st7{opacity:0.46;}
	.st8{opacity:0.47;fill:#93BAE2;}
	.st9{opacity:0.22;fill:#5956C4;}
	.st10{fill:#FFFFFF;}
	.st11{opacity:0.65;fill:#93BAE2;}
	.st12{opacity:0.83;fill:#FFE0DE;}
	.st13{opacity:0.65;}
	.st14{opacity:0.83;}
	.st15{fill:#FFE0DE;}
	.st16{clip-path:url(#SVGID_2_);}
	.st17{fill:#15233C;}
	.st18{fill:#1E1436;}
	.st19{opacity:0.19;fill:#FFFFFF;}
	.st20{opacity:0.46;fill:#FC6969;}
	.st21{fill:#FDA496;}
	.st22{opacity:0.5;fill:#FC6969;}
	.st23{fill:#FC6969;}
	.st24{fill:#FF7E8B;}
	.st25{clip-path:url(#SVGID_4_);fill:#FF7E8B;}
	.st26{fill:#F3F3F3;}
	.st27{fill:#FD9A9A;}
	.st28{opacity:0.1;fill:#FFFFFF;}
	.st29{opacity:0.57;fill:#FC6969;}
	.st30{fill:#7A94AB;}
	.st31{opacity:0.74;fill:#FF7E8B;}
	.st32{fill:#FD9198;}
	.st33{fill:#FFCAD0;}
	.st34{fill:none;}
	.st35{opacity:0.44;}
	.st36{fill:#353148;}
	.st37{opacity:0.47;fill:#DFE0FC;}
</style>
<line class="st0" x1="379.7" y1="601.8" x2="385.8" y2="607.8"/>
<line class="st0" x1="385.8" y1="601.8" x2="379.7" y2="607.8"/>
<g>
	<g class="st1">
		<g>
			<g>
				<g class="st2">
					<g class="st3">
						<path class="st4" d="M618,255.7c-3.9-90.1-97.8-144.3-180.7-125.5c-20.4,3.5-40.6,9.7-61.4,7.8
							C304.5,123.5,253.4,60,169.9,79.6c-45.4,9.6-82.7,46.1-87.1,94.5c-2,21.9,18.5,60.5,12,81.3C62.2,316.9,8.9,400.7,69.3,478.9
							c64.9,0,402.5,0,460.6,0c39.5,0.1,67.3-40.3,53.8-78.4C572.7,358.6,628.1,336.2,618,255.7z"/>
					</g>
				</g>
				<g class="st5">
					<path class="st6" d="M41.1,263c-14-30,29.9-51.1,46.1-26.6c5.5,12.1-11,22.4-17.7,33.6C60.1,285.6,46.6,275,41.1,263z"/>
				</g>
				<g class="st5">
					<path class="st6" d="M496.2,28.3c4.7-27.1,45.8-20,44.5,4.6c-2.2,10.9-18.5,9.8-28.6,14.1C498,53.1,493.9,39.2,496.2,28.3z"/>
				</g>
				<g class="st5">
					<path class="st6" d="M626.6,413.8c14.9,11.4-4.5,37.4-18.9,28.6c-5.9-4.9,0.7-15.6,1.7-23.8
						C610.8,407.2,620.7,408.9,626.6,413.8z"/>
				</g>
				<g class="st5">
					<path class="st6" d="M638.5,125.3c-15.5,13.9-39.8-12.7-27.3-26.5c6.6-5.4,16.9,4,25.6,6.8C649,109.4,645.1,119.9,638.5,125.3z
						"/>
				</g>
				<g class="st5">
					<path class="st6" d="M404.2,92.8c13.3-22,38.6,6,30.3,22.6c-4.7,8.2-16,0.4-24.4-0.3C398.3,114.3,399.4,101,404.2,92.8z"/>
				</g>
			</g>
		</g>
		<g class="st7">
			<path class="st4" d="M541.5,444.9c4.8-28.2-2.9-52.2-4.8-79.8c-1.8-26.1,6-48.1,10.3-73C564.7,189.5,489.9,91.7,383.7,144
				c-90.1,58.9-123.1-38-220.2,8.8c-35,18.5-59.9,60.2-57,106.2c1.3,20.8,8.1,41.4,5.7,62.1c-2.4,21-12.9,38.5-18.4,58.3
				c-7.6,27-8.3,66.6,3.9,94c0,0,404.5,5.6,404.5,5.6C521.3,479.2,538.2,464.8,541.5,444.9z"/>
		</g>
		<g>
			<path class="st8" d="M460.5,356.7c-1.4-45.3-46.8-75.7-89-65.6c-10,1.8-20,5.1-30.2,4.1c-15-1.5-28.2-11.7-41.8-19.2
				C261.2,251.5,202,262.1,197,314c-1,11.4,9.1,31.6,5.9,42.5c-16.1,32.1-42.2,76.2-12.5,116.8c43.7-0.1,184,0.1,225.4,0
				c20.1,0,34.5-21,27.8-40.9C438.9,409.7,466.1,395.7,460.5,356.7z"/>
		</g>
	</g>
</g>
<g>
	<path class="st9" d="M665.2,196.7c-0.8-4.9,2.9-16.3-5.8-15.9c-2.1-0.1-96.8,0.4-98.8,0c0,0-125.3,0.2-125.3,0.2
		c-8.6-0.5-5.1,11-5.8,15.8h0c5.1,223.2-47.4,152.6,217.6,164c10,0,18.1-8.1,18.1-18L665.2,196.7L665.2,196.7z"/>
	<g>
		<g>
			<path class="st10" d="M643.1,355.5c-265-11.4-212.5,59.2-217.6-164h235.7v146.1C661.2,347.5,653.1,355.5,643.1,355.5z"/>
		</g>
		<g>
			<path class="st11" d="M431.3,175.7c55.7-0.2,169-0.1,224.1-0.2c8.9-0.5,5,12.7,5.8,17.5l-98.8-0.3l0,0.3l-136.9-0.4
				C426.3,187.8,422.5,175.3,431.3,175.7z"/>
			<path class="st10" d="M650.9,187.5c-3.5,0.1-3.5-5.5,0-5.4C654.4,182,654.4,187.5,650.9,187.5z"/>
			<path class="st10" d="M640.3,187.5c-3.5,0-3.5-5.5,0-5.4C643.8,182,643.8,187.5,640.3,187.5z"/>
			<path class="st10" d="M630,187.5c-3.5,0.1-3.5-5.5,0-5.4C633.5,182,633.5,187.6,630,187.5z"/>
		</g>
		<g>
			<rect x="447.1" y="208.3" class="st12" width="199.2" height="128.7"/>
			<g class="st13">
				<g>
					<rect x="501.3" y="220.2" class="st10" width="42.6" height="42.6"/>
					<g class="st14">
						<rect x="509.3" y="228.2" class="st15" width="26.7" height="26.7"/>
					</g>
					<g>
						<path class="st10" d="M472.4,214.6v21.2h21.2v-21.2H472.4z M477.5,219.6h11.2v11.2h-11.2V219.6z"/>
					</g>
					<g>
						<path class="st10" d="M462.7,246.5V289H490v-42.4H462.7z M466.3,252.1h20.1v31.3h-20.1V252.1z"/>
					</g>
				</g>
			</g>
		</g>
	</g>
	<g>
		<defs>
			<path id="SVGID_1_" d="M638.5,355.5H434.1c-10.3,0-18.6-8.3-18.6-18.6V123.4l241.6-7.3v220.8
				C657.1,347.2,648.8,355.5,638.5,355.5z"/>
		</defs>
		<clipPath id="SVGID_2_">
			<use xlink:href="#SVGID_1_"  style="overflow:visible;"/>
		</clipPath>
		<g class="st16">
			<g>
				<g>
					<path class="st17" d="M559.8,372.5l73.6-17.9c13.7-74,44.5-109.2-51.4-130.5l0.6,7.9l-21.8,48.3l-25.2-45.3l-0.1-1.5
						c0,0-24.8,10.9-24.8,10.9c-41.3,14.5-30.4,84.5-36.3,117.7l55.4,10.5l0,0C533.6,372.5,556.6,372.5,559.8,372.5L559.8,372.5z"/>
				</g>
				<g>
					<g>
						<g>
							<path class="st18" d="M585.3,141.5c-4.1-7.8-15.1-9-22.6-10.8c-7.5-14.3-27.3-8.2-34.5,1.4c-11.7-2.8-19,12.5-13.5,21.6
								c-11.1,20.4,25.4,26.2,21.1,3.3c0.4-0.4,0.8-0.7,1.1-1.1c3.5,2.2,8.8,1.6,11.8-1.3c1.7-0.1,3.3-0.3,4.7-0.5
								c3.5,2.8,9.5,2.5,12.6-0.7c4.8,7.3,0.6,17.3,4.7,25c1.9,2.9,7.8-2.3,7.8-2.3s1.6-2.1,2.1-2
								C588.7,172.7,588.1,147.1,585.3,141.5z"/>
							<path class="st19" d="M587.1,154.4l-19.2,2.1c0.4,1.3,0.6,2.7,0.7,4.1l18.3-2C587,157.1,587,155.6,587.1,154.4z"/>
							<path class="st19" d="M568.7,163.5c0,1.4,0,2.8,0.1,4.1l17.2-1.8c0.2-1.4,0.4-2.8,0.6-4.2L568.7,163.5z"/>
						</g>
						<polygon class="st20" points="520.2,157.4 520.2,157.4 520.4,173.9 						"/>
						<g>
							<g>
								<g>
									<path class="st21" d="M577.7,172.2c-3.1,0.2-2.4,9.5-6.3,4.4c-3.8-7.7,0.2-16.9-4.2-24.2c-3.8,5.2-12.9,4.7-16.1-0.9
										c-2.3,5.8-10.8,7.7-15.4,3.4c-3.7,4-10.3,5.7-15.5,3.6c0.1,9.8,0.5,33.8,0.7,43.8c-0.5,11,7.8,20.6,18.6,21.4
										c1.8,21.1,9,26.6,29.8,21.6c23.6-3.9,6.1-39,7.2-53.2C588.3,192.4,590.6,171.9,577.7,172.2z"/>
								</g>
								<path class="st22" d="M539.5,223.7c0,0,16.9-1.1,24-8.2c0,0-0.2,13.9-22.1,20.4L539.5,223.7z"/>
							</g>
							<g>
								<path class="st23" d="M541,210.9c2.3-1.5-5.8-3.9-6.1-0.9c0.2,0.3,0.5,0.4,0.8,0.2C538.8,208.6,540.1,210.9,541,210.9z"/>
								<g>
									<g>
										<g>
											<g>
												<g>
													<path class="st18" d="M540.9,166.2c4.1-0.3,9-0.1,13.1,0.4c2.7,2.7-2.8,5.4-6.8,5.2C543.2,171.8,538,168.8,540.9,166.2
														z"/>
												</g>
											</g>
										</g>
										<g>
											<path class="st18" d="M520.4,169.8c3.4,0.2,7.5,0.2,10.9-0.2c2.2-2.2-2.3-4.5-5.6-4.3C522.4,165.2,518,167.7,520.4,169.8
												z"/>
										</g>
									</g>
								</g>
								<path class="st23" d="M579.9,185.6c1.9-1-2.3-1.9-2.7-2.3l2.2-4.8c-0.4-3.5-3.4,5.2-3.7,5.4
									C575.8,183.9,579.8,185.7,579.9,185.6z"/>
								<path class="st18" d="M528.7,178.4c1.4,2.2-2,4.3-3.4,2.1C523.9,178.3,527.3,176.1,528.7,178.4z"/>
								<path class="st18" d="M548.9,177.3c1.4,2.2-2,4.3-3.4,2.1C544.1,177.2,547.6,175,548.9,177.3z"/>
								<path class="st10" d="M520.7,185.7c-5,0.1-4.4-6.2-4.6-9.6c-0.5-6.1,8.8-4.4,12.4-4.9c5.1-0.3,4.7,6.1,4.8,9.6
									C533.8,187,524.4,185.2,520.7,185.7z M529.2,184.7L529.2,184.7L529.2,184.7z M528.8,172.5c-2.7,0.7-11.7-1.3-11.4,3.6
									c-0.5,11.2,3.4,7.9,11.8,7.9h0c4.2-0.1,2.5-6.1,2.6-8.6C531.7,173.8,530.4,172.5,528.8,172.5z"/>
								<g>
									<path class="st23" d="M540.8,189.9c1.9-2.3-9.1,1.8-8.4-6.9c0.6-3.8,6.6-0.9,6.7-6.8c-0.2-0.1,0.9-8.4-0.6-6
										c0.5,15-4.8,5.9-6.9,12.8C531,188.7,536.3,190.3,540.8,189.9z"/>
									<path class="st23" d="M540.7,190.6c-4.9,0.5-10.3-1.6-9.7-7.6c1.9-7.7,7.6,1.8,6.9-12.8c0-1.4,2.2-1.3,2.2,0.1
										c0,0-0.2,6-0.2,6c0,3.6-3.2,5.3-6.1,5.7c-1.7,2.4,0.6,6.4,3.3,6.4c0.6,0.1,4.3-0.1,4.6,0.5
										C542.2,189.4,541.6,190.6,540.7,190.6z M540.8,189.3L540.8,189.3L540.8,189.3z"/>
								</g>
								<path class="st10" d="M533.2,177.7c-2.9-2.2,6.4-2.1,7.7-1.7C543.8,178.2,534.4,176.6,533.2,177.7z"/>
								<path class="st10" d="M544.8,184.5c-5,0.1-4.4-6.2-4.6-9.6c-0.1-2.4,1.7-4.4,4.1-4.5c2.4,0.3,11.2-1.6,13,0.6
									c2.1,1.5,1.4,6.3,1.7,8.4c0.2,2.3-1.8,4.5-4.1,4.5l0-0.7l0,0.7C554.6,184,545.1,184.5,544.8,184.5z M554.4,171.3
									c-2.7,0.8-13.3-1.4-12.9,3.6c0.4,2.5-0.8,8.6,3.4,8.3c2.6-0.8,13.2,1.4,12.7-3.6C557.3,177.1,558.4,171.1,554.4,171.3z"/>
								<path class="st10" d="M558,175.1c-4.4-1.9,16.2-3.6,15.9-4c0.8-0.1,1.1,1.2,0.2,1.3C574.1,172.4,558.2,175.1,558,175.1z"/>
								<path class="st23" d="M543.5,195.9c-3.8-3,12,0.4,10.3-5.1c1.4-2.7,1.8,2.1,0.5,2.9C553,196,545.8,195.4,543.5,195.9z"/>
							</g>
						</g>
					</g>
				</g>
				<g>
					<path class="st10" d="M537.1,252.4c25.4,59,20.5,63.4,43.3-0.2L537.1,252.4z"/>
					<polygon class="st24" points="548.7,258.8 560.6,274.8 569.4,256.7 557.3,244.6 					"/>
					<g>
						<defs>
							<path id="SVGID_3_" d="M537.1,252.4c25.4,59,20.5,63.4,43.3-0.2L537.1,252.4z"/>
						</defs>
						<clipPath id="SVGID_4_">
							<use xlink:href="#SVGID_3_"  style="overflow:visible;"/>
						</clipPath>
						<path class="st25" d="M555.1,267.9l-4.7,45.8c-0.1,0.7,0.1,1.5,0.4,2.2l11.7,21.3c1.5,2.8,5.6,2.4,6.7-0.5
							c0.2-1.2,9.5-24.8,8.3-25.4c0,0-12.7-44.2-12.7-44.2C563.6,262.8,555.5,263.6,555.1,267.9z"/>
					</g>
					<g>
						<path class="st26" d="M532.6,229.2c-6.6,21.8-4.4,13.8,11.7,30.6c1.1,1.5,3,1.5,3.9-0.2l9.6-14.6l-21.3-18.2
							C534.9,225.4,532.5,226.8,532.6,229.2z"/>
						<path class="st26" d="M581.4,219.3l-26.1,26.1l18.4,14.8c1.8,1.3,4.6,0.8,5.9-1c1.2-3.3,17.6-21.3,13.9-25.1
							c0,0-9-14.5-9-14.5C583.9,218.6,582.3,218.5,581.4,219.3z"/>
					</g>
				</g>
			</g>
			<g>
				<g>
					<g>
						<path class="st17" d="M426,262.5l22.3,80.4c0.7,2.6,3.4,4.3,6.1,3.7l42.1-8.4c2.9-0.6,4.7-3.5,4.1-6.3L481,250.1
							c-0.7-2.8-3.4-4.5-6.2-3.9l-44.9,9.9C427,256.7,425.2,259.7,426,262.5z"/>
						<path class="st8" d="M454.5,341.6c-2.3,0-4.4-1.5-5.1-3.8L429.9,267c-0.4-1.4-0.2-2.9,0.6-4.1c-1.1-3.1,41.1-10.1,42.8-11.1
							c2.8-0.6,5.6,1.1,6.2,3.9C496.7,345.4,515.8,329.3,454.5,341.6z M474.3,253.1c-62.2,14.6-44.4-5.5-23.6,84.3
							c0.5,2,2.6,3.2,4.6,2.8c1.1-0.6,40.5-6.9,39.5-9.1c0.6-0.9,0.8-2,0.5-3l-17.1-72C477.7,254.3,476.1,253.1,474.3,253.1z"/>
					</g>
					<g>
						<path class="st27" d="M429.4,342.3c-1.9-5.4-11.9-17.3-7.6-23.3c0,0,8.5-15.4,8.5-15.4c2.6-4.9,8.4-3.2,11.9-0.3l-8.4,8
							l12-11.5c1.3-1.3,3.6-0.9,4.3,0.8l0,0c2.7,3.7-8.6,16.1-9.8,19.3l12.9-15.1c0.9-1.1,2.7-0.5,2.8,0.9l0,0
							c0.9,7.1-2.2,13.7-6.3,19.3C480.5,341.8,452.3,371.3,429.4,342.3z"/>
						<g>
							<path class="st23" d="M441.2,302.6c-0.3-0.9-8.9,8.9-9.1,8.9c-0.7,0.7,0.4,1.7,1,1C433.2,311.9,443.7,303.2,441.2,302.6z"/>
							<path class="st23" d="M439.7,317c-2.3,0.5-0.1,1.7,1.9,3.1c0.3,0.2,0.8,0.1,1-0.2c0.2-0.3,0.1-0.8-0.2-1
								C440.8,317.8,440,317.2,439.7,317z"/>
							<path class="st23" d="M431.4,311c-2.3,0.5-0.1,1.7,1.9,3.1c0.3,0.2,0.8,0.1,1-0.2c0.2-0.3,0.1-0.8-0.2-1
								C432.6,311.8,431.8,311.1,431.4,311z"/>
							<path class="st23" d="M450,323.4c-0.9-0.2-2.4,2.5-2.6,2.2c-0.7,0.6,0.2,1.7,0.9,1.1C448.2,326.8,451.7,324.2,450,323.4z"/>
						</g>
					</g>
				</g>
				<g>
					<path class="st28" d="M508.4,323.6c-3,4.8-5.4,12.3,1.2,15.4c0,0,56.2,27.2,56.2,27.2l8.5-21.8L508.4,323.6z"/>
					<path class="st28" d="M520,292.6c0.7-3.9,3.8-8.2,8.2-6.1c0,0,64.8,29.4,64.8,29.4l18.8-49.8L599,326.8L520,292.6z"/>
					<g>
						<path class="st27" d="M480.5,287.8l5.4,0.7c-3.2-0.2-8.3-0.9-7.6-5.3c1.6-7.3,9.9-4,15.4-2.6c11.8-3.5,23-0.7,27.3,9.9l0,0
							l11.5,6l-13.4,35l-32.5-16.2c-4.3,0.2-7.6-9-1.4-7.5c-4.1-0.1-9.5-1.7-8.3-6.9c0.6-4.8,6.7-2.8,9.7-2.5
							c-3.7-0.8-12.3-0.1-11.4-6.1C475.3,289.7,477.6,287.4,480.5,287.8z"/>
						<g>
							<path class="st29" d="M487.5,289.9c1.3,0.1,1.5-1.8,0.2-2c-0.9,0.3-8.3-2.1-8.3-0.1C479,289.7,486.7,289.4,487.5,289.9z"/>
							<path class="st29" d="M479,298.8c0.9-0.3,10.4,1.8,10.2-0.2c0.5-2-9.2-1.4-10-1.8C477.9,296.7,477.7,298.7,479,298.8z"/>
							<path class="st29" d="M489.2,309.3c1.3,0.1,1.5-1.8,0.2-2c-0.9,0.3-7.8-2-7.8,0C481.1,309.2,488.3,308.8,489.2,309.3z"/>
						</g>
						<path class="st29" d="M512,288l-18.5-7.3C493.4,280.8,511.2,284.3,512,288z"/>
						<path class="st4" d="M500.1,283.3c0.7-0.3,10.1-20.1,11.6-18.1c0.9,0.6,4.9,1.3,3.9,3c0,0-9.7,17.2-9.7,17.2L500.1,283.3z"/>
					</g>
					<path class="st17" d="M614.6,369.1c15.8-8.9,32.3-57.5,28.3-75.4l-29.5-33.2l-17.7,60.6l-69.4-31.7c-1.9-0.9-4.1,0-4.8,1.9
						l-12.7,35.1c-0.9,2.6,0.2,5.5,2.7,6.8C547.4,347.8,582.3,377.5,614.6,369.1z"/>
					<g>
						<path class="st28" d="M530.3,338.4c-2.1,0.1,7.5-26.6,7.2-27.3c0.1-0.3,0.5-0.5,0.8-0.4c0.3,0.1,0.5,0.5,0.4,0.8l-7.8,26.5
							C530.9,338.2,530.6,338.4,530.3,338.4z"/>
						<path class="st28" d="M522.6,327.9c-4.4,0.1-4.4-6.8,0-6.7C527,321.1,527,328,522.6,327.9z M522.6,322.5c-2.7,0-2.7,4.2,0,4.1
							C525.3,326.6,525.3,322.4,522.6,322.5z"/>
					</g>
				</g>
			</g>
		</g>
	</g>
</g>
<g>
	<g>
		<path class="st30" d="M522.8,126.4c13-1.6,47.7,7.1,47.4-15l0,0c0-8.2-6.7-15-15-15c-13,1.6-47.7-7.1-47.4,15l0,0
			C507.8,119.6,514.5,126.4,522.8,126.4z"/>
		<polygon class="st30" points="530,124.5 514.9,133.9 514.9,122.1 		"/>
		<path class="st10" d="M555.6,115.8c-4.8,0.1-4.8-7.5,0-7.4C560.5,108.4,560.5,115.9,555.6,115.8z M555.6,109.7
			c-3.1,0-3.1,4.8,0,4.8C558.8,114.6,558.8,109.7,555.6,109.7z"/>
		<path class="st10" d="M539,115.8c-4.8,0.1-4.8-7.5,0-7.4C543.8,108.4,543.8,115.9,539,115.8z M539,109.7c-3.1,0-3.1,4.8,0,4.8
			C542.1,114.6,542.1,109.7,539,109.7z"/>
		<path class="st10" d="M522.4,115.8c-4.8,0.1-4.8-7.5,0-7.4C527.3,108.4,527.3,115.9,522.4,115.8z M522.4,109.7
			c-3.1,0-3.1,4.8,0,4.8C525.5,114.6,525.5,109.7,522.4,109.7z"/>
	</g>
	<g>
		<path class="st30" d="M369.7,209c8.5,21.6,39.1,25.9,53.4,7.9l11.3,1.7l-6-10.9C443.8,150.6,352.1,152.4,369.7,209z"/>
		<path class="st10" d="M413.6,185.8h-30.1c-0.4,0-0.7-0.3-0.7-0.7c0-0.4,0.3-0.7,0.7-0.7h30.1C414.5,184.5,414.5,185.8,413.6,185.8
			z"/>
		<path class="st10" d="M413.6,195.9h-30.1c-0.4,0-0.7-0.3-0.7-0.7c0-0.4,0.3-0.7,0.7-0.7h30.1C414.5,194.6,414.5,195.9,413.6,195.9
			z"/>
		<path class="st10" d="M413.6,206.8h-30.1c-0.4,0-0.7-0.3-0.7-0.7c0-0.4,0.3-0.7,0.7-0.7h30.1C414.5,205.5,414.5,206.9,413.6,206.8
			z"/>
	</g>
	<path class="st31" d="M436.5,93.3c-0.7-2.5-1.7-6.8,1.9-7.5c2.8-0.4,8.6-2.9,9.4,1.5c1.2,2.7,0.7,14.4,0.7,17.5
		c0.1,3.6-5.2,4.7-6.5,1.3c0,0-5.3-12.2-5.3-12.2C436.6,93.8,436.6,93.6,436.5,93.3z M445.2,110.2c2.7-1,5.8-0.4,6.5,3.1l0,0
		c1.4,5.9-8.1,7.8-9.2,1.9l0,0C442,112.9,443.2,110.6,445.2,110.2z"/>
	<path class="st31" d="M479,100c0.3-1.7,0.9-4.4,3.2-3.8c1.7,0.5,5.8,0.7,5,3.5c-0.1,1.9-3.7,8.6-4.5,10.4c-0.5,0.9-1.5,1.4-2.5,1.2
		C477.1,110.6,479.3,102.1,479,100z M479.3,112.3c1.9,0.2,3.5,1.4,2.9,3.6l0,0c-0.9,3.8-6.9,2.3-5.9-1.5l0,0
		C476.7,112.9,478.1,111.9,479.3,112.3z"/>
</g>
<g>
	<g>
		<path class="st17" d="M406.7,110.3c-5.4,30.5-44.4,44.2-67.9,24.4l-14.4,5.2l5-15.8C294.5,53,414.7,31.3,406.7,110.3z"/>
		<g>
			<g>
				<path class="st10" d="M366.7,126.9c-9.8,2.3-12.7-12.5-3.1-13.7C373.5,110.9,376.3,125.8,366.7,126.9z M363.7,114.5
					c-7.8,1.4-5.1,13.1,3.1,11.1C374.6,124.3,371.9,112.5,363.7,114.5z M367.4,111.9c-2.8,0-7.5,0.6-7.9-3.3
					c0.1-1.4-2.3-9.3-0.8-10.3c0,0,0,0,0,0c6.1-1.8,10.2-2.4,9.7-4.6c0-1.3-1.3-2.1-3.4-2.1c-3.2-0.7-9.1,5.9-12.2,1.3
					c0,0-4-5.9-4-5.9c-2.7-8.3,11.4-10.1,17.7-10.5c20-1.1,25.9,24.7,6.5,30.1C370.5,107.9,371.1,112.3,367.4,111.9z M359.6,99.3
					c-0.6-0.1,1.3,8.9,1.2,9.1c0.2,1.3,1.3,2.2,2.6,2.2c2-0.2,6.3,0.8,6.6-2.1c4.1-6.8,13.7-3.7,13.6-16.5
					c0.6-15.3-22.9-17.5-33-9.2c-1.2,0.8-1.5,2.4-0.7,3.6c6.9,11.9,5.6,5.1,15,4C374.2,91.9,368.9,98.7,359.6,99.3L359.6,99.3z"/>
			</g>
		</g>
	</g>
	<g>
		<g>
			<g>
				<g>
					<g>
						<path class="st32" d="M234,84.3c0.4,0.3,3.9,15.6,4.9,14.8c0.5-0.1,2.7-2.3,3.1-1.4c0.2-0.2,7.4,9.5,7.3,7.7
							c-0.4-0.3-3.8-15.6-4.8-14.8c-0.5,0.1-2.7,2.3-3.1,1.4C241.3,92.2,233.9,82.5,234,84.3z"/>
					</g>
				</g>
			</g>
		</g>
		<g>
			<g>
				<g>
					<g>
						<path class="st32" d="M303.2,86.9c-0.4,0.3-3.9,15.6-4.9,14.8c-0.5-0.1-2.7-2.3-3.1-1.4c-0.2-0.2-7.4,9.5-7.3,7.7
							c0.4-0.3,3.8-15.6,4.8-14.8c0.5,0.1,2.7,2.3,3.1,1.4C295.9,94.8,303.3,85.1,303.2,86.9z"/>
					</g>
				</g>
			</g>
		</g>
		<g>
			<g>
				<g>
					<g>
						<path class="st32" d="M273,65c0.2,0.6-9.2,19.9-7.4,19.9c0.6,0.3,4.8-0.2,4.5,1.2c0.3,0-0.2,16.3,1.2,14.5
							c-0.2-0.7,9.3-19.7,7.4-19.8c-0.6-0.3-4.8,0.2-4.5-1.2C273.9,79.5,274.4,63,273,65z"/>
					</g>
				</g>
			</g>
		</g>
	</g>
	<g>
		<path class="st17" d="M126,131.4c0.6,23.1,27.8,37.7,47.4,25.8l10,5.5l-1.9-12.3C215.4,101.9,129,72.1,126,131.4z"/>
		<path class="st10" d="M154.8,152.9c-4.9,0.2-11.5-4.8-14.8-12.1c-11.3,5.8,2-3.7,4.8-6.1c-2.6-0.6-8,1.2-8-3
			c-6.8,0.4-6.6-2.5,0.1-1.7c0.3-2.2,0.7-4.3,1.4-6.2c-0.9-0.4-0.4-1.7,0.5-1.3c2.3-5.5,6-10.5,11.3-12.2c0.2-0.5,0.5-1,0.9-1.4
			c0.8-4.9,7.6,0.2,10.3,1.1c0.4-1,1.7-0.6,1.5,0.7c14.3,6.2,10.9,20.1,17.3,9.6c3.3-1-2.2,9.5-3,10.9c0,2.2-1.5,4.4-3.7,4.7
			c4.7,3.3,3.3,3.8-1.3,5.7c-0.9,1.3-2.3,1.9-4.5,2.1c-0.4,1-1.4,0.8-2.2,0.3c-2.6,0.6-5.4,0.8-8,0.3
			C159.8,147.2,159.8,153.5,154.8,152.9z M141.5,140.3c1.4,5.3,8.3,11.8,14.1,11.2c3.9-0.6,1.5-5.7-0.3-7.8
			c-2.4-0.8-4.4-2.1-5.9-3.8C146.9,139.6,144.2,139.6,141.5,140.3z M156.1,142.6c1.9,0.6,4.1,0.8,6.3,0.5c-2.9-0.4-4.9-1.2-7.6-2.1
			C155.3,141.6,155.7,142.1,156.1,142.6z M165,142.2c0.6,0,1.2,0.2,1.8-0.1c0.8-1.4,1.1-3,1.1-4.7c-0.5,0.1-0.9,0.1-1.4,0.2
			c-0.2,1.5-0.8,3.4-1.9,4.3C164.8,142,164.9,142.1,165,142.2z M153.6,135.9c2.2,2.7,5.3,5.3,8.8,5.7c-1.1-1.3-2-2.9-2.6-4.4
			C157.7,136.8,155.6,136.3,153.6,135.9z M151.7,140.2c0.6,0.5,1.2,0.9,1.9,1.3c-0.3-0.4-0.6-0.7-0.9-1.1
			C152.4,140.4,152,140.3,151.7,140.2z M169.2,137.2c0,1.5-0.2,3-0.7,4.4c0.9-0.3,1.7-0.7,2.5-1.1c0.6-1.1,0.5-2.7,0.3-4.2
			C170.7,136.7,170,137,169.2,137.2z M161.3,137.4c0.6,1.3,1.4,2.6,2.3,3.6c0.9-0.6,1.3-2.2,1.5-3.3
			C163.9,137.7,162.6,137.6,161.3,137.4z M153.5,139.3c0.8,0.2,1.6,0.4,2.4,0.7c-1.4-1-2.6-2.2-3.6-3.6l-0.5,0.2
			C152.2,137.5,152.8,138.4,153.5,139.3z M172.8,137c0.1,0.9,0.1,1.8-0.1,2.7c0.7-0.3,1.3-0.7,2-1
			C174.1,138.1,173.5,137.6,172.8,137z M150.2,138.7c0.5,0.1,0.9,0.1,1.3,0.2c-0.4-0.6-0.8-1.2-1.1-1.9l-1.1,0.4
			C149.6,137.8,149.9,138.3,150.2,138.7z M146.6,134.9c-1.5,1.3-3,2.6-4.6,3.8l5.6-2.1c-0.2-0.6-0.4-1.1-0.6-1.7
			C146.9,134.9,146.8,134.9,146.6,134.9z M146.6,138.4c0.6,0,1.3,0,1.9,0.1c-0.1-0.2-0.2-0.4-0.4-0.7L146.6,138.4z M160.6,136
			c1.6,0.3,3.2,0.4,4.7,0.4c0.1-0.8,0.1-1.6,0.1-2.4c-1.8-0.4-3.7-0.4-5.7,0C160,134.6,160.3,135.3,160.6,136z M166.7,134.3
			c0,0.7,0,1.3-0.1,2c0.4,0,0.8-0.1,1.1-0.2c0-0.5-0.1-1-0.2-1.5C167.3,134.5,167,134.4,166.7,134.3z M148.5,135.1
			c0.1,0.4,0.2,0.7,0.4,1.1l1.2-0.4c0-0.2-0.1-0.3-0.1-0.5C149.4,135.2,149,135.1,148.5,135.1z M169,135.1c0,0.2,0.1,0.4,0.1,0.7
			c0.3-0.1,0.7-0.2,1-0.3C169.7,135.4,169.4,135.3,169,135.1z M155.9,135c1.1,0.2,2.1,0.5,3.2,0.7c-0.2-0.5-0.4-1-0.6-1.4
			C157.6,134.5,156.8,134.7,155.9,135z M152.5,134.4c0.3,0.1,0.6,0.1,0.9,0.2c1.6-0.6,3.1-1.1,4.6-1.5c-0.2-0.5-0.4-1-0.6-1.5
			l-6.7-0.1C151.4,132.4,151.9,133.4,152.5,134.4z M171.1,134.4c0,0,0.1,0,0.1,0c-0.1-1.1-0.2-2.2-0.3-3.3c-0.8,0.2-1.7,0.4-2.6,0.4
			c0.1,0.5,0.3,1.1,0.4,1.6C169.5,133.5,170.3,133.9,171.1,134.4z M172.2,130.7c0.1,1.1,0.3,2.3,0.4,3.4c1.2-0.9,2.2-2.1,3.1-3.3
			c0-0.8-0.2-1.7-0.4-2.5C174.6,129.3,173.6,130.1,172.2,130.7z M148.1,133.7c0.5,0.1,1,0.1,1.5,0.2c-0.1-0.5-0.1-1-0.2-1.5
			c-0.5,0.4-0.9,0.8-1.4,1.2C148.1,133.6,148.1,133.7,148.1,133.7z M138,131.5c0.1,3.4,5.8,1.2,8.1,2.1c0.1-0.1,0.3-0.3,0.4-0.4
			c-0.1-0.6-0.2-1.1-0.3-1.7C146,131.5,138.2,131.2,138,131.5z M158.8,131.5c0.2,0.4,0.3,0.8,0.5,1.2c1.1-0.2,2.3-0.4,3.4-0.4
			C161.4,132,160.1,131.5,158.8,131.5z M166.7,132.3c0.2,0.1,0.3,0.1,0.5,0.2c-0.1-0.3-0.2-0.6-0.2-0.9c-0.1,0-0.2,0-0.3,0
			C166.7,131.8,166.7,132,166.7,132.3z M147.6,131.5c0,0.2,0.1,0.4,0.1,0.7c0.2-0.2,0.5-0.4,0.7-0.7L147.6,131.5z M164.7,131.6
			c0.2,0.1,0.4,0.1,0.6,0.2c0-0.1,0-0.1,0-0.2L164.7,131.6z M160,130.2l5.3,0c0.5-4.7-2.2-8.4-4-12.7c-1.1,2.7-2.8,5.2-4.7,7.5
			c0.5,1.6,1,3.2,1.5,4.7C158.8,129.9,159.4,130.1,160,130.2z M166.6,126.7c0.5,1.2,0.9,2.3,1.3,3.5c1-0.1,2-0.2,2.9-0.5
			c-0.4-2.8-1.1-5.6-2.2-8.3C167.6,123.1,166.8,124.8,166.6,126.7z M151.8,130.2l2.3,0c-0.6-0.2-1.3-0.3-1.9-0.5
			C152.1,129.9,151.9,130,151.8,130.2z M147.4,130.1l0.7,0c-0.3-0.3-0.5-0.5-0.8-0.7C147.3,129.7,147.3,129.9,147.4,130.1z
			 M141,130.1l5.1,0c-0.1-0.5-0.2-1-0.2-1.4C144.1,128.1,142.5,129.1,141,130.1z M139.4,124.7c-0.5,1.7-0.9,3.5-1.2,5.3
			c1.9-0.7,3.5-2.2,5.5-2.7C142.1,126.7,140.7,125.7,139.4,124.7z M148.4,128.7c0.3,0.3,0.6,0.6,0.9,0.9c0-0.2,0-0.4,0-0.7
			C149,128.9,148.7,128.8,148.4,128.7z M150.7,129.3c0,0,0,0.1,0,0.1C150.7,129.4,150.7,129.4,150.7,129.3
			C150.7,129.3,150.7,129.3,150.7,129.3z M153.3,128.6c1.1,0.3,2.2,0.5,3.3,0.8c-0.4-1.1-0.7-2.1-1-3.2
			C154.9,127.1,154.1,127.9,153.3,128.6z M169,119.6c1.6,3,2.5,6.4,3,9.7c1.3-0.6,2.3-1.5,2.5-2.9c-1.4-3.1-3.3-5.9-5.6-8.4
			C169,118.6,169.1,119.1,169,119.6z M175.9,126.2c0.4,0.8,0.7,1.7,0.9,2.6c0.8-1.5,1.5-3.2,2-4.9c-0.6,0.9-1.5,2.1-2.9,1.6
			C175.9,125.8,175.9,126,175.9,126.2z M150.7,128c0.4,0.1,0.8,0.2,1.2,0.3c1.1-1.1,2.2-2.3,3.3-3.5c-0.4-1.3-0.7-2.6-1-3.9
			c0.1,2.5-1,5.5-3.5,6.6L150.7,128z M147,126.8c0.8,0,1.6-0.1,2.4-0.3c0-0.6,0.2-14.5,0.3-14.7C144.2,114,147.1,122.1,147,126.8
			C146.9,126.8,147,126.8,147,126.8z M139.8,123.3c1.8,1.2,3.7,2.2,5.7,3c-0.4-3.8-0.5-7.7-0.1-11.6
			C143.1,116.9,141.1,119.9,139.8,123.3z M151.1,111.4c-0.2,0.6-0.3,13.5-0.4,14.5c4.1-3.4,1.7-10.1,0.9-14.6
			C151.4,111.4,151.3,111.4,151.1,111.4z M161.9,115.9c1.4,2.9,2.6,5.7,3.8,8.6c0.3-1.6,1.6-3,2-4.5c-1.4-2.5-3.2-4.4-5.3-5.8
			C162.2,114.7,162.1,115.3,161.9,115.9z M157.5,112.4c-4.1,1.5-2,7.8-1.3,11.1c1.8-2.3,3.4-4.8,4.3-7.6c-0.5-1.1-1-2.3-1.7-3.4
			C158.4,112.5,158,112.4,157.5,112.4z M164.5,114.1c0.8,0.7,1.6,1.5,2.4,2.4C166.4,115.4,165.6,114.6,164.5,114.1z M152.9,111.2
			c0.4,1.6,0.8,3.2,1,4.9c0.1-1.8,0.9-4.3,2.4-4.8C155.2,111.2,154.1,111.1,152.9,111.2z M160.6,113.2c0.1,0.3,0.3,0.6,0.4,0.8
			c0-0.2,0.1-0.4,0.1-0.6C161,113.4,160.8,113.3,160.6,113.2z M152.4,109.5c0,0,0,0.1,0,0.1c0.6-0.1,1.1-0.2,1.7-0.3
			C153.6,109.3,152.9,109.3,152.4,109.5z"/>
	</g>
</g>
<g>
	<g>
		<path class="st18" d="M333.4,261.4c-14.5-15.3,2.9-35.8-6.2-53.8c-17.7-34.4-46.2-28.8-46.6-29.3c-4.1-6.6-15.8-8.5-27.7-6.2
			c-15.1-32.2-60.6-1.8-36.5,24.4c-8.2,5.5-14.7,13.3-16.1,22.3c-6.6,17.1-33.4,21.7-37.5,45.4c-8.7,36.7,33.4,59,47.6,88.3
			c8.3,13.6,23.4,24.3,42.1,28c33.3,6.6,66.8-13.3,66.3-45.5c-0.1-3.1,1.6-5.9,4.5-7.6C346.1,316.6,354.9,284.9,333.4,261.4z"/>
		<g>
			<path class="st30" d="M282,340L282,340c-45.4-27.1-118-53.3-158.2-4.8c-5.7,6.9-21.4,31.7-16.3,39.2c0,0,43.5,21.9,43.5,21.9
				l-16.4,60.8l139.2,9.8l3.7-19C284.5,443.8,321,363.1,282,340z"/>
			<path class="st5" d="M237.9,354c-25.4,0.2-43.4-17-38.5-42.8c0.2-1.1,1.2-1.8,2.3-1.6c1.1,0.2,1.8,1.2,1.6,2.3
				c-4.4,19.9,9.3,36.1,27.1,37.6c12.9,2.2,28.6-0.7,34-15.5c0.4-1,1.5-1.5,2.5-1.2c1,0.4,1.5,1.5,1.2,2.5
				C262.9,349.2,250.2,354,237.9,354z"/>
			<path class="st5" d="M180.5,371l-2.3,34.5c-0.2,3.8-3.7,6.5-7.4,5.9c-9.6-3.4-10,11.2-12.9,16.7l-4.2-1.8l8.5-24.4
				c2.4,0.5,7.4,3.1,8.5-0.7C170.7,401.2,180.5,371,180.5,371z"/>
			<g>
				<path class="st5" d="M173.7,392.1c-1.1,0.1-60.4-29.7-61.4-30c-1-0.5-1.4-1.7-0.9-2.6c0.5-1,1.7-1.4,2.6-0.9l60.5,29.8
					C176.4,389.2,175.7,392.1,173.7,392.1z"/>
				<path class="st5" d="M167.4,405c-1.4,0.1-3.8-1.3-5.1-1.8c-2.4-1-0.8-4.7,1.6-3.6c0.7,0.2,3.4,1.9,4.1,1.3
					c1.7,1.3,11.6-44.5,14.6-30.2c0,0-10.1,30.6-10.1,30.6C171.7,403.5,169.6,405,167.4,405z"/>
			</g>
		</g>
		<g>
			<g>
				<g>
					<path class="st33" d="M335.5,434.3l-9.9-117.8l0,0c0.4-13.2-6.5-25.8-18.7-31.5c-9.6-5.1-20.8-9.9-31.8-6.7
						c-6.4,2-3.1,13,4.1,9.7c-5.6,1.8-8.4,8.1-5.9,13.5c3.7-3.8,9.2-4.5,14.2-4.3c0,0-14.1,0.4-15,7.3c-0.9,6.9,2.2,6.9,2.2,6.9
						s6.6-4.8,12.9-2.2c-18.7-1.9-25.2,15.3-1.5,21.5l-8.3,112.8C282,484.3,340.3,470.4,335.5,434.3z M289.9,322.5l-0.8,0.1
						l-1.6-1.7L289.9,322.5z"/>
					<path class="st22" d="M303.3,290l1.4-6l-2.4-1.2c-1.7,11-7.5,21.5-16.9,26.8c0.7,0.1,1.5,0.3,2.2,0.6
						c-4.1-0.6-10.1,3.7-14.8,3.8c-0.7,0.7-1.3,1.4-1.7,2.3C286.2,315.9,299.7,305.5,303.3,290z"/>
					<g>
						<polygon class="st34" points="287.4,321 291.8,325.4 294,325.1 						"/>
						<path class="st22" d="M291.8,325.4c1.3,1.1,2.2,2.7,1.6,4.3l0,0c-1.4,3.3-4.8,1.1-7.8,0.6l-0.3,11.4l18-11.1l-9.2-5.6
							L291.8,325.4z"/>
					</g>
				</g>
			</g>
			<g>
				<path class="st33" d="M308.9,237.4c-12.1,1-36.1-2-41.3-23.5c-3.9,23.2-18.8,32.4-32.7,25.2l0,0.1
					c-26.1-12.4-37.9,24.6-9.5,29.6l-17.7,45.4c-8.6,29.2,42.7,44.6,52.1,14.4c0,0,5.4-15.5,5.4-15.5c36.1,3.3,38.8-33.1,45.1-58.7
					C303,244.9,308.9,237.4,308.9,237.4z"/>
				<path class="st22" d="M265.2,313.3c0,0-28.9-8.5-30.1-20.3c-1.2-11.8,0,0,0,0s-6.7,15,24.8,34.9L265.2,313.3z"/>
				<g>
					<path class="st23" d="M221.3,256.9c-1.5,0-1.8-2.3-0.3-2.6c0,0,4.3-1,4.3-1l-2.5-6c-0.7-1.6,1.8-2.6,2.4-1c0,0,3.1,7.4,3.1,7.4
						C229.3,256.2,222.5,256.2,221.3,256.9z"/>
					<g>
						<path class="st18" d="M299.5,272c-1.2,3.7-6.9,1.7-5.6-1.9C295.1,266.4,300.8,268.4,299.5,272z"/>
						<path class="st18" d="M271.9,261.2c-1.2,3.7-6.9,1.7-5.6-1.9C267.5,255.6,273.2,257.5,271.9,261.2z"/>
						<g class="st35">
							
								<image style="overflow:visible;" width="163" height="156" xlink:href="2990794B.png"  transform="matrix(1 0 0 1 172.32 188.5165)">
							</image>
						</g>
						<g class="st35">
							
								<image style="overflow:visible;" width="158" height="152" xlink:href="29907949.png"  transform="matrix(1 0 0 1 215.32 204.5165)">
							</image>
						</g>
						<path class="st23" d="M269.1,266.4c-1.7-0.1-1.5-3.3-3.9-2.2c-1.6,0.6-2.5-1.9-0.9-2.5c1.6-0.6,2.9-0.3,3.6,0.1
							C270.4,263.4,271.5,265.9,269.1,266.4z"/>
						<path class="st23" d="M297.3,277c-1.7-0.1-1.5-3.3-3.9-2.2c-1.6,0.6-2.5-1.9-0.9-2.5c1.6-0.6,2.9-0.3,3.6,0.1
							C298.6,273.9,299.7,276.4,297.3,277z"/>
						<g>
							<path class="st33" d="M285.9,255.6l-3.7,9c-1.1,5,8.3,2.5,6.6,8.3l0,0c-1.9,6.7-9.3,7.3-14.7,4.8"/>
							<path class="st23" d="M280.4,280.5c-1.8,0.1-4.9-1.1-6.7-1.6c-1.6-0.5-0.9-3,0.7-2.5c2.9,0.9,6.7,2.4,9.5,0.5
								c2.3-1.1,5.6-5.7,2.1-7.2c-2.8-0.4-6.3-2.3-5.1-5.7c0,0,3.7-9,3.7-9c0.6-1.6,3.1-0.6,2.4,1c0.1,1.2-5.6,10-2.8,10.5
								C295.3,268.1,288.7,281,280.4,280.5z"/>
						</g>
						<g>
							<g>
								<path class="st21" d="M272.5,304.2c-0.7-0.1-2.8-2.7-6.3-0.8c-0.3,0.2-0.7,0.1-0.8-0.2C266.8,299.2,275.7,303.4,272.5,304.2
									z"/>
							</g>
						</g>
						<g>
							<g>
								<g>
									<g>
										<g>
											<g>
												<path class="st18" d="M280.3,247.9c-3.9-0.8-8.5-1.3-12.4-1.4c-2.9,2.2,2,5.4,5.7,5.8
													C277.4,252.8,282.7,250.6,280.3,247.9z"/>
											</g>
										</g>
									</g>
									<g>
										<g>
											<g>
												<path class="st18" d="M296.9,254.3c3.5,1.8,7.4,4.4,10.5,6.8c0.8,3.5-5,3-8.1,0.8C296.1,259.9,293.3,254.9,296.9,254.3z
													"/>
											</g>
										</g>
									</g>
								</g>
							</g>
						</g>
						<path class="st23" d="M272,290.8c-3.2-0.3-1.3-5.8-5.7-5.2c-2.5,0.4-3.1-3.5-0.6-3.9c3.7-0.6,7.2,1.9,8,5.5
							C274.3,288.7,273.9,290.8,272,290.8z"/>
					</g>
				</g>
			</g>
		</g>
		<g>
			<g>
				<path class="st36" d="M281.4,469.5l-34.2,1.3c-3.5,0.1-6.5-2.6-6.7-6.2c0.6-81.2-19.6-72.3,37.9-74.2c3.5-0.1,6.5,2.6,6.7,6.2
					l2.5,66.3C287.7,466.4,284.9,469.4,281.4,469.5z"/>
				<path class="st37" d="M255.7,400.8c-2-0.5-13.4,2.3-13.2-1.6c-0.6-4,11.1-2,13-2.7C258.3,396.3,258.5,400.7,255.7,400.8z"/>
				<path class="st36" d="M246.4,399c0.1,1.6-2.4,1.6-2.4,0.1C244,397.6,246.4,397.5,246.4,399z"/>
			</g>
			<g>
				<g>
					<path class="st33" d="M284.7,443.9c-1.1-1.6-3.1-2.1-4.8-1.5c4.7-1.8,8.1-7.7,2-10.3c5.2-3,0.4-11-4.7-7.9
						c0,0-12.6,7.4-12.6,7.4l10.6-6.3c5.2-3,0.4-11-4.7-7.9c0,0-22.7,13.4-22.7,13.4c-6.7-2.6-9-6.6-9.1-13.5
						c-8.8,3.5-13.9,12.5-18.2,20.4c0,0-44.9-8.3-66.6-12.2l7.1-24.7l-53.2-26.3c-13.9,41.7-37.7,90.4,25.2,101.6
						c47.7,5,110.3,26,139.7-15.7C277.4,454,288,449.4,284.7,443.9z"/>
					<path class="st23" d="M260.2,435.1c-0.9,0-1.4-1.3-0.5-1.8c0.6,0.1,17.4-12,17.4-9.7c0.3,0.5,0.1,1.1-0.3,1.4
						C276.2,425.2,260.9,435.2,260.2,435.1z"/>
					<path class="st23" d="M264.4,443.2c-1,0-1.4-1.4-0.5-1.8c0.7,0.1,19.1-12.2,19.4-9.9c0.3,0.5,0.1,1.1-0.4,1.3
						C282.4,432.9,264.9,443.3,264.4,443.2z"/>
					<path class="st23" d="M265.7,452.5c-1,0-1.4-1.4-0.5-1.8c0.6,0.1,16.8-11.4,16.9-9c0.3,0.5,0.1,1.1-0.3,1.4
						C281.3,443.2,266.4,452.6,265.7,452.5z"/>
				</g>
				<polygon class="st5" points="158,399.5 145.9,423 153.5,426.8 161,400.9 				"/>
				<path class="st23" d="M165.7,428.7c-0.5-0.6-24.1-3.8-22.8-5.8c-0.7-2.3,22.6,4.2,23,3.8C167.1,427,166.9,428.7,165.7,428.7z"/>
			</g>
		</g>
	</g>
</g>
</svg>
