<?xml version="1.0" encoding="utf-8"?>
<!-- Generator: Adobe Illustrator 25.3.0, SVG Export Plug-In . SVG Version: 6.00 Build 0)  -->
<svg version="1.1" id="Layer_1" xmlns="http://www.w3.org/2000/svg" xmlns:xlink="http://www.w3.org/1999/xlink" x="0px" y="0px"
	 viewBox="0 0 500 500" style="enable-background:new 0 0 500 500;" xml:space="preserve">
<style type="text/css">
	.st0{fill:#FFFFFF;}
	.st1{fill:#E0E0E0;}
	.st2{fill:#EBEBEB;}
	.st3{fill:#F5F5F5;}
	.st4{fill:#455A64;}
	.st5{fill:#263238;}
	.st6{fill:#89E4B3;}
	.st7{fill:#FFDE00;}
	.st8{fill:#FFBF9D;}
	.st9{fill:#FF9A6C;}
	.st10{opacity:0.6;}
	.st11{fill:#7A94AB;}
	.st12{opacity:0.3;}
	.st13{fill:#ACDAE5;}
</style>
<g id="freepik--background-complete--inject-84">
	<path class="st0" d="M53.5,138.6c-2.2-2.9-2.1-7,0.2-9.8c6.9-8.5,24.4-25,55.6-24.7c30.5,0.3,48,16.8,55.1,25.7
		c2.5,3.1,2.3,7.7-0.6,10.6c-15.2,15-35.7,23.5-57.1,23.5C76.4,164.2,59.9,147.3,53.5,138.6z"/>
	<path class="st1" d="M105.9,164.8c-29.7,0-46-16-53.1-25.6l0,0c-2.4-3.3-2.3-7.8,0.3-10.9c7.7-9.5,25.3-25.3,56.3-25
		c30.5,0.3,48.1,16.5,55.8,26.1c2.8,3.5,2.6,8.6-0.6,11.8c-15.4,15.2-36.1,23.8-57.7,23.8L105.9,164.8z M108.4,105
		c-29.7,0-46.5,15.2-54,24.4c-2.1,2.5-2.1,6.1-0.2,8.7l0,0c7,9.4,23.1,25.2,52.6,24.9c21.2,0,41.4-8.4,56.5-23.3
		c2.5-2.5,2.8-6.6,0.5-9.4c-7.6-9.3-24.7-25.1-54.4-25.4L108.4,105z"/>
	<circle class="st1" cx="107.9" cy="134" r="29.9"/>
	<circle class="st0" cx="107.9" cy="134" r="22"/>
	<path class="st1" d="M107.9,134l17.3-4.7c2.6,9.5-3.1,19.4-12.6,21.9c-9.5,2.6-19.4-3.1-21.9-12.6c-2.6-9.5,3.1-19.4,12.6-21.9
		c6.2-1.7,12.8,0.1,17.3,4.6L107.9,134z"/>
	<path class="st2" d="M96.6,97c-1.7-1.5-3.3-3-4.8-4.7c-1.6-1.6-3.1-3.2-4.4-5c1.7,1.4,3.3,3,4.8,4.7C93.8,93.6,95.2,95.2,96.6,97z"
		/>
	<path class="st2" d="M107.4,93.3c-0.1-0.9-0.2-1.9-0.2-2.8c-0.1-1.8-0.2-4.2-0.3-6.8s-0.3-5.1-0.5-6.8c-0.1-0.9-0.2-1.9-0.2-2.8
		c0.2,0.9,0.4,1.9,0.5,2.8c0.2,1.7,0.5,4.2,0.6,6.8s0.2,5.1,0.2,6.9C107.6,91.4,107.6,92.3,107.4,93.3z"/>
	<path class="st2" d="M127,87.8c-1.6,1.6-3.3,3.1-5.1,4.5c-1.7,1.5-3.5,2.9-5.4,4.2c1.6-1.6,3.3-3.1,5.1-4.5
		C123.3,90.5,125.1,89.1,127,87.8z"/>
	<path class="st2" d="M455,147.9c0.7-4.8-6.1-8.8-11.3-9.2c-2.4-0.2-5,0.2-7.3-0.6c-5-1.7-7-8.2-11.9-10.3
		c-3.6-1.5-7.9-0.2-11.4,1.6s-7,4-11,4.3c-3.5,0.2-7.2-1.1-10.2,0.6c-2.2,1.3-3.4,3.8-5.5,5.4s-4.7,1.8-7.2,2s-5.1,0.2-7.4,1.2
		s-4.2,3.5-3.7,5.9L455,147.9z"/>
	<path class="st2" d="M264.5,182c0.5-3.8-4.8-6.9-8.9-7.2c-1.9-0.1-3.9,0.1-5.7-0.5c-3.9-1.4-5.5-6.5-9.4-8.1
		c-2.9-1.2-6.2-0.1-9,1.3s-5.5,3.2-8.6,3.4c-2.7,0.2-5.6-0.8-8,0.5c-1.8,1-2.7,3-4.3,4.2c-1.7,1-3.7,1.6-5.6,1.5c-2,0-4,0.3-5.8,1
		c-1.8,0.8-3.3,2.7-2.9,4.7L264.5,182z"/>
	<path class="st3" d="M423.1,55.7c0.5-3.8-4.8-6.9-8.9-7.2c-1.9-0.2-3.9,0.1-5.7-0.5c-3.9-1.4-5.5-6.5-9.4-8.1
		c-2.9-1.2-6.2-0.1-9,1.3s-5.5,3.2-8.6,3.4c-2.7,0.2-5.6-0.8-8,0.5c-1.8,1-2.7,3-4.3,4.2c-1.7,1-3.7,1.6-5.6,1.5c-2,0-4,0.3-5.8,1
		c-1.8,0.8-3.3,2.7-2.9,4.7L423.1,55.7z"/>
	<path class="st3" d="M414.7,234.8c0.5-3.8-4.8-6.9-8.9-7.2c-1.9-0.2-3.9,0.1-5.7-0.5c-3.9-1.4-5.5-6.5-9.4-8.1
		c-2.9-1.2-6.2-0.1-9,1.3s-5.5,3.2-8.6,3.4c-2.7,0.2-5.6-0.8-8,0.5c-1.8,1-2.7,3-4.3,4.2c-1.7,1.1-3.7,1.6-5.6,1.5c-2,0-4,0.3-5.8,1
		c-1.8,0.8-3.3,2.7-2.9,4.7L414.7,234.8z"/>
	<path class="st3" d="M127.3,245.5c0.6-4.6-5.9-8.4-10.7-8.8c-2.3-0.2-4.8,0.2-7-0.6c-4.8-1.7-6.7-7.8-11.3-9.8
		c-3.5-1.5-7.5-0.2-10.9,1.5s-6.7,3.8-10.5,4.1c-3.3,0.2-6.8-1-9.7,0.6c-2.1,1.2-3.3,3.7-5.2,5.1s-4.4,1.7-6.8,1.9s-4.9,0.2-7,1.1
		s-4,3.3-3.5,5.7L127.3,245.5z"/>
	<path class="st3" d="M126.2,50.7c0.5-3.8-4.8-6.9-8.9-7.2c-1.9-0.2-3.9,0.1-5.7-0.5c-3.9-1.4-5.5-6.5-9.3-8.1
		c-2.9-1.2-6.2-0.1-9,1.3s-5.5,3.2-8.7,3.4c-2.7,0.2-5.7-0.8-8,0.5c-1.8,1-2.7,3-4.3,4.2c-1.7,1-3.7,1.6-5.6,1.5c-2,0-4,0.3-5.8,1
		c-1.8,0.8-3.3,2.7-2.9,4.7L126.2,50.7z"/>
	<rect x="438.9" y="376.8" class="st2" width="24" height="101.4"/>
	<rect x="451.1" y="383.9" class="st0" width="7.3" height="14"/>
	<path class="st1" d="M454.5,398c0.1,0,0.1-3.1,0.1-7s0-7-0.1-7s-0.1,3.1-0.1,7S454.5,398,454.5,398z"/>
	<path class="st1" d="M451.1,388.8c2.4,0.1,4.9,0.1,7.3,0C456,388.7,453.5,388.7,451.1,388.8z"/>
	<path class="st1" d="M451.1,393.8c2.4,0.1,4.9,0.1,7.3,0C456,393.7,453.5,393.7,451.1,393.8z"/>
	<rect x="451.1" y="402.3" class="st0" width="7.3" height="14"/>
	<path class="st1" d="M454.5,416.3c0.1,0,0.1-3.1,0.1-7s0-7-0.1-7s-0.1,3.1-0.1,7S454.5,416.3,454.5,416.3z"/>
	<path class="st1" d="M451.1,407.2c2.4,0.1,4.9,0.1,7.3,0C456,407,453.5,407,451.1,407.2z"/>
	<path class="st1" d="M451.1,412.2c2.4,0.1,4.9,0.1,7.3,0C456,412,453.5,412,451.1,412.2z"/>
	<rect x="451.1" y="420.6" class="st0" width="7.3" height="14"/>
	<path class="st1" d="M454.5,434.7c0.1,0,0.1-3.1,0.1-7s0-7-0.1-7s-0.1,3.1-0.1,7S454.5,434.7,454.5,434.7z"/>
	<path class="st1" d="M451.1,425.5c2.4,0.1,4.9,0.1,7.3,0C456,425.4,453.5,425.4,451.1,425.5z"/>
	<path class="st1" d="M451.1,430.5c2.4,0.1,4.9,0.1,7.3,0c0,0-1.6-0.1-3.7-0.1S451.1,430.5,451.1,430.5z"/>
	<rect x="451.1" y="439" class="st0" width="7.3" height="14"/>
	<path class="st1" d="M454.5,453c0.1,0,0.1-3.1,0.1-7s0-7-0.1-7s-0.1,3.1-0.1,7S454.5,453,454.5,453z"/>
	<path class="st1" d="M451.1,443.8c2.4,0.1,4.9,0.1,7.3,0c0,0-1.6-0.1-3.6-0.1S451.1,443.8,451.1,443.8z"/>
	<path class="st1" d="M451.1,448.9c2.4,0.1,4.9,0.1,7.3,0c0,0-1.6-0.1-3.7-0.1S451.1,448.8,451.1,448.9z"/>
	<rect x="428.7" y="376.8" class="st1" width="17.5" height="101.4"/>
	<rect x="433.5" y="383.9" class="st0" width="7.3" height="14"/>
	<path class="st1" d="M436.9,398c0.1,0,0.1-3.1,0.1-7s0-7-0.1-7s-0.1,3.1-0.1,7S436.8,398,436.9,398z"/>
	<path class="st1" d="M433.5,388.8c2.4,0.1,4.9,0.1,7.3,0C438.3,388.7,435.9,388.7,433.5,388.8z"/>
	<path class="st1" d="M433.4,393.8c2.4,0.1,4.9,0.1,7.4,0C438.3,393.7,435.9,393.7,433.4,393.8z"/>
	<rect x="433.5" y="402.4" class="st0" width="7.3" height="14"/>
	<path class="st1" d="M436.9,416.5c0.1,0,0.1-3.1,0.1-7s0-7-0.1-7s-0.1,3.1-0.1,7S436.8,416.5,436.9,416.5z"/>
	<path class="st1" d="M433.5,407.3c2.4,0.1,4.9,0.1,7.3,0C438.3,407.2,435.9,407.2,433.5,407.3z"/>
	<path class="st1" d="M433.4,412.3c2.4,0.1,4.9,0.1,7.4,0C438.3,412.2,435.9,412.2,433.4,412.3z"/>
	<rect x="433.5" y="420.9" class="st0" width="7.3" height="14"/>
	<path class="st1" d="M436.9,435c0.1,0,0.1-3.1,0.1-7s0-7-0.1-7s-0.1,3.1-0.1,7S436.8,435,436.9,435z"/>
	<path class="st1" d="M433.5,425.8c2.4,0.1,4.9,0.1,7.3,0C438.3,425.7,435.9,425.7,433.5,425.8z"/>
	<path class="st1" d="M433.4,430.8c2.4,0.1,4.9,0.1,7.4,0c0,0-1.6-0.1-3.7-0.1S433.4,430.8,433.4,430.8z"/>
	<rect x="433.5" y="439.4" class="st0" width="7.3" height="14"/>
	<path class="st1" d="M436.9,453.5c0.1,0,0.1-3.1,0.1-7s0-7-0.1-7s-0.1,3.1-0.1,7S436.8,453.5,436.9,453.5z"/>
	<path class="st1" d="M433.5,444.3c2.4,0.1,4.9,0.1,7.3,0c0,0-1.6-0.1-3.6-0.1S433.5,444.2,433.5,444.3z"/>
	<path class="st1" d="M433.4,449.3c0,0,1.6,0.1,3.7,0.1s3.7,0,3.7-0.1C438.3,449.2,435.9,449.2,433.4,449.3z"/>
	<rect x="451.1" y="457.3" class="st0" width="7.3" height="14"/>
	<path class="st1" d="M454.5,471.3c0.1,0,0.1-3.1,0.1-7s0-7-0.1-7s-0.1,3.1-0.1,7S454.5,471.3,454.5,471.3z"/>
	<path class="st1" d="M451.1,462.2c2.4,0.1,4.9,0.1,7.3,0c0,0-1.6-0.1-3.6-0.1S451.1,462.1,451.1,462.2z"/>
	<path class="st1" d="M451.1,467.2c0,0,1.6,0.1,3.7,0.1s3.7,0,3.7-0.1C456,467.1,453.5,467.1,451.1,467.2L451.1,467.2z"/>
	<rect x="433.5" y="457.9" class="st0" width="7.3" height="14"/>
	<path class="st1" d="M436.9,472c0.1,0,0.1-3.1,0.1-7s0-7-0.1-7s-0.1,3.1-0.1,7S436.8,472,436.9,472z"/>
	<path class="st1" d="M433.5,462.8c0,0,1.6,0.1,3.6,0.1s3.6,0,3.6-0.1C438.3,462.7,435.9,462.7,433.5,462.8L433.5,462.8z"/>
	<path class="st1" d="M433.4,467.8c0,0,1.6,0.1,3.7,0.1s3.7,0,3.7-0.1C438.3,467.7,435.9,467.7,433.4,467.8z"/>
	<rect x="322.9" y="376.8" class="st2" width="24" height="101.4"/>
	<rect x="335.1" y="383.9" class="st0" width="7.3" height="14"/>
	<path class="st1" d="M338.5,398c0,0,0.1-3.1,0.1-7s0-7-0.1-7s-0.1,3.1-0.1,7S338.5,398,338.5,398z"/>
	<path class="st1" d="M335.1,388.8c2.4,0.1,4.9,0.1,7.3,0C340,388.7,337.5,388.7,335.1,388.8z"/>
	<path class="st1" d="M335.1,393.8c2.4,0.1,4.9,0.1,7.4,0C340,393.7,337.5,393.7,335.1,393.8z"/>
	<rect x="335.1" y="402.3" class="st0" width="7.3" height="14"/>
	<path class="st1" d="M338.5,416.3c0,0,0.1-3.1,0.1-7s0-7-0.1-7s-0.1,3.1-0.1,7S338.5,416.3,338.5,416.3z"/>
	<path class="st1" d="M335.1,407.2c2.4,0.1,4.9,0.1,7.3,0C340,407,337.5,407,335.1,407.2z"/>
	<path class="st1" d="M335.1,412.2c2.4,0.1,4.9,0.1,7.4,0C340,412,337.5,412,335.1,412.2z"/>
	<rect x="335.1" y="420.6" class="st0" width="7.3" height="14"/>
	<path class="st1" d="M338.5,434.7c0,0,0.1-3.1,0.1-7s0-7-0.1-7s-0.1,3.1-0.1,7S338.5,434.7,338.5,434.7z"/>
	<path class="st1" d="M335.1,425.5c2.4,0.1,4.9,0.1,7.3,0C340,425.4,337.5,425.4,335.1,425.5z"/>
	<path class="st1" d="M335.1,430.5c2.4,0.1,4.9,0.1,7.4,0c0,0-1.6-0.1-3.7-0.1S335.1,430.5,335.1,430.5z"/>
	<rect x="335.1" y="439" class="st0" width="7.3" height="14"/>
	<path class="st1" d="M338.5,453c0,0,0.1-3.1,0.1-7s0-7-0.1-7s-0.1,3.1-0.1,7S338.5,453,338.5,453z"/>
	<path class="st1" d="M335.1,443.8c2.4,0.1,4.9,0.1,7.3,0c0,0-1.6-0.1-3.6-0.1S335.1,443.8,335.1,443.8z"/>
	<path class="st1" d="M335.1,448.9c2.4,0.1,4.9,0.1,7.4,0c0,0-1.6-0.1-3.7-0.1S335.1,448.8,335.1,448.9z"/>
	<rect x="312.7" y="376.8" class="st1" width="17.5" height="101.4"/>
	<rect x="317.4" y="383.9" class="st0" width="7.3" height="14"/>
	<path class="st1" d="M320.9,398c0.1,0,0.1-3.1,0.1-7s0-7-0.1-7s-0.1,3.1-0.1,7S320.8,398,320.9,398z"/>
	<path class="st1" d="M317.4,388.8c2.4,0.1,4.9,0.1,7.3,0C322.3,388.7,319.9,388.7,317.4,388.8z"/>
	<path class="st1" d="M317.4,393.8c2.4,0.1,4.9,0.1,7.3,0C322.3,393.7,319.9,393.7,317.4,393.8z"/>
	<rect x="317.4" y="402.4" class="st0" width="7.3" height="14"/>
	<path class="st1" d="M320.9,416.5c0.1,0,0.1-3.1,0.1-7s0-7-0.1-7s-0.1,3.1-0.1,7S320.8,416.5,320.9,416.5z"/>
	<path class="st1" d="M317.4,407.3c2.4,0.1,4.9,0.1,7.3,0C322.3,407.2,319.9,407.2,317.4,407.3z"/>
	<path class="st1" d="M317.4,412.3c2.4,0.1,4.9,0.1,7.3,0C322.3,412.2,319.9,412.2,317.4,412.3z"/>
	<rect x="317.4" y="420.9" class="st0" width="7.3" height="14"/>
	<path class="st1" d="M320.9,435c0.1,0,0.1-3.1,0.1-7s0-7-0.1-7s-0.1,3.1-0.1,7S320.8,435,320.9,435z"/>
	<path class="st1" d="M317.4,425.8c2.4,0.1,4.9,0.1,7.3,0C322.3,425.7,319.9,425.7,317.4,425.8z"/>
	<path class="st1" d="M317.4,430.8c2.4,0.1,4.9,0.1,7.3,0c0,0-1.6-0.1-3.7-0.1S317.4,430.8,317.4,430.8z"/>
	<rect x="317.4" y="439.4" class="st0" width="7.3" height="14"/>
	<path class="st1" d="M320.9,453.5c0.1,0,0.1-3.1,0.1-7s0-7-0.1-7s-0.1,3.1-0.1,7S320.8,453.5,320.9,453.5z"/>
	<path class="st1" d="M317.4,444.3c2.4,0.1,4.9,0.1,7.3,0c0,0-1.6-0.1-3.6-0.1S317.4,444.2,317.4,444.3z"/>
	<path class="st1" d="M317.4,449.3c0,0,1.6,0.1,3.7,0.1s3.7,0,3.7-0.1C322.3,449.2,319.9,449.2,317.4,449.3L317.4,449.3z"/>
	<rect x="335.1" y="457.3" class="st0" width="7.3" height="14"/>
	<path class="st1" d="M338.5,471.3c0,0,0.1-3.1,0.1-7s0-7-0.1-7s-0.1,3.1-0.1,7S338.5,471.3,338.5,471.3z"/>
	<path class="st1" d="M335.1,462.2c2.4,0.1,4.9,0.1,7.3,0c0,0-1.6-0.1-3.6-0.1S335.1,462.1,335.1,462.2z"/>
	<path class="st1" d="M335.1,467.2c0,0,1.6,0.1,3.7,0.1s3.7,0,3.7-0.1C340,467.1,337.5,467.1,335.1,467.2z"/>
	<rect x="317.4" y="457.9" class="st0" width="7.3" height="14"/>
	<path class="st1" d="M320.9,472c0.1,0,0.1-3.1,0.1-7s0-7-0.1-7s-0.1,3.1-0.1,7S320.8,472,320.9,472z"/>
	<path class="st1" d="M317.4,462.8c0,0,1.6,0.1,3.6,0.1s3.6,0,3.6-0.1C322.3,462.7,319.9,462.7,317.4,462.8z"/>
	<path class="st1" d="M317.4,467.8c0,0,1.6,0.1,3.7,0.1s3.7,0,3.7-0.1C322.3,467.7,319.9,467.7,317.4,467.8L317.4,467.8z"/>
	<rect x="402.2" y="347.3" class="st2" width="31.1" height="131.6"/>
	<rect x="418" y="356.5" class="st0" width="9.5" height="18.2"/>
	<path class="st1" d="M422.5,374.7c0.1,0,0.1-4.1,0.1-9.1s0-9.1-0.1-9.1s-0.1,4.1-0.1,9.1S422.4,374.7,422.5,374.7z"/>
	<path class="st1" d="M418,362.8c3.1,0.2,6.3,0.2,9.5,0C424.3,362.6,421.1,362.6,418,362.8z"/>
	<path class="st1" d="M418,369.3c3.2,0.2,6.4,0.2,9.5,0C424.4,369.2,421.2,369.2,418,369.3z"/>
	<rect x="418" y="380.3" class="st0" width="9.5" height="18.2"/>
	<path class="st1" d="M422.5,398.5c0.1,0,0.1-4.1,0.1-9.1s0-9.1-0.1-9.1s-0.1,4.1-0.1,9.1S422.4,398.5,422.5,398.5z"/>
	<path class="st1" d="M418,386.6c3.1,0.2,6.3,0.2,9.5,0C424.3,386.4,421.1,386.4,418,386.6z"/>
	<path class="st1" d="M418,393.1c3.2,0.2,6.4,0.2,9.5,0C424.4,393,421.2,393,418,393.1z"/>
	<rect x="418" y="404.1" class="st0" width="9.5" height="18.2"/>
	<path class="st1" d="M422.5,422.3c0.1,0,0.1-4.1,0.1-9.1s0-9.1-0.1-9.1s-0.1,4.1-0.1,9.1S422.4,422.3,422.5,422.3z"/>
	<path class="st1" d="M418,410.4c3.1,0.2,6.3,0.2,9.5,0C424.3,410.2,421.1,410.2,418,410.4z"/>
	<path class="st1" d="M418,416.9c3.2,0.2,6.4,0.2,9.5,0C424.4,416.8,421.2,416.8,418,416.9z"/>
	<rect x="418" y="427.9" class="st0" width="9.5" height="18.2"/>
	<path class="st1" d="M422.5,446.1c0.1,0,0.1-4.1,0.1-9.1s0-9.1-0.1-9.1s-0.1,4.1-0.1,9.1S422.4,446.1,422.5,446.1z"/>
	<path class="st1" d="M418,434.2c3.1,0.2,6.3,0.2,9.5,0C424.3,434.1,421.1,434.1,418,434.2z"/>
	<path class="st1" d="M418,440.7c3.2,0.2,6.4,0.2,9.5,0C424.4,440.6,421.2,440.6,418,440.7z"/>
	<rect x="388.9" y="347.3" class="st1" width="22.7" height="131.6"/>
	<rect x="395.1" y="356.5" class="st0" width="9.5" height="18.2"/>
	<path class="st1" d="M399.6,374.7c0.1,0,0.1-4.1,0.1-9.1s-0.1-9.1-0.1-9.1s-0.1,4.1-0.1,9.1S399.5,374.7,399.6,374.7z"/>
	<path class="st1" d="M395.1,362.8c3.2,0.2,6.3,0.2,9.5,0C401.4,362.6,398.3,362.6,395.1,362.8z"/>
	<path class="st1" d="M395.1,369.3c3.2,0.2,6.4,0.2,9.5,0C401.4,369.2,398.2,369.2,395.1,369.3z"/>
	<rect x="395.1" y="380.5" class="st0" width="9.5" height="18.2"/>
	<path class="st1" d="M399.6,398.7c0.1,0,0.1-4.1,0.1-9.1s-0.1-9.1-0.1-9.1s-0.1,4.1-0.1,9.1S399.5,398.7,399.6,398.7z"/>
	<path class="st1" d="M395.1,386.8c3.2,0.2,6.3,0.2,9.5,0C401.4,386.6,398.3,386.6,395.1,386.8z"/>
	<path class="st1" d="M395.1,393.3c0,0.1,2.1,0.1,4.8,0.1s4.8-0.1,4.8-0.1C401.4,393.2,398.2,393.2,395.1,393.3z"/>
	<rect x="395.1" y="404.5" class="st0" width="9.5" height="18.2"/>
	<path class="st1" d="M399.6,422.7c0.1,0,0.1-4.1,0.1-9.1s-0.1-9.1-0.1-9.1s-0.1,4.1-0.1,9.1S399.5,422.7,399.6,422.7z"/>
	<path class="st1" d="M395.1,410.8c3.2,0.2,6.3,0.2,9.5,0C401.4,410.6,398.3,410.6,395.1,410.8z"/>
	<path class="st1" d="M395.1,417.3c3.2,0.2,6.4,0.2,9.5,0C401.4,417.2,398.2,417.2,395.1,417.3z"/>
	<rect x="395.1" y="428.5" class="st0" width="9.5" height="18.2"/>
	<path class="st1" d="M399.6,446.7c0.1,0,0.1-4.1,0.1-9.1s-0.1-9.1-0.1-9.1s-0.1,4.1-0.1,9.1S399.5,446.7,399.6,446.7z"/>
	<path class="st1" d="M395.1,434.8c3.2,0.2,6.3,0.2,9.5,0C401.4,434.6,398.3,434.6,395.1,434.8z"/>
	<path class="st1" d="M395.1,441.3c3.2,0.2,6.4,0.2,9.5,0C401.4,441.2,398.2,441.2,395.1,441.3z"/>
	<rect x="418" y="451.7" class="st0" width="9.5" height="18.2"/>
	<path class="st1" d="M422.5,469.9c0.1,0,0.1-4.1,0.1-9.1s0-9.1-0.1-9.1s-0.1,4.1-0.1,9.1S422.4,469.9,422.5,469.9z"/>
	<path class="st1" d="M418,458c3.1,0.2,6.3,0.2,9.5,0C424.3,457.8,421.1,457.8,418,458z"/>
	<path class="st1" d="M418,464.5c3.2,0.2,6.4,0.2,9.5,0c0-0.1-2.1-0.1-4.8-0.1S418,464.5,418,464.5z"/>
	<rect x="395.1" y="452.5" class="st0" width="9.5" height="18.2"/>
	<path class="st1" d="M399.6,470.7c0.1,0,0.1-4.1,0.1-9.1s-0.1-9.1-0.1-9.1s-0.1,4.1-0.1,9.1S399.5,470.7,399.6,470.7z"/>
	<path class="st1" d="M395.1,458.8c3.2,0.2,6.3,0.2,9.5,0C401.4,458.6,398.3,458.6,395.1,458.8z"/>
	<path class="st1" d="M395.1,465.3c3.2,0.2,6.4,0.2,9.5,0C401.4,465.2,398.2,465.2,395.1,465.3z"/>
	<rect x="358.7" y="259.9" class="st2" width="33" height="139.6"/>
	<rect x="375.5" y="269.7" class="st0" width="10" height="19.3"/>
	<path class="st1" d="M380.3,289c0.1,0,0.1-4.3,0.1-9.7s-0.1-9.7-0.1-9.7s-0.1,4.3-0.1,9.7S380.2,289,380.3,289z"/>
	<path class="st1" d="M375.5,276.4c3.3,0.2,6.7,0.2,10,0C382.2,276.2,378.9,276.2,375.5,276.4z"/>
	<path class="st1" d="M375.5,283.3c3.4,0.2,6.7,0.2,10.1,0C382.2,283.2,378.9,283.2,375.5,283.3z"/>
	<rect x="375.5" y="295" class="st0" width="10" height="19.3"/>
	<path class="st1" d="M380.3,314.3c0.1,0,0.1-4.3,0.1-9.7s-0.1-9.7-0.1-9.7s-0.1,4.3-0.1,9.7S380.2,314.3,380.3,314.3z"/>
	<path class="st1" d="M375.5,301.7c3.3,0.2,6.7,0.2,10,0C382.2,301.5,378.9,301.5,375.5,301.7z"/>
	<path class="st1" d="M375.5,308.6c3.4,0.2,6.7,0.2,10.1,0C382.2,308.4,378.9,308.4,375.5,308.6z"/>
	<rect x="375.5" y="320.2" class="st0" width="10" height="19.3"/>
	<path class="st1" d="M380.3,339.6c0.1,0,0.1-4.3,0.1-9.7s-0.1-9.7-0.1-9.7s-0.1,4.3-0.1,9.7S380.2,339.6,380.3,339.6z"/>
	<path class="st1" d="M375.5,327c3.3,0.2,6.7,0.2,10,0C382.2,326.8,378.9,326.8,375.5,327z"/>
	<path class="st1" d="M375.5,333.9c3.4,0.2,6.7,0.2,10.1,0C382.2,333.7,378.9,333.7,375.5,333.9z"/>
	<rect x="375.5" y="345.5" class="st0" width="10" height="19.3"/>
	<path class="st1" d="M380.3,364.8c0.1,0,0.1-4.3,0.1-9.7s-0.1-9.7-0.1-9.7s-0.1,4.3-0.1,9.7S380.2,364.8,380.3,364.8z"/>
	<path class="st1" d="M375.5,352.2c3.3,0.2,6.7,0.2,10,0C382.2,352,378.9,352,375.5,352.2z"/>
	<path class="st1" d="M375.5,359.1c3.4,0.2,6.7,0.2,10.1,0C382.2,358.9,378.9,358.9,375.5,359.1z"/>
	<rect x="344.7" y="259.9" class="st1" width="24.1" height="139.6"/>
	<rect x="351.2" y="269.7" class="st0" width="10" height="19.3"/>
	<path class="st1" d="M356,289c0.1,0,0.1-4.3,0.1-9.7s-0.1-9.7-0.1-9.7s-0.1,4.3-0.1,9.7S355.9,289,356,289z"/>
	<path class="st1" d="M351.2,276.4c3.3,0.2,6.7,0.2,10,0C357.9,276.2,354.6,276.2,351.2,276.4z"/>
	<path class="st1" d="M351.2,283.3c3.4,0.2,6.7,0.2,10.1,0C357.9,283.2,354.5,283.2,351.2,283.3z"/>
	<rect x="351.2" y="295.2" class="st0" width="10" height="19.3"/>
	<path class="st1" d="M356,314.5c0.1,0,0.1-4.3,0.1-9.7s-0.1-9.7-0.1-9.7s-0.1,4.3-0.1,9.7S355.9,314.5,356,314.5z"/>
	<path class="st1" d="M351.2,301.9c3.3,0.2,6.7,0.2,10,0C357.9,301.7,354.6,301.7,351.2,301.9z"/>
	<path class="st1" d="M351.2,308.8c3.4,0.2,6.7,0.2,10.1,0C357.9,308.6,354.5,308.6,351.2,308.8z"/>
	<rect x="351.2" y="320.6" class="st0" width="10" height="19.3"/>
	<path class="st1" d="M356,340c0.1,0,0.1-4.3,0.1-9.7s-0.1-9.7-0.1-9.7s-0.1,4.3-0.1,9.7S355.9,340,356,340z"/>
	<path class="st1" d="M351.2,327.4c3.3,0.2,6.7,0.2,10,0C357.9,327.2,354.6,327.2,351.2,327.4z"/>
	<path class="st1" d="M351.2,334.3c3.4,0.2,6.7,0.2,10.1,0C357.9,334.1,354.5,334.1,351.2,334.3z"/>
	<rect x="351.2" y="346.1" class="st0" width="10" height="19.3"/>
	<path class="st1" d="M356,365.4c0.1,0,0.1-4.3,0.1-9.7s-0.1-9.7-0.1-9.7s-0.1,4.3-0.1,9.7S355.9,365.4,356,365.4z"/>
	<path class="st1" d="M351.2,352.8c3.3,0.2,6.7,0.2,10,0C357.9,352.7,354.6,352.7,351.2,352.8z"/>
	<path class="st1" d="M351.2,359.7c3.4,0.2,6.7,0.2,10.1,0C357.9,359.6,354.5,359.6,351.2,359.7z"/>
	<rect x="375.5" y="370.7" class="st0" width="10" height="19.3"/>
	<path class="st1" d="M380.3,390.1c0.1,0,0.1-4.3,0.1-9.7s-0.1-9.7-0.1-9.7s-0.1,4.3-0.1,9.7S380.2,390.1,380.3,390.1z"/>
	<path class="st1" d="M375.5,377.5c3.3,0.2,6.7,0.2,10,0C382.2,377.3,378.9,377.3,375.5,377.5z"/>
	<path class="st1" d="M375.5,384.4c3.4,0.2,6.7,0.2,10.1,0C382.2,384.2,378.9,384.2,375.5,384.4z"/>
	<rect x="351.2" y="371.6" class="st0" width="10" height="19.3"/>
	<path class="st1" d="M356,390.9c0.1,0,0.1-4.3,0.1-9.7s-0.1-9.7-0.1-9.7s-0.1,4.3-0.1,9.7S355.9,390.9,356,390.9z"/>
	<path class="st1" d="M351.2,378.3c3.3,0.2,6.7,0.2,10,0C357.9,378.1,354.6,378.1,351.2,378.3z"/>
	<path class="st1" d="M351.2,385.2c3.4,0.2,6.7,0.2,10.1,0C357.9,385,354.5,385,351.2,385.2z"/>
	<rect x="358.7" y="338.7" class="st2" width="33" height="139.6"/>
	<rect x="375.5" y="348.5" class="st0" width="10" height="19.3"/>
	<path class="st1" d="M380.3,367.8c0.1,0,0.1-4.3,0.1-9.7s-0.1-9.7-0.1-9.7s-0.1,4.3-0.1,9.7S380.2,367.8,380.3,367.8z"/>
	<path class="st1" d="M375.5,355.2c3.3,0.2,6.7,0.2,10,0C382.2,355,378.9,355,375.5,355.2z"/>
	<path class="st1" d="M375.5,362.1c3.4,0.2,6.7,0.2,10.1,0C382.2,361.9,378.9,361.9,375.5,362.1z"/>
	<rect x="375.5" y="373.7" class="st0" width="10" height="19.3"/>
	<path class="st1" d="M380.3,393.1c0.1,0,0.1-4.3,0.1-9.7s-0.1-9.7-0.1-9.7s-0.1,4.3-0.1,9.7S380.2,393.1,380.3,393.1z"/>
	<path class="st1" d="M375.5,380.4c3.3,0.2,6.7,0.2,10,0C382.2,380.3,378.9,380.3,375.5,380.4z"/>
	<path class="st1" d="M375.5,387.4c3.4,0.2,6.7,0.2,10.1,0C382.2,387.2,378.9,387.2,375.5,387.4z"/>
	<rect x="375.5" y="399" class="st0" width="10" height="19.3"/>
	<path class="st1" d="M380.3,418.3c0.1,0,0.1-4.3,0.1-9.7s-0.1-9.7-0.1-9.7s-0.1,4.3-0.1,9.7S380.2,418.3,380.3,418.3z"/>
	<path class="st1" d="M375.5,405.7c3.3,0.2,6.7,0.2,10,0C382.2,405.5,378.9,405.5,375.5,405.7z"/>
	<path class="st1" d="M375.5,412.6c3.4,0.2,6.7,0.2,10.1,0C382.2,412.5,378.9,412.5,375.5,412.6z"/>
	<rect x="375.5" y="424.2" class="st0" width="10" height="19.3"/>
	<path class="st1" d="M380.3,443.6c0.1,0,0.1-4.3,0.1-9.7s-0.1-9.7-0.1-9.7s-0.1,4.3-0.1,9.7S380.2,443.6,380.3,443.6z"/>
	<path class="st1" d="M375.5,431c3.3,0.2,6.7,0.2,10,0C382.2,430.8,378.9,430.8,375.5,431z"/>
	<path class="st1" d="M375.5,437.9c3.4,0.2,6.7,0.2,10.1,0C382.2,437.7,378.9,437.7,375.5,437.9z"/>
	<rect x="344.7" y="338.7" class="st1" width="24.1" height="139.6"/>
	<rect x="351.2" y="348.5" class="st0" width="10" height="19.3"/>
	<path class="st1" d="M356,367.8c0.1,0,0.1-4.3,0.1-9.7s-0.1-9.7-0.1-9.7s-0.1,4.3-0.1,9.7S355.9,367.8,356,367.8z"/>
	<path class="st1" d="M351.2,355.2c3.3,0.2,6.7,0.2,10,0C357.9,355,354.6,355,351.2,355.2z"/>
	<path class="st1" d="M351.2,362.1c3.4,0.2,6.7,0.2,10.1,0C357.9,361.9,354.5,361.9,351.2,362.1z"/>
	<rect x="351.2" y="373.9" class="st0" width="10" height="19.3"/>
	<path class="st1" d="M356,393.3c0.1,0,0.1-4.3,0.1-9.7s-0.1-9.7-0.1-9.7s-0.1,4.3-0.1,9.7S355.9,393.3,356,393.3z"/>
	<path class="st1" d="M351.2,380.7c3.3,0.2,6.7,0.2,10,0C357.9,380.5,354.6,380.5,351.2,380.7z"/>
	<path class="st1" d="M351.2,387.6c3.4,0.2,6.7,0.2,10.1,0C357.9,387.4,354.5,387.4,351.2,387.6z"/>
	<rect x="351.2" y="399.4" class="st0" width="10" height="19.3"/>
	<path class="st1" d="M356,418.7c0.1,0,0.1-4.3,0.1-9.7s-0.1-9.7-0.1-9.7s-0.1,4.3-0.1,9.7S355.9,418.7,356,418.7z"/>
	<path class="st1" d="M351.2,406.1c3.3,0.2,6.7,0.2,10,0C357.9,405.9,354.6,405.9,351.2,406.1z"/>
	<path class="st1" d="M351.2,413c3.4,0.2,6.7,0.2,10.1,0C357.9,412.8,354.5,412.8,351.2,413z"/>
	<rect x="351.2" y="424.9" class="st0" width="10" height="19.3"/>
	<path class="st1" d="M356,444.2c0.1,0,0.1-4.3,0.1-9.7s-0.1-9.7-0.1-9.7s-0.1,4.3-0.1,9.7S355.9,444.2,356,444.2z"/>
	<path class="st1" d="M351.2,431.6c3.3,0.2,6.7,0.2,10,0C357.9,431.4,354.6,431.4,351.2,431.6z"/>
	<path class="st1" d="M351.2,438.5c3.4,0.2,6.7,0.2,10.1,0C357.9,438.3,354.5,438.3,351.2,438.5z"/>
	<rect x="375.5" y="449.5" class="st0" width="10" height="19.3"/>
	<path class="st1" d="M380.3,468.8c0.1,0,0.1-4.3,0.1-9.7s-0.1-9.7-0.1-9.7s-0.1,4.3-0.1,9.7S380.2,468.8,380.3,468.8z"/>
	<path class="st1" d="M375.5,456.2c3.3,0.2,6.7,0.2,10,0C382.2,456.1,378.9,456.1,375.5,456.2z"/>
	<path class="st1" d="M375.5,463.1c3.4,0.2,6.7,0.2,10.1,0C382.2,463,378.9,463,375.5,463.1z"/>
	<rect x="351.2" y="450.3" class="st0" width="10" height="19.3"/>
	<path class="st1" d="M356,469.7c0.1,0,0.1-4.3,0.1-9.7s-0.1-9.7-0.1-9.7s-0.1,4.3-0.1,9.7S355.9,469.7,356,469.7z"/>
	<path class="st1" d="M351.2,457.1c3.3,0.2,6.7,0.2,10,0C357.9,456.9,354.6,456.9,351.2,457.1z"/>
	<path class="st1" d="M351.2,464c3.4,0.2,6.7,0.2,10.1,0C357.9,463.8,354.5,463.8,351.2,464z"/>
	<rect x="43.9" y="356.1" class="st2" width="29.4" height="124.3"/>
	<rect x="58.9" y="364.8" class="st0" width="8.9" height="17.2"/>
	<path class="st1" d="M63.1,382c0.1,0,0.1-3.9,0.1-8.6s0-8.6-0.1-8.6s-0.1,3.9-0.1,8.6S63,382,63.1,382z"/>
	<path class="st1" d="M58.9,370.8c0,0.1,2,0.1,4.5,0.1s4.5,0,4.5-0.1c-1.5-0.1-3-0.2-4.5-0.1C61.9,370.6,60.4,370.7,58.9,370.8z"/>
	<path class="st1" d="M58.9,377c1.5,0.1,3,0.2,4.5,0.1c1.5,0,3,0,4.5-0.1c-1.5-0.1-3-0.2-4.5-0.1C61.9,376.8,60.4,376.9,58.9,377z"
		/>
	<rect x="58.9" y="387.3" class="st0" width="8.9" height="17.2"/>
	<path class="st1" d="M63.1,404.5c0.1,0,0.1-3.9,0.1-8.6s0-8.6-0.1-8.6s-0.1,3.9-0.1,8.6S63,404.5,63.1,404.5z"/>
	<path class="st1" d="M58.9,393.3c1.5,0.1,3,0.2,4.5,0.1c1.5,0,3,0,4.5-0.1c-1.5-0.1-3-0.2-4.5-0.1
		C61.9,393.1,60.4,393.2,58.9,393.3z"/>
	<path class="st1" d="M58.9,399.4c1.5,0.1,3,0.2,4.5,0.1c1.5,0,3,0,4.5-0.1c-1.5-0.1-3-0.2-4.5-0.1
		C61.9,399.3,60.4,399.3,58.9,399.4z"/>
	<rect x="58.9" y="409.8" class="st0" width="8.9" height="17.2"/>
	<path class="st1" d="M63.1,427c0.1,0,0.1-3.9,0.1-8.6s0-8.6-0.1-8.6s-0.1,3.9-0.1,8.6S63,427,63.1,427z"/>
	<path class="st1" d="M58.9,415.8c1.5,0.1,3,0.2,4.5,0.1c1.5,0,3,0,4.5-0.1c-1.5-0.1-3-0.2-4.5-0.1
		C61.9,415.6,60.4,415.7,58.9,415.8z"/>
	<path class="st1" d="M58.9,421.9c1.5,0.1,3,0.2,4.5,0.1c1.5,0,3,0,4.5-0.1c-1.5-0.1-3-0.2-4.5-0.1
		C61.9,421.8,60.4,421.8,58.9,421.9z"/>
	<rect x="58.9" y="432.3" class="st0" width="8.9" height="17.2"/>
	<path class="st1" d="M63.1,449.5c0.1,0,0.1-3.9,0.1-8.6s0-8.6-0.1-8.6s-0.1,3.8-0.1,8.6S63,449.5,63.1,449.5z"/>
	<path class="st1" d="M58.9,438.3c1.5,0.1,3,0.2,4.5,0.1c1.5,0,3,0,4.5-0.1c-1.5-0.1-3-0.2-4.5-0.1
		C61.9,438.1,60.4,438.2,58.9,438.3z"/>
	<path class="st1" d="M58.9,444.4c1.5,0.1,3,0.2,4.5,0.1c1.5,0,3,0,4.5-0.1c-1.5-0.1-3-0.2-4.5-0.1
		C61.9,444.3,60.4,444.3,58.9,444.4z"/>
	<rect x="31.4" y="356.1" class="st1" width="21.4" height="124.3"/>
	<rect x="37.2" y="364.8" class="st0" width="8.9" height="17.2"/>
	<path class="st1" d="M41.5,382c0.1,0,0.1-3.9,0.1-8.6s0-8.6-0.1-8.6s-0.1,3.9-0.1,8.6S41.4,382,41.5,382z"/>
	<path class="st1" d="M37.2,370.8c0,0.1,2,0.1,4.5,0.1s4.5,0,4.5-0.1c-1.5-0.1-3-0.2-4.5-0.1C40.2,370.6,38.7,370.7,37.2,370.8z"/>
	<path class="st1" d="M37.2,377c1.5,0.1,3,0.2,4.5,0.1c1.5,0,3,0,4.5-0.1c-1.5-0.1-3-0.2-4.5-0.1C40.2,376.8,38.7,376.9,37.2,377z"
		/>
	<rect x="37.2" y="387.5" class="st0" width="8.9" height="17.2"/>
	<path class="st1" d="M41.5,404.7c0.1,0,0.1-3.9,0.1-8.6s0-8.6-0.1-8.6s-0.1,3.9-0.1,8.6S41.4,404.7,41.5,404.7z"/>
	<path class="st1" d="M37.2,393.5c1.5,0.1,3,0.2,4.5,0.1c1.5,0,3,0,4.5-0.1c-1.5-0.1-3-0.2-4.5-0.1
		C40.2,393.3,38.7,393.4,37.2,393.5z"/>
	<path class="st1" d="M37.2,399.6c1.5,0.1,3,0.2,4.5,0.1c1.5,0,3,0,4.5-0.1c-1.5-0.1-3-0.2-4.5-0.1
		C40.2,399.5,38.7,399.5,37.2,399.6z"/>
	<rect x="37.2" y="410.2" class="st0" width="8.9" height="17.2"/>
	<path class="st1" d="M41.5,427.4c0.1,0,0.1-3.9,0.1-8.6s0-8.6-0.1-8.6s-0.1,3.9-0.1,8.6S41.4,427.4,41.5,427.4z"/>
	<path class="st1" d="M37.2,416.1c1.5,0.1,3,0.2,4.5,0.1c1.5,0,3,0,4.5-0.1c-1.5-0.1-3-0.2-4.5-0.1C40.2,416,38.7,416,37.2,416.1z"
		/>
	<path class="st1" d="M37.2,422.3c1.5,0.1,3,0.2,4.5,0.1c1.5,0,3,0,4.5-0.1c-1.5-0.1-3-0.2-4.5-0.1
		C40.2,422.1,38.7,422.2,37.2,422.3z"/>
	<rect x="37.2" y="432.8" class="st0" width="8.9" height="17.2"/>
	<path class="st1" d="M41.5,450.1c0.1,0,0.1-3.9,0.1-8.6s0-8.6-0.1-8.6s-0.1,3.9-0.1,8.6S41.4,450.1,41.5,450.1z"/>
	<path class="st1" d="M37.2,438.8c1.5,0.1,3,0.2,4.5,0.1c1.5,0,3,0,4.5-0.1c-1.5-0.1-3-0.2-4.5-0.1
		C40.2,438.7,38.7,438.7,37.2,438.8z"/>
	<path class="st1" d="M37.2,445c1.5,0.1,3,0.2,4.5,0.1c1.5,0,3,0,4.5-0.1c0-0.1-2-0.1-4.5-0.1S37.2,444.9,37.2,445z"/>
	<rect x="58.9" y="454.8" class="st0" width="8.9" height="17.2"/>
	<path class="st1" d="M63.1,472c0.1,0,0.1-3.9,0.1-8.6s0-8.6-0.1-8.6s-0.1,3.9-0.1,8.6S63,472,63.1,472z"/>
	<path class="st1" d="M58.9,460.8c0,0.1,2,0.1,4.5,0.1s4.5,0,4.5-0.1c-1.5-0.1-3-0.2-4.5-0.1C61.9,460.6,60.4,460.6,58.9,460.8z"/>
	<path class="st1" d="M58.9,466.9c1.5,0.1,3,0.2,4.5,0.1c1.5,0,3,0,4.5-0.1c-1.5-0.1-3-0.2-4.5-0.1
		C61.9,466.8,60.4,466.8,58.9,466.9z"/>
	<rect x="37.2" y="455.5" class="st0" width="8.9" height="17.2"/>
	<path class="st1" d="M41.5,472.7c0.1,0,0.1-3.9,0.1-8.6s0-8.6-0.1-8.6s-0.1,3.9-0.1,8.6S41.4,472.7,41.5,472.7z"/>
	<path class="st1" d="M37.2,461.5c1.5,0.1,3,0.2,4.5,0.1c1.5,0,3,0,4.5-0.1c-1.5-0.1-3-0.2-4.5-0.1
		C40.2,461.3,38.7,461.4,37.2,461.5z"/>
	<path class="st1" d="M37.2,467.7c1.5,0.1,3,0.2,4.5,0.1c1.5,0,3,0,4.5-0.1c-1.5-0.1-3-0.2-4.5-0.1
		C40.2,467.5,38.7,467.5,37.2,467.7z"/>
</g>
<g id="freepik--City--inject-84">
	<rect x="186.8" y="262.7" class="st4" width="35.3" height="149.5"/>
	<rect x="204.8" y="273.2" class="st0" width="10.7" height="20.7"/>
	<path class="st1" d="M209.9,293.9c0.1,0,0.1-4.6,0.1-10.4s-0.1-10.4-0.1-10.4s-0.1,4.6-0.1,10.4S209.8,293.9,209.9,293.9z"/>
	<path class="st1" d="M204.8,280.4c1.8,0.1,3.6,0.2,5.4,0.1c1.8,0,3.6,0,5.4-0.1c-1.8-0.1-3.6-0.2-5.4-0.1
		C208.4,280.2,206.6,280.2,204.8,280.4z"/>
	<path class="st1" d="M204.8,287.8c1.8,0.1,3.6,0.2,5.4,0.1c1.8,0,3.6,0,5.4-0.1c-1.8-0.1-3.6-0.2-5.4-0.1
		C208.4,287.6,206.6,287.6,204.8,287.8z"/>
	<rect x="204.8" y="300.2" class="st0" width="10.7" height="20.7"/>
	<path class="st1" d="M209.9,320.9c0.1,0,0.1-4.6,0.1-10.4s-0.1-10.4-0.1-10.4s-0.1,4.6-0.1,10.4S209.8,320.9,209.9,320.9z"/>
	<path class="st1" d="M204.8,307.4c1.8,0.1,3.6,0.2,5.4,0.1c1.8,0,3.6,0,5.4-0.1c-1.8-0.1-3.6-0.2-5.4-0.1
		C208.4,307.2,206.6,307.3,204.8,307.4z"/>
	<path class="st1" d="M204.8,314.8c1.8,0.1,3.6,0.2,5.4,0.1c1.8,0,3.6,0,5.4-0.1c-1.8-0.1-3.6-0.2-5.4-0.1
		C208.4,314.6,206.6,314.7,204.8,314.8z"/>
	<rect x="204.8" y="327.3" class="st0" width="10.7" height="20.7"/>
	<path class="st1" d="M209.9,348c0.1,0,0.1-4.6,0.1-10.4s-0.1-10.4-0.1-10.4s-0.1,4.6-0.1,10.4S209.8,348,209.9,348z"/>
	<path class="st1" d="M204.8,334.5c1.8,0.1,3.6,0.2,5.4,0.1c1.8,0,3.6,0,5.4-0.1c-1.8-0.1-3.6-0.2-5.4-0.1
		C208.4,334.3,206.6,334.3,204.8,334.5z"/>
	<path class="st1" d="M204.8,341.9c1.8,0.1,3.6,0.2,5.4,0.1c1.8,0,3.6,0,5.4-0.1c-1.8-0.1-3.6-0.2-5.4-0.1
		C208.4,341.7,206.6,341.7,204.8,341.9z"/>
	<rect x="204.8" y="354.3" class="st0" width="10.7" height="20.7"/>
	<path class="st1" d="M209.9,375c0.1,0,0.1-4.6,0.1-10.4s-0.1-10.4-0.1-10.4s-0.1,4.6-0.1,10.4S209.8,375,209.9,375z"/>
	<path class="st1" d="M204.8,361.5c1.8,0.1,3.6,0.2,5.4,0.1c1.8,0,3.6,0,5.4-0.1c-1.8-0.1-3.6-0.2-5.4-0.1
		C208.4,361.3,206.6,361.3,204.8,361.5z"/>
	<path class="st1" d="M204.8,368.9c1.8,0.1,3.6,0.2,5.4,0.1c1.8,0,3.6,0,5.4-0.1c-1.8-0.1-3.6-0.2-5.4-0.1
		C208.4,368.7,206.6,368.8,204.8,368.9z"/>
	<rect x="171.8" y="262.7" class="st5" width="25.8" height="149.5"/>
	<rect x="178.8" y="273.2" class="st0" width="10.7" height="20.7"/>
	<path class="st1" d="M183.9,293.9c0.1,0,0.1-4.6,0.1-10.4s-0.1-10.4-0.1-10.4s-0.1,4.6-0.1,10.4S183.8,293.9,183.9,293.9z"/>
	<path class="st1" d="M178.8,280.4c1.8,0.1,3.6,0.2,5.4,0.1c1.8,0,3.6,0,5.4-0.1c-1.8-0.1-3.6-0.2-5.4-0.1
		C182.4,280.2,180.6,280.2,178.8,280.4z"/>
	<path class="st1" d="M178.8,287.8c1.8,0.1,3.6,0.2,5.4,0.1c1.8,0,3.6,0,5.4-0.1c-1.8-0.1-3.6-0.2-5.4-0.1
		C182.4,287.6,180.5,287.6,178.8,287.8z"/>
	<rect x="178.8" y="300.4" class="st0" width="10.7" height="20.7"/>
	<path class="st1" d="M183.9,321.1c0.1,0,0.1-4.6,0.1-10.4s-0.1-10.4-0.1-10.4s-0.1,4.6-0.1,10.4S183.8,321.1,183.9,321.1z"/>
	<path class="st1" d="M178.8,307.6c1.8,0.1,3.6,0.2,5.4,0.1c1.8,0,3.6,0,5.4-0.1c-1.8-0.1-3.6-0.2-5.4-0.1
		C182.4,307.5,180.6,307.5,178.8,307.6z"/>
	<path class="st1" d="M178.8,315c1.8,0.1,3.6,0.2,5.4,0.1c1.8,0,3.6,0,5.4-0.1c-1.8-0.1-3.6-0.2-5.4-0.1
		C182.4,314.8,180.5,314.9,178.8,315z"/>
	<rect x="178.8" y="327.7" class="st0" width="10.7" height="20.7"/>
	<path class="st1" d="M183.9,348.4c0.1,0,0.1-4.6,0.1-10.4s-0.1-10.4-0.1-10.4s-0.1,4.6-0.1,10.4S183.8,348.4,183.9,348.4z"/>
	<path class="st1" d="M178.8,334.9c1.8,0.1,3.6,0.2,5.4,0.1c1.8,0,3.6,0,5.4-0.1c-1.8-0.1-3.6-0.2-5.4-0.1
		C182.4,334.7,180.6,334.8,178.8,334.9z"/>
	<path class="st1" d="M178.8,342.3c1.8,0.1,3.6,0.2,5.4,0.1c1.8,0,3.6,0,5.4-0.1c-1.8-0.1-3.6-0.2-5.4-0.1
		C182.4,342.1,180.5,342.2,178.8,342.3z"/>
	<rect x="178.8" y="355" class="st0" width="10.7" height="20.7"/>
	<path class="st1" d="M183.9,375.7c0.1,0,0.1-4.6,0.1-10.4s0-10.3-0.1-10.3s-0.1,4.6-0.1,10.4S183.8,375.7,183.9,375.7z"/>
	<path class="st1" d="M178.8,362.2c1.8,0.1,3.6,0.2,5.4,0.1c1.8,0,3.6,0,5.4-0.1c-1.8-0.1-3.6-0.2-5.4-0.1
		C182.4,362,180.6,362,178.8,362.2z"/>
	<path class="st1" d="M178.8,369.6c1.8,0.1,3.6,0.2,5.4,0.1c1.8,0,3.6,0,5.4-0.1c-1.8-0.1-3.6-0.2-5.4-0.1
		C182.4,369.4,180.5,369.4,178.8,369.6z"/>
	<rect x="204.8" y="381.3" class="st0" width="10.7" height="20.7"/>
	<path class="st1" d="M209.9,402c0.1,0,0.1-4.6,0.1-10.4s-0.1-10.4-0.1-10.4s-0.1,4.6-0.1,10.4S209.8,402,209.9,402z"/>
	<path class="st1" d="M204.8,388.5c1.8,0.1,3.6,0.2,5.4,0.1c1.8,0,3.6,0,5.4-0.1c-1.8-0.1-3.6-0.2-5.4-0.1
		C208.4,388.3,206.6,388.4,204.8,388.5z"/>
	<path class="st1" d="M204.8,395.9c1.8,0.1,3.6,0.2,5.4,0.1c1.8,0,3.6,0,5.4-0.1c0-0.1-2.4-0.1-5.4-0.1S204.8,395.9,204.8,395.9z"/>
	<rect x="178.8" y="382.2" class="st0" width="10.7" height="20.7"/>
	<path class="st1" d="M183.9,402.9c0.1,0,0.1-4.6,0.1-10.4s-0.1-10.4-0.1-10.4s-0.1,4.6-0.1,10.4S183.8,402.9,183.9,402.9z"/>
	<path class="st1" d="M178.8,389.4c1.8,0.1,3.6,0.2,5.4,0.1c1.8,0,3.6,0,5.4-0.1c-1.8-0.1-3.6-0.2-5.4-0.1
		C182.4,389.2,180.6,389.3,178.8,389.4z"/>
	<path class="st1" d="M178.8,396.8c1.8,0.1,3.6,0.2,5.4,0.1c1.8,0,3.6,0,5.4-0.1c-1.8-0.1-3.6-0.2-5.4-0.1
		C182.4,396.6,180.5,396.7,178.8,396.8z"/>
	<rect x="140.6" y="284.3" class="st4" width="45.9" height="194"/>
	<rect x="163.9" y="297.9" class="st0" width="13.9" height="26.9"/>
	<path class="st1" d="M170.5,324.7c0.1,0,0.2-6,0.2-13.4s-0.1-13.4-0.2-13.4s-0.2,6-0.2,13.4S170.4,324.7,170.5,324.7z"/>
	<path class="st1" d="M164,307.2c2.3,0.2,4.7,0.2,7,0.2c2.3,0.1,4.7,0,7-0.2c-2.3-0.2-4.7-0.3-7-0.2C168.7,307,166.3,307,164,307.2z
		"/>
	<path class="st1" d="M163.9,316.8c2.3,0.2,4.7,0.2,7,0.2c2.3,0.1,4.7,0,7-0.2c-2.3-0.2-4.7-0.3-7-0.2
		C168.5,316.6,166.2,316.6,163.9,316.8z"/>
	<rect x="163.9" y="333" class="st0" width="13.9" height="26.9"/>
	<path class="st1" d="M170.5,359.8c0.1,0,0.2-6,0.2-13.4s-0.1-13.4-0.2-13.4s-0.2,6-0.2,13.4S170.4,359.8,170.5,359.8z"/>
	<path class="st1" d="M164,342.3c2.3,0.2,4.7,0.3,7,0.2c2.3,0.1,4.7,0,7-0.2c-2.3-0.2-4.7-0.2-7-0.2
		C168.7,342.1,166.3,342.1,164,342.3z"/>
	<path class="st1" d="M163.9,351.9c2.3,0.2,4.7,0.3,7,0.2c2.3,0.1,4.7,0,7-0.2c-2.3-0.2-4.7-0.2-7-0.2
		C168.5,351.7,166.2,351.7,163.9,351.9z"/>
	<rect x="163.9" y="368.1" class="st0" width="13.9" height="26.9"/>
	<path class="st1" d="M170.5,394.9c0.1,0,0.2-6,0.2-13.4s-0.1-13.4-0.2-13.4s-0.2,6-0.2,13.4S170.4,394.9,170.5,394.9z"/>
	<path class="st1" d="M164,377.4c2.3,0.2,4.7,0.3,7,0.2c2.3,0.1,4.7,0,7-0.2c-2.3-0.2-4.7-0.2-7-0.2
		C168.7,377.2,166.3,377.2,164,377.4z"/>
	<path class="st1" d="M163.9,387c2.3,0.2,4.7,0.2,7,0.2c2.3,0.1,4.7,0,7-0.2c-2.3-0.2-4.7-0.2-7-0.2
		C168.5,386.8,166.2,386.8,163.9,387z"/>
	<rect x="163.9" y="403.2" class="st0" width="13.9" height="26.9"/>
	<path class="st1" d="M170.5,430c0.1,0,0.2-6,0.2-13.4s-0.1-13.4-0.2-13.4s-0.2,6-0.2,13.4S170.4,430,170.5,430z"/>
	<path class="st1" d="M164,412.5c2.3,0.2,4.7,0.3,7,0.2c2.3,0.1,4.7,0,7-0.2c-2.3-0.2-4.7-0.3-7-0.2
		C168.7,412.2,166.3,412.3,164,412.5z"/>
	<path class="st1" d="M163.9,422.1c2.3,0.2,4.7,0.2,7,0.2c2.3,0.1,4.7,0,7-0.2c-2.3-0.2-4.7-0.2-7-0.2
		C168.5,421.9,166.2,421.9,163.9,422.1z"/>
	<rect x="121.1" y="284.3" class="st5" width="33.4" height="194"/>
	<rect x="130.2" y="297.9" class="st0" width="13.9" height="26.9"/>
	<path class="st1" d="M136.7,324.7c0.1,0,0.2-6,0.2-13.4s-0.1-13.4-0.2-13.4s-0.2,6-0.2,13.4S136.6,324.7,136.7,324.7z"/>
	<path class="st1" d="M130.2,307.2c2.3,0.2,4.7,0.2,7,0.2c2.3,0.1,4.7,0,7-0.2c-2.3-0.2-4.7-0.3-7-0.2
		C134.8,307,132.5,307,130.2,307.2z"/>
	<path class="st1" d="M130.1,316.8c2.3,0.2,4.7,0.2,7,0.2c2.3,0.1,4.7,0,7-0.2c-2.3-0.2-4.7-0.3-7-0.2
		C134.8,316.6,132.4,316.6,130.1,316.8z"/>
	<rect x="130.2" y="333.3" class="st0" width="13.9" height="26.9"/>
	<path class="st1" d="M136.7,360.1c0.1,0,0.2-6,0.2-13.4s-0.1-13.4-0.2-13.4s-0.2,6-0.2,13.4S136.6,360.1,136.7,360.1z"/>
	<path class="st1" d="M130.2,342.6c2.3,0.2,4.7,0.3,7,0.2c2.3,0.1,4.7,0,7-0.2c-2.3-0.2-4.7-0.2-7-0.2
		C134.8,342.3,132.5,342.4,130.2,342.6z"/>
	<path class="st1" d="M130.1,352.2c2.3,0.2,4.7,0.3,7,0.2c2.3,0.1,4.7,0,7-0.2c-2.3-0.2-4.7-0.2-7-0.2
		C134.8,352,132.4,352,130.1,352.2z"/>
	<rect x="130.2" y="368.6" class="st0" width="13.9" height="26.9"/>
	<path class="st1" d="M136.7,395.5c0.1,0,0.2-6,0.2-13.4s-0.1-13.4-0.2-13.4s-0.2,6-0.2,13.4S136.6,395.5,136.7,395.5z"/>
	<path class="st1" d="M130.2,378c2.3,0.2,4.7,0.2,7,0.2c2.3,0.1,4.7,0,7-0.2c-2.3-0.2-4.7-0.3-7-0.2
		C134.8,377.7,132.5,377.8,130.2,378z"/>
	<path class="st1" d="M130.1,387.6c2.3,0.2,4.7,0.2,7,0.2c2.3,0.1,4.7,0,7-0.2c-2.3-0.2-4.7-0.3-7-0.2
		C134.8,387.3,132.4,387.4,130.1,387.6z"/>
	<rect x="130.2" y="404" class="st0" width="13.9" height="26.9"/>
	<path class="st1" d="M136.7,430.9c0.1,0,0.2-6,0.2-13.4s-0.1-13.4-0.2-13.4s-0.2,6-0.2,13.4S136.6,430.9,136.7,430.9z"/>
	<path class="st1" d="M130.2,413.4c2.3,0.2,4.7,0.3,7,0.2c2.3,0.1,4.7,0,7-0.2c-2.3-0.2-4.7-0.2-7-0.2
		C134.8,413.1,132.5,413.2,130.2,413.4z"/>
	<path class="st1" d="M130.1,423c2.3,0.2,4.7,0.3,7,0.2c2.3,0.1,4.7,0,7-0.2c-2.3-0.2-4.7-0.2-7-0.2
		C134.8,422.8,132.4,422.8,130.1,423z"/>
	<rect x="163.9" y="438.3" class="st0" width="13.9" height="26.9"/>
	<path class="st1" d="M170.5,465.1c0.1,0,0.2-6,0.2-13.4s-0.1-13.4-0.2-13.4s-0.2,6-0.2,13.4S170.4,465.1,170.5,465.1z"/>
	<path class="st1" d="M164,447.6c2.3,0.2,4.7,0.2,7,0.2c2.3,0.1,4.7,0,7-0.2c-2.3-0.2-4.7-0.3-7-0.2
		C168.7,447.3,166.3,447.4,164,447.6z"/>
	<path class="st1" d="M163.9,457.2c2.3,0.2,4.7,0.2,7,0.2c2.3,0.1,4.7,0,7-0.2c-2.3-0.2-4.7-0.3-7-0.2
		C168.5,457,166.2,457,163.9,457.2z"/>
	<rect x="130.2" y="439.4" class="st0" width="13.9" height="26.9"/>
	<path class="st1" d="M136.7,466.3c0.1,0,0.2-6,0.2-13.4s-0.1-13.4-0.2-13.4s-0.2,6-0.2,13.4S136.6,466.3,136.7,466.3z"/>
	<path class="st1" d="M130.2,448.7c2.3,0.2,4.7,0.2,7,0.2c2.3,0.1,4.7,0,7-0.2c-2.3-0.2-4.7-0.3-7-0.2
		C134.8,448.5,132.5,448.6,130.2,448.7z"/>
	<path class="st1" d="M130.1,458.4c2.3,0.2,4.7,0.2,7,0.2c2.3,0.1,4.7,0,7-0.2c-2.3-0.2-4.7-0.3-7-0.2
		C134.8,458.1,132.4,458.2,130.1,458.4z"/>
	<rect x="140.6" y="209" class="st4" width="45.9" height="188.3"/>
	<rect x="163.9" y="222.6" class="st0" width="13.9" height="26.9"/>
	<path class="st1" d="M170.5,249.4c0.1,0,0.2-6,0.2-13.4s-0.1-13.4-0.2-13.4s-0.2,6-0.2,13.4S170.4,249.4,170.5,249.4z"/>
	<path class="st1" d="M164,231.9c2.3,0.2,4.7,0.3,7,0.2c2.3,0.1,4.7,0,7-0.2c-2.3-0.2-4.7-0.2-7-0.2
		C168.7,231.7,166.3,231.7,164,231.9z"/>
	<path class="st1" d="M163.9,241.5c2.3,0.2,4.7,0.3,7,0.2c2.3,0.1,4.7,0,7-0.2c-2.3-0.2-4.7-0.2-7-0.2
		C168.5,241.3,166.2,241.3,163.9,241.5z"/>
	<rect x="163.9" y="257.7" class="st0" width="13.9" height="26.9"/>
	<path class="st1" d="M170.5,284.5c0.1,0,0.2-6,0.2-13.4s-0.1-13.4-0.2-13.4s-0.2,6-0.2,13.4S170.4,284.5,170.5,284.5z"/>
	<path class="st1" d="M164,267c2.3,0.2,4.7,0.3,7,0.2c2.3,0.1,4.7,0,7-0.2c-2.3-0.2-4.7-0.2-7-0.2C168.7,266.8,166.3,266.8,164,267z
		"/>
	<path class="st1" d="M163.9,276.6c2.3,0.2,4.7,0.2,7,0.2c2.3,0.1,4.7,0,7-0.2c-2.3-0.2-4.7-0.2-7-0.2
		C168.5,276.4,166.2,276.4,163.9,276.6z"/>
	<rect x="163.9" y="292.8" class="st0" width="13.9" height="26.9"/>
	<path class="st1" d="M170.5,319.6c0.1,0,0.2-6,0.2-13.4s-0.1-13.4-0.2-13.4s-0.2,6-0.2,13.4S170.4,319.6,170.5,319.6z"/>
	<path class="st1" d="M164,302.1c2.3,0.2,4.7,0.3,7,0.2c2.3,0.1,4.7,0,7-0.2c-2.3-0.2-4.7-0.3-7-0.2
		C168.7,301.9,166.3,301.9,164,302.1z"/>
	<path class="st1" d="M163.9,311.7c2.3,0.2,4.7,0.2,7,0.2c2.3,0.1,4.7,0,7-0.2c-2.3-0.2-4.7-0.2-7-0.2
		C168.5,311.5,166.2,311.5,163.9,311.7z"/>
	<rect x="163.9" y="327.9" class="st0" width="13.9" height="26.9"/>
	<path class="st1" d="M170.5,354.7c0.1,0,0.2-6,0.2-13.4s-0.1-13.4-0.2-13.4s-0.2,6-0.2,13.4S170.4,354.7,170.5,354.7z"/>
	<path class="st1" d="M164,337.2c2.3,0.2,4.7,0.2,7,0.2c2.3,0.1,4.7,0,7-0.2c-2.3-0.2-4.7-0.3-7-0.2C168.7,337,166.3,337,164,337.2z
		"/>
	<path class="st1" d="M163.9,346.8c2.3,0.2,4.7,0.2,7,0.2c2.3,0.1,4.7,0,7-0.2c-2.3-0.2-4.7-0.3-7-0.2
		C168.5,346.6,166.2,346.6,163.9,346.8z"/>
	<rect x="121.1" y="209" class="st5" width="33.4" height="188.3"/>
	<rect x="130.2" y="222.6" class="st0" width="13.9" height="26.9"/>
	<path class="st1" d="M136.7,249.4c0.1,0,0.2-6,0.2-13.4s-0.1-13.4-0.2-13.4s-0.2,6-0.2,13.4S136.6,249.4,136.7,249.4z"/>
	<path class="st1" d="M130.2,231.9c2.3,0.2,4.7,0.3,7,0.2c2.3,0.1,4.7,0,7-0.2c-2.3-0.2-4.7-0.2-7-0.2
		C134.8,231.7,132.5,231.7,130.2,231.9z"/>
	<path class="st1" d="M130.1,241.5c2.3,0.2,4.7,0.3,7,0.2c2.3,0.1,4.7,0,7-0.2c-2.3-0.2-4.7-0.2-7-0.2
		C134.8,241.3,132.4,241.3,130.1,241.5z"/>
	<rect x="130.2" y="258" class="st0" width="13.9" height="26.9"/>
	<path class="st1" d="M136.7,284.8c0.1,0,0.2-6,0.2-13.4s-0.1-13.4-0.2-13.4s-0.2,6-0.2,13.4S136.6,284.8,136.7,284.8z"/>
	<path class="st1" d="M130.2,267.3c2.3,0.2,4.7,0.3,7,0.2c2.3,0.1,4.7,0,7-0.2c-2.3-0.2-4.7-0.3-7-0.2
		C134.8,267,132.5,267.1,130.2,267.3z"/>
	<path class="st1" d="M130.1,276.9c2.3,0.2,4.7,0.2,7,0.2c2.3,0.1,4.7,0,7-0.2c-2.3-0.2-4.7-0.2-7-0.2
		C134.8,276.7,132.4,276.7,130.1,276.9z"/>
	<rect x="130.2" y="293.3" class="st0" width="13.9" height="26.9"/>
	<path class="st1" d="M136.7,320.2c0.1,0,0.2-6,0.2-13.4s-0.1-13.4-0.2-13.4s-0.2,6-0.2,13.4S136.6,320.2,136.7,320.2z"/>
	<path class="st1" d="M130.2,302.7c2.3,0.2,4.7,0.3,7,0.2c2.3,0.1,4.7,0,7-0.2c-2.3-0.2-4.7-0.2-7-0.2
		C134.8,302.4,132.5,302.5,130.2,302.7z"/>
	<path class="st1" d="M130.1,312.3c2.3,0.2,4.7,0.3,7,0.2c2.3,0.1,4.7,0,7-0.2c-2.3-0.2-4.7-0.2-7-0.2
		C134.8,312.1,132.4,312.1,130.1,312.3z"/>
	<rect x="130.2" y="328.7" class="st0" width="13.9" height="26.9"/>
	<path class="st1" d="M136.7,355.6c0.1,0,0.2-6,0.2-13.4s-0.1-13.4-0.2-13.4s-0.2,6-0.2,13.4S136.6,355.6,136.7,355.6z"/>
	<path class="st1" d="M130.2,338.1c2.3,0.2,4.7,0.3,7,0.2c2.3,0.1,4.7,0,7-0.2c-2.3-0.2-4.7-0.3-7-0.2
		C134.8,337.8,132.5,337.9,130.2,338.1z"/>
	<path class="st1" d="M130.1,347.7c2.3,0.2,4.7,0.2,7,0.2c2.3,0.1,4.7,0,7-0.2c-2.3-0.2-4.7-0.2-7-0.2
		C134.8,347.4,132.4,347.5,130.1,347.7z"/>
	<rect x="163.9" y="363" class="st0" width="13.9" height="26.9"/>
	<path class="st1" d="M170.5,389.8c0.1,0,0.2-6,0.2-13.4s-0.1-13.4-0.2-13.4s-0.2,6-0.2,13.4S170.4,389.8,170.5,389.8z"/>
	<path class="st1" d="M164,372.3c2.3,0.2,4.7,0.3,7,0.2c2.3,0.1,4.7,0,7-0.2c-2.3-0.2-4.7-0.2-7-0.2
		C168.7,372.1,166.3,372.1,164,372.3z"/>
	<path class="st1" d="M163.9,381.9c2.3,0.2,4.7,0.3,7,0.2c2.3,0.1,4.7,0,7-0.2c-2.3-0.2-4.7-0.2-7-0.2
		C168.5,381.7,166.2,381.7,163.9,381.9z"/>
	<rect x="130.2" y="364.1" class="st0" width="13.9" height="26.9"/>
	<path class="st1" d="M136.7,391c0.1,0,0.2-6,0.2-13.4s-0.1-13.4-0.2-13.4s-0.2,6-0.2,13.4S136.6,391,136.7,391z"/>
	<path class="st1" d="M130.2,373.4c2.3,0.2,4.7,0.3,7,0.2c2.3,0.1,4.7,0,7-0.2c-2.3-0.2-4.7-0.2-7-0.2
		C134.8,373.2,132.5,373.3,130.2,373.4z"/>
	<path class="st1" d="M130.1,383.1c2.3,0.2,4.7,0.3,7,0.2c2.3,0.1,4.7,0,7-0.2c-2.3-0.2-4.7-0.2-7-0.2
		C134.8,382.8,132.4,382.9,130.1,383.1z"/>
	<rect x="95.2" y="306.5" class="st4" width="40.7" height="171.9"/>
	<rect x="115.9" y="318.6" class="st0" width="12.4" height="23.8"/>
	<path class="st1" d="M121.7,342.4c0.1,0,0.2-5.3,0.2-11.9s-0.1-11.9-0.2-11.9s-0.2,5.3-0.2,11.9S121.6,342.4,121.7,342.4z"/>
	<path class="st1" d="M115.9,326.9c2.1,0.2,4.1,0.2,6.2,0.2c2.1,0.1,4.1,0,6.2-0.2c-2.1-0.2-4.1-0.2-6.2-0.2
		C120,326.7,117.9,326.7,115.9,326.9z"/>
	<path class="st1" d="M115.8,335.4c2.1,0.2,4.2,0.2,6.2,0.2c2.1,0.1,4.2,0,6.2-0.2c-2.1-0.2-4.2-0.2-6.2-0.2
		C120,335.2,117.9,335.2,115.8,335.4z"/>
	<rect x="115.9" y="349.7" class="st0" width="12.4" height="23.8"/>
	<path class="st1" d="M121.7,373.5c0.1,0,0.2-5.3,0.2-11.9s-0.1-11.9-0.2-11.9s-0.2,5.3-0.2,11.9S121.6,373.5,121.7,373.5z"/>
	<path class="st1" d="M115.9,358c2.1,0.2,4.1,0.2,6.2,0.2c2.1,0.1,4.1,0,6.2-0.2c-2.1-0.2-4.1-0.2-6.2-0.2
		C120,357.8,117.9,357.8,115.9,358z"/>
	<path class="st1" d="M115.8,366.5c2.1,0.2,4.2,0.2,6.2,0.2c2.1,0.1,4.2,0,6.2-0.2c-2.1-0.2-4.2-0.2-6.2-0.2
		C120,366.3,117.9,366.3,115.8,366.5z"/>
	<rect x="115.9" y="380.8" class="st0" width="12.4" height="23.8"/>
	<path class="st1" d="M121.7,404.6c0.1,0,0.2-5.3,0.2-11.9s-0.1-11.9-0.2-11.9s-0.2,5.3-0.2,11.9S121.6,404.6,121.7,404.6z"/>
	<path class="st1" d="M115.9,389.1c2.1,0.2,4.1,0.2,6.2,0.2c2.1,0.1,4.1,0,6.2-0.2c-2.1-0.2-4.1-0.2-6.2-0.2
		C120,388.9,117.9,388.9,115.9,389.1z"/>
	<path class="st1" d="M115.8,397.6c2.1,0.2,4.2,0.2,6.2,0.2c2.1,0.1,4.2,0,6.2-0.2c-2.1-0.2-4.2-0.2-6.2-0.2
		C120,397.4,117.9,397.4,115.8,397.6z"/>
	<rect x="115.9" y="411.9" class="st0" width="12.4" height="23.8"/>
	<path class="st1" d="M121.7,435.7c0.1,0,0.2-5.3,0.2-11.9s-0.1-11.9-0.2-11.9s-0.2,5.3-0.2,11.9S121.6,435.7,121.7,435.7z"/>
	<path class="st1" d="M115.9,420.2c2.1,0.2,4.1,0.2,6.2,0.2c2.1,0.1,4.1,0,6.2-0.2c-2.1-0.2-4.1-0.2-6.2-0.2
		C120,420,117.9,420,115.9,420.2z"/>
	<path class="st1" d="M115.8,428.7c2.1,0.2,4.2,0.2,6.2,0.2c2.1,0.1,4.2,0,6.2-0.2c-2.1-0.2-4.2-0.2-6.2-0.2
		C120,428.5,117.9,428.5,115.8,428.7z"/>
	<rect x="77.9" y="306.5" class="st5" width="29.6" height="171.9"/>
	<rect x="85.9" y="318.6" class="st0" width="12.4" height="23.8"/>
	<path class="st1" d="M91.8,342.4c0.1,0,0.2-5.3,0.2-11.9s-0.1-11.9-0.2-11.9s-0.2,5.3-0.2,11.9S91.7,342.4,91.8,342.4z"/>
	<path class="st1" d="M85.9,326.9c2.1,0.2,4.1,0.2,6.2,0.2c2.1,0.1,4.1,0,6.2-0.2c-2.1-0.2-4.1-0.2-6.2-0.2
		C90,326.7,88,326.7,85.9,326.9z"/>
	<path class="st1" d="M85.9,335.4c2.1,0.2,4.2,0.2,6.2,0.2c2.1,0.1,4.2,0,6.2-0.2c-2.1-0.2-4.2-0.2-6.2-0.2
		C90,335.2,87.9,335.2,85.9,335.4z"/>
	<rect x="85.9" y="350" class="st0" width="12.4" height="23.8"/>
	<path class="st1" d="M91.8,373.8c0.1,0,0.2-5.3,0.2-11.9S91.8,350,91.8,350s-0.2,5.3-0.2,11.9S91.7,373.8,91.8,373.8z"/>
	<path class="st1" d="M85.9,358.2c2.1,0.2,4.1,0.2,6.2,0.2c2.1,0.1,4.1,0,6.2-0.2c-2.1-0.2-4.1-0.2-6.2-0.2
		C90,358,88,358.1,85.9,358.2z"/>
	<path class="st1" d="M85.9,366.7c2.1,0.2,4.2,0.2,6.2,0.2c2.1,0.1,4.2,0,6.2-0.2c-2.1-0.2-4.2-0.2-6.2-0.2
		C90,366.5,87.9,366.6,85.9,366.7z"/>
	<rect x="85.9" y="381.3" class="st0" width="12.4" height="23.8"/>
	<path class="st1" d="M91.8,405.1c0.1,0,0.2-5.3,0.2-11.9s-0.1-11.9-0.2-11.9s-0.2,5.3-0.2,11.9S91.7,405.1,91.8,405.1z"/>
	<path class="st1" d="M85.9,389.6c2.1,0.2,4.1,0.2,6.2,0.2c2.1,0.1,4.1,0,6.2-0.2c-2.1-0.2-4.1-0.2-6.2-0.2
		C90,389.4,88,389.4,85.9,389.6z"/>
	<path class="st1" d="M85.9,398.1c2.1,0.2,4.2,0.2,6.2,0.2c2.1,0.1,4.2,0,6.2-0.2c-2.1-0.2-4.2-0.2-6.2-0.2
		C90,397.9,87.9,397.9,85.9,398.1z"/>
	<rect x="85.9" y="412.7" class="st0" width="12.4" height="23.8"/>
	<path class="st1" d="M91.8,436.5c0.1,0,0.2-5.3,0.2-11.9s-0.1-11.9-0.2-11.9s-0.2,5.3-0.2,11.9S91.7,436.5,91.8,436.5z"/>
	<path class="st1" d="M85.9,421c2.1,0.2,4.1,0.2,6.2,0.2c2.1,0.1,4.1,0,6.2-0.2c-2.1-0.2-4.1-0.2-6.2-0.2
		C90,420.8,88,420.8,85.9,421z"/>
	<path class="st1" d="M85.9,429.5c2.1,0.2,4.2,0.2,6.2,0.2c2.1,0.1,4.2,0,6.2-0.2c-2.1-0.2-4.2-0.2-6.2-0.2
		C90,429.3,87.9,429.3,85.9,429.5z"/>
	<rect x="115.9" y="443" class="st0" width="12.4" height="23.8"/>
	<path class="st1" d="M121.7,466.8c0.1,0,0.2-5.3,0.2-11.9s-0.1-11.9-0.2-11.9s-0.2,5.3-0.2,11.9S121.6,466.8,121.7,466.8z"/>
	<path class="st1" d="M115.9,451.3c2.1,0.2,4.1,0.2,6.2,0.2c2.1,0.1,4.1,0,6.2-0.2c-2.1-0.2-4.1-0.2-6.2-0.2
		C120,451.1,117.9,451.1,115.9,451.3z"/>
	<path class="st1" d="M115.8,459.8c2.1,0.2,4.1,0.2,6.2,0.2c2.1,0.1,4.2,0,6.2-0.2c-2.1-0.2-4.2-0.2-6.2-0.2
		C119.9,459.6,117.9,459.7,115.8,459.8z"/>
	<rect x="85.9" y="444" class="st0" width="12.4" height="23.8"/>
	<path class="st1" d="M91.8,467.9c0.1,0,0.2-5.3,0.2-11.9S91.9,444,91.8,444s-0.2,5.3-0.2,11.9S91.7,467.9,91.8,467.9z"/>
	<path class="st1" d="M85.9,452.3c2.1,0.2,4.1,0.2,6.2,0.2c2.1,0.1,4.1,0,6.2-0.2c-2.1-0.2-4.1-0.2-6.2-0.2
		C90,452.1,88,452.2,85.9,452.3z"/>
	<path class="st1" d="M85.9,460.8c2.1,0.2,4.2,0.2,6.2,0.2c2.1,0.1,4.2,0,6.2-0.2c-2.1-0.2-4.2-0.2-6.2-0.2
		C90,460.6,87.9,460.7,85.9,460.8z"/>
</g>
<g id="freepik--Floor--inject-84">
	<path class="st5" d="M482.3,478.5c0,0.1-104,0.3-232.3,0.3s-232.3-0.1-232.3-0.3s104-0.3,232.3-0.3S482.3,478.3,482.3,478.5z"/>
	<polygon class="st1" points="403.4,468.5 398.1,472.4 383,458.9 373.6,464.3 351.8,446.2 350.8,445.3 362.4,478.5 423.7,478.5 	"/>
	<polygon class="st1" points="363.4,478.5 329,388.1 332.3,356.3 228.9,361.4 148.7,398.8 76.3,478.5 	"/>
	<path class="st5" d="M363.4,478.5l-287.1,0.3h-0.6l0.4-0.4l47.5-52.3l24.9-27.4l0,0h0.1l80.2-37.3l0,0h0.1l103.5-5.1h0.2v0.2
		c-1.2,11.4-2.4,22-3.4,31.8v-0.1c21.3,56.3,33.8,89.2,34.3,90.4l-34.6-90.3v-0.1c1-9.9,2.2-20.5,3.4-31.8l0.2,0.2l-103.4,5.1h0.1
		L148.8,399l0.1-0.1L124,426.3l-47.5,52.3l-0.2-0.4L363.4,478.5z"/>
	<path class="st5" d="M230.3,472.5c0-0.1,0.1-0.2,0.1-0.3l0.4-0.9l1.8-3.4l6.7-12.6l22.1-41.3l5.6-10.5v-0.1h0.1
		c14.9-4.3,28-8.1,37.4-10.7c4.7-1.3,8.5-2.3,11.1-3c1.3-0.4,2.6-0.7,4-0.9c0,0-0.1,0-0.3,0l-0.8,0.2l-3,0.8l-11,3.1l-37.3,10.8
		l0.2-0.1l-5.5,10.5l-22.3,41.3l-6.8,12.5l-1.9,3.4l-0.5,0.9C230.4,472.4,230.3,472.5,230.3,472.5z"/>
	<polygon class="st1" points="193.2,467.9 159.6,423.1 146.9,434.6 132.5,412.5 126.4,419.2 115.4,397 105.9,408.9 68.6,372.1 
		54.2,387.7 45.5,378.1 22.8,398 21.1,478.5 226.7,478.5 	"/>
	<path class="st5" d="M68.6,422.1c-0.2-0.3-0.4-0.7-0.5-1.1l-1.2-2.9c-1-2.5-2.6-5.8-4.5-9.4l-0.7-1.3c-0.1-0.2-0.2-0.4-0.4-0.6
		c-0.1-0.2-0.3-0.3-0.5-0.4c-0.8-0.4-1.7-0.2-2.3,0.3c-1,1.4-1.9,2.7-2.6,3.8l-1.7,2.7c-0.2,0.4-0.4,0.7-0.7,1
		c0.1-0.4,0.3-0.7,0.5-1.1c0.3-0.7,0.9-1.6,1.6-2.8s1.5-2.5,2.6-4c0.8-0.7,1.9-0.9,2.9-0.4c0.3,0.1,0.5,0.3,0.7,0.5
		c0.2,0.2,0.3,0.4,0.4,0.7l0.7,1.3c1.7,3.1,3.1,6.3,4.4,9.5c0.5,1.2,0.8,2.3,1.1,3C68.4,421.3,68.5,421.7,68.6,422.1z"/>
	<path class="st5" d="M59,422.9c-0.5-0.9-0.9-1.8-1.3-2.8c-0.4-0.9-0.9-1.9-1.6-2.9l-1-1.7c-0.2-0.3-0.3-0.6-0.5-0.8
		c-0.2-0.2-0.5-0.3-0.8-0.4c-0.3,0-0.6,0-0.9,0.1c-0.1,0.1-0.2,0.1-0.3,0.2c-0.1,0.1-0.2,0.3-0.3,0.4l-1.1,1.6l-1.8,2.8
		c-0.5,0.9-1.1,1.7-1.8,2.5c0.4-1,0.9-1.9,1.4-2.7c0.5-0.8,1.1-1.8,1.7-2.9c0.3-0.5,0.7-1.1,1.1-1.7c0.1-0.1,0.2-0.3,0.3-0.4
		c0.1-0.2,0.3-0.3,0.5-0.4c0.4-0.2,0.8-0.3,1.2-0.2c0.4,0,0.8,0.2,1.1,0.5c0.2,0.3,0.4,0.6,0.6,0.9l1,1.7c0.5,1,1,2,1.4,3
		c0.4,0.9,0.6,1.6,0.8,2.1S59,422.9,59,422.9z"/>
	<path class="st5" d="M53.4,414.2c-0.2-0.4-0.4-0.9-0.6-1.3c-0.4-1-0.8-2.2-1.4-3.6s-1.3-3.4-2-5.4l-0.6-1.6c-0.2-0.5-0.5-0.8-1-1
		c-0.8-0.3-1.6,0.1-2.1,0.8l-0.5,0.8c-2,3.8-3.7,7.7-5.3,11.7c-0.6,1.5-1.2,2.7-1.6,3.6c-0.2,0.4-0.4,0.9-0.7,1.3
		c0.1-0.5,0.3-0.9,0.5-1.4l1.4-3.6c1.5-4,3.2-8,5.2-11.8c0.2-0.3,0.3-0.5,0.5-0.8c0.2-0.3,0.4-0.6,0.7-0.7c0.6-0.4,1.3-0.5,2-0.2
		c0.6,0.2,1.1,0.7,1.3,1.3c0.2,0.5,0.4,1.1,0.6,1.6l2,5.4c0.5,1.5,0.9,2.7,1.3,3.7C53.3,413.3,53.4,413.7,53.4,414.2z"/>
	<path class="st5" d="M106.2,440.3c-0.1,0-0.6-1.3-1.5-3.5s-2.3-5.1-3.9-8.2c-0.2-0.4-0.4-0.8-0.6-1.2c-0.1-0.2-0.2-0.3-0.3-0.5
		c-0.1-0.1-0.3-0.2-0.4-0.3c-0.7-0.3-1.4-0.2-2,0.2c-0.9,1.2-1.7,2.4-2.3,3.3l-1.5,2.3c-0.2,0.3-0.4,0.6-0.6,0.8
		c0.1-0.3,0.2-0.6,0.4-0.9c0.3-0.6,0.8-1.4,1.4-2.4s1.3-2.2,2.3-3.5c0.7-0.6,1.7-0.8,2.6-0.4c0.2,0.1,0.4,0.2,0.6,0.4
		c0.2,0.2,0.3,0.4,0.4,0.6l0.6,1.2c1.4,2.7,2.7,5.5,3.8,8.3c0.4,1.1,0.7,2,0.9,2.6C106,439.7,106.1,440,106.2,440.3z"/>
	<path class="st5" d="M97.8,441.1c-0.4-0.8-0.8-1.6-1.1-2.4c-0.3-0.8-0.8-1.6-1.4-2.5l-0.9-1.5c-0.1-0.2-0.3-0.5-0.4-0.7
		c-0.2-0.2-0.4-0.3-0.7-0.3c-0.3,0-0.5,0-0.8,0.1c-0.1,0-0.2,0.1-0.3,0.2c-0.1,0.1-0.2,0.2-0.3,0.4l-1,1.4c-0.6,0.9-1.1,1.7-1.6,2.4
		c-0.4,0.8-1,1.5-1.5,2.2c0.3-0.8,0.7-1.6,1.2-2.4c0.4-0.7,0.9-1.6,1.5-2.5c0.3-0.5,0.6-1,0.9-1.5c0.1-0.1,0.2-0.2,0.3-0.4
		c0.1-0.1,0.3-0.3,0.4-0.4c0.3-0.2,0.7-0.2,1.1-0.2c0.4,0,0.7,0.2,1,0.5c0.2,0.3,0.4,0.5,0.5,0.8l0.8,1.5c0.5,0.9,1,1.7,1.4,2.6
		C97.4,439.3,97.6,440.2,97.8,441.1z"/>
	<path class="st5" d="M92.9,433.4c-0.2-0.4-0.4-0.7-0.5-1.1l-1.2-3.1l-1.8-4.7l-0.5-1.4c-0.2-0.4-0.5-0.7-0.9-0.9
		c-0.4-0.1-0.9-0.1-1.3,0.2c-0.2,0.1-0.4,0.3-0.5,0.5l-0.4,0.7c-2.1,3.8-3.5,7.5-4.6,10.2c-0.6,1.3-1,2.4-1.4,3.1
		c-0.2,0.4-0.4,0.8-0.6,1.1c0.1-0.4,0.2-0.8,0.4-1.2c0.3-0.9,0.7-1.9,1.2-3.2c1.3-3.5,2.8-7,4.5-10.3l0.4-0.7
		c0.2-0.3,0.4-0.5,0.6-0.7c0.5-0.3,1.2-0.4,1.7-0.2c0.6,0.2,1,0.6,1.2,1.2c0.2,0.5,0.3,0.9,0.5,1.4c0.6,1.8,1.2,3.4,1.7,4.7
		s0.8,2.4,1.1,3.2C92.8,432.6,92.9,433,92.9,433.4z"/>
	<path class="st5" d="M59.3,469.6c-0.1,0-0.6-1.3-1.5-3.5s-2.3-5.1-4-8.2c-0.2-0.4-0.4-0.8-0.6-1.1c-0.1-0.2-0.2-0.3-0.3-0.5
		c-0.1-0.1-0.3-0.2-0.4-0.3c-0.7-0.3-1.4-0.2-2,0.2c-0.9,1.2-1.7,2.4-2.3,3.3l-1.5,2.3c-0.2,0.3-0.4,0.6-0.6,0.8
		c0.1-0.3,0.2-0.6,0.4-0.9c0.3-0.6,0.8-1.4,1.4-2.4s1.3-2.2,2.3-3.5c0.7-0.6,1.7-0.8,2.5-0.4c0.2,0.1,0.4,0.2,0.6,0.4
		c0.2,0.2,0.3,0.4,0.4,0.6l0.6,1.2c1.5,2.7,2.8,5.5,3.9,8.3c0.4,1.1,0.7,2,0.9,2.6C59.1,468.9,59.2,469.3,59.3,469.6z"/>
	<path class="st5" d="M46,462.7c-0.2-0.4-0.4-0.7-0.5-1.1c-0.3-0.8-0.8-1.9-1.3-3.1s-1.1-3-1.8-4.7c-0.2-0.4-0.3-0.9-0.5-1.4
		c-0.2-0.4-0.5-0.7-0.9-0.9c-0.4-0.1-0.9-0.1-1.3,0.2c-0.2,0.1-0.4,0.3-0.5,0.5l-0.4,0.7c-2.1,3.8-3.5,7.5-4.6,10.2
		c-0.6,1.3-1,2.4-1.4,3.1c-0.2,0.4-0.4,0.8-0.6,1.1c0.1-0.4,0.2-0.8,0.4-1.2c0.3-0.9,0.7-1.9,1.2-3.2c1.3-3.5,2.8-7,4.5-10.3
		l0.4-0.7c0.2-0.3,0.4-0.5,0.6-0.6c0.9-0.6,2.2-0.3,2.8,0.6c0.1,0.1,0.1,0.2,0.2,0.4l0.5,1.4c0.6,1.8,1.2,3.4,1.7,4.8l1.1,3.2
		C45.9,461.9,46,462.3,46,462.7z"/>
	<path class="st5" d="M150.8,470.4c-0.6-1.1-1.1-2.3-1.5-3.5c-0.9-2.1-2.3-5.1-4-8.2l-0.6-1.1c-0.1-0.2-0.2-0.3-0.3-0.5
		c-0.1-0.1-0.3-0.2-0.4-0.3c-0.7-0.3-1.4-0.2-2,0.2c-0.9,1.2-1.7,2.4-2.3,3.3l-1.5,2.3c-0.2,0.3-0.4,0.6-0.6,0.8
		c0.1-0.3,0.2-0.6,0.4-0.9c0.3-0.6,0.8-1.4,1.4-2.4s1.3-2.2,2.3-3.5c0.7-0.6,1.7-0.8,2.5-0.4c0.2,0.1,0.4,0.2,0.6,0.4
		c0.2,0.2,0.3,0.4,0.4,0.6l0.6,1.2c1.4,2.7,2.7,5.5,3.8,8.3c0.4,1.1,0.7,2,0.9,2.6C150.6,469.7,150.7,470,150.8,470.4z"/>
	<path class="st5" d="M137.6,463.5c-0.2-0.4-0.4-0.7-0.5-1.1l-1.2-3.1c-0.5-1.4-1.1-3-1.8-4.7c-0.2-0.5-0.3-0.9-0.5-1.4
		c-0.1-0.4-0.5-0.7-0.9-0.9c-0.4-0.1-0.9-0.1-1.3,0.2c-0.2,0.1-0.4,0.3-0.5,0.5l-0.4,0.7c-1.7,3.3-3.3,6.7-4.6,10.2
		c-0.6,1.3-1,2.4-1.4,3.1c-0.2,0.4-0.4,0.8-0.6,1.1c0.1-0.4,0.2-0.8,0.4-1.2l1.2-3.2c1.3-3.5,2.8-7,4.5-10.3l0.4-0.7
		c0.2-0.3,0.4-0.5,0.6-0.6c0.5-0.3,1.2-0.4,1.7-0.2c0.6,0.2,1.1,0.6,1.3,1.2c0.2,0.5,0.3,0.9,0.5,1.4l1.7,4.8
		c0.4,1.3,0.8,2.4,1.1,3.2C137.4,462.7,137.5,463.1,137.6,463.5z"/>
</g>
<g id="freepik--Plant--inject-84">
	<path class="st6" d="M439.6,431.5c2.1,1,3.7,2.8,4.5,5c0.7,2.2,0.9,4.5,0.6,6.8c-0.5,4.4-3,8.9-5.7,12.5c-3.7-3.3-4.6-8.9-4.8-11.9
		C433.7,439.4,435.7,430.8,439.6,431.5"/>
	<path class="st6" d="M443.2,463.2c-0.5-2.6,0.4-5.3,2.4-7c2-1.7,4.6-2.5,7.2-2.2c1.2,0,2.4,0.5,3.2,1.4c0.6,1,0.6,2.2,0,3.2
		c-0.6,1-1.4,1.8-2.4,2.3C450.4,462.9,446.9,464.3,443.2,463.2"/>
	<path class="st5" d="M438.9,478.2c0-0.3,0.1-0.7,0.1-1c0.1-0.7,0.3-1.7,0.5-2.8c0.5-3.1,1.4-6.2,2.9-9c1.5-2.8,3.7-5.2,6.4-6.8
		c0.8-0.5,1.7-0.9,2.6-1.2c0.2-0.1,0.5-0.1,0.8-0.2c0.1,0,0.2,0,0.3,0c-1.2,0.4-2.4,1-3.5,1.6c-2.6,1.7-4.8,4-6.2,6.8
		c-1.4,2.8-2.4,5.8-3,8.8c-0.3,1.2-0.5,2.1-0.6,2.8C439.1,477.5,439,477.9,438.9,478.2z"/>
	<path class="st5" d="M439,434.3c0,0.1,0,0.3,0,0.5c0,0.3,0,0.8,0.1,1.3c0.1,1.1,0.1,2.8,0.2,4.8c0.1,4,0.2,9.6,0.2,15.8
		s-0.2,11.8-0.3,15.8c-0.1,2-0.2,3.7-0.2,4.8c0,0.5-0.1,1-0.1,1.3c0,0.2,0,0.3-0.1,0.5c0-0.2,0-0.3,0-0.5c0-0.3,0-0.8,0-1.3
		c0-1.2,0.1-2.8,0.1-4.8c0.1-4,0.2-9.6,0.2-15.8s0-11.8-0.1-15.8c0-2-0.1-3.6-0.1-4.8c0-0.5,0-1,0-1.3
		C438.9,434.6,439,434.4,439,434.3z"/>
	<path class="st6" d="M436.8,465.9c-0.9-5.5-4.4-10.1-9.4-12.6c-1.2-0.6-2.9-1-3.9-0.1s-0.8,2.6-0.3,3.9c2.2,5.5,7.6,9.1,13.5,9.1"
		/>
	<path class="st5" d="M427,456.3c0.3,0.1,0.6,0.2,0.9,0.4c0.3,0.2,0.7,0.3,1,0.5c0.4,0.2,0.8,0.5,1.3,0.8c0.5,0.3,1,0.7,1.5,1.1
		c0.6,0.5,1.1,0.9,1.6,1.4c1.1,1.2,2.1,2.5,3,3.9c0.8,1.4,1.5,2.9,2,4.5c0.2,0.7,0.4,1.4,0.5,2.1c0.1,0.6,0.2,1.2,0.3,1.8
		c0.1,0.5,0.1,1,0.1,1.5c0,0.4,0,0.8,0,1.1c0,0.3,0,0.7-0.1,1c-0.1,0,0.1-1.4-0.2-3.6c-0.1-0.6-0.2-1.2-0.3-1.8
		c-0.1-0.7-0.3-1.3-0.5-2c-1-3.1-2.7-5.9-4.9-8.2c-0.5-0.5-1-1-1.5-1.4c-0.5-0.4-0.9-0.8-1.4-1.1C428.2,456.9,427,456.3,427,456.3z"
		/>
</g>
<g id="freepik--speech-bubble--inject-84">
	<circle class="st0" cx="212.3" cy="61.7" r="24.3"/>
	<path class="st5" d="M236.6,61.7c0-0.1,0-0.3-0.1-0.4c0-0.3,0-0.7-0.1-1.2c0-0.2,0-0.5-0.1-0.8c0-0.3-0.1-0.7-0.2-1
		c-0.1-0.8-0.3-1.7-0.5-2.5c-0.6-2.3-1.5-4.4-2.7-6.4c-1.6-2.6-3.7-5-6.1-6.8c-6.5-4.9-15.1-6.2-22.8-3.4c-1.1,0.4-2.1,0.8-3.1,1.4
		c-1,0.6-2,1.2-2.9,1.9c-1,0.7-1.9,1.5-2.7,2.3c-0.8,0.9-1.6,1.8-2.4,2.8c-1.5,2-2.7,4.2-3.4,6.6c-1.7,4.9-1.7,10.2,0,15.1
		c0.8,2.4,1.9,4.6,3.4,6.6c0.7,1,1.5,1.9,2.4,2.8c0.8,0.8,1.7,1.6,2.7,2.3c1,0.7,2,1.3,3,1.9c1,0.5,2.1,1,3.1,1.4
		c4,1.5,8.4,1.8,12.6,1.1c3.7-0.7,7.2-2.2,10.1-4.5c2.5-1.9,4.5-4.2,6.1-6.8c1.2-2,2.1-4.2,2.7-6.4c0.2-0.8,0.4-1.7,0.5-2.5
		c0.1-0.4,0.1-0.7,0.2-1c0-0.3,0-0.6,0.1-0.8c0-0.5,0.1-0.9,0.1-1.2C236.5,61.9,236.5,61.8,236.6,61.7c0,0.1,0,0.3,0,0.4
		c0,0.3,0,0.7,0,1.2c0,0.2,0,0.5,0,0.8c0,0.3-0.1,0.7-0.1,1c-0.1,0.9-0.3,1.7-0.5,2.5c-0.5,2.3-1.4,4.5-2.6,6.5
		c-6,10.1-18.3,14.6-29.3,10.6c-1.1-0.4-2.2-0.9-3.2-1.4c-1-0.6-2-1.2-3-1.9c-1-0.7-2-1.5-2.9-2.4c-0.9-0.9-1.7-1.8-2.4-2.8
		c-1.5-2-2.7-4.3-3.5-6.7c-0.8-2.5-1.2-5.1-1.3-7.7c0-2.6,0.4-5.2,1.3-7.7c0.8-2.4,2-4.7,3.5-6.8c0.7-1,1.5-2,2.4-2.8
		c0.9-0.8,1.8-1.6,2.8-2.3c1-0.7,2-1.4,3-1.9c1-0.5,2.1-1,3.2-1.4c4.1-1.5,8.6-1.8,12.9-1c6.9,1.3,12.9,5.5,16.4,11.6
		c1.2,2,2.1,4.2,2.6,6.5c0.2,0.8,0.4,1.7,0.5,2.5c0,0.4,0.1,0.7,0.1,1s0,0.6,0,0.9c0,0.5,0,0.9,0,1.2S236.6,61.7,236.6,61.7z"/>
	<path class="st7" d="M222.2,59.7c0-5.5-4.4-9.9-9.9-9.9s-9.9,4.4-9.9,9.9c0,3.8,2.2,7.3,5.7,8.9v2.5h8.7c0,0,0.1-1.4,0.1-2.6
		C220.1,66.8,222.2,63.4,222.2,59.7z"/>
	<path class="st5" d="M216.7,72.7h-8.6c-0.3,0-0.6-0.2-0.6-0.6l0,0c0-0.3,0.3-0.6,0.6-0.6h8.6c0.3,0,0.6,0.2,0.6,0.6l0,0
		C217.3,72.5,217,72.7,216.7,72.7z"/>
	<path class="st5" d="M216.1,73.2h-7.4c-0.3,0-0.6,0.3-0.6,0.6c0,0.3,0.3,0.6,0.6,0.6l0,0h0.8l1.1,2c0.1,0.2,0.4,0.4,0.6,0.4h2.7
		c0.3,0,0.5-0.2,0.6-0.4l1-2h0.6c0.3,0,0.6-0.3,0.6-0.6C216.6,73.4,216.3,73.2,216.1,73.2L216.1,73.2z"/>
	<path class="st4" d="M214.3,76.5c-0.2,0-0.3-0.1-0.5-0.2c-0.8-0.2-1.7-0.2-2.5,0.1c-0.3,0.1-0.5,0.2-0.5,0.2
		c0.1-0.1,0.3-0.2,0.5-0.3c0.4-0.2,0.8-0.3,1.3-0.3c0.4,0,0.9,0,1.3,0.2C214,76.3,214.2,76.4,214.3,76.5z"/>
	<path class="st4" d="M215.5,74.3c0,0-1.3,0.1-3,0.1s-3,0-3-0.1s1.4-0.1,3-0.1S215.5,74.3,215.5,74.3z"/>
	<path class="st4" d="M215.1,75.2c-0.2,0.1-0.5,0.1-0.7,0.1c-0.5,0-1.1,0-1.8,0.1s-1.3,0-1.8,0c-0.2,0-0.5,0-0.7-0.1
		c0,0,0.3,0,0.7,0h1.8h1.8C214.6,75.2,214.8,75.2,215.1,75.2z"/>
	<path class="st0" d="M209.6,51.7c0,0.1-0.7,0.3-1.7,0.9c-2.6,1.5-4.1,4.4-3.9,7.4c0.1,1.1,0.3,1.8,0.2,1.9
		c-0.4-0.5-0.6-1.2-0.7-1.8c-0.5-3.2,1.2-6.4,4.1-7.8C208.3,51.9,209,51.7,209.6,51.7z"/>
	<path class="st0" d="M212.5,51.2c0,0.2-0.1,0.4-0.4,0.4s-0.5-0.1-0.5-0.2s0.1-0.3,0.4-0.4S212.5,51,212.5,51.2z"/>
	<path class="st0" d="M214.7,70.8c0-0.1,0-0.2-0.1-0.3c0-0.3-0.1-0.6-0.1-1c-0.1-0.9-0.3-2.2-0.4-3.7c-0.1-0.8-0.2-1.6-0.3-2.6
		c0-0.3,0.1-0.5,0.2-0.7c0.2-0.2,0.5-0.2,0.8-0.1c0.2,0.2,0.4,0.4,0.4,0.7c0,0.3,0,0.5-0.1,0.8c-0.2,0.5-0.6,0.9-1.1,1.1
		c-0.5,0.2-1.2,0.2-1.7-0.1c-0.5-0.3-0.9-0.8-1.1-1.3c-0.1-0.3-0.1-0.6-0.1-0.9c0-0.2,0.1-0.3,0.2-0.5c0.1-0.1,0.3-0.2,0.4-0.2
		c0.2,0,0.3,0.1,0.4,0.2c0.1,0.1,0.2,0.2,0.3,0.4c0.1,0.3,0.2,0.6,0.2,0.9c0,0.6-0.2,1.2-0.6,1.6c-0.4,0.4-1,0.6-1.6,0.4
		c-0.5-0.2-0.9-0.6-1.2-1.1c-0.1-0.2-0.2-0.5-0.3-0.7c-0.1-0.2-0.1-0.5-0.1-0.8c0-0.1,0.1-0.3,0.2-0.4c0.1-0.1,0.3-0.1,0.4,0
		c0.2,0.2,0.3,0.4,0.4,0.7c0.6,2,0.7,4.2,0.3,6.3c-0.1,0.5-0.2,0.9-0.3,1.3c0,0,0-0.1,0.1-0.3s0.1-0.6,0.2-1
		c0.4-2.1,0.3-4.2-0.3-6.2c-0.1-0.2-0.1-0.5-0.3-0.6c-0.1-0.1-0.2-0.1-0.3,0c-0.1,0.1-0.1,0.2-0.1,0.3c0,0.2,0,0.5,0.1,0.7
		c0.1,0.2,0.2,0.5,0.3,0.7c0.3,0.4,0.6,0.8,1.1,1c0.5,0.2,1.1,0,1.5-0.4c0.4-0.4,0.6-0.9,0.6-1.5c0-0.3,0-0.6-0.1-0.8
		c-0.1-0.2-0.3-0.5-0.6-0.5s-0.4,0.3-0.5,0.6c0,0.3,0,0.6,0.1,0.8c0.2,0.5,0.6,1,1.1,1.2c0.5,0.2,1.1,0.2,1.5,0
		c0.5-0.2,0.8-0.5,1.1-1c0.1-0.2,0.1-0.5,0.1-0.7c0-0.2-0.1-0.4-0.3-0.6c-0.2-0.1-0.4-0.1-0.6,0.1c-0.1,0.2-0.2,0.4-0.2,0.6
		c0.1,0.9,0.2,1.8,0.3,2.5c0.2,1.6,0.3,2.8,0.4,3.7l0.1,1C214.7,70.7,214.7,70.8,214.7,70.8z"/>
	<path class="st0" d="M246.5,72.2c0,2-1.6,3.6-3.6,3.6c-2,0-3.6-1.6-3.6-3.6s1.6-3.6,3.6-3.6c0,0,0,0,0,0
		C245,68.7,246.5,70.3,246.5,72.2z"/>
	<path class="st5" d="M246.5,72.2c0,0,0-0.3-0.2-0.8c-0.2-0.7-0.7-1.4-1.3-1.8c-0.9-0.7-2.1-0.8-3.2-0.4c-1.7,0.6-2.6,2.5-2,4.3
		c0.3,0.9,1.1,1.6,2,2c1.1,0.4,2.2,0.2,3.1-0.4c0.6-0.5,1.1-1.1,1.3-1.8C246.5,72.5,246.5,72.2,246.5,72.2c0.1,0.3,0.1,0.6,0,0.9
		c-0.2,0.8-0.6,1.6-1.3,2.1c-1,0.8-2.3,1-3.6,0.6c-2-0.7-3-2.9-2.3-4.8c0.4-1.1,1.2-1.9,2.3-2.3c1.2-0.4,2.6-0.2,3.6,0.6
		c0.7,0.5,1.1,1.3,1.3,2.1C246.6,71.6,246.6,71.9,246.5,72.2z"/>
</g>
<g id="freepik--Character--inject-84">
	<path class="st5" d="M279.4,46.2c0.8-1.5,2.4-2.4,4.1-2.2c2-1.6,4.8-1.6,6.8,0c2.3-1.4,5.3-0.7,6.7,1.6c0.4,0.7,0.7,1.5,0.7,2.3
		c2.2-0.4,4.3,1.1,4.7,3.3c0.2,1.3-0.2,2.6-1,3.5c2.1,0.6,3.2,2.8,2.6,4.9c-0.5,1.8-2.3,2.9-4.1,2.8l-19.7-11.6
		C279,49.5,278.6,47.7,279.4,46.2z"/>
	<path class="st8" d="M300.5,62.9c-0.9-8.6-8.2-15.2-16.9-15h-0.9c-9.3,0.7-13.9,9-12.9,18.3l2,31l1.4,3.9l16,20.1l4-18.1l0.1-8.4
		c0,0,8.9-1.6,8.8-10.5C302.1,79.8,301.3,70.9,300.5,62.9z"/>
	<path class="st9" d="M293.3,94.6c-4.1,0.1-8.2-1-11.7-3.2c0,0,2.9,6.4,11.7,5.4L293.3,94.6z"/>
	<path class="st5" d="M298.1,71.6c0,0.7-0.5,1.3-1.2,1.3c-0.7,0.1-1.3-0.4-1.3-1.1c0,0,0,0,0,0c0-0.7,0.5-1.3,1.2-1.3
		C297.4,70.4,298,70.9,298.1,71.6C298.1,71.6,298.1,71.6,298.1,71.6z"/>
	<path class="st5" d="M298.8,67.7c-0.1,0.2-1.1-0.5-2.5-0.5s-2.4,0.7-2.5,0.6s0.1-0.4,0.5-0.7c0.6-0.4,1.3-0.7,2-0.7
		c0.7,0,1.4,0.2,2,0.6C298.7,67.4,298.9,67.7,298.8,67.7z"/>
	<path class="st5" d="M285.6,72.3c-0.1,0.2-1.1-0.5-2.5-0.5s-2.4,0.7-2.5,0.6s0.1-0.4,0.5-0.7c0.6-0.4,1.3-0.7,2-0.7
		c0.7,0,1.4,0.2,2,0.6C285.6,71.9,285.7,72.2,285.6,72.3z"/>
	<path class="st5" d="M290.4,77.9c0.7-0.2,1.5-0.4,2.2-0.4c0.4,0,0.7-0.1,0.7-0.4c0-0.4-0.1-0.7-0.3-1c-0.4-0.8-0.7-1.7-1.1-2.7
		c-1-2.2-1.8-4.6-2.5-6.9c0.2-0.1,1.5,3,3,6.7c0.4,0.9,0.7,1.8,1,2.7c0.2,0.4,0.3,0.9,0.2,1.4c-0.1,0.3-0.3,0.4-0.6,0.5
		c-0.2,0.1-0.4,0.1-0.6,0.1C291.9,78,291.1,78,290.4,77.9z"/>
	<path class="st5" d="M285.7,69.1c-0.2,0.4-1.4,0.1-2.8,0.1s-2.6,0.4-2.8,0c-0.1-0.2,0.2-0.5,0.7-0.8c0.6-0.4,1.4-0.6,2.1-0.6
		c0.7,0,1.5,0.1,2.1,0.5C285.5,68.6,285.7,69,285.7,69.1z"/>
	<path class="st5" d="M298.4,64c-0.2,0.3-1.2,0.1-2.3,0.2s-2.1,0.4-2.3,0.1c-0.1-0.2,0-0.5,0.4-0.8c1.1-0.8,2.6-1,3.7-0.3
		C298.3,63.5,298.5,63.8,298.4,64z"/>
	<path class="st5" d="M299.6,58.8c0,0-2.5-5.5-5.2-6.8c-3.3-1.5-4.6,2.1-7.8,1.3s-6.3-2.3-9.4,0.2c-3.4,2.7-1.8,4.5-1.9,8.5
		c-0.5,16.1-3.4,20.7-4.4,13.1c-0.1-0.8-2.4-1.4-2.8-4.9c-0.5-4.5-0.8-10,0.1-13.3c0.8-2.7,2.3-4.7,5-6.8c4.3-3.4,10.4-3.6,14.5-3.2
		S299.8,51.8,299.6,58.8z"/>
	<path class="st8" d="M271.5,74.9c-0.1-1.3-1.2-2.4-2.6-2.3c0,0-0.1,0-0.1,0c-1.7,0.2-3.5,1.2-3.3,4.6c0.3,6.1,6.4,4.5,6.4,4.3
		S271.6,77.4,271.5,74.9z"/>
	<path class="st9" d="M270.4,79.3c0,0-0.1,0.1-0.3,0.2c-0.3,0.1-0.5,0.1-0.8,0c-0.8-0.4-1.4-1.3-1.4-2.2c0-0.5,0-1,0.2-1.5
		c0.1-0.4,0.4-0.7,0.8-0.9c0.2-0.1,0.5,0,0.6,0.3c0.1,0.2,0.1,0.3,0.1,0.3s0.1-0.1,0.1-0.4c0-0.1-0.1-0.3-0.3-0.4
		c-0.2-0.1-0.4-0.2-0.6-0.1c-0.5,0.1-0.9,0.5-1.1,1c-0.2,0.5-0.3,1.1-0.3,1.7c0,1.1,0.7,2.1,1.7,2.6c0.3,0.1,0.7,0,1-0.2
		C270.4,79.5,270.5,79.4,270.4,79.3z"/>
	<path class="st5" d="M271.4,63c0.8,0.6,1.7,1,2.6,1.1c1,0.1,1.9-0.5,2.2-1.4c0.1-0.4,0-0.9,0.2-1.3s1-0.3,1.5-0.2
		c1.8,0.1,3.5-1.1,4-2.9c0.6,0.6,1.5,0.7,2.2,0.2c0.6-0.5,1.2-1.1,1.6-1.8c0.5-0.7,1.3-1.1,2.1-1.1c0.4,0.1,0.9,0.2,1.3,0.3
		c0.8-0.1,1.2-1,1.3-1.8s0.2-1.7,0.9-2.2c0.7-0.3,1.5-0.3,2.2-0.1c0.7,0.1,1.7-0.1,1.9-0.8c0.1-0.4,0-0.8-0.3-1.1
		c-1.1-1.5-3-2.1-4.7-1.4c-0.9-2.8-3.9-4.4-6.8-3.5c-1.4,0.4-2.5,1.4-3.1,2.6c-2.3-2-5.7-1.7-7.7,0.5c-0.4,0.5-0.8,1-1,1.6
		c-2.2-0.5-4.3,0.9-4.7,3.1c-0.2,0.9-0.1,1.9,0.4,2.7c-1.1,0.6-1.9,1.7-2,3c0,1.2,0.9,2.2,2.1,2.2c0.1,0,0.2,0,0.4,0
		c-0.5,1.1,0,2.4,1.1,2.9c1,0.4,2.2,0.1,2.7-0.8"/>
	<path class="st9" d="M287,80.2c-0.1-0.1-0.3-0.1-0.4-0.1c-0.1,0.1-0.2,0.2-0.2,0.3c-0.4,1-0.3,2.1,0.4,3l0,0
		c0.7,0.9,1.9,1.1,2.8,0.4c0.3-0.2,0.5-0.5,0.6-0.8l0.5-1L287,80.2z"/>
	<path class="st5" d="M289.9,83.4c0,0-0.4,0.6-1.5,0.8c-0.3,0-0.6,0-0.9-0.2c-0.3-0.1-0.6-0.3-0.9-0.6c-0.4-0.7-0.6-1.4-0.6-2.2
		c0-0.2,0-0.4,0-0.6c0-0.2,0.2-0.5,0.4-0.6c0.2-0.1,0.5-0.1,0.7,0l0.5,0.2l1.6,0.8c0.5,0.2,1,0.5,1.4,0.9c-0.5-0.1-1.1-0.3-1.6-0.6
		l-1.6-0.8c-0.3-0.1-0.7-0.4-0.8-0.3s-0.2,0.5-0.2,0.9c0,0.7,0.1,1.4,0.5,2c0.2,0.2,0.4,0.4,0.7,0.5c0.2,0.1,0.5,0.2,0.8,0.2
		C288.9,83.8,289.4,83.7,289.9,83.4z"/>
	<path class="st4" d="M267.4,60.8c0,0.4,0.1,0.9,0.4,1.2c0.3,0.4,0.8,0.6,1.2,0.7c0.6,0.1,1.3-0.1,1.7-0.5h-0.3
		c0.3,0.6,0.8,1.1,1.2,1.5c0.3,0.3,0.7,0.5,1.1,0.7c1.1,0.3,2.3-0.1,3-1c0.2-0.4,0.4-0.8,0.5-1.3c0-0.2,0-0.3,0-0.5
		c-0.1,0.1-0.1,0.3-0.2,0.5c-0.1,0.4-0.3,0.8-0.5,1.2c-0.9,1.1-2.5,1.2-3.5,0.3c-0.1,0-0.1-0.1-0.2-0.1c-0.5-0.4-0.9-0.9-1.2-1.4
		l-0.1-0.2l-0.1,0.1c-0.4,0.4-0.9,0.6-1.5,0.5c-0.4-0.1-0.8-0.2-1.1-0.6C267.7,61.5,267.5,61.1,267.4,60.8z"/>
	<path class="st4" d="M278.7,46.6c0,0,0.2,0,0.4,0.2c0.4,0.2,0.8,0.4,1,0.8l0.1,0.1l0.1-0.1c0.7-1.1,1.7-1.9,2.9-2.5
		c0.8-0.4,1.6-0.6,2.4-0.6c1.7,0,3.2,0.8,4.2,2.1c0.4,0.5,0.6,1.2,0.7,1.8v0.2l0.2-0.1c0.9-0.2,1.8-0.2,2.5,0.3
		c0.6,0.3,1.1,0.8,1.4,1.5c0.3,0.6,0.4,1.2,0.4,1.8c0.1-0.2,0.1-0.3,0.1-0.5c0-0.5-0.1-0.9-0.3-1.4c-0.3-0.7-0.8-1.3-1.5-1.6
		c-0.8-0.5-1.8-0.6-2.8-0.3l0.2,0.1c-0.1-0.7-0.3-1.4-0.8-2c-0.4-0.6-1-1.2-1.7-1.5c-0.8-0.5-1.8-0.7-2.8-0.7
		c-0.9,0-1.7,0.3-2.5,0.6c-1.2,0.6-2.2,1.5-2.9,2.6h0.2c-0.3-0.4-0.7-0.6-1.1-0.8C279,46.6,278.8,46.5,278.7,46.6z"/>
	<path class="st5" d="M298.8,332.7l0.1,17.2c0,0,17.5,5.6,17.9,8.8l-33.3,1.4l-1.3-26.8L298.8,332.7z"/>
	<path class="st1" d="M288.5,348.9c-0.7,0.2-1,0.9-0.9,1.6c0.2,0.7,0.9,1,1.6,0.9c0.7-0.2,1.1-1,0.9-1.7c-0.3-0.7-1.1-1-1.7-0.7"/>
	<path class="st4" d="M283.4,360.2v-2.7l32-0.4c0,0,1.5,0.6,1.4,1.6L283.4,360.2z"/>
	<path class="st0" d="M299.5,349.7c0,0.2-0.8,0.3-1.6,0.8s-1.2,1.3-1.3,1.2s0-1,1-1.7S299.5,349.6,299.5,349.7z"/>
	<path class="st0" d="M303,351c0,0.2-0.6,0.5-1.2,1.2s-0.6,1.5-0.8,1.5s-0.3-0.9,0.4-1.8S303,350.8,303,351z"/>
	<path class="st0" d="M305.2,355.1c-0.1,0-0.4-0.8,0-1.7s1.1-1.3,1.2-1.2s-0.4,0.6-0.7,1.4S305.3,355.1,305.2,355.1z"/>
	<path class="st0" d="M299,345.8c-0.1,0.1-0.8,0-1.7,0.1s-1.6,0.4-1.7,0.3s0.6-0.8,1.7-0.9S299.1,345.7,299,345.8z"/>
	<path class="st5" d="M260.1,336.4l-1.8,20.7l3.3,16.8c0.2,1.2-0.5,2.3-1.7,2.5c0,0-0.1,0-0.1,0l0,0c-0.7,0.1-1.4-0.2-1.8-0.7
		c-3-3.2-13.9-15.2-13.6-16.7c0.2-1.7,0.4-22,0.4-22L260.1,336.4z"/>
	<path class="st4" d="M259.8,376.4l-15.4-18.8l-0.1,0.9c-0.1,0.8,0.2,1.5,0.6,2.1c1.2,1.6,4.7,6.1,12.9,15.1
		C258.4,376.3,259.1,376.5,259.8,376.4L259.8,376.4z"/>
	<g class="st10">
		<path class="st0" d="M249.1,351.2c0.5,0.4,0.6,1.2,0.2,1.7c-0.4,0.5-1.1,0.6-1.7,0.3c-0.5-0.4-0.6-1.2-0.2-1.8
			C247.9,350.9,248.7,350.8,249.1,351.2"/>
	</g>
	<path class="st0" d="M255.6,367c0.5-0.6,1.2-1.1,1.9-1.5c0.8-0.3,1.6-0.4,2.4-0.3c0,0-0.2-0.2-0.7-0.3c-0.6-0.1-1.3,0-1.9,0.2
		c-0.6,0.2-1.1,0.6-1.5,1.2C255.6,366.7,255.6,367,255.6,367z"/>
	<path class="st0" d="M256.9,369.9c0.6-0.3,1.2-0.6,1.9-0.8c0.7-0.1,1.4-0.1,2-0.1c-0.6-0.4-1.4-0.6-2.1-0.3
		C257.5,369,256.8,369.9,256.9,369.9z"/>
	<path class="st0" d="M253.1,363.3c0.9-0.5,1.9-1,2.9-1.4c1-0.3,2.1-0.4,3.1-0.5C256.9,360.8,254.5,361.6,253.1,363.3L253.1,363.3z"
		/>
	<path class="st0" d="M253.1,357c0.1,0.1,1.2-0.3,2.7-0.2c1.5,0,2.7,0.5,2.7,0.4C256.9,356.1,254.8,356,253.1,357z"/>
	<path class="st0" d="M253.5,350.9c0.9-0.2,1.9-0.3,2.8-0.3c0.9,0.2,1.9,0.5,2.7,0.9c0,0-0.2-0.3-0.6-0.6c-1.2-0.8-2.8-0.9-4.1-0.4
		C253.7,350.6,253.5,350.8,253.5,350.9z"/>
	<path class="st0" d="M256.4,349.4c0.1-0.3,0.1-0.5,0.1-0.8c0-0.7-0.2-1.4-0.5-2.1c-0.2-0.5-0.5-0.9-1-1.2c-0.3-0.2-0.7-0.1-1,0.1
		c-0.2,0.2-0.4,0.6-0.4,0.9c0,1.4,1,2.7,2.5,3c1.4,0.2,2.8-0.4,3.5-1.6c0.2-0.3,0.2-0.7,0.1-1c-0.1-0.3-0.5-0.5-0.9-0.5
		c-0.5,0.1-1,0.3-1.4,0.6c-0.6,0.4-1.1,0.9-1.5,1.5c-0.3,0.4-0.4,0.7-0.4,0.7c0.6-0.7,1.3-1.4,2.1-2c0.4-0.3,0.8-0.4,1.2-0.5
		c0.2,0,0.4,0.1,0.5,0.3c0.1,0.2,0,0.5-0.1,0.7c-0.7,1-1.9,1.5-3.1,1.4c-1.2-0.2-2.1-1.3-2.1-2.5c0-0.2,0.1-0.5,0.2-0.6
		c0.1-0.1,0.4-0.2,0.5-0.1c0.4,0.2,0.7,0.6,0.8,1C256,347.5,256.3,348.4,256.4,349.4z"/>
	<path class="st5" d="M316.4,190.1c1.6,7.1,2.1,14.5,1.6,21.7c-0.4,4.6-15.9,132.4-15.9,132.4h-21l5.9-120.1l-1.7,0.4
		c0,0-11.5,51.2-12.4,59.5c-0.8,7.5-11.1,66-11.1,66l-19.9-0.2l7.4-75.6l7.1-68.7l2.7-20L316.4,190.1z"/>
	<path class="st5" d="M283.6,211.9c0.3,0.2,0.6,0.4,0.9,0.5c0.8,0.4,1.7,0.7,2.6,0.9c0.6,0.1,1.3,0.1,1.9,0c0.7-0.1,1.4-0.5,2-1
		c0.6-0.6,1-1.3,1.2-2.1c0.2-0.8,0.4-1.7,0.6-2.5c0.7-3.5,1.1-6.6,1.4-8.9c0.1-1.1,0.2-2.1,0.3-2.7c0-0.3,0-0.7,0-1
		c-0.1,0.3-0.2,0.7-0.2,1c-0.1,0.7-0.2,1.6-0.4,2.7c-0.3,2.3-0.8,5.4-1.5,8.9c-0.3,1.7-0.6,3.4-1.6,4.5c-1,0.8-2.3,1.2-3.6,0.9
		c-0.9-0.1-1.8-0.4-2.6-0.8C284.3,212.1,284,212,283.6,211.9z"/>
	<path class="st5" d="M290,195.6c0,0-0.1-0.1-0.4-0.1c-0.4,0-0.8,0.1-1.2,0.4c-0.5,0.4-0.9,1-0.9,1.6c0.1,1.2,1.1,2,2.2,1.9
		c0.5,0,1-0.2,1.3-0.6c0.4-0.5,0.6-1.2,0.4-1.8c-0.1-0.4-0.3-0.8-0.6-1.1c-0.1-0.1-0.3-0.2-0.4-0.2c0.4,0.3,0.6,0.8,0.7,1.3
		c0.1,0.5-0.1,1.1-0.4,1.5c-0.7,0.6-1.8,0.6-2.4-0.1c-0.2-0.3-0.4-0.6-0.4-1c0-0.5,0.3-1,0.7-1.4C289,195.8,289.5,195.6,290,195.6z"
		/>
	<path class="st5" d="M256.6,204.3c0.2,0.1,0.5,0.1,0.7,0.1c0.7,0.1,1.3,0.1,2,0c4.4-0.3,8.6-2,11.8-5c0.5-0.4,0.9-0.9,1.4-1.4
		c0.2-0.2,0.3-0.4,0.4-0.6c-0.1,0-0.7,0.7-2,1.8c-3.3,2.8-7.3,4.5-11.6,4.9C257.7,204.3,256.6,204.2,256.6,204.3z"/>
	<path class="st5" d="M307.8,196c0.2,0.8,0.6,1.5,1,2.1c0.9,1.6,2,3.2,3.2,4.5c1.2,1.3,2.6,2.5,4.1,3.5c0.6,0.4,1.2,0.8,1.9,1
		c0-0.1-0.7-0.5-1.8-1.3c-1.4-1.1-2.8-2.3-4-3.6c-1.2-1.3-2.3-2.8-3.3-4.3C308.6,197.3,308.2,196.6,307.8,196z"/>
	<path class="st9" d="M315.2,65.3c-1.8,0.5-5.5-1.8-7.1-2.8c-0.9-0.7-2-1.2-3.1-1.5c-1.3,0-2.6,0.1-3.9,0.2c-0.9,0.1-1.7-0.3-2.2-1
		v-1.4l7.4-1.5l5.1,2.5L315.2,65.3z"/>
	<path class="st8" d="M318.7,65.6c-1.2,0.1-2.4,0.1-3.5,0c-3-0.1-4.4-2.4-5.2-3s-5-3.1-5-3.1l-6.5,0.9c-1.3,0.1-2.6,0.2-3.9,0.2
		c-0.7,0-1.3-0.6-1.4-1.3c0-0.1,0-0.3,0.1-0.4c0,0,11.9-3.5,12.1-4c0.9-1.6,3.1-1,4-0.8s15.5,6,15.5,6l-4.9,6.3L318.7,65.6z"/>
	<path class="st9" d="M318.7,65.6c0.1,0,0.2,0.1,0.3,0.2l1,0.5H320l4.8-6.3l0.1,0.3l-11-4.2l-3.2-1.2c-0.5-0.2-1.1-0.4-1.7-0.5
		c-0.6-0.1-1.2-0.2-1.7-0.2c-0.6,0-1.1,0.3-1.5,0.7l-0.1,0.2c-0.1,0.1-0.1,0.2-0.2,0.2c-0.2,0.1-0.3,0.2-0.5,0.2l-0.9,0.3
		c-1.2,0.4-2.5,0.8-3.7,1.2c-2.4,0.8-4.7,1.5-7,2.1l0.2-0.2c-0.1,0.5,0,1,0.5,1.2c0.5,0.2,1,0.2,1.6,0.2c1.1,0,2.2-0.1,3.3-0.2
		l6.1-0.9h0.1h0.1l2.9,1.8l1.3,0.8c0.4,0.2,0.9,0.5,1.2,0.9c0.6,0.7,1.3,1.3,2,1.8c0.6,0.4,1.3,0.7,2,0.8c1,0.1,2.1,0.2,3.1,0.2h0.8
		C318.6,65.5,318.6,65.5,318.7,65.6c-0.4,0-0.7,0.1-1.1,0.1c-1.1,0-2.1,0-3.2-0.1c-0.8-0.1-1.5-0.4-2.2-0.8
		c-0.7-0.5-1.4-1.1-2.1-1.7c-0.4-0.3-0.8-0.6-1.2-0.8l-1.3-0.8l-2.9-1.8h0.1l-6.1,0.9c-1.1,0.2-2.2,0.2-3.4,0.3
		c-0.6,0.1-1.2,0-1.8-0.2c-0.3-0.2-0.6-0.5-0.7-0.8c-0.1-0.3-0.1-0.7,0-1v-0.1l0.1,0c2.2-0.7,4.6-1.4,7-2.1c1.3-0.4,2.5-0.8,3.7-1.2
		c0.3-0.1,0.6-0.2,0.9-0.3c0.1,0,0.2-0.1,0.4-0.2c0,0,0,0,0.1,0c-0.1,0,0-0.1,0-0.1l0.1-0.2c0.5-0.5,1.1-0.8,1.8-0.9
		c1.3,0,2.5,0.2,3.6,0.8l3.2,1.2l10.9,4.3l0.2,0.1l-0.1,0.2l-5,6.2v0.1l0,0l-0.9-0.6C319,65.8,318.9,65.7,318.7,65.6z"/>
	<path class="st9" d="M314.6,64.1c-0.1,0-0.3,0-0.4,0c-0.4-0.1-0.8-0.2-1.1-0.4c-1.3-0.7-2.4-1.8-3.1-3.1l0.1,0.1l-2.2-0.3
		c-0.9-0.2-1.6-0.8-2.1-1.5l0.2,0.1l-2.6-0.2h0.1c-1.3,0.3-2.8,0.6-4.2,0.8l-1,0.1c-0.3,0.1-0.7,0.1-1,0c-0.7-0.2-1.2-0.7-1.5-1.3
		l-0.1-0.2l0.3-0.1c3.1-1,6.2-1.9,9.4-2.6l-0.1,0.1c0.1-0.7,0.6-1.2,1.3-1.3c0.4-0.1,0.9,0,1.3,0.1c0.3,0.1,0.5,0.2,0.8,0.3
		c0.2,0.1,0.2,0.1,0.2,0.2c0,0-0.4-0.1-1-0.3c-0.4-0.1-0.8-0.1-1.2,0c-0.5,0.1-0.9,0.6-1,1.1v0.1h-0.1c-2.3,0.5-5.6,1.6-9.3,2.8
		l0.2-0.3c0.2,0.5,0.6,0.9,1.1,1c0.6,0,1.2,0,1.8-0.1c1.5-0.2,2.9-0.5,4.2-0.8h0.1l2.6,0.3h0.1l0.1,0.1c0.4,0.7,1.1,1.2,1.8,1.4
		l2.2,0.4h0.1l0,0.1c0.7,1.3,1.7,2.3,2.9,3.1C313.7,63.8,314.1,64,314.6,64.1z"/>
	<path class="st11" d="M309.1,98l26-13.1l-1.1-2l-15.3-14.8l8.1-10.8L347,75.8c9.1,10.6,5.5,15.2-0.4,20.6L330,109.7l-16.1,11.7
		L309.1,98z"/>
	<path class="st5" d="M319.5,102.1c-0.1,1-0.2,1.9-0.4,2.8c-0.3,1.7-0.7,4.2-1,6.8s-0.4,5.1-0.5,6.9c0,1-0.1,1.9-0.2,2.9
		c-0.2-0.9-0.2-1.9-0.2-2.9c0-2.3,0.1-4.6,0.4-6.9c0.2-2.3,0.6-4.6,1.1-6.8C318.9,104,319.2,103,319.5,102.1z"/>
	<path class="st5" d="M344,87c-1.5-0.1-3-0.4-4.5-0.9c-1.5-0.3-2.9-0.8-4.3-1.4c1.5,0.1,3,0.4,4.5,0.9C341.2,85.9,342.6,86.4,344,87
		z"/>
	<path class="st3" d="M271.7,94.7l10.7,8.3l6.8,8.6l2.5-8.9l1.8-7l2.9,2.9l7.4,15.7l8.3,75.8c0,0-14.4,4.2-21.9,4.8
		s-19.4-1.5-19.4-1.5v-39.8l-4.2-39.5l5.1-15.1L271.7,94.7z"/>
	<path class="st5" d="M293.3,194.3c0,0,0-0.1,0-0.2v-0.6c0-0.6,0-1.4-0.1-2.4c-0.1-2.1-0.2-5.1-0.3-8.8c-0.3-7.5-0.7-17.8-1.3-29.1
		s-1.2-21.6-1.8-29.1c-0.2-3.7-0.5-6.7-0.6-8.8c-0.1-1-0.1-1.8-0.2-2.4c0-0.3,0-0.5,0-0.6V112c0,0.1,0,0.1,0,0.2l0.1,0.6
		c0,0.6,0.1,1.4,0.2,2.4c0.2,2.1,0.4,5.1,0.7,8.8c0.6,7.4,1.3,17.7,1.9,29.1s1,21.7,1.2,29.1c0.1,3.7,0.2,6.8,0.2,8.8
		c0,1,0,1.8,0,2.4v0.6C293.3,194.2,293.3,194.2,293.3,194.3z"/>
	<path class="st11" d="M270.1,98.6l-2.5,3.4l-20.2,10.6l11.2,34.3l3,19.2l-11.4,45.7c0,0,13.8,4.7,15,3.2c1.3-2.4,2.5-4.9,3.5-7.5
		c3-7.2,4.9-14.7,5.8-22.4c0.8-7.8,1.6-17.7,1-24.4c-1.1-12.6-2.7-33.3-2.9-38.7s-1.1-26-1.1-26L270.1,98.6z"/>
	<path class="st11" d="M293.6,95.9l6.2,3l11-1.5l6.7,18.9l-0.3,45.2l9.9,48.5c0,0-7.3,2.6-10.1,1.5s-6.8-7.6-7-11.5s-5.7-42-5.7-42
		l-5.4-51.3L293.6,95.9z"/>
	<path class="st5" d="M301.9,100.5c0,0,0.1,0.1,0.3,0.3l0.8,0.9l2.8,3.5l0.1,0.1l-0.1,0.1l-2.4,1.8v-0.2l2.8,0.9h0.1v0.1
		c0,4.9-0.1,11.1-0.2,17.8c-0.1,8.2-0.2,15.6-0.3,21c0,2.7-0.1,4.8-0.1,6.4c0,0.7,0,1.3-0.1,1.7c0,0.2,0,0.3,0,0.4c0,0,0,0.1,0,0.1
		c0,0,0,0,0-0.1s0-0.3,0-0.4c0-0.4,0-1,0-1.7c0-1.5,0-3.7,0-6.4c0.1-5.4,0.1-12.8,0.2-21c0.1-6.7,0.2-12.9,0.2-17.8l0.1,0.1
		l-2.8-0.9L303,107l0.2-0.1l2.4-1.8v0.1l-2.7-3.5l-0.7-1C302,100.6,302,100.6,301.9,100.5z"/>
	<path class="st5" d="M275,154.2c0,0,0,0,0-0.1l-0.1-0.4c-0.1-0.4-0.3-1-0.5-1.7c-0.5-1.5-1.2-3.6-2.1-6.2c-0.5-1.3-1-2.7-1.5-4.3
		s-1.1-3.2-1.6-5c-0.9-3.9-1.6-7.8-2.2-11.7c-0.8-5.5-1.2-10.6-1.5-15v-0.1h0l2.4-2.3v0.2l-2.3-1.7l-0.1-0.1l0.1-0.1
		c1.7-2.3,3.1-4.2,4.1-5.5l1.1-1.5c0.1-0.2,0.2-0.3,0.3-0.4l0.1-0.1c0,0,0,0.1-0.1,0.2l-0.3,0.4l-1.1,1.5l-4,5.6v-0.2l2.3,1.7
		l0.1,0.1l-0.1,0.1l-2.4,2.3v-0.1c0.3,4.4,0.8,9.6,1.6,15c0.5,3.9,1.2,7.8,2.1,11.7c0.5,1.8,1,3.4,1.5,5s1,3,1.5,4.3
		c0.9,2.6,1.6,4.8,2,6.2c0.2,0.7,0.4,1.3,0.5,1.7L275,154.2C275,154.1,275,154.2,275,154.2z"/>
	<path class="st5" d="M288.9,111.3c-0.2-0.2-0.4-0.3-0.6-0.5l-1.5-1.5c-1.3-1.3-3-3.1-5.1-5.2h0.2c-0.7,0.8-1.1,1.8-1.3,2.8
		c-0.1,0.5-0.2,1.1-0.1,1.6v0.3l-0.3-0.2c-2.6-2.1-4.6-4.1-6.2-5.5l-1.8-1.6c-0.2-0.2-0.5-0.4-0.7-0.6c0.3,0.1,0.5,0.3,0.7,0.5
		c0.5,0.3,1.1,0.9,1.9,1.6c1.6,1.3,3.7,3.4,6.2,5.4l-0.2,0.1c0-0.6,0-1.1,0.1-1.7c0.2-1.1,0.7-2.1,1.4-2.9l0.1-0.1l0.1,0.1l5,5.3
		l1.4,1.6C288.6,110.9,288.7,111.1,288.9,111.3z"/>
	<path class="st5" d="M295.7,100c0,0.2,0,0.3,0,0.5c0,0.3,0,0.8-0.1,1.3c-0.1,1.5-0.4,3.1-0.8,4.6l-0.1,0.4l-0.2-0.3
		c-0.5-1-1.2-1.9-2-2.7c-0.2-0.2-0.5-0.4-0.7-0.6l0.2-0.1c-0.5,2.1-1.1,4.1-1.8,6.1c-0.3,0.7-0.5,1.3-0.7,1.7
		c-0.1,0.2-0.2,0.4-0.3,0.6c0-0.2,0.1-0.4,0.2-0.7l0.6-1.8c0.7-2,1.3-4,1.7-6l0-0.2l0.2,0.2c0.2,0.2,0.5,0.4,0.7,0.7
		c0.8,0.8,1.5,1.8,2,2.8h-0.3c0.4-1.5,0.7-3,0.9-4.5C295.6,100.6,295.6,100,295.7,100z"/>
	<polygon class="st11" points="312.1,180.2 313.9,185.8 324.1,184.9 320.9,179.5 	"/>
	<path class="st5" d="M312.1,180.2c0.2,0,0.4-0.1,0.6-0.1l1.8-0.2c1.5-0.1,3.8-0.4,6.4-0.6h0.1v0.1l3.2,5.4l0.1,0.2h-0.2h-0.5
		l-9.7,0.9h-0.1v-0.1c-0.5-1.8-1-3.2-1.3-4.1c-0.1-0.5-0.2-0.8-0.3-1.1C312.1,180.4,312.1,180.3,312.1,180.2c0,0.1,0.1,0.2,0.1,0.3
		l0.4,1.1c0.3,1,0.8,2.4,1.4,4l-0.1-0.1l9.7-0.9h0.5L324,185l-3.2-5.4l0.1,0.1c-2.6,0.2-4.8,0.3-6.3,0.4l-1.8,0.1L312.1,180.2z"/>
	<g class="st12">
		<path d="M306,107.9l1.7,2.3c0,0-0.5,35.2-2.3,44L306,107.9z"/>
	</g>
	<path class="st11" d="M236,173.6c-0.5-2.4-0.9-4.8-1.1-7.2c0-2.1,0.1-4.1,0.4-6.2c0.8-7,12.3-47.6,12.3-47.6l11.5,31.6l-6,21
		l6.9,42l-16,3.2C243.9,210.5,238.3,183.2,236,173.6z"/>
	<path class="st13" d="M245.4,242.9c0,0,2-19.8,6.6-22s11-3.7,12.8-0.8c2.2,3.7,3.7,7.8,4.4,12.1c0.4,4,0.6,7.9,0.4,11.9l-5.3-0.6
		c0,0,0.1-19.7-1.5-22.6s-9.7-0.5-10.6,3s-2.7,19.2-2.7,19.2L245.4,242.9z"/>
	<path class="st13" d="M227.3,270.9c0.2-8.1,0.8-26.1,1.1-34c0.1-2.2,1.8-3.9,4-3.9l48.4-0.1c2.2,0,3.9,1.7,4,3.9l1.2,33.4
		c0.1,2.2-1.6,4.1-3.8,4.1c-0.1,0-0.1,0-0.2,0l-50.7,0.6c-2.2,0-4-1.8-4-4C227.3,270.9,227.3,270.9,227.3,270.9z"/>
	<path class="st5" d="M281.5,245.2c0,0,0,0.1,0,0.4s0,0.6,0,1.1c0,1,0,2.4,0,4.2c0,3.7,0,8.9,0,15.4v1.2c0,0.4-0.1,0.9-0.3,1.3
		c-0.2,0.4-0.6,0.7-1,0.9c-0.4,0.2-0.9,0.2-1.4,0.2h-5.5l-12.2,0.1l-13.5,0.1h-7.1h-3.6H236c-0.3,0-0.7,0-1,0
		c-0.7-0.2-1.2-0.6-1.5-1.2c-0.1-0.3-0.2-0.5-0.2-0.8c0-0.3,0-0.5,0-0.8c0-0.5,0-1.1,0-1.6c0-1,0-2.1,0-3.1c0-2.1,0.1-4.1,0.1-6.2
		c0.1-4,0.1-8,0.2-11.7v-0.2h0.2c13.9,0.8,25.8,0.9,34.3,0.9c4.2,0,7.6-0.1,9.9-0.1h2.6h0.7c0.1,0,0.1,0,0.2,0h-0.2h-0.7l-2.6,0.1
		c-2.3,0.1-5.6,0.1-9.9,0.2c-8.5,0.1-20.4,0-34.3-0.7l0.2-0.2c0,3.7-0.1,7.6-0.1,11.7c0,2-0.1,4.1-0.1,6.1c0,1,0,2.1,0,3.1
		c0,0.5,0,1,0,1.6c-0.1,0.5,0,1,0.2,1.5c0.3,0.5,0.7,0.9,1.3,1c0.3,0,0.6,0,0.9,0h0.9h3.6h7.1h13.5h12.2h5.7c0.4,0,0.8,0,1.2-0.2
		c0.4-0.2,0.7-0.4,0.9-0.8c0.2-0.4,0.3-0.8,0.2-1.1v-1.2c0-6.5,0.1-11.7,0.1-15.4c0-1.8,0-3.2,0-4.2c0-0.5,0-0.8,0-1.1
		S281.5,245.2,281.5,245.2z"/>
	<path class="st5" d="M267.8,266.8c0,0,0.3,0,0.9-0.1c0.8-0.2,1.5-0.6,2.1-1.2c0.9-0.9,1.3-2.2,1.2-3.5c0-1.5,0-3.2,0-5.2
		c0-1,0-2,0-3c0.1-1.1-0.2-2.1-0.9-3c-0.7-0.9-1.8-1.4-2.9-1.5c-1.2,0-2.4,0-3.7,0h-16.5c-2.2,0-3.9,1.7-4,3.9c0,0.7,0,1.4,0,2.1
		c0,1.4,0,2.7,0,4.1c0,0.7,0,1.3,0,2c0,0.6,0,1.3,0,1.9c0.2,1.2,0.9,2.2,1.9,2.9c0.5,0.3,1,0.5,1.6,0.5c0.6,0.1,1.1,0,1.7,0h6.2
		l9.1,0.1h2.5h0.6h0.2c-0.1,0-0.1,0-0.2,0h-0.6h-2.5h-9.1h-6.2c-0.6,0-1.1,0-1.7,0c-1.9-0.2-3.5-1.7-3.8-3.7
		c-0.1-0.6-0.1-1.3-0.1-1.9v-6c0-0.7,0-1.4,0-2.1c0.1-2.4,2-4.2,4.4-4.2l16.4,0.1c1.3,0,2.5,0,3.7,0c1.2,0.1,2.3,0.7,3.1,1.6
		c0.7,0.9,1,2,0.9,3.1c0,1,0,2,0,3c0,1.9,0,3.6,0,5.2c0,0.4,0,0.7,0,1.1c0,0.3-0.1,0.7-0.2,1c-0.5,1.4-1.7,2.4-3.1,2.7
		C268.4,266.6,268.1,266.7,267.8,266.8z"/>
	<g class="st12">
		<path d="M234.8,269.9c14.5,4.2,29.9,4.2,44.3-0.2L234.8,269.9z"/>
	</g>
	<path class="st1" d="M262.1,254.4h-5.7c-0.9,0-1.6-0.7-1.6-1.6l0,0c0-0.9,0.7-1.6,1.6-1.6h5.7c0.9,0,1.6,0.7,1.6,1.6l0,0
		C263.8,253.7,263.1,254.4,262.1,254.4C262.2,254.4,262.2,254.4,262.1,254.4z"/>
	<path class="st8" d="M263.2,214.3c0.9,1,1.8,2,2.5,3.2c0.6,2.2,1.1,4.4,1.4,6.6c0,0-1,0.8-2.6-2.1c-0.8-1.4-1.5-2.8-2-4.3
		L263.2,214.3z"/>
	<path class="st8" d="M265.1,224.2l-1.7-9.8l-5.8-7l-11.4,2.3l2,12.3c0,0,2.8,4.7,3.8,5.5s2.6-0.2,2.6-0.2c1.2,1.2,3.5,0.2,3.5,0.2
		c1.5,1.2,3.1-0.5,3.1-0.5s2,1.2,2.7,0.9c0.3-0.1,0.5-0.4,0.7-0.7C265.1,226.4,265.3,225.3,265.1,224.2z"/>
	<path class="st9" d="M253.1,225c0.1-0.1,0.5,0.4,0.9,1s0.6,1.2,0.5,1.3s-0.5-0.4-0.9-1S252.9,225,253.1,225z"/>
	<path class="st9" d="M256.1,224.2c0.1,0,0.5,0.8,1,1.7c0.4,0.5,0.6,1.1,0.8,1.8c-0.1,0.1-0.7-0.6-1.2-1.6
		C256.3,225.5,256.1,224.9,256.1,224.2z"/>
	<path class="st9" d="M259.7,223.8c0.1,0,0.4,0.7,0.7,1.6s0.7,1.6,0.6,1.6s-0.6-0.6-1-1.5S259.6,223.8,259.7,223.8z"/>
	<path class="st9" d="M263.8,217.5c0.8,2.4,1.2,4.9,1.4,7.4C264.4,222.6,264,220.1,263.8,217.5z"/>
	<path class="st9" d="M252.5,223c0,0,0,0.2-0.2,0.4c-0.3,0.2-0.6,0.3-0.9,0.3c-0.3,0-0.7-0.1-0.9-0.4c-0.2-0.2-0.2-0.3-0.2-0.4
		s0.5,0.3,1.1,0.3S252.4,223,252.5,223z"/>
	<path class="st9" d="M256.2,222.9c0,0,0,0.2-0.2,0.4c-0.3,0.2-0.6,0.3-1,0.3c-0.4,0-0.7-0.1-1-0.3c-0.2-0.2-0.3-0.3-0.2-0.4
		s0.6,0.2,1.2,0.2S256.1,222.8,256.2,222.9z"/>
	<path class="st9" d="M262.9,220.8c0-0.1,0.3,0.2,0.1,0.7c-0.3,0.5-0.8,0.9-1.3,1c-0.5,0.2-1.1,0.2-1.6,0c-0.4-0.1-0.6-0.4-0.5-0.4
		c0.7,0.1,1.3,0.1,2,0c0.5-0.1,0.9-0.4,1.2-0.7C263,221.1,262.9,220.8,262.9,220.8z"/>
	<path class="st5" d="M261.7,166.1c-0.1,0-2.2-10.4-4.5-23.3s-4.1-23.4-4-23.4s2.2,10.4,4.5,23.3S261.8,166.1,261.7,166.1z"/>
	<path class="st5" d="M253,165.3c0.1,0.2,0.1,0.4,0.1,0.6c0.1,0.4,0.2,1,0.3,1.7c0.3,1.5,0.6,3.6,1.1,6.2c0.9,5.3,2.1,12.6,3.4,20.6
		c0.8,4.7,1.5,9.1,2.1,13v0.2h-0.2l-11.6,2.2l-3.3,0.6c-0.4,0.1-0.8,0.1-1.2,0.2c0.4-0.1,0.8-0.2,1.1-0.3l3.3-0.7l11.6-2.4l-0.2,0.3
		c-0.6-3.9-1.4-8.3-2.1-13c-1.3-8-2.4-15.2-3.3-20.6c-0.4-2.6-0.7-4.7-0.9-6.2c-0.1-0.7-0.2-1.2-0.2-1.7
		C253,165.7,253,165.5,253,165.3z"/>
</g>
<g id="freepik--Shadow--inject-94">
	<path class="st3" d="M1205.3,564.2c0,3.4-92.8,6.1-207.3,6.1s-207.3-2.7-207.3-6.1c0-3.4,92.8-6.1,207.3-6.1
		S1205.3,560.9,1205.3,564.2z"/>
</g>
</svg>
